<?xml version="1.0" encoding="UTF-8" standalone="no"?>
<!-- Created with Inkscape (http://www.inkscape.org/) -->
<svg
   xmlns:ns="&amp;#38;#38;#38;#38;#38;#38;#38;#38;#38;#38;#38;#38;#38;#38;#38;ns_xlink;"
   xmlns:dc="http://purl.org/dc/elements/1.1/"
   xmlns:cc="http://creativecommons.org/ns#"
   xmlns:rdf="http://www.w3.org/1999/02/22-rdf-syntax-ns#"
   xmlns:svg="http://www.w3.org/2000/svg"
   xmlns="http://www.w3.org/2000/svg"
   xmlns:sodipodi="http://sodipodi.sourceforge.net/DTD/sodipodi-0.dtd"
   xmlns:inkscape="http://www.inkscape.org/namespaces/inkscape"
   width="1063"
   height="390"
   id="svg2"
   sodipodi:version="0.32"
   inkscape:version="0.46"
   version="1.0"
   sodipodi:docname="amigo.svg"
   inkscape:output_extension="org.inkscape.output.svg.inkscape"
   sodipodi:docbase="/home/danigm/Documentos/linuxHispano/tira">
  <defs
     id="defs4">
    <inkscape:perspective
       sodipodi:type="inkscape:persp3d"
       id="perspective3033"
       inkscape:vp_x="-50 : 600 : 1"
       inkscape:vp_y="0 : 1000 : 0"
       inkscape:vp_z="700 : 600 : 1"
       inkscape:persp3d-origin="300 : 400 : 1" />
    <inkscape:perspective
       sodipodi:type="inkscape:persp3d"
       id="perspective3032"
       inkscape:vp_x="-50 : 600 : 1"
       inkscape:vp_y="0 : 1000 : 0"
       inkscape:vp_z="700 : 600 : 1"
       inkscape:persp3d-origin="300 : 400 : 1" />
    <inkscape:perspective
       sodipodi:type="inkscape:persp3d"
       id="perspective3031"
       inkscape:vp_x="-50 : 600 : 1"
       inkscape:vp_y="0 : 1000 : 0"
       inkscape:vp_z="700 : 600 : 1"
       inkscape:persp3d-origin="300 : 400 : 1" />
    <inkscape:perspective
       sodipodi:type="inkscape:persp3d"
       id="perspective3030"
       inkscape:vp_x="-50 : 600 : 1"
       inkscape:vp_y="0 : 1000 : 0"
       inkscape:vp_z="700 : 600 : 1"
       inkscape:persp3d-origin="300 : 400 : 1" />
    <inkscape:perspective
       sodipodi:type="inkscape:persp3d"
       id="perspective3029"
       inkscape:vp_x="-50 : 600 : 1"
       inkscape:vp_y="0 : 1000 : 0"
       inkscape:vp_z="700 : 600 : 1"
       inkscape:persp3d-origin="300 : 400 : 1" />
    <inkscape:perspective
       sodipodi:type="inkscape:persp3d"
       id="perspective2997"
       inkscape:vp_x="-50 : 600 : 1"
       inkscape:vp_y="0 : 1000 : 0"
       inkscape:vp_z="700 : 600 : 1"
       inkscape:persp3d-origin="300 : 400 : 1" />
    <inkscape:perspective
       sodipodi:type="inkscape:persp3d"
       id="perspective2996"
       inkscape:vp_x="-50 : 600 : 1"
       inkscape:vp_y="0 : 1000 : 0"
       inkscape:vp_z="700 : 600 : 1"
       inkscape:persp3d-origin="300 : 400 : 1" />
    <linearGradient
       inkscape:collect="always"
       ns:href="#linearGradient8459"
       id="linearGradient22173"
       gradientUnits="userSpaceOnUse"
       x1="79.135063"
       y1="222.45238"
       x2="81.359901"
       y2="288.58099" />
    <linearGradient
       inkscape:collect="always"
       ns:href="#linearGradient2085"
       id="linearGradient15268"
       gradientUnits="userSpaceOnUse"
       gradientTransform="scale(1.034178,0.966951)"
       x1="146.3828"
       y1="70.228607"
       x2="116.75287"
       y2="53.988689" />
    <linearGradient
       inkscape:collect="always"
       ns:href="#linearGradient2085"
       id="linearGradient15267"
       gradientUnits="userSpaceOnUse"
       gradientTransform="scale(1.035723,0.965509)"
       x1="162.97719"
       y1="23.931684"
       x2="131.34537"
       y2="10.142395" />
    <linearGradient
       inkscape:collect="always"
       ns:href="#linearGradient4021"
       id="linearGradient15266"
       gradientUnits="userSpaceOnUse"
       gradientTransform="scale(1.026523,0.974162)"
       x1="215.19115"
       y1="116.1558"
       x2="148.53513"
       y2="78.029449" />
    <linearGradient
       inkscape:collect="always"
       ns:href="#linearGradient4021"
       id="linearGradient15265"
       gradientUnits="userSpaceOnUse"
       gradientTransform="scale(1.032621,0.96841)"
       x1="230.18588"
       y1="64.586258"
       x2="171.49763"
       y2="31.573004" />
    <radialGradient
       inkscape:collect="always"
       ns:href="#linearGradient1806"
       id="radialGradient15264"
       gradientUnits="userSpaceOnUse"
       cx="24.825565"
       cy="176.56438"
       fx="40.974991"
       fy="162.11137"
       r="42.859913" />
  </defs>
  <sodipodi:namedview
     id="base"
     pagecolor="#ffffff"
     bordercolor="#666666"
     borderopacity="1.0"
     inkscape:pageopacity="1"
     inkscape:pageshadow="2"
     inkscape:zoom="0.29678905"
     inkscape:cx="864.63556"
     inkscape:cy="-611.22022"
     inkscape:document-units="px"
     inkscape:current-layer="layer2"
     width="1062.99px"
     borderlayer="true"
     inkscape:window-width="1024"
     inkscape:window-height="729"
     inkscape:window-x="242"
     inkscape:window-y="31"
     showgrid="false" />
  <metadata
     id="metadata7">
    <rdf:RDF>
      <cc:Work
         rdf:about="">
        <dc:format>image/svg+xml</dc:format>
        <dc:type
           rdf:resource="http://purl.org/dc/dcmitype/StillImage" />
        <dc:title />
        <dc:date />
        <dc:creator>
          <cc:Agent>
            <dc:title />
          </cc:Agent>
        </dc:creator>
        <dc:rights>
          <cc:Agent>
            <dc:title />
          </cc:Agent>
        </dc:rights>
        <dc:publisher>
          <cc:Agent>
            <dc:title />
          </cc:Agent>
        </dc:publisher>
        <dc:identifier />
        <dc:source />
        <dc:relation />
        <dc:language />
        <dc:subject>
          <rdf:Bag />
        </dc:subject>
        <dc:coverage />
        <dc:description />
        <dc:contributor>
          <cc:Agent>
            <dc:title />
          </cc:Agent>
        </dc:contributor>
        <cc:license
           rdf:resource="" />
      </cc:Work>
      <cc:Work
         rdf:about="">
        <dc:format>image/svg+xml</dc:format>
        <dc:type
           rdf:resource="http://purl.org/dc/dcmitype/StillImage" />
      </cc:Work>
    </rdf:RDF>
  </metadata>
  <g
     inkscape:label="fondo"
     inkscape:groupmode="layer"
     id="layer1">
    <rect
       style="opacity:1;fill:#5c3566;fill-opacity:1;fill-rule:nonzero;stroke:#000000;stroke-width:4;stroke-linecap:round;stroke-linejoin:round;stroke-miterlimit:4;stroke-dasharray:none;stroke-dashoffset:0;stroke-opacity:1;display:inline"
       id="rect4585"
       width="1150.5601"
       height="856.79999"
       x="-39.900002"
       y="-27.019989"
       rx="15.548299"
       ry="10.315682" />
    <path
       sodipodi:type="arc"
       style="opacity:1;fill:#ffffff;fill-opacity:0.58035715;fill-rule:nonzero;stroke:none;stroke-width:3.80038881;stroke-linecap:round;stroke-linejoin:round;stroke-miterlimit:4;stroke-dasharray:none;stroke-dashoffset:0;stroke-opacity:1;display:inline"
       id="path4587"
       sodipodi:cx="581.40002"
       sodipodi:cy="374.85001"
       sodipodi:rx="535.5"
       sodipodi:ry="273.87"
       d="M 1116.9,374.85001 A 535.5,273.87 0 1 1 45.900024,374.85001 A 535.5,273.87 0 1 1 1116.9,374.85001 z"
       transform="matrix(0.9981395,0,0,1.1098713,-48.81833,-38.035264)" />
    <path
       sodipodi:type="arc"
       style="fill:#a40000;fill-opacity:1;stroke:#000000;stroke-width:1;stroke-linecap:round;stroke-linejoin:miter;stroke-miterlimit:4;stroke-dasharray:none;stroke-opacity:1;display:inline"
       id="path2819"
       sodipodi:cx="1411.7009"
       sodipodi:cy="253.46965"
       sodipodi:rx="53.76445"
       sodipodi:ry="53.76445"
       d="M 1465.4654,253.46965 A 53.76445,53.76445 0 1 1 1357.9365,253.46965 A 53.76445,53.76445 0 1 1 1465.4654,253.46965 z"
       transform="translate(-211.98567,488.70551)" />
    <path
       d="M 1465.4654,253.46965 A 53.76445,53.76445 0 1 1 1357.9365,253.46965 A 53.76445,53.76445 0 1 1 1465.4654,253.46965 z"
       sodipodi:ry="53.76445"
       sodipodi:rx="53.76445"
       sodipodi:cy="253.46965"
       sodipodi:cx="1411.7009"
       id="path2821"
       style="fill:#f57900;fill-opacity:1;stroke:#000000;stroke-width:1;stroke-linecap:round;stroke-linejoin:miter;stroke-miterlimit:4;stroke-dasharray:none;stroke-opacity:1;display:inline"
       sodipodi:type="arc"
       transform="translate(-91.985679,488.70551)" />
    <path
       transform="translate(30.014325,488.70551)"
       sodipodi:type="arc"
       style="fill:#4e9a06;fill-opacity:1;stroke:#000000;stroke-width:1;stroke-linecap:round;stroke-linejoin:miter;stroke-miterlimit:4;stroke-dasharray:none;stroke-opacity:1;display:inline"
       id="path2823"
       sodipodi:cx="1411.7009"
       sodipodi:cy="253.46965"
       sodipodi:rx="53.76445"
       sodipodi:ry="53.76445"
       d="M 1465.4654,253.46965 A 53.76445,53.76445 0 1 1 1357.9365,253.46965 A 53.76445,53.76445 0 1 1 1465.4654,253.46965 z" />
    <path
       d="M 1465.4654,253.46965 A 53.76445,53.76445 0 1 1 1357.9365,253.46965 A 53.76445,53.76445 0 1 1 1465.4654,253.46965 z"
       sodipodi:ry="53.76445"
       sodipodi:rx="53.76445"
       sodipodi:cy="253.46965"
       sodipodi:cx="1411.7009"
       id="path2825"
       style="fill:#fce94f;fill-opacity:1;stroke:#000000;stroke-width:1;stroke-linecap:round;stroke-linejoin:miter;stroke-miterlimit:4;stroke-dasharray:none;stroke-opacity:1;display:inline"
       sodipodi:type="arc"
       transform="translate(150.01433,488.70551)" />
    <path
       transform="translate(270.01433,488.70551)"
       sodipodi:type="arc"
       style="fill:#5c3566;fill-opacity:1;stroke:#000000;stroke-width:1;stroke-linecap:round;stroke-linejoin:miter;stroke-miterlimit:4;stroke-dasharray:none;stroke-opacity:1;display:inline"
       id="path2827"
       sodipodi:cx="1411.7009"
       sodipodi:cy="253.46965"
       sodipodi:rx="53.76445"
       sodipodi:ry="53.76445"
       d="M 1465.4654,253.46965 A 53.76445,53.76445 0 1 1 1357.9365,253.46965 A 53.76445,53.76445 0 1 1 1465.4654,253.46965 z" />
  </g>
  <g
     inkscape:groupmode="layer"
     id="layer2"
     inkscape:label="dibujos">
    <g
       id="g3083"
       transform="translate(-757.74686,-763.32858)">
      <path
         id="path3870"
         d="M 1037.3156,1085.4677 L 1042.4856,1107.0243 C 1053.5192,1110.5682 1046.931,1118.2052 1046.931,1118.2052 C 1040.7285,1122.4549 1035.0497,1118.7584 1035.0497,1118.7584 C 1031.6383,1111.8889 1031.2939,1084.782 1031.2939,1084.782 L 1037.3156,1085.4677 z"
         style="fill:#ffeec4;fill-opacity:1;fill-rule:evenodd;stroke:#000000;stroke-width:1.25;stroke-linecap:butt;stroke-linejoin:miter;stroke-miterlimit:4;stroke-opacity:1;display:inline" />
      <path
         id="path3871"
         d="M 1002.3305,1087.7404 L 997.16053,1109.2971 C 986.12699,1112.8409 992.71517,1120.4779 992.71517,1120.4779 C 998.91764,1124.7277 1004.5965,1121.0311 1004.5965,1121.0311 C 1008.0078,1114.1617 1008.3522,1087.0547 1008.3522,1087.0547 L 1002.3305,1087.7404 z"
         style="fill:#ffeec4;fill-opacity:1;fill-rule:evenodd;stroke:#000000;stroke-width:1.25;stroke-linecap:butt;stroke-linejoin:miter;stroke-miterlimit:4;stroke-opacity:1;display:inline" />
      <g
         transform="translate(409.59911,501.59021)"
         id="g3872"
         style="display:inline">
        <path
           sodipodi:nodetypes="cccccc"
           transform="matrix(0.859835,0,0,0.532987,537.0548,277.0172)"
           id="path3873"
           d="M 62.946547,630.72755 L 59.428131,658.65274 C 69.367059,663.38557 83.297686,660.07106 83.297686,660.07106 C 93.709897,665.75045 109.31338,659.3619 109.31338,659.3619 L 106.48852,626.46801 L 62.946547,630.72755 z"
           style="fill:#0600ff;fill-opacity:1;fill-rule:evenodd;stroke:#000000;stroke-width:1.84647799;stroke-linecap:butt;stroke-linejoin:miter;stroke-miterlimit:4;stroke-opacity:1" />
        <path
           id="path3874"
           d="M 605.49242,620.80796 L 604.35606,623.64887 L 611.36364,624.02766"
           style="fill:none;fill-opacity:0.75;fill-rule:evenodd;stroke:#000000;stroke-width:1.25;stroke-linecap:butt;stroke-linejoin:miter;stroke-miterlimit:4;stroke-opacity:1" />
        <path
           id="path3875"
           d="M 608.71212,621.18675 L 608.71212,629.14129"
           style="fill:none;fill-opacity:0.75;fill-rule:evenodd;stroke:#000000;stroke-width:1.25;stroke-linecap:butt;stroke-linejoin:miter;stroke-miterlimit:4;stroke-opacity:1" />
      </g>
      <path
         id="path3876"
         d="M 1020.7403,1046.5552 L 1019.3205,1062.6468 L 1010.3281,1066.9063 L 1022.1602,1082.0513 L 1033.9922,1065.9597 L 1024.0533,1061.7002 L 1025.4731,1048.4483 L 1020.7403,1046.5552 z"
         style="fill:#ffeec4;fill-opacity:1;fill-rule:evenodd;stroke:#000000;stroke-width:1.25;stroke-linecap:butt;stroke-linejoin:miter;stroke-miterlimit:4;stroke-opacity:1;display:inline" />
      <path
         sodipodi:nodetypes="ccccc"
         id="path3877"
         d="M 1044.4271,1135.4417 C 1071.8775,1136.8615 1072.824,1149.1669 1072.824,1149.1669 C 1072.824,1159.1058 1019.8164,1153.8997 1019.8164,1153.8997 L 1019.8164,1137.8081 L 1044.4271,1135.4417 z"
         style="fill:#ffffff;fill-opacity:1;fill-rule:evenodd;stroke:#000000;stroke-width:1.25;stroke-linecap:butt;stroke-linejoin:miter;stroke-miterlimit:4;stroke-opacity:1;display:inline" />
      <path
         sodipodi:nodetypes="ccccc"
         id="path3878"
         d="M 995.18302,1135.4417 C 967.73264,1136.8615 966.78608,1149.1669 966.78608,1149.1669 C 966.78608,1159.1058 1019.7937,1153.8997 1019.7937,1153.8997 L 1019.7937,1137.8081 L 995.18302,1135.4417 z"
         style="fill:#ffffff;fill-opacity:1;fill-rule:evenodd;stroke:#000000;stroke-width:1.25;stroke-linecap:butt;stroke-linejoin:miter;stroke-miterlimit:4;stroke-opacity:1;display:inline" />
      <path
         transform="matrix(1,0,0,1.138058,403.91731,432.20511)"
         d="M 643.56059,503.9519 A 29.545454,40.530304 0 1 1 584.46968,503.9519 A 29.545454,40.530304 0 1 1 643.56059,503.9519 z"
         sodipodi:ry="40.530304"
         sodipodi:rx="29.545454"
         sodipodi:cy="503.9519"
         sodipodi:cx="614.01514"
         id="path3882"
         style="fill:#ffeec4;fill-opacity:1;stroke:#000000;stroke-width:1.25;stroke-miterlimit:4;stroke-opacity:1;display:inline"
         sodipodi:type="arc" />
      <path
         sodipodi:nodetypes="ccccccccc"
         id="path3885"
         d="M 1019.4583,1137.4363 C 1027.332,1138.794 1033.3137,1138.8465 1041.05,1137.4363 C 1041.903,1137.4254 1042.3756,1135.2296 1042.285,1133.4266 C 1042.3091,1131.8107 1042.297,1129.8889 1041.6396,1128.9365 C 1041.1077,1128.2387 1040.4777,1128.6204 1039.8955,1128.5218 C 1031.7422,1130.3048 1028.3018,1130.037 1019.4583,1128.5218 C 1018.6053,1128.5327 1018.1327,1130.7286 1018.2233,1132.5317 C 1018.1992,1134.1475 1018.2113,1136.0692 1018.8687,1137.0216 C 1019.0434,1137.2877 1019.25,1137.4381 1019.4583,1137.4363 z"
         style="fill:#ff8c00;fill-opacity:1;stroke:#000000;stroke-width:1.25;stroke-miterlimit:4;stroke-opacity:1;display:inline" />
      <path
         sodipodi:nodetypes="ccccccccc"
         id="path3886"
         d="M 996.73104,1138.1939 C 1004.6047,1139.5515 1010.5864,1139.6041 1018.3227,1138.1939 C 1019.1757,1138.183 1019.6484,1135.9871 1019.5578,1134.1842 C 1019.5818,1132.5683 1019.5697,1130.6465 1018.9124,1129.694 C 1018.3805,1128.9963 1017.7504,1129.378 1017.1683,1129.2794 C 1009.0149,1131.0624 1005.5745,1130.7945 996.73104,1129.2794 C 995.87803,1129.2903 995.4054,1131.4862 995.496,1133.2893 C 995.47198,1134.9051 995.48408,1136.8268 996.14141,1137.7792 C 996.31614,1138.0453 996.52275,1138.1957 996.73104,1138.1939 z"
         style="fill:#ff8c00;fill-opacity:1;stroke:#000000;stroke-width:1.25;stroke-miterlimit:4;stroke-opacity:1;display:inline" />
      <path
         sodipodi:nodetypes="ccccccccccccccccc"
         id="path1830"
         d="M 990.17582,1006.531 L 984.93111,1018.1798 L 993.18097,1008.6165 L 990.56005,1021.1886 L 1003.8659,1006.8786 L 1022.3186,1025.0366 L 1019.192,1011.0495 L 1030.0963,1029.8008 L 1030.5447,1016.0944 L 1036.6528,1032.244 L 1039.5196,1020.3074 C 1041.5231,1024.4782 1043.6006,1048.9347 1043.6006,1048.9347 L 1045.2128,1028.0979 C 1045.8806,1029.8357 1048.6091,1053.1055 1048.6091,1053.1055 L 1048.6091,1044.0687 C 1051.2804,1007.9213 1047.9413,1006.531 1047.9413,1006.531 L 990.17582,1006.531 z"
         style="fill:#ffff00;fill-opacity:1;fill-rule:evenodd;stroke:#000000;stroke-width:1.25;stroke-linecap:butt;stroke-linejoin:miter;stroke-miterlimit:4;stroke-opacity:1;display:inline" />
      <g
         transform="translate(68.690001,502.34781)"
         id="g3912"
         style="display:inline">
        <path
           sodipodi:open="true"
           sodipodi:end="3.1415927"
           sodipodi:start="0"
           transform="matrix(1,0,0,-1.138058,335.2273,1077.342)"
           d="M 643.56059,503.9519 A 29.545454,40.530304 0 1 1 584.46968,503.9519"
           sodipodi:ry="40.530304"
           sodipodi:rx="29.545454"
           sodipodi:cy="503.9519"
           sodipodi:cx="614.01514"
           id="path3888"
           style="fill:#ff0000;fill-opacity:1;stroke:#000000;stroke-width:1.25;stroke-miterlimit:4;stroke-opacity:1"
           sodipodi:type="arc" />
        <path
           sodipodi:nodetypes="ccccccccc"
           id="path3889"
           d="M 919.18064,496.12998 C 928.29567,493.81769 942.14554,491.30327 979.48026,496.12998 C 981.86252,496.14469 983.18245,499.09947 982.92942,501.52572 C 982.99651,503.70002 982.96271,506.28599 981.12697,507.5676 C 979.6415,508.50647 977.88205,507.99285 976.2562,508.12562 C 936.96586,502.62612 924.75886,505.65643 919.18064,508.1256 C 916.79838,508.11091 915.47846,505.15612 915.73149,502.72987 C 915.6644,500.55558 915.69819,497.96961 917.53394,496.688 C 918.02192,496.32999 918.59891,496.12767 919.18064,496.12998 z"
           style="fill:#ff8c00;fill-opacity:1;stroke:#000000;stroke-width:1.3600812;stroke-miterlimit:4;stroke-opacity:1" />
      </g>
      <g
         transform="translate(393.31121,503.48421)"
         id="g3890"
         style="display:inline">
        <path
           d="M 602.12989,530.86845 C 607.05654,525.26543 605.33463,534.48194 604.8206,531.75602 C 606.7808,529.40933 607.77878,529.24376 610.36497,530.06557 C 610.34409,530.03664 610.32322,530.00771 610.30234,529.97879 L 610.9787,531.35108 C 610.73663,531.43117 610.49455,531.51126 610.25248,531.59135 C 607.46086,530.95027 608.17406,530.35527 605.72512,532.98992 C 600.34378,536.47657 608.31248,525.02122 603.21171,531.95027 L 602.12989,530.86845 z"
           id="path3891"
           style="fill:#000000;fill-opacity:1;fill-rule:nonzero;stroke:none;stroke-width:1pt;stroke-linecap:butt;stroke-linejoin:miter;stroke-opacity:1" />
        <path
           d="M 614.56728,529.29973 C 616.84044,527.09955 617.67109,532.45919 616.97132,530.18199 C 619.35381,530.19817 619.26628,529.49136 621.54107,529.08811 C 622.16475,529.25003 622.70678,529.57896 623.27381,529.86203 L 622.64628,531.25733 C 622.32993,531.09977 621.70166,530.83661 621.56566,530.61784 C 620.2531,530.9619 619.11415,531.64215 618.06534,531.25147 C 614.73028,534.17007 615.01348,527.41317 616.7378,529.60664 C 616.83242,529.727 615.33276,530.47148 615.41592,530.57271 L 614.56728,529.29973 z"
           id="path3892"
           style="fill:#000000;fill-opacity:1;fill-rule:nonzero;stroke:none;stroke-width:1pt;stroke-linecap:butt;stroke-linejoin:miter;stroke-opacity:1" />
      </g>
      <g
         transform="translate(397.47791,502.34781)"
         style="fill:#000000;fill-opacity:1;stroke:none;stroke-width:0.125;stroke-miterlimit:4;stroke-opacity:1;display:inline"
         id="g3893">
        <path
           d="M 607.2367,545.43155 C 606.08212,547.26231 604.9276,549.09241 603.8229,550.9538 L 602.94589,550.43308 C 604.05211,548.57079 605.20586,546.73835 606.3621,544.90679 L 607.2367,545.43155 z"
           id="path3894"
           style="fill-rule:nonzero;stroke-linecap:butt;stroke-linejoin:miter" />
        <path
           d="M 608.99652,546.06684 C 608.07973,547.98873 607.72734,550.0935 607.40375,552.178 L 606.39593,552.02123 C 606.73704,549.83274 607.11616,547.62601 608.08425,545.61071 L 608.99652,546.06684 z"
           id="path3895"
           style="fill-rule:nonzero;stroke-linecap:butt;stroke-linejoin:miter" />
        <path
           d="M 611.04396,546.76599 C 610.39259,549.6446 610.60183,552.56547 610.674,555.48529 L 609.65436,555.51047 C 609.58009,552.49906 609.3757,549.48611 610.05446,546.51862 L 611.04396,546.76599 z"
           id="path3896"
           style="fill-rule:nonzero;stroke-linecap:butt;stroke-linejoin:miter" />
        <path
           d="M 614.08554,545.87855 C 615.10551,548.04922 615.47765,550.43673 616.00176,552.75734 L 615.00686,552.98199 C 614.50104,550.74148 614.14653,548.43463 613.17327,546.33469 L 614.08554,545.87855 z"
           id="path3897"
           style="fill-rule:nonzero;stroke-linecap:butt;stroke-linejoin:miter" />
        <path
           d="M 617.37922,545.59664 C 619.80173,546.20027 620.68004,548.75811 621.6418,550.81349 L 620.71669,551.243 C 619.90288,549.50244 619.21601,547.43498 617.37922,546.61659 L 617.37922,545.59664 z"
           id="path3898"
           style="fill-rule:nonzero;stroke-linecap:butt;stroke-linejoin:miter" />
        <path
           d="M 620.38768,547.50131 C 619.70796,542.67423 624.01727,548.93674 624.86266,550.60901 L 623.95755,551.07919 C 623.31224,549.77269 619.47675,544.14459 621.33468,547.12251 L 620.38768,547.50131 z"
           id="path3899"
           style="fill-rule:nonzero;stroke-linecap:butt;stroke-linejoin:miter" />
      </g>
      <path
         sodipodi:nodetypes="cccccccccccc"
         id="path3901"
         d="M 1011.4187,1062.3851 L 1025.1366,1069.1522 L 1033.057,1062.8317 L 1045.479,1086.9493 L 1033.8584,1092.7554 L 1030.6527,1073.9972 L 1041.0712,1117.3197 C 1028.2485,1124.9123 999.79818,1117.7663 999.79818,1117.7663 L 1009.4152,1074.8905 L 1005.4081,1094.5419 L 993.78755,1088.7358 L 1011.4187,1062.3851 z"
         style="fill:#00ff15;fill-opacity:1;fill-rule:evenodd;stroke:#000000;stroke-width:1.25;stroke-linecap:butt;stroke-linejoin:miter;stroke-miterlimit:4;stroke-opacity:1;display:inline" />
      <g
         transform="matrix(0.640057,0.383722,-0.30692,0.64132,809.51911,480.53681)"
         id="g3902"
         style="display:inline">
        <path
           d="M 599.7744,582.6047 C 608.25644,589.38153 610.09805,600.71833 611.36189,610.87601 L 607.46505,611.61705 C 606.31049,602.53469 604.98578,592.17619 597.57408,585.90517 L 599.7744,582.6047 z"
           id="path3903"
           style="fill:#f0ff00;fill-opacity:1;fill-rule:nonzero;stroke:none;stroke-width:1pt;stroke-linecap:butt;stroke-linejoin:miter;stroke-opacity:1" />
        <path
           d="M 592.0493,592.28293 C 589.72885,581.79988 605.62763,572.63032 614.4743,577.55721 C 622.8142,581.80251 609.05509,601.03138 605.97685,597.13524 C 602.19911,592.35375 610.45975,588.2099 613.69999,587.77116 C 621.58401,587.26803 627.72951,590.536 625.95064,599.0788 C 623.61752,604.69835 617.26992,606.75753 611.81876,608.14488 L 610.86584,604.29438 C 614.93022,603.32293 619.68793,601.90974 622.07512,598.23333 C 622.98895,592.46722 619.82772,591.59168 614.17608,591.70915 C 612.11984,592.01401 610.76048,594.28239 609.46717,594.54375 C 601.51829,596.1501 616.98557,585.81886 612.43443,580.95917 C 606.57144,576.95159 596.32107,584.34477 595.45069,590.24209 L 592.0493,592.28293 z"
           id="path3904"
           style="fill:#f0ff00;fill-opacity:1;fill-rule:nonzero;stroke:none;stroke-width:1pt;stroke-linecap:butt;stroke-linejoin:miter;stroke-opacity:1" />
      </g>
    </g>
    <g
       id="g3889"
       transform="translate(12.59603,-4.2880103)">
      <rect
         style="fill:#000000;fill-opacity:1;fill-rule:nonzero;stroke:#000000;stroke-width:1.25;stroke-linecap:round;stroke-linejoin:round;stroke-miterlimit:4;stroke-dashoffset:0;stroke-opacity:1"
         id="rect2318"
         width="71.813507"
         height="50.484886"
         x="197.17816"
         y="312.31766"
         ry="3.9813392"
         rx="3.9813387" />
      <g
         id="g2438"
         transform="matrix(3.928694e-2,0,0,3.928694e-2,209.85255,295.03358)"
         style="stroke:#000000;stroke-width:24.65895653;stroke-miterlimit:4;stroke-opacity:1">
        <path
           style="fill:#ffffff;fill-opacity:0.7162162;fill-rule:evenodd;stroke-linecap:butt;stroke-linejoin:miter"
           d="M 1116.1347,682.47574 C 1129.291,757.26879 1175.7063,762.52305 1176.2256,762.01103 C 1173.9687,784.40158 1138.1749,849.86829 1105.41,868.74244 C 1048.0956,882.38603 1058.6686,862.77251 997.27812,858.47622 C 957.55882,851.95293 930.01912,889.25967 898.14507,869.09899 C 868.79566,856.71245 796.33943,809.72553 796.28387,674.76387 C 797.67683,643.05588 808.89721,566.83443 890.62924,553.94029 C 938.79772,543.10375 967.55822,574.31044 1004.7026,569.20112 C 1084.1743,532.92509 1128.5858,555.27447 1163.6746,588.4799 C 1165.6931,588.37968 1106.5497,623.87005 1116.1347,682.47574 z"
           id="path918"
           sodipodi:nodetypes="cccccccccc"
           transform="translate(-373.0082,375.2049)" />
        <path
           style="fill:#ffffff;fill-opacity:0.74774774;fill-rule:evenodd;stroke-linecap:butt;stroke-linejoin:miter"
           d="M 1086.5462,431.12744 C 1016.7351,446.34269 996.67415,489.50965 996.67415,531.27914 C 1091.1936,517.17607 1086.5462,431.12744 1086.5462,431.12744 z"
           id="path922"
           sodipodi:nodetypes="ccc"
           transform="translate(-373.0082,375.2049)" />
      </g>
    </g>
    <g
       transform="translate(-397.74686,-763.32858)"
       id="g3922">
      <path
         style="fill:#ffeec4;fill-opacity:1;fill-rule:evenodd;stroke:#000000;stroke-width:1.25;stroke-linecap:butt;stroke-linejoin:miter;stroke-miterlimit:4;stroke-opacity:1;display:inline"
         d="M 1037.3156,1085.4677 L 1042.4856,1107.0243 C 1053.5192,1110.5682 1046.931,1118.2052 1046.931,1118.2052 C 1040.7285,1122.4549 1035.0497,1118.7584 1035.0497,1118.7584 C 1031.6383,1111.8889 1031.2939,1084.782 1031.2939,1084.782 L 1037.3156,1085.4677 z"
         id="path3924" />
      <path
         style="fill:#ffeec4;fill-opacity:1;fill-rule:evenodd;stroke:#000000;stroke-width:1.25;stroke-linecap:butt;stroke-linejoin:miter;stroke-miterlimit:4;stroke-opacity:1;display:inline"
         d="M 1002.3305,1087.7404 L 997.16053,1109.2971 C 986.12699,1112.8409 992.71517,1120.4779 992.71517,1120.4779 C 998.91764,1124.7277 1004.5965,1121.0311 1004.5965,1121.0311 C 1008.0078,1114.1617 1008.3522,1087.0547 1008.3522,1087.0547 L 1002.3305,1087.7404 z"
         id="path3927" />
      <g
         style="display:inline"
         id="g3929"
         transform="translate(409.59911,501.59021)">
        <path
           style="fill:#0600ff;fill-opacity:1;fill-rule:evenodd;stroke:#000000;stroke-width:1.84647799;stroke-linecap:butt;stroke-linejoin:miter;stroke-miterlimit:4;stroke-opacity:1"
           d="M 62.946547,630.72755 L 59.428131,658.65274 C 69.367059,663.38557 83.297686,660.07106 83.297686,660.07106 C 93.709897,665.75045 109.31338,659.3619 109.31338,659.3619 L 106.48852,626.46801 L 62.946547,630.72755 z"
           id="path3932"
           transform="matrix(0.859835,0,0,0.532987,537.0548,277.0172)"
           sodipodi:nodetypes="cccccc" />
        <path
           style="fill:none;fill-opacity:0.75;fill-rule:evenodd;stroke:#000000;stroke-width:1.25;stroke-linecap:butt;stroke-linejoin:miter;stroke-miterlimit:4;stroke-opacity:1"
           d="M 605.49242,620.80796 L 604.35606,623.64887 L 611.36364,624.02766"
           id="path3934" />
        <path
           style="fill:none;fill-opacity:0.75;fill-rule:evenodd;stroke:#000000;stroke-width:1.25;stroke-linecap:butt;stroke-linejoin:miter;stroke-miterlimit:4;stroke-opacity:1"
           d="M 608.71212,621.18675 L 608.71212,629.14129"
           id="path3936" />
      </g>
      <path
         style="fill:#ffeec4;fill-opacity:1;fill-rule:evenodd;stroke:#000000;stroke-width:1.25;stroke-linecap:butt;stroke-linejoin:miter;stroke-miterlimit:4;stroke-opacity:1;display:inline"
         d="M 1020.7403,1046.5552 L 1019.3205,1062.6468 L 1010.3281,1066.9063 L 1022.1602,1082.0513 L 1033.9922,1065.9597 L 1024.0533,1061.7002 L 1025.4731,1048.4483 L 1020.7403,1046.5552 z"
         id="path3938" />
      <path
         style="fill:#ffffff;fill-opacity:1;fill-rule:evenodd;stroke:#000000;stroke-width:1.25;stroke-linecap:butt;stroke-linejoin:miter;stroke-miterlimit:4;stroke-opacity:1;display:inline"
         d="M 1044.4271,1135.4417 C 1071.8775,1136.8615 1072.824,1149.1669 1072.824,1149.1669 C 1072.824,1159.1058 1019.8164,1153.8997 1019.8164,1153.8997 L 1019.8164,1137.8081 L 1044.4271,1135.4417 z"
         id="path3940"
         sodipodi:nodetypes="ccccc" />
      <path
         style="fill:#ffffff;fill-opacity:1;fill-rule:evenodd;stroke:#000000;stroke-width:1.25;stroke-linecap:butt;stroke-linejoin:miter;stroke-miterlimit:4;stroke-opacity:1;display:inline"
         d="M 995.18302,1135.4417 C 967.73264,1136.8615 966.78608,1149.1669 966.78608,1149.1669 C 966.78608,1159.1058 1019.7937,1153.8997 1019.7937,1153.8997 L 1019.7937,1137.8081 L 995.18302,1135.4417 z"
         id="path3942"
         sodipodi:nodetypes="ccccc" />
      <path
         sodipodi:type="arc"
         style="fill:#ffeec4;fill-opacity:1;stroke:#000000;stroke-width:1.25;stroke-miterlimit:4;stroke-opacity:1;display:inline"
         id="path3944"
         sodipodi:cx="614.01514"
         sodipodi:cy="503.9519"
         sodipodi:rx="29.545454"
         sodipodi:ry="40.530304"
         d="M 643.56059,503.9519 A 29.545454,40.530304 0 1 1 584.46968,503.9519 A 29.545454,40.530304 0 1 1 643.56059,503.9519 z"
         transform="matrix(1,0,0,1.138058,403.91731,432.20511)" />
      <path
         style="fill:#ff8c00;fill-opacity:1;stroke:#000000;stroke-width:1.25;stroke-miterlimit:4;stroke-opacity:1;display:inline"
         d="M 1019.4583,1137.4363 C 1027.332,1138.794 1033.3137,1138.8465 1041.05,1137.4363 C 1041.903,1137.4254 1042.3756,1135.2296 1042.285,1133.4266 C 1042.3091,1131.8107 1042.297,1129.8889 1041.6396,1128.9365 C 1041.1077,1128.2387 1040.4777,1128.6204 1039.8955,1128.5218 C 1031.7422,1130.3048 1028.3018,1130.037 1019.4583,1128.5218 C 1018.6053,1128.5327 1018.1327,1130.7286 1018.2233,1132.5317 C 1018.1992,1134.1475 1018.2113,1136.0692 1018.8687,1137.0216 C 1019.0434,1137.2877 1019.25,1137.4381 1019.4583,1137.4363 z"
         id="path3946"
         sodipodi:nodetypes="ccccccccc" />
      <path
         style="fill:#ff8c00;fill-opacity:1;stroke:#000000;stroke-width:1.25;stroke-miterlimit:4;stroke-opacity:1;display:inline"
         d="M 996.73104,1138.1939 C 1004.6047,1139.5515 1010.5864,1139.6041 1018.3227,1138.1939 C 1019.1757,1138.183 1019.6484,1135.9871 1019.5578,1134.1842 C 1019.5818,1132.5683 1019.5697,1130.6465 1018.9124,1129.694 C 1018.3805,1128.9963 1017.7504,1129.378 1017.1683,1129.2794 C 1009.0149,1131.0624 1005.5745,1130.7945 996.73104,1129.2794 C 995.87803,1129.2903 995.4054,1131.4862 995.496,1133.2893 C 995.47198,1134.9051 995.48408,1136.8268 996.14141,1137.7792 C 996.31614,1138.0453 996.52275,1138.1957 996.73104,1138.1939 z"
         id="path3948"
         sodipodi:nodetypes="ccccccccc" />
      <path
         style="fill:#ffff00;fill-opacity:1;fill-rule:evenodd;stroke:#000000;stroke-width:1.25;stroke-linecap:butt;stroke-linejoin:miter;stroke-miterlimit:4;stroke-opacity:1;display:inline"
         d="M 990.17582,1006.531 L 984.93111,1018.1798 L 993.18097,1008.6165 L 990.56005,1021.1886 L 1003.8659,1006.8786 L 1022.3186,1025.0366 L 1019.192,1011.0495 L 1030.0963,1029.8008 L 1030.5447,1016.0944 L 1036.6528,1032.244 L 1039.5196,1020.3074 C 1041.5231,1024.4782 1043.6006,1048.9347 1043.6006,1048.9347 L 1045.2128,1028.0979 C 1045.8806,1029.8357 1048.6091,1053.1055 1048.6091,1053.1055 L 1048.6091,1044.0687 C 1051.2804,1007.9213 1047.9413,1006.531 1047.9413,1006.531 L 990.17582,1006.531 z"
         id="path3951"
         sodipodi:nodetypes="ccccccccccccccccc" />
      <g
         style="display:inline"
         id="g3953"
         transform="translate(68.690001,502.34781)">
        <path
           sodipodi:type="arc"
           style="fill:#ff0000;fill-opacity:1;stroke:#000000;stroke-width:1.25;stroke-miterlimit:4;stroke-opacity:1"
           id="path3955"
           sodipodi:cx="614.01514"
           sodipodi:cy="503.9519"
           sodipodi:rx="29.545454"
           sodipodi:ry="40.530304"
           d="M 643.56059,503.9519 A 29.545454,40.530304 0 1 1 584.46968,503.9519"
           transform="matrix(1,0,0,-1.138058,335.2273,1077.342)"
           sodipodi:start="0"
           sodipodi:end="3.1415927"
           sodipodi:open="true" />
        <path
           style="fill:#ff8c00;fill-opacity:1;stroke:#000000;stroke-width:1.3600812;stroke-miterlimit:4;stroke-opacity:1"
           d="M 919.18064,496.12998 C 928.29567,493.81769 942.14554,491.30327 979.48026,496.12998 C 981.86252,496.14469 983.18245,499.09947 982.92942,501.52572 C 982.99651,503.70002 982.96271,506.28599 981.12697,507.5676 C 979.6415,508.50647 977.88205,507.99285 976.2562,508.12562 C 936.96586,502.62612 924.75886,505.65643 919.18064,508.1256 C 916.79838,508.11091 915.47846,505.15612 915.73149,502.72987 C 915.6644,500.55558 915.69819,497.96961 917.53394,496.688 C 918.02192,496.32999 918.59891,496.12767 919.18064,496.12998 z"
           id="path3957"
           sodipodi:nodetypes="ccccccccc" />
      </g>
      <g
         style="display:inline"
         id="g3959"
         transform="translate(393.31121,503.48421)">
        <path
           style="fill:#000000;fill-opacity:1;fill-rule:nonzero;stroke:none;stroke-width:1pt;stroke-linecap:butt;stroke-linejoin:miter;stroke-opacity:1"
           id="path3961"
           d="M 602.12989,530.86845 C 607.05654,525.26543 605.33463,534.48194 604.8206,531.75602 C 606.7808,529.40933 607.77878,529.24376 610.36497,530.06557 C 610.34409,530.03664 610.32322,530.00771 610.30234,529.97879 L 610.9787,531.35108 C 610.73663,531.43117 610.49455,531.51126 610.25248,531.59135 C 607.46086,530.95027 608.17406,530.35527 605.72512,532.98992 C 600.34378,536.47657 608.31248,525.02122 603.21171,531.95027 L 602.12989,530.86845 z" />
        <path
           style="fill:#000000;fill-opacity:1;fill-rule:nonzero;stroke:none;stroke-width:1pt;stroke-linecap:butt;stroke-linejoin:miter;stroke-opacity:1"
           id="path3963"
           d="M 614.56728,529.29973 C 616.84044,527.09955 617.67109,532.45919 616.97132,530.18199 C 619.35381,530.19817 619.26628,529.49136 621.54107,529.08811 C 622.16475,529.25003 622.70678,529.57896 623.27381,529.86203 L 622.64628,531.25733 C 622.32993,531.09977 621.70166,530.83661 621.56566,530.61784 C 620.2531,530.9619 619.11415,531.64215 618.06534,531.25147 C 614.73028,534.17007 615.01348,527.41317 616.7378,529.60664 C 616.83242,529.727 615.33276,530.47148 615.41592,530.57271 L 614.56728,529.29973 z" />
      </g>
      <g
         id="g3965"
         style="fill:#000000;fill-opacity:1;stroke:none;stroke-width:0.125;stroke-miterlimit:4;stroke-opacity:1;display:inline"
         transform="translate(397.47791,502.34781)">
        <path
           style="fill-rule:nonzero;stroke-linecap:butt;stroke-linejoin:miter"
           id="path3967"
           d="M 607.2367,545.43155 C 606.08212,547.26231 604.9276,549.09241 603.8229,550.9538 L 602.94589,550.43308 C 604.05211,548.57079 605.20586,546.73835 606.3621,544.90679 L 607.2367,545.43155 z" />
        <path
           style="fill-rule:nonzero;stroke-linecap:butt;stroke-linejoin:miter"
           id="path3969"
           d="M 608.99652,546.06684 C 608.07973,547.98873 607.72734,550.0935 607.40375,552.178 L 606.39593,552.02123 C 606.73704,549.83274 607.11616,547.62601 608.08425,545.61071 L 608.99652,546.06684 z" />
        <path
           style="fill-rule:nonzero;stroke-linecap:butt;stroke-linejoin:miter"
           id="path3971"
           d="M 611.04396,546.76599 C 610.39259,549.6446 610.60183,552.56547 610.674,555.48529 L 609.65436,555.51047 C 609.58009,552.49906 609.3757,549.48611 610.05446,546.51862 L 611.04396,546.76599 z" />
        <path
           style="fill-rule:nonzero;stroke-linecap:butt;stroke-linejoin:miter"
           id="path3973"
           d="M 614.08554,545.87855 C 615.10551,548.04922 615.47765,550.43673 616.00176,552.75734 L 615.00686,552.98199 C 614.50104,550.74148 614.14653,548.43463 613.17327,546.33469 L 614.08554,545.87855 z" />
        <path
           style="fill-rule:nonzero;stroke-linecap:butt;stroke-linejoin:miter"
           id="path3975"
           d="M 617.37922,545.59664 C 619.80173,546.20027 620.68004,548.75811 621.6418,550.81349 L 620.71669,551.243 C 619.90288,549.50244 619.21601,547.43498 617.37922,546.61659 L 617.37922,545.59664 z" />
        <path
           style="fill-rule:nonzero;stroke-linecap:butt;stroke-linejoin:miter"
           id="path3978"
           d="M 620.38768,547.50131 C 619.70796,542.67423 624.01727,548.93674 624.86266,550.60901 L 623.95755,551.07919 C 623.31224,549.77269 619.47675,544.14459 621.33468,547.12251 L 620.38768,547.50131 z" />
      </g>
      <path
         style="fill:#00ff15;fill-opacity:1;fill-rule:evenodd;stroke:#000000;stroke-width:1.25;stroke-linecap:butt;stroke-linejoin:miter;stroke-miterlimit:4;stroke-opacity:1;display:inline"
         d="M 1011.4187,1062.3851 L 1025.1366,1069.1522 L 1033.057,1062.8317 L 1045.479,1086.9493 L 1033.8584,1092.7554 L 1030.6527,1073.9972 L 1041.0712,1117.3197 C 1028.2485,1124.9123 999.79818,1117.7663 999.79818,1117.7663 L 1009.4152,1074.8905 L 1005.4081,1094.5419 L 993.78755,1088.7358 L 1011.4187,1062.3851 z"
         id="path3980"
         sodipodi:nodetypes="cccccccccccc" />
      <g
         style="display:inline"
         id="g3982"
         transform="matrix(0.640057,0.383722,-0.30692,0.64132,809.51911,480.53681)">
        <path
           style="fill:#f0ff00;fill-opacity:1;fill-rule:nonzero;stroke:none;stroke-width:1pt;stroke-linecap:butt;stroke-linejoin:miter;stroke-opacity:1"
           id="path3984"
           d="M 599.7744,582.6047 C 608.25644,589.38153 610.09805,600.71833 611.36189,610.87601 L 607.46505,611.61705 C 606.31049,602.53469 604.98578,592.17619 597.57408,585.90517 L 599.7744,582.6047 z" />
        <path
           style="fill:#f0ff00;fill-opacity:1;fill-rule:nonzero;stroke:none;stroke-width:1pt;stroke-linecap:butt;stroke-linejoin:miter;stroke-opacity:1"
           id="path3986"
           d="M 592.0493,592.28293 C 589.72885,581.79988 605.62763,572.63032 614.4743,577.55721 C 622.8142,581.80251 609.05509,601.03138 605.97685,597.13524 C 602.19911,592.35375 610.45975,588.2099 613.69999,587.77116 C 621.58401,587.26803 627.72951,590.536 625.95064,599.0788 C 623.61752,604.69835 617.26992,606.75753 611.81876,608.14488 L 610.86584,604.29438 C 614.93022,603.32293 619.68793,601.90974 622.07512,598.23333 C 622.98895,592.46722 619.82772,591.59168 614.17608,591.70915 C 612.11984,592.01401 610.76048,594.28239 609.46717,594.54375 C 601.51829,596.1501 616.98557,585.81886 612.43443,580.95917 C 606.57144,576.95159 596.32107,584.34477 595.45069,590.24209 L 592.0493,592.28293 z" />
      </g>
    </g>
    <g
       transform="translate(372.59603,-4.2880103)"
       id="g3988">
      <rect
         rx="3.9813387"
         ry="3.9813392"
         y="312.31766"
         x="197.17816"
         height="50.484886"
         width="71.813507"
         id="rect3990"
         style="fill:#000000;fill-opacity:1;fill-rule:nonzero;stroke:#000000;stroke-width:1.25;stroke-linecap:round;stroke-linejoin:round;stroke-miterlimit:4;stroke-dashoffset:0;stroke-opacity:1" />
      <g
         style="stroke:#000000;stroke-width:24.65895653;stroke-miterlimit:4;stroke-opacity:1"
         transform="matrix(3.928694e-2,0,0,3.928694e-2,209.85255,295.03358)"
         id="g3992">
        <path
           transform="translate(-373.0082,375.2049)"
           sodipodi:nodetypes="cccccccccc"
           id="path3994"
           d="M 1116.1347,682.47574 C 1129.291,757.26879 1175.7063,762.52305 1176.2256,762.01103 C 1173.9687,784.40158 1138.1749,849.86829 1105.41,868.74244 C 1048.0956,882.38603 1058.6686,862.77251 997.27812,858.47622 C 957.55882,851.95293 930.01912,889.25967 898.14507,869.09899 C 868.79566,856.71245 796.33943,809.72553 796.28387,674.76387 C 797.67683,643.05588 808.89721,566.83443 890.62924,553.94029 C 938.79772,543.10375 967.55822,574.31044 1004.7026,569.20112 C 1084.1743,532.92509 1128.5858,555.27447 1163.6746,588.4799 C 1165.6931,588.37968 1106.5497,623.87005 1116.1347,682.47574 z"
           style="fill:#ffffff;fill-opacity:0.7162162;fill-rule:evenodd;stroke-linecap:butt;stroke-linejoin:miter" />
        <path
           transform="translate(-373.0082,375.2049)"
           sodipodi:nodetypes="ccc"
           id="path3997"
           d="M 1086.5462,431.12744 C 1016.7351,446.34269 996.67415,489.50965 996.67415,531.27914 C 1091.1936,517.17607 1086.5462,431.12744 1086.5462,431.12744 z"
           style="fill:#ffffff;fill-opacity:0.74774774;fill-rule:evenodd;stroke-linecap:butt;stroke-linejoin:miter" />
      </g>
    </g>
    <g
       id="g4001"
       transform="translate(-23.74686,-763.32858)">
      <path
         id="path4003"
         d="M 1037.3156,1085.4677 L 1042.4856,1107.0243 C 1053.5192,1110.5682 1046.931,1118.2052 1046.931,1118.2052 C 1040.7285,1122.4549 1035.0497,1118.7584 1035.0497,1118.7584 C 1031.6383,1111.8889 1031.2939,1084.782 1031.2939,1084.782 L 1037.3156,1085.4677 z"
         style="fill:#ffeec4;fill-opacity:1;fill-rule:evenodd;stroke:#000000;stroke-width:1.25;stroke-linecap:butt;stroke-linejoin:miter;stroke-miterlimit:4;stroke-opacity:1;display:inline" />
      <path
         id="path4005"
         d="M 1002.3305,1087.7404 L 997.16053,1109.2971 C 986.12699,1112.8409 992.71517,1120.4779 992.71517,1120.4779 C 998.91764,1124.7277 1004.5965,1121.0311 1004.5965,1121.0311 C 1008.0078,1114.1617 1008.3522,1087.0547 1008.3522,1087.0547 L 1002.3305,1087.7404 z"
         style="fill:#ffeec4;fill-opacity:1;fill-rule:evenodd;stroke:#000000;stroke-width:1.25;stroke-linecap:butt;stroke-linejoin:miter;stroke-miterlimit:4;stroke-opacity:1;display:inline" />
      <g
         transform="translate(409.59911,501.59021)"
         id="g4007"
         style="display:inline">
        <path
           sodipodi:nodetypes="cccccc"
           transform="matrix(0.859835,0,0,0.532987,537.0548,277.0172)"
           id="path4009"
           d="M 62.946547,630.72755 L 59.428131,658.65274 C 69.367059,663.38557 83.297686,660.07106 83.297686,660.07106 C 93.709897,665.75045 109.31338,659.3619 109.31338,659.3619 L 106.48852,626.46801 L 62.946547,630.72755 z"
           style="fill:#0600ff;fill-opacity:1;fill-rule:evenodd;stroke:#000000;stroke-width:1.84647799;stroke-linecap:butt;stroke-linejoin:miter;stroke-miterlimit:4;stroke-opacity:1" />
        <path
           id="path4014"
           d="M 605.49242,620.80796 L 604.35606,623.64887 L 611.36364,624.02766"
           style="fill:none;fill-opacity:0.75;fill-rule:evenodd;stroke:#000000;stroke-width:1.25;stroke-linecap:butt;stroke-linejoin:miter;stroke-miterlimit:4;stroke-opacity:1" />
        <path
           id="path4016"
           d="M 608.71212,621.18675 L 608.71212,629.14129"
           style="fill:none;fill-opacity:0.75;fill-rule:evenodd;stroke:#000000;stroke-width:1.25;stroke-linecap:butt;stroke-linejoin:miter;stroke-miterlimit:4;stroke-opacity:1" />
      </g>
      <path
         id="path4018"
         d="M 1020.7403,1046.5552 L 1019.3205,1062.6468 L 1010.3281,1066.9063 L 1022.1602,1082.0513 L 1033.9922,1065.9597 L 1024.0533,1061.7002 L 1025.4731,1048.4483 L 1020.7403,1046.5552 z"
         style="fill:#ffeec4;fill-opacity:1;fill-rule:evenodd;stroke:#000000;stroke-width:1.25;stroke-linecap:butt;stroke-linejoin:miter;stroke-miterlimit:4;stroke-opacity:1;display:inline" />
      <path
         sodipodi:nodetypes="ccccc"
         id="path4020"
         d="M 1044.4271,1135.4417 C 1071.8775,1136.8615 1072.824,1149.1669 1072.824,1149.1669 C 1072.824,1159.1058 1019.8164,1153.8997 1019.8164,1153.8997 L 1019.8164,1137.8081 L 1044.4271,1135.4417 z"
         style="fill:#ffffff;fill-opacity:1;fill-rule:evenodd;stroke:#000000;stroke-width:1.25;stroke-linecap:butt;stroke-linejoin:miter;stroke-miterlimit:4;stroke-opacity:1;display:inline" />
      <path
         sodipodi:nodetypes="ccccc"
         id="path4022"
         d="M 995.18302,1135.4417 C 967.73264,1136.8615 966.78608,1149.1669 966.78608,1149.1669 C 966.78608,1159.1058 1019.7937,1153.8997 1019.7937,1153.8997 L 1019.7937,1137.8081 L 995.18302,1135.4417 z"
         style="fill:#ffffff;fill-opacity:1;fill-rule:evenodd;stroke:#000000;stroke-width:1.25;stroke-linecap:butt;stroke-linejoin:miter;stroke-miterlimit:4;stroke-opacity:1;display:inline" />
      <path
         transform="matrix(1,0,0,1.138058,403.91731,432.20511)"
         d="M 643.56059,503.9519 A 29.545454,40.530304 0 1 1 584.46968,503.9519 A 29.545454,40.530304 0 1 1 643.56059,503.9519 z"
         sodipodi:ry="40.530304"
         sodipodi:rx="29.545454"
         sodipodi:cy="503.9519"
         sodipodi:cx="614.01514"
         id="path4025"
         style="fill:#ffeec4;fill-opacity:1;stroke:#000000;stroke-width:1.25;stroke-miterlimit:4;stroke-opacity:1;display:inline"
         sodipodi:type="arc" />
      <path
         sodipodi:nodetypes="ccccccccc"
         id="path4027"
         d="M 1019.4583,1137.4363 C 1027.332,1138.794 1033.3137,1138.8465 1041.05,1137.4363 C 1041.903,1137.4254 1042.3756,1135.2296 1042.285,1133.4266 C 1042.3091,1131.8107 1042.297,1129.8889 1041.6396,1128.9365 C 1041.1077,1128.2387 1040.4777,1128.6204 1039.8955,1128.5218 C 1031.7422,1130.3048 1028.3018,1130.037 1019.4583,1128.5218 C 1018.6053,1128.5327 1018.1327,1130.7286 1018.2233,1132.5317 C 1018.1992,1134.1475 1018.2113,1136.0692 1018.8687,1137.0216 C 1019.0434,1137.2877 1019.25,1137.4381 1019.4583,1137.4363 z"
         style="fill:#ff8c00;fill-opacity:1;stroke:#000000;stroke-width:1.25;stroke-miterlimit:4;stroke-opacity:1;display:inline" />
      <path
         sodipodi:nodetypes="ccccccccc"
         id="path4029"
         d="M 996.73104,1138.1939 C 1004.6047,1139.5515 1010.5864,1139.6041 1018.3227,1138.1939 C 1019.1757,1138.183 1019.6484,1135.9871 1019.5578,1134.1842 C 1019.5818,1132.5683 1019.5697,1130.6465 1018.9124,1129.694 C 1018.3805,1128.9963 1017.7504,1129.378 1017.1683,1129.2794 C 1009.0149,1131.0624 1005.5745,1130.7945 996.73104,1129.2794 C 995.87803,1129.2903 995.4054,1131.4862 995.496,1133.2893 C 995.47198,1134.9051 995.48408,1136.8268 996.14141,1137.7792 C 996.31614,1138.0453 996.52275,1138.1957 996.73104,1138.1939 z"
         style="fill:#ff8c00;fill-opacity:1;stroke:#000000;stroke-width:1.25;stroke-miterlimit:4;stroke-opacity:1;display:inline" />
      <path
         sodipodi:nodetypes="ccccccccccccccccc"
         id="path4031"
         d="M 990.17582,1006.531 L 984.93111,1018.1798 L 993.18097,1008.6165 L 990.56005,1021.1886 L 1003.8659,1006.8786 L 1022.3186,1025.0366 L 1019.192,1011.0495 L 1030.0963,1029.8008 L 1030.5447,1016.0944 L 1036.6528,1032.244 L 1039.5196,1020.3074 C 1041.5231,1024.4782 1043.6006,1048.9347 1043.6006,1048.9347 L 1045.2128,1028.0979 C 1045.8806,1029.8357 1048.6091,1053.1055 1048.6091,1053.1055 L 1048.6091,1044.0687 C 1051.2804,1007.9213 1047.9413,1006.531 1047.9413,1006.531 L 990.17582,1006.531 z"
         style="fill:#ffff00;fill-opacity:1;fill-rule:evenodd;stroke:#000000;stroke-width:1.25;stroke-linecap:butt;stroke-linejoin:miter;stroke-miterlimit:4;stroke-opacity:1;display:inline" />
      <g
         transform="translate(68.690001,502.34781)"
         id="g4033"
         style="display:inline">
        <path
           sodipodi:open="true"
           sodipodi:end="3.1415927"
           sodipodi:start="0"
           transform="matrix(1,0,0,-1.138058,335.2273,1077.342)"
           d="M 643.56059,503.9519 A 29.545454,40.530304 0 1 1 584.46968,503.9519"
           sodipodi:ry="40.530304"
           sodipodi:rx="29.545454"
           sodipodi:cy="503.9519"
           sodipodi:cx="614.01514"
           id="path4035"
           style="fill:#ff0000;fill-opacity:1;stroke:#000000;stroke-width:1.25;stroke-miterlimit:4;stroke-opacity:1"
           sodipodi:type="arc" />
        <path
           sodipodi:nodetypes="ccccccccc"
           id="path4037"
           d="M 919.18064,496.12998 C 928.29567,493.81769 942.14554,491.30327 979.48026,496.12998 C 981.86252,496.14469 983.18245,499.09947 982.92942,501.52572 C 982.99651,503.70002 982.96271,506.28599 981.12697,507.5676 C 979.6415,508.50647 977.88205,507.99285 976.2562,508.12562 C 936.96586,502.62612 924.75886,505.65643 919.18064,508.1256 C 916.79838,508.11091 915.47846,505.15612 915.73149,502.72987 C 915.6644,500.55558 915.69819,497.96961 917.53394,496.688 C 918.02192,496.32999 918.59891,496.12767 919.18064,496.12998 z"
           style="fill:#ff8c00;fill-opacity:1;stroke:#000000;stroke-width:1.3600812;stroke-miterlimit:4;stroke-opacity:1" />
      </g>
      <g
         transform="translate(393.31121,503.48421)"
         id="g4039"
         style="display:inline">
        <path
           d="M 602.12989,530.86845 C 607.05654,525.26543 605.33463,534.48194 604.8206,531.75602 C 606.7808,529.40933 607.77878,529.24376 610.36497,530.06557 C 610.34409,530.03664 610.32322,530.00771 610.30234,529.97879 L 610.9787,531.35108 C 610.73663,531.43117 610.49455,531.51126 610.25248,531.59135 C 607.46086,530.95027 608.17406,530.35527 605.72512,532.98992 C 600.34378,536.47657 608.31248,525.02122 603.21171,531.95027 L 602.12989,530.86845 z"
           id="path4041"
           style="fill:#000000;fill-opacity:1;fill-rule:nonzero;stroke:none;stroke-width:1pt;stroke-linecap:butt;stroke-linejoin:miter;stroke-opacity:1" />
        <path
           d="M 614.56728,529.29973 C 616.84044,527.09955 617.67109,532.45919 616.97132,530.18199 C 619.35381,530.19817 619.26628,529.49136 621.54107,529.08811 C 622.16475,529.25003 622.70678,529.57896 623.27381,529.86203 L 622.64628,531.25733 C 622.32993,531.09977 621.70166,530.83661 621.56566,530.61784 C 620.2531,530.9619 619.11415,531.64215 618.06534,531.25147 C 614.73028,534.17007 615.01348,527.41317 616.7378,529.60664 C 616.83242,529.727 615.33276,530.47148 615.41592,530.57271 L 614.56728,529.29973 z"
           id="path4043"
           style="fill:#000000;fill-opacity:1;fill-rule:nonzero;stroke:none;stroke-width:1pt;stroke-linecap:butt;stroke-linejoin:miter;stroke-opacity:1" />
      </g>
      <g
         transform="translate(397.47791,502.34781)"
         style="fill:#000000;fill-opacity:1;stroke:none;stroke-width:0.125;stroke-miterlimit:4;stroke-opacity:1;display:inline"
         id="g4045">
        <path
           d="M 607.2367,545.43155 C 606.08212,547.26231 604.9276,549.09241 603.8229,550.9538 L 602.94589,550.43308 C 604.05211,548.57079 605.20586,546.73835 606.3621,544.90679 L 607.2367,545.43155 z"
           id="path4047"
           style="fill-rule:nonzero;stroke-linecap:butt;stroke-linejoin:miter" />
        <path
           d="M 608.99652,546.06684 C 608.07973,547.98873 607.72734,550.0935 607.40375,552.178 L 606.39593,552.02123 C 606.73704,549.83274 607.11616,547.62601 608.08425,545.61071 L 608.99652,546.06684 z"
           id="path4049"
           style="fill-rule:nonzero;stroke-linecap:butt;stroke-linejoin:miter" />
        <path
           d="M 611.04396,546.76599 C 610.39259,549.6446 610.60183,552.56547 610.674,555.48529 L 609.65436,555.51047 C 609.58009,552.49906 609.3757,549.48611 610.05446,546.51862 L 611.04396,546.76599 z"
           id="path4051"
           style="fill-rule:nonzero;stroke-linecap:butt;stroke-linejoin:miter" />
        <path
           d="M 614.08554,545.87855 C 615.10551,548.04922 615.47765,550.43673 616.00176,552.75734 L 615.00686,552.98199 C 614.50104,550.74148 614.14653,548.43463 613.17327,546.33469 L 614.08554,545.87855 z"
           id="path4053"
           style="fill-rule:nonzero;stroke-linecap:butt;stroke-linejoin:miter" />
        <path
           d="M 617.37922,545.59664 C 619.80173,546.20027 620.68004,548.75811 621.6418,550.81349 L 620.71669,551.243 C 619.90288,549.50244 619.21601,547.43498 617.37922,546.61659 L 617.37922,545.59664 z"
           id="path4055"
           style="fill-rule:nonzero;stroke-linecap:butt;stroke-linejoin:miter" />
        <path
           d="M 620.38768,547.50131 C 619.70796,542.67423 624.01727,548.93674 624.86266,550.60901 L 623.95755,551.07919 C 623.31224,549.77269 619.47675,544.14459 621.33468,547.12251 L 620.38768,547.50131 z"
           id="path4057"
           style="fill-rule:nonzero;stroke-linecap:butt;stroke-linejoin:miter" />
      </g>
      <path
         sodipodi:nodetypes="cccccccccccc"
         id="path4059"
         d="M 1011.4187,1062.3851 L 1025.1366,1069.1522 L 1033.057,1062.8317 L 1045.479,1086.9493 L 1033.8584,1092.7554 L 1030.6527,1073.9972 L 1041.0712,1117.3197 C 1028.2485,1124.9123 999.79818,1117.7663 999.79818,1117.7663 L 1009.4152,1074.8905 L 1005.4081,1094.5419 L 993.78755,1088.7358 L 1011.4187,1062.3851 z"
         style="fill:#00ff15;fill-opacity:1;fill-rule:evenodd;stroke:#000000;stroke-width:1.25;stroke-linecap:butt;stroke-linejoin:miter;stroke-miterlimit:4;stroke-opacity:1;display:inline" />
      <g
         transform="matrix(0.640057,0.383722,-0.30692,0.64132,809.51911,480.53681)"
         id="g4061"
         style="display:inline">
        <path
           d="M 599.7744,582.6047 C 608.25644,589.38153 610.09805,600.71833 611.36189,610.87601 L 607.46505,611.61705 C 606.31049,602.53469 604.98578,592.17619 597.57408,585.90517 L 599.7744,582.6047 z"
           id="path4063"
           style="fill:#f0ff00;fill-opacity:1;fill-rule:nonzero;stroke:none;stroke-width:1pt;stroke-linecap:butt;stroke-linejoin:miter;stroke-opacity:1" />
        <path
           d="M 592.0493,592.28293 C 589.72885,581.79988 605.62763,572.63032 614.4743,577.55721 C 622.8142,581.80251 609.05509,601.03138 605.97685,597.13524 C 602.19911,592.35375 610.45975,588.2099 613.69999,587.77116 C 621.58401,587.26803 627.72951,590.536 625.95064,599.0788 C 623.61752,604.69835 617.26992,606.75753 611.81876,608.14488 L 610.86584,604.29438 C 614.93022,603.32293 619.68793,601.90974 622.07512,598.23333 C 622.98895,592.46722 619.82772,591.59168 614.17608,591.70915 C 612.11984,592.01401 610.76048,594.28239 609.46717,594.54375 C 601.51829,596.1501 616.98557,585.81886 612.43443,580.95917 C 606.57144,576.95159 596.32107,584.34477 595.45069,590.24209 L 592.0493,592.28293 z"
           id="path4066"
           style="fill:#f0ff00;fill-opacity:1;fill-rule:nonzero;stroke:none;stroke-width:1pt;stroke-linecap:butt;stroke-linejoin:miter;stroke-opacity:1" />
      </g>
    </g>
    <g
       id="g4068"
       transform="translate(746.59603,-4.2880103)">
      <rect
         style="fill:#000000;fill-opacity:1;fill-rule:nonzero;stroke:#000000;stroke-width:1.25;stroke-linecap:round;stroke-linejoin:round;stroke-miterlimit:4;stroke-dashoffset:0;stroke-opacity:1"
         id="rect4070"
         width="71.813507"
         height="50.484886"
         x="197.17816"
         y="312.31766"
         ry="3.9813392"
         rx="3.9813387" />
      <g
         id="g4072"
         transform="matrix(3.928694e-2,0,0,3.928694e-2,209.85255,295.03358)"
         style="stroke:#000000;stroke-width:24.65895653;stroke-miterlimit:4;stroke-opacity:1">
        <path
           style="fill:#ffffff;fill-opacity:0.7162162;fill-rule:evenodd;stroke-linecap:butt;stroke-linejoin:miter"
           d="M 1116.1347,682.47574 C 1129.291,757.26879 1175.7063,762.52305 1176.2256,762.01103 C 1173.9687,784.40158 1138.1749,849.86829 1105.41,868.74244 C 1048.0956,882.38603 1058.6686,862.77251 997.27812,858.47622 C 957.55882,851.95293 930.01912,889.25967 898.14507,869.09899 C 868.79566,856.71245 796.33943,809.72553 796.28387,674.76387 C 797.67683,643.05588 808.89721,566.83443 890.62924,553.94029 C 938.79772,543.10375 967.55822,574.31044 1004.7026,569.20112 C 1084.1743,532.92509 1128.5858,555.27447 1163.6746,588.4799 C 1165.6931,588.37968 1106.5497,623.87005 1116.1347,682.47574 z"
           id="path4074"
           sodipodi:nodetypes="cccccccccc"
           transform="translate(-373.0082,375.2049)" />
        <path
           style="fill:#ffffff;fill-opacity:0.74774774;fill-rule:evenodd;stroke-linecap:butt;stroke-linejoin:miter"
           d="M 1086.5462,431.12744 C 1016.7351,446.34269 996.67415,489.50965 996.67415,531.27914 C 1091.1936,517.17607 1086.5462,431.12744 1086.5462,431.12744 z"
           id="path4077"
           sodipodi:nodetypes="ccc"
           transform="translate(-373.0082,375.2049)" />
      </g>
    </g>
    <path
       style="opacity:1;fill:#a40000;fill-opacity:1;fill-rule:nonzero;stroke:#000000;stroke-width:1;stroke-linecap:butt;stroke-linejoin:round;stroke-miterlimit:4;stroke-dasharray:none;stroke-dashoffset:0;stroke-opacity:1"
       d="M 624.17191,280.6938 C 631.78377,279.78037 632.39272,280.99827 632.39272,280.99827"
       id="path4081" />
    <path
       style="opacity:1;fill:#a40000;fill-opacity:1;fill-rule:nonzero;stroke:#000000;stroke-width:1;stroke-linecap:butt;stroke-linejoin:round;stroke-miterlimit:4;stroke-dasharray:none;stroke-dashoffset:0;stroke-opacity:1"
       d="M 997.45715,282.73151 C 1005.5953,270.71291 1011.2921,276.49965 1011.699,278.28018 C 1012.1059,280.06071 1016.9889,296.97578 1012.5129,294.30498 C 1008.0368,291.63418 1003.9677,288.51825 1003.1539,291.63418 C 1002.34,294.75012 1003.9677,287.62798 1001.9332,286.29258 C 999.89863,284.95719 997.86407,284.06692 997.45715,282.73151 z"
       id="path4083" />
    <path
       style="opacity:1;fill-opacity:1;fill-rule:nonzero;stroke:#000000;stroke-width:1;stroke-linecap:butt;stroke-linejoin:round;stroke-miterlimit:4;stroke-dasharray:none;stroke-dashoffset:0;stroke-opacity:1;fill:none"
       d="M 260.15337,278.24948 C 268.01729,280.41091 275.37535,275.99608 275.37535,275.99608"
       id="path4205" />
    <path
       style="opacity:1;fill:none;fill-opacity:1;fill-rule:nonzero;stroke:#000000;stroke-width:1;stroke-linecap:butt;stroke-linejoin:round;stroke-miterlimit:4;stroke-dasharray:none;stroke-dashoffset:0;stroke-opacity:1"
       d="M 235.95111,199.83596 C 225.98135,209.06722 226.3506,213.12898 226.3506,213.12898"
       id="path4207" />
    <path
       id="path4209"
       d="M 233.95111,197.83596 C 223.98135,207.06722 224.3506,211.12898 224.3506,211.12898"
       style="opacity:1;fill:none;fill-opacity:1;fill-rule:nonzero;stroke:#000000;stroke-width:1;stroke-linecap:butt;stroke-linejoin:round;stroke-miterlimit:4;stroke-dasharray:none;stroke-dashoffset:0;stroke-opacity:1" />
    <path
       style="opacity:1;fill:none;fill-opacity:1;fill-rule:nonzero;stroke:#000000;stroke-width:1;stroke-linecap:butt;stroke-linejoin:round;stroke-miterlimit:4;stroke-dasharray:none;stroke-dashoffset:0;stroke-opacity:1"
       d="M 653.57351,232.33001 C 659.48152,234.54551 656.89676,238.23802 656.89676,238.23802"
       id="path4211" />
    <path
       id="path4213"
       d="M 655.57351,230.33001 C 661.48152,232.54551 658.89676,236.23802 658.89676,236.23802"
       style="opacity:1;fill:none;fill-opacity:1;fill-rule:nonzero;stroke:#000000;stroke-width:1;stroke-linecap:butt;stroke-linejoin:round;stroke-miterlimit:4;stroke-dasharray:none;stroke-dashoffset:0;stroke-opacity:1" />
    <text
       xml:space="preserve"
       style="font-size:16px;font-style:italic;font-variant:normal;font-weight:normal;font-stretch:normal;text-align:center;line-height:125%;writing-mode:lr-tb;text-anchor:middle;fill:#000000;fill-opacity:1;stroke:none;stroke-width:1px;stroke-linecap:butt;stroke-linejoin:miter;stroke-opacity:1;font-family:Kid Kosmic;-inkscape-font-specification:Kid Kosmic Italic"
       x="663.17401"
       y="202.78996"
       id="text4215"
       sodipodi:linespacing="125%"><tspan
         sodipodi:role="line"
         id="tspan4217"
         x="663.17401"
         y="202.78996">?</tspan></text>
    <text
       xml:space="preserve"
       style="font-size:25.03197479px;font-style:italic;font-variant:normal;font-weight:normal;font-stretch:normal;text-align:center;line-height:125%;writing-mode:lr-tb;text-anchor:middle;fill:#000000;fill-opacity:1;stroke:none;stroke-width:1px;stroke-linecap:butt;stroke-linejoin:miter;stroke-opacity:1;font-family:Kid Kosmic;-inkscape-font-specification:Kid Kosmic Italic"
       x="1038.4342"
       y="202.53328"
       id="text4219"
       sodipodi:linespacing="125%"><tspan
         sodipodi:role="line"
         id="tspan4221"
         x="1038.4342"
         y="202.53328">!</tspan></text>
    <path
       style="opacity:1;fill:none;fill-opacity:1;fill-rule:nonzero;stroke:#000000;stroke-width:1;stroke-linecap:butt;stroke-linejoin:round;stroke-miterlimit:4;stroke-dasharray:none;stroke-dashoffset:0;stroke-opacity:1"
       d="M 1027.3038,231.46031 C 1031.2046,230.90305 1027.0251,235.36111 1029.5328,235.91837 C 1032.0405,236.47562 1028.9755,239.81917 1030.6473,240.65505 C 1032.3191,241.49094 1029.8114,242.88408 1029.8114,242.88408"
       id="path4223" />
    <path
       id="path4225"
       d="M 1031.3038,231.46031 C 1035.2046,230.90305 1031.0251,235.36111 1033.5328,235.91837 C 1036.0405,236.47562 1032.9755,239.81917 1034.6473,240.65505 C 1036.3191,241.49094 1033.8114,242.88408 1033.8114,242.88408"
       style="opacity:1;fill:none;fill-opacity:1;fill-rule:nonzero;stroke:#000000;stroke-width:1;stroke-linecap:butt;stroke-linejoin:round;stroke-miterlimit:4;stroke-dasharray:none;stroke-dashoffset:0;stroke-opacity:1" />
    <path
       id="path4227"
       d="M 959.22198,237.46031 C 955.32118,236.90305 959.50068,241.36111 956.99298,241.91837 C 954.48528,242.47562 957.55028,245.81917 955.87848,246.65505 C 954.20668,247.49094 956.71438,248.88408 956.71438,248.88408"
       style="opacity:1;fill:none;fill-opacity:1;fill-rule:nonzero;stroke:#000000;stroke-width:1;stroke-linecap:butt;stroke-linejoin:round;stroke-miterlimit:4;stroke-dasharray:none;stroke-dashoffset:0;stroke-opacity:1" />
    <path
       style="opacity:1;fill:none;fill-opacity:1;fill-rule:nonzero;stroke:#000000;stroke-width:1;stroke-linecap:butt;stroke-linejoin:round;stroke-miterlimit:4;stroke-dasharray:none;stroke-dashoffset:0;stroke-opacity:1"
       d="M 955.22198,237.46031 C 951.32118,236.90305 955.50068,241.36111 952.99298,241.91837 C 950.48528,242.47562 953.55028,245.81917 951.87848,246.65505 C 950.20668,247.49094 952.71438,248.88408 952.71438,248.88408"
       id="path4229" />
  </g>
  <g
     inkscape:groupmode="layer"
     id="layer3"
     inkscape:label="globos"
     style="display:inline">
    <path
       id="path4197"
       d="M 139.3125,17.96875 C 69.749108,17.96875 13.28125,38.746381 13.28125,64.375 C 13.28125,85.095439 50.196616,102.65745 101.09375,108.625 L 86.25,131.34375 L 161.84375,140.625 L 74.3125,241.4375 L 155.21875,217.5625 C 155.21874,217.56249 200.3125,295.85141 200.3125,289.21875 C 200.3125,282.58608 157.875,196.34375 157.875,196.34375 L 124.71875,213.59375 L 196.34375,136.65625 L 127.375,127.375 L 134.21875,110.75 C 135.90599,110.77472 137.60891,110.8125 139.3125,110.8125 C 208.87589,110.8125 265.31251,90.003619 265.3125,64.375 C 265.3125,38.746381 208.87589,17.96875 139.3125,17.96875 z"
       style="opacity:1;fill:#000000;fill-opacity:1;fill-rule:nonzero;stroke:#000000;stroke-width:1;stroke-linecap:butt;stroke-linejoin:round;stroke-miterlimit:4;stroke-dasharray:none;stroke-dashoffset:0;stroke-opacity:1" />
    <path
       id="path4199"
       d="M 502.09375,11.21875 C 430.33506,11.21875 372.09375,29.361771 372.09375,51.71875 C 372.09375,73.765574 428.7402,91.724937 499.125,92.21875 L 474.90625,104.8125 L 512.0625,102.15625 L 508.15625,111.0625 C 474.69783,117.89073 452.09374,130.85276 452.09375,145.71875 C 452.09375,165.09934 490.51127,181.28424 541.3125,184.8125 L 472.28125,237.46875 L 529.3125,234.8125 L 460.3125,290.53125 L 534.625,289.21875 L 575.75,307.78125 L 538.59375,279.90625 L 494.8125,279.90625 L 555.84375,230.84375 L 517.375,225.53125 L 567.46875,185.46875 C 625.78973,184.47034 672.28123,167.03784 672.28125,145.71875 C 672.28125,123.75891 622.96181,105.9375 562.1875,105.9375 C 549.47201,105.9375 537.27239,106.75248 525.90625,108.1875 L 531.96875,96.84375 L 510.75,99.5 L 518.34375,91.90625 C 582.43325,89.409846 632.09378,72.359274 632.09375,51.71875 C 632.09375,29.361772 573.85243,11.21875 502.09375,11.21875 z"
       style="opacity:1;fill:#000000;fill-opacity:1;fill-rule:nonzero;stroke:#000000;stroke-width:1.00000012;stroke-linecap:butt;stroke-linejoin:round;stroke-miterlimit:4;stroke-dasharray:none;stroke-dashoffset:0;stroke-opacity:1" />
    <path
       id="path4201"
       d="M 842.375,9.96875 C 783.06305,9.96875 734.90623,32.83977 734.90625,61.03125 C 734.90625,83.468641 765.43147,102.5239 807.78125,109.375 L 760.125,137.96875 L 838.375,137.96875 L 754.8125,269.3125 L 831.75,270.625 L 811.84375,332.96875 L 940.53125,321.03125 L 829.09375,315.75 L 850.3125,258.6875 L 778.6875,256.03125 L 864.90625,124.71875 L 801.25,127.375 L 831.1875,111.84375 C 834.85903,112.02425 838.60361,112.09375 842.375,112.09375 C 901.68695,112.09375 949.81252,89.22273 949.8125,61.03125 C 949.8125,32.83977 901.68695,9.96875 842.375,9.96875 z"
       style="opacity:1;fill:#000000;fill-opacity:1;fill-rule:nonzero;stroke:#000000;stroke-width:1;stroke-linecap:butt;stroke-linejoin:round;stroke-miterlimit:4;stroke-dasharray:none;stroke-dashoffset:0;stroke-opacity:1" />
    <path
       id="path4203"
       d="M 848.375,132.9375 C 778.62,132.9375 722.00002,159.84485 722,193 C 722,226.15515 778.61998,253.06249 848.375,253.0625 C 874.06669,253.0625 897.95211,249.3932 917.90625,243.125 L 943.1875,253.375 L 934.1875,237.03125 C 959.10529,226.05808 974.75,210.40659 974.75,193 C 974.75,159.84485 918.12998,132.9375 848.375,132.9375 z"
       style="opacity:1;fill:#000000;fill-opacity:1;fill-rule:nonzero;stroke:#000000;stroke-width:1.00000012;stroke-linecap:butt;stroke-linejoin:round;stroke-miterlimit:4;stroke-dasharray:none;stroke-dashoffset:0;stroke-opacity:1" />
    <path
       style="opacity:1;fill:#ffffff;fill-opacity:1;fill-rule:nonzero;stroke:#000000;stroke-width:1;stroke-linecap:butt;stroke-linejoin:round;stroke-miterlimit:4;stroke-dasharray:none;stroke-dashoffset:0;stroke-opacity:1"
       d="M 135.3125 13.96875 C 65.749108 13.96875 9.28125 34.746381 9.28125 60.375 C 9.28125 81.095439 46.196616 98.657451 97.09375 104.625 L 82.25 127.34375 L 157.84375 136.625 L 70.3125 237.4375 L 151.21875 213.5625 C 151.21874 213.56249 196.3125 291.85141 196.3125 285.21875 C 196.3125 278.58608 153.875 192.34375 153.875 192.34375 L 120.71875 209.59375 L 192.34375 132.65625 L 123.375 123.375 L 130.21875 106.75 C 131.90599 106.77472 133.60891 106.8125 135.3125 106.8125 C 204.87589 106.8125 261.31251 86.003619 261.3125 60.375 C 261.3125 34.746381 204.87589 13.96875 135.3125 13.96875 z "
       id="path4169" />
    <text
       xml:space="preserve"
       style="font-size:16px;font-style:italic;font-variant:normal;font-weight:normal;font-stretch:normal;text-align:center;line-height:125%;writing-mode:lr-tb;text-anchor:middle;fill:#000000;fill-opacity:1;stroke:none;stroke-width:1px;stroke-linecap:butt;stroke-linejoin:miter;stroke-opacity:1;font-family:Kid Kosmic;-inkscape-font-specification:Kid Kosmic Italic"
       x="140.27347"
       y="62.069382"
       id="text3908"
       sodipodi:linespacing="125%"><tspan
         sodipodi:role="line"
         x="140.27347"
         y="62.069382"
         id="tspan3912">tiene una nueva</tspan><tspan
         sodipodi:role="line"
         x="140.27347"
         y="82.069382"
         id="tspan3918">peticin de amigo</tspan></text>
    <path
       style="opacity:1;fill:#ffffff;fill-opacity:1;fill-rule:nonzero;stroke:#000000;stroke-width:1.00000011999999994;stroke-linecap:butt;stroke-linejoin:round;stroke-miterlimit:4;stroke-dasharray:none;stroke-dashoffset:0;stroke-opacity:1"
       d="M 498.09375 7.21875 C 426.33506 7.21875 368.09375 25.361771 368.09375 47.71875 C 368.09375 69.765574 424.7402 87.724937 495.125 88.21875 L 470.90625 100.8125 L 508.0625 98.15625 L 504.15625 107.0625 C 470.69783 113.89073 448.09374 126.85276 448.09375 141.71875 C 448.09375 161.09934 486.51127 177.28424 537.3125 180.8125 L 468.28125 233.46875 L 525.3125 230.8125 L 456.3125 286.53125 L 530.625 285.21875 L 571.75 303.78125 L 534.59375 275.90625 L 490.8125 275.90625 L 551.84375 226.84375 L 513.375 221.53125 L 563.46875 181.46875 C 621.78973 180.47034 668.28123 163.03784 668.28125 141.71875 C 668.28125 119.75891 618.96181 101.9375 558.1875 101.9375 C 545.47201 101.9375 533.27239 102.75248 521.90625 104.1875 L 527.96875 92.84375 L 506.75 95.5 L 514.34375 87.90625 C 578.43325 85.409846 628.09378 68.359274 628.09375 47.71875 C 628.09375 25.361772 569.85243 7.2187501 498.09375 7.21875 z "
       id="path4171" />
    <text
       sodipodi:linespacing="125%"
       id="text4109"
       y="50.069382"
       x="500.27344"
       style="font-size:16px;font-style:italic;font-variant:normal;font-weight:normal;font-stretch:normal;text-align:center;line-height:125%;writing-mode:lr-tb;text-anchor:middle;fill:#000000;fill-opacity:1;stroke:none;stroke-width:1px;stroke-linecap:butt;stroke-linejoin:miter;stroke-opacity:1;font-family:Kid Kosmic;-inkscape-font-specification:Kid Kosmic Italic"
       xml:space="preserve"><tspan
         id="tspan4113"
         y="50.069382"
         x="500.27344"
         sodipodi:role="line">DGT te ha aadido</tspan><tspan
         y="70.069382"
         x="500.27344"
         sodipodi:role="line"
         id="tspan4137">como amigo.</tspan></text>
    <path
       style="opacity:1;fill:#ffffff;fill-opacity:1;fill-rule:nonzero;stroke:#000000;stroke-width:1;stroke-linecap:butt;stroke-linejoin:round;stroke-miterlimit:4;stroke-dasharray:none;stroke-dashoffset:0;stroke-opacity:1"
       d="M 838.375 5.96875 C 779.06305 5.96875 730.90623 28.83977 730.90625 57.03125 C 730.90625 79.468641 761.43147 98.523904 803.78125 105.375 L 756.125 133.96875 L 834.375 133.96875 L 750.8125 265.3125 L 827.75 266.625 L 807.84375 328.96875 L 936.53125 317.03125 L 825.09375 311.75 L 846.3125 254.6875 L 774.6875 252.03125 L 860.90625 120.71875 L 797.25 123.375 L 827.1875 107.84375 C 830.85903 108.02425 834.60361 108.09375 838.375 108.09375 C 897.68695 108.09375 945.81252 85.22273 945.8125 57.03125 C 945.8125 28.83977 897.68695 5.96875 838.375 5.96875 z "
       id="path4175" />
    <path
       style="opacity:1;fill:#ffffff;fill-opacity:1;fill-rule:nonzero;stroke:#000000;stroke-width:1.00000011999999994;stroke-linecap:butt;stroke-linejoin:round;stroke-miterlimit:4;stroke-dasharray:none;stroke-dashoffset:0;stroke-opacity:1"
       d="M 844.375 128.9375 C 774.62 128.9375 718.00002 155.84485 718 189 C 718 222.15515 774.61998 249.06249 844.375 249.0625 C 870.06669 249.0625 893.95211 245.3932 913.90625 239.125 L 939.1875 249.375 L 930.1875 233.03125 C 955.10529 222.05808 970.75 206.40659 970.75 189 C 970.75 155.84485 914.12998 128.9375 844.375 128.9375 z "
       id="path4177" />
    <text
       xml:space="preserve"
       style="font-size:16px;font-style:italic;font-variant:normal;font-weight:normal;font-stretch:normal;text-align:center;line-height:125%;writing-mode:lr-tb;text-anchor:middle;fill:#000000;fill-opacity:1;stroke:none;stroke-width:1px;stroke-linecap:butt;stroke-linejoin:miter;stroke-opacity:1;font-family:Kid Kosmic;-inkscape-font-specification:Kid Kosmic Italic"
       x="846.27344"
       y="184.06938"
       id="text4115"
       sodipodi:linespacing="125%"><tspan
         sodipodi:role="line"
         x="846.27344"
         y="184.06938"
         id="tspan4127">Arrrg, rechazar,</tspan><tspan
         sodipodi:role="line"
         x="846.27344"
         y="204.06938"
         id="tspan4131">rechazar, no</tspan><tspan
         sodipodi:role="line"
         x="846.27344"
         y="224.06938"
         id="tspan4133">es mi amigooo!</tspan></text>
    <text
       xml:space="preserve"
       style="font-size:16px;font-style:italic;font-variant:normal;font-weight:normal;font-stretch:normal;text-align:center;line-height:125%;writing-mode:lr-tb;text-anchor:middle;fill:#000000;fill-opacity:1;stroke:none;stroke-width:1px;stroke-linecap:butt;stroke-linejoin:miter;stroke-opacity:1;font-family:Kid Kosmic;-inkscape-font-specification:Kid Kosmic Italic"
       x="560.27344"
       y="130.06938"
       id="text4139"
       sodipodi:linespacing="125%"><tspan
         id="tspan4143"
         sodipodi:role="line"
         x="560.27344"
         y="130.06938">DGT te ha</tspan><tspan
         sodipodi:role="line"
         x="560.27344"
         y="150.06938"
         id="tspan4147">etiquetado en</tspan><tspan
         sodipodi:role="line"
         x="560.27344"
         y="170.06938"
         id="tspan4149">una foto</tspan></text>
    <text
       sodipodi:linespacing="125%"
       id="text4151"
       y="44.069382"
       x="840.27344"
       style="font-size:16px;font-style:italic;font-variant:normal;font-weight:normal;font-stretch:normal;text-align:center;line-height:125%;writing-mode:lr-tb;text-anchor:middle;fill:#000000;fill-opacity:1;stroke:none;stroke-width:1px;stroke-linecap:butt;stroke-linejoin:miter;stroke-opacity:1;font-family:Kid Kosmic;-inkscape-font-specification:Kid Kosmic Italic"
       xml:space="preserve"><tspan
         id="tspan4157"
         y="44.069382"
         x="840.27344"
         sodipodi:role="line">dgt te invita</tspan><tspan
         y="64.069382"
         x="840.27344"
         sodipodi:role="line"
         id="tspan4164">al evento &quot;4</tspan><tspan
         y="84.069382"
         x="840.27344"
         sodipodi:role="line"
         id="tspan4166">puntos menos&quot;</tspan></text>
  </g>
  <g
     inkscape:groupmode="layer"
     id="layer4"
     inkscape:label="vinietas">
    <path
       style="fill:#6699cc;fill-opacity:1;fill-rule:nonzero;stroke:#000000;stroke-width:4.48726034;stroke-linecap:round;stroke-linejoin:round;stroke-miterlimit:4;stroke-dashoffset:0;stroke-opacity:1;display:inline"
       d="M -3.1395438,-4.7760952 C -5.4235092,-4.7760952 -7.2644814,-2.9685179 -7.2644814,-0.74658629 L -7.2644814,390.21022 C -7.2644814,390.53373 -7.2131821,390.85414 -7.1394833,391.15464 C -7.2179821,391.46533 -7.2644814,391.79636 -7.2644814,392.13053 L -7.2644814,783.08734 C -7.2644814,785.30927 -5.4235092,787.08538 -3.1395438,787.08537 L 1073.2191,787.08537 C 1075.5032,787.08537 1077.3441,785.30927 1077.3441,783.08734 L 1077.3441,392.13053 C 1077.3441,391.79636 1077.2977,391.46533 1077.2191,391.15464 C 1077.2929,390.85414 1077.3441,390.53373 1077.3441,390.21022 L 1077.3441,-0.74658629 C 1077.3441,-2.9685179 1075.5034,-4.7760952 1073.2191,-4.7760952 L -3.1395438,-4.7760952 z M 32.141222,5.9902489 L 318.91808,5.9902489 C 335.30364,5.9902489 348.48014,17.992323 348.48014,32.874629 L 348.48014,331.31013 C 348.48014,346.19245 335.30374,358.16303 318.91808,358.16303 L 32.141222,358.16303 C 15.75567,358.16303 2.5791696,346.19244 2.5791696,331.31013 L 2.5791696,32.874629 C 2.5791696,17.992323 15.75567,5.9902489 32.141222,5.9902489 z M 388.72953,5.9902489 L 675.50648,5.9902489 C 691.89203,5.9902489 705.06853,17.992323 705.06853,32.874629 L 705.06853,331.31013 C 705.06853,346.19245 691.89203,358.16303 675.50648,358.16303 L 388.72953,358.16303 C 372.34397,358.16303 359.16747,346.19244 359.16747,331.31013 L 359.16747,32.874629 C 359.16747,17.992323 372.34397,5.9902489 388.72953,5.9902489 z M 745.66162,5.9902489 L 1032.4386,5.9902489 C 1048.8241,5.9902489 1062.0006,17.992323 1062.0006,32.874629 L 1062.0006,331.31013 C 1062.0006,346.19245 1048.8241,358.16303 1032.4386,358.16303 L 745.66162,358.16303 C 729.27607,358.16303 716.09957,346.19244 716.09957,331.31013 L 716.09957,32.874629 C 716.09957,17.992323 729.27607,5.9902489 745.66162,5.9902489 z M 32.141222,398.86737 L 318.91808,398.86737 C 335.30364,398.86737 348.48014,410.86944 348.48014,425.75175 L 348.48014,724.18725 C 348.48014,739.06957 335.30374,751.04015 318.91808,751.04015 L 32.141222,751.04015 C 15.75567,751.04015 2.5791696,739.06956 2.5791696,724.18725 L 2.5791696,425.75175 C 2.5791696,410.86944 15.75567,398.86737 32.141222,398.86737 z M 388.72953,398.86737 L 675.50648,398.86737 C 691.89203,398.86737 705.06853,410.86944 705.06853,425.75175 L 705.06853,724.18725 C 705.06853,739.06957 691.89203,751.04015 675.50648,751.04015 L 388.72953,751.04015 C 372.34397,751.04015 359.16747,739.06956 359.16747,724.18725 L 359.16747,425.75175 C 359.16747,410.86944 372.34397,398.86737 388.72953,398.86737 z M 745.66162,398.86737 L 1032.4386,398.86737 C 1048.8241,398.86737 1062.0006,410.86944 1062.0006,425.75175 L 1062.0006,724.18725 C 1062.0006,739.06957 1048.8241,751.04015 1032.4386,751.04015 L 745.66162,751.04015 C 729.27607,751.04015 716.09957,739.06956 716.09957,724.18725 L 716.09957,425.75175 C 716.09957,410.86944 729.27607,398.86737 745.66162,398.86737 z"
       id="rect16715" />
    <text
       xml:space="preserve"
       style="font-size:18px;font-style:normal;font-variant:normal;font-weight:normal;font-stretch:normal;text-align:center;line-height:125%;writing-mode:lr-tb;text-anchor:middle;fill:#ffffff;fill-opacity:1;stroke:#ffffff;stroke-width:1pt;stroke-linecap:butt;stroke-linejoin:miter;stroke-opacity:1;display:inline;font-family:Sans"
       x="161.90993"
       y="384.6756"
       id="text2618"
       sodipodi:linespacing="125%"><tspan
         sodipodi:role="line"
         id="tspan2620"
         x="161.90993"
         y="384.6756">tira de linuxhispano.net</tspan></text>
    <text
       xml:space="preserve"
       style="font-size:18px;font-style:normal;font-variant:normal;font-weight:normal;font-stretch:normal;text-align:center;line-height:125%;writing-mode:lr-tb;text-anchor:middle;fill:#ffffff;fill-opacity:1;stroke:#ffffff;stroke-width:1pt;stroke-linecap:butt;stroke-linejoin:miter;stroke-opacity:1;display:inline;font-family:Sans"
       x="1014.7665"
       y="383.6756"
       id="text2622"
       sodipodi:linespacing="125%"><tspan
         sodipodi:role="line"
         id="tspan2624"
         x="1014.7665"
         y="383.6756">by danigm</tspan></text>
    <text
       sodipodi:linespacing="125%"
       id="text4260"
       y="384.6756"
       x="541.91003"
       style="font-size:18px;font-style:normal;font-variant:normal;font-weight:normal;font-stretch:normal;text-align:center;line-height:125%;writing-mode:lr-tb;text-anchor:middle;fill:#ffffff;fill-opacity:1;stroke:none;stroke-width:1pt;stroke-linecap:butt;stroke-linejoin:miter;stroke-opacity:1;display:inline;font-family:Sans"
       xml:space="preserve"><tspan
         y="384.6756"
         x="541.91003"
         id="tspan4262"
         sodipodi:role="line">imagenes en danigm.net</tspan></text>
  </g>
</svg>
