<?xml version="1.0" encoding="UTF-8" standalone="no"?>
<!-- Created with Inkscape (http://www.inkscape.org/) -->

<svg
   xmlns:dc="http://purl.org/dc/elements/1.1/"
   xmlns:cc="http://creativecommons.org/ns#"
   xmlns:rdf="http://www.w3.org/1999/02/22-rdf-syntax-ns#"
   xmlns:svg="http://www.w3.org/2000/svg"
   xmlns="http://www.w3.org/2000/svg"
   xmlns:sodipodi="http://sodipodi.sourceforge.net/DTD/sodipodi-0.dtd"
   xmlns:inkscape="http://www.inkscape.org/namespaces/inkscape"
   width="1063"
   height="390"
   id="svg2"
   sodipodi:version="0.32"
   inkscape:version="0.47 r22583"
   version="1.0"
   sodipodi:docname="bombones.svg"
   inkscape:output_extension="org.inkscape.output.svg.inkscape"
   inkscape:export-filename="/home/danigm/tira/bombones.png"
   inkscape:export-xdpi="57.57"
   inkscape:export-ydpi="57.57">
  <defs
     id="defs4">
    <inkscape:path-effect
       effect="spiro"
       id="path-effect4777"
       is_visible="true" />
    <inkscape:path-effect
       effect="spiro"
       id="path-effect4773"
       is_visible="true" />
    <inkscape:path-effect
       effect="spiro"
       id="path-effect4753"
       is_visible="true" />
    <inkscape:path-effect
       effect="spiro"
       id="path-effect4437"
       is_visible="true" />
    <inkscape:path-effect
       effect="spiro"
       id="path-effect4433"
       is_visible="true" />
    <inkscape:path-effect
       is_visible="true"
       id="path-effect4427"
       effect="spiro" />
    <inkscape:path-effect
       effect="spiro"
       id="path-effect4423"
       is_visible="true" />
    <inkscape:path-effect
       effect="spiro"
       id="path-effect4419"
       is_visible="true" />
    <inkscape:perspective
       sodipodi:type="inkscape:persp3d"
       id="perspective3033"
       inkscape:vp_x="-50 : 600 : 1"
       inkscape:vp_y="0 : 1000 : 0"
       inkscape:vp_z="700 : 600 : 1"
       inkscape:persp3d-origin="300 : 400 : 1" />
    <inkscape:perspective
       sodipodi:type="inkscape:persp3d"
       id="perspective3032"
       inkscape:vp_x="-50 : 600 : 1"
       inkscape:vp_y="0 : 1000 : 0"
       inkscape:vp_z="700 : 600 : 1"
       inkscape:persp3d-origin="300 : 400 : 1" />
    <inkscape:perspective
       sodipodi:type="inkscape:persp3d"
       id="perspective3031"
       inkscape:vp_x="-50 : 600 : 1"
       inkscape:vp_y="0 : 1000 : 0"
       inkscape:vp_z="700 : 600 : 1"
       inkscape:persp3d-origin="300 : 400 : 1" />
    <inkscape:perspective
       sodipodi:type="inkscape:persp3d"
       id="perspective3030"
       inkscape:vp_x="-50 : 600 : 1"
       inkscape:vp_y="0 : 1000 : 0"
       inkscape:vp_z="700 : 600 : 1"
       inkscape:persp3d-origin="300 : 400 : 1" />
    <inkscape:perspective
       sodipodi:type="inkscape:persp3d"
       id="perspective3029"
       inkscape:vp_x="-50 : 600 : 1"
       inkscape:vp_y="0 : 1000 : 0"
       inkscape:vp_z="700 : 600 : 1"
       inkscape:persp3d-origin="300 : 400 : 1" />
    <inkscape:perspective
       sodipodi:type="inkscape:persp3d"
       id="perspective2997"
       inkscape:vp_x="-50 : 600 : 1"
       inkscape:vp_y="0 : 1000 : 0"
       inkscape:vp_z="700 : 600 : 1"
       inkscape:persp3d-origin="300 : 400 : 1" />
    <inkscape:perspective
       sodipodi:type="inkscape:persp3d"
       id="perspective2996"
       inkscape:vp_x="-50 : 600 : 1"
       inkscape:vp_y="0 : 1000 : 0"
       inkscape:vp_z="700 : 600 : 1"
       inkscape:persp3d-origin="300 : 400 : 1" />
  </defs>
  <sodipodi:namedview
     id="base"
     pagecolor="#ffffff"
     bordercolor="#666666"
     borderopacity="1.0"
     inkscape:pageopacity="1"
     inkscape:pageshadow="2"
     inkscape:zoom="0.53527752"
     inkscape:cx="531.5"
     inkscape:cy="195"
     inkscape:document-units="px"
     inkscape:current-layer="layer2"
     width="1062.99px"
     borderlayer="true"
     inkscape:window-width="1024"
     inkscape:window-height="575"
     inkscape:window-x="0"
     inkscape:window-y="25"
     showgrid="false"
     inkscape:window-maximized="1"
     inkscape:snap-to-guides="true" />
  <metadata
     id="metadata7">
    <rdf:RDF>
      <cc:Work
         rdf:about="">
        <dc:format>image/svg+xml</dc:format>
        <dc:type
           rdf:resource="http://purl.org/dc/dcmitype/StillImage" />
        <dc:title></dc:title>
        <dc:date />
        <dc:creator>
          <cc:Agent>
            <dc:title />
          </cc:Agent>
        </dc:creator>
        <dc:rights>
          <cc:Agent>
            <dc:title />
          </cc:Agent>
        </dc:rights>
        <dc:publisher>
          <cc:Agent>
            <dc:title />
          </cc:Agent>
        </dc:publisher>
        <dc:identifier />
        <dc:source />
        <dc:relation />
        <dc:language />
        <dc:subject>
          <rdf:Bag />
        </dc:subject>
        <dc:coverage />
        <dc:description />
        <dc:contributor>
          <cc:Agent>
            <dc:title />
          </cc:Agent>
        </dc:contributor>
        <cc:license
           rdf:resource="" />
      </cc:Work>
      <cc:Work
         rdf:about="">
        <dc:format>image/svg+xml</dc:format>
        <dc:type
           rdf:resource="http://purl.org/dc/dcmitype/StillImage" />
      </cc:Work>
    </rdf:RDF>
  </metadata>
  <g
     inkscape:label="fondo"
     inkscape:groupmode="layer"
     id="layer1">
    <rect
       style="opacity:1;fill:#fce94f;fill-opacity:1;fill-rule:nonzero;stroke:#000000;stroke-width:4;stroke-linecap:round;stroke-linejoin:round;stroke-miterlimit:4;stroke-dasharray:none;stroke-dashoffset:0;stroke-opacity:1;display:inline"
       id="rect4585"
       width="1150.5601"
       height="856.79999"
       x="-39.900002"
       y="-27.019989"
       rx="15.548299"
       ry="10.315682" />
    <path
       sodipodi:type="arc"
       style="opacity:1;fill:#ffffff;fill-opacity:0.58035715;fill-rule:nonzero;stroke:none;stroke-width:3.80038881;stroke-linecap:round;stroke-linejoin:round;stroke-miterlimit:4;stroke-dasharray:none;stroke-dashoffset:0;stroke-opacity:1;display:inline"
       id="path4587"
       sodipodi:cx="581.40002"
       sodipodi:cy="374.85001"
       sodipodi:rx="535.5"
       sodipodi:ry="273.87"
       d="M 1116.9,374.85001 A 535.5,273.87 0 1 1 45.900024,374.85001 A 535.5,273.87 0 1 1 1116.9,374.85001 z"
       transform="matrix(0.9981395,0,0,1.1098713,-48.81833,-38.035264)" />
    <path
       sodipodi:type="arc"
       style="fill:#a40000;fill-opacity:1;stroke:#000000;stroke-width:1;stroke-linecap:round;stroke-linejoin:miter;stroke-miterlimit:4;stroke-dasharray:none;stroke-opacity:1;display:inline"
       id="path2819"
       sodipodi:cx="1411.7009"
       sodipodi:cy="253.46965"
       sodipodi:rx="53.76445"
       sodipodi:ry="53.76445"
       d="M 1465.4654,253.46965 A 53.76445,53.76445 0 1 1 1357.9365,253.46965 A 53.76445,53.76445 0 1 1 1465.4654,253.46965 z"
       transform="translate(-211.98567,488.70551)" />
    <path
       d="M 1465.4654,253.46965 A 53.76445,53.76445 0 1 1 1357.9365,253.46965 A 53.76445,53.76445 0 1 1 1465.4654,253.46965 z"
       sodipodi:ry="53.76445"
       sodipodi:rx="53.76445"
       sodipodi:cy="253.46965"
       sodipodi:cx="1411.7009"
       id="path2821"
       style="fill:#f57900;fill-opacity:1;stroke:#000000;stroke-width:1;stroke-linecap:round;stroke-linejoin:miter;stroke-miterlimit:4;stroke-dasharray:none;stroke-opacity:1;display:inline"
       sodipodi:type="arc"
       transform="translate(-91.985679,488.70551)" />
    <path
       transform="translate(30.014325,488.70551)"
       sodipodi:type="arc"
       style="fill:#4e9a06;fill-opacity:1;stroke:#000000;stroke-width:1;stroke-linecap:round;stroke-linejoin:miter;stroke-miterlimit:4;stroke-dasharray:none;stroke-opacity:1;display:inline"
       id="path2823"
       sodipodi:cx="1411.7009"
       sodipodi:cy="253.46965"
       sodipodi:rx="53.76445"
       sodipodi:ry="53.76445"
       d="M 1465.4654,253.46965 A 53.76445,53.76445 0 1 1 1357.9365,253.46965 A 53.76445,53.76445 0 1 1 1465.4654,253.46965 z" />
    <path
       d="M 1465.4654,253.46965 A 53.76445,53.76445 0 1 1 1357.9365,253.46965 A 53.76445,53.76445 0 1 1 1465.4654,253.46965 z"
       sodipodi:ry="53.76445"
       sodipodi:rx="53.76445"
       sodipodi:cy="253.46965"
       sodipodi:cx="1411.7009"
       id="path2825"
       style="fill:#fce94f;fill-opacity:1;stroke:#000000;stroke-width:1;stroke-linecap:round;stroke-linejoin:miter;stroke-miterlimit:4;stroke-dasharray:none;stroke-opacity:1;display:inline"
       sodipodi:type="arc"
       transform="translate(150.01433,488.70551)" />
    <path
       transform="translate(270.01433,488.70551)"
       sodipodi:type="arc"
       style="fill:#5c3566;fill-opacity:1;stroke:#000000;stroke-width:1;stroke-linecap:round;stroke-linejoin:miter;stroke-miterlimit:4;stroke-dasharray:none;stroke-opacity:1;display:inline"
       id="path2827"
       sodipodi:cx="1411.7009"
       sodipodi:cy="253.46965"
       sodipodi:rx="53.76445"
       sodipodi:ry="53.76445"
       d="M 1465.4654,253.46965 A 53.76445,53.76445 0 1 1 1357.9365,253.46965 A 53.76445,53.76445 0 1 1 1465.4654,253.46965 z" />
  </g>
  <g
     inkscape:groupmode="layer"
     id="layer2"
     inkscape:label="dibujos">
    <path
       id="path4826"
       d="m 947.375,-4.6875 c -67.49379,0 -122.1875,41.306415 -122.1875,92.25 0,47.92833 48.43749,87.31747 110.375,91.8125 l 5.75,17.8125 11.875,-17.5 c 64.8035,-2.283 116.4063,-42.64741 116.4063,-92.125 0,-50.943585 -54.725,-92.25 -122.2188,-92.25 z"
       style="fill:#000000;fill-opacity:1;stroke:#000000;stroke-width:1.01663780000000004;stroke-opacity:1" />
    <path
       style="fill:#ffffff;fill-opacity:1;stroke:#000000;stroke-width:0.99999958;stroke-opacity:1"
       d="m 578.55352,119.07794 c 6.27823,-3.2827 10.70642,-9.86647 11.37963,-16.91907 0.55502,-5.814387 -1.32358,-11.687203 -4.45783,-16.615855 -3.13426,-4.928652 -7.46337,-8.993643 -12.08345,-12.567155 -8.80743,-6.812319 -19.0144,-12.214928 -25.7157,-21.107124 -2.46021,-3.264537 -4.40681,-7.015643 -4.98036,-11.062971 -0.28677,-2.023665 -0.22359,-4.104713 0.27195,-6.087615 0.49553,-1.982902 1.4296,-3.865178 2.77624,-5.40271 0.93508,-1.067624 2.07565,-1.97141 3.38042,-2.529766 1.30477,-0.558357 2.77882,-0.758507 4.16489,-0.453561 1.38607,0.304946 2.67058,1.135951 3.42391,2.338733 0.37667,0.60139 0.6188,1.288465 0.68755,1.994738 0.0688,0.706272 -0.0374,1.43071 -0.31954,2.081815 -0.44334,1.023071 -1.31209,1.834101 -2.32382,2.302745 -1.01173,0.468643 -2.15716,0.609413 -3.26742,0.506711 -1.90016,-0.17577 -3.72508,-1.070658 -5.02751,-2.465346 -1.30244,-1.394689 -2.07054,-3.27649 -2.11606,-5.184217 -0.0455,-1.907726 0.63194,-3.824023 1.86637,-5.279247 1.23443,-1.455225 3.01459,-2.436139 4.9042,-2.702343 -2.45534,0.206819 -4.8171,1.373946 -6.47287,3.198741 -1.65577,1.824794 -2.58856,4.28853 -2.55649,6.752353 0.0321,2.463822 1.02866,4.902448 2.73136,6.683533 1.7027,1.781085 4.09403,2.886351 6.55392,3.0292 2.00446,0.116401 4.06252,-0.408844 5.69075,-1.583699 1.62822,-1.174854 2.79345,-3.013466 3.03121,-5.007174 0.22321,-1.871688 -0.37796,-3.809078 -1.54541,-5.288978 -1.16745,-1.4799 -2.87444,-2.503362 -4.70928,-2.935111 -1.83484,-0.431749 -3.78717,-0.285446 -5.57294,0.317932 -1.78577,0.603378 -3.40664,1.653263 -4.76256,2.962656 -2.23834,2.161526 -3.75439,5.026732 -4.44414,8.060969 -0.68975,3.034238 -0.57021,6.228951 0.18273,9.248129 1.50588,6.038355 5.45706,11.228281 10.11616,15.35408 4.11557,3.644489 8.80485,6.570698 13.23245,9.829007 4.42761,3.25831 8.68008,6.946783 11.49776,11.667049 1.76894,2.963379 2.93536,6.306519 3.22071,9.745899 0.28534,3.439381 -0.32871,6.97204 -1.9122,10.038522 -1.26586,2.45138 -3.14132,4.58505 -5.41006,6.15491"
       id="path4775"
       inkscape:path-effect="#path-effect4777"
       inkscape:original-d="m 578.55352,119.07794 c 0,0 15.0075,-3.14185 11.37963,-16.91907 -3.62782,-13.777181 -10.24224,-23.662356 -16.54128,-29.18301 -6.29905,-5.520664 -21.76954,-9.834009 -25.7157,-21.107124 -3.94615,-11.273112 -4.30858,-17.964035 -1.93217,-22.553296 2.37644,-4.58924 11.93387,2.05756 11.33723,3.431959 -0.59658,1.374448 -3.17072,7.415184 -5.59124,2.809456 -2.42051,-4.605728 -0.008,-15.808845 -0.373,-15.631153 -5.6913,11.893828 -6.10667,16.613722 0.25592,19.663827 6.36257,3.050091 10.06635,-3.268968 8.72196,-6.590873 -1.34441,-3.321918 -13.28883,-14.319698 -16.59019,-4.943501 -3.30132,9.376228 -1.66452,25.748122 5.85475,32.663178 7.51934,6.915107 23.71411,14.761605 24.73021,21.496056 1.01611,6.73445 4.30506,14.98396 1.30851,19.784421 -2.99659,4.8005 -5.41006,6.15491 -5.41006,6.15491"
       sodipodi:nodetypes="csssssscssssssc" />
    <rect
       ry="0"
       rx="0"
       y="297.16077"
       x="789.80273"
       height="82.706482"
       width="11.668525"
       id="rect4657"
       style="fill:#000000;fill-opacity:1;stroke:#000000;stroke-width:1;stroke-miterlimit:4;stroke-opacity:1;stroke-dasharray:none" />
    <rect
       style="fill:#000000;fill-opacity:1;stroke:#000000;stroke-width:1;stroke-miterlimit:4;stroke-opacity:1;stroke-dasharray:none"
       id="rect4659"
       width="11.668525"
       height="82.706482"
       x="927.38086"
       y="297.16077"
       rx="0"
       ry="0" />
    <g
       id="g4473"
       transform="translate(55.891326,-784.11632)">
      <g
         style="display:inline"
         id="g4475"
         transform="matrix(-1,0,0,1,776.73421,502.53721)">
        <path
           style="fill:#ffffff;fill-opacity:1;fill-rule:evenodd;stroke:#000000;stroke-width:1.25;stroke-linecap:butt;stroke-linejoin:miter;stroke-miterlimit:4;stroke-opacity:1"
           d="m 61.053417,633.09397 c -27.450373,1.41984 -28.396938,13.72518 -28.396938,13.72518 0,9.93893 53.007618,4.73283 53.007618,4.73283 l 0,-16.0916 -24.61068,-2.36641 z"
           id="path4478"
           sodipodi:nodetypes="ccccc"
           transform="translate(268.1573,-0.313798)" />
        <path
           style="fill:#000000;fill-opacity:1;fill-rule:nonzero;stroke:none"
           id="path4480"
           d="m 325.45238,634.32792 c -3.30411,1.76396 -4.78275,5.00331 -5.78563,8.53267 -0.38654,3.01387 -0.16775,5.74342 2.73846,7.01553 l -0.45474,1.46078 c -3.8784,-1.31602 -4.27574,-5.27802 -3.75426,-8.89841 1.11808,-3.86039 2.78921,-7.41198 6.40753,-9.38354 l 0.84864,1.27297 z" />
        <path
           style="fill:#000000;fill-opacity:1;fill-rule:nonzero;stroke:none"
           id="path4482"
           d="m 315.00649,636.20283 c -3.94023,3.53627 -3.26217,10.99809 -0.36872,14.99187 l -1.24536,0.88868 c -3.33005,-4.72753 -3.96581,-13.10773 0.76543,-17.15353 l 0.84865,1.27298 z" />
      </g>
      <g
         style="display:inline"
         id="g4484"
         transform="translate(68.690001,502.34781)">
        <path
           style="fill:#ffffff;fill-opacity:1;fill-rule:evenodd;stroke:#000000;stroke-width:1.25;stroke-linecap:butt;stroke-linejoin:miter;stroke-miterlimit:4;stroke-opacity:1"
           d="m 61.053417,633.09397 c -27.450373,1.41984 -28.396938,13.72518 -28.396938,13.72518 0,9.93893 53.007618,4.73283 53.007618,4.73283 l 0,-16.0916 -24.61068,-2.36641 z"
           id="path4486"
           sodipodi:nodetypes="ccccc"
           transform="translate(268.1573,-0.313798)" />
        <path
           style="fill:#000000;fill-opacity:1;fill-rule:nonzero;stroke:none"
           id="path4488"
           d="m 325.45238,634.32792 c -3.30411,1.76396 -4.78275,5.00331 -5.78563,8.53267 -0.38654,3.01387 -0.16775,5.74342 2.73846,7.01553 l -0.45474,1.46078 c -3.8784,-1.31602 -4.27574,-5.27802 -3.75426,-8.89841 1.11808,-3.86039 2.78921,-7.41198 6.40753,-9.38354 l 0.84864,1.27297 z" />
        <path
           style="fill:#000000;fill-opacity:1;fill-rule:nonzero;stroke:none"
           id="path4490"
           d="m 315.00649,636.20283 c -3.94023,3.53627 -3.26217,10.99809 -0.36872,14.99187 l -1.24536,0.88868 c -3.33005,-4.72753 -3.96581,-13.10773 0.76543,-17.15353 l 0.84865,1.27298 z" />
      </g>
      <path
         style="fill:#000000;fill-opacity:1;fill-rule:nonzero;stroke:none;display:inline"
         id="path4492"
         d="m 443.50824,992.82603 c 10.22427,1.29323 -14.24479,-11.92298 -17.61666,-12.48612 3.12724,4.25973 6.82041,8.11439 10.72758,11.67232 -10.13139,-6.34016 -23.14244,-12.91201 -6.14165,1.4311 -2.03638,1.0797 -15.11897,-8.41698 -21.55878,-6.21998 l 0.48779,1.26061 c 5.21281,-0.60661 23.34389,9.75912 21.94155,3.92534 -16.16041,-13.57866 -5.90998,-3.86282 4.66403,0.81063 4.57073,-1.38875 -6.57739,-11.87293 -10.01079,-11.53278 2.83934,0.84693 24.52163,13.45539 18.00893,9.88386 l -0.502,1.25502 z" />
      <path
         sodipodi:type="arc"
         style="fill:#ffe5b9;fill-opacity:1;stroke:#000000;stroke-width:1.25;stroke-miterlimit:4;stroke-opacity:1;display:inline"
         id="path4494"
         sodipodi:cx="54.664104"
         sodipodi:cy="525.42224"
         sodipodi:rx="6.8625937"
         sodipodi:ry="6.8625937"
         d="m 61.526698,525.42224 c 0,3.79011 -3.072488,6.86259 -6.862594,6.86259 -3.790105,0 -6.862593,-3.07248 -6.862593,-6.86259 0,-3.7901 3.072488,-6.86259 6.862593,-6.86259 3.790106,0 6.862594,3.07249 6.862594,6.86259 z"
         transform="matrix(1.031733,0,0,0.716766,335.63361,650.80701)" />
      <path
         sodipodi:type="arc"
         style="fill:#ffe5b9;fill-opacity:1;stroke:#000000;stroke-width:1.25;stroke-miterlimit:4;stroke-opacity:1;display:inline"
         id="path4496"
         sodipodi:cx="129.67935"
         sodipodi:cy="524.94897"
         sodipodi:rx="6.6259522"
         sodipodi:ry="5.4427466"
         d="m 136.3053,524.94897 c 0,3.00595 -2.96654,5.44275 -6.62595,5.44275 -3.65941,0 -6.62595,-2.4368 -6.62595,-5.44275 0,-3.00594 2.96654,-5.44274 6.62595,-5.44274 3.65941,0 6.62595,2.4368 6.62595,5.44274 z"
         transform="translate(337.60491,501.27641)" />
      <path
         sodipodi:type="arc"
         style="fill:#ffe5b9;fill-opacity:1;stroke:#000000;stroke-width:1.83430135;stroke-miterlimit:4;stroke-opacity:1;display:inline"
         id="path4498"
         sodipodi:cx="99.152641"
         sodipodi:cy="518.55963"
         sodipodi:rx="51.824413"
         sodipodi:ry="51.587772"
         d="m 150.97705,518.55963 c 0,28.49114 -23.20258,51.58777 -51.824409,51.58777 -28.621833,0 -51.824413,-23.09663 -51.824413,-51.58777 0,-28.49114 23.20258,-51.58777 51.824413,-51.58777 28.621829,0 51.824409,23.09663 51.824409,51.58777 z"
         transform="matrix(0.669126,0,0,0.694018,363.46881,664.32511)" />
      <g
         transform="matrix(0.4651787,0.8852168,0.8852168,-0.4651787,-668.2484,1435.6234)"
         id="g4500">
        <g
           id="g4502"
           inkscape:transform-center-x="-6.6507783"
           inkscape:transform-center-y="-6.1622439"
           transform="matrix(0.6557502,-0.05498409,0.05498409,0.6557502,-932.21721,283.43809)">
          <rect
             transform="matrix(0.6198235,0.7847413,-0.7847413,0.6198235,0,0)"
             style="fill:#cccccc;fill-opacity:1;fill-rule:nonzero;stroke:#000000;stroke-width:1;stroke-linecap:butt;stroke-linejoin:round;stroke-miterlimit:4;stroke-opacity:1;stroke-dasharray:none"
             id="rect4504"
             width="5.9731178"
             height="31.785524"
             x="2084.4009"
             y="-435.39514"
             ry="4.1980953"
             rx="4.1980953" />
          <path
             style="fill:#ffffff;fill-opacity:1;fill-rule:nonzero;stroke:none"
             d="m 1618.8049,1383.8827 13.0267,-10.8737 -0.7427,-0.2194 -12.1886,10.0342 -0.095,1.0589 z"
             id="path4506" />
        </g>
        <g
           id="g4508"
           transform="matrix(0.00456249,-0.6580355,0.6580355,0.00456249,-719.42452,2159.3041)"
           inkscape:transform-center-x="6.5510517"
           inkscape:transform-center-y="8.6773905">
          <rect
             transform="matrix(0.584065,-0.8117069,0.8117069,0.584065,0,0)"
             rx="4.1980953"
             ry="4.1980953"
             y="2086.7573"
             x="-187.26065"
             height="31.785521"
             width="5.9731174"
             id="rect4510"
             style="fill:#cccccc;fill-opacity:1;fill-rule:nonzero;stroke:#000000;stroke-width:0.99999994;stroke-linecap:butt;stroke-linejoin:round;stroke-miterlimit:4;stroke-opacity:1;stroke-dasharray:none" />
          <path
             id="path4512"
             d="m 1587.8529,1372.1075 17.6564,12.7047 0.035,-0.9921 -16.3468,-11.932 -1.3451,0.2194 z"
             style="fill:#ffffff;fill-opacity:1;fill-rule:nonzero;stroke:none" />
        </g>
        <g
           id="g4514"
           transform="matrix(0.5648622,0.337583,-0.337583,0.5648622,-241.38586,-223.42352)">
          <path
             sodipodi:type="arc"
             style="fill:#cccccc;fill-opacity:1;fill-rule:nonzero;stroke:#000000;stroke-width:1.29999959;stroke-linecap:butt;stroke-linejoin:round;stroke-miterlimit:4;stroke-opacity:1;stroke-dasharray:none"
             id="path4516"
             sodipodi:cx="223.90565"
             sodipodi:cy="121.57761"
             sodipodi:rx="7.873302"
             sodipodi:ry="7.873302"
             d="m 231.77896,121.57761 c 0,4.3483 -3.525,7.8733 -7.87331,7.8733 -4.3483,0 -7.8733,-3.525 -7.8733,-7.8733 0,-4.34831 3.525,-7.87331 7.8733,-7.87331 4.34831,0 7.87331,3.525 7.87331,7.87331 z"
             transform="matrix(0.4492809,-0.6243902,0.6243902,0.4492809,1435.5154,1471.7425)" />
          <path
             transform="matrix(0.100465,-0.1396217,0.1396217,0.100465,1570.2308,1407.7417)"
             d="m 231.77896,121.57761 c 0,4.3483 -3.525,7.8733 -7.87331,7.8733 -4.3483,0 -7.8733,-3.525 -7.8733,-7.8733 0,-4.34831 3.525,-7.87331 7.8733,-7.87331 4.34831,0 7.87331,3.525 7.87331,7.87331 z"
             sodipodi:ry="7.873302"
             sodipodi:rx="7.873302"
             sodipodi:cy="121.57761"
             sodipodi:cx="223.90565"
             id="path4518"
             style="fill:#ffffff;fill-opacity:1;fill-rule:nonzero;stroke:none"
             sodipodi:type="arc" />
        </g>
        <g
           id="g4520"
           inkscape:transform-center-x="-17.066912"
           inkscape:transform-center-y="-19.98967"
           transform="matrix(0.6557502,-0.05498409,0.05498409,0.6557502,-932.21721,283.43809)">
          <path
             id="path4522"
             d="m 1625.4971,1352.8929 0.5416,6.395 7.0293,4.1959 3.4203,-1.82 -6.9328,-3.7101 -0.2013,-5.0501 -3.8571,-0.011 z m 9.2208,-7.2783 4.5526,7.3487 -1.1071,6.9924 2.5946,0.8562 1.1937,-8.4761 -2.7863,-10.2992 -4.4475,3.578 z m 8.3995,17.5787 1.1011,1.9815 6.2365,-4.1637 5.2605,1.4069 0.3081,-4.6837 -6.2947,0.7327 -6.6115,4.7263 z m 0.1646,5.8859 0.1823,1.6473 4.2144,0.5056 2.3307,3.3716 2.5594,-1.9043 -3.725,-3.3343 -5.5618,-0.2859 z"
             style="fill:#cccccc;fill-opacity:1;fill-rule:nonzero;stroke:#000000;stroke-width:0.99999994;stroke-linecap:butt;stroke-linejoin:round;stroke-miterlimit:4;stroke-opacity:1;stroke-dasharray:none" />
          <path
             transform="matrix(0.5580852,-0.7756015,0.7756015,0.5580852,1418.3319,1472.7115)"
             d="m 231.77896,121.57761 c 0,4.3483 -3.525,7.8733 -7.87331,7.8733 -4.3483,0 -7.8733,-3.525 -7.8733,-7.8733 0,-4.34831 3.525,-7.87331 7.8733,-7.87331 4.34831,0 7.87331,3.525 7.87331,7.87331 z"
             sodipodi:ry="7.873302"
             sodipodi:rx="7.873302"
             sodipodi:cy="121.57761"
             sodipodi:cx="223.90565"
             id="path4524"
             style="fill:#cccccc;fill-opacity:1;fill-rule:nonzero;stroke:#000000;stroke-width:1.04655123;stroke-linecap:butt;stroke-linejoin:round;stroke-miterlimit:4;stroke-opacity:1;stroke-dasharray:none"
             sodipodi:type="arc" />
          <path
             sodipodi:type="arc"
             style="fill:#ffffff;fill-opacity:1;fill-rule:nonzero;stroke:none"
             id="path4528"
             sodipodi:cx="223.90565"
             sodipodi:cy="121.57761"
             sodipodi:rx="7.873302"
             sodipodi:ry="7.873302"
             d="m 231.77896,121.57761 c 0,4.3483 -3.525,7.8733 -7.87331,7.8733 -4.3483,0 -7.8733,-3.525 -7.8733,-7.8733 0,-4.34831 3.525,-7.87331 7.8733,-7.87331 4.34831,0 7.87331,3.525 7.87331,7.87331 z"
             transform="matrix(0.2150335,-0.2988437,0.2988437,0.2150335,1556.3475,1410.0025)" />
        </g>
      </g>
      <path
         style="fill:#ffe5b9;fill-opacity:1;fill-rule:evenodd;stroke:#000000;stroke-width:1.25;stroke-linecap:butt;stroke-linejoin:miter;stroke-miterlimit:4;stroke-opacity:1;display:inline"
         d="m 424.21551,1055.3323 -1.41984,16.0916 -8.99237,4.2595 11.83206,15.145 11.83206,-16.0915 -9.93893,-4.2596 1.04106,-15.1458 -4.35404,8e-4 z"
         id="path4534"
         sodipodi:nodetypes="cccccccc" />
      <path
         style="fill:#ffe5b9;fill-opacity:1;fill-rule:evenodd;stroke:#000000;stroke-width:1.25;stroke-linecap:butt;stroke-linejoin:miter;stroke-miterlimit:4;stroke-opacity:1;display:inline"
         d="m 443.5194,1091.2799 6.15267,16.5649 c 9.93893,2.3664 3.78626,11.8321 3.78626,11.8321 -8.51908,3.3129 -11.35877,-0.9466 -11.35877,-0.9466 l -5.20611,-27.4504 6.62595,0 z"
         id="path4537" />
      <path
         style="fill:#ffffff;fill-opacity:1;fill-rule:evenodd;stroke:#000000;stroke-width:1.25;stroke-linecap:butt;stroke-linejoin:miter;stroke-miterlimit:4;stroke-opacity:1;display:inline"
         d="m 405.76794,1110.2668 -8.13889,24.1172 c 8.54584,4.3065 25.63752,2.5839 25.63752,2.5839 8.95278,5.1679 27.67223,-1.292 27.67223,-1.292 l -7.73194,-29.285 -37.43892,3.8759 z"
         id="path4539" />
      <path
         style="fill:#ff9f00;fill-opacity:1;fill-rule:evenodd;stroke:#000000;stroke-width:1.25;stroke-linecap:butt;stroke-linejoin:miter;stroke-miterlimit:4;stroke-opacity:1;display:inline"
         d="m 416.03028,1072.0685 9.7541,-1.4724 11.88417,1.7989 12.42197,17.6298 -11.62055,4.2442 -3.20567,-13.7121 10.41842,31.6683 c -12.82267,5.5502 -41.27299,0.3265 -41.27299,0.3265 l 9.61701,-31.3418 -4.00709,14.365 -11.62056,-4.2442 17.63119,-19.2622 z"
         id="path4541"
         sodipodi:nodetypes="cccccccccccc" />
      <path
         style="fill:none;stroke:#000000;stroke-width:1.25;stroke-linecap:butt;stroke-linejoin:miter;stroke-miterlimit:4;stroke-opacity:1;stroke-dasharray:none;display:inline"
         d="m 410.72612,1123.1828 c 15.53492,-2.9463 25.44513,0.2678 25.44513,0.2678"
         id="path4543" />
      <path
         style="fill:none;stroke:#000000;stroke-width:1.25;stroke-linecap:butt;stroke-linejoin:miter;stroke-miterlimit:4;stroke-opacity:1;stroke-dasharray:none;display:inline"
         d="m 423.31476,1122.1114 -0.26784,14.9991"
         id="path4545" />
    </g>
    <rect
       style="fill:#8ad7d5;fill-opacity:1"
       id="rect4349"
       width="358.75592"
       height="380.6647"
       x="-1.3692975"
       y="-0.2497723"
       ry="10.315682" />
    <path
       style="fill:#8ad7d5;fill-opacity:1;stroke:#000000;stroke-opacity:1"
       d="m 285.48932,206.7633 c 6.71345,14.4659 5.59933,32.29177 -2.86308,45.80918 -6.97669,11.1442 -18.37952,19.05779 -30.7309,23.56453 -12.35138,4.50674 -25.65307,5.8337 -38.80088,5.88422 -25.06414,0.0963 -50.69581,-4.2428 -74.84892,2.45406 -8.86717,2.45858 -17.4839,6.48992 -24.0545,12.93186 -3.2853,3.22097 -6.02426,7.024 -7.85661,11.24422 -1.83236,4.22023 -2.74368,8.86169 -2.44577,13.45289 0.20686,3.18802 1.00523,6.36505 2.5702,9.15021 1.56497,2.78517 3.92311,5.16259 6.81632,6.51744 2.89321,1.35485 6.32594,1.63105 9.31953,0.5154 1.49679,-0.55782 2.87075,-1.45303 3.96139,-2.62011 1.09063,-1.16708 1.89383,-2.60627 2.2822,-4.1557 0.61024,-2.43459 0.17019,-5.07349 -0.9944,-7.29686 -1.16459,-2.22337 -3.01725,-4.04442 -5.14075,-5.38247 -3.63426,-2.29 -8.11961,-3.19267 -12.35679,-2.48678 -4.23718,0.70589 -8.18764,3.01392 -10.883226,6.35843 -2.695582,3.34452 -4.11176,7.69511 -3.901461,11.98553 0.210299,4.29043 2.045163,8.48166 5.054907,11.54653 -4.101434,-3.73406 -6.719782,-9.05485 -7.176095,-14.58267 -0.456313,-5.52781 1.25409,-11.20593 4.687696,-15.562 3.433609,-4.35607 8.555179,-7.34538 14.036679,-8.1928 5.4815,-0.84743 11.26668,0.45574 15.85542,3.57158 3.73917,2.53897 6.69478,6.29728 7.99256,10.62666 1.29778,4.32939 0.85912,9.20966 -1.44839,13.09594 -2.16629,3.64842 -5.89483,6.28447 -10.00772,7.32751 -4.11289,1.04303 -8.56383,0.53157 -12.43222,-1.2118 -3.86839,-1.74337 -7.15446,-4.68005 -9.51672,-8.20475 -2.36226,-3.52471 -3.818151,-7.62082 -4.445272,-11.81731 -1.035244,-6.92751 0.183713,-14.12189 3.109962,-20.4858 2.92624,-6.3639 7.51767,-11.90536 12.99971,-16.26535 10.96407,-8.71997 25.13241,-12.57379 39.10674,-13.55714 12.34408,-0.86863 24.72839,0.33166 37.1005,0.58027 12.37211,0.24862 25.02094,-0.51098 36.52139,-5.07939 7.21998,-2.86805 13.88437,-7.23996 19.10718,-12.99115 5.2228,-5.75119 8.96724,-12.90147 10.34157,-20.54771 1.09865,-6.11247 0.67329,-12.49293 -1.22703,-18.40547"
       id="path4421"
       inkscape:path-effect="#path-effect4423"
       inkscape:original-d="m 285.48932,206.7633 c 0,0 22.49557,26.17667 -2.86308,45.80918 -25.35865,19.6325 -50.7173,28.22172 -69.53178,29.44875 -18.81448,1.22703 -52.35334,-12.27031 -74.84892,2.45406 -22.49557,14.72438 -32.31182,26.17667 -34.35688,37.62897 -2.04505,11.45229 24.13162,12.67932 24.94964,9.40724 0.81802,-3.27209 4.49912,-17.58745 -6.13515,-12.67933 -10.63428,4.90813 -21.67756,28.22173 -22.08657,27.40371 6.13516,-29.03975 11.8613,-38.03798 27.4037,-34.76589 15.5424,3.27208 13.49735,19.6325 6.54417,23.7226 -6.95318,4.09011 -43.355113,7.36219 -36.401932,-13.90635 6.953182,-21.26855 32.311832,-48.26324 55.216412,-50.30829 22.90459,-2.04505 62.57861,6.13515 73.62189,-4.49912 11.04328,-10.63427 28.22172,-20.85953 29.44875,-33.53886 1.22703,-12.67932 -1.22703,-18.40547 -1.22703,-18.40547"
       sodipodi:nodetypes="csssssscssssssc" />
    <path
       sodipodi:nodetypes="csssssscssssssc"
       inkscape:original-d="m 285.48932,206.7633 c 0,0 22.49557,26.17667 -2.86308,45.80918 -25.35865,19.6325 -50.7173,28.22172 -69.53178,29.44875 -18.81448,1.22703 -52.35334,-12.27031 -74.84892,2.45406 -22.49557,14.72438 -32.31182,26.17667 -34.35688,37.62897 -2.04505,11.45229 24.13162,12.67932 24.94964,9.40724 0.81802,-3.27209 4.49912,-17.58745 -6.13515,-12.67933 -10.63428,4.90813 -21.67756,28.22173 -22.08657,27.40371 6.13516,-29.03975 11.8613,-38.03798 27.4037,-34.76589 15.5424,3.27208 13.49735,19.6325 6.54417,23.7226 -6.95318,4.09011 -43.355113,7.36219 -36.401932,-13.90635 6.953182,-21.26855 32.311832,-48.26324 55.216412,-50.30829 22.90459,-2.04505 62.57861,6.13515 73.62189,-4.49912 11.04328,-10.63427 28.22172,-20.85953 29.44875,-33.53886 1.22703,-12.67932 -1.22703,-18.40547 -1.22703,-18.40547"
       inkscape:path-effect="#path-effect4427"
       id="path4425"
       d="m 285.48932,206.7633 c 6.71345,14.4659 5.59933,32.29177 -2.86308,45.80918 -6.97669,11.1442 -18.37952,19.05779 -30.7309,23.56453 -12.35138,4.50674 -25.65307,5.8337 -38.80088,5.88422 -25.06414,0.0963 -50.69581,-4.2428 -74.84892,2.45406 -8.86717,2.45858 -17.4839,6.48992 -24.0545,12.93186 -3.2853,3.22097 -6.02426,7.024 -7.85661,11.24422 -1.83236,4.22023 -2.74368,8.86169 -2.44577,13.45289 0.20686,3.18802 1.00523,6.36505 2.5702,9.15021 1.56497,2.78517 3.92311,5.16259 6.81632,6.51744 2.89321,1.35485 6.32594,1.63105 9.31953,0.5154 1.49679,-0.55782 2.87075,-1.45303 3.96139,-2.62011 1.09063,-1.16708 1.89383,-2.60627 2.2822,-4.1557 0.61024,-2.43459 0.17019,-5.07349 -0.9944,-7.29686 -1.16459,-2.22337 -3.01725,-4.04442 -5.14075,-5.38247 -3.63426,-2.29 -8.11961,-3.19267 -12.35679,-2.48678 -4.23718,0.70589 -8.18764,3.01392 -10.883226,6.35843 -2.695582,3.34452 -4.11176,7.69511 -3.901461,11.98553 0.210299,4.29043 2.045163,8.48166 5.054907,11.54653 -4.101434,-3.73406 -6.719782,-9.05485 -7.176095,-14.58267 -0.456313,-5.52781 1.25409,-11.20593 4.687696,-15.562 3.433609,-4.35607 8.555179,-7.34538 14.036679,-8.1928 5.4815,-0.84743 11.26668,0.45574 15.85542,3.57158 3.73917,2.53897 6.69478,6.29728 7.99256,10.62666 1.29778,4.32939 0.85912,9.20966 -1.44839,13.09594 -2.16629,3.64842 -5.89483,6.28447 -10.00772,7.32751 -4.11289,1.04303 -8.56383,0.53157 -12.43222,-1.2118 -3.86839,-1.74337 -7.15446,-4.68005 -9.51672,-8.20475 -2.36226,-3.52471 -3.818151,-7.62082 -4.445272,-11.81731 -1.035244,-6.92751 0.183713,-14.12189 3.109962,-20.4858 2.92624,-6.3639 7.51767,-11.90536 12.99971,-16.26535 10.96407,-8.71997 25.13241,-12.57379 39.10674,-13.55714 12.34408,-0.86863 24.72839,0.33166 37.1005,0.58027 12.37211,0.24862 25.02094,-0.51098 36.52139,-5.07939 7.21998,-2.86805 13.88437,-7.23996 19.10718,-12.99115 5.2228,-5.75119 8.96724,-12.90147 10.34157,-20.54771 1.09865,-6.11247 0.67329,-12.49293 -1.22703,-18.40547"
       style="fill:#ffffff;fill-opacity:1;stroke:#000000;stroke-opacity:1" />
    <path
       style="fill:#ffffff;fill-opacity:1;stroke:#000000;stroke-width:0.99999994000000003;stroke-opacity:1"
       d="m 260.65595,182.86941 c 0,0 0.5674,-55.60151 -14.75141,-69.78557 -15.31878,-14.184048 -15.31878,-14.184048 -15.31878,-14.184048 0,0 -90.04529,-58.870408 -113.31406,-58.870408 -23.268789,0 -38.513849,8.826085 -39.316222,16.047431 -0.802371,7.221343 -0.802371,41.723322 11.233203,48.142295 12.035579,6.41898 76.225309,59.37551 84.249039,60.98026 8.02369,1.60474 60.98022,15.24505 67.39919,18.45454 6.41897,3.20949 20.05928,4.01185 20.05928,4.01185 l -0.24024,-4.79635 z"
       id="path4351" />
    <path
       style="fill:#eeeeec;fill-opacity:1;stroke:#000000;stroke-width:0.99999994;stroke-opacity:1"
       d="M 103.48716,77.166912 C 217.12837,121.84901 282.27433,201.89543 273.93661,206.63307 l -2.61735,15.00106 C 244.18751,156.80115 178.1922,114.28063 103.48716,77.166912 z"
       id="path4347"
       sodipodi:nodetypes="cccc" />
    <path
       style="fill:#ffffff;fill-opacity:1;stroke:none"
       d="m 98.580688,313.17849 -0.415251,4.73386 6.477923,-6.22877 0.74745,-2.74066 -6.810122,4.23557"
       id="path4431"
       inkscape:path-effect="#path-effect4433"
       inkscape:original-d="m 98.580688,313.17849 -0.415251,4.73386 6.477923,-6.22877 0.74745,-2.74066 -6.810122,4.23557 z" />
    <path
       style="fill:#ffffff;fill-opacity:1;stroke:none"
       d="m 98.658705,321.05318 0.990396,3.8854 3.656849,-3.96158 0,-2.89501 -4.647245,2.97119"
       id="path4435"
       inkscape:path-effect="#path-effect4437"
       inkscape:original-d="m 98.658705,321.05318 0.990396,3.8854 3.656849,-3.96158 0,-2.89501 -4.647245,2.97119 z" />
    <g
       id="g4566"
       transform="matrix(0.85986311,0,0,0.85986311,74.465158,63.968177)">
      <rect
         style="fill:#c17d11;fill-opacity:1;stroke:#000000;stroke-width:1.16297579;stroke-miterlimit:4;stroke-opacity:1;stroke-dasharray:none"
         id="rect3565"
         width="254.44148"
         height="18.093618"
         x="404.8447"
         y="260.12021"
         rx="0"
         ry="11.99689" />
      <rect
         ry="11.99689"
         rx="0"
         y="280.12021"
         x="404.8447"
         height="18.093618"
         width="254.44148"
         id="rect3567"
         style="fill:#c17d11;fill-opacity:1;stroke:#000000;stroke-width:1.16297579;stroke-miterlimit:4;stroke-opacity:1;stroke-dasharray:none" />
      <rect
         style="fill:#c17d11;fill-opacity:1;stroke:#000000;stroke-width:1.16297579;stroke-miterlimit:4;stroke-opacity:1;stroke-dasharray:none"
         id="rect3569"
         width="254.44148"
         height="18.093618"
         x="404.8447"
         y="300.12021"
         rx="0"
         ry="11.99689" />
      <rect
         ry="11.99689"
         rx="0"
         y="323.57562"
         x="403.46252"
         height="4.2719445"
         width="254.44148"
         id="rect3571"
         style="fill:#c17d11;fill-opacity:1;stroke:#000000;stroke-width:1.16297579;stroke-miterlimit:4;stroke-opacity:1;stroke-dasharray:none" />
      <rect
         ry="0"
         rx="0"
         y="271.19733"
         x="436.50851"
         height="96.185638"
         width="13.570212"
         id="rect3561"
         style="fill:#000000;fill-opacity:1;stroke:#000000;stroke-width:1.16297579;stroke-miterlimit:4;stroke-opacity:1;stroke-dasharray:none" />
      <rect
         style="fill:#000000;fill-opacity:1;stroke:#000000;stroke-width:1.16297579;stroke-miterlimit:4;stroke-opacity:1;stroke-dasharray:none"
         id="rect4547"
         width="13.570212"
         height="96.185638"
         x="596.50854"
         y="271.19733"
         rx="0"
         ry="0" />
    </g>
    <path
       id="path4574"
       d="m 573.55019,120.11957 c 0,0 0.11678,11.44581 -3.03664,14.36564 -3.15345,2.91986 -3.15345,2.91986 -3.15345,2.91986 0,0 -18.53619,12.11873 -23.32617,12.11873 -4.78999,0 -7.92824,-1.81689 -8.0934,-3.30343 -0.16517,-1.48656 -0.16517,-8.58893 2.31239,-9.91032 2.47758,-1.32137 15.6913,-12.22267 17.34302,-12.55304 1.65171,-0.33033 12.55303,-3.13824 13.87441,-3.79895 1.32138,-0.66067 4.12928,-0.82584 4.12928,-0.82584 l -0.0494,0.98735 z"
       style="fill:#ffffff;fill-opacity:1;stroke:#000000;stroke-width:0.99999994;stroke-opacity:1" />
    <path
       sodipodi:nodetypes="cccc"
       id="path4577"
       d="m 541.1963,141.87888 c 23.39351,-9.198 36.8041,-25.6759 35.08777,-26.65116 l -0.53879,-3.08803 c -5.58521,13.34612 -19.17061,22.09915 -34.54898,29.73919 z"
       style="fill:#eeeeec;fill-opacity:1;stroke:#000000;stroke-width:0.99999994;stroke-opacity:1" />
    <rect
       style="fill:#c17d11;fill-opacity:1;stroke:#000000;stroke-width:1;stroke-miterlimit:4;stroke-opacity:1;stroke-dasharray:none"
       id="rect4649"
       width="218.78485"
       height="15.558035"
       x="762.57617"
       y="287.63596"
       rx="0"
       ry="10.315683" />
    <rect
       ry="10.315683"
       rx="0"
       y="304.83322"
       x="762.57617"
       height="15.558035"
       width="218.78485"
       id="rect4651"
       style="fill:#c17d11;fill-opacity:1;stroke:#000000;stroke-width:1;stroke-miterlimit:4;stroke-opacity:1;stroke-dasharray:none" />
    <rect
       style="fill:#c17d11;fill-opacity:1;stroke:#000000;stroke-width:1;stroke-miterlimit:4;stroke-opacity:1;stroke-dasharray:none"
       id="rect4653"
       width="218.78485"
       height="15.558035"
       x="762.57617"
       y="322.03049"
       rx="0"
       ry="10.315683" />
    <rect
       ry="10.315683"
       rx="0"
       y="342.19891"
       x="761.3877"
       height="3.6732874"
       width="218.78485"
       id="rect4655"
       style="fill:#c17d11;fill-opacity:1;stroke:#000000;stroke-width:1;stroke-miterlimit:4;stroke-opacity:1;stroke-dasharray:none" />
    <g
       id="g4498"
       transform="matrix(-0.4651787,0.8852168,-0.8852168,-0.4651787,2015.3803,650.83853)">
      <g
         transform="matrix(0.6557502,-0.05498409,0.05498409,0.6557502,-932.21721,283.43809)"
         inkscape:transform-center-y="-6.1622439"
         inkscape:transform-center-x="-6.6507783"
         id="g6188">
        <rect
           rx="4.1980953"
           ry="4.1980953"
           y="-435.39514"
           x="2084.4009"
           height="31.785524"
           width="5.9731178"
           id="rect7560"
           style="fill:#cccccc;fill-opacity:1;fill-rule:nonzero;stroke:#000000;stroke-width:1;stroke-linecap:butt;stroke-linejoin:round;stroke-miterlimit:4;stroke-opacity:1;stroke-dasharray:none"
           transform="matrix(0.6198235,0.7847413,-0.7847413,0.6198235,0,0)" />
        <path
           id="path7576"
           d="m 1618.8049,1383.8827 13.0267,-10.8737 -0.7427,-0.2194 -12.1886,10.0342 -0.095,1.0589 z"
           style="fill:#ffffff;fill-opacity:1;fill-rule:nonzero;stroke:none" />
      </g>
      <g
         inkscape:transform-center-y="8.6773905"
         inkscape:transform-center-x="6.5510517"
         transform="matrix(0.00456249,-0.6580355,0.6580355,0.00456249,-719.42452,2159.3041)"
         id="g6180">
        <rect
           style="fill:#cccccc;fill-opacity:1;fill-rule:nonzero;stroke:#000000;stroke-width:0.99999994;stroke-linecap:butt;stroke-linejoin:round;stroke-miterlimit:4;stroke-opacity:1;stroke-dasharray:none"
           id="rect7556"
           width="5.9731174"
           height="31.785521"
           x="-187.26065"
           y="2086.7573"
           ry="4.1980953"
           rx="4.1980953"
           transform="matrix(0.584065,-0.8117069,0.8117069,0.584065,0,0)" />
        <path
           style="fill:#ffffff;fill-opacity:1;fill-rule:nonzero;stroke:none"
           d="m 1587.8529,1372.1075 17.6564,12.7047 0.035,-0.9921 -16.3468,-11.932 -1.3451,0.2194 z"
           id="path7574" />
      </g>
      <g
         transform="matrix(0.5648622,0.337583,-0.337583,0.5648622,-241.38586,-223.42352)"
         id="g6184">
        <path
           transform="matrix(0.4492809,-0.6243902,0.6243902,0.4492809,1435.5154,1471.7425)"
           d="m 231.77896,121.57761 c 0,4.3483 -3.525,7.8733 -7.87331,7.8733 -4.3483,0 -7.8733,-3.525 -7.8733,-7.8733 0,-4.34831 3.525,-7.87331 7.8733,-7.87331 4.34831,0 7.87331,3.525 7.87331,7.87331 z"
           sodipodi:ry="7.873302"
           sodipodi:rx="7.873302"
           sodipodi:cy="121.57761"
           sodipodi:cx="223.90565"
           id="path7562"
           style="fill:#cccccc;fill-opacity:1;fill-rule:nonzero;stroke:#000000;stroke-width:1.29999959;stroke-linecap:butt;stroke-linejoin:round;stroke-miterlimit:4;stroke-opacity:1;stroke-dasharray:none"
           sodipodi:type="arc" />
        <path
           sodipodi:type="arc"
           style="fill:#ffffff;fill-opacity:1;fill-rule:nonzero;stroke:none"
           id="path7570"
           sodipodi:cx="223.90565"
           sodipodi:cy="121.57761"
           sodipodi:rx="7.873302"
           sodipodi:ry="7.873302"
           d="m 231.77896,121.57761 c 0,4.3483 -3.525,7.8733 -7.87331,7.8733 -4.3483,0 -7.8733,-3.525 -7.8733,-7.8733 0,-4.34831 3.525,-7.87331 7.8733,-7.87331 4.34831,0 7.87331,3.525 7.87331,7.87331 z"
           transform="matrix(0.100465,-0.1396217,0.1396217,0.100465,1570.2308,1407.7417)" />
      </g>
      <g
         transform="matrix(0.6557502,-0.05498409,0.05498409,0.6557502,-932.21721,283.43809)"
         inkscape:transform-center-y="-19.98967"
         inkscape:transform-center-x="-17.066912"
         id="g6171">
        <path
           style="fill:#cccccc;fill-opacity:1;fill-rule:nonzero;stroke:#000000;stroke-width:0.99999994;stroke-linecap:butt;stroke-linejoin:round;stroke-miterlimit:4;stroke-opacity:1;stroke-dasharray:none"
           d="m 1625.4971,1352.8929 0.5416,6.395 7.0293,4.1959 3.4203,-1.82 -6.9328,-3.7101 -0.2013,-5.0501 -3.8571,-0.011 z m 9.2208,-7.2783 4.5526,7.3487 -1.1071,6.9924 2.5946,0.8562 1.1937,-8.4761 -2.7863,-10.2992 -4.4475,3.578 z m 8.3995,17.5787 1.1011,1.9815 6.2365,-4.1637 5.2605,1.4069 0.3081,-4.6837 -6.2947,0.7327 -6.6115,4.7263 z m 0.1646,5.8859 0.1823,1.6473 4.2144,0.5056 2.3307,3.3716 2.5594,-1.9043 -3.725,-3.3343 -5.5618,-0.2859 z"
           id="path7564" />
        <path
           sodipodi:type="arc"
           style="fill:#cccccc;fill-opacity:1;fill-rule:nonzero;stroke:#000000;stroke-width:1.04655123;stroke-linecap:butt;stroke-linejoin:round;stroke-miterlimit:4;stroke-opacity:1;stroke-dasharray:none"
           id="path7566"
           sodipodi:cx="223.90565"
           sodipodi:cy="121.57761"
           sodipodi:rx="7.873302"
           sodipodi:ry="7.873302"
           d="m 231.77896,121.57761 c 0,4.3483 -3.525,7.8733 -7.87331,7.8733 -4.3483,0 -7.8733,-3.525 -7.8733,-7.8733 0,-4.34831 3.525,-7.87331 7.8733,-7.87331 4.34831,0 7.87331,3.525 7.87331,7.87331 z"
           transform="matrix(0.5580852,-0.7756015,0.7756015,0.5580852,1418.3319,1472.7115)" />
        <path
           transform="matrix(0.2150335,-0.2988437,0.2988437,0.2150335,1556.3475,1410.0025)"
           d="m 231.77896,121.57761 c 0,4.3483 -3.525,7.8733 -7.87331,7.8733 -4.3483,0 -7.8733,-3.525 -7.8733,-7.8733 0,-4.34831 3.525,-7.87331 7.8733,-7.87331 4.34831,0 7.87331,3.525 7.87331,7.87331 z"
           sodipodi:ry="7.873302"
           sodipodi:rx="7.873302"
           sodipodi:cy="121.57761"
           sodipodi:cx="223.90565"
           id="path7572"
           style="fill:#ffffff;fill-opacity:1;fill-rule:nonzero;stroke:none"
           sodipodi:type="arc" />
      </g>
    </g>
    <path
       style="fill:#ffe5b9;fill-opacity:1;fill-rule:evenodd;stroke:#000000;stroke-width:1.25;stroke-linecap:butt;stroke-linejoin:miter;stroke-miterlimit:4;stroke-opacity:1;stroke-dasharray:none;display:inline"
       d="m 922.58364,271.61873 -1.41985,16.0916 -8.99236,4.2596 11.83206,15.145 11.83205,-16.0916 -9.93893,-4.2595 1.41985,-13.2519 -4.73282,-1.8932 z"
       id="path2549" />
    <path
       sodipodi:type="arc"
       style="fill:#ffe5b9;fill-opacity:1;stroke:#000000;stroke-width:1.25;stroke-miterlimit:4;stroke-opacity:1;display:inline"
       id="path2554"
       sodipodi:cx="54.664104"
       sodipodi:cy="525.42224"
       sodipodi:rx="6.8625937"
       sodipodi:ry="6.8625937"
       d="m 61.526698,525.42224 a 6.8625937,6.8625937 0 1 1 -13.725187,0 6.8625937,6.8625937 0 1 1 13.725187,0 z"
       transform="matrix(1.031733,0,0,0.716766,834.0017,-132.90646)" />
    <path
       sodipodi:type="arc"
       style="fill:#ffe5b9;fill-opacity:1;stroke:#000000;stroke-width:1.25;stroke-miterlimit:4;stroke-opacity:1;display:inline"
       id="path2555"
       sodipodi:cx="129.67935"
       sodipodi:cy="524.94897"
       sodipodi:rx="6.6259522"
       sodipodi:ry="5.4427466"
       d="m 136.3053,524.94897 a 6.6259522,5.4427466 0 1 1 -13.2519,0 6.6259522,5.4427466 0 1 1 13.2519,0 z"
       transform="translate(835.97297,-282.43706)" />
    <path
       style="fill:#ffe5b9;fill-opacity:1;fill-rule:evenodd;stroke:#000000;stroke-width:1.25;stroke-linecap:butt;stroke-linejoin:miter;stroke-miterlimit:4;stroke-opacity:1;stroke-dasharray:none;display:inline"
       d="m 904.12563,309.95463 -6.15267,16.5649 c -9.93893,2.3664 -3.78626,11.8321 -3.78626,11.8321 8.51908,3.3129 11.35878,-0.9466 11.35878,-0.9466 l 5.2061,-27.4504 -6.62595,0 z"
       id="path2587" />
    <path
       sodipodi:type="arc"
       style="fill:#ffe5b9;fill-opacity:1;stroke:#000000;stroke-width:1.83430135;stroke-miterlimit:4;stroke-opacity:1;stroke-dasharray:none;display:inline"
       id="path1280"
       sodipodi:cx="99.152641"
       sodipodi:cy="518.55963"
       sodipodi:rx="51.824413"
       sodipodi:ry="51.587772"
       d="m 150.97705,518.55963 a 51.824413,51.587772 0 1 1 -103.648822,0 51.824413,51.587772 0 1 1 103.648822,0 z"
       transform="matrix(0.669126,0,0,0.694018,861.83696,-119.38836)" />
    <path
       sodipodi:type="arc"
       style="fill:#ffffff;fill-opacity:1;stroke:#000000;stroke-width:1.25;stroke-miterlimit:4;stroke-opacity:1;display:inline"
       id="path2552"
       sodipodi:cx="79.984711"
       sodipodi:cy="504.59781"
       sodipodi:rx="17.038162"
       sodipodi:ry="17.274805"
       d="m 97.022873,504.59781 a 17.038162,17.274805 0 1 1 -34.076325,0 17.038162,17.274805 0 1 1 34.076325,0 z"
       transform="translate(832.66,-266.81876)" />
    <path
       sodipodi:type="arc"
       style="fill:#ffffff;fill-opacity:1;stroke:#000000;stroke-width:1.25;stroke-miterlimit:4;stroke-opacity:1;display:inline"
       id="path2553"
       sodipodi:cx="109.56486"
       sodipodi:cy="504.59781"
       sodipodi:rx="12.541981"
       sodipodi:ry="13.488545"
       d="m 122.10684,504.59781 a 12.541981,13.488545 0 1 1 -25.083963,0 12.541981,13.488545 0 1 1 25.083963,0 z"
       transform="translate(832.66,-265.87216)" />
    <path
       style="fill:#000000;fill-opacity:1;fill-rule:nonzero;stroke:none;display:inline"
       id="path2566"
       d="m 918.33846,210.71959 c -10.22427,1.29323 14.24478,-11.92298 17.61665,-12.48612 -3.12723,4.25973 -6.8204,8.11439 -10.72758,11.67232 10.1314,-6.34016 23.14245,-12.91201 6.14165,1.4311 2.03639,1.0797 15.11898,-8.41698 21.55879,-6.21998 l -0.48779,1.26061 c -5.21281,-0.60661 -23.3439,9.75911 -21.94156,3.92534 16.16042,-13.57866 5.90999,-3.86282 -4.66402,0.81063 -4.57073,-1.38875 6.57739,-11.87293 10.01078,-11.53278 -2.83934,0.84693 -24.52162,13.45539 -18.00893,9.88386 l 0.50201,1.25502 z" />
    <g
       style="display:inline"
       id="g2683"
       transform="matrix(-1,0,0,1,1006.5663,-287.67946)">
      <path
         style="fill:#ffffff;fill-opacity:1;fill-rule:evenodd;stroke:#000000;stroke-width:1.25;stroke-linecap:butt;stroke-linejoin:miter;stroke-miterlimit:4;stroke-opacity:1"
         d="m 61.053417,633.09397 c -27.450373,1.41984 -28.396938,13.72518 -28.396938,13.72518 0,9.93893 53.007618,4.73283 53.007618,4.73283 l 0,-16.0916 -24.61068,-2.36641 z"
         id="path2684"
         sodipodi:nodetypes="ccccc" />
      <path
         style="fill:#000000;fill-opacity:1;fill-rule:nonzero;stroke:none"
         id="path2685"
         d="m 47.091589,633.83797 c 9.893039,0.78197 14.224398,7.86493 10.715804,16.84466 l -1.257949,-0.49461 c 3.200515,-8.08553 -0.483228,-14.23165 -9.457855,-14.99836 l 0,-1.35169 z" />
      <path
         style="fill:#000000;fill-opacity:1;fill-rule:nonzero;stroke:none"
         id="path2686"
         d="m 55.137389,632.8914 c 11.544289,10e-4 15.765416,9.1204 11.336914,19.12686 l -1.23562,-0.54802 c 4.057666,-9.12836 0.507066,-17.22984 -10.101294,-17.22714 l 0,-1.3517 z" />
    </g>
    <g
       style="display:inline"
       id="g2679"
       transform="translate(837.2154,-287.67946)">
      <path
         style="fill:#ffffff;fill-opacity:1;fill-rule:evenodd;stroke:#000000;stroke-width:1.25;stroke-linecap:butt;stroke-linejoin:miter;stroke-miterlimit:4;stroke-opacity:1"
         d="m 61.053417,633.09397 c -27.450373,1.41984 -28.396938,13.72518 -28.396938,13.72518 0,9.93893 53.007618,4.73283 53.007618,4.73283 l 0,-16.0916 -24.61068,-2.36641 z"
         id="path2574"
         sodipodi:nodetypes="ccccc" />
      <path
         style="fill:#000000;fill-opacity:1;fill-rule:nonzero;stroke:none"
         id="path2577"
         d="m 47.091589,633.83797 c 9.893039,0.78197 14.224398,7.86493 10.715804,16.84466 l -1.257949,-0.49461 c 3.200515,-8.08553 -0.483228,-14.23165 -9.457855,-14.99836 l 0,-1.35169 z" />
      <path
         style="fill:#000000;fill-opacity:1;fill-rule:nonzero;stroke:none"
         id="path2578"
         d="m 55.137389,632.8914 c 11.544289,10e-4 15.765416,9.1204 11.336914,19.12686 l -1.23562,-0.54802 c 4.057666,-9.12836 0.507066,-17.22984 -10.101294,-17.22714 l 0,-1.3517 z" />
    </g>
    <path
       style="fill:#ff9f00;fill-opacity:1;fill-rule:evenodd;stroke:#000000;stroke-width:1.25;stroke-linecap:butt;stroke-linejoin:miter;stroke-miterlimit:4;stroke-opacity:1;stroke-dasharray:none;display:inline"
       d="m 914.3984,288.35503 8.41489,5.2236 13.22339,-4.8971 12.42197,17.6297 -11.62055,4.2443 -3.20568,-13.7121 10.41843,31.6683 c -12.82268,5.5501 -41.273,0.3265 -41.273,0.3265 l 9.61701,-31.3418 -4.00709,14.365 -11.62055,-4.2442 17.63118,-19.2622 z"
       id="path2551"
       sodipodi:nodetypes="cccccccccccc" />
    <g
       style="display:inline"
       id="g2604"
       transform="matrix(1.580161,0,0,1.580161,787.95867,-628.26335)">
      <path
         style="fill:#0f00ff;fill-opacity:1;fill-rule:nonzero;stroke:none"
         id="path2601"
         d="m 79.568221,591.68176 c 3.270418,-5.30277 7.03816,8.14058 7.328073,11.12372 l -2.242542,0.21499 c -0.295658,-3.13174 -1.328754,-5.92497 -2.878956,-8.66548 -0.552855,-0.97736 -2.623264,-1.88937 -1.922132,-2.76646 1.775563,-2.22117 1.946714,-1.0902 1.968381,0.0932 l -2.252824,0 z" />
      <path
         style="fill:#0f00ff;fill-opacity:1;fill-rule:nonzero;stroke:none"
         id="path2602"
         d="m 78.527773,594.98355 c 2.008421,-1.83927 12.204236,-10.70096 13.206035,-5.40678 l -2.074777,-0.87779 c 1.010699,1.98701 -0.0315,0.7243 1.200209,1.14462 0.307451,0.10492 -11.818523,5.92023 -10.6008,6.58218 l -1.730667,-1.44223 z" />
      <path
         style="fill:#0f00ff;fill-opacity:1;fill-rule:nonzero;stroke:none"
         id="path2603"
         d="m 80.15824,596.56287 c 3.164958,-1.82212 7.71847,-3.53287 11.404416,-2.23908 l -0.896834,2.06662 c -3.122678,-0.32624 -6.472418,0.18755 -9.198155,2.00566 l -1.309427,-1.8332 z" />
    </g>
    <path
       sodipodi:type="arc"
       style="fill:#ffffff;fill-opacity:1;stroke:#000000;stroke-width:4.21774817;stroke-miterlimit:4;stroke-opacity:1;display:inline"
       id="path2609"
       sodipodi:cx="74.964096"
       sodipodi:cy="525.00787"
       sodipodi:rx="4.0159335"
       sodipodi:ry="4.0159335"
       d="m 78.98003,525.00787 a 4.0159335,4.0159335 0 1 1 -8.031867,0 4.0159335,4.0159335 0 1 1 8.031867,0 z"
       transform="matrix(0.8891,0,0,0.8891,842.87045,-226.12856)" />
    <path
       sodipodi:type="arc"
       style="fill:#ffffff;fill-opacity:1;stroke:#000000;stroke-width:4.21774817;stroke-miterlimit:4;stroke-opacity:1;display:inline"
       id="path2608"
       sodipodi:cx="74.964096"
       sodipodi:cy="525.00787"
       sodipodi:rx="4.0159335"
       sodipodi:ry="4.0159335"
       d="m 78.98003,525.00787 a 4.0159335,4.0159335 0 1 1 -8.031867,0 4.0159335,4.0159335 0 1 1 8.031867,0 z"
       transform="matrix(0.8891,0,0,0.8891,873.99393,-225.79396)" />
    <path
       sodipodi:nodetypes="cssccc"
       id="path4757"
       d="m 902.15927,330.09321 c 0.71148,-6.54563 5.26497,-8.53778 8.53779,-8.53778 3.27281,0 8.68008,-0.71148 10.24534,2.56133 1.56526,3.27282 1.84985,24.04809 1.84985,24.04809 -8.23641,5.47541 -16.61845,4.86982 -23.6212,-0.28459 l 2.98822,-17.78705 z"
       style="fill:#ffffff;fill-opacity:1;stroke:#000000;stroke-opacity:1" />
    <path
       style="fill:#ffffff;fill-opacity:1;stroke:#000000;stroke-opacity:1"
       d="m 943.14064,330.09321 c -0.71148,-6.54563 -5.26497,-8.53778 -8.53779,-8.53778 -3.27281,0 -8.68008,-0.71148 -10.24534,2.56133 -1.56526,3.27282 -1.84985,24.04809 -1.84985,24.04809 8.23641,5.47541 16.61845,4.86982 23.6212,-0.28459 l -2.98822,-17.78705 z"
       id="path4755"
       sodipodi:nodetypes="cssccc" />
    <path
       style="fill:none;fill-opacity:1;stroke:#000000;stroke-opacity:1"
       d="m 914.266,260.81024 -1.30759,4.96884 c 0.0309,0.37095 20.50395,-2.65605 25.62874,-4.70732 5.54712,-2.22031 1.83062,9.15312 1.83062,9.15312 -6.99485,5.35061 -12.56609,2.5721 -18.56775,0.52303"
       id="path4759"
       sodipodi:nodetypes="ccscc" />
    <path
       style="fill:#cc0000;stroke:#000000;stroke-opacity:1"
       d="M 939.90625 260.78125 C 939.53835 260.77102 939.11379 260.85435 938.59375 261.0625 C 935.81469 262.17486 928.56727 263.57373 922.46875 264.5625 C 923.5561 267.3607 923.58379 269.79932 923.4375 271.3125 C 928.85053 273.23423 934.03183 275.09477 940.40625 270.21875 C 940.40625 270.21875 943.46262 260.8801 939.90625 260.78125 z "
       id="path4761" />
    <path
       style="fill:#ffffff;fill-opacity:1;stroke:#000000;stroke-opacity:1"
       d="m 939.90625,260.78125 c -0.3679,-0.0102 -0.79246,0.0731 -1.3125,0.28125 -3.57782,1.43207 -14.54547,3.32378 -20.90625,4.21875 l 0.84375,1.09375 c 3.73661,-0.4552 15.63377,-1.88655 18.09375,-2.03125 1.37112,-0.0807 3.30895,-0.64228 4.96875,-1.1875 -0.096,-1.33193 -0.54006,-2.34311 -1.6875,-2.375 z m -22.21875,4.5 -1.8125,0.25 c 0.53845,-0.0687 1.1632,-0.15864 1.8125,-0.25 z"
       id="path4766"
       sodipodi:nodetypes="csccsccccc" />
    <path
       style="fill:none;fill-opacity:1;stroke:#000000;stroke-opacity:1"
       d="m 895.06013,258.23555 c 2.13211,7.24918 6.39634,8.52844 6.39634,8.52844"
       id="path4779" />
    <path
       id="path4781"
       d="m 893.06013,260.23555 c 2.13211,7.24918 6.39634,8.52844 6.39634,8.52844"
       style="fill:none;stroke:#000000;stroke-opacity:1" />
    <path
       style="fill:none;stroke:#000000;stroke-opacity:1"
       d="m 953.47997,212.60838 c 11.93982,11.08697 11.08698,17.90973 11.08698,17.90973"
       id="path4783" />
    <path
       id="path4785"
       d="m 957.47997,210.60838 c 11.93982,11.08697 11.08698,17.90973 11.08698,17.90973"
       style="fill:none;stroke:#000000;stroke-opacity:1" />
    <path
       style="fill:none;stroke:#000000;stroke-opacity:1"
       d="m 512.14366,209.93122 c 7.95109,6.54796 10.75736,12.6282 10.75736,12.6282"
       id="path4787" />
    <path
       id="path4789"
       d="m 516.14366,207.93122 c 7.95109,6.54796 10.75736,12.6282 10.75736,12.6282"
       style="fill:none;stroke:#000000;stroke-opacity:1" />
    <path
       style="fill:none;stroke:#000000;stroke-opacity:1"
       d="m 451.80893,258.57318 c 3.74169,8.4188 7.01567,9.82193 7.01567,9.82193"
       id="path4791" />
    <path
       id="path4793"
       d="m 449.80893,260.57318 c 3.74169,8.4188 7.01567,9.82193 7.01567,9.82193"
       style="fill:none;stroke:#000000;stroke-opacity:1" />
    <g
       id="g4811"
       style="opacity:0.43829787">
      <path
         id="path4795"
         d="M 80.1875 189.5625 C 72.766766 189.5625 66.152478 193.04131 61.875 198.4375 C 52.043983 201.19075 44.84375 210.22738 44.84375 220.9375 C 44.84375 233.69687 55.0744 244.06115 67.78125 244.28125 C 71.771081 251.43878 79.411347 256.28125 88.1875 256.28125 C 100.02351 256.28125 109.78338 247.47996 111.3125 236.0625 C 122.731 234.53432 131.53125 224.77425 131.53125 212.9375 C 131.53125 200.04034 121.08466 189.5625 108.1875 189.5625 C 102.93214 189.5625 98.089763 191.32017 94.1875 194.25 C 90.285237 191.32017 85.442864 189.5625 80.1875 189.5625 z "
         style="fill:#ffffff;stroke:#000000;stroke-opacity:1;fill-opacity:1" />
      <path
         id="path4806"
         d="M 131.5 212.25 C 126.6136 221.09239 118.8849 235.38554 108.5625 232.8125 C 103.53224 247.7328 79.672003 251.10212 71.53125 237.40625 C 71.53125 237.40625 65.165028 240.26193 47.28125 231.34375 C 51.048985 238.90254 58.79711 244.12563 67.78125 244.28125 C 71.771081 251.43878 79.411347 256.28125 88.1875 256.28125 C 100.02351 256.28125 109.78338 247.47996 111.3125 236.0625 C 122.731 234.53432 131.53125 224.77425 131.53125 212.9375 C 131.53125 212.70405 131.5068 212.48182 131.5 212.25 z "
         style="fill:#000000;fill-opacity:0.26754385000000003;stroke:none;stroke-opacity:1" />
    </g>
    <g
       id="g4815"
       transform="matrix(-1.1369318,0,0,1.1369318,388.45067,-190.52512)"
       style="opacity:0.5787234">
      <path
         style="fill:#ffffff;fill-opacity:1;stroke:#000000;stroke-width:0.87956016999999986;stroke-opacity:1"
         d="m 80.1875,189.5625 c -7.420734,0 -14.035022,3.47881 -18.3125,8.875 -9.831017,2.75325 -17.03125,11.78988 -17.03125,22.5 0,12.75937 10.23065,23.12365 22.9375,23.34375 3.989831,7.15753 11.630097,12 20.40625,12 11.83601,0 21.59588,-8.80129 23.125,-20.21875 11.4185,-1.52818 20.21875,-11.28825 20.21875,-23.125 0,-12.89716 -10.44659,-23.375 -23.34375,-23.375 -5.25536,0 -10.097737,1.75767 -14,4.6875 -3.902263,-2.92983 -8.744636,-4.6875 -14,-4.6875 z"
         id="path4817" />
      <path
         style="fill:#000000;fill-opacity:0.26754383999999998;stroke:none"
         d="m 131.5,212.25 c -4.8864,8.84239 -12.6151,23.13554 -22.9375,20.5625 -5.03026,14.9203 -28.890497,18.28962 -37.03125,4.59375 0,0 -6.366222,2.85568 -24.25,-6.0625 3.767735,7.55879 11.51586,12.78188 20.5,12.9375 3.989831,7.15753 11.630097,12 20.40625,12 11.83601,0 21.59588,-8.80129 23.125,-20.21875 11.4185,-1.52818 20.21875,-11.28825 20.21875,-23.125 0,-0.23345 -0.0245,-0.45568 -0.0313,-0.6875 z"
         id="path4819" />
    </g>
    <path
       style="fill:#ffffff;fill-opacity:1;stroke:#000000;stroke-width:1.0166378;stroke-opacity:1"
       d="M 943.375 -8.6875 C 875.88121 -8.6875 821.1875 32.618915 821.1875 83.5625 C 821.1875 131.49083 869.62499 170.87997 931.5625 175.375 L 937.3125 193.1875 L 949.1875 175.6875 C 1013.991 173.4045 1065.5938 133.04009 1065.5938 83.5625 C 1065.5938 32.618915 1010.8688 -8.6875 943.375 -8.6875 z "
       id="path4821" />
  </g>
  <g
     inkscape:groupmode="layer"
     id="layer3"
     inkscape:label="globos">
    <text
       xml:space="preserve"
       style="font-size:16px;font-style:italic;font-variant:normal;font-weight:normal;font-stretch:normal;text-align:center;line-height:100%;writing-mode:lr-tb;text-anchor:middle;fill:#000000;fill-opacity:1;stroke:none;font-family:Kid Kosmic;-inkscape-font-specification:Kid Kosmic Italic"
       x="947.58405"
       y="42.408508"
       id="text3537"
       sodipodi:linespacing="100%"><tspan
         sodipodi:role="line"
         x="947.58405"
         y="42.408508"
         id="tspan3541">mi mam deca</tspan><tspan
         sodipodi:role="line"
         x="947.58405"
         y="58.408508"
         id="tspan3545">que la vida</tspan><tspan
         sodipodi:role="line"
         x="947.58405"
         y="74.408508"
         id="tspan3547">es como un</tspan><tspan
         sodipodi:role="line"
         x="947.58405"
         y="90.408508"
         id="tspan3549">acortador</tspan><tspan
         sodipodi:role="line"
         x="947.58405"
         y="106.40851"
         id="tspan3551">de urls, nunca</tspan><tspan
         sodipodi:role="line"
         x="947.58405"
         y="122.40851"
         id="tspan3553">sabes qu es</tspan><tspan
         sodipodi:role="line"
         x="947.58405"
         y="138.40851"
         id="tspan3555">lo que te va</tspan><tspan
         sodipodi:role="line"
         x="947.58405"
         y="154.40851"
         id="tspan3557">a tocar.</tspan></text>
  </g>
  <g
     inkscape:groupmode="layer"
     id="layer4"
     inkscape:label="vinietas">
    <path
       style="fill:#6699cc;fill-opacity:1;fill-rule:nonzero;stroke:#000000;stroke-width:4.48726034;stroke-linecap:round;stroke-linejoin:round;stroke-miterlimit:4;stroke-dashoffset:0;stroke-opacity:1;display:inline"
       d="M -3.1395438,-4.7760952 C -5.4235092,-4.7760952 -7.2644814,-2.9685179 -7.2644814,-0.74658629 L -7.2644814,390.21022 C -7.2644814,390.53373 -7.2131821,390.85414 -7.1394833,391.15464 C -7.2179821,391.46533 -7.2644814,391.79636 -7.2644814,392.13053 L -7.2644814,783.08734 C -7.2644814,785.30927 -5.4235092,787.08538 -3.1395438,787.08537 L 1073.2191,787.08537 C 1075.5032,787.08537 1077.3441,785.30927 1077.3441,783.08734 L 1077.3441,392.13053 C 1077.3441,391.79636 1077.2977,391.46533 1077.2191,391.15464 C 1077.2929,390.85414 1077.3441,390.53373 1077.3441,390.21022 L 1077.3441,-0.74658629 C 1077.3441,-2.9685179 1075.5034,-4.7760952 1073.2191,-4.7760952 L -3.1395438,-4.7760952 z M 32.141222,5.9902489 L 318.91808,5.9902489 C 335.30364,5.9902489 348.48014,17.992323 348.48014,32.874629 L 348.48014,331.31013 C 348.48014,346.19245 335.30374,358.16303 318.91808,358.16303 L 32.141222,358.16303 C 15.75567,358.16303 2.5791696,346.19244 2.5791696,331.31013 L 2.5791696,32.874629 C 2.5791696,17.992323 15.75567,5.9902489 32.141222,5.9902489 z M 388.72953,5.9902489 L 675.50648,5.9902489 C 691.89203,5.9902489 705.06853,17.992323 705.06853,32.874629 L 705.06853,331.31013 C 705.06853,346.19245 691.89203,358.16303 675.50648,358.16303 L 388.72953,358.16303 C 372.34397,358.16303 359.16747,346.19244 359.16747,331.31013 L 359.16747,32.874629 C 359.16747,17.992323 372.34397,5.9902489 388.72953,5.9902489 z M 745.66162,5.9902489 L 1032.4386,5.9902489 C 1048.8241,5.9902489 1062.0006,17.992323 1062.0006,32.874629 L 1062.0006,331.31013 C 1062.0006,346.19245 1048.8241,358.16303 1032.4386,358.16303 L 745.66162,358.16303 C 729.27607,358.16303 716.09957,346.19244 716.09957,331.31013 L 716.09957,32.874629 C 716.09957,17.992323 729.27607,5.9902489 745.66162,5.9902489 z M 32.141222,398.86737 L 318.91808,398.86737 C 335.30364,398.86737 348.48014,410.86944 348.48014,425.75175 L 348.48014,724.18725 C 348.48014,739.06957 335.30374,751.04015 318.91808,751.04015 L 32.141222,751.04015 C 15.75567,751.04015 2.5791696,739.06956 2.5791696,724.18725 L 2.5791696,425.75175 C 2.5791696,410.86944 15.75567,398.86737 32.141222,398.86737 z M 388.72953,398.86737 L 675.50648,398.86737 C 691.89203,398.86737 705.06853,410.86944 705.06853,425.75175 L 705.06853,724.18725 C 705.06853,739.06957 691.89203,751.04015 675.50648,751.04015 L 388.72953,751.04015 C 372.34397,751.04015 359.16747,739.06956 359.16747,724.18725 L 359.16747,425.75175 C 359.16747,410.86944 372.34397,398.86737 388.72953,398.86737 z M 745.66162,398.86737 L 1032.4386,398.86737 C 1048.8241,398.86737 1062.0006,410.86944 1062.0006,425.75175 L 1062.0006,724.18725 C 1062.0006,739.06957 1048.8241,751.04015 1032.4386,751.04015 L 745.66162,751.04015 C 729.27607,751.04015 716.09957,739.06956 716.09957,724.18725 L 716.09957,425.75175 C 716.09957,410.86944 729.27607,398.86737 745.66162,398.86737 z"
       id="rect16715" />
    <text
       xml:space="preserve"
       style="font-size:18px;font-style:normal;font-variant:normal;font-weight:normal;font-stretch:normal;text-align:center;line-height:125%;writing-mode:lr-tb;text-anchor:middle;fill:#ffffff;fill-opacity:1;stroke:#ffffff;stroke-width:1pt;stroke-linecap:butt;stroke-linejoin:miter;stroke-opacity:1;display:inline;font-family:Sans"
       x="161.90993"
       y="384.6756"
       id="text2618"
       sodipodi:linespacing="125%"><tspan
         sodipodi:role="line"
         id="tspan2620"
         x="161.90993"
         y="384.6756">tira de linuxhispano.net</tspan></text>
    <text
       xml:space="preserve"
       style="font-size:18px;font-style:normal;font-variant:normal;font-weight:normal;font-stretch:normal;text-align:center;line-height:125%;writing-mode:lr-tb;text-anchor:middle;fill:#ffffff;fill-opacity:1;stroke:#ffffff;stroke-width:1pt;stroke-linecap:butt;stroke-linejoin:miter;stroke-opacity:1;display:inline;font-family:Sans"
       x="1014.7665"
       y="383.6756"
       id="text2622"
       sodipodi:linespacing="125%"><tspan
         sodipodi:role="line"
         id="tspan2624"
         x="1014.7665"
         y="383.6756">by danigm</tspan></text>
    <text
       sodipodi:linespacing="125%"
       id="text4260"
       y="384.6756"
       x="541.91003"
       style="font-size:18px;font-style:normal;font-variant:normal;font-weight:normal;font-stretch:normal;text-align:center;line-height:125%;writing-mode:lr-tb;text-anchor:middle;fill:#ffffff;fill-opacity:1;stroke:none;stroke-width:1pt;stroke-linecap:butt;stroke-linejoin:miter;stroke-opacity:1;display:inline;font-family:Sans"
       xml:space="preserve"><tspan
         y="384.6756"
         x="541.91003"
         id="tspan4262"
         sodipodi:role="line">imagenes en danigm.net</tspan></text>
  </g>
</svg>
