<?xml version="1.0" encoding="UTF-8" standalone="no"?>
<!-- Created with Inkscape (http://www.inkscape.org/) -->
<svg
   xmlns:dc="http://purl.org/dc/elements/1.1/"
   xmlns:cc="http://creativecommons.org/ns#"
   xmlns:rdf="http://www.w3.org/1999/02/22-rdf-syntax-ns#"
   xmlns:svg="http://www.w3.org/2000/svg"
   xmlns="http://www.w3.org/2000/svg"
   xmlns:xlink="http://www.w3.org/1999/xlink"
   xmlns:sodipodi="http://sodipodi.sourceforge.net/DTD/sodipodi-0.dtd"
   xmlns:inkscape="http://www.inkscape.org/namespaces/inkscape"
   width="1063"
   height="390"
   id="svg2"
   sodipodi:version="0.32"
   inkscape:version="0.46"
   version="1.0"
   sodipodi:docname="contrasena.svg"
   inkscape:output_extension="org.inkscape.output.svg.inkscape"
   sodipodi:docbase="/home/danigm/Documentos/linuxHispano/tira"
   inkscape:export-filename="/home/danigm/tira/contrasena.png"
   inkscape:export-xdpi="57.57"
   inkscape:export-ydpi="57.57">
  <defs
     id="defs4">
    <linearGradient
       inkscape:collect="always"
       id="linearGradient4354">
      <stop
         style="stop-color:#ffe5b9;stop-opacity:1;"
         offset="0"
         id="stop4356" />
      <stop
         style="stop-color:#ef2929;stop-opacity:1"
         offset="1"
         id="stop4358" />
    </linearGradient>
    <inkscape:perspective
       sodipodi:type="inkscape:persp3d"
       id="perspective3033"
       inkscape:vp_x="-50 : 600 : 1"
       inkscape:vp_y="0 : 1000 : 0"
       inkscape:vp_z="700 : 600 : 1"
       inkscape:persp3d-origin="300 : 400 : 1" />
    <inkscape:perspective
       sodipodi:type="inkscape:persp3d"
       id="perspective3032"
       inkscape:vp_x="-50 : 600 : 1"
       inkscape:vp_y="0 : 1000 : 0"
       inkscape:vp_z="700 : 600 : 1"
       inkscape:persp3d-origin="300 : 400 : 1" />
    <inkscape:perspective
       sodipodi:type="inkscape:persp3d"
       id="perspective3031"
       inkscape:vp_x="-50 : 600 : 1"
       inkscape:vp_y="0 : 1000 : 0"
       inkscape:vp_z="700 : 600 : 1"
       inkscape:persp3d-origin="300 : 400 : 1" />
    <inkscape:perspective
       sodipodi:type="inkscape:persp3d"
       id="perspective3030"
       inkscape:vp_x="-50 : 600 : 1"
       inkscape:vp_y="0 : 1000 : 0"
       inkscape:vp_z="700 : 600 : 1"
       inkscape:persp3d-origin="300 : 400 : 1" />
    <inkscape:perspective
       sodipodi:type="inkscape:persp3d"
       id="perspective3029"
       inkscape:vp_x="-50 : 600 : 1"
       inkscape:vp_y="0 : 1000 : 0"
       inkscape:vp_z="700 : 600 : 1"
       inkscape:persp3d-origin="300 : 400 : 1" />
    <inkscape:perspective
       sodipodi:type="inkscape:persp3d"
       id="perspective2997"
       inkscape:vp_x="-50 : 600 : 1"
       inkscape:vp_y="0 : 1000 : 0"
       inkscape:vp_z="700 : 600 : 1"
       inkscape:persp3d-origin="300 : 400 : 1" />
    <inkscape:perspective
       sodipodi:type="inkscape:persp3d"
       id="perspective2996"
       inkscape:vp_x="-50 : 600 : 1"
       inkscape:vp_y="0 : 1000 : 0"
       inkscape:vp_z="700 : 600 : 1"
       inkscape:persp3d-origin="300 : 400 : 1" />
    <linearGradient
       inkscape:collect="always"
       xlink:href="#linearGradient4354"
       id="linearGradient4360"
       x1="127.88399"
       y1="552.48254"
       x2="132.94048"
       y2="490.08099"
       gradientUnits="userSpaceOnUse" />
  </defs>
  <sodipodi:namedview
     id="base"
     pagecolor="#ffffff"
     bordercolor="#666666"
     borderopacity="1.0"
     inkscape:pageopacity="1"
     inkscape:pageshadow="2"
     inkscape:zoom="0.55032926"
     inkscape:cx="531.5"
     inkscape:cy="195"
     inkscape:document-units="px"
     inkscape:current-layer="layer2"
     width="1062.99px"
     borderlayer="true"
     inkscape:window-width="1024"
     inkscape:window-height="575"
     inkscape:window-x="0"
     inkscape:window-y="25"
     showgrid="false"
     inkscape:snap-global="false" />
  <metadata
     id="metadata7">
    <rdf:RDF>
      <cc:Work
         rdf:about="">
        <dc:format>image/svg+xml</dc:format>
        <dc:type
           rdf:resource="http://purl.org/dc/dcmitype/StillImage" />
        <dc:title />
        <dc:date />
        <dc:creator>
          <cc:Agent>
            <dc:title />
          </cc:Agent>
        </dc:creator>
        <dc:rights>
          <cc:Agent>
            <dc:title />
          </cc:Agent>
        </dc:rights>
        <dc:publisher>
          <cc:Agent>
            <dc:title />
          </cc:Agent>
        </dc:publisher>
        <dc:identifier />
        <dc:source />
        <dc:relation />
        <dc:language />
        <dc:subject>
          <rdf:Bag />
        </dc:subject>
        <dc:coverage />
        <dc:description />
        <dc:contributor>
          <cc:Agent>
            <dc:title />
          </cc:Agent>
        </dc:contributor>
        <cc:license
           rdf:resource="" />
      </cc:Work>
      <cc:Work
         rdf:about="">
        <dc:format>image/svg+xml</dc:format>
        <dc:type
           rdf:resource="http://purl.org/dc/dcmitype/StillImage" />
      </cc:Work>
    </rdf:RDF>
  </metadata>
  <g
     inkscape:label="fondo"
     inkscape:groupmode="layer"
     id="layer1"
     sodipodi:insensitive="true">
    <rect
       style="opacity:1;fill:#a40000;fill-opacity:1;fill-rule:nonzero;stroke:#000000;stroke-width:4;stroke-linecap:round;stroke-linejoin:round;stroke-miterlimit:4;stroke-dasharray:none;stroke-dashoffset:0;stroke-opacity:1;display:inline"
       id="rect4585"
       width="1150.5601"
       height="856.79999"
       x="-39.900002"
       y="-27.019989"
       rx="15.548299"
       ry="10.315682" />
    <path
       sodipodi:type="arc"
       style="opacity:1;fill:#ffffff;fill-opacity:0.58035715;fill-rule:nonzero;stroke:none;stroke-width:3.80038881;stroke-linecap:round;stroke-linejoin:round;stroke-miterlimit:4;stroke-dasharray:none;stroke-dashoffset:0;stroke-opacity:1;display:inline"
       id="path4587"
       sodipodi:cx="581.40002"
       sodipodi:cy="374.85001"
       sodipodi:rx="535.5"
       sodipodi:ry="273.87"
       d="M 1116.9,374.85001 A 535.5,273.87 0 1 1 45.900024,374.85001 A 535.5,273.87 0 1 1 1116.9,374.85001 z"
       transform="matrix(0.9981395,0,0,1.1098713,-48.81833,-38.035264)" />
    <path
       sodipodi:type="arc"
       style="fill:#a40000;fill-opacity:1;stroke:#000000;stroke-width:1;stroke-linecap:round;stroke-linejoin:miter;stroke-miterlimit:4;stroke-dasharray:none;stroke-opacity:1;display:inline"
       id="path2819"
       sodipodi:cx="1411.7009"
       sodipodi:cy="253.46965"
       sodipodi:rx="53.76445"
       sodipodi:ry="53.76445"
       d="M 1465.4654,253.46965 A 53.76445,53.76445 0 1 1 1357.9365,253.46965 A 53.76445,53.76445 0 1 1 1465.4654,253.46965 z"
       transform="translate(-211.98567,488.70551)" />
    <path
       d="M 1465.4654,253.46965 A 53.76445,53.76445 0 1 1 1357.9365,253.46965 A 53.76445,53.76445 0 1 1 1465.4654,253.46965 z"
       sodipodi:ry="53.76445"
       sodipodi:rx="53.76445"
       sodipodi:cy="253.46965"
       sodipodi:cx="1411.7009"
       id="path2821"
       style="fill:#f57900;fill-opacity:1;stroke:#000000;stroke-width:1;stroke-linecap:round;stroke-linejoin:miter;stroke-miterlimit:4;stroke-dasharray:none;stroke-opacity:1;display:inline"
       sodipodi:type="arc"
       transform="translate(-91.985679,488.70551)" />
    <path
       transform="translate(30.014325,488.70551)"
       sodipodi:type="arc"
       style="fill:#4e9a06;fill-opacity:1;stroke:#000000;stroke-width:1;stroke-linecap:round;stroke-linejoin:miter;stroke-miterlimit:4;stroke-dasharray:none;stroke-opacity:1;display:inline"
       id="path2823"
       sodipodi:cx="1411.7009"
       sodipodi:cy="253.46965"
       sodipodi:rx="53.76445"
       sodipodi:ry="53.76445"
       d="M 1465.4654,253.46965 A 53.76445,53.76445 0 1 1 1357.9365,253.46965 A 53.76445,53.76445 0 1 1 1465.4654,253.46965 z" />
    <path
       d="M 1465.4654,253.46965 A 53.76445,53.76445 0 1 1 1357.9365,253.46965 A 53.76445,53.76445 0 1 1 1465.4654,253.46965 z"
       sodipodi:ry="53.76445"
       sodipodi:rx="53.76445"
       sodipodi:cy="253.46965"
       sodipodi:cx="1411.7009"
       id="path2825"
       style="fill:#fce94f;fill-opacity:1;stroke:#000000;stroke-width:1;stroke-linecap:round;stroke-linejoin:miter;stroke-miterlimit:4;stroke-dasharray:none;stroke-opacity:1;display:inline"
       sodipodi:type="arc"
       transform="translate(150.01433,488.70551)" />
    <path
       transform="translate(270.01433,488.70551)"
       sodipodi:type="arc"
       style="fill:#5c3566;fill-opacity:1;stroke:#000000;stroke-width:1;stroke-linecap:round;stroke-linejoin:miter;stroke-miterlimit:4;stroke-dasharray:none;stroke-opacity:1;display:inline"
       id="path2827"
       sodipodi:cx="1411.7009"
       sodipodi:cy="253.46965"
       sodipodi:rx="53.76445"
       sodipodi:ry="53.76445"
       d="M 1465.4654,253.46965 A 53.76445,53.76445 0 1 1 1357.9365,253.46965 A 53.76445,53.76445 0 1 1 1465.4654,253.46965 z" />
  </g>
  <g
     inkscape:groupmode="layer"
     id="layer2"
     inkscape:label="dibujos">
    <path
       style="opacity:1;fill:#ffeec4;fill-opacity:1;stroke:#000000;stroke-width:1;stroke-miterlimit:4;stroke-dasharray:none;stroke-opacity:1"
       d="M 460.38381,306.44992 L 466.67867,307.02219 L 456.95024,278.69528 L 462.67285,276.40623 L 472.40128,310.74188 L 459.23928,309.88349 L 460.38381,306.44992 z"
       id="path4109" />
    <rect
       style="opacity:1;fill:#000000;fill-opacity:1;stroke:#000000;stroke-width:1;stroke-miterlimit:4;stroke-dasharray:none;stroke-opacity:1"
       id="rect4111"
       width="25.751736"
       height="14.59265"
       x="518.46747"
       y="-14.611533"
       rx="3.9813387"
       ry="3.9813392"
       transform="matrix(0.8555555,0.5177111,-0.5177111,0.8555555,0,0)" />
    <path
       style="fill:#ffeec4;fill-opacity:1;fill-rule:evenodd;stroke:#000000;stroke-width:1.25;stroke-linecap:butt;stroke-linejoin:miter;stroke-miterlimit:4;stroke-opacity:1;display:inline"
       d="M 422.29448,325.4677 L 417.12448,347.0243 C 406.09088,350.5682 412.67908,358.2052 412.67908,358.2052 C 418.88158,362.4549 424.56038,358.7584 424.56038,358.7584 C 427.97178,351.8889 428.31618,324.782 428.31618,324.782 L 422.29448,325.4677 z"
       id="path3870" />
    <g
       style="display:inline"
       id="g3872"
       transform="matrix(-1,0,0,1,1050.011,-258.40979)">
      <path
         style="fill:#0600ff;fill-opacity:1;fill-rule:evenodd;stroke:#000000;stroke-width:1.84647799;stroke-linecap:butt;stroke-linejoin:miter;stroke-miterlimit:4;stroke-opacity:1"
         d="M 62.946547,630.72755 L 59.428131,658.65274 C 69.367059,663.38557 83.297686,660.07106 83.297686,660.07106 C 93.709897,665.75045 109.31338,659.3619 109.31338,659.3619 L 106.48852,626.46801 L 62.946547,630.72755 z"
         id="path3873"
         transform="matrix(0.859835,0,0,0.532987,537.0548,277.0172)"
         sodipodi:nodetypes="cccccc" />
      <path
         style="fill:none;fill-opacity:0.75;fill-rule:evenodd;stroke:#000000;stroke-width:1.25;stroke-linecap:butt;stroke-linejoin:miter;stroke-miterlimit:4;stroke-opacity:1"
         d="M 605.49242,620.80796 L 604.35606,623.64887 L 611.36364,624.02766"
         id="path3874" />
      <path
         style="fill:none;fill-opacity:0.75;fill-rule:evenodd;stroke:#000000;stroke-width:1.25;stroke-linecap:butt;stroke-linejoin:miter;stroke-miterlimit:4;stroke-opacity:1"
         d="M 608.71212,621.18675 L 608.71212,629.14129"
         id="path3875" />
    </g>
    <g
       id="g4570"
       transform="matrix(-0.4651787,0.8852168,-0.8852168,-0.4651787,1179.2441,654.20145)">
      <g
         transform="matrix(0.6557502,-5.4984094e-2,5.4984094e-2,0.6557502,-932.21721,283.43809)"
         inkscape:transform-center-y="-6.1622439"
         inkscape:transform-center-x="-6.6507783"
         id="g4572">
        <rect
           rx="4.1980953"
           ry="4.1980953"
           y="-435.39514"
           x="2084.4009"
           height="31.785524"
           width="5.9731178"
           id="rect4574"
           style="fill:#cccccc;fill-opacity:1;fill-rule:nonzero;stroke:#000000;stroke-width:1;stroke-linecap:butt;stroke-linejoin:round;stroke-miterlimit:4;stroke-dasharray:none;stroke-opacity:1"
           transform="matrix(0.6198235,0.7847413,-0.7847413,0.6198235,0,0)" />
        <path
           id="path4576"
           d="M 1618.8049,1383.8827 L 1631.8316,1373.009 L 1631.0889,1372.7896 L 1618.9003,1382.8238 L 1618.8049,1383.8827 z"
           style="fill:#ffffff;fill-opacity:1;fill-rule:nonzero;stroke:none;stroke-width:1;stroke-linecap:butt;stroke-linejoin:round;stroke-miterlimit:4;stroke-dasharray:none;stroke-opacity:1" />
      </g>
      <g
         inkscape:transform-center-y="8.6773905"
         inkscape:transform-center-x="6.5510517"
         transform="matrix(4.5624886e-3,-0.6580355,0.6580355,4.5624886e-3,-719.42452,2159.3041)"
         id="g4578">
        <rect
           style="fill:#cccccc;fill-opacity:1;fill-rule:nonzero;stroke:#000000;stroke-width:0.99999994;stroke-linecap:butt;stroke-linejoin:round;stroke-miterlimit:4;stroke-dasharray:none;stroke-opacity:1"
           id="rect4580"
           width="5.9731174"
           height="31.785521"
           x="-187.26065"
           y="2086.7573"
           ry="4.1980953"
           rx="4.1980953"
           transform="matrix(0.584065,-0.8117069,0.8117069,0.584065,0,0)" />
        <path
           style="fill:#ffffff;fill-opacity:1;fill-rule:nonzero;stroke:none;stroke-width:1;stroke-linecap:butt;stroke-linejoin:round;stroke-miterlimit:4;stroke-dasharray:none;stroke-opacity:1"
           d="M 1587.8529,1372.1075 L 1605.5093,1384.8122 L 1605.5448,1383.8201 L 1589.198,1371.8881 L 1587.8529,1372.1075 z"
           id="path4582" />
      </g>
      <g
         transform="matrix(0.5648622,0.337583,-0.337583,0.5648622,-241.38586,-223.42352)"
         id="g4584">
        <path
           transform="matrix(0.4492809,-0.6243902,0.6243902,0.4492809,1435.5154,1471.7425)"
           d="M 231.77896,121.57761 A 7.873302,7.873302 0 1 1 216.03235,121.57761 A 7.873302,7.873302 0 1 1 231.77896,121.57761 z"
           sodipodi:ry="7.873302"
           sodipodi:rx="7.873302"
           sodipodi:cy="121.57761"
           sodipodi:cx="223.90565"
           id="path4586"
           style="fill:#cccccc;fill-opacity:1;fill-rule:nonzero;stroke:#000000;stroke-width:1.29999959;stroke-linecap:butt;stroke-linejoin:round;stroke-miterlimit:4;stroke-dasharray:none;stroke-opacity:1"
           sodipodi:type="arc" />
        <path
           sodipodi:type="arc"
           style="fill:#ffffff;fill-opacity:1;fill-rule:nonzero;stroke:none;stroke-width:0.80720383;stroke-linecap:butt;stroke-linejoin:round;stroke-miterlimit:4;stroke-dasharray:none;stroke-opacity:1"
           id="path4588"
           sodipodi:cx="223.90565"
           sodipodi:cy="121.57761"
           sodipodi:rx="7.873302"
           sodipodi:ry="7.873302"
           d="M 231.77896,121.57761 A 7.873302,7.873302 0 1 1 216.03235,121.57761 A 7.873302,7.873302 0 1 1 231.77896,121.57761 z"
           transform="matrix(0.100465,-0.1396217,0.1396217,0.100465,1570.2308,1407.7417)" />
      </g>
      <g
         transform="matrix(0.6557502,-5.4984094e-2,5.4984094e-2,0.6557502,-932.21721,283.43809)"
         inkscape:transform-center-y="-19.98967"
         inkscape:transform-center-x="-17.066912"
         id="g4590">
        <path
           style="fill:#cccccc;fill-opacity:1;fill-rule:nonzero;stroke:#000000;stroke-width:0.99999994;stroke-linecap:butt;stroke-linejoin:round;stroke-miterlimit:4;stroke-dasharray:none;stroke-opacity:1"
           d="M 1625.4971,1352.8929 L 1626.0387,1359.2879 L 1633.068,1363.4838 L 1636.4883,1361.6638 L 1629.5555,1357.9537 L 1629.3542,1352.9036 L 1625.4971,1352.8929 z M 1634.7179,1345.6146 L 1639.2705,1352.9633 L 1638.1634,1359.9557 L 1640.758,1360.8119 L 1641.9517,1352.3358 L 1639.1654,1342.0366 L 1634.7179,1345.6146 z M 1643.1174,1363.1933 L 1644.2185,1365.1748 L 1650.455,1361.0111 L 1655.7155,1362.418 L 1656.0236,1357.7343 L 1649.7289,1358.467 L 1643.1174,1363.1933 z M 1643.282,1369.0792 L 1643.4643,1370.7265 L 1647.6787,1371.2321 L 1650.0094,1374.6037 L 1652.5688,1372.6994 L 1648.8438,1369.3651 L 1643.282,1369.0792 z"
           id="path4592" />
        <path
           sodipodi:type="arc"
           style="fill:#cccccc;fill-opacity:1;fill-rule:nonzero;stroke:#000000;stroke-width:1.04655123;stroke-linecap:butt;stroke-linejoin:round;stroke-miterlimit:4;stroke-dasharray:none;stroke-opacity:1"
           id="path4594"
           sodipodi:cx="223.90565"
           sodipodi:cy="121.57761"
           sodipodi:rx="7.873302"
           sodipodi:ry="7.873302"
           d="M 231.77896,121.57761 A 7.873302,7.873302 0 1 1 216.03235,121.57761 A 7.873302,7.873302 0 1 1 231.77896,121.57761 z"
           transform="matrix(0.5580852,-0.7756015,0.7756015,0.5580852,1418.3319,1472.7115)" />
        <path
           transform="matrix(0.2150335,-0.2988437,0.2988437,0.2150335,1556.3475,1410.0025)"
           d="M 231.77896,121.57761 A 7.873302,7.873302 0 1 1 216.03235,121.57761 A 7.873302,7.873302 0 1 1 231.77896,121.57761 z"
           sodipodi:ry="7.873302"
           sodipodi:rx="7.873302"
           sodipodi:cy="121.57761"
           sodipodi:cx="223.90565"
           id="path4596"
           style="fill:#ffffff;fill-opacity:1;fill-rule:nonzero;stroke:none;stroke-width:0.80720383;stroke-linecap:butt;stroke-linejoin:round;stroke-miterlimit:4;stroke-dasharray:none;stroke-opacity:1"
           sodipodi:type="arc" />
      </g>
    </g>
    <path
       style="fill:#ffeec4;fill-opacity:1;fill-rule:evenodd;stroke:#000000;stroke-width:1.25;stroke-linecap:butt;stroke-linejoin:miter;stroke-miterlimit:4;stroke-opacity:1;display:inline"
       d="M 438.86978,286.5552 L 440.28958,302.6468 L 449.28198,306.9063 L 437.44988,322.0513 L 425.61788,305.9597 L 435.55678,301.7002 L 434.13698,288.4483 L 438.86978,286.5552 z"
       id="path3876" />
    <path
       style="fill:#ffe5b9;fill-opacity:1;fill-rule:evenodd;stroke:#000000;stroke-width:1.25;stroke-linecap:butt;stroke-linejoin:miter;stroke-miterlimit:4;stroke-opacity:1;display:inline"
       d="M 84.462901,274.98165 L 83.043051,291.07325 L 74.050691,295.33285 L 85.882751,310.47785 L 97.714801,294.38625 L 87.775881,290.12675 L 89.195721,276.87485 L 84.462901,274.98165 z"
       id="path2749" />
    <path
       sodipodi:type="arc"
       style="fill:#ffe5b9;fill-opacity:1;stroke:#000000;stroke-width:1.25;stroke-miterlimit:4;stroke-opacity:1;display:inline"
       id="path2750"
       sodipodi:cx="54.664104"
       sodipodi:cy="525.42224"
       sodipodi:rx="6.8625937"
       sodipodi:ry="6.8625937"
       d="M 61.526698,525.42224 A 6.8625937,6.8625937 0 1 1 47.801511,525.42224 A 6.8625937,6.8625937 0 1 1 61.526698,525.42224 z"
       transform="matrix(1.031733,0,0,0.716766,-0.3692586,-127.40084)" />
    <path
       sodipodi:type="arc"
       style="fill:#ffe5b9;fill-opacity:1;stroke:#000000;stroke-width:1.25;stroke-miterlimit:4;stroke-opacity:1;display:inline"
       id="path2751"
       sodipodi:cx="129.67935"
       sodipodi:cy="524.94897"
       sodipodi:rx="6.6259522"
       sodipodi:ry="5.4427466"
       d="M 136.3053,524.94897 A 6.6259522,5.4427466 0 1 1 123.0534,524.94897 A 6.6259522,5.4427466 0 1 1 136.3053,524.94897 z"
       transform="translate(1.6020414,-276.93134)" />
    <path
       style="fill:#ffe5b9;fill-opacity:1;fill-rule:evenodd;stroke:#000000;stroke-width:1.25;stroke-linecap:butt;stroke-linejoin:miter;stroke-miterlimit:4;stroke-opacity:1;display:inline"
       d="M 66.004891,313.31755 L 59.852221,329.88245 C 49.913291,332.24885 56.065961,341.71455 56.065961,341.71455 C 64.585041,345.02745 67.424741,340.76795 67.424741,340.76795 L 72.630841,313.31755 L 66.004891,313.31755 z"
       id="path2753" />
    <path
       sodipodi:type="arc"
       style="fill:#ffe5b9;fill-opacity:1;stroke:#000000;stroke-width:1.83430135;stroke-miterlimit:4;stroke-opacity:1;display:inline"
       id="path2754"
       sodipodi:cx="99.152641"
       sodipodi:cy="518.55963"
       sodipodi:rx="51.824413"
       sodipodi:ry="51.587772"
       d="M 150.97705,518.55963 A 51.824413,51.587772 0 1 1 47.328228,518.55963 A 51.824413,51.587772 0 1 1 150.97705,518.55963 z"
       transform="matrix(0.669126,0,0,0.694018,27.466041,-113.88274)" />
    <path
       sodipodi:type="arc"
       style="fill:#ffffff;fill-opacity:1;stroke:#000000;stroke-width:1.25;stroke-miterlimit:4;stroke-opacity:1;display:inline"
       id="path2755"
       sodipodi:cx="79.984711"
       sodipodi:cy="504.59781"
       sodipodi:rx="17.038162"
       sodipodi:ry="17.274805"
       d="M 97.022873,504.59781 A 17.038162,17.274805 0 1 1 62.946548,504.59781 A 17.038162,17.274805 0 1 1 97.022873,504.59781 z"
       transform="translate(6.3243414,-261.58094)" />
    <path
       sodipodi:type="arc"
       style="fill:#ffffff;fill-opacity:1;stroke:#000000;stroke-width:1.25;stroke-miterlimit:4;stroke-opacity:1;display:inline"
       id="path2756"
       sodipodi:cx="109.56486"
       sodipodi:cy="504.59781"
       sodipodi:rx="12.541981"
       sodipodi:ry="13.488545"
       d="M 122.10684,504.59781 A 12.541981,13.488545 0 1 1 97.022877,504.59781 A 12.541981,13.488545 0 1 1 122.10684,504.59781 z"
       transform="translate(6.3243414,-260.63434)" />
    <path
       style="fill:#000000;fill-opacity:1;fill-rule:nonzero;stroke:none;stroke-width:1pt;stroke-linecap:butt;stroke-linejoin:miter;stroke-opacity:1;display:inline"
       id="path2757"
       d="M 83.967531,216.22526 C 73.743261,217.51849 98.212321,204.30228 101.58419,203.73914 C 98.456951,207.99887 94.763781,211.85353 90.856601,215.41146 C 100.988,209.0713 113.99905,202.49945 96.998251,216.84256 C 99.034641,217.92226 112.11723,208.42558 118.55704,210.62258 L 118.06925,211.88319 C 112.85644,211.27658 94.725351,221.64235 96.127691,215.80853 C 112.28811,202.22987 102.03768,211.94571 91.463671,216.61916 C 86.892941,215.23041 98.041061,204.74623 101.47446,205.08638 C 98.635111,205.93331 76.952831,218.54177 83.465521,214.97024 L 83.967531,216.22526 z" />
    <path
       style="fill:#ffffff;fill-opacity:1;fill-rule:evenodd;stroke:#000000;stroke-width:1.25;stroke-linecap:butt;stroke-linejoin:miter;stroke-miterlimit:4;stroke-opacity:1;display:inline"
       d="M 415.18298,375.4417 C 387.73258,376.8615 386.78608,389.1669 386.78608,389.1669 C 386.78608,399.1058 439.79368,393.8997 439.79368,393.8997 L 439.79368,377.8081 L 415.18298,375.4417 z"
       id="path3877"
       sodipodi:nodetypes="ccccc" />
    <g
       style="display:inline"
       id="g2758"
       transform="matrix(-1,0,0,1,168.44554,-278.31654)">
      <path
         style="fill:#ffffff;fill-opacity:1;fill-rule:evenodd;stroke:#000000;stroke-width:1.25;stroke-linecap:butt;stroke-linejoin:miter;stroke-miterlimit:4;stroke-opacity:1"
         d="M 61.053417,633.09397 C 33.603044,634.51381 32.656479,646.81915 32.656479,646.81915 C 32.656479,656.75808 85.664097,651.55198 85.664097,651.55198 L 85.664097,635.46038 L 61.053417,633.09397 z"
         id="path2759"
         sodipodi:nodetypes="ccccc" />
      <path
         style="fill:#000000;fill-opacity:1;fill-rule:nonzero;stroke:none;stroke-width:1pt;stroke-linecap:butt;stroke-linejoin:miter;stroke-opacity:1"
         id="path2760"
         d="M 47.091589,633.83797 C 56.984628,634.61994 61.315987,641.7029 57.807393,650.68263 L 56.549444,650.18802 C 59.749959,642.10249 56.066216,635.95637 47.091589,635.18966 L 47.091589,633.83797 z" />
      <path
         style="fill:#000000;fill-opacity:1;fill-rule:nonzero;stroke:none;stroke-width:1pt;stroke-linecap:butt;stroke-linejoin:miter;stroke-opacity:1"
         id="path2761"
         d="M 55.137389,632.8914 C 66.681678,632.89279 70.902805,642.0118 66.474303,652.01826 L 65.238683,651.47024 C 69.296349,642.34188 65.745749,634.2404 55.137389,634.2431 L 55.137389,632.8914 z" />
    </g>
    <path
       style="fill:#ffffff;fill-opacity:1;fill-rule:evenodd;stroke:#000000;stroke-width:1.25;stroke-linecap:butt;stroke-linejoin:miter;stroke-miterlimit:4;stroke-opacity:1;display:inline"
       d="M 464.42706,375.4417 C 491.87744,376.8615 492.824,389.1669 492.824,389.1669 C 492.824,399.1058 439.81638,393.8997 439.81638,393.8997 L 439.81638,377.8081 L 464.42706,375.4417 z"
       id="path3878"
       sodipodi:nodetypes="ccccc" />
    <g
       style="display:inline"
       id="g2762"
       transform="translate(-2.9053586,-278.31654)">
      <path
         style="fill:#ffffff;fill-opacity:1;fill-rule:evenodd;stroke:#000000;stroke-width:1.25;stroke-linecap:butt;stroke-linejoin:miter;stroke-miterlimit:4;stroke-opacity:1"
         d="M 61.053417,633.09397 C 33.603044,634.51381 32.656479,646.81915 32.656479,646.81915 C 32.656479,656.75808 85.664097,651.55198 85.664097,651.55198 L 85.664097,635.46038 L 61.053417,633.09397 z"
         id="path2763"
         sodipodi:nodetypes="ccccc" />
      <path
         style="fill:#000000;fill-opacity:1;fill-rule:nonzero;stroke:none;stroke-width:1pt;stroke-linecap:butt;stroke-linejoin:miter;stroke-opacity:1"
         id="path2764"
         d="M 47.091589,633.83797 C 56.984628,634.61994 61.315987,641.7029 57.807393,650.68263 L 56.549444,650.18802 C 59.749959,642.10249 56.066216,635.95637 47.091589,635.18966 L 47.091589,633.83797 z" />
      <path
         style="fill:#000000;fill-opacity:1;fill-rule:nonzero;stroke:none;stroke-width:1pt;stroke-linecap:butt;stroke-linejoin:miter;stroke-opacity:1"
         id="path2765"
         d="M 55.137389,632.8914 C 66.681678,632.89279 70.902805,642.0118 66.474303,652.01826 L 65.238683,651.47024 C 69.296349,642.34188 65.745749,634.2404 55.137389,634.2431 L 55.137389,632.8914 z" />
    </g>
    <g
       style="display:inline"
       id="g2766"
       transform="translate(-2.1477586,-279.07414)">
      <path
         style="fill:#ffffff;fill-opacity:1;fill-rule:evenodd;stroke:#000000;stroke-width:1.41316688;stroke-linecap:butt;stroke-linejoin:miter;stroke-miterlimit:4;stroke-opacity:1"
         d="M 62.946547,630.72755 L 53.480901,657.23136 C 63.419829,661.96419 83.297686,660.07106 83.297686,660.07106 C 93.709897,665.75045 115.48088,658.65121 115.48088,658.65121 L 106.48852,626.46801 L 62.946547,630.72755 z"
         id="path2767"
         transform="matrix(0.859835,0,0,0.909951,14.03942,35.05921)" />
      <path
         style="fill:none;fill-opacity:0.75;fill-rule:evenodd;stroke:#000000;stroke-width:1.41316688;stroke-linecap:butt;stroke-linejoin:miter;stroke-miterlimit:4;stroke-opacity:1"
         d="M 79.038145,636.40694 L 76.198451,646.34587 L 92.29005,644.92602"
         id="path2768"
         transform="matrix(0.859835,0,0,0.909951,14.03942,35.05921)" />
      <path
         style="fill:none;fill-opacity:0.75;fill-rule:evenodd;stroke:#000000;stroke-width:1.41316688;stroke-linecap:butt;stroke-linejoin:miter;stroke-miterlimit:4;stroke-opacity:1"
         d="M 85.664097,635.93366 L 83.297686,659.59778"
         id="path2769"
         transform="matrix(0.859835,0,0,0.909951,14.03942,35.05921)" />
    </g>
    <path
       style="fill:#ff9f00;fill-opacity:1;fill-rule:evenodd;stroke:#000000;stroke-width:1.25;stroke-linecap:butt;stroke-linejoin:miter;stroke-miterlimit:4;stroke-opacity:1;display:inline"
       d="M 76.277671,291.71795 L 84.692551,296.94155 L 97.915941,292.04445 L 110.33791,309.67415 L 98.717361,313.91845 L 95.511691,300.20635 L 105.93011,331.87465 C 93.107431,337.42475 64.657111,332.20115 64.657111,332.20115 L 74.274121,300.85935 L 70.267031,315.22435 L 58.646481,310.98015 L 76.277671,291.71795 z"
       id="path2770"
       sodipodi:nodetypes="cccccccccccc" />
    <g
       style="display:inline"
       id="g2771"
       transform="matrix(1.580161,0,0,1.580161,-50.162059,-624.90043)">
      <path
         style="fill:#0f00ff;fill-opacity:1;fill-rule:nonzero;stroke:none;stroke-width:1pt;stroke-linecap:butt;stroke-linejoin:miter;stroke-opacity:1"
         id="path2772"
         d="M 79.568221,591.68176 C 82.838639,586.37899 86.606381,599.82234 86.896294,602.80548 L 84.653752,603.02047 C 84.358094,599.88873 83.324998,597.0955 81.774796,594.35499 C 81.221941,593.37763 79.151532,592.46562 79.852664,591.58853 C 81.628227,589.36736 81.799378,590.49833 81.821045,591.68176 L 79.568221,591.68176 z" />
      <path
         style="fill:#0f00ff;fill-opacity:1;fill-rule:nonzero;stroke:none;stroke-width:1pt;stroke-linecap:butt;stroke-linejoin:miter;stroke-opacity:1"
         id="path2773"
         d="M 78.527773,594.98355 C 80.536194,593.14428 90.732009,584.28259 91.733808,589.57677 L 89.659031,588.69898 C 90.66973,590.68599 89.627535,589.42328 90.85924,589.8436 C 91.166691,589.94852 79.040717,595.76383 80.25844,596.42578 L 78.527773,594.98355 z" />
      <path
         style="fill:#0f00ff;fill-opacity:1;fill-rule:nonzero;stroke:none;stroke-width:1pt;stroke-linecap:butt;stroke-linejoin:miter;stroke-opacity:1"
         id="path2774"
         d="M 80.15824,596.56287 C 83.323198,594.74075 87.87671,593.03 91.562656,594.32379 L 90.665822,596.39041 C 87.543144,596.06417 84.193404,596.57796 81.467667,598.39607 L 80.15824,596.56287 z" />
    </g>
    <path
       sodipodi:type="arc"
       style="fill:#ffffff;fill-opacity:1;stroke:#000000;stroke-width:4.21774817;stroke-miterlimit:4;stroke-opacity:1;display:inline"
       id="path2775"
       sodipodi:cx="74.964096"
       sodipodi:cy="525.00787"
       sodipodi:rx="4.0159335"
       sodipodi:ry="4.0159335"
       d="M 78.98003,525.00787 A 4.0159335,4.0159335 0 1 1 70.948163,525.00787 A 4.0159335,4.0159335 0 1 1 78.98003,525.00787 z"
       transform="matrix(0.8891,0,0,0.8891,18.534841,-218.89074)" />
    <path
       sodipodi:type="arc"
       style="fill:#ffffff;fill-opacity:1;stroke:#000000;stroke-width:4.21774817;stroke-miterlimit:4;stroke-opacity:1;display:inline"
       id="path2776"
       sodipodi:cx="74.964096"
       sodipodi:cy="525.00787"
       sodipodi:rx="4.0159335"
       sodipodi:ry="4.0159335"
       d="M 78.98003,525.00787 A 4.0159335,4.0159335 0 1 1 70.948163,525.00787 A 4.0159335,4.0159335 0 1 1 78.98003,525.00787 z"
       transform="matrix(0.8891,0,0,0.8891,49.658341,-218.55614)" />
    <path
       sodipodi:type="arc"
       style="fill:#ffeec4;fill-opacity:1;stroke:#000000;stroke-width:1.25;stroke-miterlimit:4;stroke-opacity:1;display:inline"
       id="path3882"
       sodipodi:cx="614.01514"
       sodipodi:cy="503.9519"
       sodipodi:rx="29.545454"
       sodipodi:ry="40.530304"
       d="M 643.56059,503.9519 A 29.545454,40.530304 0 1 1 584.46968,503.9519 A 29.545454,40.530304 0 1 1 643.56059,503.9519 z"
       transform="matrix(-1,0,0,1.138058,1055.6928,-327.79489)" />
    <path
       style="fill:#ff8c00;fill-opacity:1;stroke:#000000;stroke-width:1.25;stroke-miterlimit:4;stroke-opacity:1;display:inline"
       d="M 440.15178,377.4363 C 432.27808,378.794 426.29638,378.8465 418.56008,377.4363 C 417.70708,377.4254 417.23448,375.2296 417.32508,373.4266 C 417.30098,371.8107 417.31308,369.8889 417.97048,368.9365 C 418.50238,368.2387 419.13238,368.6204 419.71458,368.5218 C 427.86788,370.3048 431.30828,370.037 440.15178,368.5218 C 441.00478,368.5327 441.47738,370.7286 441.38678,372.5317 C 441.41088,374.1475 441.39878,376.0692 440.74138,377.0216 C 440.56668,377.2877 440.36008,377.4381 440.15178,377.4363 z"
       id="path3885"
       sodipodi:nodetypes="ccccccccc" />
    <path
       style="fill:#ff8c00;fill-opacity:1;stroke:#000000;stroke-width:1.25;stroke-miterlimit:4;stroke-opacity:1;display:inline"
       d="M 462.87904,378.1939 C 455.00538,379.5515 449.02368,379.6041 441.28738,378.1939 C 440.43438,378.183 439.96168,375.9871 440.05228,374.1842 C 440.02828,372.5683 440.04038,370.6465 440.69768,369.694 C 441.22958,368.9963 441.85968,369.378 442.44178,369.2794 C 450.59518,371.0624 454.03558,370.7945 462.87904,369.2794 C 463.73205,369.2903 464.20468,371.4862 464.11408,373.2893 C 464.1381,374.9051 464.126,376.8268 463.46867,377.7792 C 463.29394,378.0453 463.08733,378.1957 462.87904,378.1939 z"
       id="path3886"
       sodipodi:nodetypes="ccccccccc" />
    <path
       style="fill:#ffff00;fill-opacity:1;fill-rule:evenodd;stroke:#000000;stroke-width:1.25;stroke-linecap:butt;stroke-linejoin:miter;stroke-miterlimit:4;stroke-opacity:1;display:inline"
       d="M 469.43426,246.531 L 474.67897,258.1798 L 466.42911,248.6165 L 469.05003,261.1886 L 455.74418,246.8786 L 437.29148,265.0366 L 440.41808,251.0495 L 429.51378,269.8008 L 429.06538,256.0944 L 422.95728,272.244 L 420.09048,260.3074 C 418.08698,264.4782 416.00948,288.9347 416.00948,288.9347 L 414.39728,268.0979 C 413.72948,269.8357 411.00098,293.1055 411.00098,293.1055 L 411.00098,284.0687 C 408.32968,247.9213 411.66878,246.531 411.66878,246.531 L 469.43426,246.531 z"
       id="path1830"
       sodipodi:nodetypes="ccccccccccccccccc" />
    <g
       style="display:inline"
       id="g3912"
       transform="matrix(-1,0,0,1,1390.9201,-257.65219)">
      <path
         sodipodi:type="arc"
         style="fill:#ff0000;fill-opacity:1;stroke:#000000;stroke-width:1.25;stroke-miterlimit:4;stroke-opacity:1"
         id="path3888"
         sodipodi:cx="614.01514"
         sodipodi:cy="503.9519"
         sodipodi:rx="29.545454"
         sodipodi:ry="40.530304"
         d="M 643.56059,503.9519 A 29.545454,40.530304 0 1 1 584.46968,503.9519"
         transform="matrix(1,0,0,-1.138058,335.2273,1077.342)"
         sodipodi:start="0"
         sodipodi:end="3.1415927"
         sodipodi:open="true" />
      <path
         style="fill:#ff8c00;fill-opacity:1;stroke:#000000;stroke-width:1.3600812;stroke-miterlimit:4;stroke-opacity:1"
         d="M 919.18064,496.12998 C 928.29567,493.81769 942.14554,491.30327 979.48026,496.12998 C 981.86252,496.14469 983.18245,499.09947 982.92942,501.52572 C 982.99651,503.70002 982.96271,506.28599 981.12697,507.5676 C 979.6415,508.50647 977.88205,507.99285 976.2562,508.12562 C 936.96586,502.62612 924.75886,505.65643 919.18064,508.1256 C 916.79838,508.11091 915.47846,505.15612 915.73149,502.72987 C 915.6644,500.55558 915.69819,497.96961 917.53394,496.688 C 918.02192,496.32999 918.59891,496.12767 919.18064,496.12998 z"
         id="path3889"
         sodipodi:nodetypes="ccccccccc" />
    </g>
    <g
       style="display:inline"
       id="g3890"
       transform="matrix(-1,0,0,1,1066.2989,-256.51579)">
      <path
         style="fill:#000000;fill-opacity:1;fill-rule:nonzero;stroke:none;stroke-width:1pt;stroke-linecap:butt;stroke-linejoin:miter;stroke-opacity:1"
         id="path3891"
         d="M 602.12989,530.86845 C 607.05654,525.26543 605.33463,534.48194 604.8206,531.75602 C 606.7808,529.40933 607.77878,529.24376 610.36497,530.06557 C 610.34409,530.03664 610.32322,530.00771 610.30234,529.97879 L 610.9787,531.35108 C 610.73663,531.43117 610.49455,531.51126 610.25248,531.59135 C 607.46086,530.95027 608.17406,530.35527 605.72512,532.98992 C 600.34378,536.47657 608.31248,525.02122 603.21171,531.95027 L 602.12989,530.86845 z" />
      <path
         style="fill:#000000;fill-opacity:1;fill-rule:nonzero;stroke:none;stroke-width:1pt;stroke-linecap:butt;stroke-linejoin:miter;stroke-opacity:1"
         id="path3892"
         d="M 614.56728,529.29973 C 616.84044,527.09955 617.67109,532.45919 616.97132,530.18199 C 619.35381,530.19817 619.26628,529.49136 621.54107,529.08811 C 622.16475,529.25003 622.70678,529.57896 623.27381,529.86203 L 622.64628,531.25733 C 622.32993,531.09977 621.70166,530.83661 621.56566,530.61784 C 620.2531,530.9619 619.11415,531.64215 618.06534,531.25147 C 614.73028,534.17007 615.01348,527.41317 616.7378,529.60664 C 616.83242,529.727 615.33276,530.47148 615.41592,530.57271 L 614.56728,529.29973 z" />
    </g>
    <g
       id="g3893"
       style="fill:#000000;fill-opacity:1;stroke:none;stroke-width:0.125;stroke-miterlimit:4;stroke-opacity:1;display:inline"
       transform="matrix(-1,0,0,1,1062.1322,-257.65219)">
      <path
         style="fill-rule:nonzero;stroke-linecap:butt;stroke-linejoin:miter"
         id="path3894"
         d="M 607.2367,545.43155 C 606.08212,547.26231 604.9276,549.09241 603.8229,550.9538 L 602.94589,550.43308 C 604.05211,548.57079 605.20586,546.73835 606.3621,544.90679 L 607.2367,545.43155 z" />
      <path
         style="fill-rule:nonzero;stroke-linecap:butt;stroke-linejoin:miter"
         id="path3895"
         d="M 608.99652,546.06684 C 608.07973,547.98873 607.72734,550.0935 607.40375,552.178 L 606.39593,552.02123 C 606.73704,549.83274 607.11616,547.62601 608.08425,545.61071 L 608.99652,546.06684 z" />
      <path
         style="fill-rule:nonzero;stroke-linecap:butt;stroke-linejoin:miter"
         id="path3896"
         d="M 611.04396,546.76599 C 610.39259,549.6446 610.60183,552.56547 610.674,555.48529 L 609.65436,555.51047 C 609.58009,552.49906 609.3757,549.48611 610.05446,546.51862 L 611.04396,546.76599 z" />
      <path
         style="fill-rule:nonzero;stroke-linecap:butt;stroke-linejoin:miter"
         id="path3897"
         d="M 614.08554,545.87855 C 615.10551,548.04922 615.47765,550.43673 616.00176,552.75734 L 615.00686,552.98199 C 614.50104,550.74148 614.14653,548.43463 613.17327,546.33469 L 614.08554,545.87855 z" />
      <path
         style="fill-rule:nonzero;stroke-linecap:butt;stroke-linejoin:miter"
         id="path3898"
         d="M 617.37922,545.59664 C 619.80173,546.20027 620.68004,548.75811 621.6418,550.81349 L 620.71669,551.243 C 619.90288,549.50244 619.21601,547.43498 617.37922,546.61659 L 617.37922,545.59664 z" />
      <path
         style="fill-rule:nonzero;stroke-linecap:butt;stroke-linejoin:miter"
         id="path3899"
         d="M 620.38768,547.50131 C 619.70796,542.67423 624.01727,548.93674 624.86266,550.60901 L 623.95755,551.07919 C 623.31224,549.77269 619.47675,544.14459 621.33468,547.12251 L 620.38768,547.50131 z" />
    </g>
    <path
       style="fill:#00ff15;fill-opacity:1;fill-rule:evenodd;stroke:#000000;stroke-width:1.25;stroke-linecap:butt;stroke-linejoin:miter;stroke-miterlimit:4;stroke-opacity:1;display:inline"
       d="M 448.19138,302.3851 L 434.47348,309.1522 L 426.55308,302.8317 L 414.13108,326.9493 L 425.75168,332.7554 L 428.95738,313.9972 L 418.53888,357.3197 C 431.36158,364.9123 459.8119,357.7663 459.8119,357.7663 L 450.19488,314.8905 L 460.21072,317.94634 L 463.53349,305.27311 L 448.19138,302.3851 z"
       id="path3901"
       sodipodi:nodetypes="cccccccccccc" />
    <g
       style="display:inline"
       id="g3902"
       transform="matrix(0.640057,0.383722,-0.30692,0.64132,232.45415,-279.46319)">
      <path
         style="fill:#f0ff00;fill-opacity:1;fill-rule:nonzero;stroke:none;stroke-width:1pt;stroke-linecap:butt;stroke-linejoin:miter;stroke-opacity:1"
         id="path3903"
         d="M 599.7744,582.6047 C 608.25644,589.38153 610.09805,600.71833 611.36189,610.87601 L 607.46505,611.61705 C 606.31049,602.53469 604.98578,592.17619 597.57408,585.90517 L 599.7744,582.6047 z" />
      <path
         style="fill:#f0ff00;fill-opacity:1;fill-rule:nonzero;stroke:none;stroke-width:1pt;stroke-linecap:butt;stroke-linejoin:miter;stroke-opacity:1"
         id="path3904"
         d="M 592.0493,592.28293 C 589.72885,581.79988 605.62763,572.63032 614.4743,577.55721 C 622.8142,581.80251 609.05509,601.03138 605.97685,597.13524 C 602.19911,592.35375 610.45975,588.2099 613.69999,587.77116 C 621.58401,587.26803 627.72951,590.536 625.95064,599.0788 C 623.61752,604.69835 617.26992,606.75753 611.81876,608.14488 L 610.86584,604.29438 C 614.93022,603.32293 619.68793,601.90974 622.07512,598.23333 C 622.98895,592.46722 619.82772,591.59168 614.17608,591.70915 C 612.11984,592.01401 610.76048,594.28239 609.46717,594.54375 C 601.51829,596.1501 616.98557,585.81886 612.43443,580.95917 C 606.57144,576.95159 596.32107,584.34477 595.45069,590.24209 L 592.0493,592.28293 z" />
    </g>
    <rect
       rx="3.9813387"
       ry="3.9813392"
       y="313.64175"
       x="407.47137"
       height="50.484886"
       width="71.813507"
       id="rect2318"
       style="fill:#000000;fill-opacity:1;fill-rule:nonzero;stroke:#000000;stroke-width:1.25;stroke-linecap:round;stroke-linejoin:round;stroke-miterlimit:4;stroke-dashoffset:0;stroke-opacity:1" />
    <g
       style="fill:#eeeeec;stroke:#000000;stroke-width:24.65895653000000110;stroke-miterlimit:4;stroke-opacity:1;fill-opacity:1"
       transform="matrix(3.928694e-2,0,0,3.928694e-2,420.14573,296.35765)"
       id="g2438">
      <path
         transform="translate(-373.0082,375.2049)"
         sodipodi:nodetypes="cccccccccc"
         id="path918"
         d="M 1116.1347,682.47574 C 1129.291,757.26879 1175.7063,762.52305 1176.2256,762.01103 C 1173.9687,784.40158 1138.1749,849.86829 1105.41,868.74244 C 1048.0956,882.38603 1058.6686,862.77251 997.27812,858.47622 C 957.55882,851.95293 930.01912,889.25967 898.14507,869.09899 C 868.79566,856.71245 796.33943,809.72553 796.28387,674.76387 C 797.67683,643.05588 808.89721,566.83443 890.62924,553.94029 C 938.79772,543.10375 967.55822,574.31044 1004.7026,569.20112 C 1084.1743,532.92509 1128.5858,555.27447 1163.6746,588.4799 C 1165.6931,588.37968 1106.5497,623.87005 1116.1347,682.47574 z"
         style="fill:#eeeeec;fill-opacity:1;fill-rule:evenodd;stroke-linecap:butt;stroke-linejoin:miter" />
      <path
         transform="translate(-373.0082,375.2049)"
         sodipodi:nodetypes="ccc"
         id="path922"
         d="M 1086.5462,431.12744 C 1016.7351,446.34269 996.67415,489.50965 996.67415,531.27914 C 1091.1936,517.17607 1086.5462,431.12744 1086.5462,431.12744 z"
         style="fill:#eeeeec;fill-opacity:1;fill-rule:evenodd;stroke-linecap:butt;stroke-linejoin:miter" />
    </g>
    <path
       style="opacity:1;fill:none;fill-opacity:1;stroke:#000000;stroke-width:1;stroke-miterlimit:4;stroke-dasharray:none;stroke-opacity:1"
       d="M 100.77732,269.11774 L 101.26094,273.38338 C 101.26094,273.38338 75.527065,256.55739 73.547536,265.46527 C 71.568007,274.37315 76.516829,284.93063 83.44518,282.29126 C 90.37353,279.65189 92.353059,279.32197 92.353059,279.32197"
       id="path4095"
       sodipodi:nodetypes="ccssc" />
    <path
       style="opacity:1;fill:#cc0000;fill-opacity:1;stroke:#000000;stroke-width:1;stroke-miterlimit:4;stroke-dasharray:none;stroke-opacity:1"
       d="M 76.84375 262.875 C 75.128577 263.01636 73.933662 263.79852 73.5625 265.46875 C 71.582968 274.37663 76.509149 284.92062 83.4375 282.28125 C 87.051004 280.90468 89.282573 280.18224 90.625 279.78125 C 89.881925 277.5621 89.167683 274.35468 90.28125 272.375 C 91.124432 270.87601 92.212771 269.5962 93.15625 268.625 C 87.730486 265.69639 80.886944 262.54177 76.84375 262.875 z "
       id="path4097" />
    <path
       style="opacity:1;fill:none;fill-opacity:1;stroke:#000000;stroke-width:1;stroke-miterlimit:4;stroke-dasharray:none;stroke-opacity:1"
       d="M 451.19956,278.04764 L 452.22448,280.25515 C 452.22448,280.25515 433.61831,274.42101 433.22411,278.75719 C 432.82991,283.09338 432.19919,288.2968 435.9835,287.19304 C 439.7678,286.08929 444.34051,284.35481 445.36542,284.27597 C 446.39034,284.19713 447.96713,285.06437 447.96713,285.06437"
       id="path4102" />
    <path
       style="opacity:1;fill:#cc0000;fill-opacity:1;stroke:#000000;stroke-width:1;stroke-miterlimit:4;stroke-dasharray:none;stroke-opacity:1"
       d="M 436.34375 277.15625 C 434.54399 277.21907 433.3173 277.66595 433.21875 278.75 C 432.82454 283.08618 432.18444 288.29126 435.96875 287.1875 C 439.75306 286.08374 444.35009 284.36009 445.375 284.28125 C 445.42428 284.27746 445.47966 284.28087 445.53125 284.28125 C 445.15808 283.24709 444.82104 282.08966 444.75 281.34375 C 444.66993 280.50306 445.36147 279.42658 446.0625 278.5625 C 442.82041 277.78669 438.97751 277.06431 436.34375 277.15625 z "
       id="path4104" />
    <g
       transform="matrix(0.4651787,0.8852168,0.8852168,-0.4651787,-123.58564,654.20145)"
       id="g4119">
      <g
         id="g4121"
         inkscape:transform-center-x="-6.6507783"
         inkscape:transform-center-y="-6.1622439"
         transform="matrix(0.6557502,-5.4984094e-2,5.4984094e-2,0.6557502,-932.21721,283.43809)">
        <rect
           transform="matrix(0.6198235,0.7847413,-0.7847413,0.6198235,0,0)"
           style="fill:#cccccc;fill-opacity:1;fill-rule:nonzero;stroke:#000000;stroke-width:1;stroke-linecap:butt;stroke-linejoin:round;stroke-miterlimit:4;stroke-dasharray:none;stroke-opacity:1"
           id="rect4123"
           width="5.9731178"
           height="31.785524"
           x="2084.4009"
           y="-435.39514"
           ry="4.1980953"
           rx="4.1980953" />
        <path
           style="fill:#ffffff;fill-opacity:1;fill-rule:nonzero;stroke:none;stroke-width:1;stroke-linecap:butt;stroke-linejoin:round;stroke-miterlimit:4;stroke-dasharray:none;stroke-opacity:1"
           d="M 1618.8049,1383.8827 L 1631.8316,1373.009 L 1631.0889,1372.7896 L 1618.9003,1382.8238 L 1618.8049,1383.8827 z"
           id="path4125" />
      </g>
      <g
         id="g4127"
         transform="matrix(4.5624886e-3,-0.6580355,0.6580355,4.5624886e-3,-719.42452,2159.3041)"
         inkscape:transform-center-x="6.5510517"
         inkscape:transform-center-y="8.6773905">
        <rect
           transform="matrix(0.584065,-0.8117069,0.8117069,0.584065,0,0)"
           rx="4.1980953"
           ry="4.1980953"
           y="2086.7573"
           x="-187.26065"
           height="31.785521"
           width="5.9731174"
           id="rect4129"
           style="fill:#cccccc;fill-opacity:1;fill-rule:nonzero;stroke:#000000;stroke-width:0.99999994;stroke-linecap:butt;stroke-linejoin:round;stroke-miterlimit:4;stroke-dasharray:none;stroke-opacity:1" />
        <path
           id="path4131"
           d="M 1587.8529,1372.1075 L 1605.5093,1384.8122 L 1605.5448,1383.8201 L 1589.198,1371.8881 L 1587.8529,1372.1075 z"
           style="fill:#ffffff;fill-opacity:1;fill-rule:nonzero;stroke:none;stroke-width:1;stroke-linecap:butt;stroke-linejoin:round;stroke-miterlimit:4;stroke-dasharray:none;stroke-opacity:1" />
      </g>
      <g
         id="g4133"
         transform="matrix(0.5648622,0.337583,-0.337583,0.5648622,-241.38586,-223.42352)">
        <path
           sodipodi:type="arc"
           style="fill:#cccccc;fill-opacity:1;fill-rule:nonzero;stroke:#000000;stroke-width:1.29999959;stroke-linecap:butt;stroke-linejoin:round;stroke-miterlimit:4;stroke-dasharray:none;stroke-opacity:1"
           id="path4135"
           sodipodi:cx="223.90565"
           sodipodi:cy="121.57761"
           sodipodi:rx="7.873302"
           sodipodi:ry="7.873302"
           d="M 231.77896,121.57761 A 7.873302,7.873302 0 1 1 216.03235,121.57761 A 7.873302,7.873302 0 1 1 231.77896,121.57761 z"
           transform="matrix(0.4492809,-0.6243902,0.6243902,0.4492809,1435.5154,1471.7425)" />
        <path
           transform="matrix(0.100465,-0.1396217,0.1396217,0.100465,1570.2308,1407.7417)"
           d="M 231.77896,121.57761 A 7.873302,7.873302 0 1 1 216.03235,121.57761 A 7.873302,7.873302 0 1 1 231.77896,121.57761 z"
           sodipodi:ry="7.873302"
           sodipodi:rx="7.873302"
           sodipodi:cy="121.57761"
           sodipodi:cx="223.90565"
           id="path4137"
           style="fill:#ffffff;fill-opacity:1;fill-rule:nonzero;stroke:none;stroke-width:0.80720383;stroke-linecap:butt;stroke-linejoin:round;stroke-miterlimit:4;stroke-dasharray:none;stroke-opacity:1"
           sodipodi:type="arc" />
      </g>
      <g
         id="g4139"
         inkscape:transform-center-x="-17.066912"
         inkscape:transform-center-y="-19.98967"
         transform="matrix(0.6557502,-5.4984094e-2,5.4984094e-2,0.6557502,-932.21721,283.43809)">
        <path
           id="path4141"
           d="M 1625.4971,1352.8929 L 1626.0387,1359.2879 L 1633.068,1363.4838 L 1636.4883,1361.6638 L 1629.5555,1357.9537 L 1629.3542,1352.9036 L 1625.4971,1352.8929 z M 1634.7179,1345.6146 L 1639.2705,1352.9633 L 1638.1634,1359.9557 L 1640.758,1360.8119 L 1641.9517,1352.3358 L 1639.1654,1342.0366 L 1634.7179,1345.6146 z M 1643.1174,1363.1933 L 1644.2185,1365.1748 L 1650.455,1361.0111 L 1655.7155,1362.418 L 1656.0236,1357.7343 L 1649.7289,1358.467 L 1643.1174,1363.1933 z M 1643.282,1369.0792 L 1643.4643,1370.7265 L 1647.6787,1371.2321 L 1650.0094,1374.6037 L 1652.5688,1372.6994 L 1648.8438,1369.3651 L 1643.282,1369.0792 z"
           style="fill:#cccccc;fill-opacity:1;fill-rule:nonzero;stroke:#000000;stroke-width:0.99999994;stroke-linecap:butt;stroke-linejoin:round;stroke-miterlimit:4;stroke-dasharray:none;stroke-opacity:1" />
        <path
           transform="matrix(0.5580852,-0.7756015,0.7756015,0.5580852,1418.3319,1472.7115)"
           d="M 231.77896,121.57761 A 7.873302,7.873302 0 1 1 216.03235,121.57761 A 7.873302,7.873302 0 1 1 231.77896,121.57761 z"
           sodipodi:ry="7.873302"
           sodipodi:rx="7.873302"
           sodipodi:cy="121.57761"
           sodipodi:cx="223.90565"
           id="path4143"
           style="fill:#cccccc;fill-opacity:1;fill-rule:nonzero;stroke:#000000;stroke-width:1.04655123;stroke-linecap:butt;stroke-linejoin:round;stroke-miterlimit:4;stroke-dasharray:none;stroke-opacity:1"
           sodipodi:type="arc" />
        <path
           sodipodi:type="arc"
           style="fill:#ffffff;fill-opacity:1;fill-rule:nonzero;stroke:none;stroke-width:0.80720383;stroke-linecap:butt;stroke-linejoin:round;stroke-miterlimit:4;stroke-dasharray:none;stroke-opacity:1"
           id="path4145"
           sodipodi:cx="223.90565"
           sodipodi:cy="121.57761"
           sodipodi:rx="7.873302"
           sodipodi:ry="7.873302"
           d="M 231.77896,121.57761 A 7.873302,7.873302 0 1 1 216.03235,121.57761 A 7.873302,7.873302 0 1 1 231.77896,121.57761 z"
           transform="matrix(0.2150335,-0.2988437,0.2988437,0.2150335,1556.3475,1410.0025)" />
      </g>
    </g>
    <path
       id="path4147"
       d="M 971.19556,274.98165 L 972.61541,291.07325 L 980.80268,293.18594 L 969.77571,310.47785 L 957.94366,294.38625 L 967.88258,290.12675 L 966.46274,276.87485 L 971.19556,274.98165 z"
       style="fill:#ffe5b9;fill-opacity:1;fill-rule:evenodd;stroke:#000000;stroke-width:1.25;stroke-linecap:butt;stroke-linejoin:miter;stroke-miterlimit:4;stroke-opacity:1;display:inline"
       sodipodi:nodetypes="cccccccc" />
    <path
       transform="matrix(-1.031733,0,0,0.716766,1056.0277,-127.40084)"
       d="M 61.526698,525.42224 A 6.8625937,6.8625937 0 1 1 47.801511,525.42224 A 6.8625937,6.8625937 0 1 1 61.526698,525.42224 z"
       sodipodi:ry="6.8625937"
       sodipodi:rx="6.8625937"
       sodipodi:cy="525.42224"
       sodipodi:cx="54.664104"
       id="path4149"
       style="fill:#f35c50;fill-opacity:1;stroke:#000000;stroke-width:1.25000000000000000;stroke-miterlimit:4;stroke-opacity:1;display:inline"
       sodipodi:type="arc" />
    <path
       transform="matrix(-1,0,0,1,1054.0564,-276.93134)"
       d="M 136.3053,524.94897 A 6.6259522,5.4427466 0 1 1 123.0534,524.94897 A 6.6259522,5.4427466 0 1 1 136.3053,524.94897 z"
       sodipodi:ry="5.4427466"
       sodipodi:rx="6.6259522"
       sodipodi:cy="524.94897"
       sodipodi:cx="129.67935"
       id="path4151"
       style="fill:#f35c50;fill-opacity:1;stroke:#000000;stroke-width:1.25000000000000000;stroke-miterlimit:4;stroke-opacity:1;display:inline"
       sodipodi:type="arc" />
    <path
       transform="matrix(-0.669126,0,0,0.694018,1028.1924,-113.88274)"
       d="M 150.97705,518.55963 A 51.824413,51.587772 0 1 1 47.328228,518.55963 A 51.824413,51.587772 0 1 1 150.97705,518.55963 z"
       sodipodi:ry="51.587772"
       sodipodi:rx="51.824413"
       sodipodi:cy="518.55963"
       sodipodi:cx="99.152641"
       id="path4155"
       style="fill:url(#linearGradient4360);fill-opacity:1;stroke:#000000;stroke-width:1.83430135000000005;stroke-miterlimit:4;stroke-opacity:1;display:inline"
       sodipodi:type="arc" />
    <path
       transform="matrix(-1,0,0,1,1049.3341,-261.58094)"
       d="M 97.022873,504.59781 A 17.038162,17.274805 0 1 1 62.946548,504.59781 A 17.038162,17.274805 0 1 1 97.022873,504.59781 z"
       sodipodi:ry="17.274805"
       sodipodi:rx="17.038162"
       sodipodi:cy="504.59781"
       sodipodi:cx="79.984711"
       id="path4157"
       style="fill:#ffffff;fill-opacity:1;stroke:#000000;stroke-width:1.25;stroke-miterlimit:4;stroke-opacity:1;display:inline"
       sodipodi:type="arc" />
    <path
       transform="matrix(-1,0,0,1,1049.3341,-260.63434)"
       d="M 122.10684,504.59781 A 12.541981,13.488545 0 1 1 97.022877,504.59781 A 12.541981,13.488545 0 1 1 122.10684,504.59781 z"
       sodipodi:ry="13.488545"
       sodipodi:rx="12.541981"
       sodipodi:cy="504.59781"
       sodipodi:cx="109.56486"
       id="path4159"
       style="fill:#ffffff;fill-opacity:1;stroke:#000000;stroke-width:1.25;stroke-miterlimit:4;stroke-opacity:1;display:inline"
       sodipodi:type="arc" />
    <path
       d="M 971.69093,216.22526 C 981.9152,217.51849 957.44614,204.30228 954.07427,203.73914 C 957.20151,207.99887 960.89468,211.85353 964.80186,215.41146 C 954.67046,209.0713 941.65941,202.49945 958.66021,216.84256 C 956.62382,217.92226 943.54123,208.42558 937.10142,210.62258 L 937.58921,211.88319 C 942.80202,211.27658 960.93311,221.64235 959.53077,215.80853 C 943.37035,202.22987 953.62078,211.94571 964.19479,216.61916 C 968.76552,215.23041 957.6174,204.74623 954.184,205.08638 C 957.02335,205.93331 978.70563,218.54177 972.19294,214.97024 L 971.69093,216.22526 z"
       id="path4161"
       style="fill:#000000;fill-opacity:1;fill-rule:nonzero;stroke:none;stroke-width:1pt;stroke-linecap:butt;stroke-linejoin:miter;stroke-opacity:1;display:inline" />
    <g
       transform="translate(887.21296,-278.31654)"
       id="g4163"
       style="display:inline">
      <path
         sodipodi:nodetypes="ccccc"
         id="path4165"
         d="M 61.053417,633.09397 C 33.603044,634.51381 32.656479,646.81915 32.656479,646.81915 C 32.656479,656.75808 85.664097,651.55198 85.664097,651.55198 L 85.664097,635.46038 L 61.053417,633.09397 z"
         style="fill:#ffffff;fill-opacity:1;fill-rule:evenodd;stroke:#000000;stroke-width:1.25;stroke-linecap:butt;stroke-linejoin:miter;stroke-miterlimit:4;stroke-opacity:1" />
      <path
         d="M 47.091589,633.83797 C 56.984628,634.61994 61.315987,641.7029 57.807393,650.68263 L 56.549444,650.18802 C 59.749959,642.10249 56.066216,635.95637 47.091589,635.18966 L 47.091589,633.83797 z"
         id="path4167"
         style="fill:#000000;fill-opacity:1;fill-rule:nonzero;stroke:none;stroke-width:1pt;stroke-linecap:butt;stroke-linejoin:miter;stroke-opacity:1" />
      <path
         d="M 55.137389,632.8914 C 66.681678,632.89279 70.902805,642.0118 66.474303,652.01826 L 65.238683,651.47024 C 69.296349,642.34188 65.745749,634.2404 55.137389,634.2431 L 55.137389,632.8914 z"
         id="path4169"
         style="fill:#000000;fill-opacity:1;fill-rule:nonzero;stroke:none;stroke-width:1pt;stroke-linecap:butt;stroke-linejoin:miter;stroke-opacity:1" />
    </g>
    <g
       transform="matrix(-1,0,0,1,1058.5638,-278.31654)"
       id="g4171"
       style="display:inline">
      <path
         sodipodi:nodetypes="ccccc"
         id="path4173"
         d="M 61.053417,633.09397 C 33.603044,634.51381 32.656479,646.81915 32.656479,646.81915 C 32.656479,656.75808 85.664097,651.55198 85.664097,651.55198 L 85.664097,635.46038 L 61.053417,633.09397 z"
         style="fill:#ffffff;fill-opacity:1;fill-rule:evenodd;stroke:#000000;stroke-width:1.25;stroke-linecap:butt;stroke-linejoin:miter;stroke-miterlimit:4;stroke-opacity:1" />
      <path
         d="M 47.091589,633.83797 C 56.984628,634.61994 61.315987,641.7029 57.807393,650.68263 L 56.549444,650.18802 C 59.749959,642.10249 56.066216,635.95637 47.091589,635.18966 L 47.091589,633.83797 z"
         id="path4175"
         style="fill:#000000;fill-opacity:1;fill-rule:nonzero;stroke:none;stroke-width:1pt;stroke-linecap:butt;stroke-linejoin:miter;stroke-opacity:1" />
      <path
         d="M 55.137389,632.8914 C 66.681678,632.89279 70.902805,642.0118 66.474303,652.01826 L 65.238683,651.47024 C 69.296349,642.34188 65.745749,634.2404 55.137389,634.2431 L 55.137389,632.8914 z"
         id="path4177"
         style="fill:#000000;fill-opacity:1;fill-rule:nonzero;stroke:none;stroke-width:1pt;stroke-linecap:butt;stroke-linejoin:miter;stroke-opacity:1" />
    </g>
    <g
       transform="matrix(-1,0,0,1,1057.8062,-279.07414)"
       id="g4179"
       style="display:inline">
      <path
         transform="matrix(0.859835,0,0,0.909951,14.03942,35.05921)"
         id="path4181"
         d="M 62.946547,630.72755 L 53.480901,657.23136 C 63.419829,661.96419 83.297686,660.07106 83.297686,660.07106 C 93.709897,665.75045 115.48088,658.65121 115.48088,658.65121 L 106.48852,626.46801 L 62.946547,630.72755 z"
         style="fill:#ffffff;fill-opacity:1;fill-rule:evenodd;stroke:#000000;stroke-width:1.41316688;stroke-linecap:butt;stroke-linejoin:miter;stroke-miterlimit:4;stroke-opacity:1" />
      <path
         transform="matrix(0.859835,0,0,0.909951,14.03942,35.05921)"
         id="path4183"
         d="M 79.038145,636.40694 L 76.198451,646.34587 L 92.29005,644.92602"
         style="fill:none;fill-opacity:0.75;fill-rule:evenodd;stroke:#000000;stroke-width:1.41316688;stroke-linecap:butt;stroke-linejoin:miter;stroke-miterlimit:4;stroke-opacity:1" />
      <path
         transform="matrix(0.859835,0,0,0.909951,14.03942,35.05921)"
         id="path4185"
         d="M 85.664097,635.93366 L 83.297686,659.59778"
         style="fill:none;fill-opacity:0.75;fill-rule:evenodd;stroke:#000000;stroke-width:1.41316688;stroke-linecap:butt;stroke-linejoin:miter;stroke-miterlimit:4;stroke-opacity:1" />
    </g>
    <path
       sodipodi:nodetypes="cccccccccccc"
       id="path4187"
       d="M 979.38079,291.71795 L 970.96591,296.94155 L 957.74252,292.04445 L 945.32055,309.67415 L 956.9411,313.91845 L 960.14677,300.20635 L 949.72835,331.87465 C 962.55103,337.42475 991.00135,332.20115 991.00135,332.20115 L 981.38434,300.85935 L 991.29542,301.0011 L 993.79162,287.09583 L 979.38079,291.71795 z"
       style="fill:#ff9f00;fill-opacity:1;fill-rule:evenodd;stroke:#000000;stroke-width:1.25;stroke-linecap:butt;stroke-linejoin:miter;stroke-miterlimit:4;stroke-opacity:1;display:inline" />
    <g
       transform="matrix(1.580161,0,0,1.580161,834.77979,-626.90043)"
       id="g4189"
       style="display:inline">
      <path
         d="M 79.568221,591.68176 C 82.838639,586.37899 86.606381,599.82234 86.896294,602.80548 L 84.653752,603.02047 C 84.358094,599.88873 83.324998,597.0955 81.774796,594.35499 C 81.221941,593.37763 79.151532,592.46562 79.852664,591.58853 C 81.628227,589.36736 81.799378,590.49833 81.821045,591.68176 L 79.568221,591.68176 z"
         id="path4191"
         style="fill:#0f00ff;fill-opacity:1;fill-rule:nonzero;stroke:none;stroke-width:1pt;stroke-linecap:butt;stroke-linejoin:miter;stroke-opacity:1" />
      <path
         d="M 78.527773,594.98355 C 80.536194,593.14428 90.732009,584.28259 91.733808,589.57677 L 89.659031,588.69898 C 90.66973,590.68599 89.627535,589.42328 90.85924,589.8436 C 91.166691,589.94852 79.040717,595.76383 80.25844,596.42578 L 78.527773,594.98355 z"
         id="path4193"
         style="fill:#0f00ff;fill-opacity:1;fill-rule:nonzero;stroke:none;stroke-width:1pt;stroke-linecap:butt;stroke-linejoin:miter;stroke-opacity:1" />
      <path
         d="M 80.15824,596.56287 C 83.323198,594.74075 87.87671,593.03 91.562656,594.32379 L 90.665822,596.39041 C 87.543144,596.06417 84.193404,596.57796 81.467667,598.39607 L 80.15824,596.56287 z"
         id="path4195"
         style="fill:#0f00ff;fill-opacity:1;fill-rule:nonzero;stroke:none;stroke-width:1pt;stroke-linecap:butt;stroke-linejoin:miter;stroke-opacity:1" />
    </g>
    <path
       transform="matrix(-0.8891,0,0,0.8891,1045.1236,-220.89074)"
       d="M 78.98003,525.00787 A 4.0159335,4.0159335 0 1 1 70.948163,525.00787 A 4.0159335,4.0159335 0 1 1 78.98003,525.00787 z"
       sodipodi:ry="4.0159335"
       sodipodi:rx="4.0159335"
       sodipodi:cy="525.00787"
       sodipodi:cx="74.964096"
       id="path4197"
       style="fill:#ffffff;fill-opacity:1;stroke:#000000;stroke-width:4.21774817;stroke-miterlimit:4;stroke-opacity:1;display:inline"
       sodipodi:type="arc" />
    <path
       transform="matrix(-0.8891,0,0,0.8891,1014.0001,-220.55614)"
       d="M 78.98003,525.00787 A 4.0159335,4.0159335 0 1 1 70.948163,525.00787 A 4.0159335,4.0159335 0 1 1 78.98003,525.00787 z"
       sodipodi:ry="4.0159335"
       sodipodi:rx="4.0159335"
       sodipodi:cy="525.00787"
       sodipodi:cx="74.964096"
       id="path4199"
       style="fill:#ffffff;fill-opacity:1;stroke:#000000;stroke-width:4.21774817;stroke-miterlimit:4;stroke-opacity:1;display:inline"
       sodipodi:type="arc" />
    <rect
       transform="matrix(-0.688007,0.7257041,-0.7257041,-0.688007,0,0)"
       ry="7.2963262"
       rx="7.8055687"
       y="-903.91791"
       x="-510.98022"
       height="14.592652"
       width="25.751736"
       id="rect4207"
       style="opacity:1;fill:#000000;fill-opacity:1;stroke:#000000;stroke-width:1;stroke-miterlimit:4;stroke-dasharray:none;stroke-opacity:1" />
    <path
       style="opacity:1;fill:#ffeec4;fill-opacity:1;stroke:#000000;stroke-width:1;stroke-miterlimit:4;stroke-dasharray:none;stroke-opacity:1"
       d="M 989.4375 244.8125 C 988.74198 244.8667 988.18357 245.2178 987.75 245.6875 C 986.88283 246.6269 984.121 248.00405 982.53125 250.75 C 980.9415 253.49594 980.94929 259.05083 982.25 260.0625 C 983.4552 260.99987 989.35438 263.32705 990.28125 263.6875 L 999.53125 290.65625 L 993.25 290.09375 L 992.09375 293.5 L 1005.25 294.375 L 995.9375 261.46875 L 996.125 261.375 L 995.90625 261.375 L 995.90625 261.34375 C 999.7422 260.65968 1002.5625 258.1875 1002.5625 258.1875 C 1002.5625 258.18749 1004.4452 256.09178 1003 255.875 C 1001.5547 255.65821 1000.4062 256.15625 1000.4062 256.15625 L 998.21875 256.59375 C 998.21876 256.59374 995.91208 253.70696 995.40625 252.40625 C 994.9004 251.10554 993.88856 247.06047 991.9375 245.6875 C 990.96196 245.00102 990.13302 244.7583 989.4375 244.8125 z "
       id="path4205" />
    <path
       style="opacity:1;fill:#f35c50;fill-opacity:1;stroke:#000000;stroke-width:1;stroke-miterlimit:4;stroke-dasharray:none;stroke-opacity:1"
       d="M 939.78125 230.46875 C 932.99593 230.46874 927.46761 236.29036 927.25 243.53125 L 952.28125 243.53125 C 952.06365 236.29036 946.56658 230.46875 939.78125 230.46875 z "
       id="path4209" />
    <path
       style="opacity:1;fill:#f35c50;fill-opacity:1;stroke:#000000;stroke-width:0.99999987999999995;stroke-miterlimit:4;stroke-dasharray:none;stroke-opacity:1"
       d="M 969.34375 225.75 C 959.93871 225.75 952.3125 233.49556 952.3125 243.03125 C 952.3125 243.36136 952.35695 243.67444 952.375 244 L 956.03125 244 L 986.34375 244 C 986.36178 243.67467 986.375 243.36113 986.375 243.03125 C 986.37498 233.49555 978.74882 225.75 969.34375 225.75 z "
       id="path4211" />
    <path
       style="opacity:1;fill:#ffe5b9;fill-opacity:1;stroke:#000000;stroke-width:1;stroke-miterlimit:4;stroke-dasharray:none;stroke-opacity:1"
       d="M 950.98984,271.42963 L 950.1231,274.37655 C 950.1231,274.37655 955.15021,271.77633 955.49691,272.98977 C 955.8436,274.20321 958.09713,276.97678 956.01695,276.80343 C 953.93677,276.63008 951.16319,276.45674 951.16319,276.45674"
       id="path4219" />
    <path
       style="opacity:1;fill:#cc0000;fill-opacity:1;stroke:#000000;stroke-width:1;stroke-miterlimit:4;stroke-dasharray:none;stroke-opacity:1"
       d="M 954.875 272.65625 C 954.09362 272.65234 952.80953 273.16099 951.75 273.625 C 952.20919 274.79247 952.12959 275.82235 951.9375 276.53125 C 952.60954 276.57419 954.28464 276.66694 956.03125 276.8125 C 958.11143 276.98585 955.84671 274.21343 955.5 273 C 955.43499 272.77248 955.20511 272.6579 954.875 272.65625 z "
       id="path4221" />
  </g>
  <g
     inkscape:groupmode="layer"
     id="layer3"
     inkscape:label="globos">
    <path
       id="path4238"
       d="M 900.40625,-1 C 820.34345,-1 755.37499,22.822776 755.375,52.1875 C 755.375,81.552226 820.34348,105.40625 900.40625,105.40625 C 911.75427,105.40625 922.77514,104.90547 933.375,104 L 947.4375,139.625 L 948.34375,102.40625 C 1004.8638,95.138997 1045.4375,75.389228 1045.4375,52.1875 C 1045.4375,22.822774 980.46907,-1.0000002 900.40625,-1 z"
       style="opacity:1;fill:#000000;fill-opacity:1;stroke:#000000;stroke-width:1;stroke-miterlimit:4;stroke-dasharray:none;stroke-opacity:1" />
    <path
       id="path4240"
       d="M 832,95.4375 L 825.40625,98.15625 L 818.34375,95.65625 L 812.59375,98.75 L 804.84375,96.625 L 800.0625,100 L 791.75,98.3125 L 787.96875,101.90625 L 779.25,100.6875 L 776.5625,104.4375 L 767.53125,103.71875 L 765.96875,107.5625 L 756.78125,107.34375 L 756.375,111.25 L 747.21875,111.5 L 747.9375,115.40625 L 738.90625,116.15625 L 740.8125,120 L 732.0625,121.21875 L 735.0625,124.9375 L 726.75,126.59375 L 730.8125,130.125 L 723.03125,132.21875 L 728.09375,135.5 L 721.03125,138 L 727,141 L 720.71875,143.875 L 727.53125,146.5 L 722.125,149.6875 L 729.65625,151.9375 L 725.21875,155.375 L 733.34375,157.21875 L 729.96875,160.84375 L 738.5625,162.25 L 736.28125,166.03125 L 745.21875,166.9375 L 744.09375,170.84375 L 753.21875,171.28125 L 753.21875,175.1875 L 762.40625,175.125 L 763.5625,179.03125 L 772.65625,178.46875 L 774.9375,182.28125 L 783.8125,181.21875 L 787.1875,184.875 L 795.65625,183.375 L 800.09375,186.8125 L 808.0625,184.875 L 813.46875,188.03125 L 820.8125,185.6875 L 827.09375,188.53125 L 833.6875,185.78125 L 840.78125,188.3125 L 846.5,185.21875 L 854.25,187.34375 L 859.0625,183.96875 L 867.375,185.65625 L 871.125,182.0625 L 879.875,183.28125 L 882.5625,179.53125 L 891.59375,180.25 L 893.15625,176.375 L 902.3125,176.625 L 902.71875,172.71875 L 911.90625,172.46875 L 911.15625,168.5625 L 919.875,167.84375 L 926.625,185.875 L 954.375,153.5 L 984.4375,191.65625 L 1022.5938,139.625 L 1028.375,198.59375 L 1009.875,248.3125 L 1038.7812,190.5 L 1028.375,117.65625 L 986.75,177.78125 L 955.53125,138.46875 L 931.25,163.90625 L 928.8125,158.09375 L 932.375,157.375 L 928.3125,153.84375 L 936.0625,151.75 L 931,148.46875 L 938.09375,145.96875 L 932.09375,142.96875 L 938.40625,140.09375 L 931.59375,137.46875 L 937,134.28125 L 929.46875,132.03125 L 933.875,128.59375 L 925.75,126.75 L 929.125,123.125 L 920.53125,121.71875 L 922.8125,117.9375 L 913.875,117.03125 L 915.03125,113.125 L 905.90625,112.6875 L 905.90625,108.78125 L 896.6875,108.84375 L 895.5625,104.9375 L 886.46875,105.5 L 884.15625,101.6875 L 875.3125,102.75 L 871.9375,99.09375 L 863.4375,100.59375 L 859,97.15625 L 851.03125,99.09375 L 845.625,95.9375 L 838.3125,98.28125 L 832,95.4375 z M 918.3125,163.96875 L 918.40625,163.96875 L 918.75,164.84375 L 918.3125,163.96875 z"
       style="opacity:1;fill:#000000;fill-opacity:1;stroke:#000000;stroke-width:0.99999994;stroke-miterlimit:4;stroke-dasharray:none;stroke-opacity:1" />
    <path
       id="path4242"
       d="M 516.34375,-9.84375 L 508.34375,-6.59375 L 499,-9.25 L 492.125,-5.65625 L 481.96875,-7.84375 L 476.34375,-3.96875 L 465.53125,-5.65625 L 461.25,-1.53125 L 449.96875,-2.6875 L 447.09375,1.625 L 435.5,1 L 434.0625,5.40625 L 422.375,5.34375 L 422.40625,9.78125 L 410.78125,10.28125 L 412.28125,14.6875 L 400.90625,15.71875 L 403.84375,20.03125 L 392.875,21.59375 L 397.21875,25.71875 L 386.875,27.8125 L 392.53125,31.6875 L 382.96875,34.25 L 389.875,37.84375 L 381.21875,40.84375 L 389.25,44.0625 L 381.65625,47.46875 L 390.6875,50.28125 L 384.28125,54 L 394.1875,56.375 L 389.03125,60.34375 L 399.625,62.25 L 395.84375,66.4375 L 406.96875,67.8125 L 404.625,72.15625 L 416.125,73 L 415.1875,77.40625 L 426.875,77.6875 L 427.4375,82.125 L 439.125,81.84375 L 441.125,86.21875 L 452.625,85.375 L 456.0625,89.625 L 467.1875,88.21875 L 472,92.28125 L 482.5625,90.375 L 488.6875,94.15625 L 498.5625,91.78125 L 505.875,95.25 L 514.875,92.40625 L 523.28125,95.5 L 531.28125,92.25 L 540.625,94.90625 L 547.5,91.3125 L 557.65625,93.5 L 563.25,89.625 L 574.0625,91.3125 L 578.34375,87.1875 L 579.53125,87.3125 L 595.03125,95.34375 L 575.28125,107 L 600.40625,109.6875 L 595.5,116.40625 L 590.1875,119.3125 L 583.34375,116.6875 L 578.3125,120.25 L 570.875,118.0625 L 566.78125,121.9375 L 558.875,120.25 L 555.75,124.34375 L 547.5,123.1875 L 545.40625,127.4375 L 536.9375,126.8125 L 535.875,131.1875 L 527.3125,131.125 L 527.34375,135.5 L 518.84375,136 L 519.9375,140.34375 L 511.625,141.375 L 513.78125,145.625 L 505.78125,147.15625 L 508.9375,151.25 L 501.375,153.3125 L 505.53125,157.15625 L 498.53125,159.65625 L 503.5625,163.21875 L 497.25,166.1875 L 503.125,169.375 L 497.5625,172.71875 L 504.15625,175.5 L 499.46875,179.15625 L 506.71875,181.5 L 502.9375,185.46875 L 510.6875,187.3125 L 507.9375,191.46875 L 516.0625,192.8125 L 514.34375,197.125 L 522.75,197.9375 L 522.09375,202.3125 L 530.625,202.5625 L 531.03125,206.9375 L 539.5625,206.65625 L 541.03125,211 L 549.4375,210.15625 L 551.96875,214.34375 L 560.09375,212.96875 L 563.59375,217 L 564.34375,216.8125 L 575.125,232.625 L 524.75,248.65625 L 554.5,264.65625 L 507.59375,279.5625 L 499.5625,300.15625 L 477.84375,279.5625 L 504.15625,311.59375 L 516.75,286.40625 L 567.09375,264.65625 L 547.65625,253.21875 L 590,236.0625 L 585.5,218.0625 L 588.375,219.90625 L 594.9375,217.09375 L 601.09375,220.15625 L 606.9375,216.9375 L 613.78125,219.59375 L 618.78125,216.03125 L 626.21875,218.1875 L 630.3125,214.34375 L 638.21875,216.03125 L 641.34375,211.9375 L 649.59375,213.09375 L 651.71875,208.84375 L 660.1875,209.46875 L 661.21875,205.09375 L 669.78125,205.15625 L 669.75,200.78125 L 678.25,200.28125 L 677.15625,195.9375 L 685.46875,194.90625 L 683.34375,190.65625 L 691.34375,189.09375 L 688.15625,185.03125 L 695.71875,182.96875 L 691.59375,179.125 L 698.59375,176.59375 L 693.53125,173.0625 L 699.84375,170.09375 L 694,166.90625 L 699.53125,163.5625 L 692.9375,160.78125 L 697.625,157.125 L 690.40625,154.78125 L 694.15625,150.8125 L 686.40625,148.96875 L 689.1875,144.8125 L 681.03125,143.46875 L 682.75,139.15625 L 674.34375,138.34375 L 675.03125,133.96875 L 666.5,133.71875 L 666.0625,129.3125 L 657.53125,129.625 L 656.0625,125.28125 L 647.65625,126.125 L 645.15625,121.9375 L 637.03125,123.28125 L 633.5,119.28125 L 625.78125,121.15625 L 621.28125,117.4375 L 614.09375,119.78125 L 608.75,116.375 L 605.96875,117.5625 L 611.15625,104.3125 L 596.8125,101.625 L 610.28125,89.0625 L 604.28125,84.125 L 605.53125,80.25 L 617.25,80.3125 L 617.21875,75.875 L 628.84375,75.375 L 627.34375,70.96875 L 638.71875,69.9375 L 635.78125,65.625 L 646.71875,64.0625 L 642.40625,59.9375 L 652.71875,57.84375 L 647.0625,53.96875 L 656.625,51.40625 L 649.75,47.8125 L 658.375,44.8125 L 650.34375,41.59375 L 657.96875,38.21875 L 648.90625,35.375 L 655.34375,31.65625 L 645.4375,29.28125 L 650.59375,25.3125 L 640,23.40625 L 643.78125,19.21875 L 632.625,17.84375 L 635,13.5 L 623.5,12.6875 L 624.40625,8.25 L 612.75,7.96875 L 612.1875,3.53125 L 600.5,3.8125 L 598.5,-0.5625 L 587,0.28125 L 583.5625,-3.96875 L 572.4375,-2.5625 L 567.625,-6.625 L 557.03125,-4.71875 L 550.90625,-8.5 L 541.0625,-6.125 L 533.75,-9.59375 L 524.75,-6.75 L 516.34375,-9.84375 z"
       style="opacity:1;fill:#000000;fill-opacity:1;stroke:#000000;stroke-width:1.00000012;stroke-miterlimit:4;stroke-dasharray:none;stroke-opacity:1" />
    <path
       id="path4244"
       d="M 468.96875,74.25 C 415.30823,74.25 371.75,91.061607 371.75,111.75 C 371.75,130.84083 408.85797,146.58429 456.75,148.90625 L 461.8125,174.25 L 472.9375,149.15625 C 524.75774,148.35165 566.18753,131.9252 566.1875,111.75 C 566.1875,91.061607 522.62927,74.25 468.96875,74.25 z"
       style="opacity:1;fill:#000000;fill-opacity:1;stroke:#000000;stroke-width:1;stroke-miterlimit:4;stroke-dasharray:none;stroke-opacity:1" />
    <path
       id="path4246"
       d="M 175.8125,-7.03125 C 87.432816,-7.03125 15.71875,22.447377 15.71875,58.78125 C 15.71875,78.791429 37.50145,96.705856 71.8125,108.78125 C 37.50145,120.85664 15.71875,138.77108 15.71875,158.78125 C 15.71875,191.46106 73.743076,218.61774 149.71875,223.75 L 146.875,241.75 L 170.40625,224.5625 C 172.20166,224.58706 174.00264,224.625 175.8125,224.625 C 264.19218,224.625 335.9375,195.11513 335.9375,158.78125 C 335.9375,138.77107 314.1548,120.85664 279.84375,108.78125 C 314.1548,96.705857 335.9375,78.791428 335.9375,58.78125 C 335.9375,22.447378 264.19218,-7.03125 175.8125,-7.03125 z"
       style="opacity:1;fill:#000000;fill-opacity:1;stroke:#000000;stroke-width:1;stroke-miterlimit:4;stroke-dasharray:none;stroke-opacity:1" />
    <path
       style="opacity:1;fill:#ffffff;fill-opacity:1;stroke:#000000;stroke-width:1;stroke-miterlimit:4;stroke-dasharray:none;stroke-opacity:1"
       d="M 896.40625 -5 C 816.34345 -5 751.37499 18.822776 751.375 48.1875 C 751.375 77.552226 816.34348 101.40625 896.40625 101.40625 C 907.75427 101.40625 918.77514 100.90547 929.375 100 L 943.4375 135.625 L 944.34375 98.40625 C 1000.8638 91.138997 1041.4375 71.389228 1041.4375 48.1875 C 1041.4375 18.822774 976.46907 -5.0000002 896.40625 -5 z "
       id="path4077" />
    <path
       style="opacity:1;fill:#ffffff;fill-opacity:1;stroke:#000000;stroke-width:0.99999994;stroke-miterlimit:4;stroke-dasharray:none;stroke-opacity:1"
       d="M 828 91.4375 L 821.40625 94.15625 L 814.34375 91.65625 L 808.59375 94.75 L 800.84375 92.625 L 796.0625 96 L 787.75 94.3125 L 783.96875 97.90625 L 775.25 96.6875 L 772.5625 100.4375 L 763.53125 99.71875 L 761.96875 103.5625 L 752.78125 103.34375 L 752.375 107.25 L 743.21875 107.5 L 743.9375 111.40625 L 734.90625 112.15625 L 736.8125 116 L 728.0625 117.21875 L 731.0625 120.9375 L 722.75 122.59375 L 726.8125 126.125 L 719.03125 128.21875 L 724.09375 131.5 L 717.03125 134 L 723 137 L 716.71875 139.875 L 723.53125 142.5 L 718.125 145.6875 L 725.65625 147.9375 L 721.21875 151.375 L 729.34375 153.21875 L 725.96875 156.84375 L 734.5625 158.25 L 732.28125 162.03125 L 741.21875 162.9375 L 740.09375 166.84375 L 749.21875 167.28125 L 749.21875 171.1875 L 758.40625 171.125 L 759.5625 175.03125 L 768.65625 174.46875 L 770.9375 178.28125 L 779.8125 177.21875 L 783.1875 180.875 L 791.65625 179.375 L 796.09375 182.8125 L 804.0625 180.875 L 809.46875 184.03125 L 816.8125 181.6875 L 823.09375 184.53125 L 829.6875 181.78125 L 836.78125 184.3125 L 842.5 181.21875 L 850.25 183.34375 L 855.0625 179.96875 L 863.375 181.65625 L 867.125 178.0625 L 875.875 179.28125 L 878.5625 175.53125 L 887.59375 176.25 L 889.15625 172.375 L 898.3125 172.625 L 898.71875 168.71875 L 907.90625 168.46875 L 907.15625 164.5625 L 915.875 163.84375 L 922.625 181.875 L 950.375 149.5 L 980.4375 187.65625 L 1018.5938 135.625 L 1024.375 194.59375 L 1005.875 244.3125 L 1034.7812 186.5 L 1024.375 113.65625 L 982.75 173.78125 L 951.53125 134.46875 L 927.25 159.90625 L 924.8125 154.09375 L 928.375 153.375 L 924.3125 149.84375 L 932.0625 147.75 L 927 144.46875 L 934.09375 141.96875 L 928.09375 138.96875 L 934.40625 136.09375 L 927.59375 133.46875 L 933 130.28125 L 925.46875 128.03125 L 929.875 124.59375 L 921.75 122.75 L 925.125 119.125 L 916.53125 117.71875 L 918.8125 113.9375 L 909.875 113.03125 L 911.03125 109.125 L 901.90625 108.6875 L 901.90625 104.78125 L 892.6875 104.84375 L 891.5625 100.9375 L 882.46875 101.5 L 880.15625 97.6875 L 871.3125 98.75 L 867.9375 95.09375 L 859.4375 96.59375 L 855 93.15625 L 847.03125 95.09375 L 841.625 91.9375 L 834.3125 94.28125 L 828 91.4375 z M 914.3125 159.96875 L 914.40625 159.96875 L 914.75 160.84375 L 914.3125 159.96875 z "
       id="path4089" />
    <path
       style="opacity:1;fill:#ffffff;fill-opacity:1;stroke:#000000;stroke-width:1.00000012;stroke-miterlimit:4;stroke-dasharray:none;stroke-opacity:1"
       d="M 512.34375 -13.84375 L 504.34375 -10.59375 L 495 -13.25 L 488.125 -9.65625 L 477.96875 -11.84375 L 472.34375 -7.96875 L 461.53125 -9.65625 L 457.25 -5.53125 L 445.96875 -6.6875 L 443.09375 -2.375 L 431.5 -3 L 430.0625 1.40625 L 418.375 1.34375 L 418.40625 5.78125 L 406.78125 6.28125 L 408.28125 10.6875 L 396.90625 11.71875 L 399.84375 16.03125 L 388.875 17.59375 L 393.21875 21.71875 L 382.875 23.8125 L 388.53125 27.6875 L 378.96875 30.25 L 385.875 33.84375 L 377.21875 36.84375 L 385.25 40.0625 L 377.65625 43.46875 L 386.6875 46.28125 L 380.28125 50 L 390.1875 52.375 L 385.03125 56.34375 L 395.625 58.25 L 391.84375 62.4375 L 402.96875 63.8125 L 400.625 68.15625 L 412.125 69 L 411.1875 73.40625 L 422.875 73.6875 L 423.4375 78.125 L 435.125 77.84375 L 437.125 82.21875 L 448.625 81.375 L 452.0625 85.625 L 463.1875 84.21875 L 468 88.28125 L 478.5625 86.375 L 484.6875 90.15625 L 494.5625 87.78125 L 501.875 91.25 L 510.875 88.40625 L 519.28125 91.5 L 527.28125 88.25 L 536.625 90.90625 L 543.5 87.3125 L 553.65625 89.5 L 559.25 85.625 L 570.0625 87.3125 L 574.34375 83.1875 L 575.53125 83.3125 L 591.03125 91.34375 L 571.28125 103 L 596.40625 105.6875 L 591.5 112.40625 L 586.1875 115.3125 L 579.34375 112.6875 L 574.3125 116.25 L 566.875 114.0625 L 562.78125 117.9375 L 554.875 116.25 L 551.75 120.34375 L 543.5 119.1875 L 541.40625 123.4375 L 532.9375 122.8125 L 531.875 127.1875 L 523.3125 127.125 L 523.34375 131.5 L 514.84375 132 L 515.9375 136.34375 L 507.625 137.375 L 509.78125 141.625 L 501.78125 143.15625 L 504.9375 147.25 L 497.375 149.3125 L 501.53125 153.15625 L 494.53125 155.65625 L 499.5625 159.21875 L 493.25 162.1875 L 499.125 165.375 L 493.5625 168.71875 L 500.15625 171.5 L 495.46875 175.15625 L 502.71875 177.5 L 498.9375 181.46875 L 506.6875 183.3125 L 503.9375 187.46875 L 512.0625 188.8125 L 510.34375 193.125 L 518.75 193.9375 L 518.09375 198.3125 L 526.625 198.5625 L 527.03125 202.9375 L 535.5625 202.65625 L 537.03125 207 L 545.4375 206.15625 L 547.96875 210.34375 L 556.09375 208.96875 L 559.59375 213 L 560.34375 212.8125 L 571.125 228.625 L 520.75 244.65625 L 550.5 260.65625 L 503.59375 275.5625 L 495.5625 296.15625 L 473.84375 275.5625 L 500.15625 307.59375 L 512.75 282.40625 L 563.09375 260.65625 L 543.65625 249.21875 L 586 232.0625 L 581.5 214.0625 L 584.375 215.90625 L 590.9375 213.09375 L 597.09375 216.15625 L 602.9375 212.9375 L 609.78125 215.59375 L 614.78125 212.03125 L 622.21875 214.1875 L 626.3125 210.34375 L 634.21875 212.03125 L 637.34375 207.9375 L 645.59375 209.09375 L 647.71875 204.84375 L 656.1875 205.46875 L 657.21875 201.09375 L 665.78125 201.15625 L 665.75 196.78125 L 674.25 196.28125 L 673.15625 191.9375 L 681.46875 190.90625 L 679.34375 186.65625 L 687.34375 185.09375 L 684.15625 181.03125 L 691.71875 178.96875 L 687.59375 175.125 L 694.59375 172.59375 L 689.53125 169.0625 L 695.84375 166.09375 L 690 162.90625 L 695.53125 159.5625 L 688.9375 156.78125 L 693.625 153.125 L 686.40625 150.78125 L 690.15625 146.8125 L 682.40625 144.96875 L 685.1875 140.8125 L 677.03125 139.46875 L 678.75 135.15625 L 670.34375 134.34375 L 671.03125 129.96875 L 662.5 129.71875 L 662.0625 125.3125 L 653.53125 125.625 L 652.0625 121.28125 L 643.65625 122.125 L 641.15625 117.9375 L 633.03125 119.28125 L 629.5 115.28125 L 621.78125 117.15625 L 617.28125 113.4375 L 610.09375 115.78125 L 604.75 112.375 L 601.96875 113.5625 L 607.15625 100.3125 L 592.8125 97.625 L 606.28125 85.0625 L 600.28125 80.125 L 601.53125 76.25 L 613.25 76.3125 L 613.21875 71.875 L 624.84375 71.375 L 623.34375 66.96875 L 634.71875 65.9375 L 631.78125 61.625 L 642.71875 60.0625 L 638.40625 55.9375 L 648.71875 53.84375 L 643.0625 49.96875 L 652.625 47.40625 L 645.75 43.8125 L 654.375 40.8125 L 646.34375 37.59375 L 653.96875 34.21875 L 644.90625 31.375 L 651.34375 27.65625 L 641.4375 25.28125 L 646.59375 21.3125 L 636 19.40625 L 639.78125 15.21875 L 628.625 13.84375 L 631 9.5 L 619.5 8.6875 L 620.40625 4.25 L 608.75 3.96875 L 608.1875 -0.46875 L 596.5 -0.1875 L 594.5 -4.5625 L 583 -3.71875 L 579.5625 -7.96875 L 568.4375 -6.5625 L 563.625 -10.625 L 553.03125 -8.71875 L 546.90625 -12.5 L 537.0625 -10.125 L 529.75 -13.59375 L 520.75 -10.75 L 512.34375 -13.84375 z "
       id="path4068" />
    <path
       style="opacity:1;fill:#ffffff;fill-opacity:1;stroke:#000000;stroke-width:1;stroke-miterlimit:4;stroke-dasharray:none;stroke-opacity:1"
       d="M 464.96875 70.25 C 411.30823 70.25 367.75 87.061607 367.75 107.75 C 367.75 126.84083 404.85797 142.58429 452.75 144.90625 L 457.8125 170.25 L 468.9375 145.15625 C 520.75774 144.35165 562.18753 127.9252 562.1875 107.75 C 562.1875 87.061607 518.62927 70.25 464.96875 70.25 z "
       id="path4061" />
    <path
       style="opacity:1;fill:#ffffff;fill-opacity:1;stroke:#000000;stroke-width:1;stroke-miterlimit:4;stroke-dasharray:none;stroke-opacity:1"
       d="M 171.8125 -11.03125 C 83.432816 -11.03125 11.71875 18.447377 11.71875 54.78125 C 11.71875 74.791429 33.50145 92.705856 67.8125 104.78125 C 33.50145 116.85664 11.71875 134.77108 11.71875 154.78125 C 11.71875 187.46106 69.743076 214.61774 145.71875 219.75 L 142.875 237.75 L 166.40625 220.5625 C 168.20166 220.58706 170.00264 220.625 171.8125 220.625 C 260.19218 220.625 331.9375 191.11513 331.9375 154.78125 C 331.9375 134.77107 310.1548 116.85664 275.84375 104.78125 C 310.1548 92.705857 331.9375 74.791428 331.9375 54.78125 C 331.9375 18.447378 260.19218 -11.03125 171.8125 -11.03125 z "
       id="path4053" />
    <text
       xml:space="preserve"
       style="font-size:16px;font-style:italic;font-variant:normal;font-weight:normal;font-stretch:normal;text-align:center;line-height:100%;writing-mode:lr-tb;text-anchor:middle;fill:#000000;fill-opacity:1;stroke:none;stroke-width:1px;stroke-linecap:butt;stroke-linejoin:miter;stroke-opacity:1;font-family:Kid Kosmic;-inkscape-font-specification:Kid Kosmic Italic"
       x="172.16904"
       y="39.031677"
       id="text3123"
       sodipodi:linespacing="100%"><tspan
         sodipodi:role="line"
         x="172.16904"
         y="39.031677"
         id="tspan3127">oh, las contraseas,</tspan><tspan
         sodipodi:role="line"
         x="172.16904"
         y="55.031677"
         id="tspan3131">esas pequeas</tspan><tspan
         sodipodi:role="line"
         x="172.16904"
         y="71.031677"
         id="tspan3133">palabras secretas</tspan><tspan
         sodipodi:role="line"
         x="172.16904"
         y="87.031677"
         id="tspan3141">que slo t debes</tspan><tspan
         sodipodi:role="line"
         x="172.16904"
         y="103.03168"
         id="tspan3153">conocer</tspan></text>
    <text
       sodipodi:linespacing="100%"
       id="text3159"
       y="131.03168"
       x="172.16904"
       style="font-size:16px;font-style:italic;font-variant:normal;font-weight:normal;font-stretch:normal;text-align:center;line-height:100%;writing-mode:lr-tb;text-anchor:middle;fill:#000000;fill-opacity:1;stroke:none;stroke-width:1px;stroke-linecap:butt;stroke-linejoin:miter;stroke-opacity:1;font-family:Kid Kosmic;-inkscape-font-specification:Kid Kosmic Italic"
       xml:space="preserve"><tspan
         y="131.03168"
         x="172.16904"
         sodipodi:role="line"
         id="tspan3185">por desgracia hay</tspan><tspan
         y="147.03168"
         x="172.16904"
         sodipodi:role="line"
         id="tspan3189">raras ocasiones en</tspan><tspan
         y="163.03168"
         x="172.16904"
         sodipodi:role="line"
         id="tspan3191">las que hay que</tspan><tspan
         y="179.03168"
         x="172.16904"
         sodipodi:role="line"
         id="tspan3193">dictar una contrasea</tspan><tspan
         y="195.03168"
         x="172.16904"
         sodipodi:role="line"
         id="tspan3195">por telefono...</tspan></text>
    <text
       xml:space="preserve"
       style="font-size:16px;font-style:italic;font-variant:normal;font-weight:normal;font-stretch:normal;text-align:center;line-height:100%;writing-mode:lr-tb;text-anchor:middle;fill:#000000;fill-opacity:1;stroke:none;stroke-width:1px;stroke-linecap:butt;stroke-linejoin:miter;stroke-opacity:1;font-family:Kid Kosmic;-inkscape-font-specification:Kid Kosmic Italic"
       x="518.16907"
       y="43.031677"
       id="text3197"
       sodipodi:linespacing="100%"><tspan
         id="tspan3207"
         sodipodi:role="line"
         x="518.16907"
         y="43.031677">s, mrame el correo</tspan><tspan
         sodipodi:role="line"
         x="518.16907"
         y="59.031677"
         id="tspan3223">de la universidad....</tspan><tspan
         sodipodi:role="line"
         x="518.16907"
         y="75.031677"
         id="tspan3225" /></text>
    <text
       sodipodi:linespacing="100%"
       id="text3237"
       y="156.70918"
       x="595.86206"
       style="font-size:16px;font-style:italic;font-variant:normal;font-weight:normal;font-stretch:normal;text-align:center;line-height:100%;writing-mode:lr-tb;text-anchor:middle;fill:#000000;fill-opacity:1;stroke:none;stroke-width:1px;stroke-linecap:butt;stroke-linejoin:miter;stroke-opacity:1;font-family:Kid Kosmic;-inkscape-font-specification:Kid Kosmic Italic"
       xml:space="preserve"><tspan
         id="tspan3241"
         y="156.70918"
         x="595.86206"
         sodipodi:role="line">esto.... te la</tspan><tspan
         y="172.70918"
         x="595.86206"
         sodipodi:role="line"
         id="tspan3245">dicto, ve</tspan><tspan
         y="188.70918"
         x="595.86206"
         sodipodi:role="line"
         id="tspan3247">escribiendo...</tspan></text>
    <text
       xml:space="preserve"
       style="font-size:16px;font-style:italic;font-variant:normal;font-weight:normal;font-stretch:normal;text-align:center;line-height:100%;writing-mode:lr-tb;text-anchor:middle;fill:#000000;fill-opacity:1;stroke:none;stroke-width:1px;stroke-linecap:butt;stroke-linejoin:miter;stroke-opacity:1;font-family:Kid Kosmic;-inkscape-font-specification:Kid Kosmic Italic"
       x="467.86206"
       y="108.70918"
       id="text3227"
       sodipodi:linespacing="100%"><tspan
         sodipodi:role="line"
         x="472.15894"
         y="108.70918"
         id="tspan3231">cual es tu </tspan><tspan
         sodipodi:role="line"
         x="467.86206"
         y="124.70918"
         id="tspan3233">contrasea?</tspan></text>
    <text
       xml:space="preserve"
       style="font-size:16px;font-style:italic;font-variant:normal;font-weight:normal;font-stretch:normal;text-align:center;line-height:100%;writing-mode:lr-tb;text-anchor:middle;fill:#000000;fill-opacity:1;stroke:none;stroke-width:1px;stroke-linecap:butt;stroke-linejoin:miter;stroke-opacity:1;font-family:Kid Kosmic;-inkscape-font-specification:Kid Kosmic Italic"
       x="895.86206"
       y="46.709183"
       id="text3249"
       sodipodi:linespacing="100%"><tspan
         id="tspan3255"
         sodipodi:role="line"
         x="900.15894"
         y="46.709183">eme, 3, eme, 0, ele, 4, </tspan><tspan
         sodipodi:role="line"
         x="900.15894"
         y="62.709183"
         id="tspan3262">be mayuscula, 1, ese, </tspan><tspan
         sodipodi:role="line"
         x="900.15894"
         y="78.709183"
         id="tspan3264">be, 4, ele </tspan></text>
    <text
       sodipodi:linespacing="100%"
       id="text3266"
       y="128.70918"
       x="827.86206"
       style="font-size:16px;font-style:italic;font-variant:normal;font-weight:normal;font-stretch:normal;text-align:center;line-height:100%;writing-mode:lr-tb;text-anchor:middle;fill:#000000;fill-opacity:1;stroke:none;stroke-width:1px;stroke-linecap:butt;stroke-linejoin:miter;stroke-opacity:1;font-family:Kid Kosmic;-inkscape-font-specification:Kid Kosmic Italic"
       xml:space="preserve"><tspan
         y="128.70918"
         x="827.86206"
         sodipodi:role="line"
         id="tspan3274">vale,</tspan><tspan
         y="144.70918"
         x="827.86206"
         sodipodi:role="line"
         id="tspan3278">m3m0l4b1sb4l.</tspan><tspan
         y="160.70918"
         x="827.86206"
         sodipodi:role="line"
         id="tspan4079">est bien?</tspan></text>
    <path
       style="opacity:1;fill:none;fill-opacity:1;stroke:#000000;stroke-width:1;stroke-miterlimit:4;stroke-dasharray:none;stroke-opacity:1"
       d="M 60.381818,263.63805 C 62.381216,270.03612 65.180373,273.23516 65.180373,273.23516"
       id="path4248" />
    <path
       id="path4250"
       d="M 58.381818,267.63805 C 60.381216,274.03612 63.180373,277.23516 63.180373,277.23516"
       style="opacity:1;fill:none;fill-opacity:1;stroke:#000000;stroke-width:1;stroke-miterlimit:4;stroke-dasharray:none;stroke-opacity:1" />
    <path
       style="opacity:1;fill:none;fill-opacity:1;stroke:#000000;stroke-width:1;stroke-miterlimit:4;stroke-dasharray:none;stroke-opacity:1"
       d="M 130.36075,260.03913 C 129.96087,265.23757 126.36195,267.63685 126.36195,267.63685"
       id="path4252" />
    <path
       id="path4254"
       d="M 134.36075,262.03913 C 133.96087,267.23757 130.36195,269.63685 130.36195,269.63685"
       style="opacity:1;fill:none;fill-opacity:1;stroke:#000000;stroke-width:1;stroke-miterlimit:4;stroke-dasharray:none;stroke-opacity:1" />
    <path
       style="opacity:1;fill:none;fill-opacity:1;stroke:#000000;stroke-width:1;stroke-miterlimit:4;stroke-dasharray:none;stroke-opacity:1"
       d="M 473.05755,298.02769 C 477.45623,303.22613 476.25659,307.6248 476.25659,307.6248"
       id="path4256" />
    <path
       id="path4258"
       d="M 477.05755,298.02769 C 481.45623,303.22613 480.25659,307.6248 480.25659,307.6248"
       style="opacity:1;fill:none;fill-opacity:1;stroke:#000000;stroke-width:1;stroke-miterlimit:4;stroke-dasharray:none;stroke-opacity:1" />
    <path
       style="opacity:1;fill:none;fill-opacity:1;stroke:#000000;stroke-width:1;stroke-miterlimit:4;stroke-dasharray:none;stroke-opacity:1"
       d="M 406.67754,236.04636 C 403.07863,236.44624 402.67875,243.24419 402.67875,243.24419"
       id="path4260" />
    <path
       id="path4262"
       d="M 404.67754,234.04636 C 401.07863,234.44624 400.67875,241.24419 400.67875,241.24419"
       style="opacity:1;fill:none;fill-opacity:1;stroke:#000000;stroke-width:1;stroke-miterlimit:4;stroke-dasharray:none;stroke-opacity:1" />
    <path
       style="opacity:1;fill:none;fill-opacity:1;stroke:#000000;stroke-width:1;stroke-miterlimit:4;stroke-dasharray:none;stroke-opacity:1"
       d="M 1010.4957,250.44202 C 1011.6954,255.24058 1006.8968,258.83949 1006.8968,258.83949"
       id="path4264" />
    <path
       id="path4266"
       d="M 1014.4957,252.44202 C 1015.6954,257.24058 1010.8968,260.83949 1010.8968,260.83949"
       style="opacity:1;fill:none;fill-opacity:1;stroke:#000000;stroke-width:1;stroke-miterlimit:4;stroke-dasharray:none;stroke-opacity:1" />
    <path
       style="opacity:1;fill:none;fill-opacity:1;stroke:#000000;stroke-width:1;stroke-miterlimit:4;stroke-dasharray:none;stroke-opacity:1"
       d="M 1008.4963,290.0301 C 1011.6954,297.22794 1006.4969,298.82745 1006.4969,298.82745"
       id="path4268" />
    <path
       id="path4270"
       d="M 1012.4963,290.0301 C 1015.6954,297.22794 1010.4969,298.82745 1010.4969,298.82745"
       style="opacity:1;fill:none;fill-opacity:1;stroke:#000000;stroke-width:1;stroke-miterlimit:4;stroke-dasharray:none;stroke-opacity:1" />
  </g>
  <g
     inkscape:groupmode="layer"
     id="layer4"
     inkscape:label="vinietas"
     sodipodi:insensitive="true">
    <path
       style="fill:#6699cc;fill-opacity:1;fill-rule:nonzero;stroke:#000000;stroke-width:4.48726034;stroke-linecap:round;stroke-linejoin:round;stroke-miterlimit:4;stroke-dashoffset:0;stroke-opacity:1;display:inline"
       d="M -3.1395438,-4.7760952 C -5.4235092,-4.7760952 -7.2644814,-2.9685179 -7.2644814,-0.74658629 L -7.2644814,390.21022 C -7.2644814,390.53373 -7.2131821,390.85414 -7.1394833,391.15464 C -7.2179821,391.46533 -7.2644814,391.79636 -7.2644814,392.13053 L -7.2644814,783.08734 C -7.2644814,785.30927 -5.4235092,787.08538 -3.1395438,787.08537 L 1073.2191,787.08537 C 1075.5032,787.08537 1077.3441,785.30927 1077.3441,783.08734 L 1077.3441,392.13053 C 1077.3441,391.79636 1077.2977,391.46533 1077.2191,391.15464 C 1077.2929,390.85414 1077.3441,390.53373 1077.3441,390.21022 L 1077.3441,-0.74658629 C 1077.3441,-2.9685179 1075.5034,-4.7760952 1073.2191,-4.7760952 L -3.1395438,-4.7760952 z M 32.141222,5.9902489 L 318.91808,5.9902489 C 335.30364,5.9902489 348.48014,17.992323 348.48014,32.874629 L 348.48014,331.31013 C 348.48014,346.19245 335.30374,358.16303 318.91808,358.16303 L 32.141222,358.16303 C 15.75567,358.16303 2.5791696,346.19244 2.5791696,331.31013 L 2.5791696,32.874629 C 2.5791696,17.992323 15.75567,5.9902489 32.141222,5.9902489 z M 388.72953,5.9902489 L 675.50648,5.9902489 C 691.89203,5.9902489 705.06853,17.992323 705.06853,32.874629 L 705.06853,331.31013 C 705.06853,346.19245 691.89203,358.16303 675.50648,358.16303 L 388.72953,358.16303 C 372.34397,358.16303 359.16747,346.19244 359.16747,331.31013 L 359.16747,32.874629 C 359.16747,17.992323 372.34397,5.9902489 388.72953,5.9902489 z M 745.66162,5.9902489 L 1032.4386,5.9902489 C 1048.8241,5.9902489 1062.0006,17.992323 1062.0006,32.874629 L 1062.0006,331.31013 C 1062.0006,346.19245 1048.8241,358.16303 1032.4386,358.16303 L 745.66162,358.16303 C 729.27607,358.16303 716.09957,346.19244 716.09957,331.31013 L 716.09957,32.874629 C 716.09957,17.992323 729.27607,5.9902489 745.66162,5.9902489 z M 32.141222,398.86737 L 318.91808,398.86737 C 335.30364,398.86737 348.48014,410.86944 348.48014,425.75175 L 348.48014,724.18725 C 348.48014,739.06957 335.30374,751.04015 318.91808,751.04015 L 32.141222,751.04015 C 15.75567,751.04015 2.5791696,739.06956 2.5791696,724.18725 L 2.5791696,425.75175 C 2.5791696,410.86944 15.75567,398.86737 32.141222,398.86737 z M 388.72953,398.86737 L 675.50648,398.86737 C 691.89203,398.86737 705.06853,410.86944 705.06853,425.75175 L 705.06853,724.18725 C 705.06853,739.06957 691.89203,751.04015 675.50648,751.04015 L 388.72953,751.04015 C 372.34397,751.04015 359.16747,739.06956 359.16747,724.18725 L 359.16747,425.75175 C 359.16747,410.86944 372.34397,398.86737 388.72953,398.86737 z M 745.66162,398.86737 L 1032.4386,398.86737 C 1048.8241,398.86737 1062.0006,410.86944 1062.0006,425.75175 L 1062.0006,724.18725 C 1062.0006,739.06957 1048.8241,751.04015 1032.4386,751.04015 L 745.66162,751.04015 C 729.27607,751.04015 716.09957,739.06956 716.09957,724.18725 L 716.09957,425.75175 C 716.09957,410.86944 729.27607,398.86737 745.66162,398.86737 z"
       id="rect16715" />
    <text
       xml:space="preserve"
       style="font-size:18px;font-style:normal;font-variant:normal;font-weight:normal;font-stretch:normal;text-align:center;line-height:125%;writing-mode:lr-tb;text-anchor:middle;fill:#ffffff;fill-opacity:1;stroke:#ffffff;stroke-width:1pt;stroke-linecap:butt;stroke-linejoin:miter;stroke-opacity:1;display:inline;font-family:Sans"
       x="161.90993"
       y="384.6756"
       id="text2618"
       sodipodi:linespacing="125%"><tspan
         sodipodi:role="line"
         id="tspan2620"
         x="161.90993"
         y="384.6756">tira de linuxhispano.net</tspan></text>
    <text
       xml:space="preserve"
       style="font-size:18px;font-style:normal;font-variant:normal;font-weight:normal;font-stretch:normal;text-align:center;line-height:125%;writing-mode:lr-tb;text-anchor:middle;fill:#ffffff;fill-opacity:1;stroke:#ffffff;stroke-width:1pt;stroke-linecap:butt;stroke-linejoin:miter;stroke-opacity:1;display:inline;font-family:Sans"
       x="1014.7665"
       y="383.6756"
       id="text2622"
       sodipodi:linespacing="125%"><tspan
         sodipodi:role="line"
         id="tspan2624"
         x="1014.7665"
         y="383.6756">by danigm</tspan></text>
    <text
       sodipodi:linespacing="125%"
       id="text4260"
       y="384.6756"
       x="541.91003"
       style="font-size:18px;font-style:normal;font-variant:normal;font-weight:normal;font-stretch:normal;text-align:center;line-height:125%;writing-mode:lr-tb;text-anchor:middle;fill:#ffffff;fill-opacity:1;stroke:none;stroke-width:1pt;stroke-linecap:butt;stroke-linejoin:miter;stroke-opacity:1;display:inline;font-family:Sans"
       xml:space="preserve"><tspan
         y="384.6756"
         x="541.91003"
         id="tspan4262"
         sodipodi:role="line">imagenes en danigm.net</tspan></text>
  </g>
</svg>
