<?xml version="1.0" encoding="UTF-8" standalone="no"?>
<!-- Created with Inkscape (http://www.inkscape.org/) -->
<svg
   xmlns:dc="http://purl.org/dc/elements/1.1/"
   xmlns:cc="http://creativecommons.org/ns#"
   xmlns:rdf="http://www.w3.org/1999/02/22-rdf-syntax-ns#"
   xmlns:svg="http://www.w3.org/2000/svg"
   xmlns="http://www.w3.org/2000/svg"
   xmlns:sodipodi="http://sodipodi.sourceforge.net/DTD/sodipodi-0.dtd"
   xmlns:inkscape="http://www.inkscape.org/namespaces/inkscape"
   width="1063"
   height="756"
   id="svg2"
   sodipodi:version="0.32"
   inkscape:version="0.46"
   version="1.0"
   sodipodi:docname="escondite.svg"
   inkscape:output_extension="org.inkscape.output.svg.inkscape"
   sodipodi:docbase="/home/danigm/Documentos/linuxHispano/tira"
   inkscape:export-filename="/home/danigmArch/tira/escondite.png"
   inkscape:export-xdpi="60.110001"
   inkscape:export-ydpi="60.110001">
  <defs
     id="defs4">
    <inkscape:perspective
       sodipodi:type="inkscape:persp3d"
       id="perspective3033"
       inkscape:vp_x="-50 : 600 : 1"
       inkscape:vp_y="0 : 1000 : 0"
       inkscape:vp_z="700 : 600 : 1"
       inkscape:persp3d-origin="300 : 400 : 1" />
    <inkscape:perspective
       sodipodi:type="inkscape:persp3d"
       id="perspective3032"
       inkscape:vp_x="-50 : 600 : 1"
       inkscape:vp_y="0 : 1000 : 0"
       inkscape:vp_z="700 : 600 : 1"
       inkscape:persp3d-origin="300 : 400 : 1" />
    <inkscape:perspective
       sodipodi:type="inkscape:persp3d"
       id="perspective3031"
       inkscape:vp_x="-50 : 600 : 1"
       inkscape:vp_y="0 : 1000 : 0"
       inkscape:vp_z="700 : 600 : 1"
       inkscape:persp3d-origin="300 : 400 : 1" />
    <inkscape:perspective
       sodipodi:type="inkscape:persp3d"
       id="perspective3030"
       inkscape:vp_x="-50 : 600 : 1"
       inkscape:vp_y="0 : 1000 : 0"
       inkscape:vp_z="700 : 600 : 1"
       inkscape:persp3d-origin="300 : 400 : 1" />
    <inkscape:perspective
       sodipodi:type="inkscape:persp3d"
       id="perspective3029"
       inkscape:vp_x="-50 : 600 : 1"
       inkscape:vp_y="0 : 1000 : 0"
       inkscape:vp_z="700 : 600 : 1"
       inkscape:persp3d-origin="300 : 400 : 1" />
    <inkscape:perspective
       sodipodi:type="inkscape:persp3d"
       id="perspective2997"
       inkscape:vp_x="-50 : 600 : 1"
       inkscape:vp_y="0 : 1000 : 0"
       inkscape:vp_z="700 : 600 : 1"
       inkscape:persp3d-origin="300 : 400 : 1" />
    <inkscape:perspective
       sodipodi:type="inkscape:persp3d"
       id="perspective2996"
       inkscape:vp_x="-50 : 600 : 1"
       inkscape:vp_y="0 : 1000 : 0"
       inkscape:vp_z="700 : 600 : 1"
       inkscape:persp3d-origin="300 : 400 : 1" />
  </defs>
  <sodipodi:namedview
     id="base"
     pagecolor="#ffffff"
     bordercolor="#666666"
     borderopacity="1.0"
     inkscape:pageopacity="1"
     inkscape:pageshadow="2"
     inkscape:zoom="0.44659939"
     inkscape:cx="847.03985"
     inkscape:cy="354.62"
     inkscape:document-units="px"
     inkscape:current-layer="layer2"
     width="1062.99px"
     borderlayer="true"
     inkscape:window-width="1266"
     inkscape:window-height="745"
     inkscape:window-x="33"
     inkscape:window-y="26"
     showgrid="false" />
  <metadata
     id="metadata7">
    <rdf:RDF>
      <cc:Work
         rdf:about="">
        <dc:format>image/svg+xml</dc:format>
        <dc:type
           rdf:resource="http://purl.org/dc/dcmitype/StillImage" />
        <dc:title />
        <dc:date />
        <dc:creator>
          <cc:Agent>
            <dc:title />
          </cc:Agent>
        </dc:creator>
        <dc:rights>
          <cc:Agent>
            <dc:title />
          </cc:Agent>
        </dc:rights>
        <dc:publisher>
          <cc:Agent>
            <dc:title />
          </cc:Agent>
        </dc:publisher>
        <dc:identifier />
        <dc:source />
        <dc:relation />
        <dc:language />
        <dc:subject>
          <rdf:Bag />
        </dc:subject>
        <dc:coverage />
        <dc:description />
        <dc:contributor>
          <cc:Agent>
            <dc:title />
          </cc:Agent>
        </dc:contributor>
        <cc:license
           rdf:resource="" />
      </cc:Work>
      <cc:Work
         rdf:about="">
        <dc:format>image/svg+xml</dc:format>
        <dc:type
           rdf:resource="http://purl.org/dc/dcmitype/StillImage" />
      </cc:Work>
    </rdf:RDF>
  </metadata>
  <g
     inkscape:label="fondo"
     inkscape:groupmode="layer"
     id="layer1"
     sodipodi:insensitive="true">
    <rect
       style="opacity:1;fill:#0000ff;fill-opacity:1;fill-rule:nonzero;stroke:#000000;stroke-width:4;stroke-linecap:round;stroke-linejoin:round;stroke-miterlimit:4;stroke-dasharray:none;stroke-dashoffset:0;stroke-opacity:1;display:inline"
       id="rect4585"
       width="1150.5601"
       height="856.79999"
       x="-39.900002"
       y="-27.019989"
       rx="15.548299"
       ry="10.315682" />
    <path
       sodipodi:type="arc"
       style="opacity:1;fill:#ffffff;fill-opacity:0.58035715;fill-rule:nonzero;stroke:none;stroke-width:3.80038881;stroke-linecap:round;stroke-linejoin:round;stroke-miterlimit:4;stroke-dasharray:none;stroke-dashoffset:0;stroke-opacity:1;display:inline"
       id="path4587"
       sodipodi:cx="581.40002"
       sodipodi:cy="374.85001"
       sodipodi:rx="535.5"
       sodipodi:ry="273.87"
       d="M 1116.9,374.85001 A 535.5,273.87 0 1 1 45.900024,374.85001 A 535.5,273.87 0 1 1 1116.9,374.85001 z"
       transform="matrix(0.9981395,0,0,1.1098713,-48.81833,-38.035264)" />
    <path
       sodipodi:type="arc"
       style="fill:#ff0000;fill-opacity:1;stroke:#000000;stroke-width:1;stroke-linecap:round;stroke-linejoin:miter;stroke-miterlimit:4;stroke-dasharray:none;stroke-opacity:1;display:inline"
       id="path2819"
       sodipodi:cx="1411.7009"
       sodipodi:cy="253.46965"
       sodipodi:rx="53.76445"
       sodipodi:ry="53.76445"
       d="M 1465.4654,253.46965 A 53.76445,53.76445 0 1 1 1357.9365,253.46965 A 53.76445,53.76445 0 1 1 1465.4654,253.46965 z"
       transform="translate(-211.98567,488.70551)" />
    <path
       d="M 1465.4654,253.46965 A 53.76445,53.76445 0 1 1 1357.9365,253.46965 A 53.76445,53.76445 0 1 1 1465.4654,253.46965 z"
       sodipodi:ry="53.76445"
       sodipodi:rx="53.76445"
       sodipodi:cy="253.46965"
       sodipodi:cx="1411.7009"
       id="path2821"
       style="fill:#0000ff;fill-opacity:1;stroke:#000000;stroke-width:1;stroke-linecap:round;stroke-linejoin:miter;stroke-miterlimit:4;stroke-dasharray:none;stroke-opacity:1;display:inline"
       sodipodi:type="arc"
       transform="translate(-91.985679,488.70551)" />
    <path
       transform="translate(30.014325,488.70551)"
       sodipodi:type="arc"
       style="fill:#00ff00;fill-opacity:1;stroke:#000000;stroke-width:1;stroke-linecap:round;stroke-linejoin:miter;stroke-miterlimit:4;stroke-dasharray:none;stroke-opacity:1;display:inline"
       id="path2823"
       sodipodi:cx="1411.7009"
       sodipodi:cy="253.46965"
       sodipodi:rx="53.76445"
       sodipodi:ry="53.76445"
       d="M 1465.4654,253.46965 A 53.76445,53.76445 0 1 1 1357.9365,253.46965 A 53.76445,53.76445 0 1 1 1465.4654,253.46965 z" />
    <path
       d="M 1465.4654,253.46965 A 53.76445,53.76445 0 1 1 1357.9365,253.46965 A 53.76445,53.76445 0 1 1 1465.4654,253.46965 z"
       sodipodi:ry="53.76445"
       sodipodi:rx="53.76445"
       sodipodi:cy="253.46965"
       sodipodi:cx="1411.7009"
       id="path2825"
       style="fill:#ffff00;fill-opacity:1;stroke:#000000;stroke-width:1;stroke-linecap:round;stroke-linejoin:miter;stroke-miterlimit:4;stroke-dasharray:none;stroke-opacity:1;display:inline"
       sodipodi:type="arc"
       transform="translate(150.01433,488.70551)" />
    <path
       transform="translate(270.01433,488.70551)"
       sodipodi:type="arc"
       style="fill:#800080;fill-opacity:1;stroke:#000000;stroke-width:1;stroke-linecap:round;stroke-linejoin:miter;stroke-miterlimit:4;stroke-dasharray:none;stroke-opacity:1;display:inline"
       id="path2827"
       sodipodi:cx="1411.7009"
       sodipodi:cy="253.46965"
       sodipodi:rx="53.76445"
       sodipodi:ry="53.76445"
       d="M 1465.4654,253.46965 A 53.76445,53.76445 0 1 1 1357.9365,253.46965 A 53.76445,53.76445 0 1 1 1465.4654,253.46965 z" />
  </g>
  <g
     inkscape:groupmode="layer"
     id="layer2"
     inkscape:label="dibujos">
    <g
       id="g4570"
       transform="matrix(-0.3296285,0.6272701,-0.6272701,-0.3296285,1367.0824,558.4762)">
      <g
         transform="matrix(0.6557502,-5.4984094e-2,5.4984094e-2,0.6557502,-932.21721,283.43809)"
         inkscape:transform-center-y="-6.1622439"
         inkscape:transform-center-x="-6.6507783"
         id="g4572">
        <rect
           rx="5.9244399"
           ry="5.9244399"
           y="-435.39514"
           x="2084.4009"
           height="31.785524"
           width="5.9731178"
           id="rect4574"
           style="fill:#cccccc;fill-opacity:1;fill-rule:nonzero;stroke:#000000;stroke-width:1.41122091;stroke-linecap:butt;stroke-linejoin:round;stroke-miterlimit:4;stroke-dasharray:none;stroke-opacity:1"
           transform="matrix(0.6198235,0.7847413,-0.7847413,0.6198235,0,0)" />
        <path
           id="path4576"
           d="M 1618.8049,1383.8827 L 1631.8316,1373.009 L 1631.0889,1372.7896 L 1618.9003,1382.8238 L 1618.8049,1383.8827 z"
           style="fill:#ffffff;fill-opacity:1;fill-rule:nonzero;stroke:none;stroke-width:1;stroke-linecap:butt;stroke-linejoin:round;stroke-miterlimit:4;stroke-dasharray:none;stroke-opacity:1" />
      </g>
      <g
         inkscape:transform-center-y="8.6773905"
         inkscape:transform-center-x="6.5510517"
         transform="matrix(4.5624886e-3,-0.6580355,0.6580355,4.5624886e-3,-719.42452,2159.3041)"
         id="g4578">
        <rect
           style="fill:#cccccc;fill-opacity:1;fill-rule:nonzero;stroke:#000000;stroke-width:1.41122079;stroke-linecap:butt;stroke-linejoin:round;stroke-miterlimit:4;stroke-dasharray:none;stroke-opacity:1"
           id="rect4580"
           width="5.9731174"
           height="31.785521"
           x="-187.26065"
           y="2086.7573"
           ry="5.9244399"
           rx="5.9244399"
           transform="matrix(0.584065,-0.8117069,0.8117069,0.584065,0,0)" />
        <path
           style="fill:#ffffff;fill-opacity:1;fill-rule:nonzero;stroke:none;stroke-width:1;stroke-linecap:butt;stroke-linejoin:round;stroke-miterlimit:4;stroke-dasharray:none;stroke-opacity:1"
           d="M 1587.8529,1372.1075 L 1605.5093,1384.8122 L 1605.5448,1383.8201 L 1589.198,1371.8881 L 1587.8529,1372.1075 z"
           id="path4582" />
      </g>
      <g
         transform="matrix(0.5648622,0.337583,-0.337583,0.5648622,-241.38586,-223.42352)"
         id="g4584">
        <path
           transform="matrix(0.4492809,-0.6243902,0.6243902,0.4492809,1435.5154,1471.7425)"
           d="M 231.77896,121.57761 A 7.873302,7.873302 0 1 1 216.03235,121.57761 A 7.873302,7.873302 0 1 1 231.77896,121.57761 z"
           sodipodi:ry="7.873302"
           sodipodi:rx="7.873302"
           sodipodi:cy="121.57761"
           sodipodi:cx="223.90565"
           id="path4586"
           style="fill:#cccccc;fill-opacity:1;fill-rule:nonzero;stroke:#000000;stroke-width:1.83458674;stroke-linecap:butt;stroke-linejoin:round;stroke-miterlimit:4;stroke-dasharray:none;stroke-opacity:1"
           sodipodi:type="arc" />
        <path
           sodipodi:type="arc"
           style="fill:#ffffff;fill-opacity:1;fill-rule:nonzero;stroke:none;stroke-width:0.80720383;stroke-linecap:butt;stroke-linejoin:round;stroke-miterlimit:4;stroke-dasharray:none;stroke-opacity:1"
           id="path4588"
           sodipodi:cx="223.90565"
           sodipodi:cy="121.57761"
           sodipodi:rx="7.873302"
           sodipodi:ry="7.873302"
           d="M 231.77896,121.57761 A 7.873302,7.873302 0 1 1 216.03235,121.57761 A 7.873302,7.873302 0 1 1 231.77896,121.57761 z"
           transform="matrix(0.100465,-0.1396217,0.1396217,0.100465,1570.2308,1407.7417)" />
      </g>
      <g
         transform="matrix(0.6557502,-5.4984094e-2,5.4984094e-2,0.6557502,-932.21721,283.43809)"
         inkscape:transform-center-y="-19.98967"
         inkscape:transform-center-x="-17.066912"
         id="g4590">
        <path
           style="fill:#cccccc;fill-opacity:1;fill-rule:nonzero;stroke:#000000;stroke-width:1.41122079;stroke-linecap:butt;stroke-linejoin:round;stroke-miterlimit:4;stroke-dasharray:none;stroke-opacity:1"
           d="M 1625.4971,1352.8929 L 1626.0387,1359.2879 L 1633.068,1363.4838 L 1636.4883,1361.6638 L 1629.5555,1357.9537 L 1629.3542,1352.9036 L 1625.4971,1352.8929 z M 1634.7179,1345.6146 L 1639.2705,1352.9633 L 1638.1634,1359.9557 L 1640.758,1360.8119 L 1641.9517,1352.3358 L 1639.1654,1342.0366 L 1634.7179,1345.6146 z M 1643.1174,1363.1933 L 1644.2185,1365.1748 L 1650.455,1361.0111 L 1655.7155,1362.418 L 1656.0236,1357.7343 L 1649.7289,1358.467 L 1643.1174,1363.1933 z M 1643.282,1369.0792 L 1643.4643,1370.7265 L 1647.6787,1371.2321 L 1650.0094,1374.6037 L 1652.5688,1372.6994 L 1648.8438,1369.3651 L 1643.282,1369.0792 z"
           id="path4592" />
        <path
           sodipodi:type="arc"
           style="fill:#cccccc;fill-opacity:1;fill-rule:nonzero;stroke:#000000;stroke-width:1.47691536;stroke-linecap:butt;stroke-linejoin:round;stroke-miterlimit:4;stroke-dasharray:none;stroke-opacity:1"
           id="path4594"
           sodipodi:cx="223.90565"
           sodipodi:cy="121.57761"
           sodipodi:rx="7.873302"
           sodipodi:ry="7.873302"
           d="M 231.77896,121.57761 A 7.873302,7.873302 0 1 1 216.03235,121.57761 A 7.873302,7.873302 0 1 1 231.77896,121.57761 z"
           transform="matrix(0.5580852,-0.7756015,0.7756015,0.5580852,1418.3319,1472.7115)" />
        <path
           transform="matrix(0.2150335,-0.2988437,0.2988437,0.2150335,1556.3475,1410.0025)"
           d="M 231.77896,121.57761 A 7.873302,7.873302 0 1 1 216.03235,121.57761 A 7.873302,7.873302 0 1 1 231.77896,121.57761 z"
           sodipodi:ry="7.873302"
           sodipodi:rx="7.873302"
           sodipodi:cy="121.57761"
           sodipodi:cx="223.90565"
           id="path4596"
           style="fill:#ffffff;fill-opacity:1;fill-rule:nonzero;stroke:none;stroke-width:0.80720383;stroke-linecap:butt;stroke-linejoin:round;stroke-miterlimit:4;stroke-dasharray:none;stroke-opacity:1"
           sodipodi:type="arc" />
      </g>
    </g>
    <path
       style="fill:#ffe5b9;fill-opacity:1;fill-rule:evenodd;stroke:#000000;stroke-width:1.25;stroke-linecap:butt;stroke-linejoin:miter;stroke-miterlimit:4;stroke-opacity:1;display:inline"
       d="M 591.31362,289.7587 L 590.3075,301.16131 L 583.93546,304.17969 L 592.31973,314.91153 L 600.704,303.50892 L 593.66122,300.49061 L 594.66732,291.10023 L 591.31362,289.7587 z"
       id="path2749" />
    <path
       sodipodi:type="arc"
       style="fill:#ffe5b9;fill-opacity:1;stroke:#000000;stroke-width:1.76402628;stroke-miterlimit:4;stroke-opacity:1;display:inline"
       id="path2750"
       sodipodi:cx="54.664104"
       sodipodi:cy="525.42224"
       sodipodi:rx="6.8625937"
       sodipodi:ry="6.8625937"
       d="M 61.526698,525.42224 A 6.8625937,6.8625937 0 1 1 47.801511,525.42224 A 6.8625937,6.8625937 0 1 1 61.526698,525.42224 z"
       transform="matrix(0.7310924,0,0,0.5079048,531.20102,4.6279735)" />
    <path
       sodipodi:type="arc"
       style="fill:#ffe5b9;fill-opacity:1;stroke:#000000;stroke-width:1.76402628;stroke-miterlimit:4;stroke-opacity:1;display:inline"
       id="path2751"
       sodipodi:cx="129.67935"
       sodipodi:cy="524.94897"
       sodipodi:rx="6.6259522"
       sodipodi:ry="5.4427466"
       d="M 136.3053,524.94897 A 6.6259522,5.4427466 0 1 1 123.0534,524.94897 A 6.6259522,5.4427466 0 1 1 136.3053,524.94897 z"
       transform="matrix(0.7086062,0,0,0.7086062,532.5979,-101.33027)" />
    <path
       sodipodi:type="arc"
       style="fill:#ffe5b9;fill-opacity:1;stroke:#000000;stroke-width:2.58860445;stroke-miterlimit:4;stroke-opacity:1;display:inline"
       id="path2754"
       sodipodi:cx="99.152641"
       sodipodi:cy="518.55963"
       sodipodi:rx="51.824413"
       sodipodi:ry="51.587772"
       d="M 150.97705,518.55963 A 51.824413,51.587772 0 1 1 47.328228,518.55963 A 51.824413,51.587772 0 1 1 150.97705,518.55963 z"
       transform="matrix(0.4741468,0,0,0.4917855,550.92529,14.206983)" />
    <path
       sodipodi:type="arc"
       style="fill:#ffe5b9;fill-opacity:1;stroke:#000000;stroke-width:1.76402628;stroke-miterlimit:4;stroke-opacity:1;display:inline"
       id="path2755"
       sodipodi:cx="79.984711"
       sodipodi:cy="504.59781"
       sodipodi:rx="17.038162"
       sodipodi:ry="17.274805"
       d="M 97.022873,504.59781 A 17.038162,17.274805 0 1 1 62.946548,504.59781 A 17.038162,17.274805 0 1 1 97.022873,504.59781 z"
       transform="matrix(0.7086062,0,0,0.7086062,535.94415,-90.452877)" />
    <path
       sodipodi:type="arc"
       style="fill:#ffe5b9;fill-opacity:1;stroke:#000000;stroke-width:1.76402628;stroke-miterlimit:4;stroke-opacity:1;display:inline"
       id="path2756"
       sodipodi:cx="109.56486"
       sodipodi:cy="504.59781"
       sodipodi:rx="12.541981"
       sodipodi:ry="13.488545"
       d="M 122.10684,504.59781 A 12.541981,13.488545 0 1 1 97.022877,504.59781 A 12.541981,13.488545 0 1 1 122.10684,504.59781 z"
       transform="matrix(0.7086062,0,0,0.7086062,535.94415,-89.782111)" />
    <path
       style="fill:#000000;fill-opacity:1;fill-rule:nonzero;stroke:none;stroke-width:1pt;stroke-linecap:butt;stroke-linejoin:miter;stroke-opacity:1;display:inline"
       id="path2757"
       d="M 590.9626,248.12356 C 583.71761,249.03995 601.05654,239.67486 603.44587,239.27582 C 601.22989,242.29429 598.61289,245.02572 595.84423,247.54689 C 603.02341,243.05422 612.24312,238.39736 600.19624,248.56098 C 601.63924,249.32606 610.90965,242.59666 615.47294,244.15346 L 615.12729,245.04674 C 611.43346,244.61689 598.58565,251.96214 599.57936,247.82826 C 611.03073,238.20634 603.76722,245.09104 596.27441,248.40268 C 593.03556,247.4186 600.93519,239.98945 603.36811,240.23048 C 601.35613,240.83062 585.99194,249.76505 590.60687,247.23424 L 590.9626,248.12356 z" />
    <g
       style="display:inline"
       id="g2758"
       transform="matrix(-0.7086062,0,0,0.7086062,650.82424,-102.31183)">
      <path
         style="fill:#ffffff;fill-opacity:1;fill-rule:evenodd;stroke:#000000;stroke-width:1.76402628;stroke-linecap:butt;stroke-linejoin:miter;stroke-miterlimit:4;stroke-opacity:1"
         d="M 61.053417,633.09397 C 33.603044,634.51381 32.656479,646.81915 32.656479,646.81915 C 32.656479,656.75808 85.664097,651.55198 85.664097,651.55198 L 85.664097,635.46038 L 61.053417,633.09397 z"
         id="path2759"
         sodipodi:nodetypes="ccccc" />
      <path
         style="fill:#000000;fill-opacity:1;fill-rule:nonzero;stroke:none;stroke-width:1pt;stroke-linecap:butt;stroke-linejoin:miter;stroke-opacity:1"
         id="path2760"
         d="M 47.091589,633.83797 C 56.984628,634.61994 61.315987,641.7029 57.807393,650.68263 L 56.549444,650.18802 C 59.749959,642.10249 56.066216,635.95637 47.091589,635.18966 L 47.091589,633.83797 z" />
      <path
         style="fill:#000000;fill-opacity:1;fill-rule:nonzero;stroke:none;stroke-width:1pt;stroke-linecap:butt;stroke-linejoin:miter;stroke-opacity:1"
         id="path2761"
         d="M 55.137389,632.8914 C 66.681678,632.89279 70.902805,642.0118 66.474303,652.01826 L 65.238683,651.47024 C 69.296349,642.34188 65.745749,634.2404 55.137389,634.2431 L 55.137389,632.8914 z" />
    </g>
    <g
       style="display:inline"
       id="g2762"
       transform="matrix(0.7086062,0,0,0.7086062,529.40393,-102.31183)">
      <path
         style="fill:#ffffff;fill-opacity:1;fill-rule:evenodd;stroke:#000000;stroke-width:1.76402628;stroke-linecap:butt;stroke-linejoin:miter;stroke-miterlimit:4;stroke-opacity:1"
         d="M 61.053417,633.09397 C 33.603044,634.51381 32.656479,646.81915 32.656479,646.81915 C 32.656479,656.75808 85.664097,651.55198 85.664097,651.55198 L 85.664097,635.46038 L 61.053417,633.09397 z"
         id="path2763"
         sodipodi:nodetypes="ccccc" />
      <path
         style="fill:#000000;fill-opacity:1;fill-rule:nonzero;stroke:none;stroke-width:1pt;stroke-linecap:butt;stroke-linejoin:miter;stroke-opacity:1"
         id="path2764"
         d="M 47.091589,633.83797 C 56.984628,634.61994 61.315987,641.7029 57.807393,650.68263 L 56.549444,650.18802 C 59.749959,642.10249 56.066216,635.95637 47.091589,635.18966 L 47.091589,633.83797 z" />
      <path
         style="fill:#000000;fill-opacity:1;fill-rule:nonzero;stroke:none;stroke-width:1pt;stroke-linecap:butt;stroke-linejoin:miter;stroke-opacity:1"
         id="path2765"
         d="M 55.137389,632.8914 C 66.681678,632.89279 70.902805,642.0118 66.474303,652.01826 L 65.238683,651.47024 C 69.296349,642.34188 65.745749,634.2404 55.137389,634.2431 L 55.137389,632.8914 z" />
    </g>
    <g
       style="display:inline"
       id="g2766"
       transform="matrix(0.7086062,0,0,0.7086062,529.94077,-102.84867)">
      <path
         style="fill:#ffffff;fill-opacity:1;fill-rule:evenodd;stroke:#000000;stroke-width:1.99429047;stroke-linecap:butt;stroke-linejoin:miter;stroke-miterlimit:4;stroke-opacity:1"
         d="M 62.946547,630.72755 L 53.480901,657.23136 C 63.419829,661.96419 83.297686,660.07106 83.297686,660.07106 C 93.709897,665.75045 115.48088,658.65121 115.48088,658.65121 L 106.48852,626.46801 L 62.946547,630.72755 z"
         id="path2767"
         transform="matrix(0.859835,0,0,0.909951,14.03942,35.05921)" />
      <path
         style="fill:none;fill-opacity:0.75;fill-rule:evenodd;stroke:#000000;stroke-width:1.99429047;stroke-linecap:butt;stroke-linejoin:miter;stroke-miterlimit:4;stroke-opacity:1"
         d="M 79.038145,636.40694 L 76.198451,646.34587 L 92.29005,644.92602"
         id="path2768"
         transform="matrix(0.859835,0,0,0.909951,14.03942,35.05921)" />
      <path
         style="fill:none;fill-opacity:0.75;fill-rule:evenodd;stroke:#000000;stroke-width:1.99429047;stroke-linecap:butt;stroke-linejoin:miter;stroke-miterlimit:4;stroke-opacity:1"
         d="M 85.664097,635.93366 L 83.297686,659.59778"
         id="path2769"
         transform="matrix(0.859835,0,0,0.909951,14.03942,35.05921)" />
    </g>
    <path
       id="path3207"
       d="M 577.55932,313.55341 L 574.89512,317.93033 L 553.96217,310.12801 L 553.58156,314.12434 L 576.41752,321.35573 L 580.9847,313.93401 L 577.55932,313.55341 z"
       style="fill:#ffe5b9;fill-opacity:1;fill-rule:nonzero;stroke:#000000;stroke-width:1;stroke-linecap:butt;stroke-linejoin:round;stroke-miterlimit:4;stroke-dasharray:none;stroke-dashoffset:0;stroke-opacity:1" />
    <path
       style="fill:#ff9f00;fill-opacity:1;fill-rule:evenodd;stroke:#000000;stroke-width:1.25;stroke-linecap:butt;stroke-linejoin:miter;stroke-miterlimit:4;stroke-opacity:1;display:inline"
       d="M 585.51351,301.61815 L 591.47635,305.31962 L 600.84653,301.84951 L 609.64881,314.34202 L 601.41442,317.34956 L 599.14286,307.63308 L 606.52542,330.07343 C 597.43919,334.00627 577.27911,330.30479 577.27911,330.30479 L 584.09379,308.0958 L 581.25434,318.27493 L 573.01994,315.26746 L 585.51351,301.61815 z"
       id="path2770"
       sodipodi:nodetypes="cccccccccccc" />
    <g
       style="display:inline"
       id="g2771"
       transform="matrix(1.1197119,0,0,1.1197119,495.91754,-347.90332)">
      <path
         style="fill:#0f00ff;fill-opacity:1;fill-rule:nonzero;stroke:none;stroke-width:1pt;stroke-linecap:butt;stroke-linejoin:miter;stroke-opacity:1"
         id="path2772"
         d="M 79.568221,591.68176 C 82.838639,586.37899 86.606381,599.82234 86.896294,602.80548 L 84.653752,603.02047 C 84.358094,599.88873 83.324998,597.0955 81.774796,594.35499 C 81.221941,593.37763 79.151532,592.46562 79.852664,591.58853 C 81.628227,589.36736 81.799378,590.49833 81.821045,591.68176 L 79.568221,591.68176 z" />
      <path
         style="fill:#0f00ff;fill-opacity:1;fill-rule:nonzero;stroke:none;stroke-width:1pt;stroke-linecap:butt;stroke-linejoin:miter;stroke-opacity:1"
         id="path2773"
         d="M 78.527773,594.98355 C 80.536194,593.14428 90.732009,584.28259 91.733808,589.57677 L 89.659031,588.69898 C 90.66973,590.68599 89.627535,589.42328 90.85924,589.8436 C 91.166691,589.94852 79.040717,595.76383 80.25844,596.42578 L 78.527773,594.98355 z" />
      <path
         style="fill:#0f00ff;fill-opacity:1;fill-rule:nonzero;stroke:none;stroke-width:1pt;stroke-linecap:butt;stroke-linejoin:miter;stroke-opacity:1"
         id="path2774"
         d="M 80.15824,596.56287 C 83.323198,594.74075 87.87671,593.03 91.562656,594.32379 L 90.665822,596.39041 C 87.543144,596.06417 84.193404,596.57796 81.467667,598.39607 L 80.15824,596.56287 z" />
    </g>
    <path
       style="opacity:1;fill:#ffeec4;fill-opacity:1;fill-rule:nonzero;stroke:#000000;stroke-width:1;stroke-linecap:butt;stroke-linejoin:round;stroke-miterlimit:4;stroke-dasharray:none;stroke-dashoffset:0;stroke-opacity:1"
       d="M 75.670126,279.41407 L 64.706927,274.55495 L 94.815855,258.86744 L 90.146165,252.32987 C 90.146165,252.32987 56.057427,271.4756 55.590458,274.27741 C 55.123489,277.07923 75.203157,287.35255 75.203157,287.35255 L 75.670126,279.41407 z"
       id="path3157"
       sodipodi:nodetypes="ccccscc" />
    <path
       sodipodi:nodetypes="ccccscc"
       id="path3159"
       d="M 118.72816,279.41407 L 129.69136,274.55495 L 99.58244,258.86744 L 104.25212,252.32987 C 104.25212,252.32987 138.34086,271.4756 138.80783,274.27741 C 139.2748,277.07923 119.19513,287.35255 119.19513,287.35255 L 118.72816,279.41407 z"
       style="opacity:1;fill:#ffeec4;fill-opacity:1;fill-rule:nonzero;stroke:#000000;stroke-width:1;stroke-linecap:butt;stroke-linejoin:round;stroke-miterlimit:4;stroke-dasharray:none;stroke-dashoffset:0;stroke-opacity:1" />
    <g
       transform="translate(-515.20399,-280.71361)"
       style="fill:#000000;fill-opacity:1;stroke:none;stroke-width:0.125;stroke-miterlimit:4;stroke-opacity:1;display:inline"
       id="g3113">
      <path
         d="M 607.2367,545.43155 C 606.08212,547.26231 604.9276,549.09241 603.8229,550.9538 L 602.94589,550.43308 C 604.05211,548.57079 605.20586,546.73835 606.3621,544.90679 L 607.2367,545.43155 z"
         id="path3115"
         style="fill-rule:nonzero;stroke-linecap:butt;stroke-linejoin:miter" />
      <path
         d="M 608.99652,546.06684 C 608.07973,547.98873 607.72734,550.0935 607.40375,552.178 L 606.39593,552.02123 C 606.73704,549.83274 607.11616,547.62601 608.08425,545.61071 L 608.99652,546.06684 z"
         id="path3117"
         style="fill-rule:nonzero;stroke-linecap:butt;stroke-linejoin:miter" />
      <path
         d="M 611.04396,546.76599 C 610.39259,549.6446 610.60183,552.56547 610.674,555.48529 L 609.65436,555.51047 C 609.58009,552.49906 609.3757,549.48611 610.05446,546.51862 L 611.04396,546.76599 z"
         id="path3119"
         style="fill-rule:nonzero;stroke-linecap:butt;stroke-linejoin:miter" />
      <path
         d="M 614.08554,545.87855 C 615.10551,548.04922 615.47765,550.43673 616.00176,552.75734 L 615.00686,552.98199 C 614.50104,550.74148 614.14653,548.43463 613.17327,546.33469 L 614.08554,545.87855 z"
         id="path3121"
         style="fill-rule:nonzero;stroke-linecap:butt;stroke-linejoin:miter" />
      <path
         d="M 617.37922,545.59664 C 619.80173,546.20027 620.68004,548.75811 621.6418,550.81349 L 620.71669,551.243 C 619.90288,549.50244 619.21601,547.43498 617.37922,546.61659 L 617.37922,545.59664 z"
         id="path3123"
         style="fill-rule:nonzero;stroke-linecap:butt;stroke-linejoin:miter" />
      <path
         d="M 620.38768,547.50131 C 619.70796,542.67423 624.01727,548.93674 624.86266,550.60901 L 623.95755,551.07919 C 623.31224,549.77269 619.47675,544.14459 621.33468,547.12251 L 620.38768,547.50131 z"
         id="path3125"
         style="fill-rule:nonzero;stroke-linecap:butt;stroke-linejoin:miter" />
    </g>
    <path
       sodipodi:nodetypes="cccccc"
       id="path3131"
       d="M 75.974452,332.47318 L 72.949202,347.35698 C 81.495042,349.87948 93.473082,348.11288 93.473082,348.11288 C 102.42586,351.13998 115.84227,347.73488 115.84227,347.73488 L 113.41336,330.20288 L 75.974452,332.47318 z"
       style="fill:#0600ff;fill-opacity:1;fill-rule:evenodd;stroke:#000000;stroke-width:1.25;stroke-linecap:butt;stroke-linejoin:miter;stroke-miterlimit:4;stroke-opacity:1;display:inline" />
    <path
       id="path3133"
       d="M 95.937202,264.25138 L 94.517352,280.34298 L 85.524992,284.60248 L 97.357052,299.74748 L 109.1891,283.65588 L 99.250182,279.39638 L 100.67002,266.14448 L 95.937202,264.25138 z"
       style="fill:#ffeec4;fill-opacity:1;fill-rule:evenodd;stroke:#000000;stroke-width:1.25;stroke-linecap:butt;stroke-linejoin:miter;stroke-miterlimit:4;stroke-opacity:1;display:inline" />
    <path
       sodipodi:nodetypes="ccccc"
       id="path3135"
       d="M 119.62395,353.13788 C 147.07434,354.55768 148.0209,366.86308 148.0209,366.86308 C 148.0209,376.80198 95.013282,371.59588 95.013282,371.59588 L 95.013282,355.50428 L 119.62395,353.13788 z"
       style="fill:#ffffff;fill-opacity:1;fill-rule:evenodd;stroke:#000000;stroke-width:1.25;stroke-linecap:butt;stroke-linejoin:miter;stroke-miterlimit:4;stroke-opacity:1;display:inline" />
    <path
       sodipodi:nodetypes="ccccc"
       id="path3137"
       d="M 70.379902,353.13788 C 42.929522,354.55768 41.982962,366.86308 41.982962,366.86308 C 41.982962,376.80198 94.990582,371.59588 94.990582,371.59588 L 94.990582,355.50428 L 70.379902,353.13788 z"
       style="fill:#ffffff;fill-opacity:1;fill-rule:evenodd;stroke:#000000;stroke-width:1.25;stroke-linecap:butt;stroke-linejoin:miter;stroke-miterlimit:4;stroke-opacity:1;display:inline" />
    <path
       transform="matrix(1,0,0,1.138058,-515.20399,-351.80331)"
       d="M 643.56059,503.9519 A 29.545454,40.530304 0 1 1 584.46968,503.9519 A 29.545454,40.530304 0 1 1 643.56059,503.9519 z"
       sodipodi:ry="40.530304"
       sodipodi:rx="29.545454"
       sodipodi:cy="503.9519"
       sodipodi:cx="614.01514"
       id="path3139"
       style="fill:#ffeec4;fill-opacity:1;stroke:#000000;stroke-width:1.25;stroke-miterlimit:4;stroke-opacity:1;display:inline"
       sodipodi:type="arc" />
    <path
       sodipodi:nodetypes="ccccccccc"
       id="path3141"
       d="M 94.655192,355.13248 C 102.52889,356.49018 108.51055,356.54268 116.24686,355.13248 C 117.09989,355.12158 117.57252,352.92578 117.48192,351.12278 C 117.50594,349.50688 117.49384,347.58508 116.83651,346.63268 C 116.30461,345.93488 115.67459,346.31658 115.09242,346.21798 C 106.93908,348.00098 103.49869,347.73318 94.655192,346.21798 C 93.802182,346.22888 93.329552,348.42478 93.420152,350.22788 C 93.396132,351.84368 93.408232,353.76538 94.065562,354.71778 C 94.240292,354.98388 94.446902,355.13428 94.655192,355.13248 z"
       style="fill:#ff8c00;fill-opacity:1;stroke:#000000;stroke-width:1.25;stroke-miterlimit:4;stroke-opacity:1;display:inline" />
    <path
       sodipodi:nodetypes="ccccccccc"
       id="path3143"
       d="M 71.927922,355.89008 C 79.801622,357.24768 85.783282,357.30028 93.519602,355.89008 C 94.372632,355.87918 94.845262,353.68328 94.754662,351.88038 C 94.778682,350.26448 94.766582,348.34268 94.109252,347.39018 C 93.577352,346.69248 92.947332,347.07418 92.365162,346.97558 C 84.211812,348.75858 80.771422,348.49068 71.927922,346.97558 C 71.074912,346.98648 70.602282,349.18238 70.692882,350.98548 C 70.668862,352.60128 70.680962,354.52298 71.338292,355.47538 C 71.513022,355.74148 71.719632,355.89188 71.927922,355.89008 z"
       style="fill:#ff8c00;fill-opacity:1;stroke:#000000;stroke-width:1.25;stroke-miterlimit:4;stroke-opacity:1;display:inline" />
    <path
       sodipodi:open="true"
       sodipodi:end="3.1415927"
       sodipodi:start="0"
       transform="matrix(1,0,0,-1.138058,-515.20399,795.68138)"
       d="M 643.56059,503.9519 A 29.545454,40.530304 0 1 1 584.46968,503.9519"
       sodipodi:ry="40.530304"
       sodipodi:rx="29.545454"
       sodipodi:cy="503.9519"
       sodipodi:cx="614.01514"
       id="path3145"
       style="fill:#ff0000;fill-opacity:1;stroke:#000000;stroke-width:1.25;stroke-miterlimit:4;stroke-opacity:1;display:inline"
       sodipodi:type="arc" />
    <path
       sodipodi:nodetypes="cccccccccccc"
       id="path3147"
       d="M 86.615642,280.08118 L 99.197192,281.54538 L 108.25391,280.52788 L 127.23899,275.53216 L 127.3984,294.12793 L 105.84966,291.69338 L 116.26807,335.01588 C 103.4454,342.60848 74.995082,335.46248 74.995082,335.46248 L 84.612092,292.58668 L 69.397746,293.09235 L 69.91839,276.07899 L 86.615642,280.08118 z"
       style="fill:#00ff15;fill-opacity:1;fill-rule:evenodd;stroke:#000000;stroke-width:1.25;stroke-linecap:butt;stroke-linejoin:miter;stroke-miterlimit:4;stroke-opacity:1;display:inline" />
    <path
       sodipodi:nodetypes="cccccccccccccccc"
       id="path3149"
       d="M 70.418242,219.13558 L 66.221492,246.82298 L 76.013912,230.76428 L 70.418242,261.77418 L 82.542212,242.39298 L 74.615022,275.61788 L 91.401942,256.79048 L 94.666102,285.03168 L 103.99229,261.22048 L 117.51516,280.60168 L 113.78463,245.71548 L 125.44235,260.11298 L 121.24557,234.08678 L 132.43693,245.71548 L 127.30762,219.68928 L 70.418242,219.13558 z"
       style="fill:#ffff00;fill-opacity:1;fill-rule:evenodd;stroke:#000000;stroke-width:1.14981222pt;stroke-linecap:butt;stroke-linejoin:miter;stroke-opacity:1;display:inline" />
    <path
       sodipodi:nodetypes="ccccccccc"
       id="path3151"
       d="M 68.749372,223.73808 C 90.364402,227.18668 108.19154,227.61778 129.04898,223.73808 C 131.43125,223.72338 132.75118,220.76858 132.49815,218.34238 C 132.56524,216.16804 132.53144,213.58207 130.69569,212.30045 C 129.21022,211.36159 127.45077,211.87521 125.82492,211.74244 C 106.42095,216.48435 92.698802,216.48435 68.749372,211.74245 C 66.367112,211.75714 65.047192,214.71194 65.300222,217.13819 C 65.233132,219.31248 65.266922,221.89848 67.102672,223.18008 C 67.590652,223.53808 68.167642,223.74038 68.749372,223.73808 z"
       style="fill:#ff8c00;fill-opacity:1;stroke:#000000;stroke-width:1.3600812;stroke-miterlimit:4;stroke-opacity:1;display:inline" />
    <path
       id="path3153"
       d="M 86.121742,342.55648 C 94.076282,341.04138 103.54598,342.55648 103.54598,342.55648"
       style="fill:none;fill-opacity:0.75;fill-rule:evenodd;stroke:#000000;stroke-width:1.25;stroke-linecap:butt;stroke-linejoin:miter;stroke-miterlimit:4;stroke-dasharray:none;stroke-opacity:1;display:inline" />
    <path
       id="path3155"
       d="M 93.886892,342.36708 L 94.076282,346.91258"
       style="fill:none;fill-opacity:0.75;fill-rule:evenodd;stroke:#000000;stroke-width:1.25;stroke-linecap:butt;stroke-linejoin:miter;stroke-miterlimit:4;stroke-dasharray:none;stroke-opacity:1;display:inline" />
    <path
       sodipodi:type="arc"
       style="opacity:1;fill:#000000;fill-opacity:1;fill-rule:nonzero;stroke:#000000;stroke-width:1;stroke-linecap:butt;stroke-linejoin:round;stroke-miterlimit:4;stroke-dasharray:none;stroke-dashoffset:0;stroke-opacity:1"
       id="path3205"
       sodipodi:cx="525.18616"
       sodipodi:cy="327.35013"
       sodipodi:rx="26.655537"
       sodipodi:ry="26.655537"
       d="M 551.84169,327.35013 A 26.655537,26.655537 0 1 1 498.53062,327.35013 A 26.655537,26.655537 0 1 1 551.84169,327.35013 z"
       transform="translate(17.290079,7.9246193)" />
    <path
       id="path3209"
       d="M 559.29054,311.65042 C 553.01065,305.37053 550.34646,306.51233 548.63376,308.22503 C 546.92107,309.93772 543.11507,310.88922 547.30167,312.79222 C 551.48826,314.69521 553.01065,313.36312 553.01065,313.36312 C 553.01065,313.36312 557.76814,316.02731 558.71964,314.88551 C 559.67114,313.74372 559.67114,312.03102 559.29054,311.65042 z"
       style="fill:#ffe5b9;fill-opacity:1;fill-rule:nonzero;stroke:#000000;stroke-width:1;stroke-linecap:butt;stroke-linejoin:round;stroke-miterlimit:4;stroke-dasharray:none;stroke-dashoffset:0;stroke-opacity:1" />
    <g
       transform="translate(-171.61299,-280.40979)"
       style="fill:#000000;fill-opacity:1;stroke:none;stroke-width:0.125;stroke-miterlimit:4;stroke-opacity:1;display:inline"
       id="g3253">
      <path
         d="M 607.2367,545.43155 C 606.08212,547.26231 604.9276,549.09241 603.8229,550.9538 L 602.94589,550.43308 C 604.05211,548.57079 605.20586,546.73835 606.3621,544.90679 L 607.2367,545.43155 z"
         id="path3255"
         style="fill-rule:nonzero;stroke-linecap:butt;stroke-linejoin:miter" />
      <path
         d="M 608.99652,546.06684 C 608.07973,547.98873 607.72734,550.0935 607.40375,552.178 L 606.39593,552.02123 C 606.73704,549.83274 607.11616,547.62601 608.08425,545.61071 L 608.99652,546.06684 z"
         id="path3257"
         style="fill-rule:nonzero;stroke-linecap:butt;stroke-linejoin:miter" />
      <path
         d="M 611.04396,546.76599 C 610.39259,549.6446 610.60183,552.56547 610.674,555.48529 L 609.65436,555.51047 C 609.58009,552.49906 609.3757,549.48611 610.05446,546.51862 L 611.04396,546.76599 z"
         id="path3259"
         style="fill-rule:nonzero;stroke-linecap:butt;stroke-linejoin:miter" />
      <path
         d="M 614.08554,545.87855 C 615.10551,548.04922 615.47765,550.43673 616.00176,552.75734 L 615.00686,552.98199 C 614.50104,550.74148 614.14653,548.43463 613.17327,546.33469 L 614.08554,545.87855 z"
         id="path3261"
         style="fill-rule:nonzero;stroke-linecap:butt;stroke-linejoin:miter" />
      <path
         d="M 617.37922,545.59664 C 619.80173,546.20027 620.68004,548.75811 621.6418,550.81349 L 620.71669,551.243 C 619.90288,549.50244 619.21601,547.43498 617.37922,546.61659 L 617.37922,545.59664 z"
         id="path3263"
         style="fill-rule:nonzero;stroke-linecap:butt;stroke-linejoin:miter" />
      <path
         d="M 620.38768,547.50131 C 619.70796,542.67423 624.01727,548.93674 624.86266,550.60901 L 623.95755,551.07919 C 623.31224,549.77269 619.47675,544.14459 621.33468,547.12251 L 620.38768,547.50131 z"
         id="path3265"
         style="fill-rule:nonzero;stroke-linecap:butt;stroke-linejoin:miter" />
    </g>
    <path
       id="path3267"
       d="M 456.10352,303.4677 L 461.27353,325.0243 C 472.30707,328.5682 465.71889,336.2052 465.71889,336.2052 C 459.51642,340.4549 453.83759,336.7584 453.83759,336.7584 C 450.42624,329.8889 450.08184,302.782 450.08184,302.782 L 456.10352,303.4677 z"
       style="fill:#ffeec4;fill-opacity:1;fill-rule:evenodd;stroke:#000000;stroke-width:1.25;stroke-linecap:butt;stroke-linejoin:miter;stroke-miterlimit:4;stroke-opacity:1;display:inline" />
    <path
       id="path3269"
       d="M 421.11842,305.7404 L 415.94841,327.2971 C 404.91487,330.8409 411.50305,338.4779 411.50305,338.4779 C 417.70552,342.7277 423.38436,339.0311 423.38436,339.0311 C 426.79571,332.1617 427.14011,305.0547 427.14011,305.0547 L 421.11842,305.7404 z"
       style="fill:#ffeec4;fill-opacity:1;fill-rule:evenodd;stroke:#000000;stroke-width:1.25;stroke-linecap:butt;stroke-linejoin:miter;stroke-miterlimit:4;stroke-opacity:1;display:inline" />
    <path
       sodipodi:nodetypes="cccccc"
       id="path3271"
       d="M 419.56545,332.777 L 416.5402,347.6608 C 425.08604,350.1833 437.06408,348.4167 437.06408,348.4167 C 446.01686,351.4438 459.43327,348.0387 459.43327,348.0387 L 457.00436,330.5067 L 419.56545,332.777 z"
       style="fill:#0600ff;fill-opacity:1;fill-rule:evenodd;stroke:#000000;stroke-width:1.25;stroke-linecap:butt;stroke-linejoin:miter;stroke-miterlimit:4;stroke-opacity:1;display:inline" />
    <path
       id="path3273"
       d="M 439.5282,264.5552 L 438.10835,280.6468 L 429.11599,284.9063 L 440.94805,300.0513 L 452.7801,283.9597 L 442.84118,279.7002 L 444.26102,266.4483 L 439.5282,264.5552 z"
       style="fill:#ffeec4;fill-opacity:1;fill-rule:evenodd;stroke:#000000;stroke-width:1.25;stroke-linecap:butt;stroke-linejoin:miter;stroke-miterlimit:4;stroke-opacity:1;display:inline" />
    <path
       sodipodi:nodetypes="ccccc"
       id="path3275"
       d="M 463.21495,353.4417 C 490.66534,354.8615 491.6119,367.1669 491.6119,367.1669 C 491.6119,377.1058 438.60428,371.8997 438.60428,371.8997 L 438.60428,355.8081 L 463.21495,353.4417 z"
       style="fill:#ffffff;fill-opacity:1;fill-rule:evenodd;stroke:#000000;stroke-width:1.25;stroke-linecap:butt;stroke-linejoin:miter;stroke-miterlimit:4;stroke-opacity:1;display:inline" />
    <path
       sodipodi:nodetypes="ccccc"
       id="path3277"
       d="M 413.9709,353.4417 C 386.52052,354.8615 385.57396,367.1669 385.57396,367.1669 C 385.57396,377.1058 438.58158,371.8997 438.58158,371.8997 L 438.58158,355.8081 L 413.9709,353.4417 z"
       style="fill:#ffffff;fill-opacity:1;fill-rule:evenodd;stroke:#000000;stroke-width:1.25;stroke-linecap:butt;stroke-linejoin:miter;stroke-miterlimit:4;stroke-opacity:1;display:inline" />
    <rect
       style="opacity:1;fill:#803300;fill-opacity:1;fill-rule:nonzero;stroke:#000000;stroke-width:1;stroke-linecap:butt;stroke-linejoin:round;stroke-miterlimit:4;stroke-dasharray:none;stroke-dashoffset:0;stroke-opacity:1"
       id="rect4287"
       width="196.84529"
       height="176.87547"
       x="158.87547"
       y="85.584908"
       rx="15.548301"
       ry="10.315683" />
    <path
       transform="matrix(1,0,0,1.138058,-171.61299,-351.49949)"
       d="M 643.56059,503.9519 A 29.545454,40.530304 0 1 1 584.46968,503.9519 A 29.545454,40.530304 0 1 1 643.56059,503.9519 z"
       sodipodi:ry="40.530304"
       sodipodi:rx="29.545454"
       sodipodi:cy="503.9519"
       sodipodi:cx="614.01514"
       id="path3279"
       style="fill:#ffeec4;fill-opacity:1;stroke:#000000;stroke-width:1.25;stroke-miterlimit:4;stroke-opacity:1;display:inline"
       sodipodi:type="arc" />
    <path
       sodipodi:nodetypes="ccccccccc"
       id="path3281"
       d="M 438.24619,355.4363 C 446.11989,356.794 452.10155,356.8465 459.83786,355.4363 C 460.69089,355.4254 461.16352,353.2296 461.07292,351.4266 C 461.09694,349.8107 461.08484,347.8889 460.42751,346.9365 C 459.89561,346.2387 459.26559,346.6204 458.68342,346.5218 C 450.53008,348.3048 447.08969,348.037 438.24619,346.5218 C 437.39318,346.5327 436.92055,348.7286 437.01115,350.5317 C 436.98713,352.1475 436.99923,354.0692 437.65656,355.0216 C 437.83129,355.2877 438.0379,355.4381 438.24619,355.4363 z"
       style="fill:#ff8c00;fill-opacity:1;stroke:#000000;stroke-width:1.25;stroke-miterlimit:4;stroke-opacity:1;display:inline" />
    <path
       sodipodi:nodetypes="ccccccccc"
       id="path3283"
       d="M 415.51892,356.1939 C 423.39262,357.5515 429.37428,357.6041 437.1106,356.1939 C 437.96363,356.183 438.43626,353.9871 438.34566,352.1842 C 438.36968,350.5683 438.35758,348.6465 437.70025,347.694 C 437.16835,346.9963 436.53833,347.378 435.95616,347.2794 C 427.80281,349.0624 424.36242,348.7945 415.51892,347.2794 C 414.66591,347.2903 414.19328,349.4862 414.28388,351.2893 C 414.25986,352.9051 414.27196,354.8268 414.92929,355.7792 C 415.10402,356.0453 415.31063,356.1957 415.51892,356.1939 z"
       style="fill:#ff8c00;fill-opacity:1;stroke:#000000;stroke-width:1.25;stroke-miterlimit:4;stroke-opacity:1;display:inline" />
    <path
       sodipodi:open="true"
       sodipodi:end="3.1415927"
       sodipodi:start="0"
       transform="matrix(1,0,0,-1.138058,-171.61299,795.9852)"
       d="M 643.56059,503.9519 A 29.545454,40.530304 0 1 1 584.46968,503.9519"
       sodipodi:ry="40.530304"
       sodipodi:rx="29.545454"
       sodipodi:cy="503.9519"
       sodipodi:cx="614.01514"
       id="path3285"
       style="fill:#ff0000;fill-opacity:1;stroke:#000000;stroke-width:1.25;stroke-miterlimit:4;stroke-opacity:1;display:inline"
       sodipodi:type="arc" />
    <path
       sodipodi:nodetypes="cccccccccccc"
       id="path3287"
       d="M 430.20664,280.385 L 442.78819,281.8492 L 451.84491,280.8317 L 464.26687,304.9493 L 452.64633,310.7554 L 449.44066,291.9972 L 459.85907,335.3197 C 447.0364,342.9123 418.58608,335.7663 418.58608,335.7663 L 428.20309,292.8905 L 424.196,312.5419 L 412.57545,306.7358 L 430.20664,280.385 z"
       style="fill:#00ff15;fill-opacity:1;fill-rule:evenodd;stroke:#000000;stroke-width:1.25;stroke-linecap:butt;stroke-linejoin:miter;stroke-miterlimit:4;stroke-opacity:1;display:inline" />
    <path
       sodipodi:nodetypes="cccccccccccccccc"
       id="path3289"
       d="M 414.00924,219.4394 L 409.81249,247.1268 L 419.60491,231.0681 L 414.00924,262.078 L 426.13321,242.6968 L 418.20602,275.9217 L 434.99294,257.0943 L 438.2571,285.3355 L 447.58329,261.5243 L 461.10616,280.9055 L 457.37563,246.0193 L 469.03335,260.4168 L 464.83657,234.3906 L 476.02793,246.0193 L 470.89862,219.9931 L 414.00924,219.4394 z"
       style="fill:#ffff00;fill-opacity:1;fill-rule:evenodd;stroke:#000000;stroke-width:1.14981222pt;stroke-linecap:butt;stroke-linejoin:miter;stroke-opacity:1;display:inline" />
    <path
       sodipodi:nodetypes="ccccccccc"
       id="path3291"
       d="M 412.34037,224.0419 C 433.9554,227.4905 451.78254,227.9216 472.63998,224.0419 C 475.02225,224.0272 476.34218,221.0724 476.08915,218.6462 C 476.15624,216.47186 476.12244,213.88589 474.28669,212.60427 C 472.80122,211.66541 471.04177,212.17903 469.41592,212.04626 C 450.01195,216.78817 436.2898,216.78817 412.34037,212.04627 C 409.95811,212.06096 408.63819,215.01576 408.89122,217.44201 C 408.82413,219.6163 408.85792,222.2023 410.69367,223.4839 C 411.18165,223.8419 411.75864,224.0442 412.34037,224.0419 z"
       style="fill:#ff8c00;fill-opacity:1;stroke:#000000;stroke-width:1.3600812;stroke-miterlimit:4;stroke-opacity:1;display:inline" />
    <path
       id="path3293"
       d="M 429.71274,342.8603 C 437.66728,341.3452 447.13698,342.8603 447.13698,342.8603"
       style="fill:none;fill-opacity:0.75;fill-rule:evenodd;stroke:#000000;stroke-width:1.25;stroke-linecap:butt;stroke-linejoin:miter;stroke-miterlimit:4;stroke-dasharray:none;stroke-opacity:1;display:inline" />
    <path
       id="path3295"
       d="M 437.47789,342.6709 L 437.66728,347.2164"
       style="fill:none;fill-opacity:0.75;fill-rule:evenodd;stroke:#000000;stroke-width:1.25;stroke-linecap:butt;stroke-linejoin:miter;stroke-miterlimit:4;stroke-dasharray:none;stroke-opacity:1;display:inline" />
    <g
       transform="matrix(-0.3296285,0.6272701,-0.6272701,-0.3296285,1727.0824,558.4762)"
       id="g3297">
      <g
         id="g3299"
         inkscape:transform-center-x="-6.6507783"
         inkscape:transform-center-y="-6.1622439"
         transform="matrix(0.6557502,-5.4984094e-2,5.4984094e-2,0.6557502,-932.21721,283.43809)">
        <rect
           transform="matrix(0.6198235,0.7847413,-0.7847413,0.6198235,0,0)"
           style="fill:#cccccc;fill-opacity:1;fill-rule:nonzero;stroke:#000000;stroke-width:1.41122091;stroke-linecap:butt;stroke-linejoin:round;stroke-miterlimit:4;stroke-dasharray:none;stroke-opacity:1"
           id="rect3301"
           width="5.9731178"
           height="31.785524"
           x="2084.4009"
           y="-435.39514"
           ry="5.9244399"
           rx="5.9244399" />
        <path
           style="fill:#ffffff;fill-opacity:1;fill-rule:nonzero;stroke:none;stroke-width:1;stroke-linecap:butt;stroke-linejoin:round;stroke-miterlimit:4;stroke-dasharray:none;stroke-opacity:1"
           d="M 1618.8049,1383.8827 L 1631.8316,1373.009 L 1631.0889,1372.7896 L 1618.9003,1382.8238 L 1618.8049,1383.8827 z"
           id="path3303" />
      </g>
      <g
         id="g3305"
         transform="matrix(4.5624886e-3,-0.6580355,0.6580355,4.5624886e-3,-719.42452,2159.3041)"
         inkscape:transform-center-x="6.5510517"
         inkscape:transform-center-y="8.6773905">
        <rect
           transform="matrix(0.584065,-0.8117069,0.8117069,0.584065,0,0)"
           rx="5.9244399"
           ry="5.9244399"
           y="2086.7573"
           x="-187.26065"
           height="31.785521"
           width="5.9731174"
           id="rect3307"
           style="fill:#cccccc;fill-opacity:1;fill-rule:nonzero;stroke:#000000;stroke-width:1.41122079;stroke-linecap:butt;stroke-linejoin:round;stroke-miterlimit:4;stroke-dasharray:none;stroke-opacity:1" />
        <path
           id="path3309"
           d="M 1587.8529,1372.1075 L 1605.5093,1384.8122 L 1605.5448,1383.8201 L 1589.198,1371.8881 L 1587.8529,1372.1075 z"
           style="fill:#ffffff;fill-opacity:1;fill-rule:nonzero;stroke:none;stroke-width:1;stroke-linecap:butt;stroke-linejoin:round;stroke-miterlimit:4;stroke-dasharray:none;stroke-opacity:1" />
      </g>
      <g
         id="g3311"
         transform="matrix(0.5648622,0.337583,-0.337583,0.5648622,-241.38586,-223.42352)">
        <path
           sodipodi:type="arc"
           style="fill:#cccccc;fill-opacity:1;fill-rule:nonzero;stroke:#000000;stroke-width:1.83458674;stroke-linecap:butt;stroke-linejoin:round;stroke-miterlimit:4;stroke-dasharray:none;stroke-opacity:1"
           id="path3313"
           sodipodi:cx="223.90565"
           sodipodi:cy="121.57761"
           sodipodi:rx="7.873302"
           sodipodi:ry="7.873302"
           d="M 231.77896,121.57761 A 7.873302,7.873302 0 1 1 216.03235,121.57761 A 7.873302,7.873302 0 1 1 231.77896,121.57761 z"
           transform="matrix(0.4492809,-0.6243902,0.6243902,0.4492809,1435.5154,1471.7425)" />
        <path
           transform="matrix(0.100465,-0.1396217,0.1396217,0.100465,1570.2308,1407.7417)"
           d="M 231.77896,121.57761 A 7.873302,7.873302 0 1 1 216.03235,121.57761 A 7.873302,7.873302 0 1 1 231.77896,121.57761 z"
           sodipodi:ry="7.873302"
           sodipodi:rx="7.873302"
           sodipodi:cy="121.57761"
           sodipodi:cx="223.90565"
           id="path3315"
           style="fill:#ffffff;fill-opacity:1;fill-rule:nonzero;stroke:none;stroke-width:0.80720383;stroke-linecap:butt;stroke-linejoin:round;stroke-miterlimit:4;stroke-dasharray:none;stroke-opacity:1"
           sodipodi:type="arc" />
      </g>
      <g
         id="g3317"
         inkscape:transform-center-x="-17.066912"
         inkscape:transform-center-y="-19.98967"
         transform="matrix(0.6557502,-5.4984094e-2,5.4984094e-2,0.6557502,-932.21721,283.43809)">
        <path
           id="path3319"
           d="M 1625.4971,1352.8929 L 1626.0387,1359.2879 L 1633.068,1363.4838 L 1636.4883,1361.6638 L 1629.5555,1357.9537 L 1629.3542,1352.9036 L 1625.4971,1352.8929 z M 1634.7179,1345.6146 L 1639.2705,1352.9633 L 1638.1634,1359.9557 L 1640.758,1360.8119 L 1641.9517,1352.3358 L 1639.1654,1342.0366 L 1634.7179,1345.6146 z M 1643.1174,1363.1933 L 1644.2185,1365.1748 L 1650.455,1361.0111 L 1655.7155,1362.418 L 1656.0236,1357.7343 L 1649.7289,1358.467 L 1643.1174,1363.1933 z M 1643.282,1369.0792 L 1643.4643,1370.7265 L 1647.6787,1371.2321 L 1650.0094,1374.6037 L 1652.5688,1372.6994 L 1648.8438,1369.3651 L 1643.282,1369.0792 z"
           style="fill:#cccccc;fill-opacity:1;fill-rule:nonzero;stroke:#000000;stroke-width:1.41122079;stroke-linecap:butt;stroke-linejoin:round;stroke-miterlimit:4;stroke-dasharray:none;stroke-opacity:1" />
        <path
           transform="matrix(0.5580852,-0.7756015,0.7756015,0.5580852,1418.3319,1472.7115)"
           d="M 231.77896,121.57761 A 7.873302,7.873302 0 1 1 216.03235,121.57761 A 7.873302,7.873302 0 1 1 231.77896,121.57761 z"
           sodipodi:ry="7.873302"
           sodipodi:rx="7.873302"
           sodipodi:cy="121.57761"
           sodipodi:cx="223.90565"
           id="path3321"
           style="fill:#cccccc;fill-opacity:1;fill-rule:nonzero;stroke:#000000;stroke-width:1.47691536;stroke-linecap:butt;stroke-linejoin:round;stroke-miterlimit:4;stroke-dasharray:none;stroke-opacity:1"
           sodipodi:type="arc" />
        <path
           sodipodi:type="arc"
           style="fill:#ffffff;fill-opacity:1;fill-rule:nonzero;stroke:none;stroke-width:0.80720383;stroke-linecap:butt;stroke-linejoin:round;stroke-miterlimit:4;stroke-dasharray:none;stroke-opacity:1"
           id="path3323"
           sodipodi:cx="223.90565"
           sodipodi:cy="121.57761"
           sodipodi:rx="7.873302"
           sodipodi:ry="7.873302"
           d="M 231.77896,121.57761 A 7.873302,7.873302 0 1 1 216.03235,121.57761 A 7.873302,7.873302 0 1 1 231.77896,121.57761 z"
           transform="matrix(0.2150335,-0.2988437,0.2988437,0.2150335,1556.3475,1410.0025)" />
      </g>
    </g>
    <path
       id="path3325"
       d="M 951.31362,289.7587 L 950.3075,301.16131 L 943.93546,304.17969 L 952.31973,314.91153 L 960.704,303.50892 L 953.66122,300.49061 L 954.66732,291.10023 L 951.31362,289.7587 z"
       style="fill:#ffe5b9;fill-opacity:1;fill-rule:evenodd;stroke:#000000;stroke-width:1.25;stroke-linecap:butt;stroke-linejoin:miter;stroke-miterlimit:4;stroke-opacity:1;display:inline" />
    <path
       transform="matrix(0.7310924,0,0,0.5079048,891.20102,4.6279735)"
       d="M 61.526698,525.42224 A 6.8625937,6.8625937 0 1 1 47.801511,525.42224 A 6.8625937,6.8625937 0 1 1 61.526698,525.42224 z"
       sodipodi:ry="6.8625937"
       sodipodi:rx="6.8625937"
       sodipodi:cy="525.42224"
       sodipodi:cx="54.664104"
       id="path3327"
       style="fill:#ffe5b9;fill-opacity:1;stroke:#000000;stroke-width:1.76402628;stroke-miterlimit:4;stroke-opacity:1;display:inline"
       sodipodi:type="arc" />
    <path
       transform="matrix(0.7086062,0,0,0.7086062,892.5979,-101.33027)"
       d="M 136.3053,524.94897 A 6.6259522,5.4427466 0 1 1 123.0534,524.94897 A 6.6259522,5.4427466 0 1 1 136.3053,524.94897 z"
       sodipodi:ry="5.4427466"
       sodipodi:rx="6.6259522"
       sodipodi:cy="524.94897"
       sodipodi:cx="129.67935"
       id="path3329"
       style="fill:#ffe5b9;fill-opacity:1;stroke:#000000;stroke-width:1.76402628;stroke-miterlimit:4;stroke-opacity:1;display:inline"
       sodipodi:type="arc" />
    <path
       transform="matrix(0.4741468,0,0,0.4917855,910.92529,14.206983)"
       d="M 150.97705,518.55963 A 51.824413,51.587772 0 1 1 47.328228,518.55963 A 51.824413,51.587772 0 1 1 150.97705,518.55963 z"
       sodipodi:ry="51.587772"
       sodipodi:rx="51.824413"
       sodipodi:cy="518.55963"
       sodipodi:cx="99.152641"
       id="path3331"
       style="fill:#ffe5b9;fill-opacity:1;stroke:#000000;stroke-width:2.58860445;stroke-miterlimit:4;stroke-opacity:1;display:inline"
       sodipodi:type="arc" />
    <path
       transform="matrix(0.7086062,0,0,0.7086062,895.94415,-90.452877)"
       d="M 97.022873,504.59781 A 17.038162,17.274805 0 1 1 62.946548,504.59781 A 17.038162,17.274805 0 1 1 97.022873,504.59781 z"
       sodipodi:ry="17.274805"
       sodipodi:rx="17.038162"
       sodipodi:cy="504.59781"
       sodipodi:cx="79.984711"
       id="path3333"
       style="fill:#ffffff;fill-opacity:1;stroke:#000000;stroke-width:1.76402628;stroke-miterlimit:4;stroke-opacity:1;display:inline"
       sodipodi:type="arc" />
    <path
       transform="matrix(0.7086062,0,0,0.7086062,895.94415,-89.782111)"
       d="M 122.10684,504.59781 A 12.541981,13.488545 0 1 1 97.022877,504.59781 A 12.541981,13.488545 0 1 1 122.10684,504.59781 z"
       sodipodi:ry="13.488545"
       sodipodi:rx="12.541981"
       sodipodi:cy="504.59781"
       sodipodi:cx="109.56486"
       id="path3335"
       style="fill:#ffffff;fill-opacity:1;stroke:#000000;stroke-width:1.76402628;stroke-miterlimit:4;stroke-opacity:1;display:inline"
       sodipodi:type="arc" />
    <path
       d="M 950.9626,248.12356 C 943.71761,249.03995 961.05654,239.67486 963.44587,239.27582 C 961.22989,242.29429 958.61289,245.02572 955.84423,247.54689 C 963.02341,243.05422 972.24312,238.39736 960.19624,248.56098 C 961.63924,249.32606 970.90965,242.59666 975.47294,244.15346 L 975.12729,245.04674 C 971.43346,244.61689 958.58565,251.96214 959.57936,247.82826 C 971.03073,238.20634 963.76722,245.09104 956.27441,248.40268 C 953.03556,247.4186 960.93519,239.98945 963.36811,240.23048 C 961.35613,240.83062 945.99194,249.76505 950.60687,247.23424 L 950.9626,248.12356 z"
       id="path3337"
       style="fill:#000000;fill-opacity:1;fill-rule:nonzero;stroke:none;stroke-width:1pt;stroke-linecap:butt;stroke-linejoin:miter;stroke-opacity:1;display:inline" />
    <g
       transform="matrix(-0.7086062,0,0,0.7086062,1010.8242,-102.31183)"
       id="g3339"
       style="display:inline">
      <path
         sodipodi:nodetypes="ccccc"
         id="path3341"
         d="M 61.053417,633.09397 C 33.603044,634.51381 32.656479,646.81915 32.656479,646.81915 C 32.656479,656.75808 85.664097,651.55198 85.664097,651.55198 L 85.664097,635.46038 L 61.053417,633.09397 z"
         style="fill:#ffffff;fill-opacity:1;fill-rule:evenodd;stroke:#000000;stroke-width:1.76402628;stroke-linecap:butt;stroke-linejoin:miter;stroke-miterlimit:4;stroke-opacity:1" />
      <path
         d="M 47.091589,633.83797 C 56.984628,634.61994 61.315987,641.7029 57.807393,650.68263 L 56.549444,650.18802 C 59.749959,642.10249 56.066216,635.95637 47.091589,635.18966 L 47.091589,633.83797 z"
         id="path3343"
         style="fill:#000000;fill-opacity:1;fill-rule:nonzero;stroke:none;stroke-width:1pt;stroke-linecap:butt;stroke-linejoin:miter;stroke-opacity:1" />
      <path
         d="M 55.137389,632.8914 C 66.681678,632.89279 70.902805,642.0118 66.474303,652.01826 L 65.238683,651.47024 C 69.296349,642.34188 65.745749,634.2404 55.137389,634.2431 L 55.137389,632.8914 z"
         id="path3345"
         style="fill:#000000;fill-opacity:1;fill-rule:nonzero;stroke:none;stroke-width:1pt;stroke-linecap:butt;stroke-linejoin:miter;stroke-opacity:1" />
    </g>
    <g
       transform="matrix(0.7086062,0,0,0.7086062,889.40393,-102.31183)"
       id="g3347"
       style="display:inline">
      <path
         sodipodi:nodetypes="ccccc"
         id="path3349"
         d="M 61.053417,633.09397 C 33.603044,634.51381 32.656479,646.81915 32.656479,646.81915 C 32.656479,656.75808 85.664097,651.55198 85.664097,651.55198 L 85.664097,635.46038 L 61.053417,633.09397 z"
         style="fill:#ffffff;fill-opacity:1;fill-rule:evenodd;stroke:#000000;stroke-width:1.76402628;stroke-linecap:butt;stroke-linejoin:miter;stroke-miterlimit:4;stroke-opacity:1" />
      <path
         d="M 47.091589,633.83797 C 56.984628,634.61994 61.315987,641.7029 57.807393,650.68263 L 56.549444,650.18802 C 59.749959,642.10249 56.066216,635.95637 47.091589,635.18966 L 47.091589,633.83797 z"
         id="path3351"
         style="fill:#000000;fill-opacity:1;fill-rule:nonzero;stroke:none;stroke-width:1pt;stroke-linecap:butt;stroke-linejoin:miter;stroke-opacity:1" />
      <path
         d="M 55.137389,632.8914 C 66.681678,632.89279 70.902805,642.0118 66.474303,652.01826 L 65.238683,651.47024 C 69.296349,642.34188 65.745749,634.2404 55.137389,634.2431 L 55.137389,632.8914 z"
         id="path3353"
         style="fill:#000000;fill-opacity:1;fill-rule:nonzero;stroke:none;stroke-width:1pt;stroke-linecap:butt;stroke-linejoin:miter;stroke-opacity:1" />
    </g>
    <g
       transform="matrix(0.7086062,0,0,0.7086062,889.94077,-102.84867)"
       id="g3355"
       style="display:inline">
      <path
         transform="matrix(0.859835,0,0,0.909951,14.03942,35.05921)"
         id="path3357"
         d="M 62.946547,630.72755 L 53.480901,657.23136 C 63.419829,661.96419 83.297686,660.07106 83.297686,660.07106 C 93.709897,665.75045 115.48088,658.65121 115.48088,658.65121 L 106.48852,626.46801 L 62.946547,630.72755 z"
         style="fill:#ffffff;fill-opacity:1;fill-rule:evenodd;stroke:#000000;stroke-width:1.99429047;stroke-linecap:butt;stroke-linejoin:miter;stroke-miterlimit:4;stroke-opacity:1" />
      <path
         transform="matrix(0.859835,0,0,0.909951,14.03942,35.05921)"
         id="path3359"
         d="M 79.038145,636.40694 L 76.198451,646.34587 L 92.29005,644.92602"
         style="fill:none;fill-opacity:0.75;fill-rule:evenodd;stroke:#000000;stroke-width:1.99429047;stroke-linecap:butt;stroke-linejoin:miter;stroke-miterlimit:4;stroke-opacity:1" />
      <path
         transform="matrix(0.859835,0,0,0.909951,14.03942,35.05921)"
         id="path3361"
         d="M 85.664097,635.93366 L 83.297686,659.59778"
         style="fill:none;fill-opacity:0.75;fill-rule:evenodd;stroke:#000000;stroke-width:1.99429047;stroke-linecap:butt;stroke-linejoin:miter;stroke-miterlimit:4;stroke-opacity:1" />
    </g>
    <path
       style="fill:#ffe5b9;fill-opacity:1;fill-rule:nonzero;stroke:#000000;stroke-width:1;stroke-linecap:butt;stroke-linejoin:round;stroke-miterlimit:4;stroke-dasharray:none;stroke-dashoffset:0;stroke-opacity:1"
       d="M 937.55932,313.55341 L 934.89512,317.93033 L 913.96217,310.12801 L 913.58156,314.12434 L 936.41752,321.35573 L 940.9847,313.93401 L 937.55932,313.55341 z"
       id="path3363" />
    <path
       sodipodi:nodetypes="cccccccccccc"
       id="path3365"
       d="M 945.51351,301.61815 L 951.47635,305.31962 L 960.84653,301.84951 L 969.64881,314.34202 L 961.41442,317.34956 L 959.14286,307.63308 L 966.52542,330.07343 C 957.43919,334.00627 937.27911,330.30479 937.27911,330.30479 L 944.09379,308.0958 L 941.25434,318.27493 L 933.01994,315.26746 L 945.51351,301.61815 z"
       style="fill:#ff9f00;fill-opacity:1;fill-rule:evenodd;stroke:#000000;stroke-width:1.25;stroke-linecap:butt;stroke-linejoin:miter;stroke-miterlimit:4;stroke-opacity:1;display:inline" />
    <g
       transform="matrix(1.1197119,0,0,1.1197119,855.91754,-347.90332)"
       id="g3367"
       style="display:inline">
      <path
         d="M 79.568221,591.68176 C 82.838639,586.37899 86.606381,599.82234 86.896294,602.80548 L 84.653752,603.02047 C 84.358094,599.88873 83.324998,597.0955 81.774796,594.35499 C 81.221941,593.37763 79.151532,592.46562 79.852664,591.58853 C 81.628227,589.36736 81.799378,590.49833 81.821045,591.68176 L 79.568221,591.68176 z"
         id="path3369"
         style="fill:#0f00ff;fill-opacity:1;fill-rule:nonzero;stroke:none;stroke-width:1pt;stroke-linecap:butt;stroke-linejoin:miter;stroke-opacity:1" />
      <path
         d="M 78.527773,594.98355 C 80.536194,593.14428 90.732009,584.28259 91.733808,589.57677 L 89.659031,588.69898 C 90.66973,590.68599 89.627535,589.42328 90.85924,589.8436 C 91.166691,589.94852 79.040717,595.76383 80.25844,596.42578 L 78.527773,594.98355 z"
         id="path3371"
         style="fill:#0f00ff;fill-opacity:1;fill-rule:nonzero;stroke:none;stroke-width:1pt;stroke-linecap:butt;stroke-linejoin:miter;stroke-opacity:1" />
      <path
         d="M 80.15824,596.56287 C 83.323198,594.74075 87.87671,593.03 91.562656,594.32379 L 90.665822,596.39041 C 87.543144,596.06417 84.193404,596.57796 81.467667,598.39607 L 80.15824,596.56287 z"
         id="path3373"
         style="fill:#0f00ff;fill-opacity:1;fill-rule:nonzero;stroke:none;stroke-width:1pt;stroke-linecap:butt;stroke-linejoin:miter;stroke-opacity:1" />
    </g>
    <path
       transform="matrix(0.6300218,0,0,0.6300218,902.59659,-62.202337)"
       d="M 78.98003,525.00787 A 4.0159335,4.0159335 0 1 1 70.948163,525.00787 A 4.0159335,4.0159335 0 1 1 78.98003,525.00787 z"
       sodipodi:ry="4.0159335"
       sodipodi:rx="4.0159335"
       sodipodi:cy="525.00787"
       sodipodi:cx="74.964096"
       id="path3375"
       style="fill:#ffffff;fill-opacity:1;stroke:#000000;stroke-width:5.95217419;stroke-miterlimit:4;stroke-opacity:1;display:inline"
       sodipodi:type="arc" />
    <path
       transform="matrix(0.6300218,0,0,0.6300218,924.65089,-61.965237)"
       d="M 78.98003,525.00787 A 4.0159335,4.0159335 0 1 1 70.948163,525.00787 A 4.0159335,4.0159335 0 1 1 78.98003,525.00787 z"
       sodipodi:ry="4.0159335"
       sodipodi:rx="4.0159335"
       sodipodi:cy="525.00787"
       sodipodi:cx="74.964096"
       id="path3377"
       style="fill:#ffffff;fill-opacity:1;stroke:#000000;stroke-width:5.95217419;stroke-miterlimit:4;stroke-opacity:1;display:inline"
       sodipodi:type="arc" />
    <path
       transform="translate(377.29008,7.9246193)"
       d="M 551.84169,327.35013 A 26.655537,26.655537 0 1 1 498.53062,327.35013 A 26.655537,26.655537 0 1 1 551.84169,327.35013 z"
       sodipodi:ry="26.655537"
       sodipodi:rx="26.655537"
       sodipodi:cy="327.35013"
       sodipodi:cx="525.18616"
       id="path3379"
       style="opacity:1;fill:#000000;fill-opacity:1;fill-rule:nonzero;stroke:#000000;stroke-width:1;stroke-linecap:butt;stroke-linejoin:round;stroke-miterlimit:4;stroke-dasharray:none;stroke-dashoffset:0;stroke-opacity:1"
       sodipodi:type="arc" />
    <path
       style="fill:#ffe5b9;fill-opacity:1;fill-rule:nonzero;stroke:#000000;stroke-width:1;stroke-linecap:butt;stroke-linejoin:round;stroke-miterlimit:4;stroke-dasharray:none;stroke-dashoffset:0;stroke-opacity:1"
       d="M 919.29054,311.65042 C 913.01065,305.37053 910.34646,306.51233 908.63376,308.22503 C 906.92107,309.93772 903.11507,310.88922 907.30167,312.79222 C 911.48826,314.69521 913.01065,313.36312 913.01065,313.36312 C 913.01065,313.36312 917.76814,316.02731 918.71964,314.88551 C 919.67114,313.74372 919.67114,312.03102 919.29054,311.65042 z"
       id="path3381" />
    <g
       id="g3383"
       style="fill:#000000;fill-opacity:1;stroke:none;stroke-width:0.125;stroke-miterlimit:4;stroke-opacity:1;display:inline"
       transform="translate(188.38701,-280.40979)">
      <path
         style="fill-rule:nonzero;stroke-linecap:butt;stroke-linejoin:miter"
         id="path3385"
         d="M 607.2367,545.43155 C 606.08212,547.26231 604.9276,549.09241 603.8229,550.9538 L 602.94589,550.43308 C 604.05211,548.57079 605.20586,546.73835 606.3621,544.90679 L 607.2367,545.43155 z" />
      <path
         style="fill-rule:nonzero;stroke-linecap:butt;stroke-linejoin:miter"
         id="path3387"
         d="M 608.99652,546.06684 C 608.07973,547.98873 607.72734,550.0935 607.40375,552.178 L 606.39593,552.02123 C 606.73704,549.83274 607.11616,547.62601 608.08425,545.61071 L 608.99652,546.06684 z" />
      <path
         style="fill-rule:nonzero;stroke-linecap:butt;stroke-linejoin:miter"
         id="path3389"
         d="M 611.04396,546.76599 C 610.39259,549.6446 610.60183,552.56547 610.674,555.48529 L 609.65436,555.51047 C 609.58009,552.49906 609.3757,549.48611 610.05446,546.51862 L 611.04396,546.76599 z" />
      <path
         style="fill-rule:nonzero;stroke-linecap:butt;stroke-linejoin:miter"
         id="path3391"
         d="M 614.08554,545.87855 C 615.10551,548.04922 615.47765,550.43673 616.00176,552.75734 L 615.00686,552.98199 C 614.50104,550.74148 614.14653,548.43463 613.17327,546.33469 L 614.08554,545.87855 z" />
      <path
         style="fill-rule:nonzero;stroke-linecap:butt;stroke-linejoin:miter"
         id="path3393"
         d="M 617.37922,545.59664 C 619.80173,546.20027 620.68004,548.75811 621.6418,550.81349 L 620.71669,551.243 C 619.90288,549.50244 619.21601,547.43498 617.37922,546.61659 L 617.37922,545.59664 z" />
      <path
         style="fill-rule:nonzero;stroke-linecap:butt;stroke-linejoin:miter"
         id="path3395"
         d="M 620.38768,547.50131 C 619.70796,542.67423 624.01727,548.93674 624.86266,550.60901 L 623.95755,551.07919 C 623.31224,549.77269 619.47675,544.14459 621.33468,547.12251 L 620.38768,547.50131 z" />
    </g>
    <path
       style="fill:#ffeec4;fill-opacity:1;fill-rule:evenodd;stroke:#000000;stroke-width:1.25;stroke-linecap:butt;stroke-linejoin:miter;stroke-miterlimit:4;stroke-opacity:1;display:inline"
       d="M 816.10352,303.4677 L 821.27353,325.0243 C 832.30707,328.5682 825.71889,336.2052 825.71889,336.2052 C 819.51642,340.4549 813.83759,336.7584 813.83759,336.7584 C 810.42624,329.8889 810.08184,302.782 810.08184,302.782 L 816.10352,303.4677 z"
       id="path3397" />
    <path
       style="fill:#ffeec4;fill-opacity:1;fill-rule:evenodd;stroke:#000000;stroke-width:1.25;stroke-linecap:butt;stroke-linejoin:miter;stroke-miterlimit:4;stroke-opacity:1;display:inline"
       d="M 781.11842,305.7404 L 775.94841,327.2971 C 764.91487,330.8409 771.50305,338.4779 771.50305,338.4779 C 777.70552,342.7277 783.38436,339.0311 783.38436,339.0311 C 786.79571,332.1617 787.14011,305.0547 787.14011,305.0547 L 781.11842,305.7404 z"
       id="path3399" />
    <path
       style="fill:#0600ff;fill-opacity:1;fill-rule:evenodd;stroke:#000000;stroke-width:1.25;stroke-linecap:butt;stroke-linejoin:miter;stroke-miterlimit:4;stroke-opacity:1;display:inline"
       d="M 779.56545,332.777 L 776.5402,347.6608 C 785.08604,350.1833 797.06408,348.4167 797.06408,348.4167 C 806.01686,351.4438 819.43327,348.0387 819.43327,348.0387 L 817.00436,330.5067 L 779.56545,332.777 z"
       id="path3401"
       sodipodi:nodetypes="cccccc" />
    <path
       style="fill:#ffeec4;fill-opacity:1;fill-rule:evenodd;stroke:#000000;stroke-width:1.25;stroke-linecap:butt;stroke-linejoin:miter;stroke-miterlimit:4;stroke-opacity:1;display:inline"
       d="M 799.5282,264.5552 L 798.10835,280.6468 L 789.11599,284.9063 L 800.94805,300.0513 L 812.7801,283.9597 L 802.84118,279.7002 L 804.26102,266.4483 L 799.5282,264.5552 z"
       id="path3403" />
    <path
       style="fill:#ffffff;fill-opacity:1;fill-rule:evenodd;stroke:#000000;stroke-width:1.25;stroke-linecap:butt;stroke-linejoin:miter;stroke-miterlimit:4;stroke-opacity:1;display:inline"
       d="M 823.21495,353.4417 C 850.66534,354.8615 851.6119,367.1669 851.6119,367.1669 C 851.6119,377.1058 798.60428,371.8997 798.60428,371.8997 L 798.60428,355.8081 L 823.21495,353.4417 z"
       id="path3405"
       sodipodi:nodetypes="ccccc" />
    <path
       style="fill:#ffffff;fill-opacity:1;fill-rule:evenodd;stroke:#000000;stroke-width:1.25;stroke-linecap:butt;stroke-linejoin:miter;stroke-miterlimit:4;stroke-opacity:1;display:inline"
       d="M 773.9709,353.4417 C 746.52052,354.8615 745.57396,367.1669 745.57396,367.1669 C 745.57396,377.1058 798.58158,371.8997 798.58158,371.8997 L 798.58158,355.8081 L 773.9709,353.4417 z"
       id="path3407"
       sodipodi:nodetypes="ccccc" />
    <path
       sodipodi:type="arc"
       style="fill:#ffeec4;fill-opacity:1;stroke:#000000;stroke-width:1.25;stroke-miterlimit:4;stroke-opacity:1;display:inline"
       id="path3409"
       sodipodi:cx="614.01514"
       sodipodi:cy="503.9519"
       sodipodi:rx="29.545454"
       sodipodi:ry="40.530304"
       d="M 643.56059,503.9519 A 29.545454,40.530304 0 1 1 584.46968,503.9519 A 29.545454,40.530304 0 1 1 643.56059,503.9519 z"
       transform="matrix(1,0,0,1.138058,188.38701,-351.49949)" />
    <path
       style="fill:#ff8c00;fill-opacity:1;stroke:#000000;stroke-width:1.25;stroke-miterlimit:4;stroke-opacity:1;display:inline"
       d="M 798.24619,355.4363 C 806.11989,356.794 812.10155,356.8465 819.83786,355.4363 C 820.69089,355.4254 821.16352,353.2296 821.07292,351.4266 C 821.09694,349.8107 821.08484,347.8889 820.42751,346.9365 C 819.89561,346.2387 819.26559,346.6204 818.68342,346.5218 C 810.53008,348.3048 807.08969,348.037 798.24619,346.5218 C 797.39318,346.5327 796.92055,348.7286 797.01115,350.5317 C 796.98713,352.1475 796.99923,354.0692 797.65656,355.0216 C 797.83129,355.2877 798.0379,355.4381 798.24619,355.4363 z"
       id="path3411"
       sodipodi:nodetypes="ccccccccc" />
    <path
       style="fill:#ff8c00;fill-opacity:1;stroke:#000000;stroke-width:1.25;stroke-miterlimit:4;stroke-opacity:1;display:inline"
       d="M 775.51892,356.1939 C 783.39262,357.5515 789.37428,357.6041 797.1106,356.1939 C 797.96363,356.183 798.43626,353.9871 798.34566,352.1842 C 798.36968,350.5683 798.35758,348.6465 797.70025,347.694 C 797.16835,346.9963 796.53833,347.378 795.95616,347.2794 C 787.80281,349.0624 784.36242,348.7945 775.51892,347.2794 C 774.66591,347.2903 774.19328,349.4862 774.28388,351.2893 C 774.25986,352.9051 774.27196,354.8268 774.92929,355.7792 C 775.10402,356.0453 775.31063,356.1957 775.51892,356.1939 z"
       id="path3413"
       sodipodi:nodetypes="ccccccccc" />
    <path
       sodipodi:type="arc"
       style="fill:#ff0000;fill-opacity:1;stroke:#000000;stroke-width:1.25;stroke-miterlimit:4;stroke-opacity:1;display:inline"
       id="path3415"
       sodipodi:cx="614.01514"
       sodipodi:cy="503.9519"
       sodipodi:rx="29.545454"
       sodipodi:ry="40.530304"
       d="M 643.56059,503.9519 A 29.545454,40.530304 0 1 1 584.46968,503.9519"
       transform="matrix(1,0,0,-1.138058,188.38701,795.9852)"
       sodipodi:start="0"
       sodipodi:end="3.1415927"
       sodipodi:open="true" />
    <path
       style="fill:#00ff15;fill-opacity:1;fill-rule:evenodd;stroke:#000000;stroke-width:1.25;stroke-linecap:butt;stroke-linejoin:miter;stroke-miterlimit:4;stroke-opacity:1;display:inline"
       d="M 790.20664,280.385 L 802.78819,281.8492 L 811.84491,280.8317 L 824.26687,304.9493 L 812.64633,310.7554 L 809.44066,291.9972 L 819.85907,335.3197 C 807.0364,342.9123 778.58608,335.7663 778.58608,335.7663 L 788.20309,292.8905 L 784.196,312.5419 L 772.57545,306.7358 L 790.20664,280.385 z"
       id="path3417"
       sodipodi:nodetypes="cccccccccccc" />
    <path
       style="fill:#ffff00;fill-opacity:1;fill-rule:evenodd;stroke:#000000;stroke-width:1.14981222pt;stroke-linecap:butt;stroke-linejoin:miter;stroke-opacity:1;display:inline"
       d="M 774.00924,219.4394 L 769.81249,247.1268 L 779.60491,231.0681 L 774.00924,262.078 L 786.13321,242.6968 L 778.20602,275.9217 L 794.99294,257.0943 L 798.2571,285.3355 L 807.58329,261.5243 L 821.10616,280.9055 L 817.37563,246.0193 L 829.03335,260.4168 L 824.83657,234.3906 L 836.02793,246.0193 L 830.89862,219.9931 L 774.00924,219.4394 z"
       id="path3419"
       sodipodi:nodetypes="cccccccccccccccc" />
    <path
       style="fill:#ff8c00;fill-opacity:1;stroke:#000000;stroke-width:1.3600812;stroke-miterlimit:4;stroke-opacity:1;display:inline"
       d="M 772.34037,224.0419 C 793.9554,227.4905 811.78254,227.9216 832.63998,224.0419 C 835.02225,224.0272 836.34218,221.0724 836.08915,218.6462 C 836.15624,216.47186 836.12244,213.88589 834.28669,212.60427 C 832.80122,211.66541 831.04177,212.17903 829.41592,212.04626 C 810.01195,216.78817 796.2898,216.78817 772.34037,212.04627 C 769.95811,212.06096 768.63819,215.01576 768.89122,217.44201 C 768.82413,219.6163 768.85792,222.2023 770.69367,223.4839 C 771.18165,223.8419 771.75864,224.0442 772.34037,224.0419 z"
       id="path3421"
       sodipodi:nodetypes="ccccccccc" />
    <path
       style="fill:none;fill-opacity:0.75;fill-rule:evenodd;stroke:#000000;stroke-width:1.25;stroke-linecap:butt;stroke-linejoin:miter;stroke-miterlimit:4;stroke-dasharray:none;stroke-opacity:1;display:inline"
       d="M 789.71274,342.8603 C 797.66728,341.3452 807.13698,342.8603 807.13698,342.8603"
       id="path3423" />
    <path
       style="fill:none;fill-opacity:0.75;fill-rule:evenodd;stroke:#000000;stroke-width:1.25;stroke-linecap:butt;stroke-linejoin:miter;stroke-miterlimit:4;stroke-dasharray:none;stroke-opacity:1;display:inline"
       d="M 797.47789,342.6709 L 797.66728,347.2164"
       id="path3425" />
    <path
       style="opacity:1;fill:#ffffff;fill-opacity:1;fill-rule:nonzero;stroke:#000000;stroke-width:0.99999994;stroke-linecap:butt;stroke-linejoin:round;stroke-miterlimit:4;stroke-dasharray:none;stroke-dashoffset:0;stroke-opacity:1"
       d="M 581.24537,269.32332 L 621.8012,269.32332"
       id="path3453" />
    <path
       style="opacity:1;fill:#ffffff;fill-opacity:1;fill-rule:nonzero;stroke:#000000;stroke-width:1;stroke-linecap:butt;stroke-linejoin:round;stroke-miterlimit:4;stroke-dasharray:none;stroke-dashoffset:0;stroke-opacity:1"
       d="M 460.07783,166.06264 L 441.50532,253.69519 C 441.50532,253.69519 443.89124,287.25679 464.12924,278.87339 C 484.36725,270.49 482.8936,249.76077 482.8936,249.76077 L 460.07783,166.06264 z"
       id="path3455" />
    <path
       sodipodi:type="arc"
       style="opacity:1;fill:#ff0000;fill-opacity:1;fill-rule:nonzero;stroke:#000000;stroke-width:1;stroke-linecap:butt;stroke-linejoin:round;stroke-miterlimit:4;stroke-dasharray:none;stroke-dashoffset:0;stroke-opacity:1"
       id="path3473"
       sodipodi:cx="946.09216"
       sodipodi:cy="289.56369"
       sodipodi:rx="2.4646568"
       sodipodi:ry="2.1845822"
       d="M 948.55682,289.56369 A 2.4646568,2.1845822 0 1 1 943.62751,289.56369 A 2.4646568,2.1845822 0 1 1 948.55682,289.56369 z" />
    <path
       style="opacity:1;fill:none;fill-opacity:1;fill-rule:nonzero;stroke:#000000;stroke-width:1;stroke-linecap:butt;stroke-linejoin:round;stroke-miterlimit:4;stroke-dasharray:none;stroke-dashoffset:0;stroke-opacity:1"
       d="M 117.40729,177.92594 C 128.16216,190.47328 129.0584,193.162 129.0584,193.162"
       id="path3483" />
    <path
       id="path4255"
       d="M 120.09601,175.23722 C 130.85088,187.78456 131.74712,190.47328 131.74712,190.47328"
       style="opacity:1;fill:none;fill-opacity:1;fill-rule:nonzero;stroke:#000000;stroke-width:1;stroke-linecap:butt;stroke-linejoin:round;stroke-miterlimit:4;stroke-dasharray:none;stroke-dashoffset:0;stroke-opacity:1" />
    <path
       style="opacity:1;fill:none;fill-opacity:1;fill-rule:nonzero;stroke:#000000;stroke-width:1;stroke-linecap:butt;stroke-linejoin:round;stroke-miterlimit:4;stroke-dasharray:none;stroke-dashoffset:0;stroke-opacity:1"
       d="M 50.189376,272.03102 C 49.293137,292.64451 59.151764,289.05956 59.151764,289.05956"
       id="path4257" />
    <path
       id="path4259"
       d="M 46.189376,274.03102 C 45.293137,294.64451 55.151764,291.05956 55.151764,291.05956"
       style="opacity:1;fill:none;fill-opacity:1;fill-rule:nonzero;stroke:#000000;stroke-width:1;stroke-linecap:butt;stroke-linejoin:round;stroke-miterlimit:4;stroke-dasharray:none;stroke-dashoffset:0;stroke-opacity:1" />
    <path
       style="opacity:1;fill:none;fill-opacity:1;fill-rule:nonzero;stroke:#000000;stroke-width:1;stroke-linecap:butt;stroke-linejoin:round;stroke-miterlimit:4;stroke-dasharray:none;stroke-dashoffset:0;stroke-opacity:1"
       d="M 425.71346,175.23722 C 418.54355,180.61465 418.54355,184.19961 418.54355,184.19961"
       id="path4261" />
    <path
       id="path4263"
       d="M 423.71346,173.23722 C 416.54355,178.61465 416.54355,182.19961 416.54355,182.19961"
       style="opacity:1;fill:none;fill-opacity:1;fill-rule:nonzero;stroke:#000000;stroke-width:1;stroke-linecap:butt;stroke-linejoin:round;stroke-miterlimit:4;stroke-dasharray:none;stroke-dashoffset:0;stroke-opacity:1" />
    <path
       style="opacity:1;fill:none;fill-opacity:1;fill-rule:nonzero;stroke:#000000;stroke-width:1;stroke-linecap:butt;stroke-linejoin:round;stroke-miterlimit:4;stroke-dasharray:none;stroke-dashoffset:0;stroke-opacity:1"
       d="M 613.02738,309.67305 C 614.81986,313.25801 614.81986,320.42792 614.81986,320.42792"
       id="path4265" />
    <path
       id="path4267"
       d="M 617.02738,309.67305 C 618.81986,313.25801 618.81986,320.42792 618.81986,320.42792"
       style="opacity:1;fill:none;fill-opacity:1;fill-rule:nonzero;stroke:#000000;stroke-width:1;stroke-linecap:butt;stroke-linejoin:round;stroke-miterlimit:4;stroke-dasharray:none;stroke-dashoffset:0;stroke-opacity:1" />
    <path
       style="opacity:1;fill:none;fill-opacity:1;fill-rule:nonzero;stroke:#000000;stroke-width:1;stroke-linecap:butt;stroke-linejoin:round;stroke-miterlimit:4;stroke-dasharray:none;stroke-dashoffset:0;stroke-opacity:1"
       d="M 779.7278,179.71842 C 766.28422,185.99209 767.18046,199.43567 767.18046,199.43567"
       id="path4269" />
    <path
       id="path4271"
       d="M 777.7278,177.71842 C 764.28422,183.99209 765.18046,197.43567 765.18046,197.43567"
       style="opacity:1;fill:none;fill-opacity:1;fill-rule:nonzero;stroke:#000000;stroke-width:1;stroke-linecap:butt;stroke-linejoin:round;stroke-miterlimit:4;stroke-dasharray:none;stroke-dashoffset:0;stroke-opacity:1" />
    <path
       style="opacity:1;fill:none;fill-opacity:1;fill-rule:nonzero;stroke:#000000;stroke-width:1;stroke-linecap:butt;stroke-linejoin:round;stroke-miterlimit:4;stroke-dasharray:none;stroke-dashoffset:0;stroke-opacity:1"
       d="M 982.27779,251.41752 C 993.03265,261.27615 992.13641,266.65358 992.13641,266.65358"
       id="path4273" />
    <path
       id="path4275"
       d="M 984.27779,249.41752 C 995.03265,259.27615 994.13641,264.65358 994.13641,264.65358"
       style="opacity:1;fill:none;fill-opacity:1;fill-rule:nonzero;stroke:#000000;stroke-width:1;stroke-linecap:butt;stroke-linejoin:round;stroke-miterlimit:4;stroke-dasharray:none;stroke-dashoffset:0;stroke-opacity:1" />
    <path
       sodipodi:type="inkscape:offset"
       inkscape:radius="-12.837736"
       inkscape:original="M 174.4375 85.59375 C 165.82374 85.59375 158.875 90.191363 158.875 95.90625 L 158.875 252.15625 C 158.875 257.87114 165.82375 262.46874 174.4375 262.46875 L 340.1875 262.46875 C 348.80126 262.46875 355.71875 257.87114 355.71875 252.15625 L 355.71875 95.90625 C 355.71875 90.191361 348.80127 85.59375 340.1875 85.59375 L 174.4375 85.59375 z "
       style="opacity:1;fill:#00ffff;fill-opacity:1;fill-rule:nonzero;stroke:#000000;stroke-width:1;stroke-linecap:butt;stroke-linejoin:round;stroke-miterlimit:4;stroke-dasharray:none;stroke-dashoffset:0;stroke-opacity:1"
       id="path4292"
       d="M 174.4375,98.4375 C 173.32864,98.4375 172.42912,98.626303 171.71875,98.84375 L 171.71875,249.21875 C 172.42912,249.4362 173.32864,249.625 174.4375,249.625 L 340.1875,249.625 C 341.26936,249.625 342.17555,249.45985 342.875,249.25 L 342.875,98.8125 C 342.17555,98.602653 341.26937,98.4375 340.1875,98.4375 L 174.4375,98.4375 z" />
    <path
       style="opacity:1;fill:#ffffff;fill-opacity:1;fill-rule:nonzero;stroke:#000000;stroke-width:1;stroke-linecap:butt;stroke-linejoin:round;stroke-miterlimit:4;stroke-dasharray:none;stroke-dashoffset:0;stroke-opacity:1"
       d="M 297.81532,141.15588 C 278.5345,122.94622 271.57198,136.33568 271.57198,136.33568 C 244.79305,121.87506 234.61706,148.11841 234.61706,148.11841 C 203.01793,155.6165 221.2276,170.07712 221.2276,170.07712 C 242.65074,196.32047 277.99892,184.53774 277.99892,184.53774 C 292.45954,203.81857 317.09615,181.85985 317.09615,181.85985 C 340.6616,192.03584 337.98371,163.1146 337.98371,163.1146 C 336.91255,134.72894 318.70288,139.54915 318.70288,139.54915 C 309.06247,131.51547 298.3509,140.62031 297.81532,141.15588 z"
       id="path4298" />
    <path
       style="opacity:1;fill:#803300;fill-opacity:1;fill-rule:nonzero;stroke:#000000;stroke-width:1;stroke-linecap:butt;stroke-linejoin:round;stroke-miterlimit:4;stroke-dasharray:none;stroke-dashoffset:0;stroke-opacity:1"
       d="M 171.38512,181.85985 L 249.044,181.85985 L 249.044,250.94948 L 265.64693,250.94948 L 264.0402,186.68006 L 342.23466,186.14448 L 342.77024,170.6127 L 267.25367,173.29059 L 269.93156,96.702869 L 253.32863,96.167291 L 251.18632,172.75502 L 170.31396,168.47039 L 171.38512,181.85985 z"
       id="path4296" />
  </g>
  <g
     inkscape:groupmode="layer"
     id="layer3"
     inkscape:label="globos">
    <path
       id="path4283"
       d="M 155.9375,33.96875 C 98.458676,33.96875 51.812499,60.479932 51.8125,93.15625 C 51.8125,116.55631 75.746268,136.76756 110.4375,146.375 L 118.125,172.3125 L 132.4375,150.8125 C 139.99723,151.80606 147.84906,152.34375 155.9375,152.34375 C 213.41632,152.34375 260.0625,125.83257 260.0625,93.15625 C 260.0625,60.479932 213.41632,33.96875 155.9375,33.96875 z"
       style="opacity:1;fill:#000000;fill-opacity:1;fill-rule:nonzero;stroke:#000000;stroke-width:1;stroke-linecap:butt;stroke-linejoin:round;stroke-miterlimit:4;stroke-dasharray:none;stroke-dashoffset:0;stroke-opacity:1" />
    <path
       id="path4285"
       d="M 924.28125,30.8125 C 864.72973,30.8125 816.40622,60.232214 816.40625,96.46875 C 816.40625,121.67074 839.79108,143.56192 874.0625,154.5625 L 855.5625,182.3125 L 893.4375,159.375 C 903.21606,161.15012 913.55853,162.09375 924.28125,162.09375 C 983.83277,162.09375 1032.1563,132.70528 1032.1562,96.46875 C 1032.1562,60.232215 983.83275,30.8125 924.28125,30.8125 z"
       style="opacity:1;fill:#000000;fill-opacity:1;fill-rule:nonzero;stroke:#000000;stroke-width:0.99999988;stroke-linecap:butt;stroke-linejoin:round;stroke-miterlimit:4;stroke-dasharray:none;stroke-dashoffset:0;stroke-opacity:1" />
    <path
       style="opacity:1;fill:#ffffff;fill-opacity:1;fill-rule:nonzero;stroke:#000000;stroke-width:1;stroke-linecap:butt;stroke-linejoin:round;stroke-miterlimit:4;stroke-dasharray:none;stroke-dashoffset:0;stroke-opacity:1"
       d="M 151.9375 29.96875 C 94.458676 29.96875 47.812499 56.479932 47.8125 89.15625 C 47.8125 112.55631 71.746268 132.76756 106.4375 142.375 L 114.125 168.3125 L 128.4375 146.8125 C 135.99723 147.80606 143.84906 148.34375 151.9375 148.34375 C 209.41632 148.34375 256.0625 121.83257 256.0625 89.15625 C 256.0625 56.479932 209.41632 29.96875 151.9375 29.96875 z "
       id="path3451" />
    <text
       xml:space="preserve"
       style="font-size:12px;font-style:italic;font-variant:normal;font-weight:normal;font-stretch:normal;text-align:center;line-height:125%;writing-mode:lr-tb;text-anchor:middle;fill:#000000;fill-opacity:1;stroke:none;stroke-width:1px;stroke-linecap:butt;stroke-linejoin:miter;stroke-opacity:1;font-family:Kid Kosmic;-inkscape-font-specification:Kid Kosmic Italic"
       x="156.90565"
       y="68.467926"
       id="text3427"
       sodipodi:linespacing="125%"><tspan
         sodipodi:role="line"
         x="156.90565"
         y="68.467926"
         id="tspan3433">noventa y ocho...</tspan><tspan
         sodipodi:role="line"
         x="156.90565"
         y="83.467926"
         id="tspan3439">noventa y nueve...</tspan><tspan
         sodipodi:role="line"
         x="156.90565"
         y="98.467926"
         id="tspan3441">cien.</tspan><tspan
         sodipodi:role="line"
         x="156.90565"
         y="113.46793"
         id="tspan3445">Ests listo o no,</tspan><tspan
         sodipodi:role="line"
         x="156.90565"
         y="128.46793"
         id="tspan3449">all voy</tspan></text>
    <path
       style="opacity:1;fill:#ffffff;fill-opacity:1;fill-rule:nonzero;stroke:#000000;stroke-width:0.99999988;stroke-linecap:butt;stroke-linejoin:round;stroke-miterlimit:4;stroke-dasharray:none;stroke-dashoffset:0;stroke-opacity:1"
       d="M 920.28125 26.8125 C 860.72973 26.8125 812.40622 56.232214 812.40625 92.46875 C 812.40625 117.67074 835.79108 139.56192 870.0625 150.5625 L 851.5625 178.3125 L 889.4375 155.375 C 899.21606 157.15012 909.55853 158.09375 920.28125 158.09375 C 979.83277 158.09375 1028.1563 128.70528 1028.1562 92.46875 C 1028.1562 56.232215 979.83275 26.8125 920.28125 26.8125 z "
       id="path3471" />
    <text
       xml:space="preserve"
       style="font-size:12px;font-style:italic;font-variant:normal;font-weight:normal;font-stretch:normal;text-align:center;line-height:125%;writing-mode:lr-tb;text-anchor:middle;fill:#000000;fill-opacity:1;stroke:none;stroke-width:1px;stroke-linecap:butt;stroke-linejoin:miter;stroke-opacity:1;font-family:Kid Kosmic;-inkscape-font-specification:Kid Kosmic Italic"
       x="921.52295"
       y="56.146812"
       id="text3457"
       sodipodi:linespacing="125%"><tspan
         sodipodi:role="line"
         id="tspan3459"
         x="921.52295"
         y="56.146812">de verdad</tspan><tspan
         sodipodi:role="line"
         x="921.52295"
         y="71.146812"
         id="tspan3461">creas que</tspan><tspan
         sodipodi:role="line"
         x="921.52295"
         y="86.146812"
         id="tspan3463">escondiendote</tspan><tspan
         sodipodi:role="line"
         x="921.52295"
         y="101.14681"
         id="tspan3465">detrs de un</tspan><tspan
         sodipodi:role="line"
         x="921.52295"
         y="116.14681"
         id="tspan3467">punto no te</tspan><tspan
         sodipodi:role="line"
         x="921.52295"
         y="131.14682"
         id="tspan3469">iba a encontrar?</tspan></text>
  </g>
  <g
     inkscape:groupmode="layer"
     id="layer4"
     inkscape:label="vinietas">
    <path
       style="fill:#6699cc;fill-opacity:1;fill-rule:nonzero;stroke:#000000;stroke-width:4.48726034;stroke-linecap:round;stroke-linejoin:round;stroke-miterlimit:4;stroke-dashoffset:0;stroke-opacity:1;display:inline"
       d="M -3.1395438,-4.7760952 C -5.4235092,-4.7760952 -7.2644814,-2.9685179 -7.2644814,-0.74658629 L -7.2644814,390.21022 C -7.2644814,390.53373 -7.2131821,390.85414 -7.1394833,391.15464 C -7.2179821,391.46533 -7.2644814,391.79636 -7.2644814,392.13053 L -7.2644814,783.08734 C -7.2644814,785.30927 -5.4235092,787.08538 -3.1395438,787.08537 L 1073.2191,787.08537 C 1075.5032,787.08537 1077.3441,785.30927 1077.3441,783.08734 L 1077.3441,392.13053 C 1077.3441,391.79636 1077.2977,391.46533 1077.2191,391.15464 C 1077.2929,390.85414 1077.3441,390.53373 1077.3441,390.21022 L 1077.3441,-0.74658629 C 1077.3441,-2.9685179 1075.5034,-4.7760952 1073.2191,-4.7760952 L -3.1395438,-4.7760952 z M 32.141222,5.9902489 L 318.91808,5.9902489 C 335.30364,5.9902489 348.48014,17.992323 348.48014,32.874629 L 348.48014,331.31013 C 348.48014,346.19245 335.30374,358.16303 318.91808,358.16303 L 32.141222,358.16303 C 15.75567,358.16303 2.5791696,346.19244 2.5791696,331.31013 L 2.5791696,32.874629 C 2.5791696,17.992323 15.75567,5.9902489 32.141222,5.9902489 z M 388.72953,5.9902489 L 675.50648,5.9902489 C 691.89203,5.9902489 705.06853,17.992323 705.06853,32.874629 L 705.06853,331.31013 C 705.06853,346.19245 691.89203,358.16303 675.50648,358.16303 L 388.72953,358.16303 C 372.34397,358.16303 359.16747,346.19244 359.16747,331.31013 L 359.16747,32.874629 C 359.16747,17.992323 372.34397,5.9902489 388.72953,5.9902489 z M 745.66162,5.9902489 L 1032.4386,5.9902489 C 1048.8241,5.9902489 1062.0006,17.992323 1062.0006,32.874629 L 1062.0006,331.31013 C 1062.0006,346.19245 1048.8241,358.16303 1032.4386,358.16303 L 745.66162,358.16303 C 729.27607,358.16303 716.09957,346.19244 716.09957,331.31013 L 716.09957,32.874629 C 716.09957,17.992323 729.27607,5.9902489 745.66162,5.9902489 z M 32.141222,398.86737 L 318.91808,398.86737 C 335.30364,398.86737 348.48014,410.86944 348.48014,425.75175 L 348.48014,724.18725 C 348.48014,739.06957 335.30374,751.04015 318.91808,751.04015 L 32.141222,751.04015 C 15.75567,751.04015 2.5791696,739.06956 2.5791696,724.18725 L 2.5791696,425.75175 C 2.5791696,410.86944 15.75567,398.86737 32.141222,398.86737 z M 388.72953,398.86737 L 675.50648,398.86737 C 691.89203,398.86737 705.06853,410.86944 705.06853,425.75175 L 705.06853,724.18725 C 705.06853,739.06957 691.89203,751.04015 675.50648,751.04015 L 388.72953,751.04015 C 372.34397,751.04015 359.16747,739.06956 359.16747,724.18725 L 359.16747,425.75175 C 359.16747,410.86944 372.34397,398.86737 388.72953,398.86737 z M 745.66162,398.86737 L 1032.4386,398.86737 C 1048.8241,398.86737 1062.0006,410.86944 1062.0006,425.75175 L 1062.0006,724.18725 C 1062.0006,739.06957 1048.8241,751.04015 1032.4386,751.04015 L 745.66162,751.04015 C 729.27607,751.04015 716.09957,739.06956 716.09957,724.18725 L 716.09957,425.75175 C 716.09957,410.86944 729.27607,398.86737 745.66162,398.86737 z"
       id="rect16715" />
    <text
       xml:space="preserve"
       style="font-size:18px;font-style:normal;font-variant:normal;font-weight:normal;font-stretch:normal;text-align:center;line-height:125%;writing-mode:lr-tb;text-anchor:middle;fill:#ffffff;fill-opacity:1;stroke:#ffffff;stroke-width:1pt;stroke-linecap:butt;stroke-linejoin:miter;stroke-opacity:1;display:inline;font-family:Sans"
       x="161.90993"
       y="384.6756"
       id="text2618"
       sodipodi:linespacing="125%"><tspan
         sodipodi:role="line"
         id="tspan2620"
         x="161.90993"
         y="384.6756">tira de linuxhispano.net</tspan></text>
    <text
       xml:space="preserve"
       style="font-size:18px;font-style:normal;font-variant:normal;font-weight:normal;font-stretch:normal;text-align:center;line-height:125%;writing-mode:lr-tb;text-anchor:middle;fill:#ffffff;fill-opacity:1;stroke:#ffffff;stroke-width:1pt;stroke-linecap:butt;stroke-linejoin:miter;stroke-opacity:1;display:inline;font-family:Sans"
       x="1014.7665"
       y="383.6756"
       id="text2622"
       sodipodi:linespacing="125%"><tspan
         sodipodi:role="line"
         id="tspan2624"
         x="1014.7665"
         y="383.6756">by danigm</tspan></text>
    <text
       sodipodi:linespacing="125%"
       id="text4260"
       y="384.6756"
       x="541.91003"
       style="font-size:18px;font-style:normal;font-variant:normal;font-weight:normal;font-stretch:normal;text-align:center;line-height:125%;writing-mode:lr-tb;text-anchor:middle;fill:#ffffff;fill-opacity:1;stroke:none;stroke-width:1pt;stroke-linecap:butt;stroke-linejoin:miter;stroke-opacity:1;display:inline;font-family:Sans"
       xml:space="preserve"><tspan
         y="384.6756"
         x="541.91003"
         id="tspan4262"
         sodipodi:role="line">imagenes en danigm.net</tspan></text>
  </g>
</svg>
