<?xml version="1.0" encoding="UTF-8" standalone="no"?>
<!-- Created with Inkscape (http://www.inkscape.org/) -->

<svg
   xmlns:ns="&amp;#38;#38;#38;#38;#38;#38;#38;#38;#38;#38;#38;#38;#38;#38;#38;ns_xlink;"
   xmlns:dc="http://purl.org/dc/elements/1.1/"
   xmlns:cc="http://creativecommons.org/ns#"
   xmlns:rdf="http://www.w3.org/1999/02/22-rdf-syntax-ns#"
   xmlns:svg="http://www.w3.org/2000/svg"
   xmlns="http://www.w3.org/2000/svg"
   xmlns:sodipodi="http://sodipodi.sourceforge.net/DTD/sodipodi-0.dtd"
   xmlns:inkscape="http://www.inkscape.org/namespaces/inkscape"
   width="1063"
   height="390"
   id="svg2"
   sodipodi:version="0.32"
   inkscape:version="0.47 r22583"
   version="1.0"
   sodipodi:docname="flash.svg"
   inkscape:output_extension="org.inkscape.output.svg.inkscape"
   inkscape:export-filename="/home/danigm/tira/flash.png"
   inkscape:export-xdpi="57.57"
   inkscape:export-ydpi="57.57">
  <defs
     id="defs4">
    <inkscape:perspective
       sodipodi:type="inkscape:persp3d"
       id="perspective3033"
       inkscape:vp_x="-50 : 600 : 1"
       inkscape:vp_y="0 : 1000 : 0"
       inkscape:vp_z="700 : 600 : 1"
       inkscape:persp3d-origin="300 : 400 : 1" />
    <inkscape:perspective
       sodipodi:type="inkscape:persp3d"
       id="perspective3032"
       inkscape:vp_x="-50 : 600 : 1"
       inkscape:vp_y="0 : 1000 : 0"
       inkscape:vp_z="700 : 600 : 1"
       inkscape:persp3d-origin="300 : 400 : 1" />
    <inkscape:perspective
       sodipodi:type="inkscape:persp3d"
       id="perspective3031"
       inkscape:vp_x="-50 : 600 : 1"
       inkscape:vp_y="0 : 1000 : 0"
       inkscape:vp_z="700 : 600 : 1"
       inkscape:persp3d-origin="300 : 400 : 1" />
    <inkscape:perspective
       sodipodi:type="inkscape:persp3d"
       id="perspective3030"
       inkscape:vp_x="-50 : 600 : 1"
       inkscape:vp_y="0 : 1000 : 0"
       inkscape:vp_z="700 : 600 : 1"
       inkscape:persp3d-origin="300 : 400 : 1" />
    <inkscape:perspective
       sodipodi:type="inkscape:persp3d"
       id="perspective3029"
       inkscape:vp_x="-50 : 600 : 1"
       inkscape:vp_y="0 : 1000 : 0"
       inkscape:vp_z="700 : 600 : 1"
       inkscape:persp3d-origin="300 : 400 : 1" />
    <inkscape:perspective
       sodipodi:type="inkscape:persp3d"
       id="perspective2997"
       inkscape:vp_x="-50 : 600 : 1"
       inkscape:vp_y="0 : 1000 : 0"
       inkscape:vp_z="700 : 600 : 1"
       inkscape:persp3d-origin="300 : 400 : 1" />
    <inkscape:perspective
       sodipodi:type="inkscape:persp3d"
       id="perspective2996"
       inkscape:vp_x="-50 : 600 : 1"
       inkscape:vp_y="0 : 1000 : 0"
       inkscape:vp_z="700 : 600 : 1"
       inkscape:persp3d-origin="300 : 400 : 1" />
    <linearGradient
       inkscape:collect="always"
       ns:href="#linearGradient8459"
       id="linearGradient22173"
       gradientUnits="userSpaceOnUse"
       x1="79.135063"
       y1="222.45238"
       x2="81.359901"
       y2="288.58099" />
    <linearGradient
       inkscape:collect="always"
       ns:href="#linearGradient2085"
       id="linearGradient15268"
       gradientUnits="userSpaceOnUse"
       gradientTransform="scale(1.034178,0.966951)"
       x1="146.3828"
       y1="70.228607"
       x2="116.75287"
       y2="53.988689" />
    <linearGradient
       inkscape:collect="always"
       ns:href="#linearGradient2085"
       id="linearGradient15267"
       gradientUnits="userSpaceOnUse"
       gradientTransform="scale(1.035723,0.965509)"
       x1="162.97719"
       y1="23.931684"
       x2="131.34537"
       y2="10.142395" />
    <linearGradient
       inkscape:collect="always"
       ns:href="#linearGradient4021"
       id="linearGradient15266"
       gradientUnits="userSpaceOnUse"
       gradientTransform="scale(1.026523,0.974162)"
       x1="215.19115"
       y1="116.1558"
       x2="148.53513"
       y2="78.029449" />
    <linearGradient
       inkscape:collect="always"
       ns:href="#linearGradient4021"
       id="linearGradient15265"
       gradientUnits="userSpaceOnUse"
       gradientTransform="scale(1.032621,0.96841)"
       x1="230.18588"
       y1="64.586258"
       x2="171.49763"
       y2="31.573004" />
    <radialGradient
       inkscape:collect="always"
       ns:href="#linearGradient1806"
       id="radialGradient15264"
       gradientUnits="userSpaceOnUse"
       cx="24.825565"
       cy="176.56438"
       fx="40.974991"
       fy="162.11137"
       r="42.859913" />
  </defs>
  <sodipodi:namedview
     id="base"
     pagecolor="#ffffff"
     bordercolor="#666666"
     borderopacity="1.0"
     inkscape:pageopacity="1"
     inkscape:pageshadow="2"
     inkscape:zoom="0.85136406"
     inkscape:cx="531.5"
     inkscape:cy="195"
     inkscape:document-units="px"
     inkscape:current-layer="layer3"
     width="1062.99px"
     borderlayer="true"
     inkscape:window-width="1024"
     inkscape:window-height="575"
     inkscape:window-x="0"
     inkscape:window-y="25"
     showgrid="false"
     inkscape:window-maximized="1" />
  <metadata
     id="metadata7">
    <rdf:RDF>
      <cc:Work
         rdf:about="">
        <dc:format>image/svg+xml</dc:format>
        <dc:type
           rdf:resource="http://purl.org/dc/dcmitype/StillImage" />
        <dc:title></dc:title>
        <dc:date />
        <dc:creator>
          <cc:Agent>
            <dc:title />
          </cc:Agent>
        </dc:creator>
        <dc:rights>
          <cc:Agent>
            <dc:title />
          </cc:Agent>
        </dc:rights>
        <dc:publisher>
          <cc:Agent>
            <dc:title />
          </cc:Agent>
        </dc:publisher>
        <dc:identifier />
        <dc:source />
        <dc:relation />
        <dc:language />
        <dc:subject>
          <rdf:Bag />
        </dc:subject>
        <dc:coverage />
        <dc:description />
        <dc:contributor>
          <cc:Agent>
            <dc:title />
          </cc:Agent>
        </dc:contributor>
        <cc:license
           rdf:resource="" />
      </cc:Work>
      <cc:Work
         rdf:about="">
        <dc:format>image/svg+xml</dc:format>
        <dc:type
           rdf:resource="http://purl.org/dc/dcmitype/StillImage" />
      </cc:Work>
    </rdf:RDF>
  </metadata>
  <g
     inkscape:label="fondo"
     inkscape:groupmode="layer"
     id="layer1">
    <rect
       style="opacity:1;fill:#fce94f;fill-opacity:1;fill-rule:nonzero;stroke:#000000;stroke-width:4;stroke-linecap:round;stroke-linejoin:round;stroke-miterlimit:4;stroke-dasharray:none;stroke-dashoffset:0;stroke-opacity:1;display:inline"
       id="rect4585"
       width="1150.5601"
       height="856.79999"
       x="-39.900002"
       y="-27.019989"
       rx="15.548299"
       ry="10.315682" />
    <path
       sodipodi:type="arc"
       style="opacity:1;fill:#ffffff;fill-opacity:0.58035715;fill-rule:nonzero;stroke:none;stroke-width:3.80038881;stroke-linecap:round;stroke-linejoin:round;stroke-miterlimit:4;stroke-dasharray:none;stroke-dashoffset:0;stroke-opacity:1;display:inline"
       id="path4587"
       sodipodi:cx="581.40002"
       sodipodi:cy="374.85001"
       sodipodi:rx="535.5"
       sodipodi:ry="273.87"
       d="M 1116.9,374.85001 A 535.5,273.87 0 1 1 45.900024,374.85001 A 535.5,273.87 0 1 1 1116.9,374.85001 z"
       transform="matrix(0.9981395,0,0,1.1098713,-48.81833,-38.035264)" />
    <path
       sodipodi:type="arc"
       style="fill:#a40000;fill-opacity:1;stroke:#000000;stroke-width:1;stroke-linecap:round;stroke-linejoin:miter;stroke-miterlimit:4;stroke-dasharray:none;stroke-opacity:1;display:inline"
       id="path2819"
       sodipodi:cx="1411.7009"
       sodipodi:cy="253.46965"
       sodipodi:rx="53.76445"
       sodipodi:ry="53.76445"
       d="M 1465.4654,253.46965 A 53.76445,53.76445 0 1 1 1357.9365,253.46965 A 53.76445,53.76445 0 1 1 1465.4654,253.46965 z"
       transform="translate(-211.98567,488.70551)" />
    <path
       d="M 1465.4654,253.46965 A 53.76445,53.76445 0 1 1 1357.9365,253.46965 A 53.76445,53.76445 0 1 1 1465.4654,253.46965 z"
       sodipodi:ry="53.76445"
       sodipodi:rx="53.76445"
       sodipodi:cy="253.46965"
       sodipodi:cx="1411.7009"
       id="path2821"
       style="fill:#f57900;fill-opacity:1;stroke:#000000;stroke-width:1;stroke-linecap:round;stroke-linejoin:miter;stroke-miterlimit:4;stroke-dasharray:none;stroke-opacity:1;display:inline"
       sodipodi:type="arc"
       transform="translate(-91.985679,488.70551)" />
    <path
       transform="translate(30.014325,488.70551)"
       sodipodi:type="arc"
       style="fill:#4e9a06;fill-opacity:1;stroke:#000000;stroke-width:1;stroke-linecap:round;stroke-linejoin:miter;stroke-miterlimit:4;stroke-dasharray:none;stroke-opacity:1;display:inline"
       id="path2823"
       sodipodi:cx="1411.7009"
       sodipodi:cy="253.46965"
       sodipodi:rx="53.76445"
       sodipodi:ry="53.76445"
       d="M 1465.4654,253.46965 A 53.76445,53.76445 0 1 1 1357.9365,253.46965 A 53.76445,53.76445 0 1 1 1465.4654,253.46965 z" />
    <path
       d="M 1465.4654,253.46965 A 53.76445,53.76445 0 1 1 1357.9365,253.46965 A 53.76445,53.76445 0 1 1 1465.4654,253.46965 z"
       sodipodi:ry="53.76445"
       sodipodi:rx="53.76445"
       sodipodi:cy="253.46965"
       sodipodi:cx="1411.7009"
       id="path2825"
       style="fill:#fce94f;fill-opacity:1;stroke:#000000;stroke-width:1;stroke-linecap:round;stroke-linejoin:miter;stroke-miterlimit:4;stroke-dasharray:none;stroke-opacity:1;display:inline"
       sodipodi:type="arc"
       transform="translate(150.01433,488.70551)" />
    <path
       transform="translate(270.01433,488.70551)"
       sodipodi:type="arc"
       style="fill:#5c3566;fill-opacity:1;stroke:#000000;stroke-width:1;stroke-linecap:round;stroke-linejoin:miter;stroke-miterlimit:4;stroke-dasharray:none;stroke-opacity:1;display:inline"
       id="path2827"
       sodipodi:cx="1411.7009"
       sodipodi:cy="253.46965"
       sodipodi:rx="53.76445"
       sodipodi:ry="53.76445"
       d="M 1465.4654,253.46965 A 53.76445,53.76445 0 1 1 1357.9365,253.46965 A 53.76445,53.76445 0 1 1 1465.4654,253.46965 z" />
  </g>
  <g
     inkscape:groupmode="layer"
     id="layer2"
     inkscape:label="dibujos">
    <path
       style="fill:#edd400;fill-opacity:1;stroke:#000000;stroke-width:1;stroke-miterlimit:4;stroke-opacity:1;stroke-dasharray:none"
       d="m 850.77398,224.89413 c 0,0 -8.99522,-14.21825 -10.15589,-15.08876 -1.16068,-0.8705 0.29016,6.67388 0.29016,6.67388 l -11.0264,-11.89691 3.77219,11.60674 -12.18707,-5.5132 14.79859,13.34775 0,-8.12472 7.25421,9.86573 -0.8705,-7.83455 5.5132,8.41489 2.61151,-1.45085 z"
       id="path4753" />
    <path
       id="path4755"
       d="m 903.46697,224.89413 c 0,0 8.99522,-14.21825 10.15589,-15.08876 1.16068,-0.8705 -0.29016,6.67388 -0.29016,6.67388 l 11.0264,-11.89691 -3.77219,11.60674 12.18707,-5.5132 -14.79859,13.34775 0,-8.12472 -7.25421,9.86573 0.8705,-7.83455 -5.5132,8.41489 -2.61151,-1.45085 z"
       style="fill:#edd400;fill-opacity:1;stroke:#000000;stroke-width:1;stroke-miterlimit:4;stroke-opacity:1;stroke-dasharray:none" />
    <path
       style="fill:#cc0000;fill-opacity:1;stroke:#000000;stroke-width:1;stroke-miterlimit:4;stroke-opacity:1;stroke-dasharray:none"
       d="m 865.82099,277.55429 -1.17719,13.53765 -20.60077,7.65172 c 0,0 -14.71483,-4.12016 -18.24639,0 -3.53157,4.12015 -8.24031,19.42358 -4.12016,22.36655 4.12016,2.94297 6.47453,5.29734 6.47453,5.29734 l -8.8289,32.37264 0.58859,35.9042 14.12624,0 -4.12015,-34.72701 11.18328,-31.19546 c 0,0 3.53156,11.77187 5.88593,15.30343 2.35437,3.53156 5.88594,12.36047 5.88594,12.36047 0,0 -4.12016,7.65171 -5.29735,11.77187 -1.17718,4.12015 4.12016,29.42967 4.12016,29.42967 l 50.03044,0 c 0,0 5.29734,-32.37264 2.94297,-35.9042 -2.35437,-3.53156 -11.77187,-15.30343 -11.77187,-15.30343 l 10.59468,-26.48671 14.71484,34.13842 -2.35437,42.96733 12.94905,-0.5886 -1.17718,-49.44185 -16.48062,-38.84717 c 0,0 1.17719,-10.59468 1.17719,-12.94905 0,-2.35438 -5.29735,-7.06313 -8.24031,-8.24031 -2.94297,-1.17719 -14.71484,2.94296 -14.71484,2.94296 l -5.29734,-11.18327 -18.2464,-1.17719 z"
       id="path4739" />
    <g
       transform="matrix(-0.4651787,0.8852168,-0.8852168,-0.4651787,1167.977,661.04515)"
       id="g3618">
      <g
         id="g3620"
         inkscape:transform-center-x="-6.6507783"
         inkscape:transform-center-y="-6.1622439"
         transform="matrix(0.6557502,-0.05498409,0.05498409,0.6557502,-932.21721,283.43809)">
        <rect
           transform="matrix(0.6198235,0.7847413,-0.7847413,0.6198235,0,0)"
           style="fill:#cccccc;fill-opacity:1;fill-rule:nonzero;stroke:#000000;stroke-width:1;stroke-linecap:butt;stroke-linejoin:round;stroke-miterlimit:4;stroke-opacity:1;stroke-dasharray:none"
           id="rect3622"
           width="5.9731178"
           height="31.785524"
           x="2084.4009"
           y="-435.39514"
           ry="4.1980953"
           rx="4.1980953" />
        <path
           style="fill:#ffffff;fill-opacity:1;fill-rule:nonzero;stroke:none"
           d="m 1618.8049,1383.8827 13.0267,-10.8737 -0.7427,-0.2194 -12.1886,10.0342 -0.095,1.0589 z"
           id="path3624" />
      </g>
      <g
         id="g3626"
         transform="matrix(0.00456249,-0.6580355,0.6580355,0.00456249,-719.42452,2159.3041)"
         inkscape:transform-center-x="6.5510517"
         inkscape:transform-center-y="8.6773905">
        <rect
           transform="matrix(0.584065,-0.8117069,0.8117069,0.584065,0,0)"
           rx="4.1980953"
           ry="4.1980953"
           y="2086.7573"
           x="-187.26065"
           height="31.785521"
           width="5.9731174"
           id="rect3628"
           style="fill:#cccccc;fill-opacity:1;fill-rule:nonzero;stroke:#000000;stroke-width:0.99999994;stroke-linecap:butt;stroke-linejoin:round;stroke-miterlimit:4;stroke-opacity:1;stroke-dasharray:none" />
        <path
           id="path3630"
           d="m 1587.8529,1372.1075 17.6564,12.7047 0.035,-0.9921 -16.3468,-11.932 -1.3451,0.2194 z"
           style="fill:#ffffff;fill-opacity:1;fill-rule:nonzero;stroke:none" />
      </g>
      <g
         id="g3632"
         transform="matrix(0.5648622,0.337583,-0.337583,0.5648622,-241.38586,-223.42352)">
        <path
           sodipodi:type="arc"
           style="fill:#cccccc;fill-opacity:1;fill-rule:nonzero;stroke:#000000;stroke-width:1.29999959;stroke-linecap:butt;stroke-linejoin:round;stroke-miterlimit:4;stroke-opacity:1;stroke-dasharray:none"
           id="path3634"
           sodipodi:cx="223.90565"
           sodipodi:cy="121.57761"
           sodipodi:rx="7.873302"
           sodipodi:ry="7.873302"
           d="m 231.77896,121.57761 c 0,4.3483 -3.525,7.8733 -7.87331,7.8733 -4.3483,0 -7.8733,-3.525 -7.8733,-7.8733 0,-4.34831 3.525,-7.87331 7.8733,-7.87331 4.34831,0 7.87331,3.525 7.87331,7.87331 z"
           transform="matrix(0.4492809,-0.6243902,0.6243902,0.4492809,1435.5154,1471.7425)" />
        <path
           transform="matrix(0.100465,-0.1396217,0.1396217,0.100465,1570.2308,1407.7417)"
           d="m 231.77896,121.57761 c 0,4.3483 -3.525,7.8733 -7.87331,7.8733 -4.3483,0 -7.8733,-3.525 -7.8733,-7.8733 0,-4.34831 3.525,-7.87331 7.8733,-7.87331 4.34831,0 7.87331,3.525 7.87331,7.87331 z"
           sodipodi:ry="7.873302"
           sodipodi:rx="7.873302"
           sodipodi:cy="121.57761"
           sodipodi:cx="223.90565"
           id="path3636"
           style="fill:#ffffff;fill-opacity:1;fill-rule:nonzero;stroke:none"
           sodipodi:type="arc" />
      </g>
      <g
         id="g3638"
         inkscape:transform-center-x="-17.066912"
         inkscape:transform-center-y="-19.98967"
         transform="matrix(0.6557502,-0.05498409,0.05498409,0.6557502,-932.21721,283.43809)">
        <path
           id="path3640"
           d="m 1625.4971,1352.8929 0.5416,6.395 7.0293,4.1959 3.4203,-1.82 -6.9328,-3.7101 -0.2013,-5.0501 -3.8571,-0.011 z m 9.2208,-7.2783 4.5526,7.3487 -1.1071,6.9924 2.5946,0.8562 1.1937,-8.4761 -2.7863,-10.2992 -4.4475,3.578 z m 8.3995,17.5787 1.1011,1.9815 6.2365,-4.1637 5.2605,1.4069 0.3081,-4.6837 -6.2947,0.7327 -6.6115,4.7263 z m 0.1646,5.8859 0.1823,1.6473 4.2144,0.5056 2.3307,3.3716 2.5594,-1.9043 -3.725,-3.3343 -5.5618,-0.2859 z"
           style="fill:#cccccc;fill-opacity:1;fill-rule:nonzero;stroke:#000000;stroke-width:0.99999994;stroke-linecap:butt;stroke-linejoin:round;stroke-miterlimit:4;stroke-opacity:1;stroke-dasharray:none" />
        <path
           transform="matrix(0.5580852,-0.7756015,0.7756015,0.5580852,1418.3319,1472.7115)"
           d="m 231.77896,121.57761 c 0,4.3483 -3.525,7.8733 -7.87331,7.8733 -4.3483,0 -7.8733,-3.525 -7.8733,-7.8733 0,-4.34831 3.525,-7.87331 7.8733,-7.87331 4.34831,0 7.87331,3.525 7.87331,7.87331 z"
           sodipodi:ry="7.873302"
           sodipodi:rx="7.873302"
           sodipodi:cy="121.57761"
           sodipodi:cx="223.90565"
           id="path3642"
           style="fill:#cccccc;fill-opacity:1;fill-rule:nonzero;stroke:#000000;stroke-width:1.04655123;stroke-linecap:butt;stroke-linejoin:round;stroke-miterlimit:4;stroke-opacity:1;stroke-dasharray:none"
           sodipodi:type="arc" />
        <path
           sodipodi:type="arc"
           style="fill:#ffffff;fill-opacity:1;fill-rule:nonzero;stroke:none"
           id="path3644"
           sodipodi:cx="223.90565"
           sodipodi:cy="121.57761"
           sodipodi:rx="7.873302"
           sodipodi:ry="7.873302"
           d="m 231.77896,121.57761 c 0,4.3483 -3.525,7.8733 -7.87331,7.8733 -4.3483,0 -7.8733,-3.525 -7.8733,-7.8733 0,-4.34831 3.525,-7.87331 7.8733,-7.87331 4.34831,0 7.87331,3.525 7.87331,7.87331 z"
           transform="matrix(0.2150335,-0.2988437,0.2988437,0.2150335,1556.3475,1410.0025)" />
      </g>
    </g>
    <path
       id="path3646"
       d="m 73.195809,281.82535 -1.41985,16.0916 -8.99236,4.2596 11.83206,15.145 11.83205,-16.0916 -9.93892,-4.2595 1.41984,-13.2519 -4.73282,-1.8932 z"
       style="fill:#ffe5b9;fill-opacity:1;fill-rule:evenodd;stroke:#000000;stroke-width:1.25;stroke-linecap:butt;stroke-linejoin:miter;stroke-miterlimit:4;stroke-opacity:1;display:inline" />
    <path
       transform="matrix(1.031733,0,0,0.716766,-11.636351,-120.55714)"
       d="m 61.526698,525.42224 a 6.8625937,6.8625937 0 1 1 -13.725187,0 6.8625937,6.8625937 0 1 1 13.725187,0 z"
       sodipodi:ry="6.8625937"
       sodipodi:rx="6.8625937"
       sodipodi:cy="525.42224"
       sodipodi:cx="54.664104"
       id="path3648"
       style="fill:#ffe5b9;fill-opacity:1;stroke:#000000;stroke-width:1.25;stroke-miterlimit:4;stroke-opacity:1;display:inline"
       sodipodi:type="arc" />
    <path
       transform="translate(-9.6650509,-270.08764)"
       d="m 136.3053,524.94897 a 6.6259522,5.4427466 0 1 1 -13.2519,0 6.6259522,5.4427466 0 1 1 13.2519,0 z"
       sodipodi:ry="5.4427466"
       sodipodi:rx="6.6259522"
       sodipodi:cy="524.94897"
       sodipodi:cx="129.67935"
       id="path3650"
       style="fill:#ffe5b9;fill-opacity:1;stroke:#000000;stroke-width:1.25;stroke-miterlimit:4;stroke-opacity:1;display:inline"
       sodipodi:type="arc" />
    <path
       id="path3652"
       d="m 54.737799,320.16125 -6.15267,16.5649 c -9.93893,2.3664 -3.78626,11.8321 -3.78626,11.8321 8.51908,3.3129 11.35878,-0.9466 11.35878,-0.9466 l 5.2061,-27.4504 -6.62595,0 z"
       style="fill:#ffe5b9;fill-opacity:1;fill-rule:evenodd;stroke:#000000;stroke-width:1.25;stroke-linecap:butt;stroke-linejoin:miter;stroke-miterlimit:4;stroke-opacity:1;display:inline" />
    <path
       transform="matrix(0.669126,0,0,0.694018,16.198949,-107.03904)"
       d="m 150.97705,518.55963 a 51.824413,51.587772 0 1 1 -103.648822,0 51.824413,51.587772 0 1 1 103.648822,0 z"
       sodipodi:ry="51.587772"
       sodipodi:rx="51.824413"
       sodipodi:cy="518.55963"
       sodipodi:cx="99.152641"
       id="path3654"
       style="fill:#ffe5b9;fill-opacity:1;stroke:#000000;stroke-width:1.83430135;stroke-miterlimit:4;stroke-opacity:1;display:inline"
       sodipodi:type="arc" />
    <path
       transform="translate(-4.9427509,-254.73724)"
       d="m 97.022873,504.59781 a 17.038162,17.274805 0 1 1 -34.076325,0 17.038162,17.274805 0 1 1 34.076325,0 z"
       sodipodi:ry="17.274805"
       sodipodi:rx="17.038162"
       sodipodi:cy="504.59781"
       sodipodi:cx="79.984711"
       id="path3656"
       style="fill:#ffffff;fill-opacity:1;stroke:#000000;stroke-width:1.25;stroke-miterlimit:4;stroke-opacity:1;display:inline"
       sodipodi:type="arc" />
    <path
       transform="translate(-4.9427509,-253.79064)"
       d="m 122.10684,504.59781 a 12.541981,13.488545 0 1 1 -25.083963,0 12.541981,13.488545 0 1 1 25.083963,0 z"
       sodipodi:ry="13.488545"
       sodipodi:rx="12.541981"
       sodipodi:cy="504.59781"
       sodipodi:cx="109.56486"
       id="path3658"
       style="fill:#ffffff;fill-opacity:1;stroke:#000000;stroke-width:1.25;stroke-miterlimit:4;stroke-opacity:1;display:inline"
       sodipodi:type="arc" />
    <path
       d="m 72.700439,223.06896 c -10.22427,1.29323 14.24479,-11.92298 17.61666,-12.48612 -3.12724,4.25973 -6.82041,8.11439 -10.72759,11.67232 10.1314,-6.34016 23.142451,-12.91201 6.14165,1.4311 2.03639,1.0797 15.118981,-8.41698 21.558791,-6.21998 l -0.48779,1.26061 c -5.21281,-0.60661 -23.343901,9.75916 -21.941561,3.92534 16.160421,-13.57866 5.90999,-3.86282 -4.66402,0.81063 -4.57073,-1.38875 6.57739,-11.87293 10.01079,-11.53278 -2.83935,0.84693 -24.52163,13.45539 -18.00894,9.88386 l 0.50201,1.25502 z"
       id="path3662"
       style="fill:#000000;fill-opacity:1;fill-rule:nonzero;stroke:none;display:inline" />
    <g
       transform="matrix(-1,0,0,1,157.17845,-271.47284)"
       id="g3664"
       style="display:inline">
      <path
         sodipodi:nodetypes="ccccc"
         id="path3666"
         d="m 61.053417,633.09397 c -27.450373,1.41984 -28.396938,13.72518 -28.396938,13.72518 0,9.93893 53.007618,4.73283 53.007618,4.73283 l 0,-16.0916 -24.61068,-2.36641 z"
         style="fill:#ffffff;fill-opacity:1;fill-rule:evenodd;stroke:#000000;stroke-width:1.25;stroke-linecap:butt;stroke-linejoin:miter;stroke-miterlimit:4;stroke-opacity:1" />
      <path
         d="m 47.091589,633.83797 c 9.893039,0.78197 14.224398,7.86493 10.715804,16.84466 l -1.257949,-0.49461 c 3.200515,-8.08553 -0.483228,-14.23165 -9.457855,-14.99836 l 0,-1.35169 z"
         id="path3668"
         style="fill:#000000;fill-opacity:1;fill-rule:nonzero;stroke:none" />
      <path
         d="m 55.137389,632.8914 c 11.544289,0.001 15.765416,9.1204 11.336914,19.12686 l -1.23562,-0.54802 c 4.057666,-9.12836 0.507066,-17.22984 -10.101294,-17.22714 l 0,-1.3517 z"
         id="path3670"
         style="fill:#000000;fill-opacity:1;fill-rule:nonzero;stroke:none" />
    </g>
    <g
       transform="translate(-14.172451,-271.47284)"
       id="g3672"
       style="display:inline">
      <path
         sodipodi:nodetypes="ccccc"
         id="path3674"
         d="m 61.053417,633.09397 c -27.450373,1.41984 -28.396938,13.72518 -28.396938,13.72518 0,9.93893 53.007618,4.73283 53.007618,4.73283 l 0,-16.0916 -24.61068,-2.36641 z"
         style="fill:#ffffff;fill-opacity:1;fill-rule:evenodd;stroke:#000000;stroke-width:1.25;stroke-linecap:butt;stroke-linejoin:miter;stroke-miterlimit:4;stroke-opacity:1" />
      <path
         d="m 47.091589,633.83797 c 9.893039,0.78197 14.224398,7.86493 10.715804,16.84466 l -1.257949,-0.49461 c 3.200515,-8.08553 -0.483228,-14.23165 -9.457855,-14.99836 l 0,-1.35169 z"
         id="path3676"
         style="fill:#000000;fill-opacity:1;fill-rule:nonzero;stroke:none" />
      <path
         d="m 55.137389,632.8914 c 11.544289,0.001 15.765416,9.1204 11.336914,19.12686 l -1.23562,-0.54802 c 4.057666,-9.12836 0.507066,-17.22984 -10.101294,-17.22714 l 0,-1.3517 z"
         id="path3678"
         style="fill:#000000;fill-opacity:1;fill-rule:nonzero;stroke:none" />
    </g>
    <g
       transform="translate(-13.414851,-272.23044)"
       id="g3680"
       style="display:inline">
      <path
         transform="matrix(0.859835,0,0,0.909951,14.03942,35.05921)"
         id="path3688"
         d="m 62.946547,630.72755 -9.465646,26.50381 c 9.938928,4.73283 29.816785,2.8397 29.816785,2.8397 10.412211,5.67939 32.183194,-1.41985 32.183194,-1.41985 l -8.99236,-32.1832 -43.541973,4.25954 z"
         style="fill:#ffffff;fill-opacity:1;fill-rule:evenodd;stroke:#000000;stroke-width:1.41316688;stroke-linecap:butt;stroke-linejoin:miter;stroke-miterlimit:4;stroke-opacity:1" />
      <path
         transform="matrix(0.859835,0,0,0.909951,14.03942,35.05921)"
         id="path3690"
         d="m 79.038145,636.40694 -2.839694,9.93893 16.091599,-1.41985"
         style="fill:none;stroke:#000000;stroke-width:1.41316688;stroke-linecap:butt;stroke-linejoin:miter;stroke-miterlimit:4;stroke-opacity:1" />
      <path
         transform="matrix(0.859835,0,0,0.909951,14.03942,35.05921)"
         id="path3692"
         d="m 85.664097,635.93366 -2.366411,23.66412"
         style="fill:none;stroke:#000000;stroke-width:1.41316688;stroke-linecap:butt;stroke-linejoin:miter;stroke-miterlimit:4;stroke-opacity:1" />
    </g>
    <path
       sodipodi:nodetypes="cccccccccccc"
       id="path3694"
       d="m 65.010579,298.56165 8.41488,5.2236 13.22339,-4.8971 12.42197,17.6297 -11.62055,4.2443 -3.20567,-13.7121 10.41842,31.6683 c -12.82268,5.5501 -41.273,0.3265 -41.273,0.3265 l 9.61701,-31.3418 -4.00709,14.365 -11.62055,-4.2442 17.63119,-19.2622 z"
       style="fill:#ff9f00;fill-opacity:1;fill-rule:evenodd;stroke:#000000;stroke-width:1.25;stroke-linecap:butt;stroke-linejoin:miter;stroke-miterlimit:4;stroke-opacity:1;display:inline" />
    <g
       transform="matrix(1.580161,0,0,1.580161,-61.429151,-618.05673)"
       id="g3696"
       style="display:inline">
      <path
         d="m 79.568221,591.68176 c 3.270418,-5.30277 7.03816,8.14058 7.328073,11.12372 l -2.242542,0.21499 c -0.295658,-3.13174 -1.328754,-5.92497 -2.878956,-8.66548 -0.552855,-0.97736 -2.623264,-1.88937 -1.922132,-2.76646 1.775563,-2.22117 1.946714,-1.0902 1.968381,0.0932 l -2.252824,0 z"
         id="path3698"
         style="fill:#0f00ff;fill-opacity:1;fill-rule:nonzero;stroke:none" />
      <path
         d="m 78.527773,594.98355 c 2.008421,-1.83927 12.204236,-10.70096 13.206035,-5.40678 l -2.074777,-0.87779 c 1.010699,1.98701 -0.0315,0.7243 1.200209,1.14462 0.307451,0.10492 -11.818523,5.92023 -10.6008,6.58218 l -1.730667,-1.44223 z"
         id="path3700"
         style="fill:#0f00ff;fill-opacity:1;fill-rule:nonzero;stroke:none" />
      <path
         d="m 80.15824,596.56287 c 3.164958,-1.82212 7.71847,-3.53287 11.404416,-2.23908 l -0.896834,2.06662 c -3.122678,-0.32624 -6.472418,0.18755 -9.198155,2.00566 l -1.309427,-1.8332 z"
         id="path3702"
         style="fill:#0f00ff;fill-opacity:1;fill-rule:nonzero;stroke:none" />
    </g>
    <path
       transform="matrix(0.8891,0,0,0.8891,7.2677491,-212.04704)"
       d="m 78.98003,525.00787 a 4.0159335,4.0159335 0 1 1 -8.031867,0 4.0159335,4.0159335 0 1 1 8.031867,0 z"
       sodipodi:ry="4.0159335"
       sodipodi:rx="4.0159335"
       sodipodi:cy="525.00787"
       sodipodi:cx="74.964096"
       id="path3704"
       style="fill:#ffffff;fill-opacity:1;stroke:#000000;stroke-width:4.21774817;stroke-miterlimit:4;stroke-opacity:1;display:inline"
       sodipodi:type="arc" />
    <path
       transform="matrix(0.8891,0,0,0.8891,38.391249,-211.71244)"
       d="m 78.98003,525.00787 a 4.0159335,4.0159335 0 1 1 -8.031867,0 4.0159335,4.0159335 0 1 1 8.031867,0 z"
       sodipodi:ry="4.0159335"
       sodipodi:rx="4.0159335"
       sodipodi:cy="525.00787"
       sodipodi:cx="74.964096"
       id="path3708"
       style="fill:#ffffff;fill-opacity:1;stroke:#000000;stroke-width:4.21774817;stroke-miterlimit:4;stroke-opacity:1;display:inline"
       sodipodi:type="arc" />
    <g
       id="g3710"
       transform="matrix(-0.4651787,0.8852168,-0.8852168,-0.4651787,1527.977,661.04515)">
      <g
         transform="matrix(0.6557502,-0.05498409,0.05498409,0.6557502,-932.21721,283.43809)"
         inkscape:transform-center-y="-6.1622439"
         inkscape:transform-center-x="-6.6507783"
         id="g3712">
        <rect
           rx="4.1980953"
           ry="4.1980953"
           y="-435.39514"
           x="2084.4009"
           height="31.785524"
           width="5.9731178"
           id="rect3714"
           style="fill:#cccccc;fill-opacity:1;fill-rule:nonzero;stroke:#000000;stroke-width:1;stroke-linecap:butt;stroke-linejoin:round;stroke-miterlimit:4;stroke-opacity:1;stroke-dasharray:none"
           transform="matrix(0.6198235,0.7847413,-0.7847413,0.6198235,0,0)" />
        <path
           id="path3717"
           d="m 1618.8049,1383.8827 13.0267,-10.8737 -0.7427,-0.2194 -12.1886,10.0342 -0.095,1.0589 z"
           style="fill:#ffffff;fill-opacity:1;fill-rule:nonzero;stroke:none" />
      </g>
      <g
         inkscape:transform-center-y="8.6773905"
         inkscape:transform-center-x="6.5510517"
         transform="matrix(0.00456249,-0.6580355,0.6580355,0.00456249,-719.42452,2159.3041)"
         id="g3719">
        <rect
           style="fill:#cccccc;fill-opacity:1;fill-rule:nonzero;stroke:#000000;stroke-width:0.99999994;stroke-linecap:butt;stroke-linejoin:round;stroke-miterlimit:4;stroke-opacity:1;stroke-dasharray:none"
           id="rect3721"
           width="5.9731174"
           height="31.785521"
           x="-187.26065"
           y="2086.7573"
           ry="4.1980953"
           rx="4.1980953"
           transform="matrix(0.584065,-0.8117069,0.8117069,0.584065,0,0)" />
        <path
           style="fill:#ffffff;fill-opacity:1;fill-rule:nonzero;stroke:none"
           d="m 1587.8529,1372.1075 17.6564,12.7047 0.035,-0.9921 -16.3468,-11.932 -1.3451,0.2194 z"
           id="path3723" />
      </g>
      <g
         transform="matrix(0.5648622,0.337583,-0.337583,0.5648622,-241.38586,-223.42352)"
         id="g3725">
        <path
           transform="matrix(0.4492809,-0.6243902,0.6243902,0.4492809,1435.5154,1471.7425)"
           d="m 231.77896,121.57761 c 0,4.3483 -3.525,7.8733 -7.87331,7.8733 -4.3483,0 -7.8733,-3.525 -7.8733,-7.8733 0,-4.34831 3.525,-7.87331 7.8733,-7.87331 4.34831,0 7.87331,3.525 7.87331,7.87331 z"
           sodipodi:ry="7.873302"
           sodipodi:rx="7.873302"
           sodipodi:cy="121.57761"
           sodipodi:cx="223.90565"
           id="path3727"
           style="fill:#cccccc;fill-opacity:1;fill-rule:nonzero;stroke:#000000;stroke-width:1.29999959;stroke-linecap:butt;stroke-linejoin:round;stroke-miterlimit:4;stroke-opacity:1;stroke-dasharray:none"
           sodipodi:type="arc" />
        <path
           sodipodi:type="arc"
           style="fill:#ffffff;fill-opacity:1;fill-rule:nonzero;stroke:none"
           id="path3730"
           sodipodi:cx="223.90565"
           sodipodi:cy="121.57761"
           sodipodi:rx="7.873302"
           sodipodi:ry="7.873302"
           d="m 231.77896,121.57761 c 0,4.3483 -3.525,7.8733 -7.87331,7.8733 -4.3483,0 -7.8733,-3.525 -7.8733,-7.8733 0,-4.34831 3.525,-7.87331 7.8733,-7.87331 4.34831,0 7.87331,3.525 7.87331,7.87331 z"
           transform="matrix(0.100465,-0.1396217,0.1396217,0.100465,1570.2308,1407.7417)" />
      </g>
      <g
         transform="matrix(0.6557502,-0.05498409,0.05498409,0.6557502,-932.21721,283.43809)"
         inkscape:transform-center-y="-19.98967"
         inkscape:transform-center-x="-17.066912"
         id="g3732">
        <path
           style="fill:#cccccc;fill-opacity:1;fill-rule:nonzero;stroke:#000000;stroke-width:0.99999994;stroke-linecap:butt;stroke-linejoin:round;stroke-miterlimit:4;stroke-opacity:1;stroke-dasharray:none"
           d="m 1625.4971,1352.8929 0.5416,6.395 7.0293,4.1959 3.4203,-1.82 -6.9328,-3.7101 -0.2013,-5.0501 -3.8571,-0.011 z m 9.2208,-7.2783 4.5526,7.3487 -1.1071,6.9924 2.5946,0.8562 1.1937,-8.4761 -2.7863,-10.2992 -4.4475,3.578 z m 8.3995,17.5787 1.1011,1.9815 6.2365,-4.1637 5.2605,1.4069 0.3081,-4.6837 -6.2947,0.7327 -6.6115,4.7263 z m 0.1646,5.8859 0.1823,1.6473 4.2144,0.5056 2.3307,3.3716 2.5594,-1.9043 -3.725,-3.3343 -5.5618,-0.2859 z"
           id="path3734" />
        <path
           sodipodi:type="arc"
           style="fill:#cccccc;fill-opacity:1;fill-rule:nonzero;stroke:#000000;stroke-width:1.04655123;stroke-linecap:butt;stroke-linejoin:round;stroke-miterlimit:4;stroke-opacity:1;stroke-dasharray:none"
           id="path3736"
           sodipodi:cx="223.90565"
           sodipodi:cy="121.57761"
           sodipodi:rx="7.873302"
           sodipodi:ry="7.873302"
           d="m 231.77896,121.57761 c 0,4.3483 -3.525,7.8733 -7.87331,7.8733 -4.3483,0 -7.8733,-3.525 -7.8733,-7.8733 0,-4.34831 3.525,-7.87331 7.8733,-7.87331 4.34831,0 7.87331,3.525 7.87331,7.87331 z"
           transform="matrix(0.5580852,-0.7756015,0.7756015,0.5580852,1418.3319,1472.7115)" />
        <path
           transform="matrix(0.2150335,-0.2988437,0.2988437,0.2150335,1556.3475,1410.0025)"
           d="m 231.77896,121.57761 c 0,4.3483 -3.525,7.8733 -7.87331,7.8733 -4.3483,0 -7.8733,-3.525 -7.8733,-7.8733 0,-4.34831 3.525,-7.87331 7.8733,-7.87331 4.34831,0 7.87331,3.525 7.87331,7.87331 z"
           sodipodi:ry="7.873302"
           sodipodi:rx="7.873302"
           sodipodi:cy="121.57761"
           sodipodi:cx="223.90565"
           id="path3738"
           style="fill:#ffffff;fill-opacity:1;fill-rule:nonzero;stroke:none"
           sodipodi:type="arc" />
      </g>
    </g>
    <path
       style="fill:#ffe5b9;fill-opacity:1;fill-rule:evenodd;stroke:#000000;stroke-width:1.25;stroke-linecap:butt;stroke-linejoin:miter;stroke-miterlimit:4;stroke-opacity:1;display:inline"
       d="m 433.19581,281.82535 -1.41985,16.0916 -8.99236,4.2596 11.83206,15.145 11.83205,-16.0916 -9.93892,-4.2595 1.41984,-13.2519 -4.73282,-1.8932 z"
       id="path3740" />
    <path
       sodipodi:type="arc"
       style="fill:#ffe5b9;fill-opacity:1;stroke:#000000;stroke-width:1.25;stroke-miterlimit:4;stroke-opacity:1;display:inline"
       id="path3742"
       sodipodi:cx="54.664104"
       sodipodi:cy="525.42224"
       sodipodi:rx="6.8625937"
       sodipodi:ry="6.8625937"
       d="m 61.526698,525.42224 a 6.8625937,6.8625937 0 1 1 -13.725187,0 6.8625937,6.8625937 0 1 1 13.725187,0 z"
       transform="matrix(1.031733,0,0,0.716766,348.36365,-120.55714)" />
    <path
       sodipodi:type="arc"
       style="fill:#ffe5b9;fill-opacity:1;stroke:#000000;stroke-width:1.25;stroke-miterlimit:4;stroke-opacity:1;display:inline"
       id="path3744"
       sodipodi:cx="129.67935"
       sodipodi:cy="524.94897"
       sodipodi:rx="6.6259522"
       sodipodi:ry="5.4427466"
       d="m 136.3053,524.94897 a 6.6259522,5.4427466 0 1 1 -13.2519,0 6.6259522,5.4427466 0 1 1 13.2519,0 z"
       transform="translate(350.33495,-270.08764)" />
    <path
       style="fill:#ffe5b9;fill-opacity:1;fill-rule:evenodd;stroke:#000000;stroke-width:1.25;stroke-linecap:butt;stroke-linejoin:miter;stroke-miterlimit:4;stroke-opacity:1;display:inline"
       d="m 414.7378,320.16125 -6.15267,16.5649 c -9.93893,2.3664 -3.78626,11.8321 -3.78626,11.8321 8.51908,3.3129 11.35878,-0.9466 11.35878,-0.9466 l 5.2061,-27.4504 -6.62595,0 z"
       id="path3746" />
    <path
       sodipodi:type="arc"
       style="fill:#ffe5b9;fill-opacity:1;stroke:#000000;stroke-width:1.83430135;stroke-miterlimit:4;stroke-opacity:1;display:inline"
       id="path3748"
       sodipodi:cx="99.152641"
       sodipodi:cy="518.55963"
       sodipodi:rx="51.824413"
       sodipodi:ry="51.587772"
       d="m 150.97705,518.55963 a 51.824413,51.587772 0 1 1 -103.648822,0 51.824413,51.587772 0 1 1 103.648822,0 z"
       transform="matrix(0.669126,0,0,0.694018,376.19895,-107.03904)" />
    <path
       sodipodi:type="arc"
       style="fill:#ffffff;fill-opacity:1;stroke:#000000;stroke-width:1.25;stroke-miterlimit:4;stroke-opacity:1;display:inline"
       id="path3750"
       sodipodi:cx="79.984711"
       sodipodi:cy="504.59781"
       sodipodi:rx="17.038162"
       sodipodi:ry="17.274805"
       d="m 97.022873,504.59781 a 17.038162,17.274805 0 1 1 -34.076325,0 17.038162,17.274805 0 1 1 34.076325,0 z"
       transform="translate(355.05725,-254.73724)" />
    <path
       sodipodi:type="arc"
       style="fill:#ffffff;fill-opacity:1;stroke:#000000;stroke-width:1.25;stroke-miterlimit:4;stroke-opacity:1;display:inline"
       id="path3752"
       sodipodi:cx="109.56486"
       sodipodi:cy="504.59781"
       sodipodi:rx="12.541981"
       sodipodi:ry="13.488545"
       d="m 122.10684,504.59781 a 12.541981,13.488545 0 1 1 -25.083963,0 12.541981,13.488545 0 1 1 25.083963,0 z"
       transform="translate(355.05725,-253.79064)" />
    <path
       style="fill:#000000;fill-opacity:1;fill-rule:nonzero;stroke:none;display:inline"
       id="path3754"
       d="m 432.70044,223.06896 c -10.22427,1.29323 14.24479,-11.92298 17.61666,-12.48612 -3.12724,4.25973 -6.82041,8.11439 -10.72759,11.67232 10.1314,-6.34016 23.14245,-12.91201 6.14165,1.4311 2.03639,1.0797 15.11898,-8.41698 21.55879,-6.21998 l -0.48779,1.26061 c -5.21281,-0.60661 -23.3439,9.75916 -21.94156,3.92534 16.16042,-13.57866 5.90999,-3.86282 -4.66402,0.81063 -4.57073,-1.38875 6.57739,-11.87293 10.01079,-11.53278 -2.83935,0.84693 -24.52163,13.45539 -18.00894,9.88386 l 0.50201,1.25502 z" />
    <g
       style="display:inline"
       id="g3756"
       transform="matrix(-1,0,0,1,517.17845,-271.47284)">
      <path
         style="fill:#ffffff;fill-opacity:1;fill-rule:evenodd;stroke:#000000;stroke-width:1.25;stroke-linecap:butt;stroke-linejoin:miter;stroke-miterlimit:4;stroke-opacity:1"
         d="m 61.053417,633.09397 c -27.450373,1.41984 -28.396938,13.72518 -28.396938,13.72518 0,9.93893 53.007618,4.73283 53.007618,4.73283 l 0,-16.0916 -24.61068,-2.36641 z"
         id="path3758"
         sodipodi:nodetypes="ccccc" />
      <path
         style="fill:#000000;fill-opacity:1;fill-rule:nonzero;stroke:none"
         id="path3760"
         d="m 47.091589,633.83797 c 9.893039,0.78197 14.224398,7.86493 10.715804,16.84466 l -1.257949,-0.49461 c 3.200515,-8.08553 -0.483228,-14.23165 -9.457855,-14.99836 l 0,-1.35169 z" />
      <path
         style="fill:#000000;fill-opacity:1;fill-rule:nonzero;stroke:none"
         id="path3763"
         d="m 55.137389,632.8914 c 11.544289,10e-4 15.765416,9.1204 11.336914,19.12686 l -1.23562,-0.54802 c 4.057666,-9.12836 0.507066,-17.22984 -10.101294,-17.22714 l 0,-1.3517 z" />
    </g>
    <g
       style="display:inline"
       id="g3765"
       transform="translate(345.82755,-271.47284)">
      <path
         style="fill:#ffffff;fill-opacity:1;fill-rule:evenodd;stroke:#000000;stroke-width:1.25;stroke-linecap:butt;stroke-linejoin:miter;stroke-miterlimit:4;stroke-opacity:1"
         d="m 61.053417,633.09397 c -27.450373,1.41984 -28.396938,13.72518 -28.396938,13.72518 0,9.93893 53.007618,4.73283 53.007618,4.73283 l 0,-16.0916 -24.61068,-2.36641 z"
         id="path3767"
         sodipodi:nodetypes="ccccc" />
      <path
         style="fill:#000000;fill-opacity:1;fill-rule:nonzero;stroke:none"
         id="path3769"
         d="m 47.091589,633.83797 c 9.893039,0.78197 14.224398,7.86493 10.715804,16.84466 l -1.257949,-0.49461 c 3.200515,-8.08553 -0.483228,-14.23165 -9.457855,-14.99836 l 0,-1.35169 z" />
      <path
         style="fill:#000000;fill-opacity:1;fill-rule:nonzero;stroke:none"
         id="path3771"
         d="m 55.137389,632.8914 c 11.544289,10e-4 15.765416,9.1204 11.336914,19.12686 l -1.23562,-0.54802 c 4.057666,-9.12836 0.507066,-17.22984 -10.101294,-17.22714 l 0,-1.3517 z" />
    </g>
    <g
       style="display:inline"
       id="g3773"
       transform="translate(346.58515,-272.23044)">
      <path
         style="fill:#ffffff;fill-opacity:1;fill-rule:evenodd;stroke:#000000;stroke-width:1.41316688;stroke-linecap:butt;stroke-linejoin:miter;stroke-miterlimit:4;stroke-opacity:1"
         d="m 62.946547,630.72755 -9.465646,26.50381 c 9.938928,4.73283 29.816785,2.8397 29.816785,2.8397 10.412211,5.67939 32.183194,-1.41985 32.183194,-1.41985 l -8.99236,-32.1832 -43.541973,4.25954 z"
         id="path3775"
         transform="matrix(0.859835,0,0,0.909951,14.03942,35.05921)" />
      <path
         style="fill:none;stroke:#000000;stroke-width:1.41316688;stroke-linecap:butt;stroke-linejoin:miter;stroke-miterlimit:4;stroke-opacity:1"
         d="m 79.038145,636.40694 -2.839694,9.93893 16.091599,-1.41985"
         id="path3777"
         transform="matrix(0.859835,0,0,0.909951,14.03942,35.05921)" />
      <path
         style="fill:none;stroke:#000000;stroke-width:1.41316688;stroke-linecap:butt;stroke-linejoin:miter;stroke-miterlimit:4;stroke-opacity:1"
         d="m 85.664097,635.93366 -2.366411,23.66412"
         id="path3779"
         transform="matrix(0.859835,0,0,0.909951,14.03942,35.05921)" />
    </g>
    <path
       style="fill:#ff9f00;fill-opacity:1;fill-rule:evenodd;stroke:#000000;stroke-width:1.25;stroke-linecap:butt;stroke-linejoin:miter;stroke-miterlimit:4;stroke-opacity:1;display:inline"
       d="m 425.01058,298.56165 8.41488,5.2236 13.22339,-4.8971 12.42197,17.6297 -11.62055,4.2443 -3.20567,-13.7121 10.41842,31.6683 c -12.82268,5.5501 -41.273,0.3265 -41.273,0.3265 l 9.61701,-31.3418 -4.00709,14.365 -11.62055,-4.2442 17.63119,-19.2622 z"
       id="path3781"
       sodipodi:nodetypes="cccccccccccc" />
    <g
       style="display:inline"
       id="g3783"
       transform="matrix(1.580161,0,0,1.580161,298.57085,-618.05673)">
      <path
         style="fill:#0f00ff;fill-opacity:1;fill-rule:nonzero;stroke:none"
         id="path3787"
         d="m 79.568221,591.68176 c 3.270418,-5.30277 7.03816,8.14058 7.328073,11.12372 l -2.242542,0.21499 c -0.295658,-3.13174 -1.328754,-5.92497 -2.878956,-8.66548 -0.552855,-0.97736 -2.623264,-1.88937 -1.922132,-2.76646 1.775563,-2.22117 1.946714,-1.0902 1.968381,0.0932 l -2.252824,0 z" />
      <path
         style="fill:#0f00ff;fill-opacity:1;fill-rule:nonzero;stroke:none"
         id="path3789"
         d="m 78.527773,594.98355 c 2.008421,-1.83927 12.204236,-10.70096 13.206035,-5.40678 l -2.074777,-0.87779 c 1.010699,1.98701 -0.0315,0.7243 1.200209,1.14462 0.307451,0.10492 -11.818523,5.92023 -10.6008,6.58218 l -1.730667,-1.44223 z" />
      <path
         style="fill:#0f00ff;fill-opacity:1;fill-rule:nonzero;stroke:none"
         id="path3791"
         d="m 80.15824,596.56287 c 3.164958,-1.82212 7.71847,-3.53287 11.404416,-2.23908 l -0.896834,2.06662 c -3.122678,-0.32624 -6.472418,0.18755 -9.198155,2.00566 l -1.309427,-1.8332 z" />
    </g>
    <path
       sodipodi:type="arc"
       style="fill:#ffffff;fill-opacity:1;stroke:#000000;stroke-width:4.21774817;stroke-miterlimit:4;stroke-opacity:1;display:inline"
       id="path3793"
       sodipodi:cx="74.964096"
       sodipodi:cy="525.00787"
       sodipodi:rx="4.0159335"
       sodipodi:ry="4.0159335"
       d="m 78.98003,525.00787 a 4.0159335,4.0159335 0 1 1 -8.031867,0 4.0159335,4.0159335 0 1 1 8.031867,0 z"
       transform="matrix(0.8891,0,0,0.8891,373.26775,-216.04704)" />
    <path
       sodipodi:type="arc"
       style="fill:#ffffff;fill-opacity:1;stroke:#000000;stroke-width:4.21774817;stroke-miterlimit:4;stroke-opacity:1;display:inline"
       id="path3795"
       sodipodi:cx="74.964096"
       sodipodi:cy="525.00787"
       sodipodi:rx="4.0159335"
       sodipodi:ry="4.0159335"
       d="m 78.98003,525.00787 a 4.0159335,4.0159335 0 1 1 -8.031867,0 4.0159335,4.0159335 0 1 1 8.031867,0 z"
       transform="matrix(0.8891,0,0,0.8891,404.39125,-215.71244)" />
    <path
       style="fill:#ffeec4;fill-opacity:1;fill-rule:evenodd;stroke:#000000;stroke-width:1.25;stroke-linecap:butt;stroke-linejoin:miter;stroke-miterlimit:4;stroke-opacity:1;display:inline"
       d="m 285.77043,312.95893 5.17,21.5566 c 11.0336,3.5439 4.4454,11.1809 4.4454,11.1809 -6.2025,4.2497 -11.8813,0.5532 -11.8813,0.5532 -3.4114,-6.8695 -3.7558,-33.9764 -3.7558,-33.9764 l 6.0217,0.6857 z"
       id="path3883" />
    <path
       id="path3797"
       d="m 657.87439,310.86257 5.17,21.5566 c 11.0336,3.5439 4.4454,11.1809 4.4454,11.1809 -6.2025,4.2497 -11.8813,0.5532 -11.8813,0.5532 -3.4114,-6.8695 -3.7558,-33.9764 -3.7558,-33.9764 l 6.0217,0.6857 z"
       style="fill:#ffeec4;fill-opacity:1;fill-rule:evenodd;stroke:#000000;stroke-width:1.25;stroke-linecap:butt;stroke-linejoin:miter;stroke-miterlimit:4;stroke-opacity:1;display:inline" />
    <path
       style="fill:#ffeec4;fill-opacity:1;fill-rule:evenodd;stroke:#000000;stroke-width:1.25;stroke-linecap:butt;stroke-linejoin:miter;stroke-miterlimit:4;stroke-opacity:1;display:inline"
       d="m 250.78533,315.23163 -5.16997,21.5567 c -11.03354,3.5438 -4.44536,11.1808 -4.44536,11.1808 6.20247,4.2498 11.88133,0.5532 11.88133,0.5532 3.4113,-6.8694 3.7557,-33.9764 3.7557,-33.9764 l -6.0217,0.6857 z"
       id="path3887" />
    <path
       id="path3801"
       d="m 622.88929,313.13527 -5.16997,21.5567 c -11.03354,3.5438 -4.44536,11.1808 -4.44536,11.1808 6.20247,4.2498 11.88133,0.5532 11.88133,0.5532 3.4113,-6.8694 3.7557,-33.9764 3.7557,-33.9764 l -6.0217,0.6857 z"
       style="fill:#ffeec4;fill-opacity:1;fill-rule:evenodd;stroke:#000000;stroke-width:1.25;stroke-linecap:butt;stroke-linejoin:miter;stroke-miterlimit:4;stroke-opacity:1;display:inline" />
    <g
       style="display:inline"
       id="g3889"
       transform="translate(-341.94606,-270.91856)">
      <path
         style="fill:#0600ff;fill-opacity:1;fill-rule:evenodd;stroke:#000000;stroke-width:1.84647799;stroke-linecap:butt;stroke-linejoin:miter;stroke-miterlimit:4;stroke-opacity:1"
         d="m 62.946547,630.72755 -3.518416,27.92519 c 9.938928,4.73283 23.869555,1.41832 23.869555,1.41832 10.412211,5.67939 26.015694,-0.70916 26.015694,-0.70916 l -2.82486,-32.89389 -43.541973,4.25954 z"
         id="path3893"
         transform="matrix(0.859835,0,0,0.532987,537.0548,277.0172)"
         sodipodi:nodetypes="cccccc" />
      <path
         style="fill:none;stroke:#000000;stroke-width:1.25;stroke-linecap:butt;stroke-linejoin:miter;stroke-miterlimit:4;stroke-opacity:1"
         d="m 605.49242,620.80796 -1.13636,2.84091 7.00758,0.37879"
         id="path3906" />
      <path
         style="fill:none;stroke:#000000;stroke-width:1.25;stroke-linecap:butt;stroke-linejoin:miter;stroke-miterlimit:4;stroke-opacity:1"
         d="m 608.71212,621.18675 0,7.95454"
         id="path3908" />
    </g>
    <g
       transform="translate(30.157896,-273.01492)"
       id="g3803"
       style="display:inline">
      <path
         sodipodi:nodetypes="cccccc"
         transform="matrix(0.859835,0,0,0.532987,537.0548,277.0172)"
         id="path3811"
         d="m 62.946547,630.72755 -3.518416,27.92519 c 9.938928,4.73283 23.869555,1.41832 23.869555,1.41832 10.412211,5.67939 26.015694,-0.70916 26.015694,-0.70916 l -2.82486,-32.89389 -43.541973,4.25954 z"
         style="fill:#0600ff;fill-opacity:1;fill-rule:evenodd;stroke:#000000;stroke-width:1.84647799;stroke-linecap:butt;stroke-linejoin:miter;stroke-miterlimit:4;stroke-opacity:1" />
      <path
         id="path3814"
         d="m 605.49242,620.80796 -1.13636,2.84091 7.00758,0.37879"
         style="fill:none;stroke:#000000;stroke-width:1.25;stroke-linecap:butt;stroke-linejoin:miter;stroke-miterlimit:4;stroke-opacity:1" />
      <path
         id="path3817"
         d="m 608.71212,621.18675 0,7.95454"
         style="fill:none;stroke:#000000;stroke-width:1.25;stroke-linecap:butt;stroke-linejoin:miter;stroke-miterlimit:4;stroke-opacity:1" />
    </g>
    <path
       style="fill:#ffeec4;fill-opacity:1;fill-rule:evenodd;stroke:#000000;stroke-width:1.25;stroke-linecap:butt;stroke-linejoin:miter;stroke-miterlimit:4;stroke-opacity:1;display:inline"
       d="m 269.19513,274.04643 -1.4198,16.0916 -8.9924,4.2595 11.8321,15.145 11.832,-16.0916 -9.9389,-4.2595 1.4198,-13.2519 -4.7328,-1.8931 z"
       id="path3911" />
    <path
       id="path3819"
       d="m 641.29909,271.95007 -1.4198,16.0916 -8.9924,4.2595 11.8321,15.145 11.832,-16.0916 -9.9389,-4.2595 1.4198,-13.2519 -4.7328,-1.8931 z"
       style="fill:#ffeec4;fill-opacity:1;fill-rule:evenodd;stroke:#000000;stroke-width:1.25;stroke-linecap:butt;stroke-linejoin:miter;stroke-miterlimit:4;stroke-opacity:1;display:inline" />
    <path
       style="fill:#ffffff;fill-opacity:1;fill-rule:evenodd;stroke:#000000;stroke-width:1.25;stroke-linecap:butt;stroke-linejoin:miter;stroke-miterlimit:4;stroke-opacity:1;display:inline"
       d="m 292.88193,362.93293 c 27.4504,1.4198 28.3969,13.7252 28.3969,13.7252 0,9.9389 -53.0076,4.7328 -53.0076,4.7328 l 0,-16.0916 24.6107,-2.3664 z"
       id="path3913"
       sodipodi:nodetypes="ccccc" />
    <path
       sodipodi:nodetypes="ccccc"
       id="path3824"
       d="m 664.98589,360.83657 c 27.4504,1.4198 28.3969,13.7252 28.3969,13.7252 0,9.9389 -53.0076,4.7328 -53.0076,4.7328 l 0,-16.0916 24.6107,-2.3664 z"
       style="fill:#ffffff;fill-opacity:1;fill-rule:evenodd;stroke:#000000;stroke-width:1.25;stroke-linecap:butt;stroke-linejoin:miter;stroke-miterlimit:4;stroke-opacity:1;display:inline" />
    <path
       style="fill:#ffffff;fill-opacity:1;fill-rule:evenodd;stroke:#000000;stroke-width:1.25;stroke-linecap:butt;stroke-linejoin:miter;stroke-miterlimit:4;stroke-opacity:1;display:inline"
       d="m 243.63785,362.93293 c -27.45038,1.4198 -28.39694,13.7252 -28.39694,13.7252 0,9.9389 53.00762,4.7328 53.00762,4.7328 l 0,-16.0916 -24.61068,-2.3664 z"
       id="path3916"
       sodipodi:nodetypes="ccccc" />
    <path
       sodipodi:nodetypes="ccccc"
       id="path3826"
       d="m 615.74181,360.83657 c -27.45038,1.4198 -28.39694,13.7252 -28.39694,13.7252 0,9.9389 53.00762,4.7328 53.00762,4.7328 l 0,-16.0916 -24.61068,-2.3664 z"
       style="fill:#ffffff;fill-opacity:1;fill-rule:evenodd;stroke:#000000;stroke-width:1.25;stroke-linecap:butt;stroke-linejoin:miter;stroke-miterlimit:4;stroke-opacity:1;display:inline" />
    <path
       sodipodi:type="arc"
       style="fill:#ffeec4;fill-opacity:1;stroke:#000000;stroke-width:1.25;stroke-miterlimit:4;stroke-opacity:1;display:inline"
       id="path3918"
       sodipodi:cx="614.01514"
       sodipodi:cy="503.9519"
       sodipodi:rx="29.545454"
       sodipodi:ry="40.530304"
       d="m 643.56059,503.9519 a 29.545454,40.530304 0 1 1 -59.09091,0 29.545454,40.530304 0 1 1 59.09091,0 z"
       transform="matrix(1,0,0,1.138058,-347.62786,-340.30366)" />
    <path
       transform="matrix(1,0,0,1.138058,24.476096,-342.40002)"
       d="m 643.56059,503.9519 a 29.545454,40.530304 0 1 1 -59.09091,0 29.545454,40.530304 0 1 1 59.09091,0 z"
       sodipodi:ry="40.530304"
       sodipodi:rx="29.545454"
       sodipodi:cy="503.9519"
       sodipodi:cx="614.01514"
       id="path3828"
       style="fill:#ffeec4;fill-opacity:1;stroke:#000000;stroke-width:1.25;stroke-miterlimit:4;stroke-opacity:1;display:inline"
       sodipodi:type="arc" />
    <path
       style="fill:#ff8c00;fill-opacity:1;stroke:#000000;stroke-width:1.25;stroke-miterlimit:4;stroke-opacity:1;display:inline"
       d="m 267.91313,364.92753 c 7.8737,1.3577 13.8554,1.4102 21.5917,0 0.853,-0.0109 1.3256,-2.2067 1.235,-4.0097 0.0241,-1.6159 0.012,-3.5377 -0.6454,-4.4901 -0.5319,-0.6978 -1.1619,-0.3161 -1.7441,-0.4147 -8.1533,1.783 -11.5937,1.5152 -20.4372,0 -0.853,0.0109 -1.3256,2.2068 -1.235,4.0099 -0.0241,1.6158 -0.012,3.5375 0.6454,4.4899 0.1747,0.2661 0.3813,0.4165 0.5896,0.4147 z"
       id="path3920"
       sodipodi:nodetypes="ccccccccc" />
    <path
       sodipodi:nodetypes="ccccccccc"
       id="path3832"
       d="m 640.01709,362.83117 c 7.8737,1.3577 13.8554,1.4102 21.5917,0 0.853,-0.0109 1.3256,-2.2067 1.235,-4.0097 0.0241,-1.6159 0.012,-3.5377 -0.6454,-4.4901 -0.5319,-0.6978 -1.1619,-0.3161 -1.7441,-0.4147 -8.1533,1.783 -11.5937,1.5152 -20.4372,0 -0.853,0.0109 -1.3256,2.2068 -1.235,4.0099 -0.0241,1.6158 -0.012,3.5375 0.6454,4.4899 0.1747,0.2661 0.3813,0.4165 0.5896,0.4147 z"
       style="fill:#ff8c00;fill-opacity:1;stroke:#000000;stroke-width:1.25;stroke-miterlimit:4;stroke-opacity:1;display:inline" />
    <path
       style="fill:#ff8c00;fill-opacity:1;stroke:#000000;stroke-width:1.25;stroke-miterlimit:4;stroke-opacity:1;display:inline"
       d="m 245.18587,365.68513 c 7.87366,1.3576 13.85536,1.4102 21.59166,0 0.853,-0.0109 1.3257,-2.2068 1.2351,-4.0097 0.024,-1.6159 0.0119,-3.5377 -0.6454,-4.4902 -0.5319,-0.6977 -1.162,-0.316 -1.7441,-0.4146 -8.1534,1.783 -11.5938,1.5151 -20.43726,0 -0.85301,0.0109 -1.32564,2.2068 -1.23504,4.0099 -0.024,1.6158 -0.0119,3.5375 0.64541,4.4899 0.17473,0.2661 0.38134,0.4165 0.58963,0.4147 z"
       id="path3922"
       sodipodi:nodetypes="ccccccccc" />
    <path
       sodipodi:nodetypes="ccccccccc"
       id="path3835"
       d="m 617.28983,363.58877 c 7.87366,1.3576 13.85536,1.4102 21.59166,0 0.853,-0.0109 1.3257,-2.2068 1.2351,-4.0097 0.024,-1.6159 0.0119,-3.5377 -0.6454,-4.4902 -0.5319,-0.6977 -1.162,-0.316 -1.7441,-0.4146 -8.1534,1.783 -11.5938,1.5151 -20.43726,0 -0.85301,0.0109 -1.32564,2.2068 -1.23504,4.0099 -0.024,1.6158 -0.0119,3.5375 0.64541,4.4899 0.17473,0.2661 0.38134,0.4165 0.58963,0.4147 z"
       style="fill:#ff8c00;fill-opacity:1;stroke:#000000;stroke-width:1.25;stroke-miterlimit:4;stroke-opacity:1;display:inline" />
    <path
       style="fill:#ffff00;fill-opacity:1;fill-rule:evenodd;stroke:#000000;stroke-width:1.25;stroke-linecap:butt;stroke-linejoin:miter;stroke-miterlimit:4;stroke-opacity:1;display:inline"
       d="m 238.63065,234.02223 -5.24471,11.6488 8.24986,-9.5633 -2.62092,12.5721 13.30585,-14.31 18.4527,18.158 -3.1266,-13.9871 10.9043,18.7513 0.4484,-13.7064 6.1081,16.1496 2.8668,-11.9366 c 2.0035,4.1708 4.081,28.6273 4.081,28.6273 l 1.6122,-20.8368 c 0.6678,1.7378 3.3963,25.0076 3.3963,25.0076 l 0,-9.0368 c 2.6713,-36.1474 -0.6678,-37.5377 -0.6678,-37.5377 l -57.76548,0 z"
       id="path3924"
       sodipodi:nodetypes="ccccccccccccccccc" />
    <path
       sodipodi:nodetypes="ccccccccccccccccc"
       id="path3837"
       d="m 610.73461,231.92587 -5.24471,11.6488 8.24986,-9.5633 -2.62092,12.5721 13.30585,-14.31 18.4527,18.158 -3.1266,-13.9871 10.9043,18.7513 0.4484,-13.7064 6.1081,16.1496 2.8668,-11.9366 c 2.0035,4.1708 4.081,28.6273 4.081,28.6273 l 1.6122,-20.8368 c 0.6678,1.7378 3.3963,25.0076 3.3963,25.0076 l 0,-9.0368 c 2.6713,-36.1474 -0.6678,-37.5377 -0.6678,-37.5377 l -57.76548,0 z"
       style="fill:#ffff00;fill-opacity:1;fill-rule:evenodd;stroke:#000000;stroke-width:1.25;stroke-linecap:butt;stroke-linejoin:miter;stroke-miterlimit:4;stroke-opacity:1;display:inline" />
    <g
       style="display:inline"
       id="g3926"
       transform="translate(-682.85517,-270.16096)">
      <path
         sodipodi:type="arc"
         style="fill:#ff0000;fill-opacity:1;stroke:#000000;stroke-width:1.25;stroke-miterlimit:4;stroke-opacity:1"
         id="path3928"
         sodipodi:cx="614.01514"
         sodipodi:cy="503.9519"
         sodipodi:rx="29.545454"
         sodipodi:ry="40.530304"
         d="m 643.56059,503.9519 c 0,22.38427 -13.22795,40.53031 -29.54545,40.53031 -16.31751,0 -29.54546,-18.14604 -29.54546,-40.53031 0,0 0,0 0,0"
         transform="matrix(1,0,0,-1.138058,335.2273,1077.342)"
         sodipodi:start="0"
         sodipodi:end="3.1415927"
         sodipodi:open="true" />
      <path
         style="fill:#ff8c00;fill-opacity:1;stroke:#000000;stroke-width:1.3600812;stroke-miterlimit:4;stroke-opacity:1"
         d="m 919.18064,496.12998 c 9.11503,-2.31229 22.9649,-4.82671 60.29962,0 2.38226,0.0147 3.70219,2.96949 3.44916,5.39574 0.0671,2.1743 0.0333,4.76027 -1.80245,6.04188 -1.48547,0.93887 -3.24492,0.42525 -4.87077,0.55802 -39.29034,-5.4995 -51.49734,-2.46919 -57.07556,-2e-5 -2.38226,-0.0147 -3.70218,-2.96948 -3.44915,-5.39573 -0.0671,-2.17429 -0.0333,-4.76026 1.80245,-6.04187 0.48798,-0.35801 1.06497,-0.56033 1.6467,-0.55802 z"
         id="path3930"
         sodipodi:nodetypes="ccccccccc" />
    </g>
    <g
       transform="translate(-310.75121,-272.25732)"
       id="g3839"
       style="display:inline">
      <path
         sodipodi:open="true"
         sodipodi:end="3.1415927"
         sodipodi:start="0"
         transform="matrix(1,0,0,-1.138058,335.2273,1077.342)"
         d="m 643.56059,503.9519 c 0,22.38427 -13.22795,40.53031 -29.54545,40.53031 -16.31751,0 -29.54546,-18.14604 -29.54546,-40.53031 0,0 0,0 0,0"
         sodipodi:ry="40.530304"
         sodipodi:rx="29.545454"
         sodipodi:cy="503.9519"
         sodipodi:cx="614.01514"
         id="path3845"
         style="fill:#ff0000;fill-opacity:1;stroke:#000000;stroke-width:1.25;stroke-miterlimit:4;stroke-opacity:1"
         sodipodi:type="arc" />
      <path
         sodipodi:nodetypes="ccccccccc"
         id="path3847"
         d="m 919.18064,496.12998 c 9.11503,-2.31229 22.9649,-4.82671 60.29962,0 2.38226,0.0147 3.70219,2.96949 3.44916,5.39574 0.0671,2.1743 0.0333,4.76027 -1.80245,6.04188 -1.48547,0.93887 -3.24492,0.42525 -4.87077,0.55802 -39.29034,-5.4995 -51.49734,-2.46919 -57.07556,-2e-5 -2.38226,-0.0147 -3.70218,-2.96948 -3.44915,-5.39573 -0.0671,-2.17429 -0.0333,-4.76026 1.80245,-6.04187 0.48798,-0.35801 1.06497,-0.56033 1.6467,-0.55802 z"
         style="fill:#ff8c00;fill-opacity:1;stroke:#000000;stroke-width:1.3600812;stroke-miterlimit:4;stroke-opacity:1" />
    </g>
    <g
       style="display:inline"
       id="g3932"
       transform="translate(-358.23396,-269.02456)">
      <path
         style="fill:#000000;fill-opacity:1;fill-rule:nonzero;stroke:none"
         id="path3934"
         d="m 602.12989,530.86845 c 4.92665,-5.60302 3.20474,3.61349 2.69071,0.88757 1.9602,-2.34669 2.95818,-2.51226 5.54437,-1.69045 -0.0209,-0.0289 -0.0417,-0.0579 -0.0626,-0.0868 l 0.67636,1.37229 c -0.24207,0.0801 -0.48415,0.16018 -0.72622,0.24027 -2.79162,-0.64108 -2.07842,-1.23608 -4.52736,1.39857 -5.38134,3.48665 2.58736,-7.9687 -2.51341,-1.03965 l -1.08182,-1.08182 z" />
      <path
         style="fill:#000000;fill-opacity:1;fill-rule:nonzero;stroke:none"
         id="path3936"
         d="m 614.56728,529.29973 c 2.27316,-2.20018 3.10381,3.15946 2.40404,0.88226 2.38249,0.0162 2.29496,-0.69063 4.56975,-1.09388 0.62368,0.16192 1.16571,0.49085 1.73274,0.77392 l -0.62753,1.3953 c -0.31635,-0.15756 -0.94462,-0.42072 -1.08062,-0.63949 -1.31256,0.34406 -2.45151,1.02431 -3.50032,0.63363 -3.33506,2.9186 -3.05186,-3.8383 -1.32754,-1.64483 0.0946,0.12036 -1.40504,0.86484 -1.32188,0.96607 l -0.84864,-1.27298 z" />
    </g>
    <g
       transform="translate(13.869996,-271.12092)"
       id="g3849"
       style="display:inline">
      <path
         d="m 602.12989,530.86845 c 4.92665,-5.60302 3.20474,3.61349 2.69071,0.88757 1.9602,-2.34669 2.95818,-2.51226 5.54437,-1.69045 -0.0209,-0.0289 -0.0417,-0.0579 -0.0626,-0.0868 l 0.67636,1.37229 c -0.24207,0.0801 -0.48415,0.16018 -0.72622,0.24027 -2.79162,-0.64108 -2.07842,-1.23608 -4.52736,1.39857 -5.38134,3.48665 2.58736,-7.9687 -2.51341,-1.03965 l -1.08182,-1.08182 z"
         id="path3851"
         style="fill:#000000;fill-opacity:1;fill-rule:nonzero;stroke:none" />
      <path
         d="m 614.56728,529.29973 c 2.27316,-2.20018 3.10381,3.15946 2.40404,0.88226 2.38249,0.0162 2.29496,-0.69063 4.56975,-1.09388 0.62368,0.16192 1.16571,0.49085 1.73274,0.77392 l -0.62753,1.3953 c -0.31635,-0.15756 -0.94462,-0.42072 -1.08062,-0.63949 -1.31256,0.34406 -2.45151,1.02431 -3.50032,0.63363 -3.33506,2.9186 -3.05186,-3.8383 -1.32754,-1.64483 0.0946,0.12036 -1.40504,0.86484 -1.32188,0.96607 l -0.84864,-1.27298 z"
         id="path3853"
         style="fill:#000000;fill-opacity:1;fill-rule:nonzero;stroke:none" />
    </g>
    <g
       id="g3938"
       style="fill:#000000;fill-opacity:1;stroke:none;display:inline"
       transform="translate(-354.06726,-270.16096)">
      <path
         style="fill-rule:nonzero"
         id="path3940"
         d="m 607.2367,545.43155 c -1.15458,1.83076 -2.3091,3.66086 -3.4138,5.52225 l -0.87701,-0.52072 c 1.10622,-1.86229 2.25997,-3.69473 3.41621,-5.52629 l 0.8746,0.52476 z" />
      <path
         style="fill-rule:nonzero"
         id="path3942"
         d="m 608.99652,546.06684 c -0.91679,1.92189 -1.26918,4.02666 -1.59277,6.11116 l -1.00782,-0.15677 c 0.34111,-2.18849 0.72023,-4.39522 1.68832,-6.41052 l 0.91227,0.45613 z" />
      <path
         style="fill-rule:nonzero"
         id="path3944"
         d="m 611.04396,546.76599 c -0.65137,2.87861 -0.44213,5.79948 -0.36996,8.7193 l -1.01964,0.0252 c -0.0743,-3.01141 -0.27866,-6.02436 0.4001,-8.99185 l 0.9895,0.24737 z" />
      <path
         style="fill-rule:nonzero"
         id="path3946"
         d="m 614.08554,545.87855 c 1.01997,2.17067 1.39211,4.55818 1.91622,6.87879 l -0.9949,0.22465 c -0.50582,-2.24051 -0.86033,-4.54736 -1.83359,-6.6473 l 0.91227,-0.45614 z" />
      <path
         style="fill-rule:nonzero"
         id="path3948"
         d="m 617.37922,545.59664 c 2.42251,0.60363 3.30082,3.16147 4.26258,5.21685 l -0.92511,0.42951 c -0.81381,-1.74056 -1.50068,-3.80802 -3.33747,-4.62641 l 0,-1.01995 z" />
      <path
         style="fill-rule:nonzero"
         id="path3951"
         d="m 620.38768,547.50131 c -0.67972,-4.82708 3.62959,1.43543 4.47498,3.1077 l -0.90511,0.47018 c -0.64531,-1.3065 -4.4808,-6.9346 -2.62287,-3.95668 l -0.947,0.3788 z" />
    </g>
    <g
       transform="translate(18.036696,-272.25732)"
       style="fill:#000000;fill-opacity:1;stroke:none;display:inline"
       id="g3855">
      <path
         d="m 607.2367,545.43155 c -1.15458,1.83076 -2.3091,3.66086 -3.4138,5.52225 l -0.87701,-0.52072 c 1.10622,-1.86229 2.25997,-3.69473 3.41621,-5.52629 l 0.8746,0.52476 z"
         id="path3857"
         style="fill-rule:nonzero" />
      <path
         d="m 608.99652,546.06684 c -0.91679,1.92189 -1.26918,4.02666 -1.59277,6.11116 l -1.00782,-0.15677 c 0.34111,-2.18849 0.72023,-4.39522 1.68832,-6.41052 l 0.91227,0.45613 z"
         id="path3861"
         style="fill-rule:nonzero" />
      <path
         d="m 611.04396,546.76599 c -0.65137,2.87861 -0.44213,5.79948 -0.36996,8.7193 l -1.01964,0.0252 c -0.0743,-3.01141 -0.27866,-6.02436 0.4001,-8.99185 l 0.9895,0.24737 z"
         id="path3863"
         style="fill-rule:nonzero" />
      <path
         d="m 614.08554,545.87855 c 1.01997,2.17067 1.39211,4.55818 1.91622,6.87879 l -0.9949,0.22465 c -0.50582,-2.24051 -0.86033,-4.54736 -1.83359,-6.6473 l 0.91227,-0.45614 z"
         id="path3865"
         style="fill-rule:nonzero" />
      <path
         d="m 617.37922,545.59664 c 2.42251,0.60363 3.30082,3.16147 4.26258,5.21685 l -0.92511,0.42951 c -0.81381,-1.74056 -1.50068,-3.80802 -3.33747,-4.62641 l 0,-1.01995 z"
         id="path3867"
         style="fill-rule:nonzero" />
      <path
         d="m 620.38768,547.50131 c -0.67972,-4.82708 3.62959,1.43543 4.47498,3.1077 l -0.90511,0.47018 c -0.64531,-1.3065 -4.4808,-6.9346 -2.62287,-3.95668 l -0.947,0.3788 z"
         id="path3869"
         style="fill-rule:nonzero" />
    </g>
    <path
       style="fill:#00ff15;fill-opacity:1;fill-rule:evenodd;stroke:#000000;stroke-width:1.25;stroke-linecap:butt;stroke-linejoin:miter;stroke-miterlimit:4;stroke-opacity:1;display:inline"
       d="m 259.87353,289.87633 13.7179,6.7671 7.9204,-6.3205 12.422,24.1176 -11.6206,5.8061 -3.2057,-18.7582 10.4185,43.3225 c -12.8227,7.5926 -41.27302,0.4466 -41.27302,0.4466 l 9.61702,-42.8758 -4.0071,19.6514 -11.62055,-5.8061 17.63115,-26.3507 z"
       id="path3953"
       sodipodi:nodetypes="cccccccccccc" />
    <path
       sodipodi:nodetypes="cccccccccccc"
       id="path3872"
       d="m 631.97749,287.77997 13.7179,6.7671 7.9204,-6.3205 12.422,24.1176 -11.6206,5.8061 -3.2057,-18.7582 10.4185,43.3225 c -12.8227,7.5926 -41.27302,0.4466 -41.27302,0.4466 l 9.61702,-42.8758 -4.0071,19.6514 -11.62055,-5.8061 17.63115,-26.3507 z"
       style="fill:#00ff15;fill-opacity:1;fill-rule:evenodd;stroke:#000000;stroke-width:1.25;stroke-linecap:butt;stroke-linejoin:miter;stroke-miterlimit:4;stroke-opacity:1;display:inline" />
    <g
       style="display:inline"
       id="g3955"
       transform="matrix(0.640057,0.383722,-0.30692,0.64132,57.973943,-291.97196)">
      <path
         style="fill:#f0ff00;fill-opacity:1;fill-rule:nonzero;stroke:none"
         id="path3957"
         d="m 599.7744,582.6047 c 8.48204,6.77683 10.32365,18.11363 11.58749,28.27131 l -3.89684,0.74104 c -1.15456,-9.08236 -2.47927,-19.44086 -9.89097,-25.71188 l 2.20032,-3.30047 z" />
      <path
         style="fill:#f0ff00;fill-opacity:1;fill-rule:nonzero;stroke:none"
         id="path3959"
         d="m 592.0493,592.28293 c -2.32045,-10.48305 13.57833,-19.65261 22.425,-14.72572 8.3399,4.2453 -5.41921,23.47417 -8.49745,19.57803 -3.77774,-4.78149 4.4829,-8.92534 7.72314,-9.36408 7.88402,-0.50313 14.02952,2.76484 12.25065,11.30764 -2.33312,5.61955 -8.68072,7.67873 -14.13188,9.06608 l -0.95292,-3.8505 c 4.06438,-0.97145 8.82209,-2.38464 11.20928,-6.06105 0.91383,-5.76611 -2.2474,-6.64165 -7.89904,-6.52418 -2.05624,0.30486 -3.4156,2.57324 -4.70891,2.8346 -7.94888,1.60635 7.5184,-8.72489 2.96726,-13.58458 -5.86299,-4.00758 -16.11336,3.3856 -16.98374,9.28292 l -3.40139,2.04084 z" />
    </g>
    <g
       transform="matrix(0.640057,0.383722,-0.30692,0.64132,430.0779,-294.06832)"
       id="g3874"
       style="display:inline">
      <path
         d="m 599.7744,582.6047 c 8.48204,6.77683 10.32365,18.11363 11.58749,28.27131 l -3.89684,0.74104 c -1.15456,-9.08236 -2.47927,-19.44086 -9.89097,-25.71188 l 2.20032,-3.30047 z"
         id="path3879"
         style="fill:#f0ff00;fill-opacity:1;fill-rule:nonzero;stroke:none" />
      <path
         d="m 592.0493,592.28293 c -2.32045,-10.48305 13.57833,-19.65261 22.425,-14.72572 8.3399,4.2453 -5.41921,23.47417 -8.49745,19.57803 -3.77774,-4.78149 4.4829,-8.92534 7.72314,-9.36408 7.88402,-0.50313 14.02952,2.76484 12.25065,11.30764 -2.33312,5.61955 -8.68072,7.67873 -14.13188,9.06608 l -0.95292,-3.8505 c 4.06438,-0.97145 8.82209,-2.38464 11.20928,-6.06105 0.91383,-5.76611 -2.2474,-6.64165 -7.89904,-6.52418 -2.05624,0.30486 -3.4156,2.57324 -4.70891,2.8346 -7.94888,1.60635 7.5184,-8.72489 2.96726,-13.58458 -5.86299,-4.00758 -16.11336,3.3856 -16.98374,9.28292 l -3.40139,2.04084 z"
         id="path3881"
         style="fill:#f0ff00;fill-opacity:1;fill-rule:nonzero;stroke:none" />
    </g>
    <path
       sodipodi:type="arc"
       style="fill:#e9b96e;fill-opacity:1;stroke:#000000;stroke-width:1.06195818999999991;stroke-opacity:1"
       id="path3961"
       sodipodi:cx="882.55426"
       sodipodi:cy="203.54488"
       sodipodi:rx="39.279881"
       sodipodi:ry="39.279881"
       d="m 921.83414,203.54488 a 39.279881,39.279881 0 1 1 -78.55976,0 39.279881,39.279881 0 1 1 78.55976,0 z"
       transform="matrix(0.88012316,0,0,1.0074923,101.08907,38.769277)" />
    <path
       style="fill:#cc0000;fill-opacity:1;stroke:#000000;stroke-width:1;stroke-miterlimit:4;stroke-opacity:1;stroke-dasharray:none"
       d="M 877.84375 204.25 C 858.75064 204.25 843.28125 221.98754 843.28125 243.84375 C 843.28125 252.83607 845.8986 261.1357 850.3125 267.78125 C 853.95512 265.75875 871.42227 256.03887 873.75 254.875 C 876.32368 253.58816 885.02927 255.51645 887.28125 257.125 C 889.15551 258.46376 898.40142 268.93671 901.59375 272.5625 C 908.25031 265.34932 912.40625 255.16446 912.40625 243.84375 C 912.40625 221.98754 896.93686 204.25 877.84375 204.25 z "
       id="path4741" />
    <path
       style="fill:#ffffff;fill-opacity:1;stroke:#000000;stroke-width:1;stroke-miterlimit:4;stroke-opacity:1;stroke-dasharray:none"
       d="m 875.23848,236.94135 c 0.0665,4.67835 -2.9759,9.18406 -7.32217,10.90184 -4.26915,1.79937 -9.5398,0.7441 -12.77367,-2.57788 -3.32197,-3.23386 -4.37724,-8.50451 -2.57787,-12.77366 1.71778,-4.34627 5.49178,-2.99838 10.17013,-2.93192 4.67836,-0.0665 9.91578,-1.41435 11.63356,2.93192 0.57652,1.40781 0.87137,2.92871 0.87002,4.4497 z"
       id="path4735"
       sodipodi:nodetypes="ccccccc" />
    <path
       style="fill:#ffffff;fill-opacity:1;stroke:#000000;stroke-width:1;stroke-miterlimit:4;stroke-opacity:1;stroke-dasharray:none"
       d="m 906.19776,236.94136 c 0.0719,5.05957 -3.2184,9.93244 -7.91884,11.7902 -4.61703,1.94599 -10.31717,0.80473 -13.81456,-2.78795 -3.59266,-3.49738 -4.73393,-9.19752 -2.78793,-13.81455 1.85776,-4.70043 8.19404,-3.23461 13.25362,-3.16273 5.05959,-0.0719 8.46903,-1.5377 10.32679,3.16273 0.6235,1.52253 0.94238,3.16736 0.94092,4.8123 z"
       id="path4737"
       sodipodi:nodetypes="ccccccc" />
    <path
       style="fill:#e9b96e;fill-opacity:1;stroke:#000000;stroke-width:1;stroke-miterlimit:4;stroke-opacity:1;stroke-dasharray:none"
       d="m 885.3463,265.49818 3.53882,4.82565 c 0,0 -19.94603,-4.82565 -22.84142,-2.25197 -2.8954,2.57368 -4.82566,12.22498 0,9.97301 4.82565,-2.25197 16.40721,-0.64342 16.40721,-0.64342"
       id="path4746" />
    <path
       style="fill:#000000;fill-opacity:1;stroke:#000000;stroke-width:1;stroke-miterlimit:4;stroke-opacity:1;stroke-dasharray:none"
       d="M 869.21875 267.3125 C 867.72087 267.35538 866.57414 267.57993 866.03125 268.0625 C 863.13585 270.63618 861.20559 280.28322 866.03125 278.03125 C 869.53922 276.3942 876.5836 276.81409 880.1875 277.15625 C 880.10305 273.48829 880.23743 270.68033 880.4375 268.5625 C 876.5601 267.86013 872.20202 267.22709 869.21875 267.3125 z "
       id="path4748" />
    <path
       sodipodi:type="arc"
       style="fill:#ffffff;fill-opacity:1;stroke:#000000;stroke-width:0.76699901000000004;stroke-miterlimit:4;stroke-opacity:1;stroke-dasharray:none"
       id="path4757"
       sodipodi:cx="874.4776"
       sodipodi:cy="328.85632"
       sodipodi:rx="16.004047"
       sodipodi:ry="16.004047"
       d="m 890.48165,328.85632 a 16.004047,16.004047 0 1 1 -32.0081,0 16.004047,16.004047 0 1 1 32.0081,0 z"
       transform="matrix(1.3037828,0,0,1.3037828,-267.65126,-105.9009)" />
    <path
       style="fill:#edd400;fill-opacity:1;stroke:#000000;stroke-width:1;stroke-miterlimit:4;stroke-opacity:1;stroke-dasharray:none"
       d="m 866.47718,347.27341 c 0,0 -5.87197,-25.74099 -5.55667,-27.99582 0.31529,-2.25479 7.10644,7.70647 7.10644,7.70647 l -1.04136,-25.43337 8.74398,17.03903 7.34726,-19.66257 -1.51729,31.23658 -9.04212,-8.98863 2.95414,18.9881 -7.75612,-9.63642 -1.23826,16.74663 z"
       id="path4759"
       sodipodi:nodetypes="csccccccccc" />
    <path
       sodipodi:type="arc"
       style="fill:#cc0000;fill-opacity:1;stroke:#000000;stroke-width:1;stroke-miterlimit:4;stroke-opacity:1;stroke-dasharray:none"
       id="path4763"
       sodipodi:cx="67.713333"
       sodipodi:cy="283.11368"
       sodipodi:rx="5.5961432"
       sodipodi:ry="6.1557574"
       d="m 73.309476,283.11368 a 5.5961432,6.1557574 0 1 1 -11.192286,0 5.5961432,6.1557574 0 1 1 11.192286,0 z" />
    <path
       sodipodi:type="arc"
       style="fill:#cc0000;fill-opacity:1;stroke:#000000;stroke-width:1;stroke-miterlimit:4;stroke-opacity:1;stroke-dasharray:none"
       id="path4765"
       sodipodi:cx="277.5687"
       sodipodi:cy="268.28387"
       sodipodi:rx="2.2384572"
       sodipodi:ry="2.5182643"
       d="m 279.80715,268.28387 a 2.2384572,2.5182643 0 1 1 -4.47691,0 2.2384572,2.5182643 0 1 1 4.47691,0 z" />
    <path
       style="fill:#cc0000;fill-opacity:1;stroke:#000000;stroke-width:1;stroke-miterlimit:4;stroke-opacity:1;stroke-dasharray:none"
       d="m 454.6225,274.65031 -0.77002,1.84807 c 0,0 -20.63665,-8.93229 -24.33277,-3.69612 -3.69612,5.23617 -2.9261,9.70231 1.23204,11.70437 4.15813,2.00207 19.40462,0.15401 19.40462,0.15401"
       id="path4767"
       sodipodi:nodetypes="ccssc" />
    <path
       style="fill:#cc0000;fill-opacity:1;stroke:#000000;stroke-width:1;stroke-miterlimit:4;stroke-opacity:1;stroke-dasharray:none"
       d="m 633.96385,270.29196 7.31794,0"
       id="path4769" />
    <path
       style="fill:none;fill-opacity:1;stroke:#000000;stroke-width:1;stroke-miterlimit:4;stroke-opacity:1;stroke-dasharray:none"
       d="m 115.88418,280.68658 c 0,0 8.96011,-5.37607 8.96011,-8.96012 0,-3.58405 0,-3.58405 0,-3.58405"
       id="path4771" />
    <path
       id="path4773"
       d="m 117.88418,282.68658 c 0,0 8.96011,-5.37607 8.96011,-8.96012 0,-3.58405 0,-3.58405 0,-3.58405"
       style="fill:none;stroke:#000000;stroke-width:1;stroke-miterlimit:4;stroke-opacity:1;stroke-dasharray:none" />
    <path
       style="fill:none;stroke:#000000;stroke-width:1;stroke-miterlimit:4;stroke-opacity:1;stroke-dasharray:none"
       d="m 232.36569,256.19559 c 2.98671,11.34948 6.57076,11.94682 6.57076,11.94682"
       id="path4775" />
    <path
       id="path4777"
       d="m 230.36569,258.19559 c 2.98671,11.34948 6.57076,11.94682 6.57076,11.94682"
       style="fill:none;stroke:#000000;stroke-width:1;stroke-miterlimit:4;stroke-opacity:1;stroke-dasharray:none" />
    <path
       style="fill:none;stroke:#000000;stroke-width:1;stroke-miterlimit:4;stroke-opacity:1;stroke-dasharray:none"
       d="m 477.87289,272.3238 c 0.59734,8.36278 -9.55745,13.1415 -9.55745,13.1415"
       id="path4779" />
    <path
       id="path4781"
       d="m 479.87289,274.3238 c 0.59734,8.36278 -9.55745,13.1415 -9.55745,13.1415"
       style="fill:none;stroke:#000000;stroke-width:1;stroke-miterlimit:4;stroke-opacity:1;stroke-dasharray:none" />
    <path
       style="fill:none;stroke:#000000;stroke-width:1;stroke-miterlimit:4;stroke-opacity:1;stroke-dasharray:none"
       d="m 602.71719,210.20032 c -4.18139,7.1681 -4.77873,13.14151 -4.77873,13.14151"
       id="path4783" />
    <path
       id="path4785"
       d="m 600.71719,208.20032 c -4.18139,7.1681 -4.77873,13.14151 -4.77873,13.14151"
       style="fill:none;stroke:#000000;stroke-width:1;stroke-miterlimit:4;stroke-opacity:1;stroke-dasharray:none" />
    <path
       style="fill:none;stroke:#000000;stroke-width:1;stroke-miterlimit:4;stroke-opacity:1;stroke-dasharray:none"
       d="m 918.71064,244.24877 c 2.9867,8.96011 -4.18139,19.11491 -4.18139,19.11491"
       id="path4787" />
    <path
       id="path4789"
       d="m 922.71064,244.24877 c 2.9867,8.96011 -4.18139,19.11491 -4.18139,19.11491"
       style="fill:none;stroke:#000000;stroke-width:1;stroke-miterlimit:4;stroke-opacity:1;stroke-dasharray:none" />
    <path
       style="fill:none;stroke:#000000;stroke-width:1;stroke-miterlimit:4;stroke-opacity:1;stroke-dasharray:none"
       d="m 835.68022,248.43016 c 1.19468,16.12821 10.75214,26.88035 10.75214,26.88035"
       id="path4791" />
    <path
       id="path4793"
       d="m 831.68022,250.43016 c 1.19468,16.12821 10.75214,26.88035 10.75214,26.88035"
       style="fill:none;stroke:#000000;stroke-width:1;stroke-miterlimit:4;stroke-opacity:1;stroke-dasharray:none" />
  </g>
  <g
     inkscape:groupmode="layer"
     id="layer3"
     inkscape:label="globos">
    <path
       id="path4815"
       d="m 847.125,-3.84375 c -59.38385,0 -107.53125,41.654208 -107.53125,93.03125 0,50.21861 46.00031,91.14877 103.53125,92.96875 l 12.09375,15.6875 1.9375,-16.03125 c 54.68342,-4.37431 97.5,-44.17261 97.5,-92.625 0,-51.377042 -48.1474,-93.03125 -107.53125,-93.03125 z"
       style="fill:#000000;fill-opacity:1;stroke:#000000;stroke-width:1;stroke-miterlimit:4;stroke-opacity:1;stroke-dasharray:none" />
    <path
       id="path4817"
       d="m 468.78125,35.0625 c -47.67987,0 -86.34375,25.74467 -86.34375,57.53125 0,28.27305 30.59376,51.77275 70.90625,56.625 l -1,26.3125 12.6875,-25.4375 c 1.23744,0.0351 2.49961,0.0625 3.75,0.0625 47.67987,0 86.3125,-25.77592 86.3125,-57.5625 0,-31.78658 -38.63263,-57.53125 -86.3125,-57.53125 z"
       style="fill:#000000;fill-opacity:1;stroke:#000000;stroke-width:1;stroke-miterlimit:4;stroke-opacity:1;stroke-dasharray:none" />
    <path
       id="path4819"
       d="m 264.75,82.5625 c -39.39324,0 -71.34375,14.209705 -71.34375,31.75 0,15.95368 26.42329,29.17889 60.84375,31.4375 l 6.625,22.71875 2.1875,-22.40625 c 0.56025,0.006 1.12413,0.0313 1.6875,0.0313 39.39324,0 71.3125,-14.24096 71.3125,-31.78125 0,-17.540295 -31.91926,-31.75 -71.3125,-31.75 z"
       style="fill:#000000;fill-opacity:1;stroke:#000000;stroke-width:0.99999994000000003;stroke-miterlimit:4;stroke-opacity:1;stroke-dasharray:none" />
    <path
       id="path4821"
       d="m 106.78125,13.90625 c -38.922343,0 -70.46875,32.86214 -70.46875,73.40625 0,31.98821 19.657478,59.19056 47.0625,69.25 l 7.1875,27.1875 7.5,-23.59375 c 2.86353,0.36894 5.75938,0.5625 8.71875,0.5625 38.92234,0 70.5,-32.86214 70.5,-73.40625 0,-40.54411 -31.57766,-73.40625 -70.5,-73.40625 z"
       style="fill:#000000;fill-opacity:1;stroke:#000000;stroke-width:1;stroke-miterlimit:4;stroke-opacity:1;stroke-dasharray:none" />
    <path
       style="fill:#ffffff;fill-opacity:1;stroke:#000000;stroke-width:1;stroke-miterlimit:4;stroke-opacity:1;stroke-dasharray:none"
       d="M 841.125 -7.84375 C 781.74115 -7.84375 733.59375 33.810458 733.59375 85.1875 C 733.59375 135.40611 779.59406 176.33627 837.125 178.15625 L 849.21875 193.84375 L 851.15625 177.8125 C 905.83967 173.43819 948.65625 133.63989 948.65625 85.1875 C 948.65625 33.810458 900.50885 -7.84375 841.125 -7.84375 z "
       id="path4801" />
    <path
       style="fill:#ffffff;fill-opacity:1;stroke:#000000;stroke-width:1;stroke-miterlimit:4;stroke-opacity:1;stroke-dasharray:none"
       d="M 462.78125 31.0625 C 415.10138 31.0625 376.4375 56.80717 376.4375 88.59375 C 376.4375 116.8668 407.03126 140.3665 447.34375 145.21875 L 446.34375 171.53125 L 459.03125 146.09375 C 460.26869 146.12884 461.53086 146.15625 462.78125 146.15625 C 510.46112 146.15625 549.09375 120.38033 549.09375 88.59375 C 549.09375 56.80717 510.46112 31.0625 462.78125 31.0625 z "
       id="path4799" />
    <path
       style="fill:#ffffff;fill-opacity:1;stroke:#000000;stroke-width:0.99999994;stroke-miterlimit:4;stroke-opacity:1;stroke-dasharray:none"
       d="M 258.75 78.5625 C 219.35676 78.5625 187.40625 92.772205 187.40625 110.3125 C 187.40625 126.26618 213.82954 139.49139 248.25 141.75 L 254.875 164.46875 L 257.0625 142.0625 C 257.62275 142.06828 258.18663 142.09375 258.75 142.09375 C 298.14324 142.09375 330.0625 127.85279 330.0625 110.3125 C 330.0625 92.772205 298.14324 78.5625 258.75 78.5625 z "
       id="path4797" />
    <path
       style="fill:#ffffff;fill-opacity:1;stroke:#000000;stroke-width:1;stroke-miterlimit:4;stroke-opacity:1;stroke-dasharray:none"
       d="M 100.78125 9.90625 C 61.858907 9.90625 30.3125 42.76839 30.3125 83.3125 C 30.3125 115.30071 49.969978 142.50306 77.375 152.5625 L 84.5625 179.75 L 92.0625 156.15625 C 94.926034 156.52519 97.82188 156.71875 100.78125 156.71875 C 139.70359 156.71875 171.28125 123.85661 171.28125 83.3125 C 171.28125 42.76839 139.70359 9.90625 100.78125 9.90625 z "
       id="path4795" />
    <text
       xml:space="preserve"
       style="font-size:16px;font-style:italic;font-variant:normal;font-weight:normal;font-stretch:normal;text-align:center;line-height:100%;writing-mode:lr-tb;text-anchor:middle;fill:#000000;fill-opacity:1;stroke:none;font-family:Kid Kosmic;-inkscape-font-specification:Kid Kosmic Italic"
       x="98.384041"
       y="60.92234"
       id="text3537"
       sodipodi:linespacing="100%"><tspan
         sodipodi:role="line"
         x="98.384041"
         y="60.92234"
         id="tspan3545">tio, no </tspan><tspan
         sodipodi:role="line"
         x="98.384041"
         y="60.92234"
         id="tspan3616">sabes</tspan><tspan
         sodipodi:role="line"
         x="98.384041"
         y="76.92234"
         id="tspan3612">como odio</tspan><tspan
         sodipodi:role="line"
         x="98.384041"
         y="92.92234"
         id="tspan3614"> el</tspan><tspan
         sodipodi:role="line"
         x="98.384041"
         y="108.92234"
         id="tspan3549">flash</tspan></text>
    <text
       sodipodi:linespacing="100%"
       id="text3551"
       y="120.92234"
       x="258.38403"
       style="font-size:16px;font-style:italic;font-variant:normal;font-weight:normal;font-stretch:normal;text-align:center;line-height:100%;writing-mode:lr-tb;text-anchor:middle;fill:#000000;fill-opacity:1;stroke:none;font-family:Kid Kosmic;-inkscape-font-specification:Kid Kosmic Italic"
       xml:space="preserve"><tspan
         id="tspan3559"
         y="120.92234"
         x="258.38403"
         sodipodi:role="line">por qu?</tspan></text>
    <text
       xml:space="preserve"
       style="font-size:16px;font-style:italic;font-variant:normal;font-weight:normal;font-stretch:normal;text-align:center;line-height:100%;writing-mode:lr-tb;text-anchor:middle;fill:#000000;fill-opacity:1;stroke:none;font-family:Kid Kosmic;-inkscape-font-specification:Kid Kosmic Italic"
       x="464.38403"
       y="80.92234"
       id="text3570"
       sodipodi:linespacing="100%"><tspan
         sodipodi:role="line"
         x="464.38403"
         y="80.92234"
         id="tspan3572">porque es</tspan><tspan
         sodipodi:role="line"
         x="464.38403"
         y="96.92234"
         id="tspan3574">muy lento y</tspan><tspan
         sodipodi:role="line"
         x="464.38403"
         y="112.92234"
         id="tspan3576">muy pesado</tspan></text>
    <text
       sodipodi:linespacing="100%"
       id="text3578"
       y="46.92234"
       x="840.38403"
       style="font-size:16px;font-style:italic;font-variant:normal;font-weight:normal;font-stretch:normal;text-align:center;line-height:100%;writing-mode:lr-tb;text-anchor:middle;fill:#000000;fill-opacity:1;stroke:none;font-family:Kid Kosmic;-inkscape-font-specification:Kid Kosmic Italic"
       xml:space="preserve"><tspan
         id="tspan3584"
         y="46.92234"
         x="840.38403"
         sodipodi:role="line">vale, es</tspan><tspan
         y="62.92234"
         x="840.38403"
         sodipodi:role="line"
         id="tspan3591">verdad que he</tspan><tspan
         y="78.92234"
         x="840.38403"
         sodipodi:role="line"
         id="tspan3593">ganado unos</tspan><tspan
         y="94.92234"
         x="840.38403"
         sodipodi:role="line"
         id="tspan3595">kilos de ms,</tspan><tspan
         y="110.92234"
         x="840.38403"
         sodipodi:role="line"
         id="tspan3599">pero esa no</tspan><tspan
         y="126.92233"
         x="840.38403"
         sodipodi:role="line"
         id="tspan3603">es razn para</tspan><tspan
         y="142.92233"
         x="840.38403"
         sodipodi:role="line"
         id="tspan3605">odiarme....</tspan></text>
  </g>
  <g
     inkscape:groupmode="layer"
     id="layer4"
     inkscape:label="vinietas">
    <path
       style="fill:#6699cc;fill-opacity:1;fill-rule:nonzero;stroke:#000000;stroke-width:4.48726034;stroke-linecap:round;stroke-linejoin:round;stroke-miterlimit:4;stroke-dashoffset:0;stroke-opacity:1;display:inline"
       d="M -3.1395438,-4.7760952 C -5.4235092,-4.7760952 -7.2644814,-2.9685179 -7.2644814,-0.74658629 L -7.2644814,390.21022 C -7.2644814,390.53373 -7.2131821,390.85414 -7.1394833,391.15464 C -7.2179821,391.46533 -7.2644814,391.79636 -7.2644814,392.13053 L -7.2644814,783.08734 C -7.2644814,785.30927 -5.4235092,787.08538 -3.1395438,787.08537 L 1073.2191,787.08537 C 1075.5032,787.08537 1077.3441,785.30927 1077.3441,783.08734 L 1077.3441,392.13053 C 1077.3441,391.79636 1077.2977,391.46533 1077.2191,391.15464 C 1077.2929,390.85414 1077.3441,390.53373 1077.3441,390.21022 L 1077.3441,-0.74658629 C 1077.3441,-2.9685179 1075.5034,-4.7760952 1073.2191,-4.7760952 L -3.1395438,-4.7760952 z M 32.141222,5.9902489 L 318.91808,5.9902489 C 335.30364,5.9902489 348.48014,17.992323 348.48014,32.874629 L 348.48014,331.31013 C 348.48014,346.19245 335.30374,358.16303 318.91808,358.16303 L 32.141222,358.16303 C 15.75567,358.16303 2.5791696,346.19244 2.5791696,331.31013 L 2.5791696,32.874629 C 2.5791696,17.992323 15.75567,5.9902489 32.141222,5.9902489 z M 388.72953,5.9902489 L 675.50648,5.9902489 C 691.89203,5.9902489 705.06853,17.992323 705.06853,32.874629 L 705.06853,331.31013 C 705.06853,346.19245 691.89203,358.16303 675.50648,358.16303 L 388.72953,358.16303 C 372.34397,358.16303 359.16747,346.19244 359.16747,331.31013 L 359.16747,32.874629 C 359.16747,17.992323 372.34397,5.9902489 388.72953,5.9902489 z M 745.66162,5.9902489 L 1032.4386,5.9902489 C 1048.8241,5.9902489 1062.0006,17.992323 1062.0006,32.874629 L 1062.0006,331.31013 C 1062.0006,346.19245 1048.8241,358.16303 1032.4386,358.16303 L 745.66162,358.16303 C 729.27607,358.16303 716.09957,346.19244 716.09957,331.31013 L 716.09957,32.874629 C 716.09957,17.992323 729.27607,5.9902489 745.66162,5.9902489 z M 32.141222,398.86737 L 318.91808,398.86737 C 335.30364,398.86737 348.48014,410.86944 348.48014,425.75175 L 348.48014,724.18725 C 348.48014,739.06957 335.30374,751.04015 318.91808,751.04015 L 32.141222,751.04015 C 15.75567,751.04015 2.5791696,739.06956 2.5791696,724.18725 L 2.5791696,425.75175 C 2.5791696,410.86944 15.75567,398.86737 32.141222,398.86737 z M 388.72953,398.86737 L 675.50648,398.86737 C 691.89203,398.86737 705.06853,410.86944 705.06853,425.75175 L 705.06853,724.18725 C 705.06853,739.06957 691.89203,751.04015 675.50648,751.04015 L 388.72953,751.04015 C 372.34397,751.04015 359.16747,739.06956 359.16747,724.18725 L 359.16747,425.75175 C 359.16747,410.86944 372.34397,398.86737 388.72953,398.86737 z M 745.66162,398.86737 L 1032.4386,398.86737 C 1048.8241,398.86737 1062.0006,410.86944 1062.0006,425.75175 L 1062.0006,724.18725 C 1062.0006,739.06957 1048.8241,751.04015 1032.4386,751.04015 L 745.66162,751.04015 C 729.27607,751.04015 716.09957,739.06956 716.09957,724.18725 L 716.09957,425.75175 C 716.09957,410.86944 729.27607,398.86737 745.66162,398.86737 z"
       id="rect16715" />
    <text
       xml:space="preserve"
       style="font-size:18px;font-style:normal;font-variant:normal;font-weight:normal;font-stretch:normal;text-align:center;line-height:125%;writing-mode:lr-tb;text-anchor:middle;fill:#ffffff;fill-opacity:1;stroke:#ffffff;stroke-width:1pt;stroke-linecap:butt;stroke-linejoin:miter;stroke-opacity:1;display:inline;font-family:Sans"
       x="161.90993"
       y="384.6756"
       id="text2618"
       sodipodi:linespacing="125%"><tspan
         sodipodi:role="line"
         id="tspan2620"
         x="161.90993"
         y="384.6756">tira de linuxhispano.net</tspan></text>
    <text
       xml:space="preserve"
       style="font-size:18px;font-style:normal;font-variant:normal;font-weight:normal;font-stretch:normal;text-align:center;line-height:125%;writing-mode:lr-tb;text-anchor:middle;fill:#ffffff;fill-opacity:1;stroke:#ffffff;stroke-width:1pt;stroke-linecap:butt;stroke-linejoin:miter;stroke-opacity:1;display:inline;font-family:Sans"
       x="1014.7665"
       y="383.6756"
       id="text2622"
       sodipodi:linespacing="125%"><tspan
         sodipodi:role="line"
         id="tspan2624"
         x="1014.7665"
         y="383.6756">by danigm</tspan></text>
    <text
       sodipodi:linespacing="125%"
       id="text4260"
       y="384.6756"
       x="541.91003"
       style="font-size:18px;font-style:normal;font-variant:normal;font-weight:normal;font-stretch:normal;text-align:center;line-height:125%;writing-mode:lr-tb;text-anchor:middle;fill:#ffffff;fill-opacity:1;stroke:none;stroke-width:1pt;stroke-linecap:butt;stroke-linejoin:miter;stroke-opacity:1;display:inline;font-family:Sans"
       xml:space="preserve"><tspan
         y="384.6756"
         x="541.91003"
         id="tspan4262"
         sodipodi:role="line">imagenes en danigm.net</tspan></text>
  </g>
</svg>
