<?xml version="1.0" encoding="UTF-8" standalone="no"?>
<!-- Created with Inkscape (http://www.inkscape.org/) -->
<svg
   xmlns:dc="http://purl.org/dc/elements/1.1/"
   xmlns:cc="http://creativecommons.org/ns#"
   xmlns:rdf="http://www.w3.org/1999/02/22-rdf-syntax-ns#"
   xmlns:svg="http://www.w3.org/2000/svg"
   xmlns="http://www.w3.org/2000/svg"
   xmlns:sodipodi="http://sodipodi.sourceforge.net/DTD/sodipodi-0.dtd"
   xmlns:inkscape="http://www.inkscape.org/namespaces/inkscape"
   width="1063"
   height="756"
   id="svg2"
   sodipodi:version="0.32"
   inkscape:version="0.45+devel"
   version="1.0"
   sodipodi:docname="hispalinux2007.svg"
   inkscape:output_extension="org.inkscape.output.svg.inkscape"
   sodipodi:docbase="/home/danigm/Documentos/linuxHispano/tira"
   inkscape:export-filename="/home/danigm/Documentos/linuxHispano/tira/hispalinux2007.png"
   inkscape:export-xdpi="60.112888"
   inkscape:export-ydpi="60.112888">
  <defs
     id="defs4" />
  <sodipodi:namedview
     id="base"
     pagecolor="#ffffff"
     bordercolor="#666666"
     borderopacity="1.0"
     inkscape:pageopacity="1"
     inkscape:pageshadow="2"
     inkscape:zoom="0.67724868"
     inkscape:cx="531.5"
     inkscape:cy="378"
     inkscape:document-units="px"
     inkscape:current-layer="layer3"
     width="1062.99px"
     borderlayer="true"
     inkscape:window-width="1270"
     inkscape:window-height="749"
     inkscape:window-x="5"
     inkscape:window-y="46"
     showgrid="false"
     showguides="true"
     inkscape:guide-bbox="true">
    <sodipodi:guide
       orientation="horizontal"
       position="364.71094"
       id="guide3818" />
  </sodipodi:namedview>
  <metadata
     id="metadata7">
    <rdf:RDF>
      <cc:Work
         rdf:about="">
        <dc:format>image/svg+xml</dc:format>
        <dc:type
           rdf:resource="http://purl.org/dc/dcmitype/StillImage" />
      </cc:Work>
      <cc:Work
         rdf:about="">
        <dc:format>image/svg+xml</dc:format>
        <dc:type
           rdf:resource="http://purl.org/dc/dcmitype/StillImage" />
      </cc:Work>
    </rdf:RDF>
  </metadata>
  <g
     inkscape:label="fondo"
     inkscape:groupmode="layer"
     id="layer1"
     sodipodi:insensitive="true">
    <rect
       style="opacity:1;fill:#7676ff;fill-opacity:1;fill-rule:nonzero;stroke:#000000;stroke-width:4;stroke-linecap:round;stroke-linejoin:round;stroke-miterlimit:4;stroke-dasharray:none;stroke-dashoffset:0;stroke-opacity:1;display:inline"
       id="rect4585"
       width="1150.5601"
       height="856.79999"
       x="-39.900002"
       y="-27.019989"
       rx="15.548299"
       ry="10.315682" />
    <path
       sodipodi:type="arc"
       style="opacity:1;fill:#ababff;fill-opacity:1;fill-rule:nonzero;stroke:none;stroke-width:3.80038881;stroke-linecap:round;stroke-linejoin:round;stroke-miterlimit:4;stroke-dasharray:none;stroke-dashoffset:0;stroke-opacity:1;display:inline"
       id="path4587"
       sodipodi:cx="581.40002"
       sodipodi:cy="374.85001"
       sodipodi:rx="535.5"
       sodipodi:ry="273.87"
       d="M 1116.9,374.85001 A 535.5,273.87 0 1 1 45.900024,374.85001 A 535.5,273.87 0 1 1 1116.9,374.85001 z"
       transform="matrix(0.9981395,0,0,1.1098713,-48.81833,-38.035264)" />
    <path
       sodipodi:type="arc"
       style="fill:#ff0000;fill-opacity:1;stroke:#000000;stroke-width:1;stroke-linecap:round;stroke-linejoin:miter;stroke-miterlimit:4;stroke-dasharray:none;stroke-opacity:1;display:inline"
       id="path2819"
       sodipodi:cx="1411.7009"
       sodipodi:cy="253.46965"
       sodipodi:rx="53.76445"
       sodipodi:ry="53.76445"
       d="M 1465.4654,253.46965 A 53.76445,53.76445 0 1 1 1357.9365,253.46965 A 53.76445,53.76445 0 1 1 1465.4654,253.46965 z"
       transform="translate(-211.98567,488.70551)" />
    <path
       d="M 1465.4654,253.46965 A 53.76445,53.76445 0 1 1 1357.9365,253.46965 A 53.76445,53.76445 0 1 1 1465.4654,253.46965 z"
       sodipodi:ry="53.76445"
       sodipodi:rx="53.76445"
       sodipodi:cy="253.46965"
       sodipodi:cx="1411.7009"
       id="path2821"
       style="fill:#0000ff;fill-opacity:1;stroke:#000000;stroke-width:1;stroke-linecap:round;stroke-linejoin:miter;stroke-miterlimit:4;stroke-dasharray:none;stroke-opacity:1;display:inline"
       sodipodi:type="arc"
       transform="translate(-91.985679,488.70551)" />
    <path
       transform="translate(30.014325,488.70551)"
       sodipodi:type="arc"
       style="fill:#00ff00;fill-opacity:1;stroke:#000000;stroke-width:1;stroke-linecap:round;stroke-linejoin:miter;stroke-miterlimit:4;stroke-dasharray:none;stroke-opacity:1;display:inline"
       id="path2823"
       sodipodi:cx="1411.7009"
       sodipodi:cy="253.46965"
       sodipodi:rx="53.76445"
       sodipodi:ry="53.76445"
       d="M 1465.4654,253.46965 A 53.76445,53.76445 0 1 1 1357.9365,253.46965 A 53.76445,53.76445 0 1 1 1465.4654,253.46965 z" />
    <path
       d="M 1465.4654,253.46965 A 53.76445,53.76445 0 1 1 1357.9365,253.46965 A 53.76445,53.76445 0 1 1 1465.4654,253.46965 z"
       sodipodi:ry="53.76445"
       sodipodi:rx="53.76445"
       sodipodi:cy="253.46965"
       sodipodi:cx="1411.7009"
       id="path2825"
       style="fill:#ffff00;fill-opacity:1;stroke:#000000;stroke-width:1;stroke-linecap:round;stroke-linejoin:miter;stroke-miterlimit:4;stroke-dasharray:none;stroke-opacity:1;display:inline"
       sodipodi:type="arc"
       transform="translate(150.01433,488.70551)" />
    <path
       transform="translate(270.01433,488.70551)"
       sodipodi:type="arc"
       style="fill:#800080;fill-opacity:1;stroke:#000000;stroke-width:1;stroke-linecap:round;stroke-linejoin:miter;stroke-miterlimit:4;stroke-dasharray:none;stroke-opacity:1;display:inline"
       id="path2827"
       sodipodi:cx="1411.7009"
       sodipodi:cy="253.46965"
       sodipodi:rx="53.76445"
       sodipodi:ry="53.76445"
       d="M 1465.4654,253.46965 A 53.76445,53.76445 0 1 1 1357.9365,253.46965 A 53.76445,53.76445 0 1 1 1465.4654,253.46965 z" />
  </g>
  <g
     inkscape:groupmode="layer"
     id="layer2"
     inkscape:label="dibujos">
    <rect
       style="fill:#d38d5f;fill-opacity:1;stroke:#000000;stroke-width:1;stroke-miterlimit:4;stroke-dasharray:none;stroke-opacity:1"
       id="rect3587"
       width="1104.9319"
       height="58.049042"
       x="-17.426865"
       y="309.84656"
       rx="15.554818"
       ry="7.3735819" />
    <path
       style="fill:none;fill-rule:evenodd;stroke:#000000;stroke-width:1px;stroke-linecap:butt;stroke-linejoin:miter;stroke-opacity:1"
       d="M 373.03,266.48648 C 395.90811,252.37311 425.69937,239.3298 451.86344,252.58538 C 466.334,259.37562 475.65814,282.5021 460.2928,293.21081 C 449.18648,304.55932 428.36705,293.74015 433.8759,277.901 C 439.76966,258.61347 460.60574,248.10071 478.91405,243.50378 C 506.39245,237.1674 541.86972,247.06528 553.41238,274.87747 C 561.12879,289.22065 545.44627,303.90551 531.24485,298.71891 C 513.95917,291.61462 523.85995,266.39521 536.3055,259.00897 C 553.28617,248.31512 574.52204,245.85212 594.22874,245.79883"
       id="path3623" />
    <path
       style="fill:#ffffff;fill-rule:evenodd;stroke:#000000;stroke-width:0.79183667999999996px;stroke-linecap:butt;stroke-linejoin:miter;stroke-opacity:1"
       d="M 605.48884,245.33341 C 626.37936,245.5305 648.64942,212.6181 648.64942,212.6181 C 666.3866,229.9611 680.77346,239.81513 680.77346,239.81513 C 649.83185,266.61802 616.13119,272.92459 616.13119,272.92459 C 620.66406,258.93191 605.29175,244.93923 605.48884,245.33341 z"
       id="path3633" />
    <path
       style="fill:none;fill-rule:evenodd;stroke:#000000;stroke-width:1px;stroke-linecap:butt;stroke-linejoin:miter;stroke-opacity:1"
       d="M 705.07172,287.06665 C 724.6896,300.12919 774.90643,300.34478 765.26999,266.21795 C 741.76712,238.62418 721.94973,291.99575 752.7576,298.88856 C 782.01598,305.99001 820.30681,297.83175 836.87453,270.65937 C 850.64305,235.40883 787.1169,242.64722 805.11319,275.71426 C 816.55183,305.13508 848.95043,286.72329 865.51378,273.18566 C 871.19534,268.59053 876.46224,263.51149 881.60448,258.32801"
       id="path3637" />
    <g
       id="g3890"
       transform="translate(0,-2)">
      <path
         style="fill:#000000;fill-rule:evenodd;stroke:#000000;stroke-width:2.95675731px;stroke-linecap:butt;stroke-linejoin:miter;stroke-opacity:1"
         d="M 825.46568,233.20394 C 895.17254,192.41268 892.27873,55.699815 892.27873,55.699815 C 991.49819,69.40917 1062.1558,68.670561 1062.1558,68.670561 C 1022.065,205.34993 925.05412,289.80025 925.05412,289.80025 C 907.46445,241.44456 823.89365,232.4846 825.46568,233.20394 z"
         id="path3635" />
      <path
         sodipodi:nodetypes="ccccccccc"
         id="path3645"
         d="M 898.68552,126.19462 C 932.09008,161.43772 920.59389,162.11201 894.30432,173.98707 C 889.2979,177.90493 866.84134,197.88411 886.24688,187.3742 C 908.52447,169.66684 930.54039,163.11963 947.35207,186.40984 C 966.62318,201.06184 975.98937,218.94192 957.75071,187.88578 C 945.32056,171.20463 932.8235,165.22034 953.58636,148.74304 C 986.97851,140.20997 996.60645,122.90551 988.1786,116.33359 C 966.58048,127.89294 937.99036,167.0622 921.70435,139.06824 C 889.38069,94.141518 885.57775,106.00327 898.68552,126.19462 z"
         style="fill:#ffffff;fill-rule:evenodd;stroke:none;stroke-width:1px;stroke-linecap:butt;stroke-linejoin:miter;stroke-opacity:1" />
      <text
         transform="matrix(1,0,-0.3945736,1,0,0)"
         sodipodi:linespacing="125%"
         id="text3653"
         y="159.04645"
         x="962.0849"
         style="font-size:6.88843155px;font-style:normal;font-variant:normal;font-weight:bold;font-stretch:normal;text-align:center;line-height:125%;writing-mode:lr-tb;text-anchor:middle;fill:#ff6600;fill-opacity:1;stroke:none;stroke-width:1px;stroke-linecap:butt;stroke-linejoin:miter;stroke-opacity:1;font-family:Orange"
         xml:space="preserve"><tspan
           dx="0 0.9574393 1.2765857 1.5957321"
           y="159.04645"
           x="962.0849"
           id="tspan3655"
           sodipodi:role="line">2007</tspan></text>
      <g
         transform="matrix(1.2348262,0.1014647,-0.2669131,1.2128944,-127.72681,-70.353915)"
         id="g3671">
        <rect
           style="fill:#ff6600;fill-opacity:1;fill-rule:nonzero;stroke:#ffffff;stroke-width:0.65833199;stroke-miterlimit:4;stroke-dasharray:none;stroke-opacity:1"
           id="rect3665"
           width="73.726143"
           height="10.491964"
           x="874.93359"
           y="111.06116"
           rx="0"
           ry="0" />
        <rect
           ry="0"
           rx="0"
           y="111.39257"
           x="875.10522"
           height="9.8291407"
           width="36.269432"
           id="rect3669"
           style="fill:#000000;fill-opacity:1;fill-rule:nonzero;stroke:none;stroke-width:0.46902761;stroke-miterlimit:4;stroke-dasharray:none;stroke-opacity:1" />
        <text
           xml:space="preserve"
           style="font-size:10.72652531px;font-style:normal;font-variant:normal;font-weight:normal;font-stretch:normal;text-align:center;line-height:125%;writing-mode:lr-tb;text-anchor:middle;fill:#ffffff;fill-opacity:1;stroke:none;stroke-width:1px;stroke-linecap:butt;stroke-linejoin:miter;stroke-opacity:1;font-family:Arial"
           x="798.54926"
           y="134.19862"
           id="text3657"
           sodipodi:linespacing="125%"
           transform="scale(1.118722,0.8938771)"><tspan
             sodipodi:role="line"
             id="tspan3659"
             x="798.54926"
             y="134.19862">HISPA</tspan></text>
        <text
           xml:space="preserve"
           style="font-size:10.72652531px;font-style:normal;font-variant:normal;font-weight:normal;font-stretch:normal;text-align:center;line-height:125%;writing-mode:lr-tb;text-anchor:middle;fill:#000000;fill-opacity:1;stroke:none;stroke-width:1px;stroke-linecap:butt;stroke-linejoin:miter;stroke-opacity:1;font-family:Arial"
           x="830.08197"
           y="134.13315"
           id="text3661"
           sodipodi:linespacing="125%"
           transform="scale(1.118722,0.8938771)"><tspan
             sodipodi:role="line"
             id="tspan3663"
             x="830.08197"
             y="134.13315">LINUX</tspan></text>
      </g>
      <path
         id="path3688"
         d="M 892.27344,62.148438 C 892.19327,67.038061 891.90479,74.43182 891.21094,83.585938 C 908.68135,88.69668 958.74799,100.72838 1050.4297,103.30469 C 1053.2249,96.023313 1055.8851,88.565232 1058.3672,80.929688 C 1034.8598,80.02139 974.49739,76.403024 892.27344,62.148438 z"
         style="fill:#ff6600;fill-rule:evenodd;stroke:#000000;stroke-width:1px;stroke-linecap:butt;stroke-linejoin:miter;stroke-opacity:1" />
      <path
         style="fill:#ffffff;fill-rule:evenodd;stroke:none;stroke-width:1px;stroke-linecap:butt;stroke-linejoin:miter;stroke-opacity:1"
         d="M 901.63342,69.146679 C 903.32305,71.306337 904.48955,74.631521 901.06224,76.179627 C 900.40958,76.690393 897.48206,79.294989 900.01182,77.924883 C 902.91611,75.616434 906.72028,75.026119 908.91195,78.062365 C 910.00939,79.051215 913.89562,82.270557 911.71533,78.945757 C 910.09486,76.771105 908.11647,73.510426 911.74458,71.823025 C 912.67576,70.776412 917.28711,67.434628 913.78644,69.045659 C 910.97078,70.552627 907.54715,72.401497 904.70012,70.43011 C 903.67786,70.002297 902.65568,69.574486 901.63342,69.146679 z"
         id="path3681" />
      <path
         id="text3693"
         d="M 916.67708,77.949728 L 917.34745,78.293846 C 917.20482,78.88659 916.99902,79.315871 916.73012,79.581691 C 916.46129,79.844965 916.15038,79.932235 915.7974,79.8435 C 915.4,79.743633 915.09273,79.460259 914.87558,78.993384 C 914.65989,78.526888 914.55906,77.903462 914.57302,77.123124 C 914.58437,76.489732 914.66936,75.929561 914.82792,75.442604 C 914.98803,74.9535 915.20357,74.603005 915.47444,74.391137 C 915.74532,74.179279 916.0373,74.112702 916.35046,74.191409 C 916.70205,74.279767 916.98348,74.513391 917.19482,74.892257 C 917.40615,75.268609 917.52605,75.740296 917.55448,76.307333 L 916.91225,76.252791 C 916.88256,75.919591 916.8181,75.66797 916.71878,75.497938 C 916.62095,75.325748 916.48785,75.21849 916.31949,75.176155 C 916.13479,75.129753 915.96029,75.182592 915.79579,75.334676 C 915.63284,75.487125 915.49968,75.756509 915.3963,76.142806 C 915.29297,76.526585 915.23767,76.922422 915.23032,77.33033 C 915.22236,77.776237 915.2782,78.136398 915.39792,78.410809 C 915.51916,78.685587 915.67277,78.846373 915.85888,78.893154 C 916.03171,78.936587 916.19152,78.880035 916.33821,78.723505 C 916.48644,78.567336 916.5994,78.309407 916.67708,77.949728 M 917.805,78.047282 C 917.80896,77.717459 917.84198,77.376612 917.90404,77.024749 C 917.9853,76.552724 918.10494,76.154561 918.26292,75.830261 C 918.42246,75.506307 918.62091,75.267809 918.85831,75.114768 C 919.09579,74.959193 919.36453,74.916511 919.66446,74.986735 C 920.06634,75.080837 920.388,75.371166 920.62959,75.857708 C 920.87263,76.344609 920.98989,76.941991 920.98136,77.649854 C 920.97423,78.238478 920.88681,78.789213 920.71916,79.302068 C 920.55142,79.814924 920.32762,80.187434 920.04779,80.419583 C 919.76789,80.651744 919.45358,80.727004 919.1049,80.645361 C 918.802,80.57444 918.5493,80.396963 918.34679,80.11292 C 918.1443,79.828876 918.00226,79.503033 917.92076,79.135376 C 917.83927,78.765188 917.8007,78.40249 917.805,78.047282 M 918.46569,78.17909 C 918.46112,78.562198 918.52518,78.899063 918.65799,79.189673 C 918.79076,79.480298 918.968,79.651548 919.18966,79.703434 C 919.36987,79.745643 919.54398,79.684633 919.71192,79.520404 C 919.88131,79.353989 920.02248,79.076629 920.13537,78.688317 C 920.24973,78.297825 920.30926,77.905953 920.31402,77.512689 C 920.31929,77.07377 920.25478,76.713894 920.12036,76.433077 C 919.98597,76.149736 919.81241,75.983151 919.59967,75.933326 C 919.27314,75.856883 919.00403,76.055937 918.79235,76.530504 C 918.58212,77.005418 918.47328,77.554944 918.46569,78.17909 M 923.6953,81.576479 L 923.07244,81.440212 L 922.22053,77.495114 L 921.73807,81.14828 L 921.11524,81.012012 L 921.83191,75.574629 L 922.45695,75.711384 L 923.31128,79.641722 L 923.79138,76.003313 L 924.41202,76.139092 L 923.6953,81.576479 M 926.19259,79.10777 L 927.6467,79.405861 L 927.34877,81.744873 C 927.17697,81.900431 926.96599,82.018722 926.71598,82.09974 C 926.46737,82.181073 926.21382,82.195226 925.95518,82.142206 C 925.55321,82.059813 925.24546,81.840277 925.03186,81.483604 C 924.74019,80.996462 924.59526,80.347337 924.59704,79.53623 C 924.59829,78.992102 924.6622,78.483739 924.78891,78.011129 C 924.94103,77.441961 925.15632,77.020581 925.43488,76.746982 C 925.71345,76.473395 926.0404,76.375068 926.41577,76.452007 C 926.79114,76.528957 927.09155,76.740619 927.31695,77.087 C 927.54388,77.433687 927.69366,77.901922 927.76626,78.491702 L 927.14311,78.486067 C 927.08911,78.159576 927.00098,77.903656 926.8787,77.718325 C 926.75783,77.533305 926.60511,77.421848 926.42038,77.383976 C 926.20458,77.339761 926.00638,77.395787 925.82566,77.552059 C 925.64488,77.70836 925.50313,77.978183 925.40022,78.361567 C 925.29742,78.744937 925.2454,79.175647 925.24439,79.653658 C 925.24331,80.12405 925.30462,80.485118 925.42831,80.736849 C 925.55189,80.986058 925.73342,81.135198 925.97284,81.18427 C 926.11618,81.213652 926.26328,81.209473 926.41417,81.171718 C 926.56509,81.131423 926.69528,81.074176 926.8049,80.999967 L 926.90646,80.188972 L 926.07742,80.01902 L 926.19259,79.10777 M 928.58867,82.574481 L 927.91917,82.445634 L 928.58849,76.980632 L 930.03155,77.258395 C 930.27986,77.306187 930.4728,77.387839 930.61041,77.503357 C 930.74947,77.616624 930.86142,77.798413 930.94608,78.048745 C 931.03229,78.29937 931.07569,78.591363 931.07635,78.924728 C 931.07732,79.4006 930.99535,79.777848 930.83049,80.056446 C 930.66558,80.332508 930.41545,80.475159 930.08013,80.484387 C 930.16614,80.633214 930.24705,80.82303 930.32285,81.053841 C 930.47295,81.520274 930.64042,82.170658 930.8253,83.004995 L 930.10712,82.866751 C 930.04884,82.540099 929.93477,82.025931 929.76495,81.324231 C 929.67262,80.945229 929.57463,80.68343 929.47094,80.538821 C 929.40721,80.452795 929.2963,80.394562 929.1382,80.364122 L 928.86552,80.311644 L 928.58867,82.574481 M 928.96578,79.491492 L 929.32051,79.559752 C 929.6796,79.62888 929.91745,79.637777 930.03406,79.586446 C 930.15211,79.535406 930.24423,79.437394 930.31039,79.292421 C 930.37661,79.147446 930.4095,78.988439 930.40922,78.815382 C 930.40873,78.611812 930.36046,78.449869 930.26421,78.329588 C 930.20493,78.257144 930.07706,78.202 929.88052,78.164158 L 929.14452,78.022512 L 928.96578,79.491492 M 931.18681,83.071591 L 931.83378,77.595221 L 934.24323,78.033423 L 934.13545,78.948701 L 932.39539,78.632242 L 932.24737,79.875994 L 933.92976,80.181967 L 933.82198,81.097237 L 932.13952,80.791271 L 931.94408,82.274437 L 933.83489,82.618306 L 933.72481,83.533184 L 931.18681,83.071591 M 934.30553,81.823294 L 934.94111,81.87567 C 934.95308,82.226256 934.98984,82.467935 935.05151,82.600678 C 935.15074,82.816239 935.33189,82.946697 935.59496,82.992049 C 935.81363,83.029762 935.97113,82.989513 936.06746,82.871285 C 936.16384,82.753067 936.21115,82.59841 936.20951,82.407312 C 936.20803,82.241697 936.16693,82.09468 936.0861,81.96627 C 936.02922,81.872499 935.87363,81.709556 935.6193,81.477437 C 935.36646,81.245575 935.18112,81.057151 935.06329,80.912168 C 934.94686,80.764906 934.85455,80.584896 934.78635,80.372131 C 934.71806,80.159382 934.68272,79.917974 934.68039,79.647887 C 934.67627,79.176525 934.77182,78.802496 934.96716,78.525784 C 935.16242,78.249091 935.4477,78.143106 935.82305,78.207817 C 936.20426,78.273569 936.5004,78.478555 936.71145,78.822778 C 936.92399,79.167264 937.04286,79.597357 937.06803,80.113052 L 936.42788,80.052273 C 936.40929,79.781943 936.3513,79.567153 936.25406,79.407897 C 936.15676,79.248654 936.01423,79.152853 935.8266,79.12049 C 935.64188,79.088643 935.5101,79.12189 935.43134,79.220231 C 935.35397,79.318836 935.3161,79.453492 935.3176,79.624201 C 935.31893,79.784729 935.3563,79.923461 935.42968,80.040406 C 935.50301,80.159906 935.66459,80.334059 935.91449,80.562867 C 936.29073,80.905064 936.53064,81.17158 936.63411,81.362422 C 936.78852,81.643463 936.86751,81.98399 936.87097,82.384015 C 936.87534,82.878309 936.76527,83.28164 936.54077,83.594012 C 936.31772,83.904097 936.00378,84.024217 935.59896,83.954401 C 935.31962,83.906243 935.07662,83.784185 934.86981,83.588249 C 934.66446,83.390024 934.51845,83.139676 934.43166,82.837247 C 934.34494,82.534806 934.30288,82.19682 934.30553,81.823294 M 937.43603,81.978688 C 937.43205,81.647291 937.45669,81.302738 937.50997,80.945029 C 937.57941,80.465308 937.68884,80.056967 937.83821,79.720012 C 937.98901,79.383308 938.18064,79.12958 938.41306,78.958831 C 938.64545,78.785545 938.91162,78.723339 939.21152,78.772231 C 939.61345,78.837743 939.94033,79.106026 940.19221,79.577074 C 940.4456,80.048364 940.5765,80.639632 940.58496,81.35088 C 940.59204,81.942317 940.51835,82.501505 940.36386,83.028441 C 940.20944,83.555385 939.99582,83.945467 939.72308,84.198699 C 939.45037,84.451925 939.13964,84.550116 938.79095,84.493275 C 938.48807,84.443903 938.23251,84.283933 938.02434,84.013365 C 937.81613,83.74281 937.66707,83.42592 937.57723,83.062696 C 937.48734,82.696931 937.44026,82.335592 937.43603,81.978688 M 938.09617,82.063411 C 938.10076,82.448358 938.17258,82.781915 938.31158,83.064104 C 938.45063,83.346284 938.63096,83.505441 938.85258,83.541565 C 939.03288,83.57095 939.20452,83.497164 939.36756,83.320193 C 939.53205,83.140918 939.66571,82.852307 939.76862,82.454361 C 939.87296,82.054103 939.92278,81.656401 939.91813,81.26125 C 939.91284,80.82023 939.84002,80.463609 939.69962,80.19138 C 939.55919,79.916606 939.3826,79.761875 939.16987,79.727184 C 938.84331,79.673957 938.5805,79.893184 938.38142,80.384853 C 938.18379,80.876772 938.0887,81.436291 938.09617,82.063411 M 942.00971,84.905256 L 942.60481,79.400734 L 943.27176,79.502967 L 942.67895,85.007816 L 942.00971,84.905256 M 945.89465,85.487703 L 945.27203,85.395798 L 944.33015,81.496683 L 943.93814,85.198897 L 943.31549,85.106994 L 943.89762,79.596693 L 944.52244,79.688934 L 945.46629,83.573061 L 945.85636,79.885823 L 946.47678,79.977401 L 945.89465,85.487703 M 947.99028,85.784506 L 947.32123,85.690536 L 947.79723,81.095804 L 946.84457,80.962012 L 946.93927,80.03994 L 949.49812,80.399304 L 949.40345,81.321371 L 948.46411,81.189455 L 947.99028,85.784506 M 949.3507,85.974621 L 949.90691,80.451415 L 952.31475,80.773963 L 952.22211,81.697048 L 950.48322,81.464111 L 950.35579,82.718554 L 952.03711,82.943774 L 951.94448,83.866862 L 950.26314,83.641647 L 950.09241,85.138469 L 951.98193,85.391582 L 951.88711,86.314369 L 949.3507,85.974621 M 953.06296,86.466374 L 952.3941,86.381228 L 952.93987,80.852136 L 954.38168,81.035673 C 954.62976,81.067252 954.82352,81.136473 954.96298,81.243325 C 955.10387,81.347824 955.21919,81.522898 955.309,81.768545 C 955.40019,82.014403 955.44988,82.304585 955.45784,82.639123 C 955.46924,83.116673 955.39601,83.500694 955.23805,83.7912 C 955.0801,84.079152 954.83437,84.238825 954.50098,84.270211 C 954.58979,84.41391 954.67444,84.599079 954.75493,84.825732 C 954.91455,85.283958 955.09548,85.92566 955.29777,86.750836 L 954.58013,86.659491 C 954.51496,86.3355 954.39025,85.826972 954.20585,85.133919 C 954.10564,84.759638 954.00236,84.503352 953.896,84.36506 C 953.83078,84.282922 953.71913,84.231794 953.56109,84.21169 L 953.28873,84.177005 L 953.06296,86.466374 M 953.37044,83.347241 L 953.72484,83.392356 C 954.0836,83.438031 954.32043,83.431263 954.43536,83.372047 C 954.55174,83.313022 954.64118,83.208587 954.70387,83.058701 C 954.76656,82.908835 954.79577,82.747071 954.79161,82.573418 C 954.78674,82.36912 954.73508,82.209785 954.63667,82.095419 C 954.57617,82.026611 954.44771,81.979714 954.25129,81.954715 L 953.51598,81.861114 L 953.37044,83.347241 M 958.25449,87.108838 L 957.63219,87.03371 L 956.65676,83.153666 L 956.29905,86.872742 L 955.67678,86.797606 L 956.2079,81.262256 L 956.83239,81.337657 L 957.80959,85.202641 L 958.16549,81.49863 L 958.78549,81.573496 L 958.25449,87.108838 M 961.02749,86.191659 L 959.74089,86.044309 L 959.38629,87.241416 L 958.69979,87.162803 L 960.37729,81.754494 L 961.11899,81.839469 L 961.80409,87.518384 L 961.17079,87.445848 L 961.02749,86.191659 M 960.91899,85.247147 L 960.66719,82.964367 L 959.94709,85.1358 L 960.91899,85.247147 M 964.50359,85.795567 L 965.18189,86.045034 C 965.06949,86.661998 964.88729,87.123574 964.63479,87.429804 C 964.38179,87.733507 964.07899,87.866189 963.72669,87.82782 C 963.32919,87.784727 963.01249,87.543949 962.77589,87.105534 C 962.54059,86.667309 962.41109,86.054633 962.38709,85.267535 C 962.36789,84.628632 962.42499,84.052758 962.55829,83.539929 C 962.69229,83.024773 962.88859,82.641001 963.14549,82.388782 C 963.40259,82.136544 963.68799,82.02738 964.00039,82.061429 C 964.35229,82.09955 964.64089,82.294014 964.86779,82.644701 C 965.09459,82.992829 965.23559,83.450102 965.29069,84.016516 L 964.65409,84.054335 C 964.60909,83.723347 964.53319,83.479512 964.42699,83.322765 C 964.32219,83.163635 964.18549,83.074947 964.01759,83.056622 C 963.83329,83.03657 963.66289,83.114971 963.50829,83.291682 C 963.35499,83.468563 963.23649,83.758807 963.15279,84.162404 C 963.06929,84.563438 963.03349,84.969699 963.04599,85.38114 C 963.05949,85.830934 963.13209,86.185212 963.26329,86.444037 C 963.39609,86.703007 963.55579,86.842566 963.74159,86.862791 C 963.91399,86.881589 964.06919,86.801614 964.20649,86.62294 C 964.34529,86.444433 964.44429,86.168652 964.50359,85.795567 M 965.46149,87.914375 L 965.96449,82.365011 L 966.63049,82.434836 L 966.12999,87.984413 L 965.46149,87.914375 M 966.88569,85.86706 C 966.87519,85.534706 966.89199,85.187435 966.93819,84.825054 C 966.99699,84.339314 967.09729,83.922664 967.23899,83.575113 C 967.38189,83.227748 967.56709,82.961103 967.79509,82.775104 C 968.02239,82.586615 968.28609,82.507441 968.58619,82.537573 C 968.98739,82.578054 969.31799,82.826727 969.57829,83.28361 C 969.84089,83.740564 969.98339,84.325686 970.00659,85.038906 C 970.02629,85.63194 969.96459,86.197736 969.82139,86.736288 C 969.67889,87.274786 969.47499,87.679627 969.20859,87.950928 C 968.94239,88.222216 968.63539,88.340275 968.28689,88.305206 C 967.98459,88.274698 967.72689,88.130253 967.51439,87.871799 C 967.30109,87.613426 967.14619,87.304805 967.04919,86.94595 C 966.95239,86.584531 966.89769,86.224917 966.88569,85.86706 M 967.54459,85.910531 C 967.55769,86.296481 967.63579,86.626735 967.78019,86.901156 C 967.92419,87.175606 968.10709,87.323959 968.32859,87.346262 C 968.50829,87.364431 968.67809,87.279527 968.83649,87.091696 C 968.99639,86.90145 969.12339,86.603417 969.21729,86.19761 C 969.31269,85.789391 969.35389,85.387165 969.34139,84.99089 C 969.32659,84.548687 969.24669,84.195379 969.10159,83.931 C 968.95589,83.664113 968.77659,83.519984 968.56429,83.498538 C 968.23819,83.465681 967.98159,83.70217 967.79369,84.2081 C 967.60709,84.714193 967.52389,85.281692 967.54459,85.910531 M 972.86529,88.651784 L 972.24299,88.592522 L 971.23619,84.731328 L 970.91129,88.465422 L 970.28929,88.40614 L 970.77249,82.848372 L 971.39649,82.907889 L 972.40489,86.753966 L 972.72849,83.034969 L 973.34789,83.094079 L 972.86529,88.651784 M 975.62599,87.665043 L 974.34069,87.548842 L 973.99589,88.756465 L 973.31059,88.694426 L 974.94099,83.237024 L 975.68179,83.30405 L 976.41229,88.974807 L 975.77939,88.917621 L 975.62599,87.665043 M 975.50999,86.72175 L 975.24039,84.441626 L 974.53919,86.633919 L 975.50999,86.72175 M 976.83939,89.011796 L 977.30639,83.446326 L 977.97229,83.503584 L 977.58469,88.139107 L 979.23459,88.281076 L 979.15729,89.211234 L 976.83939,89.011796 M 980.77989,89.346627 L 981.23579,83.776173 L 982.10919,83.846148 C 982.35289,83.865583 982.50859,83.884441 982.57709,83.902639 C 982.71189,83.936451 982.83299,83.993351 982.94049,84.073348 C 983.04989,84.153443 983.14979,84.262146 983.23979,84.399505 C 983.33179,84.534379 983.41279,84.695052 983.48209,84.881607 C 983.55259,85.06831 983.60919,85.281986 983.65279,85.522558 C 983.69579,85.760634 983.72359,86.02028 983.73449,86.301663 C 983.75829,86.907913 983.71269,87.440966 983.59739,87.900861 C 983.48329,88.358328 983.33019,88.717143 983.13939,88.977207 C 982.99329,89.179651 982.79949,89.322272 982.55879,89.404989 C 982.42269,89.450144 982.21069,89.46122 981.92299,89.438217 L 980.77989,89.346627 M 981.51999,88.503318 L 981.85829,88.530422 C 982.10299,88.550029 982.27949,88.538559 982.38589,88.496202 C 982.49459,88.451326 982.59189,88.360907 982.67749,88.224995 C 982.80089,88.028278 982.90039,87.760896 982.97619,87.42282 C 983.05289,87.084661 983.08179,86.681552 983.06309,86.213466 C 983.04749,85.814411 982.99789,85.512144 982.91439,85.306642 C 982.83299,85.098638 982.73639,84.957014 982.62439,84.88179 C 982.54589,84.829607 982.40859,84.795677 982.21239,84.779975 L 981.82559,84.748956 L 981.51999,88.503318 M 984.04209,89.6068 L 984.48769,84.032679 L 986.89159,84.214952 L 986.81729,85.146541 L 985.08149,85.014897 L 984.97929,86.280945 L 986.65779,86.408224 L 986.58309,87.33985 L 984.90519,87.212521 L 984.76419,88.724361 L 986.65029,88.867426 L 986.57389,89.79884 L 984.04209,89.6068 M 988.34639,88.111 L 988.97819,88.098054 C 989.00179,88.449229 989.04669,88.688313 989.11249,88.815366 C 989.21799,89.021801 989.40259,89.134178 989.66459,89.152648 C 989.88239,89.168022 990.03719,89.111311 990.12869,88.982536 C 990.22049,88.853743 990.26159,88.693465 990.25379,88.501543 C 990.24659,88.335246 990.20069,88.191726 990.11589,88.071021 C 990.05629,87.982654 989.89709,87.834879 989.63639,87.627882 C 989.37799,87.420908 989.18769,87.250668 989.06579,87.117109 C 988.94519,86.981122 988.84779,86.809699 988.77249,86.602934 C 988.69819,86.396092 988.65459,86.157118 988.64279,85.885931 C 988.62239,85.412611 988.70479,85.026763 988.88829,84.728569 C 989.07249,84.43031 989.35179,84.294338 989.72629,84.320632 C 990.10619,84.347413 990.40689,84.52288 990.62819,84.847042 C 990.85089,85.171328 990.98359,85.591332 991.02569,86.107099 L 990.38959,86.112004 C 990.36139,85.842262 990.29699,85.632322 990.19499,85.482311 C 990.09279,85.332326 989.94869,85.250697 989.76109,85.237572 C 989.57669,85.224638 989.44769,85.271605 989.37299,85.378576 C 989.29929,85.4857 989.26669,85.624926 989.27389,85.79635 C 989.28039,85.957585 989.32229,86.093164 989.39909,86.203123 C 989.47629,86.315625 989.64189,86.474049 989.89809,86.678173 C 990.28299,86.983256 990.52959,87.226411 990.63839,87.407571 C 990.80149,87.674074 990.89169,88.008154 990.90909,88.40983 C 990.92999,88.906222 990.83519,89.322916 990.62269,89.660103 C 990.41229,89.994759 990.10519,90.147888 989.70169,90.119466 C 989.42329,90.099863 989.17809,90.002274 988.96629,89.826686 C 988.75559,89.648663 988.60219,89.412135 988.50599,89.117095 C 988.40979,88.822058 988.35619,88.486731 988.34639,88.111 M 991.45919,87.946196 C 991.44469,87.613539 991.45799,87.26488 991.49919,86.900222 C 991.55219,86.411387 991.64749,85.990356 991.78509,85.637118 C 991.92319,85.284083 992.10529,85.01036 992.32989,84.8161 C 992.55509,84.619212 992.81679,84.530719 993.11629,84.550494 C 993.51659,84.577106 993.84979,84.814725 994.11519,85.263433 C 994.38189,85.712264 994.53079,86.293656 994.56269,87.007514 C 994.58839,87.601209 994.53409,88.170278 994.39789,88.714896 C 994.26209,89.259496 994.06229,89.67241 993.80019,89.953512 C 993.53799,90.23463 993.23329,90.363635 992.88549,90.340607 C 992.58329,90.320607 992.32449,90.184839 992.10899,89.933324 C 991.89409,89.681751 991.73549,89.377923 991.63439,89.021716 C 991.53389,88.662878 991.47539,88.30439 991.45919,87.946196 M 992.11709,87.966777 C 992.13399,88.353175 992.21599,88.681354 992.36299,88.951343 C 992.51069,89.221263 992.69419,89.36362 992.91569,89.378218 C 993.09529,89.390138 993.26299,89.299237 993.41879,89.105479 C 993.57669,88.909198 993.69999,88.606103 993.78879,88.196174 C 993.87959,87.783733 993.91569,87.37925 993.89829,86.98263 C 993.87859,86.539981 993.79459,86.188745 993.64669,85.928878 C 993.49829,85.666508 993.31849,85.528236 993.10569,85.51423 C 992.78039,85.492628 992.52659,85.738639 992.34499,86.252172 C 992.16489,86.765825 992.08929,87.337318 992.11709,87.966777 M 994.85749,90.370343 L 995.27969,84.785547 L 997.54709,84.927147 L 997.47509,85.860378 L 995.87559,85.760414 L 995.77289,87.101405 L 997.34199,87.19939 L 997.27229,88.132745 L 995.70309,88.034773 L 995.52469,90.412046 L 994.85749,90.370343 M 999.04409,90.626602 L 998.37669,90.5871 L 998.72389,85.933535 L 997.77389,85.877277 L 997.84279,84.943456 L 1000.3947,85.09456 L 1000.3261,86.028339 L 999.38889,85.972923 L 999.04409,90.626602 M 1003.4802,90.877694 L 1002.8063,90.84044 L 1002.5365,86.720989 L 1001.5538,90.771151 L 1000.867,90.733129 L 1000.4763,85.098413 L 1001.1277,85.134492 L 1001.3447,89.074915 L 1002.268,85.197498 L 1002.9902,85.237471 L 1003.2513,89.138262 L 1004.1323,85.300649 L 1004.7772,85.336335 L 1003.4802,90.877694 M 1006.4778,89.792769 L 1005.1951,89.72698 L 1004.8673,90.95102 L 1004.1824,90.915964 L 1005.7367,85.381355 L 1006.4765,85.419277 L 1007.2791,91.074582 L 1006.6478,91.042187 L 1006.4778,89.792769 M 1006.3502,88.851778 L 1006.0515,86.576936 L 1005.3808,88.802089 L 1006.3502,88.851778 M 1008.3658,91.127183 L 1007.6996,91.095349 L 1008.0936,85.498966 L 1009.5311,85.567475 C 1009.7783,85.57929 1009.9728,85.633228 1010.1141,85.72934 C 1010.2569,85.822975 1010.3766,85.98948 1010.4719,86.229022 C 1010.5692,86.468572 1010.6265,86.755989 1010.6437,87.091274 C 1010.6677,87.569951 1010.6048,87.961517 1010.4559,88.265924 C 1010.3065,88.56779 1010.0667,88.747875 1009.7363,88.806173 C 1009.8281,88.943367 1009.9173,89.122527 1010.0033,89.343675 C 1010.1744,89.791002 1010.371,90.420919 1010.5943,91.233339 L 1009.8787,91.199252 C 1009.8053,90.87912 1009.6678,90.37844 1009.4657,89.697287 C 1009.3562,89.32946 1009.2466,89.080393 1009.1376,88.950026 C 1009.0708,88.872752 1008.9585,88.830374 1008.8008,88.822877 L 1008.529,88.809962 L 1008.3658,91.127183 M 1008.588,87.970107 L 1008.9413,87.986956 C 1009.2992,88.00398 1009.5343,87.978169 1009.6467,87.909496 C 1009.7613,87.840829 1009.8472,87.728769 1009.9054,87.57323 C 1009.9636,87.417686 1009.9883,87.252905 1009.9798,87.078807 C 1009.9689,86.874103 1009.9138,86.718195 1009.8131,86.611228 C 1009.7506,86.547046 1009.6221,86.510224 1009.4262,86.50089 L 1008.6932,86.465942 L 1008.588,87.970107 M 1010.9527,91.249644 L 1011.3391,85.650478 L 1013.7389,85.756771 L 1013.6749,86.692499 L 1011.9414,86.615785 L 1011.853,87.887532 L 1013.5287,87.961739 L 1013.4643,88.897503 L 1011.7886,88.823299 L 1011.6641,90.342514 L 1013.5471,90.425929 L 1013.4808,91.361571 L 1010.9527,91.249644 M 1015.2536,91.436092 L 1015.6332,85.833783 L 1016.2976,85.860307 L 1015.9833,90.526373 L 1017.63,90.592108 L 1017.567,91.528411 L 1015.2536,91.436092 M 1017.9676,91.543284 L 1018.3433,85.939398 L 1019.0077,85.964511 L 1018.6343,91.568475 L 1017.9676,91.543284 M 1019.2408,91.592135 L 1019.6117,85.98653 L 1020.7169,86.025783 C 1020.9573,86.034238 1021.1253,86.05303 1021.2229,86.081956 C 1021.3832,86.12607 1021.5223,86.20762 1021.6387,86.326752 C 1021.7558,86.445829 1021.8478,86.602426 1021.9155,86.796473 C 1021.9833,86.99053 1022.0236,87.204028 1022.0362,87.437007 C 1022.0537,87.749292 1022.0182,88.018904 1021.9302,88.245821 C 1021.8431,88.470066 1021.6975,88.637441 1021.4956,88.747733 C 1021.6656,88.833057 1021.8028,88.979728 1021.9068,89.187808 C 1022.0119,89.3934 1022.0714,89.624208 1022.0853,89.88022 C 1022.104,90.218118 1022.0664,90.537456 1021.9726,90.838188 C 1021.8788,91.136358 1021.738,91.348601 1021.5513,91.474815 C 1021.3644,91.601045 1021.1026,91.65817 1020.7649,91.646295 L 1019.2408,91.592135 M 1020.126,88.273758 L 1020.6336,88.291751 C 1020.8612,88.299886 1021.024,88.277513 1021.1212,88.224716 C 1021.2183,88.17193 1021.2882,88.082445 1021.3308,87.956254 C 1021.3742,87.829995 1021.3921,87.693885 1021.3838,87.54799 C 1021.376,87.404625 1021.3463,87.286006 1021.2937,87.192212 C 1021.2418,87.098373 1021.1716,87.03454 1021.083,87.000752 C 1021.034,86.98364 1020.9163,86.971841 1020.7308,86.965264 L 1020.2145,86.946941 L 1020.126,88.273758 M 1019.9656,90.713377 L 1020.6078,90.736152 C 1020.8775,90.745659 1021.0561,90.722612 1021.144,90.666976 C 1021.233,90.608848 1021.3014,90.511594 1021.348,90.375311 C 1021.3962,90.239064 1021.4162,90.094126 1021.4084,89.940473 C 1021.398,89.753611 1021.3501,89.598577 1021.264,89.475445 C 1021.1777,89.349759 1021.0421,89.283605 1020.8569,89.277017 L 1020.0625,89.248824 L 1019.9656,90.713377 M 1023.1982,91.729632 L 1022.5319,91.70823 L 1022.8964,86.100138 L 1024.3332,86.146214 C 1024.58,86.154174 1024.7748,86.20511 1024.9163,86.299133 C 1025.0597,86.390594 1025.1794,86.555485 1025.2763,86.793707 C 1025.3746,87.032003 1025.4336,87.318786 1025.4521,87.654177 C 1025.4788,88.132926 1025.418,88.525865 1025.2711,88.832873 C 1025.1228,89.137443 1024.8847,89.321397 1024.5548,89.384933 C 1024.6476,89.520793 1024.737,89.698787 1024.8246,89.91876 C 1024.9973,90.363918 1025.1972,90.991378 1025.4243,91.801128 L 1024.7093,91.778184 C 1024.6349,91.458815 1024.4947,90.959819 1024.2894,90.281138 C 1024.1782,89.914637 1024.0674,89.667039 1023.9573,89.538295 C 1023.8905,89.46196 1023.7778,89.42133 1023.6203,89.416289 L 1023.3492,89.407543 L 1023.1982,91.729632 M 1023.4037,88.565951 L 1023.7565,88.577311 C 1024.1139,88.588791 1024.3487,88.559259 1024.4609,88.488733 C 1024.5744,88.418283 1024.66,88.304731 1024.7174,88.148108 C 1024.7749,87.991494 1024.7989,87.826137 1024.7889,87.652069 C 1024.7776,87.447256 1024.721,87.292133 1024.6201,87.186612 C 1024.5573,87.123337 1024.4286,87.088509 1024.2333,87.082185 L 1023.5005,87.058694 L 1023.4037,88.565951 M 1025.7869,91.811962 L 1026.144,86.20133 L 1028.5417,86.27058 L 1028.4825,87.208231 L 1026.7505,87.158266 L 1026.6685,88.432666 L 1028.343,88.480986 L 1028.2836,89.418659 L 1026.6092,89.370324 L 1026.4927,90.892962 L 1028.3746,90.947265 L 1028.3135,91.88481 L 1025.7869,91.811962"
         style="font-size:6.49203825px;font-style:italic;font-variant:normal;font-weight:bold;font-stretch:normal;text-align:center;line-height:125%;writing-mode:lr-tb;text-anchor:middle;fill:#000000;fill-opacity:1;stroke:none;stroke-width:1px;stroke-linecap:butt;stroke-linejoin:miter;stroke-opacity:1;font-family:Arial" />
    </g>
    <rect
       ry="7.3735819"
       rx="15.554818"
       y="699.84656"
       x="-17.426865"
       height="58.049042"
       width="1104.9319"
       id="rect3820"
       style="fill:#d38d5f;fill-opacity:1;stroke:#000000;stroke-width:1;stroke-miterlimit:4;stroke-dasharray:none;stroke-opacity:1" />
    <path
       id="path3822"
       d="M 373.03,656.48648 C 395.90811,642.37311 425.69937,629.3298 451.86344,642.58538 C 466.334,649.37562 475.65814,672.5021 460.2928,683.21081 C 449.18648,694.55932 428.36705,683.74015 433.8759,667.901 C 439.76966,648.61347 460.60574,638.10071 478.91405,633.50378 C 506.39245,627.1674 541.86972,637.06528 553.41238,664.87747 C 561.12879,679.22065 545.44627,693.90551 531.24485,688.71891 C 513.95917,681.61462 523.85995,656.39521 536.3055,649.00897 C 553.28617,638.31512 574.52204,635.85212 594.22874,635.79883"
       style="fill:none;fill-rule:evenodd;stroke:#000000;stroke-width:1px;stroke-linecap:butt;stroke-linejoin:miter;stroke-opacity:1" />
    <path
       id="path3824"
       d="M 605.48884,635.33341 C 626.37936,635.5305 648.64942,602.6181 648.64942,602.6181 C 666.3866,619.9611 680.77346,629.81513 680.77346,629.81513 C 649.83185,656.61802 616.13119,662.92459 616.13119,662.92459 C 620.66406,648.93191 605.29175,634.93923 605.48884,635.33341 z"
       style="fill:#ffffff;fill-rule:evenodd;stroke:#000000;stroke-width:0.79183667999999996px;stroke-linecap:butt;stroke-linejoin:miter;stroke-opacity:1" />
    <path
       id="path3826"
       d="M 705.07172,677.06665 C 724.6896,690.12919 774.90643,690.34478 765.26999,656.21795 C 741.76712,628.62418 721.94973,681.99575 752.7576,688.88856 C 782.01598,695.99001 820.30681,687.83175 836.87453,660.65937 C 850.64305,625.40883 787.1169,632.64722 805.11319,665.71426 C 816.55183,695.13508 848.95043,676.72329 865.51378,663.18566 C 871.19534,658.59053 876.46224,653.51149 881.60448,648.32801"
       style="fill:none;fill-rule:evenodd;stroke:#000000;stroke-width:1px;stroke-linecap:butt;stroke-linejoin:miter;stroke-opacity:1" />
    <g
       transform="translate(0,390)"
       id="g3906">
      <path
         id="path3908"
         d="M 825.46568,233.20394 C 895.17254,192.41268 892.27873,55.699815 892.27873,55.699815 C 991.49819,69.40917 1062.1558,68.670561 1062.1558,68.670561 C 1022.065,205.34993 925.05412,289.80025 925.05412,289.80025 C 907.46445,241.44456 823.89365,232.4846 825.46568,233.20394 z"
         style="fill:#000000;fill-rule:evenodd;stroke:#000000;stroke-width:2.95675731px;stroke-linecap:butt;stroke-linejoin:miter;stroke-opacity:1" />
      <path
         style="fill:#ffffff;fill-rule:evenodd;stroke:none;stroke-width:1px;stroke-linecap:butt;stroke-linejoin:miter;stroke-opacity:1"
         d="M 898.68552,126.19462 C 932.09008,161.43772 920.59389,162.11201 894.30432,173.98707 C 889.2979,177.90493 866.84134,197.88411 886.24688,187.3742 C 908.52447,169.66684 930.54039,163.11963 947.35207,186.40984 C 966.62318,201.06184 975.98937,218.94192 957.75071,187.88578 C 945.32056,171.20463 932.8235,165.22034 953.58636,148.74304 C 986.97851,140.20997 996.60645,122.90551 988.1786,116.33359 C 966.58048,127.89294 937.99036,167.0622 921.70435,139.06824 C 889.38069,94.141518 885.57775,106.00327 898.68552,126.19462 z"
         id="path3910"
         sodipodi:nodetypes="ccccccccc" />
      <text
         xml:space="preserve"
         style="font-size:6.88843155px;font-style:normal;font-variant:normal;font-weight:bold;font-stretch:normal;text-align:center;line-height:125%;writing-mode:lr-tb;text-anchor:middle;fill:#ff6600;fill-opacity:1;stroke:none;stroke-width:1px;stroke-linecap:butt;stroke-linejoin:miter;stroke-opacity:1;font-family:Orange"
         x="962.0849"
         y="159.04645"
         id="text3912"
         sodipodi:linespacing="125%"
         transform="matrix(1,0,-0.3945736,1,0,0)"><tspan
           sodipodi:role="line"
           id="tspan3914"
           x="962.0849"
           y="159.04645"
           dx="0 0.9574393 1.2765857 1.5957321">2007</tspan></text>
      <g
         id="g3916"
         transform="matrix(1.2348262,0.1014647,-0.2669131,1.2128944,-127.72681,-70.353915)">
        <rect
           ry="0"
           rx="0"
           y="111.06116"
           x="874.93359"
           height="10.491964"
           width="73.726143"
           id="rect3918"
           style="fill:#ff6600;fill-opacity:1;fill-rule:nonzero;stroke:#ffffff;stroke-width:0.65833199;stroke-miterlimit:4;stroke-dasharray:none;stroke-opacity:1" />
        <rect
           style="fill:#000000;fill-opacity:1;fill-rule:nonzero;stroke:none;stroke-width:0.46902761;stroke-miterlimit:4;stroke-dasharray:none;stroke-opacity:1"
           id="rect3920"
           width="36.269432"
           height="9.8291407"
           x="875.10522"
           y="111.39257"
           rx="0"
           ry="0" />
        <text
           transform="scale(1.118722,0.8938771)"
           sodipodi:linespacing="125%"
           id="text3922"
           y="134.19862"
           x="798.54926"
           style="font-size:10.72652531px;font-style:normal;font-variant:normal;font-weight:normal;font-stretch:normal;text-align:center;line-height:125%;writing-mode:lr-tb;text-anchor:middle;fill:#ffffff;fill-opacity:1;stroke:none;stroke-width:1px;stroke-linecap:butt;stroke-linejoin:miter;stroke-opacity:1;font-family:Arial"
           xml:space="preserve"><tspan
             y="134.19862"
             x="798.54926"
             id="tspan3924"
             sodipodi:role="line">HISPA</tspan></text>
        <text
           transform="scale(1.118722,0.8938771)"
           sodipodi:linespacing="125%"
           id="text3926"
           y="134.13315"
           x="830.08197"
           style="font-size:10.72652531px;font-style:normal;font-variant:normal;font-weight:normal;font-stretch:normal;text-align:center;line-height:125%;writing-mode:lr-tb;text-anchor:middle;fill:#000000;fill-opacity:1;stroke:none;stroke-width:1px;stroke-linecap:butt;stroke-linejoin:miter;stroke-opacity:1;font-family:Arial"
           xml:space="preserve"><tspan
             y="134.13315"
             x="830.08197"
             id="tspan3928"
             sodipodi:role="line">LINUX</tspan></text>
      </g>
      <path
         style="fill:#ff6600;fill-rule:evenodd;stroke:#000000;stroke-width:1px;stroke-linecap:butt;stroke-linejoin:miter;stroke-opacity:1"
         d="M 892.27344,62.148438 C 892.19327,67.038061 891.90479,74.43182 891.21094,83.585938 C 908.68135,88.69668 958.74799,100.72838 1050.4297,103.30469 C 1053.2249,96.023313 1055.8851,88.565232 1058.3672,80.929688 C 1034.8598,80.02139 974.49739,76.403024 892.27344,62.148438 z"
         id="path3930" />
      <path
         id="path3932"
         d="M 901.63342,69.146679 C 903.32305,71.306337 904.48955,74.631521 901.06224,76.179627 C 900.40958,76.690393 897.48206,79.294989 900.01182,77.924883 C 902.91611,75.616434 906.72028,75.026119 908.91195,78.062365 C 910.00939,79.051215 913.89562,82.270557 911.71533,78.945757 C 910.09486,76.771105 908.11647,73.510426 911.74458,71.823025 C 912.67576,70.776412 917.28711,67.434628 913.78644,69.045659 C 910.97078,70.552627 907.54715,72.401497 904.70012,70.43011 C 903.67786,70.002297 902.65568,69.574486 901.63342,69.146679 z"
         style="fill:#ffffff;fill-rule:evenodd;stroke:none;stroke-width:1px;stroke-linecap:butt;stroke-linejoin:miter;stroke-opacity:1" />
      <path
         style="font-size:6.49203825px;font-style:italic;font-variant:normal;font-weight:bold;font-stretch:normal;text-align:center;line-height:125%;writing-mode:lr-tb;text-anchor:middle;fill:#000000;fill-opacity:1;stroke:none;stroke-width:1px;stroke-linecap:butt;stroke-linejoin:miter;stroke-opacity:1;font-family:Arial"
         d="M 916.67708,77.949728 L 917.34745,78.293846 C 917.20482,78.88659 916.99902,79.315871 916.73012,79.581691 C 916.46129,79.844965 916.15038,79.932235 915.7974,79.8435 C 915.4,79.743633 915.09273,79.460259 914.87558,78.993384 C 914.65989,78.526888 914.55906,77.903462 914.57302,77.123124 C 914.58437,76.489732 914.66936,75.929561 914.82792,75.442604 C 914.98803,74.9535 915.20357,74.603005 915.47444,74.391137 C 915.74532,74.179279 916.0373,74.112702 916.35046,74.191409 C 916.70205,74.279767 916.98348,74.513391 917.19482,74.892257 C 917.40615,75.268609 917.52605,75.740296 917.55448,76.307333 L 916.91225,76.252791 C 916.88256,75.919591 916.8181,75.66797 916.71878,75.497938 C 916.62095,75.325748 916.48785,75.21849 916.31949,75.176155 C 916.13479,75.129753 915.96029,75.182592 915.79579,75.334676 C 915.63284,75.487125 915.49968,75.756509 915.3963,76.142806 C 915.29297,76.526585 915.23767,76.922422 915.23032,77.33033 C 915.22236,77.776237 915.2782,78.136398 915.39792,78.410809 C 915.51916,78.685587 915.67277,78.846373 915.85888,78.893154 C 916.03171,78.936587 916.19152,78.880035 916.33821,78.723505 C 916.48644,78.567336 916.5994,78.309407 916.67708,77.949728 M 917.805,78.047282 C 917.80896,77.717459 917.84198,77.376612 917.90404,77.024749 C 917.9853,76.552724 918.10494,76.154561 918.26292,75.830261 C 918.42246,75.506307 918.62091,75.267809 918.85831,75.114768 C 919.09579,74.959193 919.36453,74.916511 919.66446,74.986735 C 920.06634,75.080837 920.388,75.371166 920.62959,75.857708 C 920.87263,76.344609 920.98989,76.941991 920.98136,77.649854 C 920.97423,78.238478 920.88681,78.789213 920.71916,79.302068 C 920.55142,79.814924 920.32762,80.187434 920.04779,80.419583 C 919.76789,80.651744 919.45358,80.727004 919.1049,80.645361 C 918.802,80.57444 918.5493,80.396963 918.34679,80.11292 C 918.1443,79.828876 918.00226,79.503033 917.92076,79.135376 C 917.83927,78.765188 917.8007,78.40249 917.805,78.047282 M 918.46569,78.17909 C 918.46112,78.562198 918.52518,78.899063 918.65799,79.189673 C 918.79076,79.480298 918.968,79.651548 919.18966,79.703434 C 919.36987,79.745643 919.54398,79.684633 919.71192,79.520404 C 919.88131,79.353989 920.02248,79.076629 920.13537,78.688317 C 920.24973,78.297825 920.30926,77.905953 920.31402,77.512689 C 920.31929,77.07377 920.25478,76.713894 920.12036,76.433077 C 919.98597,76.149736 919.81241,75.983151 919.59967,75.933326 C 919.27314,75.856883 919.00403,76.055937 918.79235,76.530504 C 918.58212,77.005418 918.47328,77.554944 918.46569,78.17909 M 923.6953,81.576479 L 923.07244,81.440212 L 922.22053,77.495114 L 921.73807,81.14828 L 921.11524,81.012012 L 921.83191,75.574629 L 922.45695,75.711384 L 923.31128,79.641722 L 923.79138,76.003313 L 924.41202,76.139092 L 923.6953,81.576479 M 926.19259,79.10777 L 927.6467,79.405861 L 927.34877,81.744873 C 927.17697,81.900431 926.96599,82.018722 926.71598,82.09974 C 926.46737,82.181073 926.21382,82.195226 925.95518,82.142206 C 925.55321,82.059813 925.24546,81.840277 925.03186,81.483604 C 924.74019,80.996462 924.59526,80.347337 924.59704,79.53623 C 924.59829,78.992102 924.6622,78.483739 924.78891,78.011129 C 924.94103,77.441961 925.15632,77.020581 925.43488,76.746982 C 925.71345,76.473395 926.0404,76.375068 926.41577,76.452007 C 926.79114,76.528957 927.09155,76.740619 927.31695,77.087 C 927.54388,77.433687 927.69366,77.901922 927.76626,78.491702 L 927.14311,78.486067 C 927.08911,78.159576 927.00098,77.903656 926.8787,77.718325 C 926.75783,77.533305 926.60511,77.421848 926.42038,77.383976 C 926.20458,77.339761 926.00638,77.395787 925.82566,77.552059 C 925.64488,77.70836 925.50313,77.978183 925.40022,78.361567 C 925.29742,78.744937 925.2454,79.175647 925.24439,79.653658 C 925.24331,80.12405 925.30462,80.485118 925.42831,80.736849 C 925.55189,80.986058 925.73342,81.135198 925.97284,81.18427 C 926.11618,81.213652 926.26328,81.209473 926.41417,81.171718 C 926.56509,81.131423 926.69528,81.074176 926.8049,80.999967 L 926.90646,80.188972 L 926.07742,80.01902 L 926.19259,79.10777 M 928.58867,82.574481 L 927.91917,82.445634 L 928.58849,76.980632 L 930.03155,77.258395 C 930.27986,77.306187 930.4728,77.387839 930.61041,77.503357 C 930.74947,77.616624 930.86142,77.798413 930.94608,78.048745 C 931.03229,78.29937 931.07569,78.591363 931.07635,78.924728 C 931.07732,79.4006 930.99535,79.777848 930.83049,80.056446 C 930.66558,80.332508 930.41545,80.475159 930.08013,80.484387 C 930.16614,80.633214 930.24705,80.82303 930.32285,81.053841 C 930.47295,81.520274 930.64042,82.170658 930.8253,83.004995 L 930.10712,82.866751 C 930.04884,82.540099 929.93477,82.025931 929.76495,81.324231 C 929.67262,80.945229 929.57463,80.68343 929.47094,80.538821 C 929.40721,80.452795 929.2963,80.394562 929.1382,80.364122 L 928.86552,80.311644 L 928.58867,82.574481 M 928.96578,79.491492 L 929.32051,79.559752 C 929.6796,79.62888 929.91745,79.637777 930.03406,79.586446 C 930.15211,79.535406 930.24423,79.437394 930.31039,79.292421 C 930.37661,79.147446 930.4095,78.988439 930.40922,78.815382 C 930.40873,78.611812 930.36046,78.449869 930.26421,78.329588 C 930.20493,78.257144 930.07706,78.202 929.88052,78.164158 L 929.14452,78.022512 L 928.96578,79.491492 M 931.18681,83.071591 L 931.83378,77.595221 L 934.24323,78.033423 L 934.13545,78.948701 L 932.39539,78.632242 L 932.24737,79.875994 L 933.92976,80.181967 L 933.82198,81.097237 L 932.13952,80.791271 L 931.94408,82.274437 L 933.83489,82.618306 L 933.72481,83.533184 L 931.18681,83.071591 M 934.30553,81.823294 L 934.94111,81.87567 C 934.95308,82.226256 934.98984,82.467935 935.05151,82.600678 C 935.15074,82.816239 935.33189,82.946697 935.59496,82.992049 C 935.81363,83.029762 935.97113,82.989513 936.06746,82.871285 C 936.16384,82.753067 936.21115,82.59841 936.20951,82.407312 C 936.20803,82.241697 936.16693,82.09468 936.0861,81.96627 C 936.02922,81.872499 935.87363,81.709556 935.6193,81.477437 C 935.36646,81.245575 935.18112,81.057151 935.06329,80.912168 C 934.94686,80.764906 934.85455,80.584896 934.78635,80.372131 C 934.71806,80.159382 934.68272,79.917974 934.68039,79.647887 C 934.67627,79.176525 934.77182,78.802496 934.96716,78.525784 C 935.16242,78.249091 935.4477,78.143106 935.82305,78.207817 C 936.20426,78.273569 936.5004,78.478555 936.71145,78.822778 C 936.92399,79.167264 937.04286,79.597357 937.06803,80.113052 L 936.42788,80.052273 C 936.40929,79.781943 936.3513,79.567153 936.25406,79.407897 C 936.15676,79.248654 936.01423,79.152853 935.8266,79.12049 C 935.64188,79.088643 935.5101,79.12189 935.43134,79.220231 C 935.35397,79.318836 935.3161,79.453492 935.3176,79.624201 C 935.31893,79.784729 935.3563,79.923461 935.42968,80.040406 C 935.50301,80.159906 935.66459,80.334059 935.91449,80.562867 C 936.29073,80.905064 936.53064,81.17158 936.63411,81.362422 C 936.78852,81.643463 936.86751,81.98399 936.87097,82.384015 C 936.87534,82.878309 936.76527,83.28164 936.54077,83.594012 C 936.31772,83.904097 936.00378,84.024217 935.59896,83.954401 C 935.31962,83.906243 935.07662,83.784185 934.86981,83.588249 C 934.66446,83.390024 934.51845,83.139676 934.43166,82.837247 C 934.34494,82.534806 934.30288,82.19682 934.30553,81.823294 M 937.43603,81.978688 C 937.43205,81.647291 937.45669,81.302738 937.50997,80.945029 C 937.57941,80.465308 937.68884,80.056967 937.83821,79.720012 C 937.98901,79.383308 938.18064,79.12958 938.41306,78.958831 C 938.64545,78.785545 938.91162,78.723339 939.21152,78.772231 C 939.61345,78.837743 939.94033,79.106026 940.19221,79.577074 C 940.4456,80.048364 940.5765,80.639632 940.58496,81.35088 C 940.59204,81.942317 940.51835,82.501505 940.36386,83.028441 C 940.20944,83.555385 939.99582,83.945467 939.72308,84.198699 C 939.45037,84.451925 939.13964,84.550116 938.79095,84.493275 C 938.48807,84.443903 938.23251,84.283933 938.02434,84.013365 C 937.81613,83.74281 937.66707,83.42592 937.57723,83.062696 C 937.48734,82.696931 937.44026,82.335592 937.43603,81.978688 M 938.09617,82.063411 C 938.10076,82.448358 938.17258,82.781915 938.31158,83.064104 C 938.45063,83.346284 938.63096,83.505441 938.85258,83.541565 C 939.03288,83.57095 939.20452,83.497164 939.36756,83.320193 C 939.53205,83.140918 939.66571,82.852307 939.76862,82.454361 C 939.87296,82.054103 939.92278,81.656401 939.91813,81.26125 C 939.91284,80.82023 939.84002,80.463609 939.69962,80.19138 C 939.55919,79.916606 939.3826,79.761875 939.16987,79.727184 C 938.84331,79.673957 938.5805,79.893184 938.38142,80.384853 C 938.18379,80.876772 938.0887,81.436291 938.09617,82.063411 M 942.00971,84.905256 L 942.60481,79.400734 L 943.27176,79.502967 L 942.67895,85.007816 L 942.00971,84.905256 M 945.89465,85.487703 L 945.27203,85.395798 L 944.33015,81.496683 L 943.93814,85.198897 L 943.31549,85.106994 L 943.89762,79.596693 L 944.52244,79.688934 L 945.46629,83.573061 L 945.85636,79.885823 L 946.47678,79.977401 L 945.89465,85.487703 M 947.99028,85.784506 L 947.32123,85.690536 L 947.79723,81.095804 L 946.84457,80.962012 L 946.93927,80.03994 L 949.49812,80.399304 L 949.40345,81.321371 L 948.46411,81.189455 L 947.99028,85.784506 M 949.3507,85.974621 L 949.90691,80.451415 L 952.31475,80.773963 L 952.22211,81.697048 L 950.48322,81.464111 L 950.35579,82.718554 L 952.03711,82.943774 L 951.94448,83.866862 L 950.26314,83.641647 L 950.09241,85.138469 L 951.98193,85.391582 L 951.88711,86.314369 L 949.3507,85.974621 M 953.06296,86.466374 L 952.3941,86.381228 L 952.93987,80.852136 L 954.38168,81.035673 C 954.62976,81.067252 954.82352,81.136473 954.96298,81.243325 C 955.10387,81.347824 955.21919,81.522898 955.309,81.768545 C 955.40019,82.014403 955.44988,82.304585 955.45784,82.639123 C 955.46924,83.116673 955.39601,83.500694 955.23805,83.7912 C 955.0801,84.079152 954.83437,84.238825 954.50098,84.270211 C 954.58979,84.41391 954.67444,84.599079 954.75493,84.825732 C 954.91455,85.283958 955.09548,85.92566 955.29777,86.750836 L 954.58013,86.659491 C 954.51496,86.3355 954.39025,85.826972 954.20585,85.133919 C 954.10564,84.759638 954.00236,84.503352 953.896,84.36506 C 953.83078,84.282922 953.71913,84.231794 953.56109,84.21169 L 953.28873,84.177005 L 953.06296,86.466374 M 953.37044,83.347241 L 953.72484,83.392356 C 954.0836,83.438031 954.32043,83.431263 954.43536,83.372047 C 954.55174,83.313022 954.64118,83.208587 954.70387,83.058701 C 954.76656,82.908835 954.79577,82.747071 954.79161,82.573418 C 954.78674,82.36912 954.73508,82.209785 954.63667,82.095419 C 954.57617,82.026611 954.44771,81.979714 954.25129,81.954715 L 953.51598,81.861114 L 953.37044,83.347241 M 958.25449,87.108838 L 957.63219,87.03371 L 956.65676,83.153666 L 956.29905,86.872742 L 955.67678,86.797606 L 956.2079,81.262256 L 956.83239,81.337657 L 957.80959,85.202641 L 958.16549,81.49863 L 958.78549,81.573496 L 958.25449,87.108838 M 961.02749,86.191659 L 959.74089,86.044309 L 959.38629,87.241416 L 958.69979,87.162803 L 960.37729,81.754494 L 961.11899,81.839469 L 961.80409,87.518384 L 961.17079,87.445848 L 961.02749,86.191659 M 960.91899,85.247147 L 960.66719,82.964367 L 959.94709,85.1358 L 960.91899,85.247147 M 964.50359,85.795567 L 965.18189,86.045034 C 965.06949,86.661998 964.88729,87.123574 964.63479,87.429804 C 964.38179,87.733507 964.07899,87.866189 963.72669,87.82782 C 963.32919,87.784727 963.01249,87.543949 962.77589,87.105534 C 962.54059,86.667309 962.41109,86.054633 962.38709,85.267535 C 962.36789,84.628632 962.42499,84.052758 962.55829,83.539929 C 962.69229,83.024773 962.88859,82.641001 963.14549,82.388782 C 963.40259,82.136544 963.68799,82.02738 964.00039,82.061429 C 964.35229,82.09955 964.64089,82.294014 964.86779,82.644701 C 965.09459,82.992829 965.23559,83.450102 965.29069,84.016516 L 964.65409,84.054335 C 964.60909,83.723347 964.53319,83.479512 964.42699,83.322765 C 964.32219,83.163635 964.18549,83.074947 964.01759,83.056622 C 963.83329,83.03657 963.66289,83.114971 963.50829,83.291682 C 963.35499,83.468563 963.23649,83.758807 963.15279,84.162404 C 963.06929,84.563438 963.03349,84.969699 963.04599,85.38114 C 963.05949,85.830934 963.13209,86.185212 963.26329,86.444037 C 963.39609,86.703007 963.55579,86.842566 963.74159,86.862791 C 963.91399,86.881589 964.06919,86.801614 964.20649,86.62294 C 964.34529,86.444433 964.44429,86.168652 964.50359,85.795567 M 965.46149,87.914375 L 965.96449,82.365011 L 966.63049,82.434836 L 966.12999,87.984413 L 965.46149,87.914375 M 966.88569,85.86706 C 966.87519,85.534706 966.89199,85.187435 966.93819,84.825054 C 966.99699,84.339314 967.09729,83.922664 967.23899,83.575113 C 967.38189,83.227748 967.56709,82.961103 967.79509,82.775104 C 968.02239,82.586615 968.28609,82.507441 968.58619,82.537573 C 968.98739,82.578054 969.31799,82.826727 969.57829,83.28361 C 969.84089,83.740564 969.98339,84.325686 970.00659,85.038906 C 970.02629,85.63194 969.96459,86.197736 969.82139,86.736288 C 969.67889,87.274786 969.47499,87.679627 969.20859,87.950928 C 968.94239,88.222216 968.63539,88.340275 968.28689,88.305206 C 967.98459,88.274698 967.72689,88.130253 967.51439,87.871799 C 967.30109,87.613426 967.14619,87.304805 967.04919,86.94595 C 966.95239,86.584531 966.89769,86.224917 966.88569,85.86706 M 967.54459,85.910531 C 967.55769,86.296481 967.63579,86.626735 967.78019,86.901156 C 967.92419,87.175606 968.10709,87.323959 968.32859,87.346262 C 968.50829,87.364431 968.67809,87.279527 968.83649,87.091696 C 968.99639,86.90145 969.12339,86.603417 969.21729,86.19761 C 969.31269,85.789391 969.35389,85.387165 969.34139,84.99089 C 969.32659,84.548687 969.24669,84.195379 969.10159,83.931 C 968.95589,83.664113 968.77659,83.519984 968.56429,83.498538 C 968.23819,83.465681 967.98159,83.70217 967.79369,84.2081 C 967.60709,84.714193 967.52389,85.281692 967.54459,85.910531 M 972.86529,88.651784 L 972.24299,88.592522 L 971.23619,84.731328 L 970.91129,88.465422 L 970.28929,88.40614 L 970.77249,82.848372 L 971.39649,82.907889 L 972.40489,86.753966 L 972.72849,83.034969 L 973.34789,83.094079 L 972.86529,88.651784 M 975.62599,87.665043 L 974.34069,87.548842 L 973.99589,88.756465 L 973.31059,88.694426 L 974.94099,83.237024 L 975.68179,83.30405 L 976.41229,88.974807 L 975.77939,88.917621 L 975.62599,87.665043 M 975.50999,86.72175 L 975.24039,84.441626 L 974.53919,86.633919 L 975.50999,86.72175 M 976.83939,89.011796 L 977.30639,83.446326 L 977.97229,83.503584 L 977.58469,88.139107 L 979.23459,88.281076 L 979.15729,89.211234 L 976.83939,89.011796 M 980.77989,89.346627 L 981.23579,83.776173 L 982.10919,83.846148 C 982.35289,83.865583 982.50859,83.884441 982.57709,83.902639 C 982.71189,83.936451 982.83299,83.993351 982.94049,84.073348 C 983.04989,84.153443 983.14979,84.262146 983.23979,84.399505 C 983.33179,84.534379 983.41279,84.695052 983.48209,84.881607 C 983.55259,85.06831 983.60919,85.281986 983.65279,85.522558 C 983.69579,85.760634 983.72359,86.02028 983.73449,86.301663 C 983.75829,86.907913 983.71269,87.440966 983.59739,87.900861 C 983.48329,88.358328 983.33019,88.717143 983.13939,88.977207 C 982.99329,89.179651 982.79949,89.322272 982.55879,89.404989 C 982.42269,89.450144 982.21069,89.46122 981.92299,89.438217 L 980.77989,89.346627 M 981.51999,88.503318 L 981.85829,88.530422 C 982.10299,88.550029 982.27949,88.538559 982.38589,88.496202 C 982.49459,88.451326 982.59189,88.360907 982.67749,88.224995 C 982.80089,88.028278 982.90039,87.760896 982.97619,87.42282 C 983.05289,87.084661 983.08179,86.681552 983.06309,86.213466 C 983.04749,85.814411 982.99789,85.512144 982.91439,85.306642 C 982.83299,85.098638 982.73639,84.957014 982.62439,84.88179 C 982.54589,84.829607 982.40859,84.795677 982.21239,84.779975 L 981.82559,84.748956 L 981.51999,88.503318 M 984.04209,89.6068 L 984.48769,84.032679 L 986.89159,84.214952 L 986.81729,85.146541 L 985.08149,85.014897 L 984.97929,86.280945 L 986.65779,86.408224 L 986.58309,87.33985 L 984.90519,87.212521 L 984.76419,88.724361 L 986.65029,88.867426 L 986.57389,89.79884 L 984.04209,89.6068 M 988.34639,88.111 L 988.97819,88.098054 C 989.00179,88.449229 989.04669,88.688313 989.11249,88.815366 C 989.21799,89.021801 989.40259,89.134178 989.66459,89.152648 C 989.88239,89.168022 990.03719,89.111311 990.12869,88.982536 C 990.22049,88.853743 990.26159,88.693465 990.25379,88.501543 C 990.24659,88.335246 990.20069,88.191726 990.11589,88.071021 C 990.05629,87.982654 989.89709,87.834879 989.63639,87.627882 C 989.37799,87.420908 989.18769,87.250668 989.06579,87.117109 C 988.94519,86.981122 988.84779,86.809699 988.77249,86.602934 C 988.69819,86.396092 988.65459,86.157118 988.64279,85.885931 C 988.62239,85.412611 988.70479,85.026763 988.88829,84.728569 C 989.07249,84.43031 989.35179,84.294338 989.72629,84.320632 C 990.10619,84.347413 990.40689,84.52288 990.62819,84.847042 C 990.85089,85.171328 990.98359,85.591332 991.02569,86.107099 L 990.38959,86.112004 C 990.36139,85.842262 990.29699,85.632322 990.19499,85.482311 C 990.09279,85.332326 989.94869,85.250697 989.76109,85.237572 C 989.57669,85.224638 989.44769,85.271605 989.37299,85.378576 C 989.29929,85.4857 989.26669,85.624926 989.27389,85.79635 C 989.28039,85.957585 989.32229,86.093164 989.39909,86.203123 C 989.47629,86.315625 989.64189,86.474049 989.89809,86.678173 C 990.28299,86.983256 990.52959,87.226411 990.63839,87.407571 C 990.80149,87.674074 990.89169,88.008154 990.90909,88.40983 C 990.92999,88.906222 990.83519,89.322916 990.62269,89.660103 C 990.41229,89.994759 990.10519,90.147888 989.70169,90.119466 C 989.42329,90.099863 989.17809,90.002274 988.96629,89.826686 C 988.75559,89.648663 988.60219,89.412135 988.50599,89.117095 C 988.40979,88.822058 988.35619,88.486731 988.34639,88.111 M 991.45919,87.946196 C 991.44469,87.613539 991.45799,87.26488 991.49919,86.900222 C 991.55219,86.411387 991.64749,85.990356 991.78509,85.637118 C 991.92319,85.284083 992.10529,85.01036 992.32989,84.8161 C 992.55509,84.619212 992.81679,84.530719 993.11629,84.550494 C 993.51659,84.577106 993.84979,84.814725 994.11519,85.263433 C 994.38189,85.712264 994.53079,86.293656 994.56269,87.007514 C 994.58839,87.601209 994.53409,88.170278 994.39789,88.714896 C 994.26209,89.259496 994.06229,89.67241 993.80019,89.953512 C 993.53799,90.23463 993.23329,90.363635 992.88549,90.340607 C 992.58329,90.320607 992.32449,90.184839 992.10899,89.933324 C 991.89409,89.681751 991.73549,89.377923 991.63439,89.021716 C 991.53389,88.662878 991.47539,88.30439 991.45919,87.946196 M 992.11709,87.966777 C 992.13399,88.353175 992.21599,88.681354 992.36299,88.951343 C 992.51069,89.221263 992.69419,89.36362 992.91569,89.378218 C 993.09529,89.390138 993.26299,89.299237 993.41879,89.105479 C 993.57669,88.909198 993.69999,88.606103 993.78879,88.196174 C 993.87959,87.783733 993.91569,87.37925 993.89829,86.98263 C 993.87859,86.539981 993.79459,86.188745 993.64669,85.928878 C 993.49829,85.666508 993.31849,85.528236 993.10569,85.51423 C 992.78039,85.492628 992.52659,85.738639 992.34499,86.252172 C 992.16489,86.765825 992.08929,87.337318 992.11709,87.966777 M 994.85749,90.370343 L 995.27969,84.785547 L 997.54709,84.927147 L 997.47509,85.860378 L 995.87559,85.760414 L 995.77289,87.101405 L 997.34199,87.19939 L 997.27229,88.132745 L 995.70309,88.034773 L 995.52469,90.412046 L 994.85749,90.370343 M 999.04409,90.626602 L 998.37669,90.5871 L 998.72389,85.933535 L 997.77389,85.877277 L 997.84279,84.943456 L 1000.3947,85.09456 L 1000.3261,86.028339 L 999.38889,85.972923 L 999.04409,90.626602 M 1003.4802,90.877694 L 1002.8063,90.84044 L 1002.5365,86.720989 L 1001.5538,90.771151 L 1000.867,90.733129 L 1000.4763,85.098413 L 1001.1277,85.134492 L 1001.3447,89.074915 L 1002.268,85.197498 L 1002.9902,85.237471 L 1003.2513,89.138262 L 1004.1323,85.300649 L 1004.7772,85.336335 L 1003.4802,90.877694 M 1006.4778,89.792769 L 1005.1951,89.72698 L 1004.8673,90.95102 L 1004.1824,90.915964 L 1005.7367,85.381355 L 1006.4765,85.419277 L 1007.2791,91.074582 L 1006.6478,91.042187 L 1006.4778,89.792769 M 1006.3502,88.851778 L 1006.0515,86.576936 L 1005.3808,88.802089 L 1006.3502,88.851778 M 1008.3658,91.127183 L 1007.6996,91.095349 L 1008.0936,85.498966 L 1009.5311,85.567475 C 1009.7783,85.57929 1009.9728,85.633228 1010.1141,85.72934 C 1010.2569,85.822975 1010.3766,85.98948 1010.4719,86.229022 C 1010.5692,86.468572 1010.6265,86.755989 1010.6437,87.091274 C 1010.6677,87.569951 1010.6048,87.961517 1010.4559,88.265924 C 1010.3065,88.56779 1010.0667,88.747875 1009.7363,88.806173 C 1009.8281,88.943367 1009.9173,89.122527 1010.0033,89.343675 C 1010.1744,89.791002 1010.371,90.420919 1010.5943,91.233339 L 1009.8787,91.199252 C 1009.8053,90.87912 1009.6678,90.37844 1009.4657,89.697287 C 1009.3562,89.32946 1009.2466,89.080393 1009.1376,88.950026 C 1009.0708,88.872752 1008.9585,88.830374 1008.8008,88.822877 L 1008.529,88.809962 L 1008.3658,91.127183 M 1008.588,87.970107 L 1008.9413,87.986956 C 1009.2992,88.00398 1009.5343,87.978169 1009.6467,87.909496 C 1009.7613,87.840829 1009.8472,87.728769 1009.9054,87.57323 C 1009.9636,87.417686 1009.9883,87.252905 1009.9798,87.078807 C 1009.9689,86.874103 1009.9138,86.718195 1009.8131,86.611228 C 1009.7506,86.547046 1009.6221,86.510224 1009.4262,86.50089 L 1008.6932,86.465942 L 1008.588,87.970107 M 1010.9527,91.249644 L 1011.3391,85.650478 L 1013.7389,85.756771 L 1013.6749,86.692499 L 1011.9414,86.615785 L 1011.853,87.887532 L 1013.5287,87.961739 L 1013.4643,88.897503 L 1011.7886,88.823299 L 1011.6641,90.342514 L 1013.5471,90.425929 L 1013.4808,91.361571 L 1010.9527,91.249644 M 1015.2536,91.436092 L 1015.6332,85.833783 L 1016.2976,85.860307 L 1015.9833,90.526373 L 1017.63,90.592108 L 1017.567,91.528411 L 1015.2536,91.436092 M 1017.9676,91.543284 L 1018.3433,85.939398 L 1019.0077,85.964511 L 1018.6343,91.568475 L 1017.9676,91.543284 M 1019.2408,91.592135 L 1019.6117,85.98653 L 1020.7169,86.025783 C 1020.9573,86.034238 1021.1253,86.05303 1021.2229,86.081956 C 1021.3832,86.12607 1021.5223,86.20762 1021.6387,86.326752 C 1021.7558,86.445829 1021.8478,86.602426 1021.9155,86.796473 C 1021.9833,86.99053 1022.0236,87.204028 1022.0362,87.437007 C 1022.0537,87.749292 1022.0182,88.018904 1021.9302,88.245821 C 1021.8431,88.470066 1021.6975,88.637441 1021.4956,88.747733 C 1021.6656,88.833057 1021.8028,88.979728 1021.9068,89.187808 C 1022.0119,89.3934 1022.0714,89.624208 1022.0853,89.88022 C 1022.104,90.218118 1022.0664,90.537456 1021.9726,90.838188 C 1021.8788,91.136358 1021.738,91.348601 1021.5513,91.474815 C 1021.3644,91.601045 1021.1026,91.65817 1020.7649,91.646295 L 1019.2408,91.592135 M 1020.126,88.273758 L 1020.6336,88.291751 C 1020.8612,88.299886 1021.024,88.277513 1021.1212,88.224716 C 1021.2183,88.17193 1021.2882,88.082445 1021.3308,87.956254 C 1021.3742,87.829995 1021.3921,87.693885 1021.3838,87.54799 C 1021.376,87.404625 1021.3463,87.286006 1021.2937,87.192212 C 1021.2418,87.098373 1021.1716,87.03454 1021.083,87.000752 C 1021.034,86.98364 1020.9163,86.971841 1020.7308,86.965264 L 1020.2145,86.946941 L 1020.126,88.273758 M 1019.9656,90.713377 L 1020.6078,90.736152 C 1020.8775,90.745659 1021.0561,90.722612 1021.144,90.666976 C 1021.233,90.608848 1021.3014,90.511594 1021.348,90.375311 C 1021.3962,90.239064 1021.4162,90.094126 1021.4084,89.940473 C 1021.398,89.753611 1021.3501,89.598577 1021.264,89.475445 C 1021.1777,89.349759 1021.0421,89.283605 1020.8569,89.277017 L 1020.0625,89.248824 L 1019.9656,90.713377 M 1023.1982,91.729632 L 1022.5319,91.70823 L 1022.8964,86.100138 L 1024.3332,86.146214 C 1024.58,86.154174 1024.7748,86.20511 1024.9163,86.299133 C 1025.0597,86.390594 1025.1794,86.555485 1025.2763,86.793707 C 1025.3746,87.032003 1025.4336,87.318786 1025.4521,87.654177 C 1025.4788,88.132926 1025.418,88.525865 1025.2711,88.832873 C 1025.1228,89.137443 1024.8847,89.321397 1024.5548,89.384933 C 1024.6476,89.520793 1024.737,89.698787 1024.8246,89.91876 C 1024.9973,90.363918 1025.1972,90.991378 1025.4243,91.801128 L 1024.7093,91.778184 C 1024.6349,91.458815 1024.4947,90.959819 1024.2894,90.281138 C 1024.1782,89.914637 1024.0674,89.667039 1023.9573,89.538295 C 1023.8905,89.46196 1023.7778,89.42133 1023.6203,89.416289 L 1023.3492,89.407543 L 1023.1982,91.729632 M 1023.4037,88.565951 L 1023.7565,88.577311 C 1024.1139,88.588791 1024.3487,88.559259 1024.4609,88.488733 C 1024.5744,88.418283 1024.66,88.304731 1024.7174,88.148108 C 1024.7749,87.991494 1024.7989,87.826137 1024.7889,87.652069 C 1024.7776,87.447256 1024.721,87.292133 1024.6201,87.186612 C 1024.5573,87.123337 1024.4286,87.088509 1024.2333,87.082185 L 1023.5005,87.058694 L 1023.4037,88.565951 M 1025.7869,91.811962 L 1026.144,86.20133 L 1028.5417,86.27058 L 1028.4825,87.208231 L 1026.7505,87.158266 L 1026.6685,88.432666 L 1028.343,88.480986 L 1028.2836,89.418659 L 1026.6092,89.370324 L 1026.4927,90.892962 L 1028.3746,90.947265 L 1028.3135,91.88481 L 1025.7869,91.811962"
         id="path3934" />
    </g>
  </g>
  <g
     inkscape:groupmode="layer"
     id="layer3"
     inkscape:label="globos">
    <rect
       y="12"
       x="713.27344"
       height="56.109375"
       width="258.39844"
       id="rect3731"
       style="fill:#000000;fill-opacity:1;fill-rule:nonzero;stroke:#000000;stroke-width:1;stroke-miterlimit:4;stroke-dasharray:none;stroke-opacity:1" />
    <rect
       style="fill:#ffff00;fill-opacity:1;fill-rule:nonzero;stroke:#000000;stroke-width:1;stroke-miterlimit:4;stroke-dasharray:none;stroke-opacity:1"
       id="rect3725"
       width="258.39844"
       height="56.109375"
       x="709.27344"
       y="6" />
    <text
       xml:space="preserve"
       style="font-size:12px;font-style:italic;font-variant:normal;font-weight:bold;font-stretch:normal;text-align:justify;line-height:125%;writing-mode:lr-tb;text-anchor:start;fill:#000000;fill-opacity:1;stroke:none;stroke-width:1px;stroke-linecap:butt;stroke-linejoin:miter;stroke-opacity:1;font-family:Kid Kosmic"
       x="732.76562"
       y="34.726562"
       id="text3713"
       sodipodi:linespacing="125%"><tspan
         sodipodi:role="line"
         id="tspan3715"
         x="732.76562"
         y="34.726562">facultad de derecho</tspan><tspan
         sodipodi:role="line"
         x="732.76562"
         y="49.726562"
         id="tspan3717">universidad de cceres</tspan></text>
    <rect
       style="fill:#000000;fill-opacity:1;fill-rule:nonzero;stroke:#000000;stroke-width:1.02031159;stroke-miterlimit:4;stroke-dasharray:none;stroke-opacity:1"
       id="rect3858"
       width="286.5434"
       height="52.674511"
       x="713.71631"
       y="402.21869" />
    <rect
       y="388.52451"
       x="709.33008"
       height="62.41935"
       width="286.44739"
       id="rect3860"
       style="fill:#ffff00;fill-opacity:1;fill-rule:nonzero;stroke:#000000;stroke-width:1.11050212;stroke-miterlimit:4;stroke-dasharray:none;stroke-opacity:1" />
    <text
       sodipodi:linespacing="125%"
       id="text3862"
       y="422.72656"
       x="732.76562"
       style="font-size:12px;font-style:italic;font-variant:normal;font-weight:bold;font-stretch:normal;text-align:justify;line-height:125%;writing-mode:lr-tb;text-anchor:start;fill:#000000;fill-opacity:1;stroke:none;stroke-width:1px;stroke-linecap:butt;stroke-linejoin:miter;stroke-opacity:1;font-family:Kid Kosmic"
       xml:space="preserve"><tspan
         id="tspan3866"
         y="422.72656"
         x="732.76562"
         sodipodi:role="line">law school</tspan><tspan
         y="437.72656"
         x="732.76562"
         sodipodi:role="line"
         id="tspan3870">university of extremadura</tspan></text>
  </g>
  <g
     inkscape:groupmode="layer"
     id="layer4"
     inkscape:label="vinietas">
    <path
       style="fill:#6699cc;fill-opacity:1;fill-rule:nonzero;stroke:#000000;stroke-width:4.48726034;stroke-linecap:round;stroke-linejoin:round;stroke-miterlimit:4;stroke-dashoffset:0;stroke-opacity:1;display:inline"
       d="M -3.1395438,-4.7760952 C -5.4235092,-4.7760952 -7.2644814,-2.9685179 -7.2644814,-0.74658629 L -7.2644814,390.21022 C -7.2644814,390.53373 -7.2131821,390.85414 -7.1394833,391.15464 C -7.2179821,391.46533 -7.2644814,391.79636 -7.2644814,392.13053 L -7.2644814,783.08734 C -7.2644814,785.30927 -5.4235092,787.08538 -3.1395438,787.08537 L 1073.2191,787.08537 C 1075.5032,787.08537 1077.3441,785.30927 1077.3441,783.08734 L 1077.3441,392.13053 C 1077.3441,391.79636 1077.2977,391.46533 1077.2191,391.15464 C 1077.2929,390.85414 1077.3441,390.53373 1077.3441,390.21022 L 1077.3441,-0.74658629 C 1077.3441,-2.9685179 1075.5034,-4.7760952 1073.2191,-4.7760952 L -3.1395438,-4.7760952 z M 32.141222,5.9902489 L 318.91808,5.9902489 C 335.30364,5.9902489 348.48014,17.992323 348.48014,32.874629 L 348.48014,331.31013 C 348.48014,346.19245 335.30374,358.16303 318.91808,358.16303 L 32.141222,358.16303 C 15.75567,358.16303 2.5791696,346.19244 2.5791696,331.31013 L 2.5791696,32.874629 C 2.5791696,17.992323 15.75567,5.9902489 32.141222,5.9902489 z M 388.72953,5.9902489 L 675.50648,5.9902489 C 691.89203,5.9902489 705.06853,17.992323 705.06853,32.874629 L 705.06853,331.31013 C 705.06853,346.19245 691.89203,358.16303 675.50648,358.16303 L 388.72953,358.16303 C 372.34397,358.16303 359.16747,346.19244 359.16747,331.31013 L 359.16747,32.874629 C 359.16747,17.992323 372.34397,5.9902489 388.72953,5.9902489 z M 745.66162,5.9902489 L 1032.4386,5.9902489 C 1048.8241,5.9902489 1062.0006,17.992323 1062.0006,32.874629 L 1062.0006,331.31013 C 1062.0006,346.19245 1048.8241,358.16303 1032.4386,358.16303 L 745.66162,358.16303 C 729.27607,358.16303 716.09957,346.19244 716.09957,331.31013 L 716.09957,32.874629 C 716.09957,17.992323 729.27607,5.9902489 745.66162,5.9902489 z M 32.141222,398.86737 L 318.91808,398.86737 C 335.30364,398.86737 348.48014,410.86944 348.48014,425.75175 L 348.48014,724.18725 C 348.48014,739.06957 335.30374,751.04015 318.91808,751.04015 L 32.141222,751.04015 C 15.75567,751.04015 2.5791696,739.06956 2.5791696,724.18725 L 2.5791696,425.75175 C 2.5791696,410.86944 15.75567,398.86737 32.141222,398.86737 z M 388.72953,398.86737 L 675.50648,398.86737 C 691.89203,398.86737 705.06853,410.86944 705.06853,425.75175 L 705.06853,724.18725 C 705.06853,739.06957 691.89203,751.04015 675.50648,751.04015 L 388.72953,751.04015 C 372.34397,751.04015 359.16747,739.06956 359.16747,724.18725 L 359.16747,425.75175 C 359.16747,410.86944 372.34397,398.86737 388.72953,398.86737 z M 745.66162,398.86737 L 1032.4386,398.86737 C 1048.8241,398.86737 1062.0006,410.86944 1062.0006,425.75175 L 1062.0006,724.18725 C 1062.0006,739.06957 1048.8241,751.04015 1032.4386,751.04015 L 745.66162,751.04015 C 729.27607,751.04015 716.09957,739.06956 716.09957,724.18725 L 716.09957,425.75175 C 716.09957,410.86944 729.27607,398.86737 745.66162,398.86737 z"
       id="rect16715" />
    <text
       xml:space="preserve"
       style="font-size:18px;font-style:normal;font-variant:normal;font-weight:normal;font-stretch:normal;text-align:center;line-height:125%;writing-mode:lr-tb;text-anchor:middle;fill:#ffffff;fill-opacity:1;stroke:#ffffff;stroke-width:1pt;stroke-linecap:butt;stroke-linejoin:miter;stroke-opacity:1;display:inline;font-family:Sans"
       x="161.90993"
       y="384.6756"
       id="text2618"
       sodipodi:linespacing="125%"><tspan
         sodipodi:role="line"
         id="tspan2620"
         x="161.90993"
         y="384.6756">tira de linuxhispano.net</tspan></text>
    <text
       xml:space="preserve"
       style="font-size:18px;font-style:normal;font-variant:normal;font-weight:normal;font-stretch:normal;text-align:center;line-height:125%;writing-mode:lr-tb;text-anchor:middle;fill:#ffffff;fill-opacity:1;stroke:#ffffff;stroke-width:1pt;stroke-linecap:butt;stroke-linejoin:miter;stroke-opacity:1;display:inline;font-family:Sans"
       x="1014.7665"
       y="383.6756"
       id="text2622"
       sodipodi:linespacing="125%"><tspan
         sodipodi:role="line"
         id="tspan2624"
         x="1014.7665"
         y="383.6756">by danigm</tspan></text>
    <text
       sodipodi:linespacing="125%"
       id="text4260"
       y="384.6756"
       x="541.91003"
       style="font-size:18px;font-style:normal;font-variant:normal;font-weight:normal;font-stretch:normal;text-align:center;line-height:125%;writing-mode:lr-tb;text-anchor:middle;fill:#ffffff;fill-opacity:1;stroke:none;stroke-width:1pt;stroke-linecap:butt;stroke-linejoin:miter;stroke-opacity:1;display:inline;font-family:Sans"
       xml:space="preserve"><tspan
         y="384.6756"
         x="541.91003"
         id="tspan4262"
         sodipodi:role="line">imagenes en sugus.eii.us.es</tspan></text>
  </g>
</svg>
