<?xml version="1.0" encoding="UTF-8" standalone="no"?>
<!-- Created with Inkscape (http://www.inkscape.org/) -->

<svg
   xmlns:ns="&amp;#38;#38;#38;#38;#38;#38;#38;#38;#38;#38;#38;#38;#38;#38;#38;ns_xlink;"
   xmlns:dc="http://purl.org/dc/elements/1.1/"
   xmlns:cc="http://creativecommons.org/ns#"
   xmlns:rdf="http://www.w3.org/1999/02/22-rdf-syntax-ns#"
   xmlns:svg="http://www.w3.org/2000/svg"
   xmlns="http://www.w3.org/2000/svg"
   xmlns:sodipodi="http://sodipodi.sourceforge.net/DTD/sodipodi-0.dtd"
   xmlns:inkscape="http://www.inkscape.org/namespaces/inkscape"
   width="1063"
   height="390"
   id="svg2"
   sodipodi:version="0.32"
   inkscape:version="0.47 r22583"
   version="1.0"
   sodipodi:docname="humedad.svg"
   inkscape:output_extension="org.inkscape.output.svg.inkscape"
   inkscape:export-filename="/home/danigm/humedad.png"
   inkscape:export-xdpi="57.57"
   inkscape:export-ydpi="57.57">
  <defs
     id="defs4">
    <inkscape:perspective
       sodipodi:type="inkscape:persp3d"
       id="perspective3033"
       inkscape:vp_x="-50 : 600 : 1"
       inkscape:vp_y="0 : 1000 : 0"
       inkscape:vp_z="700 : 600 : 1"
       inkscape:persp3d-origin="300 : 400 : 1" />
    <inkscape:perspective
       sodipodi:type="inkscape:persp3d"
       id="perspective3032"
       inkscape:vp_x="-50 : 600 : 1"
       inkscape:vp_y="0 : 1000 : 0"
       inkscape:vp_z="700 : 600 : 1"
       inkscape:persp3d-origin="300 : 400 : 1" />
    <inkscape:perspective
       sodipodi:type="inkscape:persp3d"
       id="perspective3031"
       inkscape:vp_x="-50 : 600 : 1"
       inkscape:vp_y="0 : 1000 : 0"
       inkscape:vp_z="700 : 600 : 1"
       inkscape:persp3d-origin="300 : 400 : 1" />
    <inkscape:perspective
       sodipodi:type="inkscape:persp3d"
       id="perspective3030"
       inkscape:vp_x="-50 : 600 : 1"
       inkscape:vp_y="0 : 1000 : 0"
       inkscape:vp_z="700 : 600 : 1"
       inkscape:persp3d-origin="300 : 400 : 1" />
    <inkscape:perspective
       sodipodi:type="inkscape:persp3d"
       id="perspective3029"
       inkscape:vp_x="-50 : 600 : 1"
       inkscape:vp_y="0 : 1000 : 0"
       inkscape:vp_z="700 : 600 : 1"
       inkscape:persp3d-origin="300 : 400 : 1" />
    <inkscape:perspective
       sodipodi:type="inkscape:persp3d"
       id="perspective2997"
       inkscape:vp_x="-50 : 600 : 1"
       inkscape:vp_y="0 : 1000 : 0"
       inkscape:vp_z="700 : 600 : 1"
       inkscape:persp3d-origin="300 : 400 : 1" />
    <inkscape:perspective
       sodipodi:type="inkscape:persp3d"
       id="perspective2996"
       inkscape:vp_x="-50 : 600 : 1"
       inkscape:vp_y="0 : 1000 : 0"
       inkscape:vp_z="700 : 600 : 1"
       inkscape:persp3d-origin="300 : 400 : 1" />
    <linearGradient
       inkscape:collect="always"
       ns:href="#linearGradient8459"
       id="linearGradient22173"
       gradientUnits="userSpaceOnUse"
       x1="79.135063"
       y1="222.45238"
       x2="81.359901"
       y2="288.58099" />
    <linearGradient
       inkscape:collect="always"
       ns:href="#linearGradient2085"
       id="linearGradient15268"
       gradientUnits="userSpaceOnUse"
       gradientTransform="scale(1.034178,0.966951)"
       x1="146.3828"
       y1="70.228607"
       x2="116.75287"
       y2="53.988689" />
    <linearGradient
       inkscape:collect="always"
       ns:href="#linearGradient2085"
       id="linearGradient15267"
       gradientUnits="userSpaceOnUse"
       gradientTransform="scale(1.035723,0.965509)"
       x1="162.97719"
       y1="23.931684"
       x2="131.34537"
       y2="10.142395" />
    <linearGradient
       inkscape:collect="always"
       ns:href="#linearGradient4021"
       id="linearGradient15266"
       gradientUnits="userSpaceOnUse"
       gradientTransform="scale(1.026523,0.974162)"
       x1="215.19115"
       y1="116.1558"
       x2="148.53513"
       y2="78.029449" />
    <linearGradient
       inkscape:collect="always"
       ns:href="#linearGradient4021"
       id="linearGradient15265"
       gradientUnits="userSpaceOnUse"
       gradientTransform="scale(1.032621,0.96841)"
       x1="230.18588"
       y1="64.586258"
       x2="171.49763"
       y2="31.573004" />
    <radialGradient
       inkscape:collect="always"
       ns:href="#linearGradient1806"
       id="radialGradient15264"
       gradientUnits="userSpaceOnUse"
       cx="24.825565"
       cy="176.56438"
       fx="40.974991"
       fy="162.11137"
       r="42.859913" />
    <filter
       id="filter3666"
       inkscape:label="Air spray"
       inkscape:menu="Scatter"
       inkscape:menu-tooltip="Convert to small scattered particles with some thickness"
       width="2"
       height="2"
       y="-0.5"
       x="-0.5"
       color-interpolation-filters="sRGB">
      <feGaussianBlur
         id="feGaussianBlur3668"
         stdDeviation="0.01"
         result="result1" />
      <feBlend
         id="feBlend3670"
         in2="result1"
         result="fbSourceGraphic"
         mode="multiply" />
      <feTurbulence
         id="feTurbulence3672"
         baseFrequency="0.8"
         type="fractalNoise"
         seed="0"
         numOctaves="3"
         result="result3" />
      <feDisplacementMap
         id="feDisplacementMap3674"
         in2="result3"
         in="fbSourceGraphic"
         xChannelSelector="R"
         yChannelSelector="G"
         scale="50"
         result="result2" />
      <feMorphology
         id="feMorphology3676"
         radius="1"
         operator="dilate"
         result="result4" />
      <feBlend
         id="feBlend3678"
         in2="result2"
         mode="screen" />
    </filter>
  </defs>
  <sodipodi:namedview
     id="base"
     pagecolor="#ffffff"
     bordercolor="#666666"
     borderopacity="1.0"
     inkscape:pageopacity="1"
     inkscape:pageshadow="2"
     inkscape:zoom="0.53527752"
     inkscape:cx="531.5"
     inkscape:cy="195"
     inkscape:document-units="px"
     inkscape:current-layer="layer2"
     width="1062.99px"
     borderlayer="true"
     inkscape:window-width="1024"
     inkscape:window-height="575"
     inkscape:window-x="0"
     inkscape:window-y="25"
     showgrid="false"
     inkscape:window-maximized="1" />
  <metadata
     id="metadata7">
    <rdf:RDF>
      <cc:Work
         rdf:about="">
        <dc:format>image/svg+xml</dc:format>
        <dc:type
           rdf:resource="http://purl.org/dc/dcmitype/StillImage" />
        <dc:title></dc:title>
        <dc:date />
        <dc:creator>
          <cc:Agent>
            <dc:title />
          </cc:Agent>
        </dc:creator>
        <dc:rights>
          <cc:Agent>
            <dc:title />
          </cc:Agent>
        </dc:rights>
        <dc:publisher>
          <cc:Agent>
            <dc:title />
          </cc:Agent>
        </dc:publisher>
        <dc:identifier />
        <dc:source />
        <dc:relation />
        <dc:language />
        <dc:subject>
          <rdf:Bag />
        </dc:subject>
        <dc:coverage />
        <dc:description />
        <dc:contributor>
          <cc:Agent>
            <dc:title />
          </cc:Agent>
        </dc:contributor>
        <cc:license
           rdf:resource="" />
      </cc:Work>
      <cc:Work
         rdf:about="">
        <dc:format>image/svg+xml</dc:format>
        <dc:type
           rdf:resource="http://purl.org/dc/dcmitype/StillImage" />
      </cc:Work>
    </rdf:RDF>
  </metadata>
  <g
     inkscape:label="fondo"
     inkscape:groupmode="layer"
     id="layer1">
    <rect
       style="opacity:1;fill:#4e9a06;fill-opacity:1;fill-rule:nonzero;stroke:#000000;stroke-width:4;stroke-linecap:round;stroke-linejoin:round;stroke-miterlimit:4;stroke-dasharray:none;stroke-dashoffset:0;stroke-opacity:1;display:inline"
       id="rect4585"
       width="1150.5601"
       height="856.79999"
       x="-39.900002"
       y="-27.019989"
       rx="15.548299"
       ry="10.315682" />
    <path
       sodipodi:type="arc"
       style="opacity:1;fill:#ffffff;fill-opacity:0.58035715;fill-rule:nonzero;stroke:none;stroke-width:3.80038881;stroke-linecap:round;stroke-linejoin:round;stroke-miterlimit:4;stroke-dasharray:none;stroke-dashoffset:0;stroke-opacity:1;display:inline"
       id="path4587"
       sodipodi:cx="581.40002"
       sodipodi:cy="374.85001"
       sodipodi:rx="535.5"
       sodipodi:ry="273.87"
       d="M 1116.9,374.85001 A 535.5,273.87 0 1 1 45.900024,374.85001 A 535.5,273.87 0 1 1 1116.9,374.85001 z"
       transform="matrix(0.9981395,0,0,1.1098713,-48.81833,-38.035264)" />
  </g>
  <g
     inkscape:groupmode="layer"
     id="layer2"
     inkscape:label="dibujos">
    <path
       style="fill:#ffe5b9;fill-opacity:1;stroke:#000000;stroke-width:1;stroke-miterlimit:4;stroke-opacity:1;stroke-dasharray:none"
       d="m 611.17562,317.12269 -3.86471,7.72941 -20.97983,-5.52101 c 0,0 2.2084,-12.14621 -3.3126,-12.69832 -5.52101,-0.5521 -0.48213,11.59668 -0.48213,11.59668 0,0 -18.18434,-8.94369 -20.94484,-5.07898 -5.17465,26.5547 11.57871,24.03659 25.29167,13.91004 l 25.39664,3.3126 3.86471,-11.04202 -4.96891,-2.2084 z"
       id="path4934"
       sodipodi:nodetypes="cccscccccc" />
    <path
       sodipodi:nodetypes="ccsccc"
       id="path4928"
       d="m 515.78228,312.04217 7.6598,28.14073 c 0,0 6.38666,0.12253 5.83377,5.09856 -0.55289,4.97603 -10.17621,7.12186 -10.17621,7.12186 l -8.84628,-39.80826 5.52892,-0.55289 z"
       style="fill:#ffeec4;fill-opacity:1;stroke:#000000;stroke-width:1;stroke-miterlimit:4;stroke-opacity:1;stroke-dasharray:none" />
    <path
       style="fill:#ffeec4;fill-opacity:1;stroke:#000000;stroke-width:1;stroke-miterlimit:4;stroke-opacity:1;stroke-dasharray:none"
       d="m 483.78086,312.04217 -7.6598,28.14073 c 0,0 -6.38666,0.12253 -5.83377,5.09856 0.55289,4.97603 10.17621,7.12186 10.17621,7.12186 l 8.84628,-39.80826 -5.52892,-0.55289 z"
       id="path4926"
       sodipodi:nodetypes="ccsccc" />
    <path
       style="fill:#ffeec4;fill-opacity:1;stroke:#000000;stroke-width:0.99999988;stroke-miterlimit:4;stroke-opacity:1;stroke-dasharray:none"
       d="m 184.23217,292.56515 15.0654,-5.6069 4.9456,-31.6893 c 0,0 -11.7577,2.7529 -12.0068,-1.8942 -0.2492,-4.6471 12.2152,-2.8237 12.2152,-2.8237 0,0 -5.7817,-13.1642 -4.0219,-13.9046 1.76,-0.7402 6.2323,0.9118 6.7271,4.1154 0.4947,3.2034 2.3999,9.4693 2.3999,9.4693 0,0 3.7546,-21.19697 6.467,-18.8045 2.7123,2.3924 4.2638,6.3701 2.2954,11.8283 -1.9684,5.4582 -1.8271,6.3735 -1.8271,6.3735 l 11.0173,-4.5129 c 0,0 4.4723,1.652 1.1643,4.5057 -3.3078,2.8539 -10.7345,6.3437 -13.9381,6.8385 -3.2035,0.4947 -4.1188,0.6361 -4.1188,0.6361 0,0 -4.5214,34.4354 -6.739,35.2464 -2.2176,0.8112 -16.9667,5.4319 -16.9667,5.4319 l -2.6788,-5.209 z"
       id="path4710" />
    <path
       id="path4708"
       d="m 141.11457,291.73275 -15.96828,-1.8484 -12.36738,-29.5926 c 0,0 12.07485,-0.1334 11.20748,-4.7056 -0.86737,-4.5723 -12.53617,0.1739 -12.53617,0.1739 0,0 2.47208,-14.1638 0.5863,-14.4627 -1.88579,-0.2987 -5.83438,2.3732 -5.55011,5.6023 0.28425,3.2289 -0.0698,9.7684 -0.0698,9.7684 0,0 -8.7062,-19.6879 -10.76902,-16.717 -2.06283,2.9707 -2.61992,7.2037 0.59454,12.0342 3.21447,4.8306 3.29569,5.7531 3.29569,5.7531 l -11.77601,-1.7524 c 0,0 -3.94861,2.6719 -0.0552,4.6534 3.8934,1.9818 11.93845,3.5978 15.16751,3.3135 3.22906,-0.2843 4.15163,-0.3655 4.15163,-0.3655 0,0 12.61104,32.3605 14.95812,32.6187 2.34711,0.2583 17.77283,1.2246 17.77283,1.2246 l 1.35787,-5.6979 z"
       style="fill:#ffeec4;fill-opacity:1;stroke:#000000;stroke-width:0.99999988;stroke-miterlimit:4;stroke-opacity:1;stroke-dasharray:none" />
    <g
       style="display:inline"
       id="g3872"
       transform="translate(-450.58052,-269.03524)">
      <path
         style="fill:#0600ff;fill-opacity:1;fill-rule:evenodd;stroke:#000000;stroke-width:1.84647799;stroke-linecap:butt;stroke-linejoin:miter;stroke-miterlimit:4;stroke-opacity:1"
         d="m 62.946547,630.72755 -3.518416,27.92519 c 9.938928,4.73283 23.869555,1.41832 23.869555,1.41832 10.412211,5.67939 26.015694,-0.70916 26.015694,-0.70916 l -2.82486,-32.89389 -43.541973,4.25954 z"
         id="path3873"
         transform="matrix(0.859835,0,0,0.532987,537.0548,277.0172)"
         sodipodi:nodetypes="cccccc" />
      <path
         style="fill:none;stroke:#000000;stroke-width:1.25;stroke-linecap:butt;stroke-linejoin:miter;stroke-miterlimit:4;stroke-opacity:1"
         d="m 605.49242,620.80796 -1.13636,2.84091 7.00758,0.37879"
         id="path3874" />
      <path
         style="fill:none;stroke:#000000;stroke-width:1.25;stroke-linecap:butt;stroke-linejoin:miter;stroke-miterlimit:4;stroke-opacity:1"
         d="m 608.71212,621.18675 0,7.95454"
         id="path3875" />
    </g>
    <path
       sodipodi:nodetypes="cccccccc"
       style="fill:#ffeec4;fill-opacity:1;fill-rule:evenodd;stroke:#000000;stroke-width:1.25;stroke-linecap:butt;stroke-linejoin:miter;stroke-miterlimit:4;stroke-opacity:1;display:inline"
       d="m 160.56067,275.92975 -1.4198,16.0916 -10.4283,-0.048 13.268,19.4526 13.8961,-21.0274 -12.003,0.6763 1.4198,-13.2519 -4.7328,-1.8931 z"
       id="path3876" />
    <path
       style="fill:#ffffff;fill-opacity:1;fill-rule:evenodd;stroke:#000000;stroke-width:1.25;stroke-linecap:butt;stroke-linejoin:miter;stroke-miterlimit:4;stroke-opacity:1;display:inline"
       d="m 184.24747,364.81625 c 27.4504,1.4198 28.3969,13.7252 28.3969,13.7252 0,9.9389 -53.0076,4.7328 -53.0076,4.7328 l 0,-16.0916 24.6107,-2.3664 z"
       id="path3877"
       sodipodi:nodetypes="ccccc" />
    <path
       style="fill:#ffffff;fill-opacity:1;fill-rule:evenodd;stroke:#000000;stroke-width:1.25;stroke-linecap:butt;stroke-linejoin:miter;stroke-miterlimit:4;stroke-opacity:1;display:inline"
       d="m 135.00339,364.81625 c -27.45038,1.4198 -28.39694,13.7252 -28.39694,13.7252 0,9.9389 53.00762,4.7328 53.00762,4.7328 l 0,-16.0916 -24.61068,-2.3664 z"
       id="path3878"
       sodipodi:nodetypes="ccccc" />
    <path
       sodipodi:type="arc"
       style="fill:#ffeec4;fill-opacity:1;stroke:#000000;stroke-width:1.25;stroke-miterlimit:4;stroke-opacity:1;display:inline"
       id="path3882"
       sodipodi:cx="614.01514"
       sodipodi:cy="503.9519"
       sodipodi:rx="29.545454"
       sodipodi:ry="40.530304"
       d="m 643.56059,503.9519 a 29.545454,40.530304 0 1 1 -59.09091,0 29.545454,40.530304 0 1 1 59.09091,0 z"
       transform="matrix(1,0,0,1.138058,-456.26232,-338.42034)" />
    <path
       style="fill:#ff8c00;fill-opacity:1;stroke:#000000;stroke-width:1.25;stroke-miterlimit:4;stroke-opacity:1;display:inline"
       d="m 159.27867,366.81085 c 7.8737,1.3577 13.8554,1.4102 21.5917,0 0.853,-0.011 1.3256,-2.2067 1.235,-4.0097 0.024,-1.6159 0.012,-3.5377 -0.6454,-4.4901 -0.5319,-0.6978 -1.1619,-0.3161 -1.7441,-0.4147 -8.1533,1.783 -11.5937,1.5152 -20.4372,0 -0.853,0.011 -1.3256,2.2068 -1.235,4.0099 -0.024,1.6158 -0.012,3.5375 0.6454,4.4899 0.1747,0.2661 0.3813,0.4165 0.5896,0.4147 z"
       id="path3885"
       sodipodi:nodetypes="ccccccccc" />
    <path
       style="fill:#ff8c00;fill-opacity:1;stroke:#000000;stroke-width:1.25;stroke-miterlimit:4;stroke-opacity:1;display:inline"
       d="m 136.55141,367.56845 c 7.87366,1.3576 13.85536,1.4102 21.59166,0 0.853,-0.011 1.3257,-2.2068 1.2351,-4.0097 0.024,-1.6159 0.012,-3.5377 -0.6454,-4.4902 -0.5319,-0.6977 -1.162,-0.316 -1.7441,-0.4146 -8.1534,1.783 -11.5938,1.5151 -20.43726,0 -0.85301,0.011 -1.32564,2.2068 -1.23504,4.0099 -0.024,1.6158 -0.0119,3.5375 0.64541,4.4899 0.17473,0.2661 0.38134,0.4165 0.58963,0.4147 z"
       id="path3886"
       sodipodi:nodetypes="ccccccccc" />
    <path
       style="fill:#ffff00;fill-opacity:1;fill-rule:evenodd;stroke:#000000;stroke-width:1.25;stroke-linecap:butt;stroke-linejoin:miter;stroke-miterlimit:4;stroke-opacity:1;display:inline"
       d="m 129.99619,235.90555 -5.24471,11.6488 8.24986,-9.5633 -2.62092,12.5721 13.30585,-14.31 18.4527,18.158 -3.1266,-13.9871 10.9043,18.7513 0.4484,-13.7064 6.1081,16.1496 2.8668,-11.9366 c 2.0035,4.1708 4.081,28.6273 4.081,28.6273 l 1.6122,-20.8368 c 0.6678,1.7378 3.3963,25.0076 3.3963,25.0076 l 0,-9.0368 c 2.6713,-36.1474 -0.6678,-37.5377 -0.6678,-37.5377 l -57.76548,0 z"
       id="path1830"
       sodipodi:nodetypes="ccccccccccccccccc" />
    <g
       style="display:inline"
       id="g3912"
       transform="translate(-791.48963,-268.27764)">
      <path
         sodipodi:type="arc"
         style="fill:#ff0000;fill-opacity:1;stroke:#000000;stroke-width:1.25;stroke-miterlimit:4;stroke-opacity:1"
         id="path3888"
         sodipodi:cx="614.01514"
         sodipodi:cy="503.9519"
         sodipodi:rx="29.545454"
         sodipodi:ry="40.530304"
         d="m 643.56059,503.9519 c 0,22.38427 -13.22795,40.53031 -29.54545,40.53031 -16.31751,0 -29.54546,-18.14604 -29.54546,-40.53031 0,0 0,0 0,0"
         transform="matrix(1,0,0,-1.138058,335.2273,1077.342)"
         sodipodi:start="0"
         sodipodi:end="3.1415927"
         sodipodi:open="true" />
      <path
         style="fill:#ff8c00;fill-opacity:1;stroke:#000000;stroke-width:1.3600812;stroke-miterlimit:4;stroke-opacity:1"
         d="m 919.18064,496.12998 c 9.11503,-2.31229 22.9649,-4.82671 60.29962,0 2.38226,0.0147 3.70219,2.96949 3.44916,5.39574 0.0671,2.1743 0.0333,4.76027 -1.80245,6.04188 -1.48547,0.93887 -3.24492,0.42525 -4.87077,0.55802 -39.29034,-5.4995 -51.49734,-2.46919 -57.07556,-2e-5 -2.38226,-0.0147 -3.70218,-2.96948 -3.44915,-5.39573 -0.0671,-2.17429 -0.0333,-4.76026 1.80245,-6.04187 0.48798,-0.35801 1.06497,-0.56033 1.6467,-0.55802 z"
         id="path3889"
         sodipodi:nodetypes="ccccccccc" />
    </g>
    <g
       style="display:inline"
       id="g3890"
       transform="translate(-466.86842,-267.14124)">
      <path
         style="fill:#000000;fill-opacity:1;fill-rule:nonzero;stroke:none"
         id="path3891"
         d="m 602.12989,530.86845 c 4.92665,-5.60302 3.20474,3.61349 2.69071,0.88757 1.9602,-2.34669 2.95818,-2.51226 5.54437,-1.69045 -0.0209,-0.0289 -0.0417,-0.0579 -0.0626,-0.0868 l 0.67636,1.37229 c -0.24207,0.0801 -0.48415,0.16018 -0.72622,0.24027 -2.79162,-0.64108 -2.07842,-1.23608 -4.52736,1.39857 -5.38134,3.48665 2.58736,-7.9687 -2.51341,-1.03965 l -1.08182,-1.08182 z" />
      <path
         style="fill:#000000;fill-opacity:1;fill-rule:nonzero;stroke:none"
         id="path3892"
         d="m 614.56728,529.29973 c 2.27316,-2.20018 3.10381,3.15946 2.40404,0.88226 2.38249,0.0162 2.29496,-0.69063 4.56975,-1.09388 0.62368,0.16192 1.16571,0.49085 1.73274,0.77392 l -0.62753,1.3953 c -0.31635,-0.15756 -0.94462,-0.42072 -1.08062,-0.63949 -1.31256,0.34406 -2.45151,1.02431 -3.50032,0.63363 -3.33506,2.9186 -3.05186,-3.8383 -1.32754,-1.64483 0.0946,0.12036 -1.40504,0.86484 -1.32188,0.96607 l -0.84864,-1.27298 z" />
    </g>
    <g
       id="g3893"
       style="fill:#000000;fill-opacity:1;stroke:none;display:inline"
       transform="translate(-462.70172,-268.27764)">
      <path
         style="fill-rule:nonzero"
         id="path3894"
         d="m 607.2367,545.43155 c -1.15458,1.83076 -2.3091,3.66086 -3.4138,5.52225 l -0.87701,-0.52072 c 1.10622,-1.86229 2.25997,-3.69473 3.41621,-5.52629 l 0.8746,0.52476 z" />
      <path
         style="fill-rule:nonzero"
         id="path3895"
         d="m 608.99652,546.06684 c -0.91679,1.92189 -1.26918,4.02666 -1.59277,6.11116 l -1.00782,-0.15677 c 0.34111,-2.18849 0.72023,-4.39522 1.68832,-6.41052 l 0.91227,0.45613 z" />
      <path
         style="fill-rule:nonzero"
         id="path3896"
         d="m 611.04396,546.76599 c -0.65137,2.87861 -0.44213,5.79948 -0.36996,8.7193 l -1.01964,0.0252 c -0.0743,-3.01141 -0.27866,-6.02436 0.4001,-8.99185 l 0.9895,0.24737 z" />
      <path
         style="fill-rule:nonzero"
         id="path3897"
         d="m 614.08554,545.87855 c 1.01997,2.17067 1.39211,4.55818 1.91622,6.87879 l -0.9949,0.22465 c -0.50582,-2.24051 -0.86033,-4.54736 -1.83359,-6.6473 l 0.91227,-0.45614 z" />
      <path
         style="fill-rule:nonzero"
         id="path3898"
         d="m 617.37922,545.59664 c 2.42251,0.60363 3.30082,3.16147 4.26258,5.21685 l -0.92511,0.42951 c -0.81381,-1.74056 -1.50068,-3.80802 -3.33747,-4.62641 l 0,-1.01995 z" />
      <path
         style="fill-rule:nonzero"
         id="path3899"
         d="m 620.38768,547.50131 c -0.67972,-4.82708 3.62959,1.43543 4.47498,3.1077 l -0.90511,0.47018 c -0.64531,-1.3065 -4.4808,-6.9346 -2.62287,-3.95668 l -0.947,0.3788 z" />
    </g>
    <path
       style="fill:#00ff15;fill-opacity:1;fill-rule:evenodd;stroke:#000000;stroke-width:1.25;stroke-linecap:butt;stroke-linejoin:miter;stroke-miterlimit:4;stroke-opacity:1;display:inline"
       d="m 152.04677,290.59305 9.7692,6.0491 7.2922,-6.6794 29.6143,-4.724 0.3896,19.9357 -28.639,-1.8027 10.4185,43.3225 c -12.8227,7.5926 -41.27302,0.4466 -41.27302,0.4466 l 9.61702,-42.8758 -20.9626,1.2829 -0.31688,-19.2292 24.09068,4.2743 z"
       id="path3901"
       sodipodi:nodetypes="cccccccccccc" />
    <g
       style="display:inline"
       id="g3902"
       transform="matrix(0.640057,0.383722,-0.30692,0.64132,-50.66052,-290.08864)">
      <path
         style="fill:#f0ff00;fill-opacity:1;fill-rule:nonzero;stroke:none"
         id="path3903"
         d="m 599.7744,582.6047 c 8.48204,6.77683 10.32365,18.11363 11.58749,28.27131 l -3.89684,0.74104 c -1.15456,-9.08236 -2.47927,-19.44086 -9.89097,-25.71188 l 2.20032,-3.30047 z" />
      <path
         style="fill:#f0ff00;fill-opacity:1;fill-rule:nonzero;stroke:none"
         id="path3904"
         d="m 592.0493,592.28293 c -2.32045,-10.48305 13.57833,-19.65261 22.425,-14.72572 8.3399,4.2453 -5.41921,23.47417 -8.49745,19.57803 -3.77774,-4.78149 4.4829,-8.92534 7.72314,-9.36408 7.88402,-0.50313 14.02952,2.76484 12.25065,11.30764 -2.33312,5.61955 -8.68072,7.67873 -14.13188,9.06608 l -0.95292,-3.8505 c 4.06438,-0.97145 8.82209,-2.38464 11.20928,-6.06105 0.91383,-5.76611 -2.2474,-6.64165 -7.89904,-6.52418 -2.05624,0.30486 -3.4156,2.57324 -4.70891,2.8346 -7.94888,1.60635 7.5184,-8.72489 2.96726,-13.58458 -5.86299,-4.00758 -16.11336,3.3856 -16.98374,9.28292 l -3.40139,2.04084 z" />
    </g>
    <path
       id="path4712"
       d="m 146.30547,271.70075 c 21.3216,-12.1837 28.9364,-21.8292 30.967,-4.5689 2.0307,17.2604 -1.5229,35.0284 -6.0918,31.4748 -4.569,-3.5536 -7.6149,-8.6302 -15.2298,-6.5996"
       style="fill:#ff0000;fill-opacity:1;stroke:#000000;stroke-width:1;stroke-miterlimit:4;stroke-opacity:1;stroke-dasharray:none" />
    <path
       id="path4714"
       d="m 146.92887,267.50905 -0.3101,3.876"
       style="fill:#ff0000;fill-opacity:1;stroke:#000000;stroke-width:1;stroke-miterlimit:4;stroke-opacity:1;stroke-dasharray:none" />
    <g
       transform="translate(-110.58052,-269.03524)"
       id="g4720"
       style="display:inline">
      <path
         sodipodi:nodetypes="cccccc"
         transform="matrix(0.859835,0,0,0.532987,537.0548,277.0172)"
         id="path4722"
         d="m 62.946547,630.72755 -3.518416,27.92519 c 9.938928,4.73283 23.869555,1.41832 23.869555,1.41832 10.412211,5.67939 26.015694,-0.70916 26.015694,-0.70916 l -2.82486,-32.89389 -43.541973,4.25954 z"
         style="fill:#0600ff;fill-opacity:1;fill-rule:evenodd;stroke:#000000;stroke-width:1.84647799;stroke-linecap:butt;stroke-linejoin:miter;stroke-miterlimit:4;stroke-opacity:1" />
      <path
         id="path4724"
         d="m 605.49242,620.80796 -1.13636,2.84091 7.00758,0.37879"
         style="fill:none;stroke:#000000;stroke-width:1.25;stroke-linecap:butt;stroke-linejoin:miter;stroke-miterlimit:4;stroke-opacity:1" />
      <path
         id="path4726"
         d="m 608.71212,621.18675 0,7.95454"
         style="fill:none;stroke:#000000;stroke-width:1.25;stroke-linecap:butt;stroke-linejoin:miter;stroke-miterlimit:4;stroke-opacity:1" />
    </g>
    <path
       id="path4728"
       d="m 500.56067,275.92975 -1.4198,16.0916 -8.47353,3.27511 11.31323,16.12949 11.45264,-15.26083 -9.55954,-5.09027 1.4198,-13.2519 -4.7328,-1.8931 0,-10e-5 z"
       style="fill:#ffeec4;fill-opacity:1;fill-rule:evenodd;stroke:#000000;stroke-width:1.25;stroke-linecap:butt;stroke-linejoin:miter;stroke-miterlimit:4;stroke-opacity:1;display:inline"
       sodipodi:nodetypes="ccccccccc" />
    <path
       sodipodi:nodetypes="ccccc"
       id="path4730"
       d="m 524.24747,364.81625 c 27.4504,1.4198 28.3969,13.7252 28.3969,13.7252 0,9.9389 -53.0076,4.7328 -53.0076,4.7328 l 0,-16.0916 24.6107,-2.3664 z"
       style="fill:#ffffff;fill-opacity:1;fill-rule:evenodd;stroke:#000000;stroke-width:1.25;stroke-linecap:butt;stroke-linejoin:miter;stroke-miterlimit:4;stroke-opacity:1;display:inline" />
    <path
       sodipodi:nodetypes="ccccc"
       id="path4732"
       d="m 475.00337,364.81625 c -27.4504,1.4198 -28.3969,13.7252 -28.3969,13.7252 0,9.9389 53.0076,4.7328 53.0076,4.7328 l 0,-16.0916 -24.6107,-2.3664 z"
       style="fill:#ffffff;fill-opacity:1;fill-rule:evenodd;stroke:#000000;stroke-width:1.25;stroke-linecap:butt;stroke-linejoin:miter;stroke-miterlimit:4;stroke-opacity:1;display:inline" />
    <path
       transform="matrix(1,0,0,1.138058,-116.26232,-338.42034)"
       d="m 643.56059,503.9519 a 29.545454,40.530304 0 1 1 -59.09091,0 29.545454,40.530304 0 1 1 59.09091,0 z"
       sodipodi:ry="40.530304"
       sodipodi:rx="29.545454"
       sodipodi:cy="503.9519"
       sodipodi:cx="614.01514"
       id="path4734"
       style="fill:#ffeec4;fill-opacity:1;stroke:#000000;stroke-width:1.25;stroke-miterlimit:4;stroke-opacity:1;display:inline"
       sodipodi:type="arc" />
    <path
       sodipodi:nodetypes="ccccccccc"
       id="path4736"
       d="m 499.27867,366.81085 c 7.8737,1.3577 13.8554,1.4102 21.5917,0 0.853,-0.011 1.3256,-2.2067 1.235,-4.0097 0.024,-1.6159 0.012,-3.5377 -0.6454,-4.4901 -0.5319,-0.6978 -1.1619,-0.3161 -1.7441,-0.4147 -8.1533,1.783 -11.5937,1.5152 -20.4372,0 -0.853,0.011 -1.3256,2.2068 -1.235,4.0099 -0.024,1.6158 -0.012,3.5375 0.6454,4.4899 0.1747,0.2661 0.3813,0.4165 0.5896,0.4147 z"
       style="fill:#ff8c00;fill-opacity:1;stroke:#000000;stroke-width:1.25;stroke-miterlimit:4;stroke-opacity:1;display:inline" />
    <path
       sodipodi:nodetypes="ccccccccc"
       id="path4738"
       d="m 476.55137,367.56845 c 7.8737,1.3576 13.8554,1.4102 21.5917,0 0.853,-0.011 1.3257,-2.2068 1.2351,-4.0097 0.024,-1.6159 0.012,-3.5377 -0.6454,-4.4902 -0.5319,-0.6977 -1.162,-0.316 -1.7441,-0.4146 -8.1534,1.783 -11.5938,1.5151 -20.4373,0 -0.853,0.011 -1.3256,2.2068 -1.235,4.0099 -0.024,1.6158 -0.012,3.5375 0.6454,4.4899 0.1747,0.2661 0.3813,0.4165 0.5896,0.4147 z"
       style="fill:#ff8c00;fill-opacity:1;stroke:#000000;stroke-width:1.25;stroke-miterlimit:4;stroke-opacity:1;display:inline" />
    <path
       sodipodi:nodetypes="ccccccccccccccccc"
       id="path4740"
       d="m 469.99617,235.90555 -5.2447,11.6488 8.2499,-9.5633 -2.6209,12.5721 13.3058,-14.31 18.4527,18.158 -3.1266,-13.9871 10.9043,18.7513 0.4484,-13.7064 6.1081,16.1496 2.8668,-11.9366 c 2.0035,4.1708 4.081,28.6273 4.081,28.6273 l 1.6122,-20.8368 c 0.6678,1.7378 3.3963,25.0076 3.3963,25.0076 l 0,-9.0368 c 2.6713,-36.1474 -0.6678,-37.5377 -0.6678,-37.5377 l -57.7655,0 z"
       style="fill:#ffff00;fill-opacity:1;fill-rule:evenodd;stroke:#000000;stroke-width:1.25;stroke-linecap:butt;stroke-linejoin:miter;stroke-miterlimit:4;stroke-opacity:1;display:inline" />
    <g
       transform="translate(-451.48963,-268.27764)"
       id="g4742"
       style="display:inline">
      <path
         sodipodi:open="true"
         sodipodi:end="3.1415927"
         sodipodi:start="0"
         transform="matrix(1,0,0,-1.138058,335.2273,1077.342)"
         d="m 643.56059,503.9519 c 0,22.38427 -13.22795,40.53031 -29.54545,40.53031 -16.31751,0 -29.54546,-18.14604 -29.54546,-40.53031 0,0 0,0 0,0"
         sodipodi:ry="40.530304"
         sodipodi:rx="29.545454"
         sodipodi:cy="503.9519"
         sodipodi:cx="614.01514"
         id="path4744"
         style="fill:#ff0000;fill-opacity:1;stroke:#000000;stroke-width:1.25;stroke-miterlimit:4;stroke-opacity:1"
         sodipodi:type="arc" />
      <path
         sodipodi:nodetypes="ccccccccc"
         id="path4746"
         d="m 919.18064,496.12998 c 9.11503,-2.31229 22.9649,-4.82671 60.29962,0 2.38226,0.0147 3.70219,2.96949 3.44916,5.39574 0.0671,2.1743 0.0333,4.76027 -1.80245,6.04188 -1.48547,0.93887 -3.24492,0.42525 -4.87077,0.55802 -39.29034,-5.4995 -51.49734,-2.46919 -57.07556,-2e-5 -2.38226,-0.0147 -3.70218,-2.96948 -3.44915,-5.39573 -0.0671,-2.17429 -0.0333,-4.76026 1.80245,-6.04187 0.48798,-0.35801 1.06497,-0.56033 1.6467,-0.55802 z"
         style="fill:#ff8c00;fill-opacity:1;stroke:#000000;stroke-width:1.3600812;stroke-miterlimit:4;stroke-opacity:1" />
    </g>
    <g
       transform="translate(-126.86842,-267.14124)"
       id="g4748"
       style="display:inline">
      <path
         d="m 602.12989,530.86845 c 4.92665,-5.60302 3.20474,3.61349 2.69071,0.88757 1.9602,-2.34669 2.95818,-2.51226 5.54437,-1.69045 -0.0209,-0.0289 -0.0417,-0.0579 -0.0626,-0.0868 l 0.67636,1.37229 c -0.24207,0.0801 -0.48415,0.16018 -0.72622,0.24027 -2.79162,-0.64108 -2.07842,-1.23608 -4.52736,1.39857 -5.38134,3.48665 2.58736,-7.9687 -2.51341,-1.03965 l -1.08182,-1.08182 z"
         id="path4750"
         style="fill:#000000;fill-opacity:1;fill-rule:nonzero;stroke:none" />
      <path
         d="m 614.56728,529.29973 c 2.27316,-2.20018 3.10381,3.15946 2.40404,0.88226 2.38249,0.0162 2.29496,-0.69063 4.56975,-1.09388 0.62368,0.16192 1.16571,0.49085 1.73274,0.77392 l -0.62753,1.3953 c -0.31635,-0.15756 -0.94462,-0.42072 -1.08062,-0.63949 -1.31256,0.34406 -2.45151,1.02431 -3.50032,0.63363 -3.33506,2.9186 -3.05186,-3.8383 -1.32754,-1.64483 0.0946,0.12036 -1.40504,0.86484 -1.32188,0.96607 l -0.84864,-1.27298 z"
         id="path4752"
         style="fill:#000000;fill-opacity:1;fill-rule:nonzero;stroke:none" />
    </g>
    <g
       transform="translate(-122.70172,-268.27764)"
       style="fill:#000000;fill-opacity:1;stroke:none;display:inline"
       id="g4754">
      <path
         d="m 607.2367,545.43155 c -1.15458,1.83076 -2.3091,3.66086 -3.4138,5.52225 l -0.87701,-0.52072 c 1.10622,-1.86229 2.25997,-3.69473 3.41621,-5.52629 l 0.8746,0.52476 z"
         id="path4756"
         style="fill-rule:nonzero" />
      <path
         d="m 608.99652,546.06684 c -0.91679,1.92189 -1.26918,4.02666 -1.59277,6.11116 l -1.00782,-0.15677 c 0.34111,-2.18849 0.72023,-4.39522 1.68832,-6.41052 l 0.91227,0.45613 z"
         id="path4758"
         style="fill-rule:nonzero" />
      <path
         d="m 611.04396,546.76599 c -0.65137,2.87861 -0.44213,5.79948 -0.36996,8.7193 l -1.01964,0.0252 c -0.0743,-3.01141 -0.27866,-6.02436 0.4001,-8.99185 l 0.9895,0.24737 z"
         id="path4760"
         style="fill-rule:nonzero" />
      <path
         d="m 614.08554,545.87855 c 1.01997,2.17067 1.39211,4.55818 1.91622,6.87879 l -0.9949,0.22465 c -0.50582,-2.24051 -0.86033,-4.54736 -1.83359,-6.6473 l 0.91227,-0.45614 z"
         id="path4762"
         style="fill-rule:nonzero" />
      <path
         d="m 617.37922,545.59664 c 2.42251,0.60363 3.30082,3.16147 4.26258,5.21685 l -0.92511,0.42951 c -0.81381,-1.74056 -1.50068,-3.80802 -3.33747,-4.62641 l 0,-1.01995 z"
         id="path4764"
         style="fill-rule:nonzero" />
      <path
         d="m 620.38768,547.50131 c -0.67972,-4.82708 3.62959,1.43543 4.47498,3.1077 l -0.90511,0.47018 c -0.64531,-1.3065 -4.4808,-6.9346 -2.62287,-3.95668 l -0.947,0.3788 z"
         id="path4766"
         style="fill-rule:nonzero" />
    </g>
    <path
       sodipodi:nodetypes="cccccccccccc"
       id="path4768"
       d="m 492.04677,290.59305 9.7692,6.0491 7.2922,-6.6794 20.4305,24.36025 -15.15329,5.41327 -3.91231,-16.36452 10.4185,43.3225 c -12.8227,7.5926 -41.273,0.4466 -41.273,0.4466 l 9.617,-42.8758 -3.84716,15.62295 -12.81826,-3.78991 19.47662,-25.50504 z"
       style="fill:#00ff15;fill-opacity:1;fill-rule:evenodd;stroke:#000000;stroke-width:1.25;stroke-linecap:butt;stroke-linejoin:miter;stroke-miterlimit:4;stroke-opacity:1;display:inline" />
    <g
       transform="matrix(0.640057,0.383722,-0.30692,0.64132,289.33947,-290.08864)"
       id="g4770"
       style="display:inline">
      <path
         d="m 599.7744,582.6047 c 8.48204,6.77683 10.32365,18.11363 11.58749,28.27131 l -3.89684,0.74104 c -1.15456,-9.08236 -2.47927,-19.44086 -9.89097,-25.71188 l 2.20032,-3.30047 z"
         id="path4772"
         style="fill:#f0ff00;fill-opacity:1;fill-rule:nonzero;stroke:none" />
      <path
         d="m 592.0493,592.28293 c -2.32045,-10.48305 13.57833,-19.65261 22.425,-14.72572 8.3399,4.2453 -5.41921,23.47417 -8.49745,19.57803 -3.77774,-4.78149 4.4829,-8.92534 7.72314,-9.36408 7.88402,-0.50313 14.02952,2.76484 12.25065,11.30764 -2.33312,5.61955 -8.68072,7.67873 -14.13188,9.06608 l -0.95292,-3.8505 c 4.06438,-0.97145 8.82209,-2.38464 11.20928,-6.06105 0.91383,-5.76611 -2.2474,-6.64165 -7.89904,-6.52418 -2.05624,0.30486 -3.4156,2.57324 -4.70891,2.8346 -7.94888,1.60635 7.5184,-8.72489 2.96726,-13.58458 -5.86299,-4.00758 -16.11336,3.3856 -16.98374,9.28292 l -3.40139,2.04084 z"
         id="path4774"
         style="fill:#f0ff00;fill-opacity:1;fill-rule:nonzero;stroke:none" />
    </g>
    <rect
       style="fill:#eeeeec;fill-opacity:1;stroke:#000000;stroke-width:1;stroke-miterlimit:4;stroke-opacity:1;stroke-dasharray:none"
       id="rect3682"
       width="357.1167"
       height="372.81409"
       x="712.27112"
       y="-5.3791518"
       rx="15.548299"
       ry="10.315682" />
    <text
       xml:space="preserve"
       style="font-size:189.67201233000000116px;font-style:normal;font-variant:normal;font-weight:normal;font-stretch:normal;text-align:center;line-height:100%;writing-mode:lr-tb;text-anchor:middle;fill:#3a7204;fill-opacity:1;stroke:none;filter:url(#filter3666);font-family:DigitalStrip;-inkscape-font-specification:DigitalStrip"
       x="910.03607"
       y="284.21701"
       id="text3657"
       sodipodi:linespacing="100%"><tspan
         sodipodi:role="line"
         id="tspan3659"
         x="910.03607"
         y="284.21701">:P</tspan></text>
    <path
       style="fill:#c17d11;fill-opacity:1;stroke:#000000;stroke-width:1;stroke-miterlimit:4;stroke-opacity:1;stroke-dasharray:none"
       d="m 710.17447,64.314894 82.55213,-2.261703 14.70106,297.413829 -93.86064,7.91596 -3.39255,-303.068086 z"
       id="path3688" />
    <path
       id="path3690"
       d="m 711.8383,105.18404 50.8883,-1.13085 14.70106,297.41383 -63.32766,2.2617 -2.2617,-298.54468 z"
       style="fill:#000000;fill-opacity:1;stroke:#000000;stroke-width:1;stroke-miterlimit:4;stroke-opacity:1;stroke-dasharray:none"
       sodipodi:nodetypes="ccccc" />
    <g
       transform="matrix(-0.4651787,0.8852168,-0.8852168,-0.4651787,1383.5528,660.95764)"
       id="g4581">
      <g
         id="g4583"
         inkscape:transform-center-x="-6.6507783"
         inkscape:transform-center-y="-6.1622439"
         transform="matrix(0.6557502,-0.05498409,0.05498409,0.6557502,-932.21721,283.43809)">
        <rect
           transform="matrix(0.6198235,0.7847413,-0.7847413,0.6198235,0,0)"
           style="fill:#cccccc;fill-opacity:1;fill-rule:nonzero;stroke:#000000;stroke-width:1;stroke-linecap:butt;stroke-linejoin:round;stroke-miterlimit:4;stroke-opacity:1;stroke-dasharray:none"
           id="rect4586"
           width="5.9731178"
           height="31.785524"
           x="2084.4009"
           y="-435.39514"
           ry="4.1980953"
           rx="4.1980953" />
        <path
           style="fill:#ffffff;fill-opacity:1;fill-rule:nonzero;stroke:none"
           d="m 1618.8049,1383.8827 13.0267,-10.8737 -0.7427,-0.2194 -12.1886,10.0342 -0.095,1.0589 z"
           id="path4589" />
      </g>
      <g
         id="g4591"
         transform="matrix(0.00456249,-0.6580355,0.6580355,0.00456249,-719.42452,2159.3041)"
         inkscape:transform-center-x="6.5510517"
         inkscape:transform-center-y="8.6773905">
        <rect
           transform="matrix(0.584065,-0.8117069,0.8117069,0.584065,0,0)"
           rx="4.1980953"
           ry="4.1980953"
           y="2086.7573"
           x="-187.26065"
           height="31.785521"
           width="5.9731174"
           id="rect4593"
           style="fill:#cccccc;fill-opacity:1;fill-rule:nonzero;stroke:#000000;stroke-width:0.99999994;stroke-linecap:butt;stroke-linejoin:round;stroke-miterlimit:4;stroke-opacity:1;stroke-dasharray:none" />
        <path
           id="path4595"
           d="m 1587.8529,1372.1075 17.6564,12.7047 0.035,-0.9921 -16.3468,-11.932 -1.3451,0.2194 z"
           style="fill:#ffffff;fill-opacity:1;fill-rule:nonzero;stroke:none" />
      </g>
      <g
         id="g4597"
         transform="matrix(0.5648622,0.337583,-0.337583,0.5648622,-241.38586,-223.42352)">
        <path
           sodipodi:type="arc"
           style="fill:#cccccc;fill-opacity:1;fill-rule:nonzero;stroke:#000000;stroke-width:1.29999959;stroke-linecap:butt;stroke-linejoin:round;stroke-miterlimit:4;stroke-opacity:1;stroke-dasharray:none"
           id="path4599"
           sodipodi:cx="223.90565"
           sodipodi:cy="121.57761"
           sodipodi:rx="7.873302"
           sodipodi:ry="7.873302"
           d="m 231.77896,121.57761 c 0,4.3483 -3.525,7.8733 -7.87331,7.8733 -4.3483,0 -7.8733,-3.525 -7.8733,-7.8733 0,-4.34831 3.525,-7.87331 7.8733,-7.87331 4.34831,0 7.87331,3.525 7.87331,7.87331 z"
           transform="matrix(0.4492809,-0.6243902,0.6243902,0.4492809,1435.5154,1471.7425)" />
        <path
           transform="matrix(0.100465,-0.1396217,0.1396217,0.100465,1570.2308,1407.7417)"
           d="m 231.77896,121.57761 c 0,4.3483 -3.525,7.8733 -7.87331,7.8733 -4.3483,0 -7.8733,-3.525 -7.8733,-7.8733 0,-4.34831 3.525,-7.87331 7.8733,-7.87331 4.34831,0 7.87331,3.525 7.87331,7.87331 z"
           sodipodi:ry="7.873302"
           sodipodi:rx="7.873302"
           sodipodi:cy="121.57761"
           sodipodi:cx="223.90565"
           id="path4601"
           style="fill:#ffffff;fill-opacity:1;fill-rule:nonzero;stroke:none"
           sodipodi:type="arc" />
      </g>
      <g
         id="g4603"
         inkscape:transform-center-x="-17.066912"
         inkscape:transform-center-y="-19.98967"
         transform="matrix(0.6557502,-0.05498409,0.05498409,0.6557502,-932.21721,283.43809)">
        <path
           id="path4605"
           d="m 1625.4971,1352.8929 0.5416,6.395 7.0293,4.1959 3.4203,-1.82 -6.9328,-3.7101 -0.2013,-5.0501 -3.8571,-0.011 z m 9.2208,-7.2783 4.5526,7.3487 -1.1071,6.9924 2.5946,0.8562 1.1937,-8.4761 -2.7863,-10.2992 -4.4475,3.578 z m 8.3995,17.5787 1.1011,1.9815 6.2365,-4.1637 5.2605,1.4069 0.3081,-4.6837 -6.2947,0.7327 -6.6115,4.7263 z m 0.1646,5.8859 0.1823,1.6473 4.2144,0.5056 2.3307,3.3716 2.5594,-1.9043 -3.725,-3.3343 -5.5618,-0.2859 z"
           style="fill:#cccccc;fill-opacity:1;fill-rule:nonzero;stroke:#000000;stroke-width:0.99999994;stroke-linecap:butt;stroke-linejoin:round;stroke-miterlimit:4;stroke-opacity:1;stroke-dasharray:none" />
        <path
           transform="matrix(0.5580852,-0.7756015,0.7756015,0.5580852,1418.3319,1472.7115)"
           d="m 231.77896,121.57761 c 0,4.3483 -3.525,7.8733 -7.87331,7.8733 -4.3483,0 -7.8733,-3.525 -7.8733,-7.8733 0,-4.34831 3.525,-7.87331 7.8733,-7.87331 4.34831,0 7.87331,3.525 7.87331,7.87331 z"
           sodipodi:ry="7.873302"
           sodipodi:rx="7.873302"
           sodipodi:cy="121.57761"
           sodipodi:cx="223.90565"
           id="path4607"
           style="fill:#cccccc;fill-opacity:1;fill-rule:nonzero;stroke:#000000;stroke-width:1.04655123;stroke-linecap:butt;stroke-linejoin:round;stroke-miterlimit:4;stroke-opacity:1;stroke-dasharray:none"
           sodipodi:type="arc" />
        <path
           sodipodi:type="arc"
           style="fill:#ffffff;fill-opacity:1;fill-rule:nonzero;stroke:none"
           id="path4609"
           sodipodi:cx="223.90565"
           sodipodi:cy="121.57761"
           sodipodi:rx="7.873302"
           sodipodi:ry="7.873302"
           d="m 231.77896,121.57761 c 0,4.3483 -3.525,7.8733 -7.87331,7.8733 -4.3483,0 -7.8733,-3.525 -7.8733,-7.8733 0,-4.34831 3.525,-7.87331 7.8733,-7.87331 4.34831,0 7.87331,3.525 7.87331,7.87331 z"
           transform="matrix(0.2150335,-0.2988437,0.2988437,0.2150335,1556.3475,1410.0025)" />
      </g>
    </g>
    <path
       id="path4611"
       d="m 288.77153,281.73784 -1.41985,16.0916 -8.99236,4.2596 11.83206,15.145 11.83205,-16.0916 -9.93892,-4.2595 1.41984,-13.2519 -4.73282,-1.8932 z"
       style="fill:#ffe5b9;fill-opacity:1;fill-rule:evenodd;stroke:#000000;stroke-width:1.25;stroke-linecap:butt;stroke-linejoin:miter;stroke-miterlimit:4;stroke-opacity:1;display:inline" />
    <path
       transform="matrix(-1.031733,0,0,0.716766,377.6219,-118.64465)"
       d="m 61.526698,525.42224 a 6.8625937,6.8625937 0 1 1 -13.725187,0 6.8625937,6.8625937 0 1 1 13.725187,0 z"
       sodipodi:ry="6.8625937"
       sodipodi:rx="6.8625937"
       sodipodi:cy="525.42224"
       sodipodi:cx="54.664104"
       id="path4613"
       style="fill:#ffe5b9;fill-opacity:1;stroke:#000000;stroke-width:1.25;stroke-miterlimit:4;stroke-opacity:1;display:inline"
       sodipodi:type="arc" />
    <path
       transform="matrix(-1,0,0,1,375.6506,-268.17515)"
       d="m 136.3053,524.94897 a 6.6259522,5.4427466 0 1 1 -13.2519,0 6.6259522,5.4427466 0 1 1 13.2519,0 z"
       sodipodi:ry="5.4427466"
       sodipodi:rx="6.6259522"
       sodipodi:cy="524.94897"
       sodipodi:cx="129.67935"
       id="path4615"
       style="fill:#ffe5b9;fill-opacity:1;stroke:#000000;stroke-width:1.25;stroke-miterlimit:4;stroke-opacity:1;display:inline"
       sodipodi:type="arc" />
    <path
       id="path4617"
       d="m 270.31352,320.07374 -6.15267,16.5649 c -9.93893,2.3664 -3.78626,11.8321 -3.78626,11.8321 8.51908,3.3129 11.35878,-0.9466 11.35878,-0.9466 l 5.2061,-27.4504 -6.62595,0 z"
       style="fill:#ffe5b9;fill-opacity:1;fill-rule:evenodd;stroke:#000000;stroke-width:1.25;stroke-linecap:butt;stroke-linejoin:miter;stroke-miterlimit:4;stroke-opacity:1;display:inline" />
    <path
       transform="matrix(-0.669126,0,0,0.694018,349.7866,-105.12655)"
       d="m 150.97705,518.55963 a 51.824413,51.587772 0 1 1 -103.648822,0 51.824413,51.587772 0 1 1 103.648822,0 z"
       sodipodi:ry="51.587772"
       sodipodi:rx="51.824413"
       sodipodi:cy="518.55963"
       sodipodi:cx="99.152641"
       id="path4619"
       style="fill:#ffe5b9;fill-opacity:1;stroke:#000000;stroke-width:1.83430135;stroke-miterlimit:4;stroke-opacity:1;display:inline"
       sodipodi:type="arc" />
    <path
       transform="matrix(-1,0,0,1,370.9283,-252.82475)"
       d="m 97.022873,504.59781 a 17.038162,17.274805 0 1 1 -34.076325,0 17.038162,17.274805 0 1 1 34.076325,0 z"
       sodipodi:ry="17.274805"
       sodipodi:rx="17.038162"
       sodipodi:cy="504.59781"
       sodipodi:cx="79.984711"
       id="path4621"
       style="fill:#ffffff;fill-opacity:1;stroke:#000000;stroke-width:1.25;stroke-miterlimit:4;stroke-opacity:1;display:inline"
       sodipodi:type="arc" />
    <path
       transform="matrix(-1,0,0,1,370.9283,-251.87815)"
       d="m 122.10684,504.59781 a 12.541981,13.488545 0 1 1 -25.083963,0 12.541981,13.488545 0 1 1 25.083963,0 z"
       sodipodi:ry="13.488545"
       sodipodi:rx="12.541981"
       sodipodi:cy="504.59781"
       sodipodi:cx="109.56486"
       id="path4623"
       style="fill:#ffffff;fill-opacity:1;stroke:#000000;stroke-width:1.25;stroke-miterlimit:4;stroke-opacity:1;display:inline"
       sodipodi:type="arc" />
    <path
       d="m 293.28511,224.98145 c 10.22427,1.29323 -14.24479,-11.92298 -17.61666,-12.48612 3.12724,4.25973 6.82041,8.11439 10.72759,11.67232 -10.1314,-6.34016 -23.14245,-12.91201 -6.14165,1.4311 -2.03639,1.0797 -15.11898,-8.41698 -21.55879,-6.21998 l 0.48779,1.26061 c 5.21281,-0.60661 23.3439,9.75916 21.94156,3.92534 -16.16042,-13.57866 -5.90999,-3.86282 4.66402,0.81063 4.57073,-1.38875 -6.57739,-11.87293 -10.01079,-11.53278 2.83935,0.84693 24.52163,13.45539 18.00894,9.88386 l -0.50201,1.25502 z"
       id="path4625"
       style="fill:#000000;fill-opacity:1;fill-rule:nonzero;stroke:none;display:inline" />
    <g
       transform="matrix(-1,0,0,1,372.75417,-271.56035)"
       id="g4627"
       style="display:inline">
      <path
         sodipodi:nodetypes="ccccc"
         id="path4629"
         d="m 61.053417,633.09397 c -27.450373,1.41984 -28.396938,13.72518 -28.396938,13.72518 0,9.93893 53.007618,4.73283 53.007618,4.73283 l 0,-16.0916 -24.61068,-2.36641 z"
         style="fill:#ffffff;fill-opacity:1;fill-rule:evenodd;stroke:#000000;stroke-width:1.25;stroke-linecap:butt;stroke-linejoin:miter;stroke-miterlimit:4;stroke-opacity:1" />
      <path
         d="m 47.091589,633.83797 c 9.893039,0.78197 14.224398,7.86493 10.715804,16.84466 l -1.257949,-0.49461 c 3.200515,-8.08553 -0.483228,-14.23165 -9.457855,-14.99836 l 0,-1.35169 z"
         id="path4631"
         style="fill:#000000;fill-opacity:1;fill-rule:nonzero;stroke:none" />
      <path
         d="m 55.137389,632.8914 c 11.544289,10e-4 15.765416,9.1204 11.336914,19.12686 l -1.23562,-0.54802 c 4.057666,-9.12836 0.507066,-17.22984 -10.101294,-17.22714 l 0,-1.3517 z"
         id="path4633"
         style="fill:#000000;fill-opacity:1;fill-rule:nonzero;stroke:none" />
    </g>
    <g
       transform="translate(201.40327,-271.56035)"
       id="g4635"
       style="display:inline">
      <path
         sodipodi:nodetypes="ccccc"
         id="path4637"
         d="m 61.053417,633.09397 c -27.450373,1.41984 -28.396938,13.72518 -28.396938,13.72518 0,9.93893 53.007618,4.73283 53.007618,4.73283 l 0,-16.0916 -24.61068,-2.36641 z"
         style="fill:#ffffff;fill-opacity:1;fill-rule:evenodd;stroke:#000000;stroke-width:1.25;stroke-linecap:butt;stroke-linejoin:miter;stroke-miterlimit:4;stroke-opacity:1" />
      <path
         d="m 47.091589,633.83797 c 9.893039,0.78197 14.224398,7.86493 10.715804,16.84466 l -1.257949,-0.49461 c 3.200515,-8.08553 -0.483228,-14.23165 -9.457855,-14.99836 l 0,-1.35169 z"
         id="path4639"
         style="fill:#000000;fill-opacity:1;fill-rule:nonzero;stroke:none" />
      <path
         d="m 55.137389,632.8914 c 11.544289,10e-4 15.765416,9.1204 11.336914,19.12686 l -1.23562,-0.54802 c 4.057666,-9.12836 0.507066,-17.22984 -10.101294,-17.22714 l 0,-1.3517 z"
         id="path4641"
         style="fill:#000000;fill-opacity:1;fill-rule:nonzero;stroke:none" />
    </g>
    <g
       transform="translate(202.16087,-272.31795)"
       id="g4643"
       style="display:inline">
      <path
         transform="matrix(0.859835,0,0,0.909951,14.03942,35.05921)"
         id="path4645"
         d="m 62.946547,630.72755 -9.465646,26.50381 c 9.938928,4.73283 29.816785,2.8397 29.816785,2.8397 10.412211,5.67939 32.183194,-1.41985 32.183194,-1.41985 l -8.99236,-32.1832 -43.541973,4.25954 z"
         style="fill:#ffffff;fill-opacity:1;fill-rule:evenodd;stroke:#000000;stroke-width:1.41316688;stroke-linecap:butt;stroke-linejoin:miter;stroke-miterlimit:4;stroke-opacity:1" />
      <path
         transform="matrix(0.859835,0,0,0.909951,14.03942,35.05921)"
         id="path4647"
         d="m 79.038145,636.40694 -2.839694,9.93893 16.091599,-1.41985"
         style="fill:none;stroke:#000000;stroke-width:1.41316688;stroke-linecap:butt;stroke-linejoin:miter;stroke-miterlimit:4;stroke-opacity:1" />
      <path
         transform="matrix(0.859835,0,0,0.909951,14.03942,35.05921)"
         id="path4649"
         d="m 85.664097,635.93366 -2.366411,23.66412"
         style="fill:none;stroke:#000000;stroke-width:1.41316688;stroke-linecap:butt;stroke-linejoin:miter;stroke-miterlimit:4;stroke-opacity:1" />
    </g>
    <path
       sodipodi:nodetypes="cccccccccccc"
       id="path4651"
       d="m 280.5863,298.47414 8.41488,5.2236 13.22339,-4.8971 12.42197,17.6297 -11.62055,4.2443 -3.20567,-13.7121 10.41842,31.6683 c -12.82268,5.5501 -41.273,0.3265 -41.273,0.3265 l 9.61701,-31.3418 -4.00709,14.365 -11.62055,-4.2442 17.63119,-19.2622 z"
       style="fill:#ff9f00;fill-opacity:1;fill-rule:evenodd;stroke:#000000;stroke-width:1.25;stroke-linecap:butt;stroke-linejoin:miter;stroke-miterlimit:4;stroke-opacity:1;display:inline" />
    <g
       transform="matrix(1.580161,0,0,1.580161,154.14657,-618.14424)"
       id="g4653"
       style="display:inline">
      <path
         d="m 79.568221,591.68176 c 3.270418,-5.30277 7.03816,8.14058 7.328073,11.12372 l -2.242542,0.21499 c -0.295658,-3.13174 -1.328754,-5.92497 -2.878956,-8.66548 -0.552855,-0.97736 -2.623264,-1.88937 -1.922132,-2.76646 1.775563,-2.22117 1.946714,-1.0902 1.968381,0.0932 l -2.252824,0 z"
         id="path4655"
         style="fill:#0f00ff;fill-opacity:1;fill-rule:nonzero;stroke:none" />
      <path
         d="m 78.527773,594.98355 c 2.008421,-1.83927 12.204236,-10.70096 13.206035,-5.40678 l -2.074777,-0.87779 c 1.010699,1.98701 -0.0315,0.7243 1.200209,1.14462 0.307451,0.10492 -11.818523,5.92023 -10.6008,6.58218 l -1.730667,-1.44223 z"
         id="path4657"
         style="fill:#0f00ff;fill-opacity:1;fill-rule:nonzero;stroke:none" />
      <path
         d="m 80.15824,596.56287 c 3.164958,-1.82212 7.71847,-3.53287 11.404416,-2.23908 l -0.896834,2.06662 c -3.122678,-0.32624 -6.472418,0.18755 -9.198155,2.00566 l -1.309427,-1.8332 z"
         id="path4659"
         style="fill:#0f00ff;fill-opacity:1;fill-rule:nonzero;stroke:none" />
    </g>
    <path
       transform="matrix(-0.8891,0,0,0.8891,352.7178,-210.13455)"
       d="m 78.98003,525.00787 a 4.0159335,4.0159335 0 1 1 -8.031867,0 4.0159335,4.0159335 0 1 1 8.031867,0 z"
       sodipodi:ry="4.0159335"
       sodipodi:rx="4.0159335"
       sodipodi:cy="525.00787"
       sodipodi:cx="74.964096"
       id="path4661"
       style="fill:#ffffff;fill-opacity:1;stroke:#000000;stroke-width:4.21774817;stroke-miterlimit:4;stroke-opacity:1;display:inline"
       sodipodi:type="arc" />
    <path
       transform="matrix(-0.8891,0,0,0.8891,321.5943,-209.79995)"
       d="m 78.98003,525.00787 a 4.0159335,4.0159335 0 1 1 -8.031867,0 4.0159335,4.0159335 0 1 1 8.031867,0 z"
       sodipodi:ry="4.0159335"
       sodipodi:rx="4.0159335"
       sodipodi:cy="525.00787"
       sodipodi:cx="74.964096"
       id="path4663"
       style="fill:#ffffff;fill-opacity:1;stroke:#000000;stroke-width:4.21774817;stroke-miterlimit:4;stroke-opacity:1;display:inline"
       sodipodi:type="arc" />
    <path
       style="fill:#ffe5b9;fill-opacity:1;stroke:#000000;stroke-width:1;stroke-miterlimit:4;stroke-opacity:1;stroke-dasharray:none"
       d="m 275.134,279.09266 -1.88451,4.8997 c 5.89888,0.97584 16.89443,1.29172 25.25231,-1.50759"
       id="path4706"
       sodipodi:nodetypes="ccc" />
    <g
       id="g4780"
       transform="matrix(-0.4651787,0.8852168,-0.8852168,-0.4651787,1723.5528,660.95764)">
      <g
         transform="matrix(0.6557502,-0.05498409,0.05498409,0.6557502,-932.21721,283.43809)"
         inkscape:transform-center-y="-6.1622439"
         inkscape:transform-center-x="-6.6507783"
         id="g4782">
        <rect
           rx="4.1980953"
           ry="4.1980953"
           y="-435.39514"
           x="2084.4009"
           height="31.785524"
           width="5.9731178"
           id="rect4784"
           style="fill:#cccccc;fill-opacity:1;fill-rule:nonzero;stroke:#000000;stroke-width:1;stroke-linecap:butt;stroke-linejoin:round;stroke-miterlimit:4;stroke-opacity:1;stroke-dasharray:none"
           transform="matrix(0.6198235,0.7847413,-0.7847413,0.6198235,0,0)" />
        <path
           id="path4786"
           d="m 1618.8049,1383.8827 13.0267,-10.8737 -0.7427,-0.2194 -12.1886,10.0342 -0.095,1.0589 z"
           style="fill:#ffffff;fill-opacity:1;fill-rule:nonzero;stroke:none" />
      </g>
      <g
         inkscape:transform-center-y="8.6773905"
         inkscape:transform-center-x="6.5510517"
         transform="matrix(0.00456249,-0.6580355,0.6580355,0.00456249,-719.42452,2159.3041)"
         id="g4788">
        <rect
           style="fill:#cccccc;fill-opacity:1;fill-rule:nonzero;stroke:#000000;stroke-width:0.99999994;stroke-linecap:butt;stroke-linejoin:round;stroke-miterlimit:4;stroke-opacity:1;stroke-dasharray:none"
           id="rect4790"
           width="5.9731174"
           height="31.785521"
           x="-187.26065"
           y="2086.7573"
           ry="4.1980953"
           rx="4.1980953"
           transform="matrix(0.584065,-0.8117069,0.8117069,0.584065,0,0)" />
        <path
           style="fill:#ffffff;fill-opacity:1;fill-rule:nonzero;stroke:none"
           d="m 1587.8529,1372.1075 17.6564,12.7047 0.035,-0.9921 -16.3468,-11.932 -1.3451,0.2194 z"
           id="path4792" />
      </g>
      <g
         transform="matrix(0.5648622,0.337583,-0.337583,0.5648622,-241.38586,-223.42352)"
         id="g4794">
        <path
           transform="matrix(0.4492809,-0.6243902,0.6243902,0.4492809,1435.5154,1471.7425)"
           d="m 231.77896,121.57761 c 0,4.3483 -3.525,7.8733 -7.87331,7.8733 -4.3483,0 -7.8733,-3.525 -7.8733,-7.8733 0,-4.34831 3.525,-7.87331 7.8733,-7.87331 4.34831,0 7.87331,3.525 7.87331,7.87331 z"
           sodipodi:ry="7.873302"
           sodipodi:rx="7.873302"
           sodipodi:cy="121.57761"
           sodipodi:cx="223.90565"
           id="path4796"
           style="fill:#cccccc;fill-opacity:1;fill-rule:nonzero;stroke:#000000;stroke-width:1.29999959;stroke-linecap:butt;stroke-linejoin:round;stroke-miterlimit:4;stroke-opacity:1;stroke-dasharray:none"
           sodipodi:type="arc" />
        <path
           sodipodi:type="arc"
           style="fill:#ffffff;fill-opacity:1;fill-rule:nonzero;stroke:none"
           id="path4798"
           sodipodi:cx="223.90565"
           sodipodi:cy="121.57761"
           sodipodi:rx="7.873302"
           sodipodi:ry="7.873302"
           d="m 231.77896,121.57761 c 0,4.3483 -3.525,7.8733 -7.87331,7.8733 -4.3483,0 -7.8733,-3.525 -7.8733,-7.8733 0,-4.34831 3.525,-7.87331 7.8733,-7.87331 4.34831,0 7.87331,3.525 7.87331,7.87331 z"
           transform="matrix(0.100465,-0.1396217,0.1396217,0.100465,1570.2308,1407.7417)" />
      </g>
      <g
         transform="matrix(0.6557502,-0.05498409,0.05498409,0.6557502,-932.21721,283.43809)"
         inkscape:transform-center-y="-19.98967"
         inkscape:transform-center-x="-17.066912"
         id="g4800">
        <path
           style="fill:#cccccc;fill-opacity:1;fill-rule:nonzero;stroke:#000000;stroke-width:0.99999994;stroke-linecap:butt;stroke-linejoin:round;stroke-miterlimit:4;stroke-opacity:1;stroke-dasharray:none"
           d="m 1625.4971,1352.8929 0.5416,6.395 7.0293,4.1959 3.4203,-1.82 -6.9328,-3.7101 -0.2013,-5.0501 -3.8571,-0.011 z m 9.2208,-7.2783 4.5526,7.3487 -1.1071,6.9924 2.5946,0.8562 1.1937,-8.4761 -2.7863,-10.2992 -4.4475,3.578 z m 8.3995,17.5787 1.1011,1.9815 6.2365,-4.1637 5.2605,1.4069 0.3081,-4.6837 -6.2947,0.7327 -6.6115,4.7263 z m 0.1646,5.8859 0.1823,1.6473 4.2144,0.5056 2.3307,3.3716 2.5594,-1.9043 -3.725,-3.3343 -5.5618,-0.2859 z"
           id="path4802" />
        <path
           sodipodi:type="arc"
           style="fill:#cccccc;fill-opacity:1;fill-rule:nonzero;stroke:#000000;stroke-width:1.04655123;stroke-linecap:butt;stroke-linejoin:round;stroke-miterlimit:4;stroke-opacity:1;stroke-dasharray:none"
           id="path4804"
           sodipodi:cx="223.90565"
           sodipodi:cy="121.57761"
           sodipodi:rx="7.873302"
           sodipodi:ry="7.873302"
           d="m 231.77896,121.57761 c 0,4.3483 -3.525,7.8733 -7.87331,7.8733 -4.3483,0 -7.8733,-3.525 -7.8733,-7.8733 0,-4.34831 3.525,-7.87331 7.8733,-7.87331 4.34831,0 7.87331,3.525 7.87331,7.87331 z"
           transform="matrix(0.5580852,-0.7756015,0.7756015,0.5580852,1418.3319,1472.7115)" />
        <path
           transform="matrix(0.2150335,-0.2988437,0.2988437,0.2150335,1556.3475,1410.0025)"
           d="m 231.77896,121.57761 c 0,4.3483 -3.525,7.8733 -7.87331,7.8733 -4.3483,0 -7.8733,-3.525 -7.8733,-7.8733 0,-4.34831 3.525,-7.87331 7.8733,-7.87331 4.34831,0 7.87331,3.525 7.87331,7.87331 z"
           sodipodi:ry="7.873302"
           sodipodi:rx="7.873302"
           sodipodi:cy="121.57761"
           sodipodi:cx="223.90565"
           id="path4806"
           style="fill:#ffffff;fill-opacity:1;fill-rule:nonzero;stroke:none"
           sodipodi:type="arc" />
      </g>
    </g>
    <path
       style="fill:#ffe5b9;fill-opacity:1;fill-rule:evenodd;stroke:#000000;stroke-width:1.25;stroke-linecap:butt;stroke-linejoin:miter;stroke-miterlimit:4;stroke-opacity:1;display:inline"
       d="m 628.77153,281.73784 -1.41985,16.0916 -8.99236,4.2596 11.83206,15.145 11.83205,-16.0916 -9.93892,-4.2595 1.41984,-13.2519 -4.73282,-1.8932 z"
       id="path4808" />
    <path
       sodipodi:type="arc"
       style="fill:#ffe5b9;fill-opacity:1;stroke:#000000;stroke-width:1.25;stroke-miterlimit:4;stroke-opacity:1;display:inline"
       id="path4810"
       sodipodi:cx="54.664104"
       sodipodi:cy="525.42224"
       sodipodi:rx="6.8625937"
       sodipodi:ry="6.8625937"
       d="m 61.526698,525.42224 a 6.8625937,6.8625937 0 1 1 -13.725187,0 6.8625937,6.8625937 0 1 1 13.725187,0 z"
       transform="matrix(-1.031733,0,0,0.716766,717.6219,-118.64465)" />
    <path
       sodipodi:type="arc"
       style="fill:#ffe5b9;fill-opacity:1;stroke:#000000;stroke-width:1.25;stroke-miterlimit:4;stroke-opacity:1;display:inline"
       id="path4812"
       sodipodi:cx="129.67935"
       sodipodi:cy="524.94897"
       sodipodi:rx="6.6259522"
       sodipodi:ry="5.4427466"
       d="m 136.3053,524.94897 a 6.6259522,5.4427466 0 1 1 -13.2519,0 6.6259522,5.4427466 0 1 1 13.2519,0 z"
       transform="matrix(-1,0,0,1,715.6506,-268.17515)" />
    <path
       sodipodi:type="arc"
       style="fill:#ffe5b9;fill-opacity:1;stroke:#000000;stroke-width:1.83430135;stroke-miterlimit:4;stroke-opacity:1;display:inline"
       id="path4816"
       sodipodi:cx="99.152641"
       sodipodi:cy="518.55963"
       sodipodi:rx="51.824413"
       sodipodi:ry="51.587772"
       d="m 150.97705,518.55963 a 51.824413,51.587772 0 1 1 -103.648822,0 51.824413,51.587772 0 1 1 103.648822,0 z"
       transform="matrix(-0.669126,0,0,0.694018,689.7866,-105.12655)" />
    <path
       sodipodi:type="arc"
       style="fill:#ffffff;fill-opacity:1;stroke:#000000;stroke-width:1.25;stroke-miterlimit:4;stroke-opacity:1;display:inline"
       id="path4818"
       sodipodi:cx="79.984711"
       sodipodi:cy="504.59781"
       sodipodi:rx="17.038162"
       sodipodi:ry="17.274805"
       d="m 97.022873,504.59781 a 17.038162,17.274805 0 1 1 -34.076325,0 17.038162,17.274805 0 1 1 34.076325,0 z"
       transform="matrix(-1,0,0,1,710.9283,-252.82475)" />
    <path
       sodipodi:type="arc"
       style="fill:#ffffff;fill-opacity:1;stroke:#000000;stroke-width:1.25;stroke-miterlimit:4;stroke-opacity:1;display:inline"
       id="path4820"
       sodipodi:cx="109.56486"
       sodipodi:cy="504.59781"
       sodipodi:rx="12.541981"
       sodipodi:ry="13.488545"
       d="m 122.10684,504.59781 a 12.541981,13.488545 0 1 1 -25.083963,0 12.541981,13.488545 0 1 1 25.083963,0 z"
       transform="matrix(-1,0,0,1,710.9283,-251.87815)" />
    <path
       style="fill:#000000;fill-opacity:1;fill-rule:nonzero;stroke:none;display:inline"
       id="path4822"
       d="m 633.28511,224.98145 c 10.22427,1.29323 -14.24479,-11.92298 -17.61666,-12.48612 3.12724,4.25973 6.82041,8.11439 10.72759,11.67232 -10.1314,-6.34016 -23.14245,-12.91201 -6.14165,1.4311 -2.03639,1.0797 -15.11898,-8.41698 -21.55879,-6.21998 l 0.48779,1.26061 c 5.21281,-0.60661 23.3439,9.75916 21.94156,3.92534 -16.16042,-13.57866 -5.90999,-3.86282 4.66402,0.81063 4.57073,-1.38875 -6.57739,-11.87293 -10.01079,-11.53278 2.83935,0.84693 24.52163,13.45539 18.00894,9.88386 l -0.50201,1.25502 z" />
    <g
       style="display:inline"
       id="g4824"
       transform="translate(541.40327,-271.56035)">
      <path
         style="fill:#ffffff;fill-opacity:1;fill-rule:evenodd;stroke:#000000;stroke-width:1.25;stroke-linecap:butt;stroke-linejoin:miter;stroke-miterlimit:4;stroke-opacity:1"
         d="m 61.053417,633.09397 c -27.450373,1.41984 -28.396938,13.72518 -28.396938,13.72518 0,9.93893 53.007618,4.73283 53.007618,4.73283 l 0,-16.0916 -24.61068,-2.36641 z"
         id="path4826"
         sodipodi:nodetypes="ccccc" />
      <path
         style="fill:#000000;fill-opacity:1;fill-rule:nonzero;stroke:none"
         id="path4828"
         d="m 47.091589,633.83797 c 9.893039,0.78197 14.224398,7.86493 10.715804,16.84466 l -1.257949,-0.49461 c 3.200515,-8.08553 -0.483228,-14.23165 -9.457855,-14.99836 l 0,-1.35169 z" />
      <path
         style="fill:#000000;fill-opacity:1;fill-rule:nonzero;stroke:none"
         id="path4830"
         d="m 55.137389,632.8914 c 11.544289,10e-4 15.765416,9.1204 11.336914,19.12686 l -1.23562,-0.54802 c 4.057666,-9.12836 0.507066,-17.22984 -10.101294,-17.22714 l 0,-1.3517 z" />
    </g>
    <g
       style="display:inline"
       id="g4832"
       transform="translate(542.16087,-272.31795)">
      <path
         style="fill:#ffffff;fill-opacity:1;fill-rule:evenodd;stroke:#000000;stroke-width:1.41316688;stroke-linecap:butt;stroke-linejoin:miter;stroke-miterlimit:4;stroke-opacity:1"
         d="m 62.946547,630.72755 -9.465646,26.50381 c 9.938928,4.73283 29.816785,2.8397 29.816785,2.8397 10.412211,5.67939 32.183194,-1.41985 32.183194,-1.41985 l -8.99236,-32.1832 -43.541973,4.25954 z"
         id="path4834"
         transform="matrix(0.859835,0,0,0.909951,14.03942,35.05921)" />
      <path
         style="fill:none;stroke:#000000;stroke-width:1.41316688;stroke-linecap:butt;stroke-linejoin:miter;stroke-miterlimit:4;stroke-opacity:1"
         d="m 79.038145,636.40694 -2.839694,9.93893 16.091599,-1.41985"
         id="path4836"
         transform="matrix(0.859835,0,0,0.909951,14.03942,35.05921)" />
      <path
         style="fill:none;stroke:#000000;stroke-width:1.41316688;stroke-linecap:butt;stroke-linejoin:miter;stroke-miterlimit:4;stroke-opacity:1"
         d="m 85.664097,635.93366 -2.366411,23.66412"
         id="path4838"
         transform="matrix(0.859835,0,0,0.909951,14.03942,35.05921)" />
    </g>
    <path
       style="fill:#ff9f00;fill-opacity:1;fill-rule:evenodd;stroke:#000000;stroke-width:1.25;stroke-linecap:butt;stroke-linejoin:miter;stroke-miterlimit:4;stroke-opacity:1;display:inline"
       d="m 620.5863,298.47414 8.41488,5.2236 13.22339,-4.8971 12.42197,17.6297 -11.62055,4.2443 -3.20567,-13.7121 10.41842,31.6683 c -12.82268,5.5501 -41.273,0.3265 -41.273,0.3265 l 9.61701,-31.3418 -4.00709,14.365 -11.62055,-4.2442 17.63119,-19.2622 z"
       id="path4840"
       sodipodi:nodetypes="cccccccccccc" />
    <g
       style="display:inline"
       id="g4842"
       transform="matrix(1.580161,0,0,1.580161,494.14657,-618.14424)">
      <path
         style="fill:#0f00ff;fill-opacity:1;fill-rule:nonzero;stroke:none"
         id="path4844"
         d="m 79.568221,591.68176 c 3.270418,-5.30277 7.03816,8.14058 7.328073,11.12372 l -2.242542,0.21499 c -0.295658,-3.13174 -1.328754,-5.92497 -2.878956,-8.66548 -0.552855,-0.97736 -2.623264,-1.88937 -1.922132,-2.76646 1.775563,-2.22117 1.946714,-1.0902 1.968381,0.0932 l -2.252824,0 z" />
      <path
         style="fill:#0f00ff;fill-opacity:1;fill-rule:nonzero;stroke:none"
         id="path4846"
         d="m 78.527773,594.98355 c 2.008421,-1.83927 12.204236,-10.70096 13.206035,-5.40678 l -2.074777,-0.87779 c 1.010699,1.98701 -0.0315,0.7243 1.200209,1.14462 0.307451,0.10492 -11.818523,5.92023 -10.6008,6.58218 l -1.730667,-1.44223 z" />
      <path
         style="fill:#0f00ff;fill-opacity:1;fill-rule:nonzero;stroke:none"
         id="path4848"
         d="m 80.15824,596.56287 c 3.164958,-1.82212 7.71847,-3.53287 11.404416,-2.23908 l -0.896834,2.06662 c -3.122678,-0.32624 -6.472418,0.18755 -9.198155,2.00566 l -1.309427,-1.8332 z" />
    </g>
    <path
       sodipodi:type="arc"
       style="fill:#ffffff;fill-opacity:1;stroke:#000000;stroke-width:4.21774817;stroke-miterlimit:4;stroke-opacity:1;display:inline"
       id="path4850"
       sodipodi:cx="74.964096"
       sodipodi:cy="525.00787"
       sodipodi:rx="4.0159335"
       sodipodi:ry="4.0159335"
       d="m 78.98003,525.00787 a 4.0159335,4.0159335 0 1 1 -8.031867,0 4.0159335,4.0159335 0 1 1 8.031867,0 z"
       transform="matrix(-0.8891,0,0,0.8891,692.7178,-210.13455)" />
    <path
       sodipodi:type="arc"
       style="fill:#ffffff;fill-opacity:1;stroke:#000000;stroke-width:4.21774817;stroke-miterlimit:4;stroke-opacity:1;display:inline"
       id="path4852"
       sodipodi:cx="74.964096"
       sodipodi:cy="525.00787"
       sodipodi:rx="4.0159335"
       sodipodi:ry="4.0159335"
       d="m 78.98003,525.00787 a 4.0159335,4.0159335 0 1 1 -8.031867,0 4.0159335,4.0159335 0 1 1 8.031867,0 z"
       transform="matrix(-0.8891,0,0,0.8891,661.5943,-209.79995)" />
    <path
       sodipodi:type="arc"
       style="fill:#ff0000;fill-opacity:1;stroke:#000000;stroke-width:1;stroke-miterlimit:4;stroke-opacity:1;stroke-dasharray:none"
       id="path4860"
       sodipodi:cx="635.7627"
       sodipodi:cy="283.77048"
       sodipodi:rx="8.0721521"
       sodipodi:ry="8.0721521"
       d="m 643.83485,283.77048 a 8.0721521,8.0721521 0 1 1 -16.14431,0 8.0721521,8.0721521 0 1 1 16.14431,0 z" />
    <path
       sodipodi:type="arc"
       style="fill:#ff0000;fill-opacity:1;stroke:#000000;stroke-width:1;stroke-miterlimit:4;stroke-opacity:1;stroke-dasharray:none"
       id="path4932"
       sodipodi:cx="511.79745"
       sodipodi:cy="277.09537"
       sodipodi:rx="4.9689074"
       sodipodi:ry="7.453361"
       d="m 516.76636,277.09537 a 4.9689074,7.453361 0 1 1 -9.93781,0 4.9689074,7.453361 0 1 1 9.93781,0 z" />
    <path
       style="fill:none;fill-opacity:1;stroke:#000000;stroke-width:1;stroke-miterlimit:4;stroke-opacity:1;stroke-dasharray:none"
       d="m 213.21586,289.46817 c 0,7.73322 -7.73321,9.94271 -7.73321,9.94271"
       id="path4936" />
    <path
       id="path4938"
       d="m 215.21586,291.46817 c 0,7.73322 -7.73321,9.94271 -7.73321,9.94271"
       style="fill:none;stroke:#000000;stroke-width:1;stroke-miterlimit:4;stroke-opacity:1;stroke-dasharray:none" />
    <path
       style="fill:none;stroke:#000000;stroke-width:1;stroke-miterlimit:4;stroke-opacity:1;stroke-dasharray:none"
       d="m 113.78878,288.9158 c 4.41898,11.59982 8.28559,13.80931 8.28559,13.80931"
       id="path4940" />
    <path
       id="path4942"
       d="m 111.78878,290.9158 c 4.41898,11.59982 8.28559,13.80931 8.28559,13.80931"
       style="fill:none;stroke:#000000;stroke-width:1;stroke-miterlimit:4;stroke-opacity:1;stroke-dasharray:none" />
    <path
       style="fill:none;stroke:#000000;stroke-width:1;stroke-miterlimit:4;stroke-opacity:1;stroke-dasharray:none"
       d="m 320.92854,266.82089 c 0.55237,8.83796 -4.41898,12.1522 -4.41898,12.1522"
       id="path4944" />
    <path
       id="path4946"
       d="m 324.92854,268.82089 c 0.55237,8.83796 -4.41898,12.1522 -4.41898,12.1522"
       style="fill:none;stroke:#000000;stroke-width:1;stroke-miterlimit:4;stroke-opacity:1;stroke-dasharray:none" />
    <path
       style="fill:none;stroke:#000000;stroke-width:1;stroke-miterlimit:4;stroke-opacity:1;stroke-dasharray:none"
       d="m 557.89643,328.68663 c 2.76186,9.39034 7.73322,8.28559 7.73322,8.28559"
       id="path4948" />
    <path
       id="path4950"
       d="m 555.89643,330.68663 c 2.76186,9.39034 7.73322,8.28559 7.73322,8.28559"
       style="fill:none;stroke:#000000;stroke-width:1;stroke-miterlimit:4;stroke-opacity:1;stroke-dasharray:none" />
    <path
       style="fill:none;stroke:#000000;stroke-width:1;stroke-miterlimit:4;stroke-opacity:1;stroke-dasharray:none"
       d="m 649.5903,227.05005 c 4.97135,2.76187 9.94271,12.70457 9.94271,12.70457"
       id="path4952" />
    <path
       id="path4954"
       d="m 653.5903,227.05005 c 4.97135,2.76187 9.94271,12.70457 9.94271,12.70457"
       style="fill:none;stroke:#000000;stroke-width:1;stroke-miterlimit:4;stroke-opacity:1;stroke-dasharray:none" />
    <path
       style="fill:none;stroke:#000000;stroke-width:1;stroke-miterlimit:4;stroke-opacity:1;stroke-dasharray:none"
       d="m 457.91697,227.05005 c -1.10474,9.94271 2.20949,15.46644 2.20949,15.46644"
       id="path4956" />
    <path
       id="path4958"
       d="m 453.91697,227.05005 c -1.10474,9.94271 2.20949,15.46644 2.20949,15.46644"
       style="fill:none;stroke:#000000;stroke-width:1;stroke-miterlimit:4;stroke-opacity:1;stroke-dasharray:none" />
  </g>
  <g
     inkscape:groupmode="layer"
     id="layer3"
     inkscape:label="globos">
    <path
       id="path4969"
       d="m 115.625,1.6875 c -57.526704,0 -104.15625,33.357703 -104.15625,74.5 0,41.1423 46.629546,74.46875 104.15625,74.46875 1.04523,0 2.08718,-0.0406 3.125,-0.0625 l 23.5,26.46875 -6.9375,-27.75 c 48.11301,-6.58264 84.46875,-36.7966 84.46875,-73.125 0,-41.142297 -46.62955,-74.5 -104.15625,-74.5 z"
       style="fill:#000000;fill-opacity:1;stroke:#000000;stroke-width:0.99999987999999995;stroke-miterlimit:4;stroke-opacity:1;stroke-dasharray:none" />
    <path
       id="path4971"
       d="m 269.15625,81.6875 c -38.47788,0 -69.6875,29.29162 -69.6875,65.4375 0,35.84131 30.68851,64.91819 68.71875,65.40625 l 9.15625,9.15625 3.3125,-10.03125 c 32.99514,-5.15808 58.15625,-32.07225 58.15625,-64.53125 0,-36.14588 -31.17837,-65.4375 -69.65625,-65.4375 z"
       style="fill:#000000;fill-opacity:1;stroke:#000000;stroke-width:0.99999994000000003;stroke-miterlimit:4;stroke-opacity:1;stroke-dasharray:none" />
    <path
       id="path4973"
       d="m 477,-0.40625 c -49.02731,0 -88.78125,39.50371 -88.78125,88.21875 0,48.71504 39.75394,88.1875 88.78125,88.1875 11.78936,0 23.05147,-2.2913 33.34375,-6.4375 l 37.125,16.875 -17.5,-27.84375 c 21.73704,-16.0778 35.8125,-41.78598 35.8125,-70.78125 0,-48.71504 -39.75394,-88.21875 -88.78125,-88.21875 z"
       style="fill:#000000;fill-opacity:1;stroke:#000000;stroke-width:1;stroke-miterlimit:4;stroke-opacity:1;stroke-dasharray:none" />
    <path
       style="fill:#ffffff;fill-opacity:1;stroke:#000000;stroke-width:0.99999988;stroke-miterlimit:4;stroke-opacity:1;stroke-dasharray:none"
       d="M 109.625 -0.3125 C 52.098296 -0.3125 5.46875 33.045203 5.46875 74.1875 C 5.46875 115.3298 52.098296 148.65625 109.625 148.65625 C 110.67023 148.65625 111.71218 148.61562 112.75 148.59375 L 136.25 175.0625 L 129.3125 147.3125 C 177.42551 140.72986 213.78125 110.5159 213.78125 74.1875 C 213.78125 33.045203 167.1517 -0.3125 109.625 -0.3125 z "
       id="path4468" />
    <path
       style="fill:#ffffff;fill-opacity:1;stroke:#000000;stroke-width:0.99999994;stroke-miterlimit:4;stroke-opacity:1;stroke-dasharray:none"
       d="M 263.15625 79.6875 C 224.67837 79.6875 193.46875 108.97912 193.46875 145.125 C 193.46875 180.96631 224.15726 210.04319 262.1875 210.53125 L 271.34375 219.6875 L 274.65625 209.65625 C 307.65139 204.49817 332.8125 177.584 332.8125 145.125 C 332.8125 108.97912 301.63413 79.6875 263.15625 79.6875 z "
       id="path4466" />
    <path
       style="fill:#ffffff;fill-opacity:1;stroke:#000000;stroke-width:1;stroke-miterlimit:4;stroke-opacity:1;stroke-dasharray:none"
       d="M 471 -2.40625 C 421.97269 -2.40625 382.21875 37.09746 382.21875 85.8125 C 382.21875 134.52754 421.97269 174 471 174 C 482.78936 174 494.05147 171.7087 504.34375 167.5625 L 541.46875 184.4375 L 523.96875 156.59375 C 545.70579 140.51595 559.78125 114.80777 559.78125 85.8125 C 559.78125 37.09746 520.02731 -2.40625 471 -2.40625 z "
       id="path3692" />
    <text
       sodipodi:linespacing="100%"
       id="text3557"
       y="45.791489"
       x="111.71167"
       style="font-size:16px;font-style:italic;font-variant:normal;font-weight:normal;font-stretch:normal;text-align:center;line-height:100%;writing-mode:lr-tb;text-anchor:middle;fill:#000000;fill-opacity:1;stroke:none;font-family:Kid Kosmic;-inkscape-font-specification:Kid Kosmic Italic"
       xml:space="preserve"><tspan
         y="45.791489"
         x="111.71167"
         sodipodi:role="line"
         id="tspan3600">aaaarrg!</tspan><tspan
         y="61.791489"
         x="111.71167"
         sodipodi:role="line"
         id="tspan3604">mira esto...</tspan><tspan
         y="77.791489"
         x="111.71167"
         sodipodi:role="line"
         id="tspan3606">ha aparecido</tspan><tspan
         y="93.791489"
         x="111.71167"
         sodipodi:role="line"
         id="tspan3608">una cara</tspan><tspan
         y="109.79149"
         x="111.71167"
         sodipodi:role="line"
         id="tspan3639">en la pared...</tspan></text>
    <text
       xml:space="preserve"
       style="font-size:16px;font-style:italic;font-variant:normal;font-weight:normal;font-stretch:normal;text-align:center;line-height:100%;writing-mode:lr-tb;text-anchor:middle;fill:#000000;fill-opacity:1;stroke:none;font-family:Kid Kosmic;-inkscape-font-specification:Kid Kosmic Italic"
       x="265.71167"
       y="133.79149"
       id="text3610"
       sodipodi:linespacing="100%"><tspan
         id="tspan3618"
         sodipodi:role="line"
         x="265.71167"
         y="133.79149">ser una</tspan><tspan
         sodipodi:role="line"
         x="265.71167"
         y="149.79149"
         id="tspan3629">humedad,</tspan><tspan
         sodipodi:role="line"
         x="265.71167"
         y="165.79149"
         id="tspan3631">djame</tspan><tspan
         sodipodi:role="line"
         x="265.71167"
         y="181.79149"
         id="tspan3633">ver...</tspan></text>
    <text
       xml:space="preserve"
       style="font-size:16px;font-style:italic;font-variant:normal;font-weight:normal;font-stretch:normal;text-align:center;line-height:100%;writing-mode:lr-tb;text-anchor:middle;fill:#000000;fill-opacity:1;stroke:none;font-family:Kid Kosmic;-inkscape-font-specification:Kid Kosmic Italic"
       x="470.2468"
       y="37.801064"
       id="text3641"
       sodipodi:linespacing="100%"><tspan
         sodipodi:role="line"
         id="tspan3643"
         x="470.2468"
         y="37.801064">ostras!</tspan><tspan
         sodipodi:role="line"
         x="470.2468"
         y="53.801064"
         id="tspan3655">pues no</tspan><tspan
         sodipodi:role="line"
         x="470.2468"
         y="69.801064"
         id="tspan4490">hay duda, es</tspan><tspan
         sodipodi:role="line"
         x="470.2468"
         y="85.801064"
         id="tspan4492">una cara de</tspan><tspan
         sodipodi:role="line"
         x="470.2468"
         y="101.80106"
         id="tspan4494">verdad, no</tspan><tspan
         sodipodi:role="line"
         x="470.2468"
         y="117.80106"
         id="tspan4496">las manchas</tspan><tspan
         sodipodi:role="line"
         x="470.2468"
         y="133.80106"
         id="tspan4498">esas de</tspan><tspan
         sodipodi:role="line"
         x="470.2468"
         y="149.80106"
         id="tspan4500">belmez</tspan></text>
  </g>
  <g
     inkscape:groupmode="layer"
     id="layer4"
     inkscape:label="vinietas">
    <path
       style="fill:#6699cc;fill-opacity:1;fill-rule:nonzero;stroke:#000000;stroke-width:4.48726034;stroke-linecap:round;stroke-linejoin:round;stroke-miterlimit:4;stroke-dashoffset:0;stroke-opacity:1;display:inline"
       d="M -3.1395438,-4.7760952 C -5.4235092,-4.7760952 -7.2644814,-2.9685179 -7.2644814,-0.74658629 L -7.2644814,390.21022 C -7.2644814,390.53373 -7.2131821,390.85414 -7.1394833,391.15464 C -7.2179821,391.46533 -7.2644814,391.79636 -7.2644814,392.13053 L -7.2644814,783.08734 C -7.2644814,785.30927 -5.4235092,787.08538 -3.1395438,787.08537 L 1073.2191,787.08537 C 1075.5032,787.08537 1077.3441,785.30927 1077.3441,783.08734 L 1077.3441,392.13053 C 1077.3441,391.79636 1077.2977,391.46533 1077.2191,391.15464 C 1077.2929,390.85414 1077.3441,390.53373 1077.3441,390.21022 L 1077.3441,-0.74658629 C 1077.3441,-2.9685179 1075.5034,-4.7760952 1073.2191,-4.7760952 L -3.1395438,-4.7760952 z M 32.141222,5.9902489 L 318.91808,5.9902489 C 335.30364,5.9902489 348.48014,17.992323 348.48014,32.874629 L 348.48014,331.31013 C 348.48014,346.19245 335.30374,358.16303 318.91808,358.16303 L 32.141222,358.16303 C 15.75567,358.16303 2.5791696,346.19244 2.5791696,331.31013 L 2.5791696,32.874629 C 2.5791696,17.992323 15.75567,5.9902489 32.141222,5.9902489 z M 388.72953,5.9902489 L 675.50648,5.9902489 C 691.89203,5.9902489 705.06853,17.992323 705.06853,32.874629 L 705.06853,331.31013 C 705.06853,346.19245 691.89203,358.16303 675.50648,358.16303 L 388.72953,358.16303 C 372.34397,358.16303 359.16747,346.19244 359.16747,331.31013 L 359.16747,32.874629 C 359.16747,17.992323 372.34397,5.9902489 388.72953,5.9902489 z M 745.66162,5.9902489 L 1032.4386,5.9902489 C 1048.8241,5.9902489 1062.0006,17.992323 1062.0006,32.874629 L 1062.0006,331.31013 C 1062.0006,346.19245 1048.8241,358.16303 1032.4386,358.16303 L 745.66162,358.16303 C 729.27607,358.16303 716.09957,346.19244 716.09957,331.31013 L 716.09957,32.874629 C 716.09957,17.992323 729.27607,5.9902489 745.66162,5.9902489 z M 32.141222,398.86737 L 318.91808,398.86737 C 335.30364,398.86737 348.48014,410.86944 348.48014,425.75175 L 348.48014,724.18725 C 348.48014,739.06957 335.30374,751.04015 318.91808,751.04015 L 32.141222,751.04015 C 15.75567,751.04015 2.5791696,739.06956 2.5791696,724.18725 L 2.5791696,425.75175 C 2.5791696,410.86944 15.75567,398.86737 32.141222,398.86737 z M 388.72953,398.86737 L 675.50648,398.86737 C 691.89203,398.86737 705.06853,410.86944 705.06853,425.75175 L 705.06853,724.18725 C 705.06853,739.06957 691.89203,751.04015 675.50648,751.04015 L 388.72953,751.04015 C 372.34397,751.04015 359.16747,739.06956 359.16747,724.18725 L 359.16747,425.75175 C 359.16747,410.86944 372.34397,398.86737 388.72953,398.86737 z M 745.66162,398.86737 L 1032.4386,398.86737 C 1048.8241,398.86737 1062.0006,410.86944 1062.0006,425.75175 L 1062.0006,724.18725 C 1062.0006,739.06957 1048.8241,751.04015 1032.4386,751.04015 L 745.66162,751.04015 C 729.27607,751.04015 716.09957,739.06956 716.09957,724.18725 L 716.09957,425.75175 C 716.09957,410.86944 729.27607,398.86737 745.66162,398.86737 z"
       id="rect16715" />
    <text
       xml:space="preserve"
       style="font-size:18px;font-style:normal;font-variant:normal;font-weight:normal;font-stretch:normal;text-align:center;line-height:125%;writing-mode:lr-tb;text-anchor:middle;fill:#ffffff;fill-opacity:1;stroke:#ffffff;stroke-width:1pt;stroke-linecap:butt;stroke-linejoin:miter;stroke-opacity:1;display:inline;font-family:Sans"
       x="161.90993"
       y="384.6756"
       id="text2618"
       sodipodi:linespacing="125%"><tspan
         sodipodi:role="line"
         id="tspan2620"
         x="161.90993"
         y="384.6756">tira de linuxhispano.net</tspan></text>
    <text
       xml:space="preserve"
       style="font-size:18px;font-style:normal;font-variant:normal;font-weight:normal;font-stretch:normal;text-align:center;line-height:125%;writing-mode:lr-tb;text-anchor:middle;fill:#ffffff;fill-opacity:1;stroke:#ffffff;stroke-width:1pt;stroke-linecap:butt;stroke-linejoin:miter;stroke-opacity:1;display:inline;font-family:Sans"
       x="1014.7665"
       y="383.6756"
       id="text2622"
       sodipodi:linespacing="125%"><tspan
         sodipodi:role="line"
         id="tspan2624"
         x="1014.7665"
         y="383.6756">by danigm</tspan></text>
    <text
       sodipodi:linespacing="125%"
       id="text4260"
       y="384.6756"
       x="541.91003"
       style="font-size:18px;font-style:normal;font-variant:normal;font-weight:normal;font-stretch:normal;text-align:center;line-height:125%;writing-mode:lr-tb;text-anchor:middle;fill:#ffffff;fill-opacity:1;stroke:none;stroke-width:1pt;stroke-linecap:butt;stroke-linejoin:miter;stroke-opacity:1;display:inline;font-family:Sans"
       xml:space="preserve"><tspan
         y="384.6756"
         x="541.91003"
         id="tspan4262"
         sodipodi:role="line">imagenes en danigm.net</tspan></text>
  </g>
</svg>
