<?xml version="1.0" encoding="UTF-8" standalone="no"?>
<!-- Created with Inkscape (http://www.inkscape.org/) -->
<svg
   xmlns:dc="http://purl.org/dc/elements/1.1/"
   xmlns:cc="http://creativecommons.org/ns#"
   xmlns:rdf="http://www.w3.org/1999/02/22-rdf-syntax-ns#"
   xmlns:svg="http://www.w3.org/2000/svg"
   xmlns="http://www.w3.org/2000/svg"
   xmlns:xlink="http://www.w3.org/1999/xlink"
   xmlns:sodipodi="http://sodipodi.sourceforge.net/DTD/sodipodi-0.dtd"
   xmlns:inkscape="http://www.inkscape.org/namespaces/inkscape"
   width="1063"
   height="756"
   id="svg2"
   sodipodi:version="0.32"
   inkscape:version="0.46"
   version="1.0"
   sodipodi:docname="iss.svg"
   inkscape:output_extension="org.inkscape.output.svg.inkscape"
   sodipodi:docbase="/home/danigm/Documentos/linuxHispano/tira"
   inkscape:export-filename="/home/danigmArch/tira/iss.png"
   inkscape:export-xdpi="60.112888"
   inkscape:export-ydpi="60.112888">
  <defs
     id="defs4">
    <linearGradient
       inkscape:collect="always"
       id="linearGradient4106">
      <stop
         style="stop-color:#000000;stop-opacity:0.29914531"
         offset="0"
         id="stop4108" />
      <stop
         style="stop-color:#000000;stop-opacity:1"
         offset="1"
         id="stop4110" />
    </linearGradient>
    <linearGradient
       inkscape:collect="always"
       id="linearGradient4098">
      <stop
         style="stop-color:#ffffff;stop-opacity:1"
         offset="0"
         id="stop4100" />
      <stop
         style="stop-color:#ffffff;stop-opacity:0.5"
         offset="1"
         id="stop4102" />
    </linearGradient>
    <inkscape:perspective
       sodipodi:type="inkscape:persp3d"
       id="perspective3033"
       inkscape:vp_x="-50 : 600 : 1"
       inkscape:vp_y="0 : 1000 : 0"
       inkscape:vp_z="700 : 600 : 1"
       inkscape:persp3d-origin="300 : 400 : 1" />
    <inkscape:perspective
       sodipodi:type="inkscape:persp3d"
       id="perspective3032"
       inkscape:vp_x="-50 : 600 : 1"
       inkscape:vp_y="0 : 1000 : 0"
       inkscape:vp_z="700 : 600 : 1"
       inkscape:persp3d-origin="300 : 400 : 1" />
    <inkscape:perspective
       sodipodi:type="inkscape:persp3d"
       id="perspective3031"
       inkscape:vp_x="-50 : 600 : 1"
       inkscape:vp_y="0 : 1000 : 0"
       inkscape:vp_z="700 : 600 : 1"
       inkscape:persp3d-origin="300 : 400 : 1" />
    <inkscape:perspective
       sodipodi:type="inkscape:persp3d"
       id="perspective3030"
       inkscape:vp_x="-50 : 600 : 1"
       inkscape:vp_y="0 : 1000 : 0"
       inkscape:vp_z="700 : 600 : 1"
       inkscape:persp3d-origin="300 : 400 : 1" />
    <inkscape:perspective
       sodipodi:type="inkscape:persp3d"
       id="perspective3029"
       inkscape:vp_x="-50 : 600 : 1"
       inkscape:vp_y="0 : 1000 : 0"
       inkscape:vp_z="700 : 600 : 1"
       inkscape:persp3d-origin="300 : 400 : 1" />
    <inkscape:perspective
       sodipodi:type="inkscape:persp3d"
       id="perspective2997"
       inkscape:vp_x="-50 : 600 : 1"
       inkscape:vp_y="0 : 1000 : 0"
       inkscape:vp_z="700 : 600 : 1"
       inkscape:persp3d-origin="300 : 400 : 1" />
    <inkscape:perspective
       sodipodi:type="inkscape:persp3d"
       id="perspective2996"
       inkscape:vp_x="-50 : 600 : 1"
       inkscape:vp_y="0 : 1000 : 0"
       inkscape:vp_z="700 : 600 : 1"
       inkscape:persp3d-origin="300 : 400 : 1" />
    <linearGradient
       inkscape:collect="always"
       xlink:href="#linearGradient4098"
       id="linearGradient4104"
       x1="468.60214"
       y1="284.28421"
       x2="371.69147"
       y2="288.1897"
       gradientUnits="userSpaceOnUse" />
    <linearGradient
       inkscape:collect="always"
       xlink:href="#linearGradient4106"
       id="linearGradient4112"
       x1="371.19148"
       y1="288.1897"
       x2="480.37833"
       y2="288.1897"
       gradientUnits="userSpaceOnUse" />
  </defs>
  <sodipodi:namedview
     id="base"
     pagecolor="#ffffff"
     bordercolor="#666666"
     borderopacity="1.0"
     inkscape:pageopacity="1"
     inkscape:pageshadow="2"
     inkscape:zoom="0.7010582"
     inkscape:cx="531.5"
     inkscape:cy="378"
     inkscape:document-units="px"
     inkscape:current-layer="layer2"
     width="1062.99px"
     borderlayer="true"
     inkscape:window-width="1266"
     inkscape:window-height="745"
     inkscape:window-x="0"
     inkscape:window-y="25"
     showgrid="false" />
  <metadata
     id="metadata7">
    <rdf:RDF>
      <cc:Work
         rdf:about="">
        <dc:format>image/svg+xml</dc:format>
        <dc:type
           rdf:resource="http://purl.org/dc/dcmitype/StillImage" />
        <dc:title />
        <dc:date />
        <dc:creator>
          <cc:Agent>
            <dc:title />
          </cc:Agent>
        </dc:creator>
        <dc:rights>
          <cc:Agent>
            <dc:title />
          </cc:Agent>
        </dc:rights>
        <dc:publisher>
          <cc:Agent>
            <dc:title />
          </cc:Agent>
        </dc:publisher>
        <dc:identifier />
        <dc:source />
        <dc:relation />
        <dc:language />
        <dc:subject>
          <rdf:Bag />
        </dc:subject>
        <dc:coverage />
        <dc:description />
        <dc:contributor>
          <cc:Agent>
            <dc:title />
          </cc:Agent>
        </dc:contributor>
        <cc:license
           rdf:resource="" />
      </cc:Work>
      <cc:Work
         rdf:about="">
        <dc:format>image/svg+xml</dc:format>
        <dc:type
           rdf:resource="http://purl.org/dc/dcmitype/StillImage" />
      </cc:Work>
    </rdf:RDF>
  </metadata>
  <g
     inkscape:label="fondo"
     inkscape:groupmode="layer"
     id="layer1"
     style="display:inline"
     sodipodi:insensitive="true">
    <rect
       style="opacity:1;fill:#0000ff;fill-opacity:1;fill-rule:nonzero;stroke:#000000;stroke-width:4;stroke-linecap:round;stroke-linejoin:round;stroke-miterlimit:4;stroke-dasharray:none;stroke-dashoffset:0;stroke-opacity:1;display:inline"
       id="rect4585"
       width="1150.5601"
       height="856.79999"
       x="-39.900002"
       y="-27.019989"
       rx="15.548299"
       ry="10.315682" />
    <path
       sodipodi:type="arc"
       style="opacity:1;fill:#ffffff;fill-opacity:0.58035715;fill-rule:nonzero;stroke:none;stroke-width:3.80038881;stroke-linecap:round;stroke-linejoin:round;stroke-miterlimit:4;stroke-dasharray:none;stroke-dashoffset:0;stroke-opacity:1;display:inline"
       id="path4587"
       sodipodi:cx="581.40002"
       sodipodi:cy="374.85001"
       sodipodi:rx="535.5"
       sodipodi:ry="273.87"
       d="M 1116.9,374.85001 A 535.5,273.87 0 1 1 45.900024,374.85001 A 535.5,273.87 0 1 1 1116.9,374.85001 z"
       transform="matrix(0.9981395,0,0,1.1098713,-48.81833,-38.035264)" />
    <path
       sodipodi:type="arc"
       style="fill:#ff0000;fill-opacity:1;stroke:#000000;stroke-width:1;stroke-linecap:round;stroke-linejoin:miter;stroke-miterlimit:4;stroke-dasharray:none;stroke-opacity:1;display:inline"
       id="path2819"
       sodipodi:cx="1411.7009"
       sodipodi:cy="253.46965"
       sodipodi:rx="53.76445"
       sodipodi:ry="53.76445"
       d="M 1465.4654,253.46965 A 53.76445,53.76445 0 1 1 1357.9365,253.46965 A 53.76445,53.76445 0 1 1 1465.4654,253.46965 z"
       transform="translate(-211.98567,488.70551)" />
    <path
       d="M 1465.4654,253.46965 A 53.76445,53.76445 0 1 1 1357.9365,253.46965 A 53.76445,53.76445 0 1 1 1465.4654,253.46965 z"
       sodipodi:ry="53.76445"
       sodipodi:rx="53.76445"
       sodipodi:cy="253.46965"
       sodipodi:cx="1411.7009"
       id="path2821"
       style="fill:#0000ff;fill-opacity:1;stroke:#000000;stroke-width:1;stroke-linecap:round;stroke-linejoin:miter;stroke-miterlimit:4;stroke-dasharray:none;stroke-opacity:1;display:inline"
       sodipodi:type="arc"
       transform="translate(-91.985679,488.70551)" />
    <path
       transform="translate(30.014325,488.70551)"
       sodipodi:type="arc"
       style="fill:#00ff00;fill-opacity:1;stroke:#000000;stroke-width:1;stroke-linecap:round;stroke-linejoin:miter;stroke-miterlimit:4;stroke-dasharray:none;stroke-opacity:1;display:inline"
       id="path2823"
       sodipodi:cx="1411.7009"
       sodipodi:cy="253.46965"
       sodipodi:rx="53.76445"
       sodipodi:ry="53.76445"
       d="M 1465.4654,253.46965 A 53.76445,53.76445 0 1 1 1357.9365,253.46965 A 53.76445,53.76445 0 1 1 1465.4654,253.46965 z" />
    <path
       d="M 1465.4654,253.46965 A 53.76445,53.76445 0 1 1 1357.9365,253.46965 A 53.76445,53.76445 0 1 1 1465.4654,253.46965 z"
       sodipodi:ry="53.76445"
       sodipodi:rx="53.76445"
       sodipodi:cy="253.46965"
       sodipodi:cx="1411.7009"
       id="path2825"
       style="fill:#ffff00;fill-opacity:1;stroke:#000000;stroke-width:1;stroke-linecap:round;stroke-linejoin:miter;stroke-miterlimit:4;stroke-dasharray:none;stroke-opacity:1;display:inline"
       sodipodi:type="arc"
       transform="translate(150.01433,488.70551)" />
    <path
       transform="translate(270.01433,488.70551)"
       sodipodi:type="arc"
       style="fill:#800080;fill-opacity:1;stroke:#000000;stroke-width:1;stroke-linecap:round;stroke-linejoin:miter;stroke-miterlimit:4;stroke-dasharray:none;stroke-opacity:1;display:inline"
       id="path2827"
       sodipodi:cx="1411.7009"
       sodipodi:cy="253.46965"
       sodipodi:rx="53.76445"
       sodipodi:ry="53.76445"
       d="M 1465.4654,253.46965 A 53.76445,53.76445 0 1 1 1357.9365,253.46965 A 53.76445,53.76445 0 1 1 1465.4654,253.46965 z" />
    <path
       style="opacity:1;fill:#ff0000;fill-opacity:0.57264961;fill-rule:nonzero;stroke:none;stroke-width:1;stroke-linecap:butt;stroke-linejoin:round;stroke-miterlimit:4;stroke-dasharray:none;stroke-opacity:1"
       d="M 151.2,11.411321 L -5.70566,303.82642 L -1.426415,366.58868 L 79.87924,378 L 161.18491,38.513208 L 151.2,11.411321 z"
       id="path4184" />
    <path
       id="path4186"
       d="M 166.17127,1.4264154 L 356.60378,305.21953 L 351.41016,370.4239 L 252.73149,382.27924 L 154.05283,29.58285 L 166.17127,1.4264154 z"
       style="opacity:1;fill:#ff0000;fill-opacity:0.57264961;fill-rule:nonzero;stroke:none;stroke-width:1;stroke-linecap:butt;stroke-linejoin:round;stroke-miterlimit:4;stroke-dasharray:none;stroke-opacity:1" />
    <path
       id="path4188"
       d="M 510.38419,1.700933 L 352.29434,303.82642 L 356.57358,366.58868 L 437.87924,378 L 522.97433,6.7768178 L 510.38419,1.700933 z"
       style="opacity:1;fill:#ff0000;fill-opacity:0.57264961;fill-rule:nonzero;stroke:none;stroke-width:1;stroke-linecap:butt;stroke-linejoin:round;stroke-miterlimit:4;stroke-dasharray:none;stroke-opacity:1"
       sodipodi:nodetypes="cccccc" />
    <path
       style="opacity:1;fill:#ff0000;fill-opacity:0.57264961;fill-rule:nonzero;stroke:none;stroke-width:1;stroke-linecap:butt;stroke-linejoin:round;stroke-miterlimit:4;stroke-dasharray:none;stroke-opacity:1"
       d="M 524.17127,1.4264154 L 714.60378,305.21953 L 709.41016,370.4239 L 610.73149,382.27924 L 508.97393,3.1753313 L 524.17127,1.4264154 z"
       id="path4190"
       sodipodi:nodetypes="cccccc" />
  </g>
  <g
     inkscape:groupmode="layer"
     id="layer2"
     inkscape:label="dibujos"
     sodipodi:insensitive="true">
    <path
       style="opacity:1;fill:#ffffff;fill-opacity:1;fill-rule:nonzero;stroke:#000000;stroke-width:0.99999988;stroke-linecap:round;stroke-linejoin:miter;stroke-miterlimit:4;stroke-dasharray:none;stroke-opacity:1"
       d="M 270.86254,307.17294 C 260.26554,308.55476 255.65816,310.16689 255.65816,310.16689 C 255.65816,310.16689 251.74189,308.55476 249.89893,310.39718 C 248.05598,312.23961 244.83083,331.58505 244.83083,331.58505 L 223.17609,315.00324 C 223.17609,315.00324 225.94053,306.25174 225.4798,304.40932 C 225.01904,302.56688 223.63684,301.18508 224.55832,300.72445 C 225.4798,300.26386 229.62643,296.80931 229.62643,296.80931 C 229.62643,296.80931 225.4798,293.12446 224.32795,293.35478 C 223.17609,293.58508 219.25981,300.03356 219.25981,300.03356 C 219.25981,300.03356 213.73096,296.34871 213.03984,293.81537 C 212.34874,291.28203 208.89321,284.60327 208.43246,286.67598 C 207.97174,288.74871 205.43766,294.7366 205.89841,296.34871 C 206.35914,297.96084 203.5947,310.85779 205.2073,311.31839 C 206.81988,311.779 220.64203,320.30021 220.64203,320.30021 L 247.8256,340.56687 L 256.11891,327.4396 C 256.11891,327.4396 260.03519,338.72444 260.72629,341.25778 C 261.41741,343.7911 259.34408,370.27594 259.34408,370.27594 L 304.49646,367.97292 C 304.49646,367.97292 295.74241,341.4881 295.97278,338.49413 C 296.20316,335.5002 298.50683,326.97899 298.50683,326.97899 L 310.94678,342.8699 L 312.78974,367.51231 L 318.08823,365.66988 L 317.39712,338.72444 C 317.39712,338.72444 312.55938,310.39718 311.63789,309.24568 C 310.71643,308.09415 306.3394,309.01537 306.3394,309.01537 L 289.75282,306.71233 L 270.86254,307.17294 z"
       id="path3189" />
    <rect
       style="opacity:1;fill:#ffffff;fill-opacity:1;fill-rule:nonzero;stroke:#000000;stroke-width:0.99999994;stroke-linecap:round;stroke-linejoin:miter;stroke-miterlimit:4;stroke-dasharray:none;stroke-opacity:1"
       id="rect3185"
       width="28.011969"
       height="18.09483"
       x="264.95111"
       y="293.35739"
       rx="8.1401091"
       ry="5.685564" />
    <g
       id="g3209"
       transform="matrix(0.9346422,0,0,0.934373,7.5248621,9.8865373)">
      <path
         transform="matrix(0.851228,0,0,0.9363057,27.863493,23.909972)"
         d="M 333.85569,277.14343 A 37.016487,37.016487 0 1 1 259.82272,277.14343 A 37.016487,37.016487 0 1 1 333.85569,277.14343 z"
         sodipodi:ry="37.016487"
         sodipodi:rx="37.016487"
         sodipodi:cy="277.14343"
         sodipodi:cx="296.8392"
         id="path3183"
         style="opacity:1;fill:#ffb380;fill-opacity:1;fill-rule:nonzero;stroke:#000000;stroke-width:1.19863069;stroke-linecap:round;stroke-linejoin:miter;stroke-miterlimit:4;stroke-dasharray:none;stroke-opacity:1"
         sodipodi:type="arc" />
      <path
         id="path3191"
         d="M 261.74767,299.35333 C 287.99875,284.09107 293.18792,289.12762 293.18792,289.12762 C 300.97167,309.12117 293.95103,309.42642 293.95103,309.42642 C 284.48843,308.35806 273.80486,313.54723 273.80486,313.54723"
         style="opacity:1;fill:#ff0000;fill-opacity:1;fill-rule:nonzero;stroke:#000000;stroke-width:1.07008231;stroke-linecap:round;stroke-linejoin:miter;stroke-miterlimit:4;stroke-dasharray:none;stroke-opacity:1" />
      <path
         id="path3193"
         d="M 261.27267,284.62883 C 254.04411,286.853 256.26828,292.96947 256.26828,292.96947 C 259.60454,300.47603 265.99901,293.52551 265.99901,293.52551"
         style="opacity:1;fill:#ffb380;fill-opacity:1;fill-rule:nonzero;stroke:#000000;stroke-width:1.07008219;stroke-linecap:round;stroke-linejoin:miter;stroke-miterlimit:4;stroke-dasharray:none;stroke-opacity:1" />
      <path
         d="M 290.13547,271.11816 A 8.6231737,9.0047302 0 1 1 272.88912,271.11816 A 8.6231737,9.0047302 0 1 1 290.13547,271.11816 z"
         sodipodi:ry="9.0047302"
         sodipodi:rx="8.6231737"
         sodipodi:cy="271.11816"
         sodipodi:cx="281.5123"
         id="path3195"
         style="opacity:1;fill:#ffffff;fill-opacity:1;fill-rule:nonzero;stroke:#000000;stroke-width:1.07008231;stroke-linecap:round;stroke-linejoin:miter;stroke-miterlimit:4;stroke-dasharray:none;stroke-opacity:1"
         sodipodi:type="arc" />
      <path
         transform="matrix(0.8947892,0,0,0.8947892,3.6181261,32.524551)"
         sodipodi:type="arc"
         style="opacity:1;fill:#ffffff;fill-opacity:1;fill-rule:nonzero;stroke:#000000;stroke-width:1.19590425;stroke-linecap:round;stroke-linejoin:miter;stroke-miterlimit:4;stroke-dasharray:none;stroke-opacity:1"
         id="path3197"
         sodipodi:cx="281.5123"
         sodipodi:cy="271.11816"
         sodipodi:rx="8.6231737"
         sodipodi:ry="9.0047302"
         d="M 290.13547,271.11816 A 8.6231737,9.0047302 0 1 1 272.88912,271.11816 A 8.6231737,9.0047302 0 1 1 290.13547,271.11816 z" />
      <path
         d="M 290.13547,271.11816 A 8.6231737,9.0047302 0 1 1 272.88912,271.11816 A 8.6231737,9.0047302 0 1 1 290.13547,271.11816 z"
         sodipodi:ry="9.0047302"
         sodipodi:rx="8.6231737"
         sodipodi:cy="271.11816"
         sodipodi:cx="281.5123"
         id="path3199"
         style="opacity:1;fill:#000000;fill-opacity:1;fill-rule:nonzero;stroke:#000000;stroke-width:3.76964355;stroke-linecap:round;stroke-linejoin:miter;stroke-miterlimit:4;stroke-dasharray:none;stroke-opacity:1"
         sodipodi:type="arc"
         transform="matrix(0.2838683,0,0,0.2838683,170.78541,196.4674)" />
      <path
         transform="matrix(0.317246,0,0,0.317246,185.63758,186.14911)"
         sodipodi:type="arc"
         style="opacity:1;fill:#000000;fill-opacity:1;fill-rule:nonzero;stroke:#000000;stroke-width:3.37303686;stroke-linecap:round;stroke-linejoin:miter;stroke-miterlimit:4;stroke-dasharray:none;stroke-opacity:1"
         id="path3201"
         sodipodi:cx="281.5123"
         sodipodi:cy="271.11816"
         sodipodi:rx="8.6231737"
         sodipodi:ry="9.0047302"
         d="M 290.13547,271.11816 A 8.6231737,9.0047302 0 1 1 272.88912,271.11816 A 8.6231737,9.0047302 0 1 1 290.13547,271.11816 z" />
      <path
         id="path3205"
         d="M 266.47897,259.67147 C 255.79539,254.17705 248.92738,264.70801 248.92738,264.70801 C 255.64277,251.73509 259.76358,251.27723 265.10537,249.44576 C 270.44716,247.61428 278.68878,245.17232 279.75713,246.24068 C 280.82549,247.30904 280.82549,248.68264 280.82549,248.68264 C 280.82549,248.68264 273.04174,250.97198 271.21027,252.65083 C 269.3788,254.32968 266.47897,259.82409 266.47897,259.67147 z"
         style="opacity:1;fill:#d45500;fill-opacity:1;fill-rule:nonzero;stroke:#000000;stroke-width:1.07008231;stroke-linecap:round;stroke-linejoin:miter;stroke-miterlimit:4;stroke-dasharray:none;stroke-opacity:1" />
      <path
         id="path3207"
         d="M 268.46307,259.67147 C 268.46307,259.67147 280.215,250.97198 283.11483,252.34558 C 286.01466,253.71919 294.56152,262.26605 294.56152,262.26605 L 293.0353,256.31377 C 293.0353,256.31377 301.8874,267.30259 301.42954,269.89718 C 300.97167,272.49176 308.6028,286.22779 308.6028,286.22779 L 306.6187,276.61257 L 310.73951,275.84946 L 311.19738,295.0799 L 313.3341,275.39159 C 313.3341,275.39159 312.26574,257.68737 309.82378,255.39803 C 307.38182,253.1087 294.10365,245.17232 290.13547,244.71446 C 286.16728,244.25659 282.65696,245.47757 281.28336,246.24068 C 279.90976,247.00379 268.61569,250.20887 268.92093,252.95607 C 269.22618,255.70328 268.46307,259.51884 268.46307,259.67147 z"
         style="opacity:1;fill:#d45500;fill-opacity:1;fill-rule:nonzero;stroke:#000000;stroke-width:1.07008231;stroke-linecap:round;stroke-linejoin:miter;stroke-miterlimit:4;stroke-dasharray:none;stroke-opacity:1" />
      <path
         id="path3203"
         d="M 307.07657,277.5283 C 315.77606,273.86536 316.38655,279.66502 316.38655,279.66502 C 317.14966,284.54894 309.82378,284.2437 309.82378,284.2437"
         style="opacity:1;fill:#ffb380;fill-opacity:1;fill-rule:nonzero;stroke:#000000;stroke-width:1.07008231;stroke-linecap:round;stroke-linejoin:miter;stroke-miterlimit:4;stroke-dasharray:none;stroke-opacity:1" />
    </g>
    <path
       style="opacity:1;fill:#ffffff;fill-opacity:1;fill-rule:nonzero;stroke:#000000;stroke-width:1;stroke-linecap:round;stroke-linejoin:miter;stroke-miterlimit:4;stroke-dasharray:none;stroke-opacity:1"
       d="M 41.530492,281.46307 L 36.764697,296.10087 L 14.97821,308.69618 C 14.97821,308.69618 13.616555,329.12101 18.041935,331.84432 C 22.467315,334.56763 29.616006,328.09977 28.254351,324.0148 C 26.892695,319.92984 24.169384,312.10032 24.169384,312.10032 C 24.169384,312.10032 46.296286,297.80294 46.296286,296.10087 C 46.296286,294.3988 48.338769,286.56928 48.338769,286.56928 L 41.530492,281.46307 z"
       id="path3245" />
    <path
       style="opacity:1;fill:#ffffff;fill-opacity:1;fill-rule:nonzero;stroke:#000000;stroke-width:1;stroke-linecap:round;stroke-linejoin:miter;stroke-miterlimit:4;stroke-dasharray:none;stroke-opacity:1"
       d="M 102.42209,289.33508 C 109.45731,295.576 116.49253,301.81691 123.52775,308.05783 C 131.47074,304.6537 139.41373,301.24956 147.35672,297.84543 C 147.02003,294.69036 142.06091,290.05728 145.73976,288.18618 C 147.85788,286.07498 149.48291,286.20712 150.50555,289.07976 C 152.1082,290.52492 147.74206,290.07346 150.40436,292.03159 C 151.98343,294.3514 153.32528,299.21139 155.52666,294.86679 C 157.94577,292.63265 160.04969,290.40778 156.25004,288.35639 C 154.18814,287.44247 150.12119,290.32366 151.18638,285.84584 C 151.89296,283.64282 156.579,284.49001 158.93079,283.54803 C 159.63714,287.74097 162.89662,292.70321 161.95196,296.39867 C 160.91489,297.55736 156.50478,300.27033 157.61169,300.44108 C 160.97798,300.38519 166.4829,297.78021 168.46239,299.37728 C 168.98188,303.36452 168.81777,306.61471 164.11061,305.13742 C 160.0771,304.81097 155.92069,305.13466 151.97386,304.27578 C 148.96609,302.3219 145.99931,304.67395 143.06429,305.54881 C 135.4174,308.42764 127.7705,311.30647 120.12361,314.1853 C 112.63451,307.71744 105.1454,301.24957 97.656296,294.78171 C 99.244895,292.96617 100.8335,291.15061 102.42209,289.33508 z"
       id="path3247" />
    <path
       style="opacity:1;fill:#ffffff;fill-opacity:1;fill-rule:nonzero;stroke:#000000;stroke-width:1;stroke-linecap:round;stroke-linejoin:miter;stroke-miterlimit:4;stroke-dasharray:none;stroke-opacity:1"
       d="M 100.7625,278.73975 C 88.153168,274.13842 75.10066,270.89397 62.088187,267.70906 C 56.370334,265.48546 50.652482,263.26185 44.934631,261.03824 C 42.987916,265.17515 37.971575,268.68774 38.111763,273.24916 C 40.330218,284.48599 42.740685,295.68868 44.594217,306.99411 C 43.269858,312.92549 41.035278,318.59267 39.147595,324.35522 C 34.909055,326.87349 29.824685,332.49324 34.142721,337.24034 C 36.410636,340.80383 42.495441,349.51296 46.317326,343.56059 C 47.56246,338.43865 47.322147,332.98199 46.844297,327.74906 C 46.311423,323.24939 49.151531,319.39314 50.308098,315.20747 C 52.273061,310.35641 52.90228,305.08743 52.227598,299.91241 C 51.916767,296.53069 49.167277,287.45434 55.313097,291.66347 C 61.822323,294.32925 68.639593,297.14114 75.828289,296.35482 C 80.299952,297.02149 92.013985,290.07964 91.678087,296.76954 C 93.328981,303.1363 90.584583,313.95537 91.285768,320.51135 C 89.887911,325.47654 90.722909,332.00301 86.632786,335.6176 C 84.14359,338.46109 75.851949,338.60824 78.512709,343.7058 C 80.668134,348.56704 83.812628,341.5877 86.905149,342.8998 C 86.002554,345.25885 81.735474,350.81317 85.235473,351.88171 C 88.590381,350.61475 89.414125,343.27691 91.472005,343.29285 C 92.326846,346.38878 92.414206,351.96994 95.349398,352.99026 C 98.220448,349.19302 94.915165,344.04751 94.548065,339.83403 C 95.524197,338.58562 100.28028,343.56524 100.2626,339.05789 C 98.090133,335.94167 92.367931,334.24718 95.092202,329.48493 C 95.720203,324.20528 99.022991,318.59234 97.872517,313.26015 C 97.020304,307.19998 102.29554,298.41649 101.44333,292.35632 C 105.44927,289.98512 105.4116,291.55799 107.4644,288.63305 C 105.23043,285.33528 102.99646,282.03751 100.7625,278.73975 z"
       id="path3241"
       sodipodi:nodetypes="cccccccccccccccccccccccccccc" />
    <rect
       ry="5.685564"
       rx="8.1401091"
       y="143.08978"
       x="250.65211"
       height="12.976385"
       width="20.088284"
       id="rect3239"
       style="opacity:1;fill:#ffffff;fill-opacity:1;fill-rule:nonzero;stroke:#000000;stroke-width:1.00000024;stroke-linecap:round;stroke-linejoin:miter;stroke-miterlimit:4;stroke-dasharray:none;stroke-opacity:1"
       transform="matrix(0.7707683,0.6371156,-0.6371156,0.7707683,0,0)" />
    <path
       sodipodi:type="arc"
       style="opacity:1;fill:#ffb380;fill-opacity:1;fill-rule:nonzero;stroke:#000000;stroke-width:1;stroke-linecap:round;stroke-linejoin:miter;stroke-miterlimit:4;stroke-dasharray:none;stroke-opacity:1"
       id="path3221"
       sodipodi:cx="124.15455"
       sodipodi:cy="258.45178"
       sodipodi:rx="26.504904"
       sodipodi:ry="32.549881"
       d="M 150.65945,258.45178 A 26.504904,32.549881 0 1 1 97.649645,258.45178 A 26.504904,32.549881 0 1 1 150.65945,258.45178 z" />
    <path
       sodipodi:type="arc"
       style="opacity:1;fill:#ffffff;fill-opacity:1;fill-rule:nonzero;stroke:#000000;stroke-width:1;stroke-linecap:round;stroke-linejoin:miter;stroke-miterlimit:4;stroke-dasharray:none;stroke-opacity:1"
       id="path3223"
       sodipodi:cx="127.6552"
       sodipodi:cy="253.88954"
       sodipodi:rx="6.9784842"
       sodipodi:ry="7.3188982"
       d="M 134.63368,253.88954 A 6.9784842,7.3188982 0 1 1 120.67671,253.88954 A 6.9784842,7.3188982 0 1 1 134.63368,253.88954 z" />
    <path
       d="M 134.63368,253.88954 A 6.9784842,7.3188982 0 1 1 120.67671,253.88954 A 6.9784842,7.3188982 0 1 1 134.63368,253.88954 z"
       sodipodi:ry="7.3188982"
       sodipodi:rx="6.9784842"
       sodipodi:cy="253.88954"
       sodipodi:cx="127.6552"
       id="path3225"
       style="opacity:1;fill:#ffffff;fill-opacity:1;fill-rule:nonzero;stroke:#000000;stroke-width:1;stroke-linecap:round;stroke-linejoin:miter;stroke-miterlimit:4;stroke-dasharray:none;stroke-opacity:1"
       sodipodi:type="arc"
       transform="translate(18,0)" />
    <path
       d="M 134.63368,253.88954 A 6.9784842,7.3188982 0 1 1 120.67671,253.88954 A 6.9784842,7.3188982 0 1 1 134.63368,253.88954 z"
       sodipodi:ry="7.3188982"
       sodipodi:rx="6.9784842"
       sodipodi:cy="253.88954"
       sodipodi:cx="127.6552"
       id="path3227"
       style="opacity:1;fill:#000000;fill-opacity:1;fill-rule:nonzero;stroke:#000000;stroke-width:2.49139237;stroke-linecap:round;stroke-linejoin:miter;stroke-miterlimit:4;stroke-dasharray:none;stroke-opacity:1"
       sodipodi:type="arc"
       transform="matrix(0.4013819,0,0,0.4013819,77.804255,151.98283)" />
    <path
       transform="matrix(0.4013819,0,0,0.4013819,97.02913,151.98283)"
       sodipodi:type="arc"
       style="opacity:1;fill:#000000;fill-opacity:1;fill-rule:nonzero;stroke:#000000;stroke-width:2.49139237;stroke-linecap:round;stroke-linejoin:miter;stroke-miterlimit:4;stroke-dasharray:none;stroke-opacity:1"
       id="path3229"
       sodipodi:cx="127.6552"
       sodipodi:cy="253.88954"
       sodipodi:rx="6.9784842"
       sodipodi:ry="7.3188982"
       d="M 134.63368,253.88954 A 6.9784842,7.3188982 0 1 1 120.67671,253.88954 A 6.9784842,7.3188982 0 1 1 134.63368,253.88954 z" />
    <path
       sodipodi:type="arc"
       style="opacity:1;fill:#ff0000;fill-opacity:1;fill-rule:nonzero;stroke:#000000;stroke-width:1;stroke-linecap:round;stroke-linejoin:miter;stroke-miterlimit:4;stroke-dasharray:none;stroke-opacity:1"
       id="path3231"
       sodipodi:cx="109.61327"
       sodipodi:cy="284.3566"
       sodipodi:rx="3.0637248"
       sodipodi:ry="3.4041386"
       d="M 112.677,284.3566 A 3.0637248,3.4041386 0 1 1 106.54955,284.3566 A 3.0637248,3.4041386 0 1 1 112.677,284.3566 z" />
    <path
       style="opacity:1;fill:#ffb380;fill-opacity:1;fill-rule:nonzero;stroke:#000000;stroke-width:1;stroke-linecap:round;stroke-linejoin:miter;stroke-miterlimit:4;stroke-dasharray:none;stroke-opacity:1"
       d="M 99.060435,262.91052 C 93.954227,261.88927 92.762778,263.08072 93.103192,264.78279 C 93.443606,266.48486 94.464848,270.39962 96.337124,269.37838 C 98.2094,268.35714 100.5923,267.84652 100.5923,267.84652"
       id="path3233" />
    <path
       style="opacity:1;fill:#ffb380;fill-opacity:1;fill-rule:nonzero;stroke:#000000;stroke-width:1;stroke-linecap:round;stroke-linejoin:miter;stroke-miterlimit:4;stroke-dasharray:none;stroke-opacity:1"
       d="M 139.56968,265.46363 C 140.59093,267.1657 141.27175,268.86777 140.42072,269.88901 C 139.56968,270.91025 136.67617,271.76128 136.67617,271.76128"
       id="path3235" />
    <path
       style="opacity:1;fill:#ffff00;fill-opacity:1;fill-rule:nonzero;stroke:#000000;stroke-width:1;stroke-linecap:round;stroke-linejoin:miter;stroke-miterlimit:4;stroke-dasharray:none;stroke-opacity:1"
       d="M 122.7192,237.54968 C 127.6552,234.48596 134.9741,236.52844 134.9741,236.52844 L 141.44196,234.31575 C 151.65438,224.44375 154.37769,226.99685 154.37769,226.99685 C 143.48444,225.29478 139.05906,227.67768 139.05906,227.67768 C 127.6552,220.6992 119.82568,224.10334 119.82568,224.10334 C 104.67726,223.76292 98.039193,243.16651 98.039193,243.16651 C 89.528847,249.80458 97.868986,262.3999 97.868986,262.3999 L 100.5923,262.74031 L 101.78375,268.01672 L 104.33685,267.3359 L 102.46457,261.88927 L 108.59202,258.82555 L 106.88995,244.35796 C 106.88995,244.35796 107.74099,239.08155 113.35782,238.23051 C 118.97465,237.37948 122.7192,237.37948 122.7192,237.54968 z"
       id="path3237" />
    <path
       id="path3313"
       d="M 514.31876,247.55331 L 486.35411,227.35144 L 461.01479,235.04141 C 461.01479,235.04141 444.35689,228.08218 443.76771,230.47125 C 443.17853,232.86031 453.71242,237.67568 453.71242,237.67568 C 453.71242,237.67568 439.32866,242.04833 441.57448,244.50297 C 443.8203,246.95757 457.75409,241.84035 457.75409,241.84035 C 457.75409,241.84035 451.37999,254.84101 454.14135,255.20519 C 456.90268,255.56939 463.42812,243.23965 463.42812,243.23965 C 463.42812,243.23965 465.76781,251.73655 466.95829,250.76296 C 468.14877,249.78935 466.84824,239.64797 466.84824,239.64797 L 485.998,232.64914 L 510.3912,255.77179 L 514.31876,247.55331 z"
       style="opacity:1;fill:#ffffff;fill-opacity:1;fill-rule:nonzero;stroke:#000000;stroke-width:1;stroke-linecap:round;stroke-linejoin:miter;stroke-miterlimit:4;stroke-dasharray:none;stroke-opacity:1" />
    <path
       sodipodi:type="star"
       style="opacity:1;fill:#ff0000;fill-opacity:1;fill-rule:nonzero;stroke:#000000;stroke-width:3.33205199;stroke-linecap:butt;stroke-linejoin:round;stroke-miterlimit:4;stroke-dasharray:none;stroke-opacity:1"
       id="path4088"
       sodipodi:sides="12"
       sodipodi:cx="582.17383"
       sodipodi:cy="223.63496"
       sodipodi:r1="41.572071"
       sodipodi:r2="17.355352"
       sodipodi:arg1="0.9041035"
       sodipodi:arg2="1.1388947"
       inkscape:flatsided="false"
       inkscape:rounded="0"
       inkscape:randomized="0"
       d="M 607.8816,256.30525 L 589.43875,239.3966 L 588.10226,264.78215 L 580.58462,240.9174 L 566.73441,262.23369 L 572.15632,237.80739 L 549.50354,249.34273 L 566.41219,230.89989 L 541.02664,229.5634 L 564.89139,222.04576 L 543.5751,208.19555 L 568.0014,213.61745 L 556.46606,190.96468 L 574.9089,207.87333 L 576.24539,182.48778 L 583.76304,206.35253 L 597.61324,185.03624 L 592.19134,209.46254 L 614.84412,197.9272 L 597.93546,216.37004 L 623.32101,217.70653 L 599.45627,225.22417 L 620.77255,239.07438 L 596.34626,233.65248 L 607.8816,256.30525 z"
       transform="matrix(1.5005768,0,0,1.5005768,-285.42261,-89.946434)" />
    <path
       style="opacity:1;fill:#ffffff;fill-opacity:1;fill-rule:nonzero;stroke:#000000;stroke-width:1;stroke-linecap:round;stroke-linejoin:miter;stroke-miterlimit:4;stroke-dasharray:none;stroke-opacity:1"
       d="M 580.18027,230.33674 C 580.11313,230.32601 580.04731,230.35379 579.99277,230.39924 C 578.24753,231.8536 572.73554,233.58428 573.89902,236.49299 C 575.06254,239.40169 579.11777,253.68049 579.11777,253.68049 C 579.11776,253.6805 566.33659,267.62977 563.71875,269.375 C 561.1009,271.12024 532.86061,286.24522 531.40625,284.5 C 529.95187,282.75477 517.45913,274.32705 517.75,268.21875 C 518.04087,262.11046 514.5625,245.21875 514.5625,245.21875 L 507.28125,238.84375 C 505.23004,241.08144 503.52113,243.42364 502.0625,245.8125 L 472.3125,233.8125 L 449.5625,247.34375 C 449.56249,247.34376 431.71875,244.57061 431.71875,247.03125 C 431.71874,249.49189 443.09375,251.65625 443.09375,251.65625 C 443.09373,251.65626 430.16927,259.34201 432.9375,261.1875 C 435.70572,263.03295 448.03125,254.71875 448.03125,254.71875 C 448.03126,254.71876 444.95052,268.87009 447.71875,268.5625 C 450.48696,268.25492 453.875,254.71875 453.875,254.71875 C 453.87498,254.71876 458.17102,262.41781 459.09375,261.1875 C 460.01647,259.95715 456.3125,250.4375 456.3125,250.4375 L 473.25,239.03125 L 498.375,253.3125 C 493.03277,267.3819 495.55273,281.42286 498.5625,285.9375 C 502.63468,292.0458 527.0625,301.9375 527.0625,301.9375 C 527.06251,301.93749 548.5745,295.8269 549.15625,297.28125 C 549.73801,298.73559 555.84375,320.28125 555.84375,320.28125 L 554.125,326.96875 L 567.5,338.03125 C 567.50001,338.03124 572.74038,339.4592 573.03125,335.96875 C 573.32213,332.47829 562.53125,322.59375 562.53125,322.59375 C 562.53127,322.59374 555.57212,292.63224 555.28125,291.46875 C 554.99035,290.30528 542.75,290.3125 542.75,290.3125 C 542.75002,290.31251 570.67542,274.31258 573.875,270.53125 C 577.07458,266.74994 584.64902,259.49299 584.64902,259.49299 L 590.18027,257.14924 C 590.18027,257.14923 582.2617,230.66943 580.18027,230.33674 z"
       id="path3309"
       sodipodi:nodetypes="csscssscccccscscscscccscscccscscsccc" />
    <rect
       transform="matrix(0.7707683,0.6371156,-0.6371156,0.7707683,0,0)"
       style="opacity:1;fill:#ffffff;fill-opacity:1;fill-rule:nonzero;stroke:#000000;stroke-width:1.00000024;stroke-linecap:round;stroke-linejoin:miter;stroke-miterlimit:4;stroke-dasharray:none;stroke-opacity:1"
       id="rect3257"
       width="20.088284"
       height="12.976385"
       x="541.42859"
       y="-146.26117"
       rx="8.1401091"
       ry="5.685564" />
    <path
       d="M 150.65945,258.45178 A 26.504904,32.549881 0 1 1 97.649645,258.45178 A 26.504904,32.549881 0 1 1 150.65945,258.45178 z"
       sodipodi:ry="32.549881"
       sodipodi:rx="26.504904"
       sodipodi:cy="258.45178"
       sodipodi:cx="124.15455"
       id="path3259"
       style="opacity:1;fill:#ffb380;fill-opacity:1;fill-rule:nonzero;stroke:#000000;stroke-width:1;stroke-linecap:round;stroke-linejoin:miter;stroke-miterlimit:4;stroke-dasharray:none;stroke-opacity:1"
       sodipodi:type="arc"
       transform="translate(408.47103,-37.764484)" />
    <path
       style="opacity:1;fill:#ff0000;fill-opacity:1;fill-rule:nonzero;stroke:#000000;stroke-width:1;stroke-linecap:round;stroke-linejoin:miter;stroke-miterlimit:4;stroke-dasharray:none;stroke-opacity:1"
       d="M 516.97867,238.70542 C 514.13553,240.28495 514.92529,241.86447 515.2412,242.49628 C 515.5571,243.12809 517.45254,243.91786 518.40025,243.444 C 519.34797,242.97014 520.29568,241.23266 520.29568,241.23266 L 516.97867,238.70542 z"
       id="path3307"
       sodipodi:nodetypes="csscc" />
    <path
       d="M 134.63368,253.88954 A 6.9784842,7.3188982 0 1 1 120.67671,253.88954 A 6.9784842,7.3188982 0 1 1 134.63368,253.88954 z"
       sodipodi:ry="7.3188982"
       sodipodi:rx="6.9784842"
       sodipodi:cy="253.88954"
       sodipodi:cx="127.6552"
       id="path3261"
       style="opacity:1;fill:#ffffff;fill-opacity:1;fill-rule:nonzero;stroke:#000000;stroke-width:1;stroke-linecap:round;stroke-linejoin:miter;stroke-miterlimit:4;stroke-dasharray:none;stroke-opacity:1"
       sodipodi:type="arc"
       transform="translate(408.47103,-37.764484)" />
    <path
       transform="translate(426.47103,-37.764484)"
       sodipodi:type="arc"
       style="opacity:1;fill:#ffffff;fill-opacity:1;fill-rule:nonzero;stroke:#000000;stroke-width:1;stroke-linecap:round;stroke-linejoin:miter;stroke-miterlimit:4;stroke-dasharray:none;stroke-opacity:1"
       id="path3263"
       sodipodi:cx="127.6552"
       sodipodi:cy="253.88954"
       sodipodi:rx="6.9784842"
       sodipodi:ry="7.3188982"
       d="M 134.63368,253.88954 A 6.9784842,7.3188982 0 1 1 120.67671,253.88954 A 6.9784842,7.3188982 0 1 1 134.63368,253.88954 z" />
    <path
       transform="matrix(0.4013819,0,0,0.4013819,486.27528,116.21835)"
       sodipodi:type="arc"
       style="opacity:1;fill:#000000;fill-opacity:1;fill-rule:nonzero;stroke:#000000;stroke-width:2.49139237;stroke-linecap:round;stroke-linejoin:miter;stroke-miterlimit:4;stroke-dasharray:none;stroke-opacity:1"
       id="path3265"
       sodipodi:cx="127.6552"
       sodipodi:cy="253.88954"
       sodipodi:rx="6.9784842"
       sodipodi:ry="7.3188982"
       d="M 134.63368,253.88954 A 6.9784842,7.3188982 0 1 1 120.67671,253.88954 A 6.9784842,7.3188982 0 1 1 134.63368,253.88954 z" />
    <path
       d="M 134.63368,253.88954 A 6.9784842,7.3188982 0 1 1 120.67671,253.88954 A 6.9784842,7.3188982 0 1 1 134.63368,253.88954 z"
       sodipodi:ry="7.3188982"
       sodipodi:rx="6.9784842"
       sodipodi:cy="253.88954"
       sodipodi:cx="127.6552"
       id="path3267"
       style="opacity:1;fill:#000000;fill-opacity:1;fill-rule:nonzero;stroke:#000000;stroke-width:2.49139237;stroke-linecap:round;stroke-linejoin:miter;stroke-miterlimit:4;stroke-dasharray:none;stroke-opacity:1"
       sodipodi:type="arc"
       transform="matrix(0.4013819,0,0,0.4013819,505.50016,116.21835)" />
    <path
       id="path3271"
       d="M 507.53146,225.14604 C 502.42526,224.12479 501.23381,225.31624 501.57422,227.01831 C 501.91464,228.72038 502.93588,232.63514 504.80815,231.6139 C 506.68043,230.59266 509.06333,230.08204 509.06333,230.08204"
       style="opacity:1;fill:#ffb380;fill-opacity:1;fill-rule:nonzero;stroke:#000000;stroke-width:1;stroke-linecap:round;stroke-linejoin:miter;stroke-miterlimit:4;stroke-dasharray:none;stroke-opacity:1" />
    <path
       id="path3273"
       d="M 548.04071,227.69915 C 549.06196,229.40122 549.74278,231.10329 548.89175,232.12453 C 548.04071,233.14577 545.1472,233.9968 545.1472,233.9968"
       style="opacity:1;fill:#ffb380;fill-opacity:1;fill-rule:nonzero;stroke:#000000;stroke-width:1;stroke-linecap:round;stroke-linejoin:miter;stroke-miterlimit:4;stroke-dasharray:none;stroke-opacity:1" />
    <path
       id="path3275"
       d="M 531.19023,199.7852 C 536.12623,196.72148 543.44513,198.76396 543.44513,198.76396 L 549.91299,196.55127 C 560.12541,186.67927 562.84872,189.23237 562.84872,189.23237 C 551.95547,187.5303 547.53009,189.9132 547.53009,189.9132 C 536.12623,182.93472 528.29671,186.33886 528.29671,186.33886 C 513.14829,185.99844 506.51022,205.40203 506.51022,205.40203 C 497.99988,212.0401 506.34002,224.63542 506.34002,224.63542 L 509.06333,224.97583 L 510.25478,230.25224 L 512.80788,229.57142 L 510.9356,224.12479 L 517.06305,221.06107 L 515.36098,206.59348 C 515.36098,206.59348 516.21202,201.31707 521.82885,200.46603 C 527.44568,199.615 531.19023,199.615 531.19023,199.7852 z"
       style="opacity:1;fill:#ffff00;fill-opacity:1;fill-rule:nonzero;stroke:#000000;stroke-width:1;stroke-linecap:round;stroke-linejoin:miter;stroke-miterlimit:4;stroke-dasharray:none;stroke-opacity:1" />
    <path
       style="opacity:1;fill:none;fill-opacity:1;fill-rule:nonzero;stroke:#000000;stroke-width:1;stroke-linecap:round;stroke-linejoin:miter;stroke-miterlimit:4;stroke-dasharray:none;stroke-opacity:1"
       d="M 604.43014,295.26018 C 585.81439,302.53196 589.01397,304.85893 589.59571,310.09461 C 590.17746,315.33029 580.86958,317.65726 577.08826,318.82074 C 573.30693,319.98423 578.54261,336.56388 584.94178,335.69126 C 591.34094,334.81865 589.01397,325.51078 584.06916,326.96513 C 579.12435,328.41949 579.12435,344.12653 571.85258,346.4535 C 564.5808,348.78046 559.63599,347.32611 552.65508,345.87175 C 545.67418,344.4174 535.78456,358.37921 535.78456,358.37921"
       id="path3316" />
    <rect
       style="opacity:1;fill:#cccccc;fill-opacity:1;fill-rule:nonzero;stroke:#000000;stroke-width:1;stroke-linecap:round;stroke-linejoin:miter;stroke-miterlimit:4;stroke-dasharray:none;stroke-opacity:1"
       id="rect3288"
       width="47.837067"
       height="92.412514"
       x="640.28351"
       y="57.837128"
       rx="8.1401091"
       ry="5.6855655"
       transform="matrix(0.9718131,0.2357528,-0.2357528,0.9718131,0,0)" />
    <text
       xml:space="preserve"
       style="font-size:12.00000191px;font-style:italic;font-variant:normal;font-weight:normal;font-stretch:normal;text-align:center;line-height:125%;writing-mode:lr-tb;text-anchor:middle;fill:#000000;fill-opacity:1;stroke:none;stroke-width:1px;stroke-linecap:butt;stroke-linejoin:miter;stroke-opacity:1;font-family:Kid Kosmic;-inkscape-font-specification:Kid Kosmic Italic"
       x="664.59161"
       y="91.982262"
       id="text3290"
       sodipodi:linespacing="125%"
       transform="matrix(0.9718131,0.2357528,-0.2357528,0.9718131,0,0)"><tspan
         sodipodi:role="line"
         id="tspan3292"
         x="664.59161"
         y="91.982262">cpu</tspan></text>
    <path
       style="opacity:1;fill:#ffb380;fill-opacity:1;fill-rule:nonzero;stroke:#000000;stroke-width:1;stroke-linecap:round;stroke-linejoin:miter;stroke-miterlimit:4;stroke-dasharray:none;stroke-opacity:1"
       d="M 536.125,208.8125 C 533.39642,208.8125 531.05054,210.45015 529.90625,212.84375 L 530.71875,213.125 C 531.29189,213.41156 540.8738,217.35649 542.8125,218.15625 C 542.9886,217.51308 543.09374,216.82781 543.09375,216.125 C 543.09375,212.08497 539.97713,208.81251 536.125,208.8125 z M 554.125,208.8125 C 550.27288,208.8125 547.15623,212.08496 547.15625,216.125 C 547.15625,216.88251 547.26531,217.62548 547.46875,218.3125 C 548.92354,217.71099 559.28488,213.42007 559.875,213.125 L 560.375,212.9375 C 559.24685,210.49639 556.8868,208.81251 554.125,208.8125 z"
       id="path3294" />
    <text
       xml:space="preserve"
       style="font-size:35.16418839px;font-style:italic;font-variant:normal;font-weight:normal;font-stretch:normal;text-align:center;line-height:125%;writing-mode:lr-tb;text-anchor:middle;fill:#ffff00;fill-opacity:1;stroke:#000000;stroke-width:1px;stroke-linecap:butt;stroke-linejoin:miter;stroke-opacity:1;font-family:Kid Kosmic;-inkscape-font-specification:Kid Kosmic Italic"
       x="309.11566"
       y="588.82874"
       id="text4090"
       sodipodi:linespacing="125%"
       transform="matrix(0.7388461,-0.6738742,0.6738742,0.7388461,0,0)"><tspan
         sodipodi:role="line"
         id="tspan4092"
         x="309.11566"
         y="588.82874">plonk</tspan></text>
    <path
       style="opacity:1;fill:#ffb380;fill-opacity:1;fill-rule:nonzero;stroke:#000000;stroke-width:1;stroke-linecap:round;stroke-linejoin:miter;stroke-miterlimit:4;stroke-dasharray:none;stroke-opacity:1"
       d="M 516.03096,237.4418 C 519.66387,240.28495 524.8763,245.97124 524.8763,245.97124"
       id="path3305" />
    <path
       style="opacity:1;fill:url(#linearGradient4104);fill-opacity:1;fill-rule:nonzero;stroke:none;stroke-width:1;stroke-linecap:butt;stroke-linejoin:round;stroke-miterlimit:4;stroke-dasharray:none;stroke-opacity:1"
       d="M 371.69148,293.26018 C 385.61652,268.62357 404.89734,275.05051 404.89734,275.05051 C 423.10701,262.19663 438.10321,286.83324 438.10321,286.83324 C 456.31288,269.69472 479.87833,281.47745 479.87833,281.47745 L 477.73602,298.61596 C 477.73602,298.61596 473.45139,282.54861 461.66866,288.97555 C 449.88594,295.40249 441.31668,305.04291 441.31668,305.04291 C 441.31668,305.04291 438.10321,283.61977 424.17817,287.90439 C 410.25313,292.18902 412.39544,279.33514 400.61272,284.69092 C 388.82999,290.04671 382.40305,302.90059 382.40305,302.90059"
       id="path4094" />
    <path
       id="path4096"
       d="M 477.73602,298.61596 C 477.73602,298.61596 473.45139,282.54861 461.66866,288.97555 C 449.88594,295.40249 441.31668,305.04291 441.31668,305.04291 C 441.31668,305.04291 438.10321,283.61977 424.17817,287.90439 C 410.25313,292.18902 412.39544,279.33514 400.61272,284.69092 C 388.82999,290.04671 382.40305,302.90059 382.40305,302.90059 M 371.69148,293.26018 C 385.61652,268.62357 404.89734,275.05051 404.89734,275.05051 C 423.10701,262.19663 438.10321,286.83324 438.10321,286.83324 C 456.31288,269.69472 479.87833,281.47745 479.87833,281.47745"
       style="opacity:1;fill:none;fill-opacity:1;fill-rule:nonzero;stroke:url(#linearGradient4112);stroke-width:1;stroke-linecap:butt;stroke-linejoin:round;stroke-miterlimit:4;stroke-dasharray:none;stroke-opacity:1"
       sodipodi:nodetypes="cscssccccc" />
    <path
       id="path4114"
       d="M 990.86254,307.17294 C 980.26554,308.55476 975.65816,310.16689 975.65816,310.16689 C 975.65816,310.16689 971.74189,308.55476 969.89893,310.39718 C 968.05598,312.23961 964.83083,343.98549 964.83083,343.98549 L 966.69417,385.98507 C 966.69417,385.98507 969.45861,377.23357 968.99788,375.39115 C 968.53712,373.54871 967.15492,372.16691 968.0764,371.70628 C 968.99788,371.24569 973.14451,367.79114 973.14451,367.79114 C 973.14451,367.79114 968.99788,364.10629 967.84603,364.33661 C 966.69417,364.56691 962.77789,371.01539 962.77789,371.01539 C 962.77789,371.01539 957.24904,367.33054 956.55792,364.7972 C 955.86682,362.26386 952.41129,355.5851 951.95054,357.65781 C 951.48982,359.73054 948.95574,365.71843 949.41649,367.33054 C 949.87722,368.94267 947.11278,381.83962 948.72538,382.30022 C 950.33796,382.76083 964.16011,391.28204 964.16011,391.28204 L 972.52922,341.84967 L 976.11891,327.4396 C 976.11891,327.4396 980.03519,338.72444 980.72629,341.25778 C 981.41741,343.7911 979.34408,370.27594 979.34408,370.27594 L 1024.4965,367.97292 C 1024.4965,367.97292 1015.7424,341.4881 1015.9728,338.49413 C 1016.2032,335.5002 1022.4703,323.29861 1022.4703,323.29861 C 1027.1354,324.72233 1028.0505,335.21111 1030.9468,342.8699 L 1032.7897,367.51231 L 1038.0882,365.66988 L 1037.3971,338.72444 C 1037.3971,338.72444 1032.5594,310.39718 1031.6379,309.24568 C 1030.7164,308.09415 1026.3394,309.01537 1026.3394,309.01537 L 1009.7528,306.71233 L 990.86254,307.17294 z"
       style="opacity:1;fill:#ffffff;fill-opacity:1;fill-rule:nonzero;stroke:#000000;stroke-width:0.99999988;stroke-linecap:round;stroke-linejoin:miter;stroke-miterlimit:4;stroke-dasharray:none;stroke-opacity:1"
       sodipodi:nodetypes="ccsccsscscsssscccsccscccccsccc" />
    <rect
       ry="5.685564"
       rx="8.1401091"
       y="293.35739"
       x="984.95111"
       height="18.09483"
       width="28.011969"
       id="rect4116"
       style="opacity:1;fill:#ffffff;fill-opacity:1;fill-rule:nonzero;stroke:#000000;stroke-width:0.99999994;stroke-linecap:round;stroke-linejoin:miter;stroke-miterlimit:4;stroke-dasharray:none;stroke-opacity:1" />
    <path
       transform="matrix(0.7955936,0,0,0.8748588,753.56726,32.22737)"
       d="M 333.85569,277.14343 A 37.016487,37.016487 0 1 1 259.82272,277.14343 A 37.016487,37.016487 0 1 1 333.85569,277.14343 z"
       sodipodi:ry="37.016487"
       sodipodi:rx="37.016487"
       sodipodi:cy="277.14343"
       sodipodi:cx="296.8392"
       id="path4120"
       style="fill:#ffb380;fill-opacity:1;fill-rule:nonzero;stroke:#000000;stroke-width:1.19863069;stroke-linecap:round;stroke-linejoin:miter;stroke-miterlimit:4;stroke-dasharray:none;stroke-opacity:1"
       sodipodi:type="arc" />
    <path
       id="path4124"
       d="M 971.72132,275.83603 C 964.96521,277.91424 967.04401,283.6293 967.04401,283.6293 C 970.16222,290.64323 976.13876,284.14885 976.13876,284.14885"
       style="fill:#ffb380;fill-opacity:1;fill-rule:nonzero;stroke:#000000;stroke-width:0.99999994;stroke-linecap:round;stroke-linejoin:miter;stroke-miterlimit:4;stroke-dasharray:none;stroke-opacity:1" />
    <path
       d="M 290.13547,271.11816 A 8.6231737,9.0047302 0 1 1 272.88912,271.11816 A 8.6231737,9.0047302 0 1 1 290.13547,271.11816 z"
       sodipodi:ry="9.0047302"
       sodipodi:rx="8.6231737"
       sodipodi:cy="271.11816"
       sodipodi:cx="281.5123"
       id="path4126"
       style="fill:#ffffff;fill-opacity:1;fill-rule:nonzero;stroke:#000000;stroke-width:1.07008231;stroke-linecap:round;stroke-linejoin:miter;stroke-miterlimit:4;stroke-dasharray:none;stroke-opacity:1"
       sodipodi:type="arc"
       transform="matrix(0.9346422,0,0,0.934373,727.52486,9.8865373)" />
    <path
       transform="matrix(0.8363077,0,0,0.8360669,730.90651,40.2766)"
       sodipodi:type="arc"
       style="fill:#ffffff;fill-opacity:1;fill-rule:nonzero;stroke:#000000;stroke-width:1.19590425;stroke-linecap:round;stroke-linejoin:miter;stroke-miterlimit:4;stroke-dasharray:none;stroke-opacity:1"
       id="path4128"
       sodipodi:cx="281.5123"
       sodipodi:cy="271.11816"
       sodipodi:rx="8.6231737"
       sodipodi:ry="9.0047302"
       d="M 290.13547,271.11816 A 8.6231737,9.0047302 0 1 1 272.88912,271.11816 A 8.6231737,9.0047302 0 1 1 290.13547,271.11816 z" />
    <path
       d="M 290.13547,271.11816 A 8.6231737,9.0047302 0 1 1 272.88912,271.11816 A 8.6231737,9.0047302 0 1 1 290.13547,271.11816 z"
       sodipodi:ry="9.0047302"
       sodipodi:rx="8.6231737"
       sodipodi:cy="271.11816"
       sodipodi:cx="281.5123"
       id="path4130"
       style="fill:#000000;fill-opacity:1;fill-rule:nonzero;stroke:#000000;stroke-width:3.76964355;stroke-linecap:round;stroke-linejoin:miter;stroke-miterlimit:4;stroke-dasharray:none;stroke-opacity:1"
       sodipodi:type="arc"
       transform="matrix(0.2653153,0,0,0.2652389,889.14811,195.46037)" />
    <path
       transform="matrix(0.2965115,0,0,0.2964261,907.02958,183.81924)"
       sodipodi:type="arc"
       style="fill:#000000;fill-opacity:1;fill-rule:nonzero;stroke:#000000;stroke-width:3.37303686;stroke-linecap:round;stroke-linejoin:miter;stroke-miterlimit:4;stroke-dasharray:none;stroke-opacity:1"
       id="path4132"
       sodipodi:cx="281.5123"
       sodipodi:cy="271.11816"
       sodipodi:rx="8.6231737"
       sodipodi:ry="9.0047302"
       d="M 290.13547,271.11816 A 8.6231737,9.0047302 0 1 1 272.88912,271.11816 A 8.6231737,9.0047302 0 1 1 290.13547,271.11816 z" />
    <path
       id="path4134"
       d="M 976.58735,252.51655 C 966.60203,247.38271 960.18289,257.22255 960.18289,257.22255 C 966.45938,245.10101 970.31086,244.6732 975.30353,242.96192 C 980.29619,241.25063 987.99915,238.96893 988.99768,239.96718 C 989.99621,240.96543 989.99621,242.24888 989.99621,242.24888 C 989.99621,242.24888 982.72119,244.38798 981.00942,245.95665 C 979.29765,247.52532 976.58735,252.65915 976.58735,252.51655 z"
       style="fill:#d45500;fill-opacity:1;fill-rule:nonzero;stroke:#000000;stroke-width:1;stroke-linecap:round;stroke-linejoin:miter;stroke-miterlimit:4;stroke-dasharray:none;stroke-opacity:1" />
    <path
       id="path4136"
       d="M 978.44177,252.51655 C 978.44177,252.51655 989.42562,244.38798 992.13593,245.67143 C 994.84623,246.9549 1002.8345,254.94085 1002.8345,254.94085 L 1001.408,249.3792 C 1001.408,249.3792 1009.6816,259.64686 1009.2536,262.07118 C 1008.8257,264.49548 1015.9581,277.33006 1015.9581,277.33006 L 1014.1036,268.34585 L 1017.9551,267.63282 L 1018.3831,285.60123 L 1020.3801,267.205 C 1020.3801,267.205 1019.3816,250.66266 1017.0992,248.52356 C 1014.8169,246.38447 1002.4065,238.96893 998.69771,238.54112 C 994.98888,238.1133 991.70798,239.25415 990.42416,239.96718 C 989.14033,240.68021 978.58442,243.67495 978.86971,246.24186 C 979.15501,248.80878 978.44177,252.37393 978.44177,252.51655 z"
       style="fill:#d45500;fill-opacity:1;fill-rule:nonzero;stroke:#000000;stroke-width:1;stroke-linecap:round;stroke-linejoin:miter;stroke-miterlimit:4;stroke-dasharray:none;stroke-opacity:1" />
    <path
       id="path4138"
       d="M 1014.5316,269.20149 C 1022.6625,265.77894 1023.2331,271.19798 1023.2331,271.19798 C 1023.9463,275.76138 1017.0992,275.47618 1017.0992,275.47618"
       style="fill:#ffb380;fill-opacity:1;fill-rule:nonzero;stroke:#000000;stroke-width:1;stroke-linecap:round;stroke-linejoin:miter;stroke-miterlimit:4;stroke-dasharray:none;stroke-opacity:1" />
    <path
       style="opacity:1;fill:#ffffff;fill-opacity:1;fill-rule:nonzero;stroke:#000000;stroke-width:1;stroke-linecap:butt;stroke-linejoin:round;stroke-miterlimit:4;stroke-dasharray:none;stroke-opacity:1"
       d="M 815.71707,294.45092 L 800.56012,297.48231 C 800.56012,297.48231 773.65655,314.15494 774.4144,317.56526 C 775.17225,320.97557 785.02426,346.74237 785.02426,346.74237 C 785.02426,346.74237 779.71933,355.83654 783.88749,358.11008 C 788.05565,360.38362 798.66551,358.11008 798.66551,355.45761 C 798.66551,352.80515 789.19242,344.84775 789.19242,344.84775 L 781.61395,319.45987 C 781.61395,319.45987 801.6969,306.57647 802.07582,308.47109 C 802.45474,310.36571 811.16998,349.77376 810.79106,352.80515 C 810.41214,355.83654 807.00183,376.29841 807.00183,376.29841 L 849.44127,378.19303 C 849.44127,378.19303 834.66325,356.97331 835.04217,352.0473 C 835.42109,347.12129 842.62064,317.56526 842.62064,317.56526 C 842.62064,317.56526 871.03991,336.13251 873.31345,333.48005 C 875.58699,330.82758 887.33362,313.01817 891.50178,311.12355 C 895.66994,309.22894 901.35379,305.81862 900.97487,302.02939 C 900.59595,298.24015 894.15425,294.82984 894.15425,294.82984 C 894.15425,294.82984 909.69011,283.46213 908.55334,281.94644 C 907.41657,280.43075 907.41657,277.39936 904.76411,278.1572 C 902.11164,278.91505 891.88071,290.66168 891.88071,290.66168 C 891.88071,290.66168 895.66994,271.33658 893.77532,269.82089 C 891.88071,268.30519 887.71255,267.92627 887.71255,272.09443 C 887.71255,276.26259 887.71255,294.07199 887.71255,294.07199 C 887.71255,294.07199 878.9973,297.48231 880.13407,298.998 C 881.27085,300.51369 882.78654,309.98678 882.78654,309.98678 L 871.03991,328.55404 L 828.60047,297.86123 L 815.71707,294.45092 z"
       id="path4168" />
    <rect
       transform="matrix(0.7707683,0.6371156,-0.6371156,0.7707683,0,0)"
       style="opacity:1;fill:#ffffff;fill-opacity:1;fill-rule:nonzero;stroke:#000000;stroke-width:1.00000024;stroke-linecap:round;stroke-linejoin:miter;stroke-miterlimit:4;stroke-dasharray:none;stroke-opacity:1"
       id="rect4146"
       width="20.088284"
       height="12.976385"
       x="817.07404"
       y="-301.7597"
       rx="8.1401091"
       ry="5.685564" />
    <path
       d="M 150.65945,258.45178 A 26.504904,32.549881 0 1 1 97.649645,258.45178 A 26.504904,32.549881 0 1 1 150.65945,258.45178 z"
       sodipodi:ry="32.549881"
       sodipodi:rx="26.504904"
       sodipodi:cy="258.45178"
       sodipodi:cx="124.15455"
       id="path4148"
       style="opacity:1;fill:#ffb380;fill-opacity:1;fill-rule:nonzero;stroke:#000000;stroke-width:1;stroke-linecap:round;stroke-linejoin:miter;stroke-miterlimit:4;stroke-dasharray:none;stroke-opacity:1"
       sodipodi:type="arc"
       transform="translate(720,18)" />
    <path
       d="M 134.63368,253.88954 A 6.9784842,7.3188982 0 1 1 120.67671,253.88954 A 6.9784842,7.3188982 0 1 1 134.63368,253.88954 z"
       sodipodi:ry="7.3188982"
       sodipodi:rx="6.9784842"
       sodipodi:cy="253.88954"
       sodipodi:cx="127.6552"
       id="path4150"
       style="opacity:1;fill:#ffffff;fill-opacity:1;fill-rule:nonzero;stroke:#000000;stroke-width:1;stroke-linecap:round;stroke-linejoin:miter;stroke-miterlimit:4;stroke-dasharray:none;stroke-opacity:1"
       sodipodi:type="arc"
       transform="translate(720,18)" />
    <path
       transform="translate(738,18)"
       sodipodi:type="arc"
       style="opacity:1;fill:#ffffff;fill-opacity:1;fill-rule:nonzero;stroke:#000000;stroke-width:1;stroke-linecap:round;stroke-linejoin:miter;stroke-miterlimit:4;stroke-dasharray:none;stroke-opacity:1"
       id="path4152"
       sodipodi:cx="127.6552"
       sodipodi:cy="253.88954"
       sodipodi:rx="6.9784842"
       sodipodi:ry="7.3188982"
       d="M 134.63368,253.88954 A 6.9784842,7.3188982 0 1 1 120.67671,253.88954 A 6.9784842,7.3188982 0 1 1 134.63368,253.88954 z" />
    <path
       transform="matrix(0.4013819,0,0,0.4013819,797.80425,169.98283)"
       sodipodi:type="arc"
       style="opacity:1;fill:#000000;fill-opacity:1;fill-rule:nonzero;stroke:#000000;stroke-width:2.49139237;stroke-linecap:round;stroke-linejoin:miter;stroke-miterlimit:4;stroke-dasharray:none;stroke-opacity:1"
       id="path4154"
       sodipodi:cx="127.6552"
       sodipodi:cy="253.88954"
       sodipodi:rx="6.9784842"
       sodipodi:ry="7.3188982"
       d="M 134.63368,253.88954 A 6.9784842,7.3188982 0 1 1 120.67671,253.88954 A 6.9784842,7.3188982 0 1 1 134.63368,253.88954 z" />
    <path
       d="M 134.63368,253.88954 A 6.9784842,7.3188982 0 1 1 120.67671,253.88954 A 6.9784842,7.3188982 0 1 1 134.63368,253.88954 z"
       sodipodi:ry="7.3188982"
       sodipodi:rx="6.9784842"
       sodipodi:cy="253.88954"
       sodipodi:cx="127.6552"
       id="path4156"
       style="opacity:1;fill:#000000;fill-opacity:1;fill-rule:nonzero;stroke:#000000;stroke-width:2.49139237;stroke-linecap:round;stroke-linejoin:miter;stroke-miterlimit:4;stroke-dasharray:none;stroke-opacity:1"
       sodipodi:type="arc"
       transform="matrix(0.4013819,0,0,0.4013819,817.02913,169.98283)" />
    <path
       id="path4160"
       d="M 819.06043,280.91052 C 813.95423,279.88927 812.76278,281.08072 813.10319,282.78279 C 813.44361,284.48486 814.46485,288.39962 816.33712,287.37838 C 818.2094,286.35714 820.5923,285.84652 820.5923,285.84652"
       style="opacity:1;fill:#ffb380;fill-opacity:1;fill-rule:nonzero;stroke:#000000;stroke-width:1;stroke-linecap:round;stroke-linejoin:miter;stroke-miterlimit:4;stroke-dasharray:none;stroke-opacity:1" />
    <path
       id="path4162"
       d="M 859.56968,283.46363 C 860.59093,285.1657 861.27175,286.86777 860.42072,287.88901 C 859.56968,288.91025 856.67617,289.76128 856.67617,289.76128"
       style="opacity:1;fill:#ffb380;fill-opacity:1;fill-rule:nonzero;stroke:#000000;stroke-width:1;stroke-linecap:round;stroke-linejoin:miter;stroke-miterlimit:4;stroke-dasharray:none;stroke-opacity:1" />
    <path
       id="path4164"
       d="M 842.7192,255.54968 C 847.6552,252.48596 854.9741,254.52844 854.9741,254.52844 L 861.44196,252.31575 C 871.65438,242.44375 874.37769,244.99685 874.37769,244.99685 C 863.48444,243.29478 859.05906,245.67768 859.05906,245.67768 C 847.6552,238.6992 839.82568,242.10334 839.82568,242.10334 C 824.67726,241.76292 818.03919,261.16651 818.03919,261.16651 C 809.52885,267.80458 817.86899,280.3999 817.86899,280.3999 L 820.5923,280.74031 L 821.78375,286.01672 L 824.33685,285.3359 L 822.46457,279.88927 L 828.59202,276.82555 L 826.88995,262.35796 C 826.88995,262.35796 827.74099,257.08155 833.35782,256.23051 C 838.97465,255.37948 842.7192,255.37948 842.7192,255.54968 z"
       style="opacity:1;fill:#ffff00;fill-opacity:1;fill-rule:nonzero;stroke:#000000;stroke-width:1;stroke-linecap:round;stroke-linejoin:miter;stroke-miterlimit:4;stroke-dasharray:none;stroke-opacity:1" />
    <path
       style="opacity:1;fill:#ffffff;fill-opacity:1;fill-rule:nonzero;stroke:#000000;stroke-width:1;stroke-linecap:butt;stroke-linejoin:round;stroke-miterlimit:4;stroke-dasharray:none;stroke-opacity:1"
       d="M 855.2305,298.07199 C 840.83141,298.45092 828.70585,287.46213 828.70585,287.46213 C 825.67446,299.96661 830.60047,309.06078 830.60047,309.06078 C 845.37849,317.01817 854.47265,312.09217 854.47265,312.09217 C 852.57804,308.30293 855.2305,298.82984 855.2305,298.07199 z M 827.19016,298.45092 C 842.72602,307.92401 853.33588,306.40831 853.33588,306.40831"
       id="path4166" />
    <path
       style="opacity:1;fill:#ffffff;fill-opacity:1;fill-rule:nonzero;stroke:#000000;stroke-width:1;stroke-linecap:butt;stroke-linejoin:round;stroke-miterlimit:4;stroke-dasharray:none;stroke-opacity:1"
       d="M 993.74568,295.47328 L 1002.2977,295.90088"
       id="path4180" />
    <path
       style="opacity:1;fill:#ffffff;fill-opacity:1;fill-rule:nonzero;stroke:#000000;stroke-width:1;stroke-linecap:butt;stroke-linejoin:round;stroke-miterlimit:4;stroke-dasharray:none;stroke-opacity:1"
       d="M 1007.4712,235.92392 L 1001.0975,276.19076 C 1001.0975,276.19076 1004.52,289.25143 1008.2212,286.86761 C 1011.9223,284.48378 1013.8984,275.35627 1013.8984,275.35627 L 1007.4712,235.92392 z"
       id="path4182" />
    <path
       style="opacity:1;fill:none;fill-opacity:0.57264961;fill-rule:nonzero;stroke:#000000;stroke-width:1;stroke-linecap:butt;stroke-linejoin:round;stroke-miterlimit:4;stroke-dasharray:none;stroke-opacity:1"
       d="M 39.968367,261.63399 C 45.789002,255.42531 50.833554,258.52965 50.833554,258.52965"
       id="path4192" />
    <path
       id="path4194"
       d="M 39.192282,258.91769 C 45.012917,252.70901 50.057469,255.81335 50.057469,255.81335"
       style="opacity:0.97000002;fill:none;fill-opacity:0.57264961;fill-rule:nonzero;stroke:#000000;stroke-width:1;stroke-linecap:butt;stroke-linejoin:round;stroke-miterlimit:4;stroke-dasharray:none;stroke-opacity:1" />
    <path
       style="opacity:0.97000002;fill:none;fill-opacity:0.57264961;fill-rule:nonzero;stroke:#000000;stroke-width:1;stroke-linecap:butt;stroke-linejoin:round;stroke-miterlimit:4;stroke-dasharray:none;stroke-opacity:1"
       d="M 159.87347,278.70786 C 163.75389,282.20024 163.75389,285.30458 163.75389,285.30458"
       id="path4196" />
    <path
       id="path4198"
       d="M 161.87347,276.70786 C 165.75389,280.20024 165.75389,283.30458 165.75389,283.30458"
       style="opacity:0.97000002;fill:none;fill-opacity:0.57264961;fill-rule:nonzero;stroke:#000000;stroke-width:1;stroke-linecap:butt;stroke-linejoin:round;stroke-miterlimit:4;stroke-dasharray:none;stroke-opacity:1" />
    <path
       style="opacity:0.97000002;fill:none;fill-opacity:0.57264961;fill-rule:nonzero;stroke:#000000;stroke-width:1;stroke-linecap:butt;stroke-linejoin:round;stroke-miterlimit:4;stroke-dasharray:none;stroke-opacity:1"
       d="M 203.72226,285.69262 L 199.06575,290.34913 L 202.17009,296.16976 L 199.45379,297.33389"
       id="path4200" />
    <path
       id="path4202"
       d="M 199.72226,285.69262 L 195.06575,290.34913 L 198.17009,296.16976 L 195.45379,297.33389"
       style="opacity:0.97000002;fill:none;fill-opacity:0.57264961;fill-rule:nonzero;stroke:#000000;stroke-width:1;stroke-linecap:butt;stroke-linejoin:round;stroke-miterlimit:4;stroke-dasharray:none;stroke-opacity:1" />
    <path
       style="opacity:0.97000002;fill:none;fill-opacity:0.57264961;fill-rule:nonzero;stroke:#000000;stroke-width:1;stroke-linecap:butt;stroke-linejoin:round;stroke-miterlimit:4;stroke-dasharray:none;stroke-opacity:1"
       d="M 292.58396,241.84383 C 297.24047,242.23187 298.4046,244.56013 298.4046,244.56013"
       id="path4204" />
    <path
       id="path4206"
       d="M 294.58396,239.84383 C 299.24047,240.23187 300.4046,242.56013 300.4046,242.56013"
       style="opacity:0.97000002;fill:none;fill-opacity:0.57264961;fill-rule:nonzero;stroke:#000000;stroke-width:1;stroke-linecap:butt;stroke-linejoin:round;stroke-miterlimit:4;stroke-dasharray:none;stroke-opacity:1" />
    <path
       style="opacity:0.97000002;fill:none;fill-opacity:0.57264961;fill-rule:nonzero;stroke:#000000;stroke-width:1;stroke-linecap:butt;stroke-linejoin:round;stroke-miterlimit:4;stroke-dasharray:none;stroke-opacity:1"
       d="M 654.62752,213.12869 L 680.23832,201.48742 L 661.61228,229.03843 L 684.89482,271.33505 L 656.95577,272.88722 L 670.9253,344.28702 L 641.43408,317.90014"
       id="path4208" />
    <path
       style="opacity:0.97000002;fill:none;fill-opacity:0.57264961;fill-rule:nonzero;stroke:#000000;stroke-width:1;stroke-linecap:butt;stroke-linejoin:round;stroke-miterlimit:4;stroke-dasharray:none;stroke-opacity:1"
       d="M 507.06793,192.95704 C 501.58018,195.70091 502.12896,201.73744 502.12896,201.73744"
       id="path4210" />
    <path
       id="path4212"
       d="M 503.06793,190.95704 C 497.58018,193.70091 498.12896,199.73744 498.12896,199.73744"
       style="opacity:0.97000002;fill:none;fill-opacity:0.57264961;fill-rule:nonzero;stroke:#000000;stroke-width:1;stroke-linecap:butt;stroke-linejoin:round;stroke-miterlimit:4;stroke-dasharray:none;stroke-opacity:1" />
    <path
       style="opacity:0.97000002;fill:none;fill-opacity:0.57264961;fill-rule:nonzero;stroke:#000000;stroke-width:1;stroke-linecap:butt;stroke-linejoin:round;stroke-miterlimit:4;stroke-dasharray:none;stroke-opacity:1"
       d="M 904.92967,303.26078 C 910.41742,309.84608 901.08825,312.58995 901.08825,312.58995"
       id="path4214" />
    <path
       id="path4216"
       d="M 908.92967,303.26078 C 914.41742,309.84608 905.08825,312.58995 905.08825,312.58995"
       style="opacity:0.97000002;fill:none;fill-opacity:0.57264961;fill-rule:nonzero;stroke:#000000;stroke-width:1;stroke-linecap:butt;stroke-linejoin:round;stroke-miterlimit:4;stroke-dasharray:none;stroke-opacity:1" />
    <path
       style="opacity:0.97000002;fill:none;fill-opacity:0.57264961;fill-rule:nonzero;stroke:#000000;stroke-width:1;stroke-linecap:butt;stroke-linejoin:round;stroke-miterlimit:4;stroke-dasharray:none;stroke-opacity:1"
       d="M 1027.8552,303.26078 C 1034.4405,302.712 1035.5381,308.74853 1035.5381,308.74853"
       id="path4218" />
    <path
       id="path4220"
       d="M 1029.8552,301.26078 C 1036.4405,300.712 1037.5381,306.74853 1037.5381,306.74853"
       style="opacity:0.97000002;fill:none;fill-opacity:0.57264961;fill-rule:nonzero;stroke:#000000;stroke-width:1;stroke-linecap:butt;stroke-linejoin:round;stroke-miterlimit:4;stroke-dasharray:none;stroke-opacity:1" />
  </g>
  <g
     inkscape:groupmode="layer"
     id="layer3"
     inkscape:label="globos">
    <path
       id="path4234"
       d="M 135.34375,53.75 C 97.773115,53.75 67.25,77.608009 67.25,107 C 67.25,136.39199 97.773115,160.21875 135.34375,160.21875 C 145.81201,160.21875 155.69977,158.37011 164.5625,155.0625 C 162.71777,159.82497 161.71875,164.81736 161.71875,169.96875 C 161.71875,202.16523 200.11099,228.29777 247.625,228.71875 L 257.90625,246.5 L 258.875,228.34375 C 302.17416,224.96429 335.81249,200.12192 335.8125,169.96875 C 335.8125,137.50977 296.83076,111.15625 248.78125,111.15625 C 231.1885,111.15625 214.78957,114.6798 201.09375,120.75 C 202.59453,116.35723 203.40625,111.76126 203.40625,107 C 203.40625,77.608009 172.91438,53.75 135.34375,53.75 z"
       style="opacity:1;fill:#000000;fill-opacity:1;fill-rule:nonzero;stroke:#000000;stroke-width:1;stroke-linecap:round;stroke-linejoin:miter;stroke-miterlimit:4;stroke-dasharray:none;stroke-opacity:1" />
    <rect
       ry="5.685564"
       rx="8.1401091"
       y="11.92082"
       x="20.038307"
       height="49.079254"
       width="150.01584"
       id="rect4236"
       style="opacity:1;fill:#000000;fill-opacity:1;fill-rule:nonzero;stroke:#000000;stroke-width:1;stroke-linecap:round;stroke-linejoin:miter;stroke-miterlimit:4;stroke-dasharray:none;stroke-opacity:1" />
    <path
       id="path4238"
       d="M 968.3125,72.59375 C 941.9875,72.59375 920.62503,89.604731 920.625,110.5625 C 920.625,123.73672 929.06516,135.34674 941.875,142.15625 L 912.0625,185.0625 L 960.90625,148.0625 C 963.31412,148.36102 965.80001,148.53125 968.3125,148.53125 C 994.6375,148.53125 1016,131.52027 1016,110.5625 C 1016,89.604731 994.6375,72.59375 968.3125,72.59375 z"
       style="opacity:1;fill:#000000;fill-opacity:1;fill-rule:nonzero;stroke:#000000;stroke-width:1;stroke-linecap:round;stroke-linejoin:miter;stroke-miterlimit:4;stroke-dasharray:none;stroke-opacity:1" />
    <path
       id="path4240"
       d="M 124.6875,304.6875 L 129.09375,318.28125 C 117.12541,322.46222 109.28125,329.36897 109.28125,337.1875 C 109.28125,349.94042 130.09412,360.28125 155.75,360.28125 C 181.40588,360.28125 202.24999,349.94042 202.25,337.1875 C 202.25,324.43458 181.40588,314.0625 155.75,314.0625 C 148.82463,314.0625 142.28149,314.8355 136.375,316.1875 L 124.6875,304.6875 z"
       style="opacity:1;fill:#000000;fill-opacity:1;fill-rule:nonzero;stroke:#000000;stroke-width:1;stroke-linecap:round;stroke-linejoin:miter;stroke-miterlimit:4;stroke-dasharray:none;stroke-opacity:1" />
    <path
       style="opacity:1;fill:#ffffff;fill-opacity:1;fill-rule:nonzero;stroke:#000000;stroke-width:1;stroke-linecap:round;stroke-linejoin:miter;stroke-miterlimit:4;stroke-dasharray:none;stroke-opacity:1"
       d="M 131.34375 49.75 C 93.773115 49.75 63.25 73.608009 63.25 103 C 63.25 132.39199 93.773115 156.21875 131.34375 156.21875 C 141.81201 156.21875 151.69977 154.37011 160.5625 151.0625 C 158.71777 155.82497 157.71875 160.81736 157.71875 165.96875 C 157.71875 198.16523 196.11099 224.29777 243.625 224.71875 L 253.90625 242.5 L 254.875 224.34375 C 298.17416 220.96429 331.81249 196.12192 331.8125 165.96875 C 331.8125 133.50977 292.83076 107.15625 244.78125 107.15625 C 227.1885 107.15625 210.78957 110.6798 197.09375 116.75 C 198.59453 112.35723 199.40625 107.76126 199.40625 103 C 199.40625 73.608009 168.91438 49.75 131.34375 49.75 z "
       id="path3173" />
    <rect
       style="opacity:1;fill:#ffff00;fill-opacity:1;fill-rule:nonzero;stroke:#000000;stroke-width:1;stroke-linecap:round;stroke-linejoin:miter;stroke-miterlimit:4;stroke-dasharray:none;stroke-opacity:1"
       id="rect3178"
       width="150.01584"
       height="49.079254"
       x="16.038307"
       y="7.9208202"
       rx="8.1401091"
       ry="5.685564" />
    <text
       xml:space="preserve"
       style="font-size:12px;font-style:italic;font-variant:normal;font-weight:normal;font-stretch:normal;text-align:center;line-height:125%;writing-mode:lr-tb;text-anchor:middle;fill:#000000;fill-opacity:1;stroke:none;stroke-width:1px;stroke-linecap:butt;stroke-linejoin:miter;stroke-opacity:1;font-family:Kid Kosmic;-inkscape-font-specification:Kid Kosmic Italic"
       x="92.010559"
       y="33.186333"
       id="text3113"
       sodipodi:linespacing="125%"><tspan
         sodipodi:role="line"
         id="tspan3115"
         x="92.010559"
         y="33.186333">international</tspan><tspan
         sodipodi:role="line"
         x="92.010559"
         y="48.186333"
         id="tspan3117">space station</tspan></text>
    <text
       xml:space="preserve"
       style="font-size:12px;font-style:italic;font-variant:normal;font-weight:normal;font-stretch:normal;text-align:center;line-height:125%;writing-mode:lr-tb;text-anchor:middle;fill:#000000;fill-opacity:1;stroke:none;stroke-width:1px;stroke-linecap:butt;stroke-linejoin:miter;stroke-opacity:1;font-family:Kid Kosmic;-inkscape-font-specification:Kid Kosmic Italic"
       x="129.83484"
       y="78.895714"
       id="text3119"
       sodipodi:linespacing="125%"><tspan
         sodipodi:role="line"
         id="tspan3121"
         x="129.83484"
         y="78.895714">oh no!</tspan><tspan
         sodipodi:role="line"
         x="129.83484"
         y="93.895714"
         id="tspan3123">se ha</tspan><tspan
         sodipodi:role="line"
         x="129.83484"
         y="108.89571"
         id="tspan3125">detectado</tspan><tspan
         sodipodi:role="line"
         x="129.83484"
         y="123.89571"
         id="tspan3127">un virus en</tspan><tspan
         sodipodi:role="line"
         x="129.83484"
         y="138.89572"
         id="tspan3129">el equipo!</tspan></text>
    <text
       sodipodi:linespacing="125%"
       id="text3131"
       y="154.89572"
       x="247.83484"
       style="font-size:12px;font-style:italic;font-variant:normal;font-weight:normal;font-stretch:normal;text-align:center;line-height:125%;writing-mode:lr-tb;text-anchor:middle;fill:#000000;fill-opacity:1;stroke:none;stroke-width:1px;stroke-linecap:butt;stroke-linejoin:miter;stroke-opacity:1;font-family:Kid Kosmic;-inkscape-font-specification:Kid Kosmic Italic"
       xml:space="preserve"><tspan
         id="tspan3141"
         y="154.89572"
         x="247.83484"
         sodipodi:role="line">Rpido,</tspan><tspan
         y="169.89572"
         x="247.83484"
         sodipodi:role="line"
         id="tspan3159">ejecuta el plan</tspan><tspan
         y="184.89572"
         x="247.83484"
         sodipodi:role="line"
         id="tspan3161">de emergencia!</tspan></text>
    <path
       style="opacity:1;fill:#ffffff;fill-opacity:1;fill-rule:nonzero;stroke:#000000;stroke-width:1;stroke-linecap:round;stroke-linejoin:miter;stroke-miterlimit:4;stroke-dasharray:none;stroke-opacity:1"
       d="M 964.3125 68.59375 C 937.9875 68.59375 916.62503 85.604731 916.625 106.5625 C 916.625 119.73672 925.06516 131.34674 937.875 138.15625 L 908.0625 181.0625 L 956.90625 144.0625 C 959.31412 144.36102 961.80001 144.53125 964.3125 144.53125 C 990.6375 144.53125 1012 127.52027 1012 106.5625 C 1012 85.604731 990.6375 68.59375 964.3125 68.59375 z "
       id="path3181" />
    <text
       xml:space="preserve"
       style="font-size:12px;font-style:italic;font-variant:normal;font-weight:normal;font-stretch:normal;text-align:center;line-height:125%;writing-mode:lr-tb;text-anchor:middle;fill:#000000;fill-opacity:1;stroke:none;stroke-width:1px;stroke-linecap:butt;stroke-linejoin:miter;stroke-opacity:1;font-family:Kid Kosmic;-inkscape-font-specification:Kid Kosmic Italic"
       x="966.01312"
       y="100.37523"
       id="text3165"
       sodipodi:linespacing="125%"><tspan
         sodipodi:role="line"
         id="tspan3167"
         x="966.01312"
         y="100.37523">es que</tspan><tspan
         sodipodi:role="line"
         x="966.01312"
         y="115.37523"
         id="tspan3169">nunca</tspan><tspan
         sodipodi:role="line"
         x="966.01312"
         y="130.37523"
         id="tspan3171">falla</tspan></text>
    <path
       style="opacity:1;fill:#ffffff;fill-opacity:1;fill-rule:nonzero;stroke:#000000;stroke-width:1;stroke-linecap:round;stroke-linejoin:miter;stroke-miterlimit:4;stroke-dasharray:none;stroke-opacity:1"
       d="M 120.6875 300.6875 L 125.09375 314.28125 C 113.12541 318.46222 105.28125 325.36897 105.28125 333.1875 C 105.28125 345.94042 126.09412 356.28125 151.75 356.28125 C 177.40588 356.28125 198.24999 345.94042 198.25 333.1875 C 198.25 320.43458 177.40588 310.0625 151.75 310.0625 C 144.82463 310.0625 138.28149 310.8355 132.375 312.1875 L 120.6875 300.6875 z "
       id="path3286" />
    <text
       xml:space="preserve"
       style="font-size:12px;font-style:italic;font-variant:normal;font-weight:normal;font-stretch:normal;text-align:center;line-height:125%;writing-mode:lr-tb;text-anchor:middle;fill:#000000;fill-opacity:1;stroke:none;stroke-width:1px;stroke-linecap:butt;stroke-linejoin:miter;stroke-opacity:1;font-family:Kid Kosmic;-inkscape-font-specification:Kid Kosmic Italic"
       x="151.66521"
       y="331.44614"
       id="text3277"
       sodipodi:linespacing="125%"><tspan
         sodipodi:role="line"
         id="tspan3279"
         x="151.66521"
         y="331.44614">voy</tspan><tspan
         sodipodi:role="line"
         x="151.66521"
         y="346.44614"
         id="tspan3281">volando</tspan></text>
  </g>
  <g
     inkscape:groupmode="layer"
     id="layer4"
     inkscape:label="vinietas"
     sodipodi:insensitive="true">
    <path
       style="fill:#6699cc;fill-opacity:1;fill-rule:nonzero;stroke:#000000;stroke-width:4.48726034;stroke-linecap:round;stroke-linejoin:round;stroke-miterlimit:4;stroke-dashoffset:0;stroke-opacity:1;display:inline"
       d="M -3.1395438,-4.7760952 C -5.4235092,-4.7760952 -7.2644814,-2.9685179 -7.2644814,-0.74658629 L -7.2644814,390.21022 C -7.2644814,390.53373 -7.2131821,390.85414 -7.1394833,391.15464 C -7.2179821,391.46533 -7.2644814,391.79636 -7.2644814,392.13053 L -7.2644814,783.08734 C -7.2644814,785.30927 -5.4235092,787.08538 -3.1395438,787.08537 L 1073.2191,787.08537 C 1075.5032,787.08537 1077.3441,785.30927 1077.3441,783.08734 L 1077.3441,392.13053 C 1077.3441,391.79636 1077.2977,391.46533 1077.2191,391.15464 C 1077.2929,390.85414 1077.3441,390.53373 1077.3441,390.21022 L 1077.3441,-0.74658629 C 1077.3441,-2.9685179 1075.5034,-4.7760952 1073.2191,-4.7760952 L -3.1395438,-4.7760952 z M 32.141222,5.9902489 L 318.91808,5.9902489 C 335.30364,5.9902489 348.48014,17.992323 348.48014,32.874629 L 348.48014,331.31013 C 348.48014,346.19245 335.30374,358.16303 318.91808,358.16303 L 32.141222,358.16303 C 15.75567,358.16303 2.5791696,346.19244 2.5791696,331.31013 L 2.5791696,32.874629 C 2.5791696,17.992323 15.75567,5.9902489 32.141222,5.9902489 z M 388.72953,5.9902489 L 675.50648,5.9902489 C 691.89203,5.9902489 705.06853,17.992323 705.06853,32.874629 L 705.06853,331.31013 C 705.06853,346.19245 691.89203,358.16303 675.50648,358.16303 L 388.72953,358.16303 C 372.34397,358.16303 359.16747,346.19244 359.16747,331.31013 L 359.16747,32.874629 C 359.16747,17.992323 372.34397,5.9902489 388.72953,5.9902489 z M 745.66162,5.9902489 L 1032.4386,5.9902489 C 1048.8241,5.9902489 1062.0006,17.992323 1062.0006,32.874629 L 1062.0006,331.31013 C 1062.0006,346.19245 1048.8241,358.16303 1032.4386,358.16303 L 745.66162,358.16303 C 729.27607,358.16303 716.09957,346.19244 716.09957,331.31013 L 716.09957,32.874629 C 716.09957,17.992323 729.27607,5.9902489 745.66162,5.9902489 z M 32.141222,398.86737 L 318.91808,398.86737 C 335.30364,398.86737 348.48014,410.86944 348.48014,425.75175 L 348.48014,724.18725 C 348.48014,739.06957 335.30374,751.04015 318.91808,751.04015 L 32.141222,751.04015 C 15.75567,751.04015 2.5791696,739.06956 2.5791696,724.18725 L 2.5791696,425.75175 C 2.5791696,410.86944 15.75567,398.86737 32.141222,398.86737 z M 388.72953,398.86737 L 675.50648,398.86737 C 691.89203,398.86737 705.06853,410.86944 705.06853,425.75175 L 705.06853,724.18725 C 705.06853,739.06957 691.89203,751.04015 675.50648,751.04015 L 388.72953,751.04015 C 372.34397,751.04015 359.16747,739.06956 359.16747,724.18725 L 359.16747,425.75175 C 359.16747,410.86944 372.34397,398.86737 388.72953,398.86737 z M 745.66162,398.86737 L 1032.4386,398.86737 C 1048.8241,398.86737 1062.0006,410.86944 1062.0006,425.75175 L 1062.0006,724.18725 C 1062.0006,739.06957 1048.8241,751.04015 1032.4386,751.04015 L 745.66162,751.04015 C 729.27607,751.04015 716.09957,739.06956 716.09957,724.18725 L 716.09957,425.75175 C 716.09957,410.86944 729.27607,398.86737 745.66162,398.86737 z"
       id="rect16715" />
    <text
       xml:space="preserve"
       style="font-size:18px;font-style:normal;font-variant:normal;font-weight:normal;font-stretch:normal;text-align:center;line-height:125%;writing-mode:lr-tb;text-anchor:middle;fill:#ffffff;fill-opacity:1;stroke:#ffffff;stroke-width:1pt;stroke-linecap:butt;stroke-linejoin:miter;stroke-opacity:1;display:inline;font-family:Sans"
       x="161.90993"
       y="384.6756"
       id="text2618"
       sodipodi:linespacing="125%"><tspan
         sodipodi:role="line"
         id="tspan2620"
         x="161.90993"
         y="384.6756">tira de linuxhispano.net</tspan></text>
    <text
       xml:space="preserve"
       style="font-size:18px;font-style:normal;font-variant:normal;font-weight:normal;font-stretch:normal;text-align:center;line-height:125%;writing-mode:lr-tb;text-anchor:middle;fill:#ffffff;fill-opacity:1;stroke:#ffffff;stroke-width:1pt;stroke-linecap:butt;stroke-linejoin:miter;stroke-opacity:1;display:inline;font-family:Sans"
       x="1014.7665"
       y="383.6756"
       id="text2622"
       sodipodi:linespacing="125%"><tspan
         sodipodi:role="line"
         id="tspan2624"
         x="1014.7665"
         y="383.6756">by danigm</tspan></text>
    <text
       sodipodi:linespacing="125%"
       id="text4260"
       y="384.6756"
       x="541.91003"
       style="font-size:18px;font-style:normal;font-variant:normal;font-weight:normal;font-stretch:normal;text-align:center;line-height:125%;writing-mode:lr-tb;text-anchor:middle;fill:#ffffff;fill-opacity:1;stroke:none;stroke-width:1pt;stroke-linecap:butt;stroke-linejoin:miter;stroke-opacity:1;display:inline;font-family:Sans"
       xml:space="preserve"><tspan
         y="384.6756"
         x="541.91003"
         id="tspan4262"
         sodipodi:role="line">imagenes en sugus.eii.us.es</tspan></text>
  </g>
</svg>
