<?xml version="1.0" encoding="UTF-8" standalone="no"?>
<!DOCTYPE svg PUBLIC "-//W3C//DTD SVG 20010904//EN"
"http://www.w3.org/TR/2001/REC-SVG-20010904/DTD/svg10.dtd">
<!-- Created with Inkscape (http://www.inkscape.org/) -->
<svg
   id="svg1"
   sodipodi:version="0.32"
   inkscape:version="0.39"
   width="30.000000cm"
   height="10.000000cm"
   sodipodi:docbase="/home/danigm/Documents/linuxHispano/tira"
   sodipodi:docname="loco.svg"
   xmlns="http://www.w3.org/2000/svg"
   xmlns:cc="http://web.resource.org/cc/"
   xmlns:inkscape="http://www.inkscape.org/namespaces/inkscape"
   xmlns:sodipodi="http://sodipodi.sourceforge.net/DTD/sodipodi-0.dtd"
   xmlns:rdf="http://www.w3.org/1999/02/22-rdf-syntax-ns#"
   xmlns:dc="http://purl.org/dc/elements/1.1/"
   xmlns:xlink="http://www.w3.org/1999/xlink">
  <defs
     id="defs3">
    <marker
       style="overflow:visible;"
       id="Arrow1L"
       refX="0.0"
       refY="0.0"
       orient="auto"
       inkscape:stockid="Arrow1L">
      <path
         transform="scale(0.8)"
         style="fill-rule:evenodd;stroke:#000000;stroke-width:1.0pt;marker-start:none;"
         d="M 0.0,0.0 L 5.0,-5.0 L -12.5,0.0 L 5.0,5.0 L 0.0,0.0 z "
         id="path2423"
         sodipodi:nodetypes="ccccc" />
    </marker>
    <linearGradient
       id="linearGradient1594">
      <stop
         style="stop-color:#000;stop-opacity:1;"
         offset="0"
         id="stop1595" />
      <stop
         style="stop-color:#fff;stop-opacity:1;"
         offset="1"
         id="stop1596" />
    </linearGradient>
    <linearGradient
       id="linearGradient1939">
      <stop
         style="stop-color:#000;stop-opacity:1;"
         offset="0"
         id="stop1940" />
      <stop
         style="stop-color:#fff;stop-opacity:1;"
         offset="1"
         id="stop1941" />
    </linearGradient>
  </defs>
  <sodipodi:namedview
     id="base"
     pagecolor="#ffffff"
     bordercolor="#666666"
     borderopacity="1.0"
     inkscape:pageopacity="0.0"
     inkscape:pageshadow="2"
     inkscape:zoom="1.8675608"
     inkscape:cx="723.18629"
     inkscape:cy="99.457152"
     inkscape:window-width="1096"
     inkscape:window-height="776"
     showgrid="true"
     inkscape:grid-bbox="true"
     inkscape:window-x="0"
     inkscape:window-y="24"
     showguides="true"
     inkscape:guide-bbox="true" />
  <metadata
     id="metadata4">
    <rdf:RDF
       id="RDF5">
      <cc:Work
         rdf:about=""
         id="Work6">
        <dc:format
           id="format7">image/svg+xml</dc:format>
        <dc:type
           id="type9"
           rdf:resource="http://purl.org/dc/dcmitype/StillImage" />
      </cc:Work>
    </rdf:RDF>
  </metadata>
  <path
     style="fill:#ffac00;fill-opacity:1.0000000;fill-rule:evenodd;stroke:#000000;stroke-width:1.0000000pt;stroke-linecap:butt;stroke-linejoin:miter;stroke-opacity:1.0000000;"
     d="M 617.42641,315.58880 C 605.59435,325.52773 598.49512,370.01627 598.49512,370.01627 L 619.79282,372.38268 L 617.42641,315.58880 z "
     id="path1906" />
  <path
     style="fill:#ffac00;fill-opacity:1.0000000;fill-rule:evenodd;stroke:#000000;stroke-width:1.0000000pt;stroke-linecap:butt;stroke-linejoin:miter;stroke-opacity:1.0000000;"
     d="M 270.71748,308.89558 C 258.88542,318.83451 251.78619,363.32305 251.78619,363.32305 L 273.08389,365.68946 L 270.71748,308.89558 z "
     id="path1893" />
  <path
     style="fill:#00009b;fill-opacity:1.0000000;fill-rule:evenodd;stroke:#000000;stroke-width:1.8317142pt;stroke-linecap:butt;stroke-linejoin:miter;stroke-opacity:1.0000000;"
     d="M 935.14909,311.53331 C 818.98209,321.93633 846.72345,451.10710 846.72345,451.10710 L 1059.1184,455.44168 C 1060.8522,287.25960 968.09197,315.00099 968.09197,315.00099 L 935.14909,311.53331 z "
     id="path1925"
     sodipodi:nodetypes="ccccc" />
  <path
     style="fill:#00009b;fill-opacity:1.0000000;fill-rule:evenodd;stroke:#000000;stroke-width:1.0000000pt;stroke-linecap:butt;stroke-linejoin:miter;stroke-opacity:1.0000000;"
     d="M 434.23829,279.47088 C 370.81846,285.15027 385.96349,355.66933 385.96349,355.66933 L 501.91766,358.03574 C 502.86422,266.21897 452.22302,281.36401 452.22302,281.36401 L 434.23829,279.47088 z "
     id="path1895"
     sodipodi:nodetypes="ccccc" />
  <path
     style="fill:#00009b;fill-opacity:1.0000000;fill-rule:evenodd;stroke:#000000;stroke-width:1.0000000pt;stroke-linecap:butt;stroke-linejoin:miter;stroke-opacity:1.0000000;"
     d="M 71.465628,278.13224 C 8.0457995,283.81163 23.190833,354.33069 23.190833,354.33069 L 139.14500,356.69710 C 140.09156,264.88033 89.450355,280.02537 89.450355,280.02537 L 71.465628,278.13224 z "
     id="path1886"
     sodipodi:nodetypes="ccccc" />
  <path
     style="fill:#ffac00;fill-opacity:1.0000000;fill-rule:evenodd;stroke:#000000;stroke-width:1.0000000pt;stroke-linecap:butt;stroke-linejoin:miter;stroke-opacity:1.0000000;"
     d="M 616.00656,316.06209 C 605.12107,365.75673 605.12107,379.00863 605.12107,379.00863 L 669.01418,379.95520 C 666.17448,314.64224 652.44930,310.38270 652.44930,310.38270 L 616.00656,316.06209 z "
     id="path1907" />
  <path
     style="fill:#ffac00;fill-opacity:1.0000000;fill-rule:evenodd;stroke:#000000;stroke-width:1.0000000pt;stroke-linecap:butt;stroke-linejoin:miter;stroke-opacity:1.0000000;"
     d="M 269.29763,309.36887 C 258.41214,359.06351 258.41214,372.31541 258.41214,372.31541 L 322.30525,373.26198 C 319.46555,307.94902 305.74037,303.68948 305.74037,303.68948 L 269.29763,309.36887 z "
     id="path1867" />
  <path
     style="fill:none;fill-opacity:0.75000000;fill-rule:evenodd;stroke:#000000;stroke-width:5.0000000;stroke-linecap:butt;stroke-linejoin:miter;stroke-opacity:1.0000000;stroke-miterlimit:4.0000000;stroke-dasharray:none;"
     d="M 347.58644,-193.22543 L 347.58644,444.56985"
     id="path908" />
  <path
     style="fill:none;fill-opacity:0.75000000;fill-rule:evenodd;stroke:#000000;stroke-width:5.0000000;stroke-linecap:butt;stroke-linejoin:miter;stroke-miterlimit:4.0000000;stroke-opacity:1.0000000;"
     d="M 361.42995,-192.27887 L 361.42995,445.51641"
     id="path1746" />
  <path
     style="fill:#000000;fill-opacity:0.0000000;fill-rule:evenodd;stroke:#000000;stroke-width:5.0000000;stroke-linecap:butt;stroke-linejoin:miter;stroke-miterlimit:4.0000000;stroke-opacity:1.0000000;"
     d="M 702.54817,-195.11856 L 702.54817,442.67672"
     id="path1747" />
  <path
     style="fill:#000000;fill-opacity:0.0000000;fill-rule:evenodd;stroke:#000000;stroke-width:5.0000000;stroke-linecap:butt;stroke-linejoin:miter;stroke-miterlimit:4.0000000;stroke-opacity:1.0000000;"
     d="M 716.39168,-194.17200 L 716.39168,443.62328"
     id="path1748" />
  <path
     id="path1908"
     style="fill:#ffd4a5;fill-opacity:1.0000000;fill-rule:evenodd;stroke:#000000;stroke-width:1.0000000pt;stroke-linecap:butt;stroke-linejoin:miter;stroke-opacity:1.0000000;"
     d="M 595.59950,275.37407 C 592.72735,296.93820 606.56266,316.59274 626.48186,319.24580 C 646.40115,321.89888 664.89851,306.55077 667.77066,284.98663 C 670.64282,263.42250 656.80750,243.76797 636.88820,241.11489 C 616.96901,238.46183 598.47166,253.80995 595.59950,275.37407 z "
     sodipodi:nodetypes="ccccc" />
  <path
     id="path1139"
     style="fill:#ffd4a5;fill-opacity:1.0000000;fill-rule:evenodd;stroke:#000000;stroke-width:1.0000000pt;stroke-linecap:butt;stroke-linejoin:miter;stroke-opacity:1.0000000;"
     d="M 248.89057,268.68085 C 246.01842,290.24498 259.85373,309.89952 279.77293,312.55258 C 299.69222,315.20566 318.18958,299.85755 321.06173,278.29341 C 323.93389,256.72928 310.09857,237.07475 290.17927,234.42167 C 270.26008,231.76861 251.76273,247.11673 248.89057,268.68085 z "
     sodipodi:nodetypes="ccccc" />
  <g
     id="g1909"
     transform="matrix(1.348817,-0.127177,0.159350,1.690044,437.5260,80.16601)">
    <path
       style="fill:none;fill-opacity:0.75000000;fill-rule:evenodd;stroke:#000000;stroke-width:0.40240240pt;stroke-linecap:butt;stroke-linejoin:miter;stroke-opacity:1.0000000;"
       d="M 107.62582,131.95892 C 113.88237,129.56548 117.79511,133.53200 117.79511,133.65750"
       id="path1910"
       sodipodi:nodetypes="cc" />
    <path
       style="fill:none;fill-opacity:0.75000000;fill-rule:evenodd;stroke:#000000;stroke-width:0.42686400pt;stroke-linecap:butt;stroke-linejoin:miter;stroke-opacity:1.0000000;"
       d="M 107.21989,129.72573 C 112.22737,127.01842 117.48989,131.10936 117.48989,131.10936"
       id="path1911"
       sodipodi:nodetypes="cc" />
  </g>
  <g
     id="g1135"
     transform="matrix(1.348817,-0.127177,0.159350,1.690044,90.81707,73.47279)">
    <path
       style="fill:none;fill-opacity:0.75000000;fill-rule:evenodd;stroke:#000000;stroke-width:0.40240240pt;stroke-linecap:butt;stroke-linejoin:miter;stroke-opacity:1.0000000;"
       d="M 107.62582,131.95892 C 113.88237,129.56548 117.79511,133.53200 117.79511,133.65750"
       id="path1136"
       sodipodi:nodetypes="cc" />
    <path
       style="fill:none;fill-opacity:0.75000000;fill-rule:evenodd;stroke:#000000;stroke-width:0.42686400pt;stroke-linecap:butt;stroke-linejoin:miter;stroke-opacity:1.0000000;"
       d="M 107.21989,129.72573 C 112.22737,127.01842 117.48989,131.10936 117.48989,131.10936"
       id="path1137"
       sodipodi:nodetypes="cc" />
  </g>
  <path
     style="fill:#ffd4a5;fill-opacity:1.0000000;fill-rule:evenodd;stroke:#000000;stroke-width:1.0000000pt;stroke-linecap:butt;stroke-linejoin:miter;stroke-opacity:1.0000000;"
     d="M 657.80517,271.53205 C 668.99963,262.89455 673.29098,269.96525 673.16963,272.14359 C 674.09385,278.51259 663.26312,279.34895 660.22776,278.69146"
     id="path1912"
     sodipodi:nodetypes="ccc" />
  <path
     style="fill:#ffd4a5;fill-opacity:1.0000000;fill-rule:evenodd;stroke:#000000;stroke-width:1.0000000pt;stroke-linecap:butt;stroke-linejoin:miter;stroke-opacity:1.0000000;"
     d="M 311.09624,264.83883 C 322.29070,256.20133 326.58205,263.27203 326.46070,265.45037 C 327.38492,271.81937 316.55419,272.65573 313.51883,271.99824"
     id="path1140"
     sodipodi:nodetypes="ccc" />
  <g
     id="g1913"
     transform="matrix(-0.991246,-0.132025,-0.132025,0.991246,745.9390,175.6109)">
    <path
       style="fill:none;fill-opacity:0.75000000;fill-rule:evenodd;stroke:#000000;stroke-width:1.0000000pt;stroke-linecap:butt;stroke-linejoin:miter;stroke-opacity:1.0000000;"
       d="M 98.725033,84.259156 L 110.10351,73.884661"
       id="path1914" />
    <path
       style="fill:none;fill-opacity:0.75000000;fill-rule:evenodd;stroke:#000000;stroke-width:1.0000000pt;stroke-linecap:butt;stroke-linejoin:miter;stroke-opacity:1.0000000;"
       d="M 107.09156,83.589834 L 122.82063,77.231273"
       id="path1915" />
    <path
       style="fill:none;fill-opacity:0.75000000;fill-rule:evenodd;stroke:#000000;stroke-width:1.0000000pt;stroke-linecap:butt;stroke-linejoin:miter;stroke-opacity:1.0000000;"
       d="M 120.14335,86.936445 L 136.20708,84.593818"
       id="path1916" />
  </g>
  <g
     id="g1145"
     transform="matrix(-0.991246,-0.132025,-0.132025,0.991246,399.2301,168.9177)">
    <path
       style="fill:none;fill-opacity:0.75000000;fill-rule:evenodd;stroke:#000000;stroke-width:1.0000000pt;stroke-linecap:butt;stroke-linejoin:miter;stroke-opacity:1.0000000;"
       d="M 98.725033,84.259156 L 110.10351,73.884661"
       id="path1146" />
    <path
       style="fill:none;fill-opacity:0.75000000;fill-rule:evenodd;stroke:#000000;stroke-width:1.0000000pt;stroke-linecap:butt;stroke-linejoin:miter;stroke-opacity:1.0000000;"
       d="M 107.09156,83.589834 L 122.82063,77.231273"
       id="path1147" />
    <path
       style="fill:none;fill-opacity:0.75000000;fill-rule:evenodd;stroke:#000000;stroke-width:1.0000000pt;stroke-linecap:butt;stroke-linejoin:miter;stroke-opacity:1.0000000;"
       d="M 120.14335,86.936445 L 136.20708,84.593818"
       id="path1148" />
  </g>
  <path
     sodipodi:type="arc"
     style="fill:#ffffff;fill-opacity:1.0000000;fill-rule:evenodd;stroke:#000000;stroke-width:1.0000000pt;stroke-linecap:butt;stroke-linejoin:miter;stroke-opacity:1.0000000;"
     id="path1917"
     sodipodi:cx="-85.468750"
     sodipodi:cy="114.17445"
     sodipodi:rx="8.5937500"
     sodipodi:ry="11.406250"
     d="M -76.875000 114.17445 A 8.5937500 11.406250 0 1 0 -94.062500,114.17445 A 8.5937500 11.406250 0 1 0 -76.875000 114.17445 z"
     transform="matrix(0.991246,0.132025,-0.132025,0.991246,705.6411,165.9852)" />
  <path
     sodipodi:type="arc"
     style="fill:#ffffff;fill-opacity:1.0000000;fill-rule:evenodd;stroke:#000000;stroke-width:1.0000000pt;stroke-linecap:butt;stroke-linejoin:miter;stroke-opacity:1.0000000;"
     id="path1153"
     sodipodi:cx="-85.468750"
     sodipodi:cy="114.17445"
     sodipodi:rx="8.5937500"
     sodipodi:ry="11.406250"
     d="M -76.875000 114.17445 A 8.5937500 11.406250 0 1 0 -94.062500,114.17445 A 8.5937500 11.406250 0 1 0 -76.875000 114.17445 z"
     transform="matrix(0.991246,0.132025,-0.132025,0.991246,358.9322,159.2920)" />
  <path
     sodipodi:type="arc"
     style="fill:#ffffff;fill-opacity:1.0000000;fill-rule:evenodd;stroke:#000000;stroke-width:1.0000000pt;stroke-linecap:butt;stroke-linejoin:miter;stroke-opacity:1.0000000;"
     id="path1918"
     sodipodi:cx="131.33585"
     sodipodi:cy="116.97961"
     sodipodi:rx="9.7022877"
     sodipodi:ry="8.7557230"
     d="M 141.03813 116.97961 A 9.7022877 8.7557230 0 1 0 121.63356,116.97961 A 9.7022877 8.7557230 0 1 0 141.03813 116.97961 z"
     transform="matrix(0.991246,0.132025,-0.168661,1.266307,509.9784,104.3979)" />
  <path
     sodipodi:type="arc"
     style="fill:#ffffff;fill-opacity:1.0000000;fill-rule:evenodd;stroke:#000000;stroke-width:1.0000000pt;stroke-linecap:butt;stroke-linejoin:miter;stroke-opacity:1.0000000;"
     id="path1133"
     sodipodi:cx="131.33585"
     sodipodi:cy="116.97961"
     sodipodi:rx="9.7022877"
     sodipodi:ry="8.7557230"
     d="M 141.03813 116.97961 A 9.7022877 8.7557230 0 1 0 121.63356,116.97961 A 9.7022877 8.7557230 0 1 0 141.03813 116.97961 z"
     transform="matrix(0.991246,0.132025,-0.168661,1.266307,163.2695,97.70465)" />
  <path
     sodipodi:type="arc"
     style="fill:#000000;fill-opacity:1.0000000;fill-rule:evenodd;stroke:#000000;stroke-width:1.0000000pt;stroke-linecap:butt;stroke-linejoin:miter;stroke-opacity:1.0000000;"
     id="path1919"
     sodipodi:cx="127.54958"
     sodipodi:cy="117.68954"
     sodipodi:rx="1.6564881"
     sodipodi:ry="1.8931292"
     d="M 129.20607 117.68954 A 1.6564881 1.8931292 0 1 0 125.89310,117.68954 A 1.6564881 1.8931292 0 1 0 129.20607 117.68954 z"
     transform="matrix(0.991246,0.132025,-0.132025,0.991246,505.1679,135.4405)" />
  <path
     sodipodi:type="arc"
     style="fill:#000000;fill-opacity:1.0000000;fill-rule:evenodd;stroke:#000000;stroke-width:1.0000000pt;stroke-linecap:butt;stroke-linejoin:miter;stroke-opacity:1.0000000;"
     id="path1134"
     sodipodi:cx="127.54958"
     sodipodi:cy="117.68954"
     sodipodi:rx="1.6564881"
     sodipodi:ry="1.8931292"
     d="M 129.20607 117.68954 A 1.6564881 1.8931292 0 1 0 125.89310,117.68954 A 1.6564881 1.8931292 0 1 0 129.20607 117.68954 z"
     transform="matrix(0.991246,0.132025,-0.132025,0.991246,158.4590,128.7473)" />
  <path
     sodipodi:type="arc"
     style="fill:#000000;fill-opacity:1.0000000;fill-rule:evenodd;stroke:#000000;stroke-width:1.0000000pt;stroke-linecap:butt;stroke-linejoin:miter;stroke-opacity:1.0000000;"
     id="path1920"
     sodipodi:cx="127.54958"
     sodipodi:cy="117.68954"
     sodipodi:rx="1.6564881"
     sodipodi:ry="1.8931292"
     d="M 129.20607 117.68954 A 1.6564881 1.8931292 0 1 0 125.89310,117.68954 A 1.6564881 1.8931292 0 1 0 129.20607 117.68954 z"
     transform="matrix(0.991246,0.132025,-0.132025,0.991246,488.9364,134.2244)" />
  <path
     sodipodi:type="arc"
     style="fill:#000000;fill-opacity:1.0000000;fill-rule:evenodd;stroke:#000000;stroke-width:1.0000000pt;stroke-linecap:butt;stroke-linejoin:miter;stroke-opacity:1.0000000;"
     id="path1775"
     sodipodi:cx="127.54958"
     sodipodi:cy="117.68954"
     sodipodi:rx="1.6564881"
     sodipodi:ry="1.8931292"
     d="M 129.20607 117.68954 A 1.6564881 1.8931292 0 1 0 125.89310,117.68954 A 1.6564881 1.8931292 0 1 0 129.20607 117.68954 z"
     transform="matrix(0.991246,0.132025,-0.132025,0.991246,142.2275,127.5312)" />
  <g
     id="g1806"
     transform="translate(56.79388,-1.893129)">
    <path
       sodipodi:type="arc"
       style="fill:#ffffff;fill-opacity:0.75000000;fill-rule:evenodd;stroke:#000000;stroke-width:3.7500000;stroke-linecap:butt;stroke-linejoin:miter;stroke-miterlimit:4.0000000;stroke-opacity:1.0000000;"
       id="path1798"
       sodipodi:cx="96.549591"
       sodipodi:cy="59.002533"
       sodipodi:rx="94.656464"
       sodipodi:ry="36.916019"
       d="M 191.20605 59.002533 A 94.656464 36.916019 0 1 0 1.8931274,59.002533 A 94.656464 36.916019 0 1 0 191.20605 59.002533 z"
       transform="translate(-4.732823,-4.732823)" />
    <text
       xml:space="preserve"
       style="font-size:18.000000;font-style:normal;font-variant:normal;font-weight:bold;font-stretch:normal;fill:#000000;fill-opacity:1.0000000;stroke:none;stroke-width:1.0000000pt;stroke-linecap:butt;stroke-linejoin:miter;stroke-opacity:1.0000000;font-family:Adventure;text-anchor:middle;writing-mode:lr;"
       x="87.083946"
       y="44.804062"
       id="text1119"><tspan
         id="tspan1120">BIEN, PUES AHORA</tspan><tspan
         sodipodi:role="line"
         id="tspan1124"
         x="87.083946"
         y="62.804062">LE HARE EL TEST DE</tspan><tspan
         sodipodi:role="line"
         id="tspan1126"
         x="87.083946"
         y="80.804062">LAS MANCHAS</tspan></text>
  </g>
  <g
     id="g1815"
     transform="translate(14.19847,0.946565)">
    <path
       sodipodi:type="arc"
       style="fill:#ffffff;fill-opacity:0.75000000;fill-rule:evenodd;stroke:#000000;stroke-width:3.7500000;stroke-linecap:butt;stroke-linejoin:miter;stroke-miterlimit:4.0000000;stroke-opacity:1.0000000;"
       id="path1799"
       sodipodi:cx="101.28241"
       sodipodi:cy="131.41472"
       sodipodi:rx="104.12211"
       sodipodi:ry="22.244268"
       d="M 205.40452 131.41472 A 104.12211 22.244268 0 1 0 -2.8396988,131.41472 A 104.12211 22.244268 0 1 0 205.40452 131.41472 z"
       transform="translate(-3.804382,0.896871)" />
    <text
       xml:space="preserve"
       style="font-size:18.000000;font-style:normal;font-variant:normal;font-weight:bold;font-stretch:normal;fill:#000000;fill-opacity:1.0000000;stroke:none;stroke-width:1.0000000pt;stroke-linecap:butt;stroke-linejoin:miter;stroke-opacity:1.0000000;font-family:Adventure;text-anchor:middle;writing-mode:lr;"
       x="93.709892"
       y="138.51396"
       id="text1128"><tspan
         id="tspan1129">QUE VE USTED AQUI?</tspan></text>
  </g>
  <g
     id="g1820"
     transform="translate(66.25952,-4.732823)">
    <path
       sodipodi:type="arc"
       style="fill:#ffffff;fill-opacity:0.75000000;fill-rule:evenodd;stroke:#000000;stroke-width:3.7500000;stroke-linecap:butt;stroke-linejoin:miter;stroke-miterlimit:4.0000000;stroke-opacity:1.0000000;"
       id="path1800"
       sodipodi:cx="210.13734"
       sodipodi:cy="182.52921"
       sodipodi:rx="64.366394"
       sodipodi:ry="33.603043"
       d="M 274.50374 182.52921 A 64.366394 33.603043 0 1 0 145.77095,182.52921 A 64.366394 33.603043 0 1 0 274.50374 182.52921 z"
       transform="translate(-0.946565,-11.35878)" />
    <text
       xml:space="preserve"
       style="font-size:18.000000;font-style:normal;font-variant:normal;font-weight:bold;font-stretch:normal;fill:#000000;fill-opacity:1.0000000;stroke:none;stroke-width:1.0000000pt;stroke-linecap:butt;stroke-linejoin:miter;stroke-opacity:1.0000000;font-family:Adventure;text-anchor:middle;writing-mode:lr;"
       x="206.35107"
       y="169.75060"
       id="text1131"><tspan
         id="tspan1132">UN PINGüINO</tspan><tspan
         sodipodi:role="line"
         id="tspan1136"
         x="206.35107"
         y="187.75060">SALTANDO</tspan></text>
  </g>
  <g
     id="g1827"
     transform="translate(1.338645,22.08763)">
    <path
       sodipodi:type="arc"
       style="fill:#ffffff;fill-opacity:0.75000000;fill-rule:evenodd;stroke:#000000;stroke-width:3.7500000;stroke-linecap:butt;stroke-linejoin:miter;stroke-miterlimit:4.0000000;stroke-opacity:1.0000000;"
       id="path1801"
       sodipodi:cx="425.48080"
       sodipodi:cy="62.788792"
       sodipodi:rx="46.854946"
       sodipodi:ry="25.557245"
       d="M 472.33575 62.788792 A 46.854946 25.557245 0 1 0 378.62586,62.788792 A 46.854946 25.557245 0 1 0 472.33575 62.788792 z" />
    <text
       xml:space="preserve"
       style="font-size:18.000000;font-style:normal;font-variant:normal;font-weight:bold;font-stretch:normal;fill:#000000;fill-opacity:1.0000000;stroke:none;stroke-width:1.0000000pt;stroke-linecap:butt;stroke-linejoin:miter;stroke-opacity:1.0000000;font-family:Adventure;text-anchor:middle;writing-mode:lr;"
       x="428.33450"
       y="65.278496"
       id="text1138"><tspan
         id="tspan1139">Y AQUI?</tspan></text>
  </g>
  <g
     id="g1832"
     transform="translate(-5.354578,63.58561)">
    <path
       sodipodi:type="arc"
       style="fill:#ffffff;fill-opacity:0.75000000;fill-rule:evenodd;stroke:#000000;stroke-width:3.7500000;stroke-linecap:butt;stroke-linejoin:miter;stroke-miterlimit:4.0000000;stroke-opacity:1.0000000;"
       id="path1802"
       sodipodi:cx="596.33569"
       sodipodi:cy="88.819313"
       sodipodi:rx="84.244247"
       sodipodi:ry="41.175560"
       d="M 680.57994 88.819313 A 84.244247 41.175560 0 1 0 512.09145,88.819313 A 84.244247 41.175560 0 1 0 680.57994 88.819313 z" />
    <text
       xml:space="preserve"
       style="font-size:18.000000;font-style:normal;font-variant:normal;font-weight:bold;font-stretch:normal;fill:#000000;fill-opacity:1.0000000;stroke:none;stroke-width:1.0000000pt;stroke-linecap:butt;stroke-linejoin:miter;stroke-opacity:1.0000000;font-family:Adventure;text-anchor:middle;writing-mode:lr;"
       x="595.38916"
       y="84.559776"
       id="text1141"><tspan
         id="tspan1142">UN PINGüINO</tspan><tspan
         sodipodi:role="line"
         id="tspan1144"
         x="595.38916"
         y="102.55978">TOMANDO EL SOL</tspan></text>
  </g>
  <text
     xml:space="preserve"
     style="font-size:18.000000;font-style:normal;font-variant:normal;font-weight:bold;font-stretch:normal;fill:#000000;fill-opacity:1.0000000;stroke:none;stroke-width:1.0000000pt;stroke-linecap:butt;stroke-linejoin:miter;stroke-opacity:1.0000000;font-family:Adventure;text-anchor:middle;writing-mode:lr;"
     x="510.19830"
     y="23.033075"
     id="text1146"><tspan
       id="tspan1147">50 MANCHAS MAS TARDE...</tspan></text>
  <path
     style="fill:none;fill-opacity:0.75000000;fill-rule:evenodd;stroke:#000000;stroke-width:5.0000000;stroke-linecap:butt;stroke-linejoin:miter;stroke-opacity:1.0000000;stroke-miterlimit:4.0000000;stroke-dasharray:none;"
     d="M 361.58768,31.552158 L 703.29750,29.659029"
     id="path1149" />
  <g
     id="g1839"
     transform="translate(8.031867,20.74899)">
    <path
       sodipodi:type="arc"
       style="fill:#ffffff;fill-opacity:0.75000000;fill-rule:evenodd;stroke:#000000;stroke-width:3.7500000;stroke-linecap:butt;stroke-linejoin:miter;stroke-miterlimit:4.0000000;stroke-opacity:1.0000000;"
       id="path1805"
       sodipodi:cx="823.03790"
       sodipodi:cy="86.926186"
       sodipodi:rx="158.54958"
       sodipodi:ry="104.59539"
       d="M 981.58748 86.926186 A 158.54958 104.59539 0 1 0 664.48833,86.926186 A 158.54958 104.59539 0 1 0 981.58748 86.926186 z"
       transform="translate(34.07633,6.625952)" />
    <text
       xml:space="preserve"
       style="font-size:18.000000;font-style:normal;font-variant:normal;font-weight:bold;font-stretch:normal;fill:#000000;fill-opacity:1.0000000;stroke:none;stroke-width:1.0000000pt;stroke-linecap:butt;stroke-linejoin:miter;stroke-opacity:1.0000000;font-family:Adventure;text-anchor:middle;writing-mode:lr;"
       x="860.42725"
       y="41.017807"
       id="text1777"><tspan
         id="tspan1778">PERO HOMBRE, YA ESTA BIEN,</tspan><tspan
         sodipodi:role="line"
         id="tspan1780"
         x="860.42725"
         y="59.017807">TE HE ENSEÑADO 50 MANCHAS</tspan><tspan
         sodipodi:role="line"
         id="tspan1782"
         x="860.42725"
         y="77.017807">Y EN TODAS HAS VISTO</tspan><tspan
         sodipodi:role="line"
         id="tspan1786"
         x="860.42725"
         y="95.017807">PINGüINOS, CUANDO </tspan><tspan
         sodipodi:role="line"
         id="tspan1788"
         x="860.42725"
         y="113.01781">CLARAMENTE ERAN 47 TIAS EN</tspan><tspan
         sodipodi:role="line"
         id="tspan1790"
         x="860.42725"
         y="131.01781">BOLAS Y 3 PARES DE TETAS.</tspan><tspan
         sodipodi:role="line"
         id="tspan1792"
         x="860.42725"
         y="149.01781">DEFINITIVAMENTE ESTA USTED</tspan><tspan
         sodipodi:role="line"
         id="tspan1796"
         x="860.42725"
         y="167.01781">LOCO.</tspan></text>
  </g>
  <path
     style="fill:none;fill-opacity:0.75000000;fill-rule:evenodd;stroke:#000000;stroke-width:1.0000000pt;stroke-linecap:butt;stroke-linejoin:miter;stroke-opacity:1.0000000;"
     d="M 81.404556,84.559776 C 53.954183,92.132293 68.152652,107.27733 68.152652,107.27733"
     id="path1858" />
  <path
     style="fill:none;fill-opacity:0.75000000;fill-rule:evenodd;stroke:#000000;stroke-width:1.0000000pt;stroke-linecap:butt;stroke-linejoin:miter;stroke-opacity:1.0000000;"
     d="M 61.526699,160.28494 C 30.290067,181.10937 46.381666,220.86508 46.381666,220.86508"
     id="path1859" />
  <path
     sodipodi:type="arc"
     style="fill:#ff0000;fill-opacity:0.75000000;fill-rule:evenodd;stroke:#000000;stroke-width:1.0000000pt;stroke-linecap:butt;stroke-linejoin:miter;stroke-opacity:1.0000000;"
     id="path1866"
     sodipodi:cx="306.92358"
     sodipodi:cy="278.36887"
     sodipodi:rx="4.0228996"
     sodipodi:ry="4.4961820"
     d="M 310.94648 278.36887 A 4.0228996 4.4961820 0 1 0 302.90068,278.36887 A 4.0228996 4.4961820 0 1 0 310.94648 278.36887 z"
     transform="translate(-9.938928,23.19083)" />
  <path
     sodipodi:type="arc"
     style="fill:#ffd4a5;fill-opacity:1.0000000;fill-rule:evenodd;stroke:#000000;stroke-width:1.0000000pt;stroke-linecap:butt;stroke-linejoin:miter;stroke-opacity:1.0000000;"
     id="path1926"
     sodipodi:cx="61.999981"
     sodipodi:cy="259.91086"
     sodipodi:rx="27.923656"
     sodipodi:ry="29.580145"
     d="M 89.923637 259.91086 A 27.923656 29.580145 0 1 0 34.076324,259.91086 A 27.923656 29.580145 0 1 0 89.923637 259.91086 z"
     transform="matrix(2.416938,0.000000,0.000000,2.416938,806.3410,-355.3969)" />
  <path
     sodipodi:type="arc"
     style="fill:#ffd4a5;fill-opacity:1.0000000;fill-rule:evenodd;stroke:#000000;stroke-width:1.0000000pt;stroke-linecap:butt;stroke-linejoin:miter;stroke-opacity:1.0000000;"
     id="path1896"
     sodipodi:cx="61.999981"
     sodipodi:cy="259.91086"
     sodipodi:rx="27.923656"
     sodipodi:ry="29.580145"
     d="M 89.923637 259.91086 A 27.923656 29.580145 0 1 0 34.076324,259.91086 A 27.923656 29.580145 0 1 0 89.923637 259.91086 z"
     transform="matrix(1.319495,0.000000,0.000000,1.319495,363.9172,-84.63080)" />
  <path
     sodipodi:type="arc"
     style="fill:#ffd4a5;fill-opacity:1.0000000;fill-rule:evenodd;stroke:#000000;stroke-width:1.0000000pt;stroke-linecap:butt;stroke-linejoin:miter;stroke-opacity:1.0000000;"
     id="path1868"
     sodipodi:cx="61.999981"
     sodipodi:cy="259.91086"
     sodipodi:rx="27.923656"
     sodipodi:ry="29.580145"
     d="M 89.923637 259.91086 A 27.923656 29.580145 0 1 0 34.076324,259.91086 A 27.923656 29.580145 0 1 0 89.923637 259.91086 z"
     transform="matrix(1.319495,0.000000,0.000000,1.319495,1.144528,-85.96944)" />
  <path
     sodipodi:type="arc"
     style="fill:#ffffff;fill-opacity:1.0000000;fill-rule:evenodd;stroke:#000000;stroke-width:1.0000000pt;stroke-linecap:butt;stroke-linejoin:miter;stroke-opacity:1.0000000;"
     id="path1927"
     sodipodi:cx="69.809143"
     sodipodi:cy="249.26202"
     sodipodi:rx="9.2290049"
     sodipodi:ry="9.9389286"
     d="M 79.038148 249.26202 A 9.2290049 9.9389286 0 1 0 60.580138,249.26202 A 9.2290049 9.9389286 0 1 0 79.038148 249.26202 z"
     transform="matrix(1.831714,0.000000,0.000000,1.831714,804.2446,-197.9254)" />
  <path
     sodipodi:type="arc"
     style="fill:#ffffff;fill-opacity:1.0000000;fill-rule:evenodd;stroke:#000000;stroke-width:1.0000000pt;stroke-linecap:butt;stroke-linejoin:miter;stroke-opacity:1.0000000;"
     id="path1897"
     sodipodi:cx="69.809143"
     sodipodi:cy="249.26202"
     sodipodi:rx="9.2290049"
     sodipodi:ry="9.9389286"
     d="M 79.038148 249.26202 A 9.2290049 9.9389286 0 1 0 60.580138,249.26202 A 9.2290049 9.9389286 0 1 0 79.038148 249.26202 z"
     transform="translate(362.7727,1.338645)" />
  <path
     sodipodi:type="arc"
     style="fill:#ffffff;fill-opacity:1.0000000;fill-rule:evenodd;stroke:#000000;stroke-width:1.0000000pt;stroke-linecap:butt;stroke-linejoin:miter;stroke-opacity:1.0000000;"
     id="path1872"
     sodipodi:cx="69.809143"
     sodipodi:cy="249.26202"
     sodipodi:rx="9.2290049"
     sodipodi:ry="9.9389286"
     d="M 79.038148 249.26202 A 9.2290049 9.9389286 0 1 0 60.580138,249.26202 A 9.2290049 9.9389286 0 1 0 79.038148 249.26202 z" />
  <path
     sodipodi:type="arc"
     style="fill:#ffffff;fill-opacity:1.0000000;fill-rule:evenodd;stroke:#000000;stroke-width:1.0000000pt;stroke-linecap:butt;stroke-linejoin:miter;stroke-opacity:1.0000000;"
     id="path1928"
     sodipodi:cx="94.419823"
     sodipodi:cy="249.73531"
     sodipodi:rx="7.8091578"
     sodipodi:ry="8.9923639"
     d="M 102.22898 249.73531 A 7.8091578 8.9923639 0 1 0 86.610665,249.73531 A 7.8091578 8.9923639 0 1 0 102.22898 249.73531 z"
     transform="matrix(1.831714,0.000000,0.000000,1.831714,804.2446,-197.9254)" />
  <path
     sodipodi:type="arc"
     style="fill:#ffffff;fill-opacity:1.0000000;fill-rule:evenodd;stroke:#000000;stroke-width:1.0000000pt;stroke-linecap:butt;stroke-linejoin:miter;stroke-opacity:1.0000000;"
     id="path1898"
     sodipodi:cx="94.419823"
     sodipodi:cy="249.73531"
     sodipodi:rx="7.8091578"
     sodipodi:ry="8.9923639"
     d="M 102.22898 249.73531 A 7.8091578 8.9923639 0 1 0 86.610665,249.73531 A 7.8091578 8.9923639 0 1 0 102.22898 249.73531 z"
     transform="translate(362.7727,1.338645)" />
  <path
     sodipodi:type="arc"
     style="fill:#ffffff;fill-opacity:1.0000000;fill-rule:evenodd;stroke:#000000;stroke-width:1.0000000pt;stroke-linecap:butt;stroke-linejoin:miter;stroke-opacity:1.0000000;"
     id="path1873"
     sodipodi:cx="94.419823"
     sodipodi:cy="249.73531"
     sodipodi:rx="7.8091578"
     sodipodi:ry="8.9923639"
     d="M 102.22898 249.73531 A 7.8091578 8.9923639 0 1 0 86.610665,249.73531 A 7.8091578 8.9923639 0 1 0 102.22898 249.73531 z" />
  <path
     style="fill:#ff0000;fill-opacity:1.0000000;fill-rule:evenodd;stroke:#000000;stroke-width:1.0000000pt;stroke-linecap:butt;stroke-linejoin:miter;stroke-opacity:1.0000000;"
     d="M 70.519063,282.39178 C 88.977073,260.14751 99.862566,274.81926 99.862566,274.81926 C 102.22898,283.81163 84.717532,288.54445 84.717532,288.54445 C 68.625934,286.17804 70.519063,282.39178 70.519063,282.39178 z "
     id="path1880" />
  <path
     sodipodi:type="arc"
     style="fill:#000000;fill-opacity:0.75000000;fill-rule:evenodd;stroke:#000000;stroke-width:1.0000000pt;stroke-linecap:butt;stroke-linejoin:miter;stroke-opacity:1.0000000;"
     id="path1930"
     sodipodi:cx="71.465630"
     sodipodi:cy="251.15515"
     sodipodi:rx="1.8931292"
     sodipodi:ry="1.8931292"
     d="M 73.358759 251.15515 A 1.8931292 1.8931292 0 1 0 69.572500,251.15515 A 1.8931292 1.8931292 0 1 0 73.358759 251.15515 z"
     transform="matrix(1.831714,0.000000,0.000000,1.831714,852.7920,-197.9254)" />
  <path
     sodipodi:type="arc"
     style="fill:#000000;fill-opacity:0.75000000;fill-rule:evenodd;stroke:#000000;stroke-width:1.0000000pt;stroke-linecap:butt;stroke-linejoin:miter;stroke-opacity:1.0000000;"
     id="path1900"
     sodipodi:cx="71.465630"
     sodipodi:cy="251.15515"
     sodipodi:rx="1.8931292"
     sodipodi:ry="1.8931292"
     d="M 73.358759 251.15515 A 1.8931292 1.8931292 0 1 0 69.572500,251.15515 A 1.8931292 1.8931292 0 1 0 73.358759 251.15515 z"
     transform="translate(389.2765,1.338645)" />
  <path
     sodipodi:type="arc"
     style="fill:#000000;fill-opacity:0.75000000;fill-rule:evenodd;stroke:#000000;stroke-width:1.0000000pt;stroke-linecap:butt;stroke-linejoin:miter;stroke-opacity:1.0000000;"
     id="path1883"
     sodipodi:cx="71.465630"
     sodipodi:cy="251.15515"
     sodipodi:rx="1.8931292"
     sodipodi:ry="1.8931292"
     d="M 73.358759 251.15515 A 1.8931292 1.8931292 0 1 0 69.572500,251.15515 A 1.8931292 1.8931292 0 1 0 73.358759 251.15515 z"
     transform="translate(26.50381,0.000000)" />
  <path
     sodipodi:type="arc"
     style="fill:#000000;fill-opacity:0.75000000;fill-rule:evenodd;stroke:#000000;stroke-width:1.0000000pt;stroke-linecap:butt;stroke-linejoin:miter;stroke-opacity:1.0000000;"
     id="path1931"
     sodipodi:cx="71.465630"
     sodipodi:cy="251.15515"
     sodipodi:rx="1.8931292"
     sodipodi:ry="1.8931292"
     d="M 73.358759 251.15515 A 1.8931292 1.8931292 0 1 0 69.572500,251.15515 A 1.8931292 1.8931292 0 1 0 73.358759 251.15515 z"
     transform="matrix(1.831714,0.000000,0.000000,1.831714,808.5791,-197.9254)" />
  <path
     sodipodi:type="arc"
     style="fill:#000000;fill-opacity:0.75000000;fill-rule:evenodd;stroke:#000000;stroke-width:1.0000000pt;stroke-linecap:butt;stroke-linejoin:miter;stroke-opacity:1.0000000;"
     id="path1901"
     sodipodi:cx="71.465630"
     sodipodi:cy="251.15515"
     sodipodi:rx="1.8931292"
     sodipodi:ry="1.8931292"
     d="M 73.358759 251.15515 A 1.8931292 1.8931292 0 1 0 69.572500,251.15515 A 1.8931292 1.8931292 0 1 0 73.358759 251.15515 z"
     transform="translate(365.1391,1.338645)" />
  <path
     sodipodi:type="arc"
     style="fill:#000000;fill-opacity:0.75000000;fill-rule:evenodd;stroke:#000000;stroke-width:1.0000000pt;stroke-linecap:butt;stroke-linejoin:miter;stroke-opacity:1.0000000;"
     id="path1885"
     sodipodi:cx="71.465630"
     sodipodi:cy="251.15515"
     sodipodi:rx="1.8931292"
     sodipodi:ry="1.8931292"
     d="M 73.358759 251.15515 A 1.8931292 1.8931292 0 1 0 69.572500,251.15515 A 1.8931292 1.8931292 0 1 0 73.358759 251.15515 z"
     transform="translate(2.366412,0.000000)" />
  <path
     style="fill:#ffffff;fill-opacity:1.0000000;fill-rule:evenodd;stroke:#000000;stroke-width:1.0000000pt;stroke-linecap:butt;stroke-linejoin:miter;stroke-opacity:1.0000000;"
     d="M 443.70393,300.76858 C 442.28409,305.02812 438.49783,343.36399 438.49783,343.36399 L 517.06269,350.46322 L 523.21536,282.78385 L 443.70393,300.76858 z "
     id="path1902" />
  <path
     style="fill:#ffffff;fill-opacity:1.0000000;fill-rule:evenodd;stroke:#000000;stroke-width:1.0000000pt;stroke-linecap:butt;stroke-linejoin:miter;stroke-opacity:1.0000000;"
     d="M 80.931274,299.42994 C 79.511427,303.68948 75.725169,342.02535 75.725169,342.02535 L 154.29003,349.12458 L 160.44270,281.44521 L 80.931274,299.42994 z "
     id="path1887" />
  <path
     style="fill:#ffd4a5;fill-opacity:1.0000000;fill-rule:evenodd;stroke:#000000;stroke-width:1.0000000pt;stroke-linecap:butt;stroke-linejoin:miter;stroke-opacity:1.0000000;"
     d="M 439.91768,313.54720 C 427.61234,316.86018 434.23829,329.63880 434.23829,329.63880 C 449.38332,336.26475 449.85660,325.37926 449.85660,325.37926 C 447.96348,321.11972 448.91004,319.22659 448.91004,319.22659 C 455.06271,311.18079 439.91768,313.54720 439.91768,313.54720 z "
     id="path1903" />
  <path
     style="fill:#ffd4a5;fill-opacity:1.0000000;fill-rule:evenodd;stroke:#000000;stroke-width:1.0000000pt;stroke-linecap:butt;stroke-linejoin:miter;stroke-opacity:1.0000000;"
     d="M 77.145015,312.20856 C 64.839676,315.52154 71.465628,328.30016 71.465628,328.30016 C 86.610661,334.92611 87.083944,324.04062 87.083944,324.04062 C 85.190815,319.78108 86.137379,317.88795 86.137379,317.88795 C 92.290049,309.84215 77.145015,312.20856 77.145015,312.20856 z "
     id="path1888" />
  <path
     style="fill:#ffd4a5;fill-opacity:1.0000000;fill-rule:evenodd;stroke:#000000;stroke-width:1.0000000pt;stroke-linecap:butt;stroke-linejoin:miter;stroke-opacity:1.0000000;"
     d="M 489.13903,283.73042 C 486.29934,295.08919 492.45201,296.50904 492.45201,296.50904 C 499.55125,296.50904 502.39094,293.19606 502.39094,293.19606 C 509.96346,293.19606 511.85659,290.35637 511.85659,290.35637 C 511.85659,280.41744 499.55125,280.41744 499.55125,280.41744 C 491.50545,281.36401 489.13903,283.73042 489.13903,283.73042 z "
     id="path1904" />
  <path
     style="fill:#ffd4a5;fill-opacity:1.0000000;fill-rule:evenodd;stroke:#000000;stroke-width:1.0000000pt;stroke-linecap:butt;stroke-linejoin:miter;stroke-opacity:1.0000000;"
     d="M 126.36637,282.39178 C 123.52668,293.75055 129.67935,295.17040 129.67935,295.17040 C 136.77859,295.17040 139.61828,291.85742 139.61828,291.85742 C 147.19080,291.85742 149.08393,289.01773 149.08393,289.01773 C 149.08393,279.07880 136.77859,279.07880 136.77859,279.07880 C 128.73279,280.02537 126.36637,282.39178 126.36637,282.39178 z "
     id="path1889" />
  <path
     style="fill:#00009b;fill-opacity:1.0000000;fill-rule:evenodd;stroke:#000000;stroke-width:1.8317142pt;stroke-linecap:butt;stroke-linejoin:miter;stroke-opacity:1.0000000;"
     d="M 972.55565,376.47562 C 1018.5023,381.67712 1028.9053,380.81021 1028.9053,380.81021 C 1031.5061,364.33876 1011.5670,362.60495 1012.4339,330.52897 C 1037.5745,318.39213 1052.3121,340.93198 1060.9813,355.66958 C 1073.9850,399.01549 1065.3159,420.68842 1065.3159,420.68842 C 1023.7038,431.95835 972.55565,399.88240 972.55565,399.88240 C 975.15635,381.67712 972.55565,376.47562 972.55565,376.47562 z "
     id="path1936"
     sodipodi:nodetypes="ccccccc" />
  <path
     style="fill:#00009b;fill-opacity:1.0000000;fill-rule:evenodd;stroke:#000000;stroke-width:1.8317142pt;stroke-linecap:butt;stroke-linejoin:miter;stroke-opacity:1.0000000;"
     d="M 934.28217,379.15291 C 888.33551,384.35441 877.93251,383.48750 877.93251,383.48750 C 875.33175,367.01605 895.27086,365.28224 894.40394,333.20626 C 869.26332,321.06942 854.52571,343.60927 845.85654,358.34687 C 832.85278,401.69278 841.52195,423.36571 841.52195,423.36571 C 883.13401,434.63564 934.28217,402.55969 934.28217,402.55969 C 931.68142,384.35441 934.28217,379.15291 934.28217,379.15291 z "
     id="path1935"
     sodipodi:nodetypes="ccccccc" />
  <path
     style="fill:#00009b;fill-opacity:1.0000000;fill-rule:evenodd;stroke:#000000;stroke-width:1.0000000pt;stroke-linecap:butt;stroke-linejoin:miter;stroke-opacity:1.0000000;"
     d="M 433.76501,316.38690 C 408.68104,319.22659 403.00166,318.75331 403.00166,318.75331 C 401.58181,309.76094 412.46730,308.81439 411.99402,291.30294 C 398.26883,284.67699 390.22303,296.98232 385.49021,305.02812 C 378.39098,328.69224 383.12380,340.52429 383.12380,340.52429 C 405.84135,346.67696 433.76501,329.16552 433.76501,329.16552 C 432.34516,319.22659 433.76501,316.38690 433.76501,316.38690 z "
     id="path1905"
     sodipodi:nodetypes="ccccccc" />
  <path
     style="fill:#00009b;fill-opacity:1.0000000;fill-rule:evenodd;stroke:#000000;stroke-width:1.0000000pt;stroke-linecap:butt;stroke-linejoin:miter;stroke-opacity:1.0000000;"
     d="M 70.992345,315.04826 C 45.908383,317.88795 40.228996,317.41467 40.228996,317.41467 C 38.809148,308.42230 49.694642,307.47575 49.221360,289.96430 C 35.496173,283.33835 27.450374,295.64368 22.717551,303.68948 C 15.618316,327.35360 20.351139,339.18565 20.351139,339.18565 C 43.068690,345.33832 70.992345,327.82688 70.992345,327.82688 C 69.572499,317.88795 70.992345,315.04826 70.992345,315.04826 z "
     id="path1890"
     sodipodi:nodetypes="ccccccc" />
  <path
     style="fill:#ffac00;fill-opacity:1.0000000;fill-rule:evenodd;stroke:#000000;stroke-width:0.93000746pt;stroke-linecap:butt;stroke-linejoin:miter;stroke-opacity:1.0000000;"
     d="M 648.81123,333.57354 C 646.35515,314.64225 656.58886,315.58881 656.58886,315.58881 C 664.36648,318.42851 666.00387,337.35980 666.00387,337.35980 C 672.55345,373.80253 667.23192,383.26818 667.23192,383.26818 L 648.81123,382.32162 L 648.81123,333.57354 z "
     id="path1922" />
  <path
     style="fill:#ffac00;fill-opacity:1.0000000;fill-rule:evenodd;stroke:#000000;stroke-width:0.93000746pt;stroke-linecap:butt;stroke-linejoin:miter;stroke-opacity:1.0000000;"
     d="M 302.10230,326.88032 C 299.64622,307.94903 309.87993,308.89559 309.87993,308.89559 C 317.65755,311.73529 319.29494,330.66658 319.29494,330.66658 C 325.84452,367.10931 320.52299,376.57496 320.52299,376.57496 L 302.10230,375.62840 L 302.10230,326.88032 z "
     id="path1891" />
  <path
     style="fill:none;fill-opacity:0.75000000;fill-rule:evenodd;stroke:#000000;stroke-width:1.0000000pt;stroke-linecap:butt;stroke-linejoin:miter;stroke-opacity:1.0000000;"
     d="M 229.57753,201.05589 C 205.48193,229.16743 231.58550,245.90048 231.58550,245.90048"
     id="path1894" />
  <path
     style="fill:none;fill-opacity:0.75000000;fill-rule:evenodd;stroke:#000000;stroke-width:1.0000000pt;stroke-linecap:butt;stroke-linejoin:miter;stroke-opacity:1.0000000;"
     d="M 389.54555,109.35874 C 374.82046,122.74519 369.46588,171.60571 369.46588,171.60571 C 368.79656,215.78098 386.86826,243.89252 386.86826,243.89252"
     id="path1923" />
  <path
     style="fill:none;fill-opacity:0.75000000;fill-rule:evenodd;stroke:#000000;stroke-width:1.0000000pt;stroke-linecap:butt;stroke-linejoin:miter;stroke-opacity:1.0000000;"
     d="M 557.54544,197.70928 C 524.74865,243.22319 574.27849,272.00405 574.27849,272.00405"
     id="path1924" />
  <path
     style="fill:none;fill-opacity:0.75000000;fill-rule:evenodd;stroke:#000000;stroke-width:1.0000000pt;stroke-linecap:butt;stroke-linejoin:miter;stroke-opacity:1.0000000;"
     d="M 816.57315,227.82879 C 771.05924,276.68931 844.68469,301.45423 844.68469,301.45423"
     id="path1937" />
  <path
     style="fill:none;fill-opacity:0.75000000;fill-rule:evenodd;stroke:#000000;stroke-width:1.0000000pt;stroke-linecap:butt;stroke-linejoin:miter;stroke-opacity:1.0000000;"
     d="M 616.21356,308.89559 C 646.50363,309.84215 647.45019,298.48338 647.45019,298.48338"
     id="path1939" />
  <path
     sodipodi:type="arc"
     style="fill:#ff0000;fill-opacity:0.75000000;fill-rule:evenodd;stroke:#000000;stroke-width:1.0000000pt;stroke-linecap:butt;stroke-linejoin:miter;stroke-opacity:1.0000000;"
     id="path1940"
     sodipodi:cx="432.81668"
     sodipodi:cy="288.54443"
     sodipodi:rx="2.6030526"
     sodipodi:ry="3.7862585"
     d="M 435.41973 288.54443 A 2.6030526 3.7862585 0 1 0 430.21363,288.54443 A 2.6030526 3.7862585 0 1 0 435.41973 288.54443 z" />
  <path
     style="fill:#ffffff;fill-opacity:1.0000000;fill-rule:evenodd;stroke:#000000;stroke-width:1.0000000pt;stroke-linecap:butt;stroke-linejoin:miter;stroke-opacity:1.0000000;"
     d="M 923.37377,314.57498 C 917.99372,290.40394 986.48272,282.32451 988.49069,292.36434 C 998.42962,307.98266 989.63330,321.67421 989.63330,321.67421 C 966.57701,316.85441 936.62568,331.13986 936.62568,331.13986 C 937.57224,320.25436 923.37377,314.57498 923.37377,314.57498 z "
     id="path1941"
     sodipodi:nodetypes="ccccc" />
  <path
     style="fill:none;fill-opacity:0.75000000;fill-rule:evenodd;stroke:#000000;stroke-width:1.0000000pt;stroke-linecap:butt;stroke-linejoin:miter;stroke-opacity:1.0000000;"
     d="M 934.25927,324.04062 C 963.12949,303.21620 992.94627,305.10933 992.94627,305.10933"
     id="path1942" />
  <path
     style="fill:none;fill-opacity:0.75000000;fill-rule:evenodd;stroke:#000000;stroke-width:1.0000000pt;stroke-linecap:butt;stroke-linejoin:miter;stroke-opacity:1.0000000;"
     d="M 977.32796,299.90322 C 985.37376,306.05589 983.00734,311.26200 983.00734,311.26200"
     id="path1943" />
</svg>
