<?xml version="1.0" encoding="UTF-8" standalone="no"?>
<!-- Created with Inkscape (http://www.inkscape.org/) -->
<svg
   xmlns:dc="http://purl.org/dc/elements/1.1/"
   xmlns:cc="http://web.resource.org/cc/"
   xmlns:rdf="http://www.w3.org/1999/02/22-rdf-syntax-ns#"
   xmlns:svg="http://www.w3.org/2000/svg"
   xmlns="http://www.w3.org/2000/svg"
   xmlns:xlink="http://www.w3.org/1999/xlink"
   xmlns:sodipodi="http://sodipodi.sourceforge.net/DTD/sodipodi-0.dtd"
   xmlns:inkscape="http://www.inkscape.org/namespaces/inkscape"
   width="400"
   height="400"
   id="svg2"
   sodipodi:version="0.32"
   inkscape:version="0.44"
   version="1.0"
   sodipodi:docbase="/home/danigm/Documents/linuxHispano/tira"
   sodipodi:docname="newbar.svg"
   inkscape:export-filename="/home/danigm/Documents/linuxHispano/tira/newbar.png"
   inkscape:export-xdpi="90"
   inkscape:export-ydpi="90">
  <defs
     id="defs4">
    <linearGradient
       inkscape:collect="always"
       id="linearGradient2937">
      <stop
         style="stop-color:#359f35;stop-opacity:1"
         offset="0"
         id="stop2939" />
      <stop
         style="stop-color:#35ff35;stop-opacity:1"
         offset="1"
         id="stop2941" />
    </linearGradient>
    <linearGradient
       inkscape:collect="always"
       id="linearGradient2874">
      <stop
         style="stop-color:#ffb380;stop-opacity:1;"
         offset="0"
         id="stop2876" />
      <stop
         style="stop-color:#fca;stop-opacity:1"
         offset="1"
         id="stop2878" />
    </linearGradient>
    <linearGradient
       inkscape:collect="always"
       id="linearGradient2866">
      <stop
         style="stop-color:lime;stop-opacity:1;"
         offset="0"
         id="stop2868" />
      <stop
         style="stop-color:#5f5;stop-opacity:1"
         offset="1"
         id="stop2870" />
    </linearGradient>
    <linearGradient
       inkscape:collect="always"
       id="linearGradient2858">
      <stop
         style="stop-color:yellow;stop-opacity:1;"
         offset="0"
         id="stop2860" />
      <stop
         style="stop-color:#df5;stop-opacity:1"
         offset="1"
         id="stop2862" />
    </linearGradient>
    <linearGradient
       inkscape:collect="always"
       id="linearGradient2850">
      <stop
         style="stop-color:yellow;stop-opacity:1;"
         offset="0"
         id="stop2852" />
      <stop
         style="stop-color:#df5;stop-opacity:1"
         offset="1"
         id="stop2854" />
    </linearGradient>
    <linearGradient
       inkscape:collect="always"
       id="linearGradient2842">
      <stop
         style="stop-color:#f60;stop-opacity:1;"
         offset="0"
         id="stop2844" />
      <stop
         style="stop-color:#ff7f2a;stop-opacity:1"
         offset="1"
         id="stop2846" />
    </linearGradient>
    <linearGradient
       inkscape:collect="always"
       id="linearGradient2834">
      <stop
         style="stop-color:#d40000;stop-opacity:1"
         offset="0"
         id="stop2836" />
      <stop
         style="stop-color:red;stop-opacity:1"
         offset="1"
         id="stop2838" />
    </linearGradient>
    <linearGradient
       inkscape:collect="always"
       xlink:href="#linearGradient2834"
       id="linearGradient2840"
       x1="323.61194"
       y1="472.90744"
       x2="633.28235"
       y2="472.90744"
       gradientUnits="userSpaceOnUse"
       gradientTransform="matrix(0.701622,0,0,0.70226,-96.8594,-261.3159)" />
    <linearGradient
       inkscape:collect="always"
       xlink:href="#linearGradient2842"
       id="linearGradient2848"
       x1="281.9332"
       y1="552.45325"
       x2="662.10443"
       y2="552.45325"
       gradientUnits="userSpaceOnUse"
       gradientTransform="matrix(0.701622,0,0,0.70226,-96.8594,-261.3159)" />
    <linearGradient
       inkscape:collect="always"
       xlink:href="#linearGradient2850"
       id="linearGradient2856"
       x1="275.45026"
       y1="653.61371"
       x2="636.02661"
       y2="653.61371"
       gradientUnits="userSpaceOnUse"
       gradientTransform="matrix(0.701622,0,0,0.70226,-96.8594,-261.3159)" />
    <linearGradient
       inkscape:collect="always"
       xlink:href="#linearGradient2858"
       id="linearGradient2864"
       x1="377.12488"
       y1="900.01093"
       x2="552.32684"
       y2="900.01093"
       gradientUnits="userSpaceOnUse"
       gradientTransform="matrix(0.701622,0,0,0.70226,-96.8594,-261.3159)" />
    <linearGradient
       inkscape:collect="always"
       xlink:href="#linearGradient2866"
       id="linearGradient2872"
       x1="430.40286"
       y1="914.75574"
       x2="693.56567"
       y2="914.75574"
       gradientUnits="userSpaceOnUse"
       gradientTransform="matrix(0.701622,0,0,0.70226,-96.8594,-261.3159)" />
    <linearGradient
       inkscape:collect="always"
       xlink:href="#linearGradient2874"
       id="linearGradient2880"
       x1="299.9747"
       y1="666.36646"
       x2="677.02179"
       y2="666.36646"
       gradientUnits="userSpaceOnUse"
       gradientTransform="matrix(0.701622,0,0,0.70226,-96.8594,-261.3159)" />
    <linearGradient
       inkscape:collect="always"
       xlink:href="#linearGradient2937"
       id="linearGradient2943"
       x1="-359.52665"
       y1="49.883068"
       x2="-79.345557"
       y2="49.883068"
       gradientUnits="userSpaceOnUse"
       gradientTransform="matrix(1.787654,0,0,1.787654,120.3638,-41.23193)" />
  </defs>
  <sodipodi:namedview
     id="base"
     pagecolor="#ffffff"
     bordercolor="#666666"
     borderopacity="1.0"
     inkscape:pageopacity="0.0"
     inkscape:pageshadow="2"
     inkscape:zoom="1.0807745"
     inkscape:cx="252.00411"
     inkscape:cy="187.3438"
     inkscape:document-units="px"
     inkscape:current-layer="layer1"
     width="400px"
     height="400px"
     borderlayer="true"
     inkscape:window-width="1024"
     inkscape:window-height="702"
     inkscape:window-x="0"
     inkscape:window-y="41" />
  <metadata
     id="metadata7">
    <rdf:RDF>
      <cc:Work
         rdf:about="">
        <dc:format>image/svg+xml</dc:format>
        <dc:type
           rdf:resource="http://purl.org/dc/dcmitype/StillImage" />
      </cc:Work>
    </rdf:RDF>
  </metadata>
  <g
     inkscape:label="Capa 1"
     inkscape:groupmode="layer"
     id="layer1">
    <rect
       style="opacity:1;fill:yellow;fill-opacity:1;fill-rule:nonzero;stroke:#00b;stroke-width:1;stroke-linecap:round;stroke-linejoin:round;stroke-miterlimit:4;stroke-dasharray:none;stroke-dashoffset:0;stroke-opacity:1"
       id="rect2935"
       width="436.72385"
       height="439.49963"
       x="-16.654722"
       y="-14.51755"
       rx="29.577316"
       ry="26.666647" />
    <text
       xml:space="preserve"
       style="font-size:99.41143036px;font-style:normal;font-variant:normal;font-weight:normal;font-stretch:normal;text-align:center;line-height:125%;writing-mode:lr-tb;text-anchor:middle;fill:url(#linearGradient2943);fill-opacity:1;stroke:black;stroke-width:3.00000238;stroke-linecap:butt;stroke-linejoin:miter;stroke-miterlimit:4;stroke-dasharray:none;stroke-opacity:1;font-family:SF Wonder Comic Blotch"
       x="-271.81485"
       y="89.783821"
       id="text2931"
       sodipodi:linespacing="125%"
       transform="matrix(-1.121025e-2,-0.736789,1.357148,-6.085987e-3,0,0)"><tspan
         sodipodi:role="line"
         id="tspan2933"
         x="-271.81485"
         y="89.783821"
         style="fill:url(#linearGradient2943);fill-opacity:1;stroke:black;stroke-width:3.00000238;stroke-miterlimit:4;stroke-dasharray:none;stroke-opacity:1;font-family:Anime Ace">DGM´06</tspan></text>
    <path
       style="opacity:1;fill:navy;fill-opacity:1;fill-rule:nonzero;stroke:#0000b2;stroke-width:20;stroke-linecap:round;stroke-linejoin:round;stroke-miterlimit:4;stroke-dasharray:none;stroke-dashoffset:0;stroke-opacity:1"
       d="M 272.84375,7.4375 C 252.63995,7.4157654 195.44874,15.349142 139.75,97.0625 C 138.49416,97.310632 137.8125,97.536704 137.8125,97.65625 C 95.606503,97.656248 102.40625,124.78125 102.40625,124.78125 C 105.12763,135.63387 112.66574,136.23975 117.40625,135.4375 C 89.55741,179.77233 99,231.0625 99,231.0625 C 101.39506,225.80936 127.95828,164.7857 128.21875,164.1875 L 128.28125,164.21875 C 127.61713,167.05332 115.84375,225.3125 115.84375,225.3125 L 125,211.375 C 123.51903,222.49873 124.75,230.25 124.75,230.25 C 150.33083,280.0425 186.11887,340.40316 193.71875,353.15625 L 168.78125,391.375 L 200.09375,370.25 L 202,400 C 202.65522,399.12899 206.68576,393.47245 210.5625,388.03125 C 208.41555,399.66707 206.31197,411.25645 206.1875,412.125 L 388.71875,410.84375 L 380.25,364.59375 L 332.0625,350.53125 C 332.0625,350.53125 331.29497,352.79912 328.8125,355.03125 L 323,350.03125 C 323,350.03125 310.44659,351.90824 324.09375,279.90625 C 324.15192,279.82397 324.19217,279.73831 324.25,279.65625 C 326.33721,282.56217 328.81512,286.10759 329.09375,287.21875 C 329.09375,287.21875 332.90138,272.29181 333.03125,266.03125 C 333.1773,265.77879 333.32656,265.53017 333.46875,265.28125 L 344,287.21875 C 344,287.21875 346.40626,267.56016 346.40625,262.28125 L 354.125,282.90625 L 354.59375,240.6875 L 381.5625,275.21875 C 381.5625,275.21875 362.88765,222.20085 362.40625,220.28125 C 362.46642,220.34124 362.25077,219.33722 361.84375,217.5625 C 385.3157,199.62847 374.71875,173.65625 374.71875,173.65625 C 363.26406,157.47785 353.14887,160.65904 348.125,164 C 347.55128,161.98057 347.06504,160.25032 346.59375,158.71875 C 369.21947,159.71103 366.53125,135.65625 366.53125,135.65625 C 362.16357,124.33464 352.21204,120.8662 345.625,119.8125 C 344.45179,102.043 341.70407,72.344268 335.8125,58.3125 C 335.8125,58.3125 316.57054,18.464109 280.46875,7.90625 C 280.46875,7.90625 277.74393,7.4427715 272.84375,7.4375 z M 284.75,323.53125 C 284.08915,336.5519 282.93482,347.73507 280.9375,351.46875 L 279.3125,352.3125 C 278.4648,351.60962 277.66239,350.86731 276.9375,350.03125 L 272,351.09375 C 267.79936,346.77105 263.23173,342.02113 263,341.78125 C 270.99056,335.53828 278.24246,329.44487 284.75,323.53125 z M 258.53125,345.28125 C 255.49923,347.90149 252.5902,350.02007 249.84375,351.71875 C 252.8347,349.55808 255.72504,347.41371 258.53125,345.28125 z "
       id="path2890" />
    <path
       style="opacity:1;fill:#fca;fill-opacity:1;fill-rule:nonzero;stroke:black;stroke-width:3.00000238;stroke-linecap:round;stroke-linejoin:round;stroke-miterlimit:4;stroke-dasharray:none;stroke-dashoffset:0;stroke-opacity:1"
       d="M 331.86874,243.35003 C 306.48929,352.51297 322.98964,350.03383 322.98964,350.03383 L 349.0942,372.44477 L 291.08412,402.08504 L 246.85146,369.55303 L 280.93241,351.47968 C 286.73336,340.63569 285.46065,267.20681 285.46065,267.20681 C 288.36117,267.20681 333.31895,244.07296 331.86874,243.35003 z "
       id="path2786"
       sodipodi:nodetypes="cccccccc" />
    <path
       style="opacity:1;fill:url(#linearGradient2872);fill-opacity:1;fill-rule:nonzero;stroke:black;stroke-width:3.00000238;stroke-linecap:round;stroke-linejoin:round;stroke-miterlimit:4;stroke-dasharray:none;stroke-dashoffset:0;stroke-opacity:1"
       d="M 276.93124,350.02538 C 290.00617,365.10551 324.61617,357.69329 324.61617,357.69329 C 330.51274,355.13736 332.0509,350.53664 332.0509,350.53664 L 380.24857,364.59437 L 388.70883,410.85712 L 206.17292,412.13513 C 206.42931,410.346 215.14591,363.3164 215.14591,363.3164 L 276.93124,350.02538 z "
       id="path2788" />
    <path
       style="opacity:1;fill:#df5;fill-opacity:1;fill-rule:nonzero;stroke:black;stroke-width:3.00000238;stroke-linecap:round;stroke-linejoin:round;stroke-miterlimit:4;stroke-dasharray:none;stroke-dashoffset:0;stroke-opacity:1"
       d="M 362.39897,220.26574 C 362.88036,222.18535 381.5518,275.22512 381.5518,275.22512 L 354.59581,240.67221 L 354.11445,282.90356 L 346.41276,262.26778 C 346.41276,267.5467 344.00597,287.22266 344.00597,287.22266 L 332.93475,264.1874 C 333.89746,268.50652 329.08389,287.22266 329.08389,287.22266 C 328.60254,285.30308 321.38218,275.70505 321.38218,275.70505 L 318.49401,291.5418 L 307.90418,151.41048 L 344.52239,153.27065 C 346.44783,154.23045 362.88036,220.74563 362.39897,220.26574 z "
       id="path2768"
       sodipodi:nodetypes="ccccccccccccc" />
    <path
       style="opacity:1;fill:url(#linearGradient2880);fill-opacity:1;fill-rule:nonzero;stroke:black;stroke-width:3.00000238;stroke-linecap:round;stroke-linejoin:round;stroke-miterlimit:4;stroke-dasharray:none;stroke-dashoffset:0;stroke-opacity:1"
       d="M 114.66167,158.73053 L 143.34961,170.28815 C 119.42101,197.7366 124.756,230.25933 124.756,230.25933 C 153.34717,285.91137 196.74949,358.29176 196.74949,358.29176 C 215.81025,374.58018 244.4014,355.57702 244.4014,355.57702 C 331.53637,294.49552 343.39095,242.8873 343.39095,242.8873 C 347.4754,229.31365 344.75243,226.59889 344.75243,226.59889 C 389.6814,210.31046 374.70509,173.66157 374.70509,173.66157 C 358.36728,150.58635 344.75243,166.87476 344.75243,166.87476 C 340.66797,74.573739 316.16128,71.859023 316.16128,71.859023 C 252.17153,24.351178 166.39804,63.714833 166.39804,63.714833 C 116.02317,119.3669 116.02317,162.80265 114.66167,158.73053 z "
       id="path1872"
       sodipodi:nodetypes="cccccccccccc" />
    <path
       style="opacity:1;fill:none;fill-opacity:1;fill-rule:nonzero;stroke:black;stroke-width:3.00000238;stroke-linecap:round;stroke-linejoin:round;stroke-miterlimit:4;stroke-dasharray:none;stroke-dashoffset:0;stroke-opacity:1"
       d="M 364.49395,177.39433 C 355.30394,168.57144 350.19839,176.71564 350.19839,176.71564 C 342.02947,184.85983 346.79467,193.00407 346.79467,193.00407 L 353.94246,197.41549 L 348.15614,204.5417 C 345.43318,211.32851 347.4754,213.02522 347.4754,213.02522"
       id="path2784" />
    <path
       style="opacity:1;fill:url(#linearGradient2840);fill-opacity:1;fill-rule:nonzero;stroke:black;stroke-width:3.00000238;stroke-linecap:round;stroke-linejoin:round;stroke-miterlimit:4;stroke-dasharray:none;stroke-dashoffset:0;stroke-opacity:1"
       d="M 131.24608,110.13892 C 202.96828,-5.5174084 280.4668,7.9198261 280.4668,7.9198261 C 316.56859,18.477685 335.82288,58.309519 335.82288,58.309519 C 344.4873,78.945297 346.41276,134.134 346.41276,134.134 L 131.24608,110.13892 z "
       id="path2762" />
    <path
       style="opacity:1;fill:url(#linearGradient2856);fill-opacity:1;fill-rule:nonzero;stroke:black;stroke-width:3.00000238;stroke-linecap:round;stroke-linejoin:round;stroke-miterlimit:4;stroke-dasharray:none;stroke-dashoffset:0;stroke-opacity:1"
       d="M 118.24941,134.134 C 89.367989,178.76491 98.995128,231.07417 98.995128,231.07417 C 101.40192,225.79528 128.35793,163.88791 128.35793,163.88791 C 127.87655,165.80751 115.84262,225.31534 115.84262,225.31534 L 165.9038,149.01095 L 163.49699,180.20457 L 186.12078,146.61147 L 208.74459,182.6041 L 206.33779,157.64919 C 207.30051,160.04873 240.51417,206.59918 240.51417,206.59918 L 231.84971,163.40803 C 250.62264,190.76242 255.43624,213.7977 255.43624,213.7977 L 246.7718,164.36784 L 285.28038,222.43593 C 285.28038,220.03643 287.2058,164.84771 287.2058,164.84771 L 310.31097,223.87565 L 314.64318,170.12663 L 342.56188,267.06681 L 331.00932,173.00607 L 348.33818,235.87318 L 344.4873,153.80999 C 224.14802,113.01835 118.73078,133.17418 118.24941,134.134 z "
       id="path2766"
       sodipodi:nodetypes="cccccccccccccccccccccc" />
    <path
       style="opacity:1;fill:url(#linearGradient2848);fill-opacity:1;fill-rule:nonzero;stroke:black;stroke-width:3.00000238;stroke-linecap:round;stroke-linejoin:round;stroke-miterlimit:4;stroke-dasharray:none;stroke-dashoffset:0;stroke-opacity:1"
       d="M 137.8069,97.649 C 95.600903,97.649 102.40832,124.79635 102.40832,124.79635 C 106.49277,141.08476 121.4691,134.29793 121.4691,134.29793 C 215.41149,111.2227 346.11392,158.73053 346.11392,158.73053 C 369.25915,160.08789 366.53616,135.65527 366.53616,135.65527 C 359.72874,118.00953 339.30648,119.3669 339.30648,119.3669 C 220.85741,84.075328 137.8069,96.291628 137.8069,97.649 z "
       id="path1874" />
    <path
       style="opacity:1;fill:none;fill-opacity:1;fill-rule:nonzero;stroke:black;stroke-width:3.00000238;stroke-linecap:round;stroke-linejoin:round;stroke-miterlimit:4;stroke-dasharray:none;stroke-dashoffset:0;stroke-opacity:1"
       d="M 181.78857,166.28743 C 176.49365,202.75998 154.35118,223.87565 154.35118,223.87565 C 171.68008,244.03153 192.37843,240.67221 192.37843,240.67221"
       id="path2764" />
    <path
       style="opacity:1;fill:red;fill-opacity:1;fill-rule:nonzero;stroke:black;stroke-width:3.00000238;stroke-linecap:round;stroke-linejoin:round;stroke-miterlimit:4;stroke-dasharray:none;stroke-dashoffset:0;stroke-opacity:1"
       d="M 200.56152,337.61236 C 200.56152,337.61236 239.07011,287.7026 170.23602,287.22266 C 216.92764,294.90111 312.23637,237.3129 312.23637,237.3129 C 303.09058,301.13983 282.39224,311.21776 282.39224,311.21776 C 254.95486,328.97413 226.55479,336.65257 226.55479,336.65257 C 212.59544,340.97166 200.56152,337.61236 200.56152,337.61236 z "
       id="path2770"
       sodipodi:nodetypes="cccccc" />
    <path
       style="opacity:1;fill:#ff80e5;fill-opacity:1;fill-rule:nonzero;stroke:black;stroke-width:3.00000238;stroke-linecap:round;stroke-linejoin:round;stroke-miterlimit:4;stroke-dasharray:none;stroke-dashoffset:0;stroke-opacity:1"
       d="M 236.54238,300.77724 C 213.77643,300.62855 209.20103,338.69928 209.20103,338.69928 C 209.77385,338.75365 210.34416,338.79307 210.91124,338.83092 C 215.31915,338.89465 220.74994,338.45109 226.54426,336.65832 C 226.54426,336.65832 234.61057,334.45863 246.23354,329.76739 L 245.79501,302.70845 C 242.4255,301.39621 239.33819,300.7955 236.54238,300.77724 z "
       id="path2801" />
    <path
       style="opacity:1;fill:#ff80e5;fill-opacity:1;fill-rule:nonzero;stroke:black;stroke-width:3.00000238;stroke-linecap:round;stroke-linejoin:round;stroke-miterlimit:4;stroke-dasharray:none;stroke-dashoffset:0;stroke-opacity:1"
       d="M 258.57769,300.09691 C 249.22314,299.76912 241.9361,306.54894 241.9361,306.54894 C 232.6549,320.89124 236.75902,332.43678 237.0686,333.25675 C 246.92646,329.75257 262.46408,323.43269 278.17925,313.85683 C 271.74733,303.60557 264.71841,300.31211 258.57769,300.09691 z "
       id="path2798" />
    <path
       style="opacity:1;fill:none;fill-opacity:1;fill-rule:nonzero;stroke:black;stroke-width:3.00000238;stroke-linecap:round;stroke-linejoin:round;stroke-miterlimit:4;stroke-dasharray:none;stroke-dashoffset:0;stroke-opacity:1"
       d="M 187.56486,259.38838 L 181.30723,253.62954 L 178.90043,271.86582 L 168.31058,253.14964 L 165.42242,272.3457 L 157.23934,256.02907 L 153.3885,270.90603"
       id="path2778" />
    <path
       id="path2780"
       d="M 244.84635,243.55165 L 238.5887,237.79279 L 236.18194,256.02907 L 225.59208,237.3129 L 222.70393,256.50898 L 214.52085,240.19231 L 210.67001,255.06927"
       style="opacity:1;fill:none;fill-opacity:1;fill-rule:nonzero;stroke:black;stroke-width:3.00000238;stroke-linecap:round;stroke-linejoin:round;stroke-miterlimit:4;stroke-dasharray:none;stroke-dashoffset:0;stroke-opacity:1" />
    <path
       style="opacity:1;fill:url(#linearGradient2864);fill-opacity:1;fill-rule:nonzero;stroke:black;stroke-width:3.00000238;stroke-linecap:round;stroke-linejoin:round;stroke-miterlimit:4;stroke-dasharray:none;stroke-dashoffset:0;stroke-opacity:1"
       d="M 194.78522,351.5295 L 168.79192,391.36135 L 200.08013,370.24569 L 202.00558,399.99958 C 203.44962,398.07996 219.81581,375.0447 219.81581,375.0447 L 236.18194,398.07996 L 242.92093,364.48686 L 270.3583,389.92164 L 265.54473,358.72804 L 289.61264,368.80596 C 287.68715,367.36625 262.65659,341.45156 262.65659,341.45156 C 245.80908,358.24816 230.887,358.72804 230.887,358.72804 L 226.07345,345.77067 L 220.29713,361.12753 C 203.44962,364.48686 195.26657,353.44911 195.26657,353.44911 L 194.78522,351.5295 z "
       id="path2782" />
  </g>
</svg>
