<?xml version="1.0" encoding="UTF-8" standalone="no"?>
<!DOCTYPE svg PUBLIC "-//W3C//DTD SVG 20010904//EN"
"http://www.w3.org/TR/2001/REC-SVG-20010904/DTD/svg10.dtd">
<!-- Created with Inkscape (http://www.inkscape.org/) -->
<svg
   id="svg1"
   sodipodi:version="0.32"
   inkscape:version="0.40"
   width="30.000000cm"
   height="10.000000cm"
   sodipodi:docbase="/Users/danigm/Documents/linuxHispano/tira"
   sodipodi:docname="portatil.svg"
   inkscape:export-filename="/Users/danigm/Documents/linuxHispano/tira/portatil.png"
   inkscape:export-xdpi="59.270000"
   inkscape:export-ydpi="59.270000"
   xmlns="http://www.w3.org/2000/svg"
   xmlns:cc="http://web.resource.org/cc/"
   xmlns:inkscape="http://www.inkscape.org/namespaces/inkscape"
   xmlns:sodipodi="http://sodipodi.sourceforge.net/DTD/sodipodi-0.dtd"
   xmlns:rdf="http://www.w3.org/1999/02/22-rdf-syntax-ns#"
   xmlns:xml="http://www.w3.org/XML/1998/namespace"
   xmlns:dc="http://purl.org/dc/elements/1.1/"
   xmlns:xlink="http://www.w3.org/1999/xlink">
  <defs
     id="defs3">
    <marker
       style="overflow:visible;"
       id="Arrow1L"
       refX="0.0"
       refY="0.0"
       orient="auto"
       inkscape:stockid="Arrow1L">
      <path
         transform="scale(0.8)"
         style="fill-rule:evenodd;stroke:#000000;stroke-width:1.0pt;marker-start:none;"
         d="M 0.0,0.0 L 5.0,-5.0 L -12.5,0.0 L 5.0,5.0 L 0.0,0.0 z "
         id="path2423"
         sodipodi:nodetypes="ccccc" />
    </marker>
    <linearGradient
       id="linearGradient1594">
      <stop
         style="stop-color:#000;stop-opacity:1;"
         offset="0"
         id="stop1595" />
      <stop
         style="stop-color:#fff;stop-opacity:1;"
         offset="1"
         id="stop1596" />
    </linearGradient>
    <linearGradient
       id="linearGradient1939">
      <stop
         style="stop-color:#000;stop-opacity:1;"
         offset="0"
         id="stop1940" />
      <stop
         style="stop-color:#fff;stop-opacity:1;"
         offset="1"
         id="stop1941" />
    </linearGradient>
    <linearGradient
       id="linearGradient3228">
      <stop
         style="stop-color:#000;stop-opacity:1;"
         offset="0"
         id="stop3229" />
      <stop
         style="stop-color:#fff;stop-opacity:1;"
         offset="1"
         id="stop3230" />
    </linearGradient>
    <linearGradient
       id="linearGradient3225">
      <stop
         style="stop-color:#000;stop-opacity:1;"
         offset="0"
         id="stop3226" />
      <stop
         style="stop-color:#fff;stop-opacity:1;"
         offset="1"
         id="stop3227" />
    </linearGradient>
    <marker
       style="overflow:visible;"
       id="marker3223"
       refX="0.0"
       refY="0.0"
       orient="auto"
       inkscape:stockid="Arrow1L">
      <path
         transform="scale(0.8)"
         style="fill-rule:evenodd;stroke:#000000;stroke-width:1.0pt;marker-start:none;"
         d="M 0.0,0.0 L 5.0,-5.0 L -12.5,0.0 L 5.0,5.0 L 0.0,0.0 z "
         id="path3224"
         sodipodi:nodetypes="ccccc" />
    </marker>
  </defs>
  <sodipodi:namedview
     id="base"
     pagecolor="#ffffff"
     bordercolor="#666666"
     borderopacity="1.0"
     inkscape:pageopacity="0.0"
     inkscape:pageshadow="2"
     inkscape:zoom="1.0000000"
     inkscape:cx="577.62769"
     inkscape:cy="54.674530"
     inkscape:window-width="1024"
     inkscape:window-height="675"
     showgrid="true"
     inkscape:grid-bbox="true"
     inkscape:window-x="0"
     inkscape:window-y="22"
     showguides="true"
     inkscape:guide-bbox="true"
     inkscape:current-layer="svg1" />
  <metadata
     id="metadata4">
    <rdf:RDF
       id="RDF5">
      <cc:Work
         rdf:about=""
         id="Work6">
        <dc:format
           id="format7">image/svg+xml</dc:format>
        <dc:type
           id="type9"
           rdf:resource="http://purl.org/dc/dcmitype/StillImage" />
      </cc:Work>
    </rdf:RDF>
  </metadata>
  <path
     style="fill:#ffe5b9;fill-opacity:1.0000000;fill-rule:evenodd;stroke:#000000;stroke-width:1.2500000;stroke-linecap:butt;stroke-linejoin:miter;stroke-opacity:1.0000000;stroke-miterlimit:4.0000000;stroke-dasharray:none;"
     d="M 767.21086,280.08448 L 1020.0015,100.65613 L 1064.1957,124.52098 L 766.32697,289.80719 L 767.21086,280.08448 z "
     id="path2158" />
  <path
     style="fill:#ffe5b9;fill-opacity:1.0000000;fill-rule:evenodd;stroke:#000000;stroke-width:1.2500000;stroke-linecap:butt;stroke-linejoin:miter;stroke-miterlimit:4.0000000;stroke-opacity:1.0000000"
     d="M 680.73590,281.79841 C 686.05233,278.14535 682.66450,275.02163 682.66450,275.02163 C 679.80820,271.96449 677.74754,275.48548 677.74754,275.48548 C 675.88662,277.41188 677.61329,280.86739 677.61329,280.86739 L 680.73590,281.79841 z "
     id="path2025" />
  <path
     style="fill:none;fill-opacity:0.75000000;fill-rule:evenodd;stroke:#000000;stroke-width:1.2413205;stroke-linecap:butt;stroke-linejoin:miter;stroke-miterlimit:4.0000000;stroke-opacity:1.0000000"
     d="M 719.43730,305.58317 L 1061.7586,308.79729"
     id="path1314" />
  <path
     style="fill:none;fill-opacity:0.75000000;fill-rule:evenodd;stroke:#000000;stroke-width:1.2413205;stroke-linecap:butt;stroke-linejoin:miter;stroke-miterlimit:4.0000000;stroke-opacity:1.0000000"
     d="M 359.43730,305.58317 L 701.75856,308.79729"
     id="path2001" />
  <path
     style="fill:none;fill-opacity:0.75000000;fill-rule:evenodd;stroke:#000000;stroke-width:1.2500000;stroke-linecap:butt;stroke-linejoin:miter;stroke-opacity:1.0000000;stroke-miterlimit:4.0000000;stroke-dasharray:none;"
     d="M 0.53568696,304.51180 L 347.66083,307.72592"
     id="path2000" />
  <path
     style="fill:#ffeec4;fill-opacity:1.0000000;fill-rule:evenodd;stroke:#000000;stroke-width:1.2500000;stroke-linecap:butt;stroke-linejoin:miter;stroke-miterlimit:4.0000000;stroke-opacity:1.0000000"
     d="M 426.01644,274.44349 L 420.84643,296.00017 C 409.81289,299.54400 416.40107,307.18098 416.40107,307.18098 C 422.60354,311.43076 428.28238,307.73421 428.28238,307.73421 C 431.69373,300.86475 432.03813,273.75779 432.03813,273.75779 L 426.01644,274.44349 z "
     id="path1327" />
  <path
     style="fill:#ffeec4;fill-opacity:1.0000000;fill-rule:evenodd;stroke:#000000;stroke-width:1.2500000;stroke-linecap:butt;stroke-linejoin:miter;stroke-miterlimit:4.0000000;stroke-opacity:1.0000000"
     d="M 59.122224,272.06964 L 53.952214,293.62632 C 42.918674,297.17015 49.506854,304.80713 49.506854,304.80713 C 55.709324,309.05691 61.388164,305.36036 61.388164,305.36036 C 64.799514,298.49090 65.143914,271.38394 65.143914,271.38394 L 59.122224,272.06964 z "
     id="path3870" />
  <path
     style="fill:#ffeec4;fill-opacity:1.0000000;fill-rule:evenodd;stroke:#000000;stroke-width:1.2500000;stroke-linecap:butt;stroke-linejoin:miter;stroke-miterlimit:4.0000000;stroke-opacity:1.0000000"
     d="M 94.107334,274.34237 L 99.277344,295.89905 C 110.31088,299.44288 103.72270,307.07986 103.72270,307.07986 C 97.520234,311.32964 91.841394,307.63309 91.841394,307.63309 C 88.430044,300.76363 88.085644,273.65667 88.085644,273.65667 L 94.107334,274.34237 z "
     id="path3871" />
  <g
     id="g1329"
     transform="matrix(-1.000000,0.000000,0.000000,1.000000,1053.733,-309.4340)">
    <path
       style="fill:#0600ff;fill-opacity:1.0000000;fill-rule:evenodd;stroke:#000000;stroke-width:1.8464780;stroke-linecap:butt;stroke-linejoin:miter;stroke-miterlimit:4.0000000;stroke-opacity:1.0000000"
       d="M 62.946547,630.72755 L 59.428131,658.65274 C 69.367059,663.38557 83.297686,660.07106 83.297686,660.07106 C 93.709897,665.75045 109.31338,659.36190 109.31338,659.36190 L 106.48852,626.46801 L 62.946547,630.72755 z "
       id="path1330"
       transform="matrix(0.859835,0.000000,0.000000,0.532987,537.0548,277.0172)"
       sodipodi:nodetypes="cccccc" />
    <path
       style="fill:none;fill-opacity:0.75000000;fill-rule:evenodd;stroke:#000000;stroke-width:1.2500000;stroke-linecap:butt;stroke-linejoin:miter;stroke-miterlimit:4.0000000;stroke-opacity:1.0000000"
       d="M 605.49242,620.80796 L 604.35606,623.64887 L 611.36364,624.02766"
       id="path1331" />
    <path
       style="fill:none;fill-opacity:0.75000000;fill-rule:evenodd;stroke:#000000;stroke-width:1.2500000;stroke-linecap:butt;stroke-linejoin:miter;stroke-miterlimit:4.0000000;stroke-opacity:1.0000000"
       d="M 608.71212,621.18675 L 608.71212,629.14129"
       id="path1332" />
  </g>
  <g
     id="g3872"
     transform="matrix(-1.000000,0.000000,0.000000,1.000000,686.8388,-311.8078)">
    <path
       style="fill:#0600ff;fill-opacity:1.0000000;fill-rule:evenodd;stroke:#000000;stroke-width:1.8464780;stroke-linecap:butt;stroke-linejoin:miter;stroke-miterlimit:4.0000000;stroke-opacity:1.0000000"
       d="M 62.946547,630.72755 L 59.428131,658.65274 C 69.367059,663.38557 83.297686,660.07106 83.297686,660.07106 C 93.709897,665.75045 109.31338,659.36190 109.31338,659.36190 L 106.48852,626.46801 L 62.946547,630.72755 z "
       id="path3873"
       transform="matrix(0.859835,0.000000,0.000000,0.532987,537.0548,277.0172)"
       sodipodi:nodetypes="cccccc" />
    <path
       style="fill:none;fill-opacity:0.75000000;fill-rule:evenodd;stroke:#000000;stroke-width:1.2500000;stroke-linecap:butt;stroke-linejoin:miter;stroke-miterlimit:4.0000000;stroke-opacity:1.0000000"
       d="M 605.49242,620.80796 L 604.35606,623.64887 L 611.36364,624.02766"
       id="path3874" />
    <path
       style="fill:none;fill-opacity:0.75000000;fill-rule:evenodd;stroke:#000000;stroke-width:1.2500000;stroke-linecap:butt;stroke-linejoin:miter;stroke-miterlimit:4.0000000;stroke-opacity:1.0000000"
       d="M 608.71212,621.18675 L 608.71212,629.14129"
       id="path3875" />
  </g>
  <path
     style="fill:#ffeec4;fill-opacity:1.0000000;fill-rule:evenodd;stroke:#000000;stroke-width:1.2500000;stroke-linecap:butt;stroke-linejoin:miter;stroke-miterlimit:4.0000000;stroke-opacity:1.0000000"
     d="M 442.59177,235.53098 L 444.01162,251.62258 L 453.00398,255.88212 L 441.17192,271.02715 L 429.33987,254.93556 L 439.27879,250.67602 L 437.85895,237.42411 L 442.59177,235.53098 z "
     id="path1333" />
  <path
     style="fill:#ffeec4;fill-opacity:1.0000000;fill-rule:evenodd;stroke:#000000;stroke-width:1.2500000;stroke-linecap:butt;stroke-linejoin:miter;stroke-miterlimit:4.0000000;stroke-opacity:1.0000000"
     d="M 75.697554,233.15713 L 77.117404,249.24873 L 86.109764,253.50827 L 74.277704,268.65330 L 62.445654,252.56171 L 72.384574,248.30217 L 70.964734,235.05026 L 75.697554,233.15713 z "
     id="path3876" />
  <path
     style="fill:#ffe5b9;fill-opacity:1.0000000;fill-rule:evenodd;stroke:#000000;stroke-width:1.0260273;stroke-linecap:butt;stroke-linejoin:miter;stroke-miterlimit:4.0000000;stroke-opacity:1.0000000"
     d="M 750.42061,269.58899 L 749.25511,282.79733 L 741.87401,286.29365 L 751.58601,298.72502 L 761.29801,285.51669 L 753.13991,282.02037 L 754.30541,271.14291 L 750.42061,269.58899 z "
     id="path2749" />
  <path
     style="fill:#ffe5b9;fill-opacity:1.0000000;fill-rule:evenodd;stroke:#000000;stroke-width:1.2500000;stroke-linecap:butt;stroke-linejoin:miter;stroke-miterlimit:4.0000000;stroke-opacity:1.0000000"
     d="M 632.45081,266.86066 L 631.03096,282.95226 L 622.03860,287.21180 L 633.87066,302.35683 L 645.70271,286.26524 L 635.76379,282.00570 L 637.18363,268.75379 L 632.45081,266.86066 z "
     id="path2002" />
  <path
     style="fill:#ffe5b9;fill-opacity:1.0000000;fill-rule:evenodd;stroke:#000000;stroke-width:1.2500000;stroke-linecap:butt;stroke-linejoin:miter;stroke-miterlimit:4.0000000;stroke-opacity:1.0000000"
     d="M 257.46994,267.93203 L 256.05009,284.02363 L 247.05773,288.28317 L 258.88979,303.42820 L 270.72184,287.33661 L 260.78292,283.07707 L 262.20276,269.82516 L 257.46994,267.93203 z "
     id="path2549" />
  <path
     sodipodi:type="arc"
     style="fill:#ffe5b9;fill-opacity:1.0000000;stroke:#000000;stroke-width:1.2500000;stroke-miterlimit:4.0000000;stroke-opacity:1.0000000"
     id="path2750"
     sodipodi:cx="54.664104"
     sodipodi:cy="525.42224"
     sodipodi:rx="6.8625937"
     sodipodi:ry="6.8625937"
     d="M 61.526698 525.42224 A 6.8625937 6.8625937 0 1 1  47.801511,525.42224 A 6.8625937 6.8625937 0 1 1  61.526698 525.42224 z"
     transform="matrix(0.846869,0.000000,0.000000,0.588337,680.7881,-60.69538)" />
  <path
     sodipodi:type="arc"
     style="fill:#ffe5b9;fill-opacity:1.0000000;stroke:#000000;stroke-width:1.2500000;stroke-miterlimit:4.0000000;stroke-opacity:1.0000000"
     id="path2554"
     sodipodi:cx="54.664104"
     sodipodi:cy="525.42224"
     sodipodi:rx="6.8625937"
     sodipodi:ry="6.8625937"
     d="M 61.526698 525.42224 A 6.8625937 6.8625937 0 1 1  47.801511,525.42224 A 6.8625937 6.8625937 0 1 1  61.526698 525.42224 z"
     transform="matrix(1.031733,0.000000,0.000000,0.716766,168.8880,-136.5931)" />
  <path
     sodipodi:type="arc"
     style="fill:#ffe5b9;fill-opacity:1.0000000;stroke:#000000;stroke-width:1.2500000;stroke-miterlimit:4.0000000;stroke-opacity:1.0000000"
     id="path2751"
     sodipodi:cx="129.67935"
     sodipodi:cy="524.94897"
     sodipodi:rx="6.6259522"
     sodipodi:ry="5.4427466"
     d="M 136.30530 524.94897 A 6.6259522 5.4427466 0 1 1  123.05340,524.94897 A 6.6259522 5.4427466 0 1 1  136.30530 524.94897 z"
     transform="matrix(0.820822,0.000000,0.000000,0.820822,682.4061,-183.4334)" />
  <path
     sodipodi:type="arc"
     style="fill:#ffe5b9;fill-opacity:1.0000000;stroke:#000000;stroke-width:1.2500000;stroke-miterlimit:4.0000000;stroke-opacity:1.0000000"
     id="path2555"
     sodipodi:cx="129.67935"
     sodipodi:cy="524.94897"
     sodipodi:rx="6.6259522"
     sodipodi:ry="5.4427466"
     d="M 136.30530 524.94897 A 6.6259522 5.4427466 0 1 1  123.05340,524.94897 A 6.6259522 5.4427466 0 1 1  136.30530 524.94897 z"
     transform="translate(170.8593,-286.1237)" />
  <path
     style="fill:none;fill-opacity:0.75000000;fill-rule:evenodd;stroke:#000000;stroke-width:5.0000000;stroke-linecap:butt;stroke-linejoin:miter;stroke-opacity:1.0000000;stroke-miterlimit:4.0000000;stroke-dasharray:none;"
     d="M 347.58644,-193.22543 L 347.58644,444.56985"
     id="path908" />
  <path
     style="fill:none;fill-opacity:0.75000000;fill-rule:evenodd;stroke:#000000;stroke-width:5.0000000;stroke-linecap:butt;stroke-linejoin:miter;stroke-miterlimit:4.0000000;stroke-opacity:1.0000000;"
     d="M 361.42995,-192.27887 L 361.42995,445.51641"
     id="path1746" />
  <path
     style="fill:#000000;fill-opacity:0.0000000;fill-rule:evenodd;stroke:#000000;stroke-width:5.0000000;stroke-linecap:butt;stroke-linejoin:miter;stroke-miterlimit:4.0000000;stroke-opacity:1.0000000;"
     d="M 702.54817,-195.11856 L 702.54817,442.67672"
     id="path1747" />
  <path
     style="fill:#000000;fill-opacity:0.0000000;fill-rule:evenodd;stroke:#000000;stroke-width:5.0000000;stroke-linecap:butt;stroke-linejoin:miter;stroke-miterlimit:4.0000000;stroke-opacity:1.0000000;"
     d="M 716.39168,-194.17200 L 716.39168,443.62328"
     id="path1748" />
  <path
     sodipodi:type="arc"
     style="fill:#ffe5b9;fill-opacity:1.0000000;stroke:#000000;stroke-width:1.8343014;stroke-miterlimit:4.0000000;stroke-opacity:1.0000000"
     id="path2616"
     sodipodi:cx="99.152641"
     sodipodi:cy="518.55963"
     sodipodi:rx="51.824413"
     sodipodi:ry="51.587772"
     d="M 150.97705 518.55963 A 51.824413 51.587772 0 1 1  47.328228,518.55963 A 51.824413 51.587772 0 1 1  150.97705 518.55963 z"
     transform="matrix(0.669126,0.000000,0.000000,0.694018,555.1731,-122.3156)" />
  <path
     sodipodi:type="arc"
     style="fill:#ffe5b9;fill-opacity:1.0000000;stroke:#000000;stroke-width:1.8343014;stroke-miterlimit:4.0000000;stroke-opacity:1.0000000"
     id="path2754"
     sodipodi:cx="99.152641"
     sodipodi:cy="518.55963"
     sodipodi:rx="51.824413"
     sodipodi:ry="51.587772"
     d="M 150.97705 518.55963 A 51.824413 51.587772 0 1 1  47.328228,518.55963 A 51.824413 51.587772 0 1 1  150.97705 518.55963 z"
     transform="matrix(0.549233,0.000000,0.000000,0.569665,703.6361,-49.59943)" />
  <path
     sodipodi:type="arc"
     style="fill:#ffe5b9;fill-opacity:1.0000000;stroke:#000000;stroke-width:1.8343014;stroke-miterlimit:4.0000000;stroke-opacity:1.0000000"
     id="path1280"
     sodipodi:cx="99.152641"
     sodipodi:cy="518.55963"
     sodipodi:rx="51.824413"
     sodipodi:ry="51.587772"
     d="M 150.97705 518.55963 A 51.824413 51.587772 0 1 1  47.328228,518.55963 A 51.824413 51.587772 0 1 1  150.97705 518.55963 z"
     transform="matrix(0.669126,0.000000,0.000000,0.694018,196.7233,-123.0750)" />
  <path
     sodipodi:type="arc"
     style="fill:#ffffff;fill-opacity:1.0000000;stroke:#000000;stroke-width:1.2500000;stroke-miterlimit:4.0000000;stroke-opacity:1.0000000"
     id="path2755"
     sodipodi:cx="79.984711"
     sodipodi:cy="504.59781"
     sodipodi:rx="17.038162"
     sodipodi:ry="17.274805"
     d="M 97.022873 504.59781 A 17.038162 17.274805 0 1 1  62.946548,504.59781 A 17.038162 17.274805 0 1 1  97.022873 504.59781 z"
     transform="matrix(0.820822,0.000000,0.000000,0.820822,686.2831,-170.8334)" />
  <path
     sodipodi:type="arc"
     style="fill:#ffffff;fill-opacity:1.0000000;stroke:#000000;stroke-width:1.2500000;stroke-miterlimit:4.0000000;stroke-opacity:1.0000000"
     id="path2552"
     sodipodi:cx="79.984711"
     sodipodi:cy="504.59781"
     sodipodi:rx="17.038162"
     sodipodi:ry="17.274805"
     d="M 97.022873 504.59781 A 17.038162 17.274805 0 1 1  62.946548,504.59781 A 17.038162 17.274805 0 1 1  97.022873 504.59781 z"
     transform="translate(163.7584,-270.5054)" />
  <path
     sodipodi:type="arc"
     style="fill:#ffffff;fill-opacity:1.0000000;stroke:#000000;stroke-width:1.2500000;stroke-miterlimit:4.0000000;stroke-opacity:1.0000000"
     id="path2617"
     sodipodi:cx="109.56486"
     sodipodi:cy="504.59781"
     sodipodi:rx="12.541981"
     sodipodi:ry="13.488545"
     d="M 122.10684 504.59781 A 12.541981 13.488545 0 1 1  97.022877,504.59781 A 12.541981 13.488545 0 1 1  122.10684 504.59781 z"
     transform="translate(490.3900,-271.8297)" />
  <path
     sodipodi:type="arc"
     style="fill:#ffffff;fill-opacity:1.0000000;stroke:#000000;stroke-width:1.2500000;stroke-miterlimit:4.0000000;stroke-opacity:1.0000000"
     id="path2756"
     sodipodi:cx="109.56486"
     sodipodi:cy="504.59781"
     sodipodi:rx="12.541981"
     sodipodi:ry="13.488545"
     d="M 122.10684 504.59781 A 12.541981 13.488545 0 1 1  97.022877,504.59781 A 12.541981 13.488545 0 1 1  122.10684 504.59781 z"
     transform="matrix(0.820822,0.000000,0.000000,0.820822,686.2831,-170.0564)" />
  <path
     sodipodi:type="arc"
     style="fill:#ffffff;fill-opacity:1.0000000;stroke:#000000;stroke-width:1.2500000;stroke-miterlimit:4.0000000;stroke-opacity:1.0000000"
     id="path2553"
     sodipodi:cx="109.56486"
     sodipodi:cy="504.59781"
     sodipodi:rx="12.541981"
     sodipodi:ry="13.488545"
     d="M 122.10684 504.59781 A 12.541981 13.488545 0 1 1  97.022877,504.59781 A 12.541981 13.488545 0 1 1  122.10684 504.59781 z"
     transform="translate(163.7584,-269.5588)" />
  <path
     style="fill:#000000;fill-opacity:1.0000000;fill-rule:nonzero;stroke:none;stroke-width:1.0000000pt;stroke-linecap:butt;stroke-linejoin:miter;stroke-opacity:1.0000000"
     id="path2757"
     d="M 750.01401,221.36042 C 741.62161,222.42193 761.70641,211.57378 764.47411,211.11154 C 761.90721,214.60802 758.87571,217.77201 755.66861,220.69244 C 763.98471,215.48830 774.66451,210.09398 760.70991,221.86712 C 762.38141,222.75336 773.11981,214.95827 778.40581,216.76162 L 778.00541,217.79636 C 773.72661,217.29844 758.84421,225.80685 759.99531,221.01836 C 773.26011,209.87270 764.84631,217.84767 756.16691,221.68374 C 752.41521,220.54383 761.56581,211.93818 764.38401,212.21739 C 762.05341,212.91256 744.25611,223.26186 749.60191,220.33027 L 750.01401,221.36042 z " />
  <path
     style="fill:#000000;fill-opacity:1.0000000;fill-rule:nonzero;stroke:none;stroke-width:1.0000000pt;stroke-linecap:butt;stroke-linejoin:miter;stroke-opacity:1.0000000"
     id="path2566"
     d="M 270.00947,205.26887 C 280.23374,206.56210 255.76468,193.34589 252.39281,192.78275 C 255.52005,197.04248 259.21322,200.89714 263.12039,204.45507 C 252.98900,198.11491 239.97795,191.54306 256.97875,205.88617 C 254.94236,206.96587 241.85977,197.46919 235.41996,199.66619 L 235.90775,200.92680 C 241.12056,200.32019 259.25165,210.68592 257.84931,204.85214 C 241.68889,191.27348 251.93932,200.98932 262.51333,205.66277 C 267.08406,204.27402 255.93594,193.78984 252.50254,194.12999 C 255.34189,194.97692 277.02417,207.58538 270.51147,204.01385 L 270.00947,205.26887 z " />
  <path
     style="fill:#ffffff;fill-opacity:1.0000000;fill-rule:evenodd;stroke:#000000;stroke-width:1.2500000;stroke-linecap:butt;stroke-linejoin:miter;stroke-miterlimit:4.0000000;stroke-opacity:1.0000000"
     d="M 418.90501,324.41762 C 391.45458,325.83746 390.50808,338.14280 390.50808,338.14280 C 390.50808,348.08173 443.51569,342.87563 443.51569,342.87563 L 443.51569,326.78403 L 418.90501,324.41762 z "
     id="path1334"
     sodipodi:nodetypes="ccccc" />
  <path
     style="fill:#ffffff;fill-opacity:1.0000000;fill-rule:evenodd;stroke:#000000;stroke-width:1.2500000;stroke-linecap:butt;stroke-linejoin:miter;stroke-miterlimit:4.0000000;stroke-opacity:1.0000000"
     d="M 52.010794,322.04377 C 24.560364,323.46361 23.613864,335.76895 23.613864,335.76895 C 23.613864,345.70788 76.621474,340.50178 76.621474,340.50178 L 76.621474,324.41018 L 52.010794,322.04377 z "
     id="path3877"
     sodipodi:nodetypes="ccccc" />
  <g
     id="g2758"
     transform="matrix(-0.820822,0.000000,0.000000,0.820822,819.3551,-184.5703)">
    <path
       style="fill:#ffffff;fill-opacity:1.0000000;fill-rule:evenodd;stroke:#000000;stroke-width:1.2500000;stroke-linecap:butt;stroke-linejoin:miter;stroke-miterlimit:4.0000000;stroke-opacity:1.0000000"
       d="M 61.053417,633.09397 C 33.603044,634.51381 32.656479,646.81915 32.656479,646.81915 C 32.656479,656.75808 85.664097,651.55198 85.664097,651.55198 L 85.664097,635.46038 L 61.053417,633.09397 z "
       id="path2759"
       sodipodi:nodetypes="ccccc" />
    <path
       style="fill:#000000;fill-opacity:1.0000000;fill-rule:nonzero;stroke:none;stroke-width:1.0000000pt;stroke-linecap:butt;stroke-linejoin:miter;stroke-opacity:1.0000000"
       id="path2760"
       d="M 47.091589,633.83797 C 56.984628,634.61994 61.315987,641.70290 57.807393,650.68263 L 56.549444,650.18802 C 59.749959,642.10249 56.066216,635.95637 47.091589,635.18966 L 47.091589,633.83797 z " />
    <path
       style="fill:#000000;fill-opacity:1.0000000;fill-rule:nonzero;stroke:none;stroke-width:1.0000000pt;stroke-linecap:butt;stroke-linejoin:miter;stroke-opacity:1.0000000"
       id="path2761"
       d="M 55.137389,632.89140 C 66.681678,632.89279 70.902805,642.01180 66.474303,652.01826 L 65.238683,651.47024 C 69.296349,642.34188 65.745749,634.24040 55.137389,634.24310 L 55.137389,632.89140 z " />
  </g>
  <path
     style="fill:#ffffff;fill-opacity:1.0000000;fill-rule:evenodd;stroke:#000000;stroke-width:1.2500000;stroke-linecap:butt;stroke-linejoin:miter;stroke-miterlimit:4.0000000;stroke-opacity:1.0000000"
     d="M 468.14906,324.41762 C 495.59940,325.83746 496.54600,338.14280 496.54600,338.14280 C 496.54600,348.08173 443.53839,342.87563 443.53839,342.87563 L 443.53839,326.78403 L 468.14906,324.41762 z "
     id="path1335"
     sodipodi:nodetypes="ccccc" />
  <path
     style="fill:#ffffff;fill-opacity:1.0000000;fill-rule:evenodd;stroke:#000000;stroke-width:1.2500000;stroke-linecap:butt;stroke-linejoin:miter;stroke-miterlimit:4.0000000;stroke-opacity:1.0000000"
     d="M 101.25485,322.04377 C 128.70519,323.46361 129.65179,335.76895 129.65179,335.76895 C 129.65179,345.70788 76.644174,340.50178 76.644174,340.50178 L 76.644174,324.41018 L 101.25485,322.04377 z "
     id="path3878"
     sodipodi:nodetypes="ccccc" />
  <g
     id="g2762"
     transform="matrix(0.820822,0.000000,0.000000,0.820822,678.7071,-184.5703)">
    <path
       style="fill:#ffffff;fill-opacity:1.0000000;fill-rule:evenodd;stroke:#000000;stroke-width:1.2500000;stroke-linecap:butt;stroke-linejoin:miter;stroke-miterlimit:4.0000000;stroke-opacity:1.0000000"
       d="M 61.053417,633.09397 C 33.603044,634.51381 32.656479,646.81915 32.656479,646.81915 C 32.656479,656.75808 85.664097,651.55198 85.664097,651.55198 L 85.664097,635.46038 L 61.053417,633.09397 z "
       id="path2763"
       sodipodi:nodetypes="ccccc" />
    <path
       style="fill:#000000;fill-opacity:1.0000000;fill-rule:nonzero;stroke:none;stroke-width:1.0000000pt;stroke-linecap:butt;stroke-linejoin:miter;stroke-opacity:1.0000000"
       id="path2764"
       d="M 47.091589,633.83797 C 56.984628,634.61994 61.315987,641.70290 57.807393,650.68263 L 56.549444,650.18802 C 59.749959,642.10249 56.066216,635.95637 47.091589,635.18966 L 47.091589,633.83797 z " />
    <path
       style="fill:#000000;fill-opacity:1.0000000;fill-rule:nonzero;stroke:none;stroke-width:1.0000000pt;stroke-linecap:butt;stroke-linejoin:miter;stroke-opacity:1.0000000"
       id="path2765"
       d="M 55.137389,632.89140 C 66.681678,632.89279 70.902805,642.01180 66.474303,652.01826 L 65.238683,651.47024 C 69.296349,642.34188 65.745749,634.24040 55.137389,634.24310 L 55.137389,632.89140 z " />
  </g>
  <g
     id="g2766"
     transform="matrix(0.820822,0.000000,0.000000,0.820822,679.3291,-185.1922)">
    <path
       style="fill:#ffffff;fill-opacity:1.0000000;fill-rule:evenodd;stroke:#000000;stroke-width:1.4131669;stroke-linecap:butt;stroke-linejoin:miter;stroke-miterlimit:4.0000000;stroke-opacity:1.0000000"
       d="M 62.946547,630.72755 L 53.480901,657.23136 C 63.419829,661.96419 83.297686,660.07106 83.297686,660.07106 C 93.709897,665.75045 115.48088,658.65121 115.48088,658.65121 L 106.48852,626.46801 L 62.946547,630.72755 z "
       id="path2767"
       transform="matrix(0.859835,0.000000,0.000000,0.909951,14.03942,35.05921)" />
    <path
       style="fill:none;fill-opacity:0.75000000;fill-rule:evenodd;stroke:#000000;stroke-width:1.4131669;stroke-linecap:butt;stroke-linejoin:miter;stroke-miterlimit:4.0000000;stroke-opacity:1.0000000"
       d="M 79.038145,636.40694 L 76.198451,646.34587 L 92.290050,644.92602"
       id="path2768"
       transform="matrix(0.859835,0.000000,0.000000,0.909951,14.03942,35.05921)" />
    <path
       style="fill:none;fill-opacity:0.75000000;fill-rule:evenodd;stroke:#000000;stroke-width:1.4131669;stroke-linecap:butt;stroke-linejoin:miter;stroke-miterlimit:4.0000000;stroke-opacity:1.0000000"
       d="M 85.664097,635.93366 L 83.297686,659.59778"
       id="path2769"
       transform="matrix(0.859835,0.000000,0.000000,0.909951,14.03942,35.05921)" />
  </g>
  <path
     style="fill:#ff9f00;fill-opacity:1.0000000;fill-rule:evenodd;stroke:#000000;stroke-width:1.0260273;stroke-linecap:butt;stroke-linejoin:miter;stroke-miterlimit:4.0000000;stroke-opacity:1.0000000"
     d="M 743.70191,283.32647 L 750.60911,287.61414 L 761.46311,283.59444 L 766.65931,279.62785 L 766.18341,292.17409 L 761.36461,290.29394 L 768.04131,316.28798 C 757.51621,320.84363 734.16351,316.55596 734.16351,316.55596 L 742.05741,290.82990 L 741.58081,291.99601 L 739.54241,281.94977 L 743.70191,283.32647 z "
     id="path2770"
     sodipodi:nodetypes="cccccccccccc" />
  <path
     style="fill:#ff9f00;fill-opacity:1.0000000;fill-rule:evenodd;stroke:#000000;stroke-width:1.2500000;stroke-linecap:butt;stroke-linejoin:miter;stroke-miterlimit:4.0000000;stroke-opacity:1.0000000"
     d="M 624.26558,283.59691 L 632.68046,288.82054 L 645.90385,283.92338 L 658.32582,301.55316 L 646.70527,305.79737 L 643.49960,292.08532 L 653.91802,323.75363 C 641.09534,329.30374 612.64502,324.08010 612.64502,324.08010 L 622.26203,292.73827 L 618.25494,307.10328 L 606.63439,302.85907 L 624.26558,283.59691 z "
     id="path2009"
     sodipodi:nodetypes="cccccccccccc" />
  <path
     style="fill:#ff9f00;fill-opacity:1.0000000;fill-rule:evenodd;stroke:#000000;stroke-width:1.2500000;stroke-linecap:butt;stroke-linejoin:miter;stroke-miterlimit:4.0000000;stroke-opacity:1.0000000"
     d="M 249.28471,284.66828 L 257.69959,289.89191 L 270.92298,284.99475 L 283.34495,302.62453 L 271.72440,306.86874 L 268.51873,293.15669 L 278.93715,324.82500 C 266.11447,330.37511 237.66415,325.15147 237.66415,325.15147 L 247.28116,293.80964 L 243.27407,308.17465 L 231.65352,303.93044 L 249.28471,284.66828 z "
     id="path2551"
     sodipodi:nodetypes="cccccccccccc" />
  <g
     id="g2771"
     transform="matrix(1.297031,0.000000,0.000000,1.297031,640.2299,-471.7657)">
    <path
       style="fill:#0f00ff;fill-opacity:1.0000000;fill-rule:nonzero;stroke:none;stroke-width:1.0000000pt;stroke-linecap:butt;stroke-linejoin:miter;stroke-opacity:1.0000000"
       id="path2772"
       d="M 79.568221,591.68176 C 82.838639,586.37899 86.606381,599.82234 86.896294,602.80548 L 84.653752,603.02047 C 84.358094,599.88873 83.324998,597.09550 81.774796,594.35499 C 81.221941,593.37763 79.151532,592.46562 79.852664,591.58853 C 81.628227,589.36736 81.799378,590.49833 81.821045,591.68176 L 79.568221,591.68176 z " />
    <path
       style="fill:#0f00ff;fill-opacity:1.0000000;fill-rule:nonzero;stroke:none;stroke-width:1.0000000pt;stroke-linecap:butt;stroke-linejoin:miter;stroke-opacity:1.0000000"
       id="path2773"
       d="M 78.527773,594.98355 C 80.536194,593.14428 90.732009,584.28259 91.733808,589.57677 L 89.659031,588.69898 C 90.669730,590.68599 89.627535,589.42328 90.859240,589.84360 C 91.166691,589.94852 79.040717,595.76383 80.258440,596.42578 L 78.527773,594.98355 z " />
    <path
       style="fill:#0f00ff;fill-opacity:1.0000000;fill-rule:nonzero;stroke:none;stroke-width:1.0000000pt;stroke-linecap:butt;stroke-linejoin:miter;stroke-opacity:1.0000000"
       id="path2774"
       d="M 80.158240,596.56287 C 83.323198,594.74075 87.876710,593.03000 91.562656,594.32379 L 90.665822,596.39041 C 87.543144,596.06417 84.193404,596.57796 81.467667,598.39607 L 80.158240,596.56287 z " />
  </g>
  <g
     id="g2010"
     transform="matrix(1.580161,0.000000,0.000000,1.580161,497.8259,-633.0214)">
    <path
       style="fill:#0f00ff;fill-opacity:1.0000000;fill-rule:nonzero;stroke:none;stroke-width:1.0000000pt;stroke-linecap:butt;stroke-linejoin:miter;stroke-opacity:1.0000000"
       id="path2011"
       d="M 79.568221,591.68176 C 82.838639,586.37899 86.606381,599.82234 86.896294,602.80548 L 84.653752,603.02047 C 84.358094,599.88873 83.324998,597.09550 81.774796,594.35499 C 81.221941,593.37763 79.151532,592.46562 79.852664,591.58853 C 81.628227,589.36736 81.799378,590.49833 81.821045,591.68176 L 79.568221,591.68176 z " />
    <path
       style="fill:#0f00ff;fill-opacity:1.0000000;fill-rule:nonzero;stroke:none;stroke-width:1.0000000pt;stroke-linecap:butt;stroke-linejoin:miter;stroke-opacity:1.0000000"
       id="path2012"
       d="M 78.527773,594.98355 C 80.536194,593.14428 90.732009,584.28259 91.733808,589.57677 L 89.659031,588.69898 C 90.669730,590.68599 89.627535,589.42328 90.859240,589.84360 C 91.166691,589.94852 79.040717,595.76383 80.258440,596.42578 L 78.527773,594.98355 z " />
    <path
       style="fill:#0f00ff;fill-opacity:1.0000000;fill-rule:nonzero;stroke:none;stroke-width:1.0000000pt;stroke-linecap:butt;stroke-linejoin:miter;stroke-opacity:1.0000000"
       id="path2013"
       d="M 80.158240,596.56287 C 83.323198,594.74075 87.876710,593.03000 91.562656,594.32379 L 90.665822,596.39041 C 87.543144,596.06417 84.193404,596.57796 81.467667,598.39607 L 80.158240,596.56287 z " />
  </g>
  <g
     id="g2604"
     transform="matrix(1.580161,0.000000,0.000000,1.580161,122.8450,-631.9500)">
    <path
       style="fill:#0f00ff;fill-opacity:1.0000000;fill-rule:nonzero;stroke:none;stroke-width:1.0000000pt;stroke-linecap:butt;stroke-linejoin:miter;stroke-opacity:1.0000000"
       id="path2601"
       d="M 79.568221,591.68176 C 82.838639,586.37899 86.606381,599.82234 86.896294,602.80548 L 84.653752,603.02047 C 84.358094,599.88873 83.324998,597.09550 81.774796,594.35499 C 81.221941,593.37763 79.151532,592.46562 79.852664,591.58853 C 81.628227,589.36736 81.799378,590.49833 81.821045,591.68176 L 79.568221,591.68176 z " />
    <path
       style="fill:#0f00ff;fill-opacity:1.0000000;fill-rule:nonzero;stroke:none;stroke-width:1.0000000pt;stroke-linecap:butt;stroke-linejoin:miter;stroke-opacity:1.0000000"
       id="path2602"
       d="M 78.527773,594.98355 C 80.536194,593.14428 90.732009,584.28259 91.733808,589.57677 L 89.659031,588.69898 C 90.669730,590.68599 89.627535,589.42328 90.859240,589.84360 C 91.166691,589.94852 79.040717,595.76383 80.258440,596.42578 L 78.527773,594.98355 z " />
    <path
       style="fill:#0f00ff;fill-opacity:1.0000000;fill-rule:nonzero;stroke:none;stroke-width:1.0000000pt;stroke-linecap:butt;stroke-linejoin:miter;stroke-opacity:1.0000000"
       id="path2603"
       d="M 80.158240,596.56287 C 83.323198,594.74075 87.876710,593.03000 91.562656,594.32379 L 90.665822,596.39041 C 87.543144,596.06417 84.193404,596.57796 81.467667,598.39607 L 80.158240,596.56287 z " />
  </g>
  <path
     sodipodi:type="arc"
     style="fill:#ffffff;fill-opacity:1.0000000;stroke:#000000;stroke-width:4.2177482;stroke-miterlimit:4.0000000;stroke-opacity:1.0000000"
     id="path2775"
     sodipodi:cx="74.964096"
     sodipodi:cy="525.00787"
     sodipodi:rx="4.0159335"
     sodipodi:ry="4.0159335"
     d="M 78.980030 525.00787 A 4.0159335 4.0159335 0 1 1  70.948163,525.00787 A 4.0159335 4.0159335 0 1 1  78.980030 525.00787 z"
     transform="matrix(0.729793,0.000000,0.000000,0.729793,705.5859,-142.8634)" />
  <path
     sodipodi:type="arc"
     style="fill:#ffffff;fill-opacity:1.0000000;stroke:#000000;stroke-width:4.2177482;stroke-miterlimit:4.0000000;stroke-opacity:1.0000000"
     id="path2609"
     sodipodi:cx="74.964096"
     sodipodi:cy="525.00787"
     sodipodi:rx="4.0159335"
     sodipodi:ry="4.0159335"
     d="M 78.980030 525.00787 A 4.0159335 4.0159335 0 1 1  70.948163,525.00787 A 4.0159335 4.0159335 0 1 1  78.980030 525.00787 z"
     transform="matrix(0.889100,0.000000,0.000000,0.889100,169.1099,-231.0240)" />
  <path
     sodipodi:type="arc"
     style="fill:#ffffff;fill-opacity:1.0000000;stroke:#000000;stroke-width:4.2177482;stroke-miterlimit:4.0000000;stroke-opacity:1.0000000"
     id="path2618"
     sodipodi:cx="74.964096"
     sodipodi:cy="525.00787"
     sodipodi:rx="4.0159335"
     sodipodi:ry="4.0159335"
     d="M 78.980030 525.00787 A 4.0159335 4.0159335 0 1 1  70.948163,525.00787 A 4.0159335 4.0159335 0 1 1  78.980030 525.00787 z"
     transform="matrix(0.889100,0.000000,0.000000,0.889100,525.3907,-233.1605)" />
  <path
     sodipodi:type="arc"
     style="fill:#ffffff;fill-opacity:1.0000000;stroke:#000000;stroke-width:4.2177482;stroke-miterlimit:4.0000000;stroke-opacity:1.0000000"
     id="path2776"
     sodipodi:cx="74.964096"
     sodipodi:cy="525.00787"
     sodipodi:rx="4.0159335"
     sodipodi:ry="4.0159335"
     d="M 78.980030 525.00787 A 4.0159335 4.0159335 0 1 1  70.948163,525.00787 A 4.0159335 4.0159335 0 1 1  78.980030 525.00787 z"
     transform="matrix(0.729793,0.000000,0.000000,0.729793,726.2715,-142.1468)" />
  <path
     style="fill:#ffe5b9;fill-opacity:1.0000000;fill-rule:evenodd;stroke:#000000;stroke-width:1.2500000;stroke-linecap:butt;stroke-linejoin:miter;stroke-opacity:1.0000000;stroke-miterlimit:4.0000000;stroke-dasharray:none;"
     d="M 750.77665,145.68031 L 736.25000,281.83069 C 735.00000,287.45569 740.62500,292.45569 740.62500,292.45569 C 743.75000,290.58069 776.33121,171.78627 777.21510,173.55404 L 750.77665,145.68031 z "
     id="path2157"
     sodipodi:nodetypes="ccccc" />
  <path
     sodipodi:type="arc"
     style="fill:#ffffff;fill-opacity:1.0000000;stroke:#000000;stroke-width:4.2177482;stroke-miterlimit:4.0000000;stroke-opacity:1.0000000"
     id="path2608"
     sodipodi:cx="74.964096"
     sodipodi:cy="525.00787"
     sodipodi:rx="4.0159335"
     sodipodi:ry="4.0159335"
     d="M 78.980030 525.00787 A 4.0159335 4.0159335 0 1 1  70.948163,525.00787 A 4.0159335 4.0159335 0 1 1  78.980030 525.00787 z"
     transform="matrix(0.889100,0.000000,0.000000,0.889100,202.8069,-230.6947)" />
  <path
     style="fill:none;fill-opacity:0.75000000;fill-rule:evenodd;stroke:#000000;stroke-width:1.2500000;stroke-linecap:butt;stroke-linejoin:miter;stroke-miterlimit:4.0000000;stroke-opacity:1.0000000"
     d="M 630.82421,230.33008 C 638.02118,219.34523 643.70299,227.67857 643.70299,227.67857 C 645.97572,232.60281 641.05148,236.01190 641.05148,236.01190 C 638.77875,237.52705 636.50603,237.14826 636.50603,237.14826"
     id="path2619"
     sodipodi:nodetypes="cccc" />
  <path
     style="fill:#000000;fill-opacity:1.0000000;fill-rule:nonzero;stroke:none;stroke-width:1.0000000pt;stroke-linecap:butt;stroke-linejoin:miter;stroke-opacity:1.0000000"
     id="path2665"
     d="M 606.87863,212.00204 C 601.70150,206.76136 596.57203,202.25273 605.82769,208.65608 C 611.03453,214.76729 599.74018,192.93107 608.90607,199.32021 C 614.85204,213.12747 610.75558,189.40356 617.45035,202.99415 C 618.47870,205.58891 618.01970,204.37772 618.84202,206.62212 L 616.92650,207.32352 C 615.05087,202.40131 617.99740,209.94838 615.61968,203.89403 C 610.85147,194.17203 616.43990,212.46523 607.48125,200.78002 C 607.09281,196.42286 612.55721,215.45302 604.80391,210.42046 C 594.63648,204.41775 603.01190,201.39173 607.52370,210.06682 L 606.87863,212.00204 z " />
  <path
     sodipodi:type="arc"
     style="fill:#ffeec4;fill-opacity:1.0000000;stroke:#000000;stroke-width:1.2500000;stroke-miterlimit:4.0000000;stroke-opacity:1.0000000"
     id="path1336"
     sodipodi:cx="614.01514"
     sodipodi:cy="503.95190"
     sodipodi:rx="29.545454"
     sodipodi:ry="40.530304"
     d="M 643.56059 503.95190 A 29.545454 40.530304 0 1 1  584.46968,503.95190 A 29.545454 40.530304 0 1 1  643.56059 503.95190 z"
     transform="matrix(-1.000000,0.000000,0.000000,1.138058,1059.415,-378.8192)" />
  <path
     sodipodi:type="arc"
     style="fill:#ffeec4;fill-opacity:1.0000000;stroke:#000000;stroke-width:1.2500000;stroke-miterlimit:4.0000000;stroke-opacity:1.0000000"
     id="path3882"
     sodipodi:cx="614.01514"
     sodipodi:cy="503.95190"
     sodipodi:rx="29.545454"
     sodipodi:ry="40.530304"
     d="M 643.56059 503.95190 A 29.545454 40.530304 0 1 1  584.46968,503.95190 A 29.545454 40.530304 0 1 1  643.56059 503.95190 z"
     transform="matrix(-1.000000,0.000000,0.000000,1.138058,692.5208,-381.1930)" />
  <path
     style="fill:#ff8c00;fill-opacity:1.0000000;stroke:#000000;stroke-width:1.2500000;stroke-miterlimit:4.0000000;stroke-opacity:1.0000000"
     d="M 443.87378,326.41228 C 436.00008,327.76990 430.01842,327.82241 422.28210,326.41228 C 421.42907,326.40135 420.95644,324.20549 421.04704,322.40240 C 421.02302,320.78652 421.03512,318.86473 421.69245,317.91229 C 422.22435,317.21456 422.85437,317.59626 423.43654,317.49760 C 431.58989,319.28063 435.03028,319.01278 443.87378,317.49760 C 444.72679,317.50853 445.19942,319.70441 445.10882,321.50751 C 445.13284,323.12335 445.12074,325.04516 444.46341,325.99758 C 444.28868,326.26366 444.08207,326.41401 443.87378,326.41228 z "
     id="path1337"
     sodipodi:nodetypes="ccccccccc" />
  <path
     style="fill:#ff8c00;fill-opacity:1.0000000;stroke:#000000;stroke-width:1.2500000;stroke-miterlimit:4.0000000;stroke-opacity:1.0000000"
     d="M 76.979564,324.03843 C 69.105864,325.39605 63.124204,325.44856 55.387884,324.03843 C 54.534854,324.02750 54.062224,321.83164 54.152824,320.02855 C 54.128804,318.41267 54.140904,316.49088 54.798234,315.53844 C 55.330134,314.84071 55.960154,315.22241 56.542324,315.12375 C 64.695674,316.90678 68.136064,316.63893 76.979564,315.12375 C 77.832574,315.13468 78.305204,317.33056 78.214604,319.13366 C 78.238624,320.74950 78.226524,322.67131 77.569194,323.62373 C 77.394464,323.88981 77.187854,324.04016 76.979564,324.03843 z "
     id="path3885"
     sodipodi:nodetypes="ccccccccc" />
  <path
     style="fill:#ff8c00;fill-opacity:1.0000000;stroke:#000000;stroke-width:1.2500000;stroke-miterlimit:4.0000000;stroke-opacity:1.0000000"
     d="M 466.60105,327.16986 C 458.72735,328.52748 452.74569,328.57999 445.00937,327.16986 C 444.15634,327.15893 443.68371,324.96307 443.77431,323.15998 C 443.75029,321.54410 443.76239,319.62231 444.41972,318.66987 C 444.95162,317.97214 445.58164,318.35384 446.16381,318.25518 C 454.31716,320.03821 457.75755,319.77036 466.60105,318.25518 C 467.45405,318.26611 467.92668,320.46199 467.83608,322.26509 C 467.86010,323.88093 467.84800,325.80274 467.19067,326.75516 C 467.01594,327.02124 466.80934,327.17159 466.60105,327.16986 z "
     id="path1338"
     sodipodi:nodetypes="ccccccccc" />
  <path
     style="fill:#ff8c00;fill-opacity:1.0000000;stroke:#000000;stroke-width:1.2500000;stroke-miterlimit:4.0000000;stroke-opacity:1.0000000"
     d="M 99.706834,324.79601 C 91.833134,326.15363 85.851474,326.20614 78.115154,324.79601 C 77.262124,324.78508 76.789494,322.58922 76.880094,320.78613 C 76.856074,319.17025 76.868174,317.24846 77.525504,316.29602 C 78.057404,315.59829 78.687424,315.97999 79.269594,315.88133 C 87.422944,317.66436 90.863334,317.39651 99.706834,315.88133 C 100.55984,315.89226 101.03247,318.08814 100.94187,319.89124 C 100.96589,321.50708 100.95379,323.42889 100.29646,324.38131 C 100.12173,324.64739 99.915124,324.79774 99.706834,324.79601 z "
     id="path3886"
     sodipodi:nodetypes="ccccccccc" />
  <path
     style="fill:#ffff00;fill-opacity:1.0000000;fill-rule:evenodd;stroke:#000000;stroke-width:1.2500000;stroke-linecap:butt;stroke-linejoin:miter;stroke-miterlimit:4.0000000;stroke-opacity:1.0000000"
     d="M 473.15626,195.50687 L 478.40097,207.15560 L 470.15111,197.59229 L 472.77203,210.16446 L 459.46618,195.85444 L 441.01349,214.01244 L 444.14012,200.02529 L 433.23580,218.77663 L 432.78736,205.07018 L 426.67931,221.21985 L 423.81243,209.28319 C 421.80900,213.45404 419.73152,237.91048 419.73152,237.91048 L 418.11927,217.07371 C 417.45147,218.81156 414.72296,242.08133 414.72296,242.08133 L 414.72296,233.04449 C 412.05172,196.89715 415.39077,195.50687 415.39077,195.50687 L 473.15626,195.50687 z "
     id="path1339"
     sodipodi:nodetypes="ccccccccccccccccc" />
  <path
     style="fill:#ffff00;fill-opacity:1.0000000;fill-rule:evenodd;stroke:#000000;stroke-width:1.2500000;stroke-linecap:butt;stroke-linejoin:miter;stroke-miterlimit:4.0000000;stroke-opacity:1.0000000"
     d="M 106.26205,193.13302 L 111.50676,204.78175 L 103.25690,195.21844 L 105.87782,207.79061 L 92.571964,193.48059 L 74.119274,211.63859 L 77.245904,197.65144 L 66.341584,216.40278 L 65.893144,202.69633 L 59.785094,218.84600 L 56.918214,206.90934 C 54.914784,211.08019 52.837304,235.53663 52.837304,235.53663 L 51.225054,214.69986 C 50.557254,216.43771 47.828744,239.70748 47.828744,239.70748 L 47.828744,230.67064 C 45.157504,194.52330 48.496554,193.13302 48.496554,193.13302 L 106.26205,193.13302 z "
     id="path1830"
     sodipodi:nodetypes="ccccccccccccccccc" />
  <g
     id="g1340"
     transform="matrix(-1.000000,0.000000,0.000000,1.000000,1394.642,-308.6764)">
    <path
       sodipodi:type="arc"
       style="fill:#ff0000;fill-opacity:1.0000000;stroke:#000000;stroke-width:1.2500000;stroke-miterlimit:4.0000000;stroke-opacity:1.0000000"
       id="path1341"
       sodipodi:cx="614.01514"
       sodipodi:cy="503.95190"
       sodipodi:rx="29.545454"
       sodipodi:ry="40.530304"
       d="M 643.56059,503.95190 A 29.545454,40.530304 0 1 1 584.46968,503.95190"
       transform="matrix(1.000000,0.000000,0.000000,-1.138058,335.2273,1077.342)"
       sodipodi:start="0.0000000"
       sodipodi:end="3.1415927"
       sodipodi:open="true" />
    <path
       style="fill:#ff8c00;fill-opacity:1.0000000;stroke:#000000;stroke-width:1.3600812;stroke-miterlimit:4.0000000;stroke-opacity:1.0000000"
       d="M 919.18064,496.12998 C 928.29567,493.81769 942.14554,491.30327 979.48026,496.12998 C 981.86252,496.14469 983.18245,499.09947 982.92942,501.52572 C 982.99651,503.70002 982.96271,506.28599 981.12697,507.56760 C 979.64150,508.50647 977.88205,507.99285 976.25620,508.12562 C 936.96586,502.62612 924.75886,505.65643 919.18064,508.12560 C 916.79838,508.11091 915.47846,505.15612 915.73149,502.72987 C 915.66440,500.55558 915.69819,497.96961 917.53394,496.68800 C 918.02192,496.32999 918.59891,496.12767 919.18064,496.12998 z "
       id="path1342"
       sodipodi:nodetypes="ccccccccc" />
  </g>
  <g
     id="g3912"
     transform="matrix(-1.000000,0.000000,0.000000,1.000000,1027.748,-311.0502)">
    <path
       sodipodi:type="arc"
       style="fill:#ff0000;fill-opacity:1.0000000;stroke:#000000;stroke-width:1.2500000;stroke-miterlimit:4.0000000;stroke-opacity:1.0000000"
       id="path3888"
       sodipodi:cx="614.01514"
       sodipodi:cy="503.95190"
       sodipodi:rx="29.545454"
       sodipodi:ry="40.530304"
       d="M 643.56059,503.95190 A 29.545454,40.530304 0 1 1 584.46968,503.95190"
       transform="matrix(1.000000,0.000000,0.000000,-1.138058,335.2273,1077.342)"
       sodipodi:start="0.0000000"
       sodipodi:end="3.1415927"
       sodipodi:open="true" />
    <path
       style="fill:#ff8c00;fill-opacity:1.0000000;stroke:#000000;stroke-width:1.3600812;stroke-miterlimit:4.0000000;stroke-opacity:1.0000000"
       d="M 919.18064,496.12998 C 928.29567,493.81769 942.14554,491.30327 979.48026,496.12998 C 981.86252,496.14469 983.18245,499.09947 982.92942,501.52572 C 982.99651,503.70002 982.96271,506.28599 981.12697,507.56760 C 979.64150,508.50647 977.88205,507.99285 976.25620,508.12562 C 936.96586,502.62612 924.75886,505.65643 919.18064,508.12560 C 916.79838,508.11091 915.47846,505.15612 915.73149,502.72987 C 915.66440,500.55558 915.69819,497.96961 917.53394,496.68800 C 918.02192,496.32999 918.59891,496.12767 919.18064,496.12998 z "
       id="path3889"
       sodipodi:nodetypes="ccccccccc" />
  </g>
  <g
     id="g1343"
     transform="matrix(-1.000000,0.000000,0.000000,1.000000,1070.021,-307.5400)">
    <path
       style="fill:#000000;fill-opacity:1.0000000;fill-rule:nonzero;stroke:none;stroke-width:1.0000000pt;stroke-linecap:butt;stroke-linejoin:miter;stroke-opacity:1.0000000"
       id="path1344"
       d="M 602.12989,530.86845 C 607.05654,525.26543 605.33463,534.48194 604.82060,531.75602 C 606.78080,529.40933 607.77878,529.24376 610.36497,530.06557 C 610.34409,530.03664 610.32322,530.00771 610.30234,529.97879 L 610.97870,531.35108 C 610.73663,531.43117 610.49455,531.51126 610.25248,531.59135 C 607.46086,530.95027 608.17406,530.35527 605.72512,532.98992 C 600.34378,536.47657 608.31248,525.02122 603.21171,531.95027 L 602.12989,530.86845 z " />
    <path
       style="fill:#000000;fill-opacity:1.0000000;fill-rule:nonzero;stroke:none;stroke-width:1.0000000pt;stroke-linecap:butt;stroke-linejoin:miter;stroke-opacity:1.0000000"
       id="path1345"
       d="M 614.56728,529.29973 C 616.84044,527.09955 617.67109,532.45919 616.97132,530.18199 C 619.35381,530.19817 619.26628,529.49136 621.54107,529.08811 C 622.16475,529.25003 622.70678,529.57896 623.27381,529.86203 L 622.64628,531.25733 C 622.32993,531.09977 621.70166,530.83661 621.56566,530.61784 C 620.25310,530.96190 619.11415,531.64215 618.06534,531.25147 C 614.73028,534.17007 615.01348,527.41317 616.73780,529.60664 C 616.83242,529.72700 615.33276,530.47148 615.41592,530.57271 L 614.56728,529.29973 z " />
  </g>
  <g
     id="g3890"
     transform="matrix(-1.000000,0.000000,0.000000,1.000000,703.1268,-309.9138)">
    <path
       style="fill:#000000;fill-opacity:1.0000000;fill-rule:nonzero;stroke:none;stroke-width:1.0000000pt;stroke-linecap:butt;stroke-linejoin:miter;stroke-opacity:1.0000000"
       id="path3891"
       d="M 602.12989,530.86845 C 607.05654,525.26543 605.33463,534.48194 604.82060,531.75602 C 606.78080,529.40933 607.77878,529.24376 610.36497,530.06557 C 610.34409,530.03664 610.32322,530.00771 610.30234,529.97879 L 610.97870,531.35108 C 610.73663,531.43117 610.49455,531.51126 610.25248,531.59135 C 607.46086,530.95027 608.17406,530.35527 605.72512,532.98992 C 600.34378,536.47657 608.31248,525.02122 603.21171,531.95027 L 602.12989,530.86845 z " />
    <path
       style="fill:#000000;fill-opacity:1.0000000;fill-rule:nonzero;stroke:none;stroke-width:1.0000000pt;stroke-linecap:butt;stroke-linejoin:miter;stroke-opacity:1.0000000"
       id="path3892"
       d="M 614.56728,529.29973 C 616.84044,527.09955 617.67109,532.45919 616.97132,530.18199 C 619.35381,530.19817 619.26628,529.49136 621.54107,529.08811 C 622.16475,529.25003 622.70678,529.57896 623.27381,529.86203 L 622.64628,531.25733 C 622.32993,531.09977 621.70166,530.83661 621.56566,530.61784 C 620.25310,530.96190 619.11415,531.64215 618.06534,531.25147 C 614.73028,534.17007 615.01348,527.41317 616.73780,529.60664 C 616.83242,529.72700 615.33276,530.47148 615.41592,530.57271 L 614.56728,529.29973 z " />
  </g>
  <g
     id="g1346"
     style="fill:#000000;fill-opacity:1.0000000;stroke:none;stroke-width:0.12500000;stroke-miterlimit:4.0000000;stroke-opacity:1.0000000"
     transform="matrix(-1.000000,0.000000,0.000000,1.000000,1065.854,-308.6764)">
    <path
       style="fill-rule:nonzero;stroke-linecap:butt;stroke-linejoin:miter"
       id="path1347"
       d="M 607.23670,545.43155 C 606.08212,547.26231 604.92760,549.09241 603.82290,550.95380 L 602.94589,550.43308 C 604.05211,548.57079 605.20586,546.73835 606.36210,544.90679 L 607.23670,545.43155 z " />
    <path
       style="fill-rule:nonzero;stroke-linecap:butt;stroke-linejoin:miter"
       id="path1348"
       d="M 608.99652,546.06684 C 608.07973,547.98873 607.72734,550.09350 607.40375,552.17800 L 606.39593,552.02123 C 606.73704,549.83274 607.11616,547.62601 608.08425,545.61071 L 608.99652,546.06684 z " />
    <path
       style="fill-rule:nonzero;stroke-linecap:butt;stroke-linejoin:miter"
       id="path1349"
       d="M 611.04396,546.76599 C 610.39259,549.64460 610.60183,552.56547 610.67400,555.48529 L 609.65436,555.51047 C 609.58009,552.49906 609.37570,549.48611 610.05446,546.51862 L 611.04396,546.76599 z " />
    <path
       style="fill-rule:nonzero;stroke-linecap:butt;stroke-linejoin:miter"
       id="path1350"
       d="M 614.08554,545.87855 C 615.10551,548.04922 615.47765,550.43673 616.00176,552.75734 L 615.00686,552.98199 C 614.50104,550.74148 614.14653,548.43463 613.17327,546.33469 L 614.08554,545.87855 z " />
    <path
       style="fill-rule:nonzero;stroke-linecap:butt;stroke-linejoin:miter"
       id="path1351"
       d="M 617.37922,545.59664 C 619.80173,546.20027 620.68004,548.75811 621.64180,550.81349 L 620.71669,551.24300 C 619.90288,549.50244 619.21601,547.43498 617.37922,546.61659 L 617.37922,545.59664 z " />
    <path
       style="fill-rule:nonzero;stroke-linecap:butt;stroke-linejoin:miter"
       id="path1352"
       d="M 620.38768,547.50131 C 619.70796,542.67423 624.01727,548.93674 624.86266,550.60901 L 623.95755,551.07919 C 623.31224,549.77269 619.47675,544.14459 621.33468,547.12251 L 620.38768,547.50131 z " />
  </g>
  <g
     id="g3893"
     style="fill:#000000;fill-opacity:1.0000000;stroke:none;stroke-width:0.12500000;stroke-miterlimit:4.0000000;stroke-opacity:1.0000000"
     transform="matrix(-1.000000,0.000000,0.000000,1.000000,698.9598,-311.0502)">
    <path
       style="fill-rule:nonzero;stroke-linecap:butt;stroke-linejoin:miter"
       id="path3894"
       d="M 607.23670,545.43155 C 606.08212,547.26231 604.92760,549.09241 603.82290,550.95380 L 602.94589,550.43308 C 604.05211,548.57079 605.20586,546.73835 606.36210,544.90679 L 607.23670,545.43155 z " />
    <path
       style="fill-rule:nonzero;stroke-linecap:butt;stroke-linejoin:miter"
       id="path3895"
       d="M 608.99652,546.06684 C 608.07973,547.98873 607.72734,550.09350 607.40375,552.17800 L 606.39593,552.02123 C 606.73704,549.83274 607.11616,547.62601 608.08425,545.61071 L 608.99652,546.06684 z " />
    <path
       style="fill-rule:nonzero;stroke-linecap:butt;stroke-linejoin:miter"
       id="path3896"
       d="M 611.04396,546.76599 C 610.39259,549.64460 610.60183,552.56547 610.67400,555.48529 L 609.65436,555.51047 C 609.58009,552.49906 609.37570,549.48611 610.05446,546.51862 L 611.04396,546.76599 z " />
    <path
       style="fill-rule:nonzero;stroke-linecap:butt;stroke-linejoin:miter"
       id="path3897"
       d="M 614.08554,545.87855 C 615.10551,548.04922 615.47765,550.43673 616.00176,552.75734 L 615.00686,552.98199 C 614.50104,550.74148 614.14653,548.43463 613.17327,546.33469 L 614.08554,545.87855 z " />
    <path
       style="fill-rule:nonzero;stroke-linecap:butt;stroke-linejoin:miter"
       id="path3898"
       d="M 617.37922,545.59664 C 619.80173,546.20027 620.68004,548.75811 621.64180,550.81349 L 620.71669,551.24300 C 619.90288,549.50244 619.21601,547.43498 617.37922,546.61659 L 617.37922,545.59664 z " />
    <path
       style="fill-rule:nonzero;stroke-linecap:butt;stroke-linejoin:miter"
       id="path3899"
       d="M 620.38768,547.50131 C 619.70796,542.67423 624.01727,548.93674 624.86266,550.60901 L 623.95755,551.07919 C 623.31224,549.77269 619.47675,544.14459 621.33468,547.12251 L 620.38768,547.50131 z " />
  </g>
  <path
     style="fill:#ffeec4;fill-opacity:1.0000000;fill-rule:evenodd;stroke:#000000;stroke-width:1.2500000;stroke-linecap:butt;stroke-linejoin:miter;stroke-opacity:1.0000000;stroke-miterlimit:4.0000000;stroke-dasharray:none;"
     d="M 462.03000,282.28079 L 462.83353,284.95923 L 482.11826,287.10198 C 483.45748,281.20942 488.27866,282.81648 488.27866,282.81648 C 490.15357,284.15570 489.35004,286.03060 489.35004,286.03060 C 506.49202,284.42354 505.95633,287.10198 505.95633,287.10198 C 506.75986,290.85178 501.67084,289.78041 501.67084,289.78041 C 490.95710,288.44119 490.68926,288.70904 490.68926,288.70904 C 494.70691,290.85178 488.27866,296.47650 488.27866,296.47650 C 484.79670,297.28003 481.85042,291.65531 481.85042,291.65531 L 459.08373,286.29844 L 458.54804,280.13804 L 462.03000,282.28079 z "
     id="path2028" />
  <path
     style="fill:#00ff15;fill-opacity:1.0000000;fill-rule:evenodd;stroke:#000000;stroke-width:1.2500000;stroke-linecap:butt;stroke-linejoin:miter;stroke-miterlimit:4.0000000;stroke-opacity:1.0000000"
     d="M 451.91335,251.36088 L 438.19544,258.12804 L 430.27508,251.80749 L 417.85311,275.92513 L 429.47366,281.73123 L 432.67933,262.97307 L 422.26091,306.29550 C 435.08359,313.88808 463.53391,306.74211 463.53391,306.74211 L 453.91690,263.86631 L 457.92399,283.51772 L 469.54453,277.71162 L 451.91335,251.36088 z "
     id="path1353"
     sodipodi:nodetypes="cccccccccccc" />
  <path
     style="fill:#00ff15;fill-opacity:1.0000000;fill-rule:evenodd;stroke:#000000;stroke-width:1.2500000;stroke-linecap:butt;stroke-linejoin:miter;stroke-miterlimit:4.0000000;stroke-opacity:1.0000000"
     d="M 85.019134,248.98703 L 71.301224,255.75419 L 63.380864,249.43364 L 50.958894,273.55128 L 62.579444,279.35738 L 65.785114,260.59922 L 55.366694,303.92165 C 68.189374,311.51423 96.639694,304.36826 96.639694,304.36826 L 87.022684,261.49246 L 91.029774,281.14387 L 102.65032,275.33777 L 85.019134,248.98703 z "
     id="path3901"
     sodipodi:nodetypes="cccccccccccc" />
  <g
     id="g1354"
     transform="matrix(0.640057,0.383722,-0.306920,0.641320,238.1762,-330.4874)">
    <path
       style="fill:#f0ff00;fill-opacity:1.0000000;fill-rule:nonzero;stroke:none;stroke-width:1.0000000pt;stroke-linecap:butt;stroke-linejoin:miter;stroke-opacity:1.0000000"
       id="path1355"
       d="M 599.77440,582.60470 C 608.25644,589.38153 610.09805,600.71833 611.36189,610.87601 L 607.46505,611.61705 C 606.31049,602.53469 604.98578,592.17619 597.57408,585.90517 L 599.77440,582.60470 z " />
    <path
       style="fill:#f0ff00;fill-opacity:1.0000000;fill-rule:nonzero;stroke:none;stroke-width:1.0000000pt;stroke-linecap:butt;stroke-linejoin:miter;stroke-opacity:1.0000000"
       id="path1356"
       d="M 592.04930,592.28293 C 589.72885,581.79988 605.62763,572.63032 614.47430,577.55721 C 622.81420,581.80251 609.05509,601.03138 605.97685,597.13524 C 602.19911,592.35375 610.45975,588.20990 613.69999,587.77116 C 621.58401,587.26803 627.72951,590.53600 625.95064,599.07880 C 623.61752,604.69835 617.26992,606.75753 611.81876,608.14488 L 610.86584,604.29438 C 614.93022,603.32293 619.68793,601.90974 622.07512,598.23333 C 622.98895,592.46722 619.82772,591.59168 614.17608,591.70915 C 612.11984,592.01401 610.76048,594.28239 609.46717,594.54375 C 601.51829,596.15010 616.98557,585.81886 612.43443,580.95917 C 606.57144,576.95159 596.32107,584.34477 595.45069,590.24209 L 592.04930,592.28293 z " />
  </g>
  <g
     id="g3902"
     transform="matrix(0.640057,0.383722,-0.306920,0.641320,-128.7180,-332.8612)">
    <path
       style="fill:#f0ff00;fill-opacity:1.0000000;fill-rule:nonzero;stroke:none;stroke-width:1.0000000pt;stroke-linecap:butt;stroke-linejoin:miter;stroke-opacity:1.0000000"
       id="path3903"
       d="M 599.77440,582.60470 C 608.25644,589.38153 610.09805,600.71833 611.36189,610.87601 L 607.46505,611.61705 C 606.31049,602.53469 604.98578,592.17619 597.57408,585.90517 L 599.77440,582.60470 z " />
    <path
       style="fill:#f0ff00;fill-opacity:1.0000000;fill-rule:nonzero;stroke:none;stroke-width:1.0000000pt;stroke-linecap:butt;stroke-linejoin:miter;stroke-opacity:1.0000000"
       id="path3904"
       d="M 592.04930,592.28293 C 589.72885,581.79988 605.62763,572.63032 614.47430,577.55721 C 622.81420,581.80251 609.05509,601.03138 605.97685,597.13524 C 602.19911,592.35375 610.45975,588.20990 613.69999,587.77116 C 621.58401,587.26803 627.72951,590.53600 625.95064,599.07880 C 623.61752,604.69835 617.26992,606.75753 611.81876,608.14488 L 610.86584,604.29438 C 614.93022,603.32293 619.68793,601.90974 622.07512,598.23333 C 622.98895,592.46722 619.82772,591.59168 614.17608,591.70915 C 612.11984,592.01401 610.76048,594.28239 609.46717,594.54375 C 601.51829,596.15010 616.98557,585.81886 612.43443,580.95917 C 606.57144,576.95159 596.32107,584.34477 595.45069,590.24209 L 592.04930,592.28293 z " />
  </g>
  <path
     sodipodi:type="arc"
     style="fill:#ffffff;fill-opacity:0.83435583;stroke:#000000;stroke-width:3.3510077;stroke-miterlimit:4.0000000;stroke-opacity:1.0000000;stroke-dasharray:none;"
     id="path2093"
     sodipodi:cx="95.352280"
     sodipodi:cy="50.060497"
     sodipodi:rx="114.63701"
     sodipodi:ry="48.211826"
     d="M 209.98929 50.060497 A 114.63701 48.211826 0 1 1  -19.284729,50.060497 A 114.63701 48.211826 0 1 1  209.98929 50.060497 z"
     transform="matrix(1.079179,0.000000,0.000000,1.160428,-4.752831,-10.70952)" />
  <text
     xml:space="preserve"
     style="font-size:18.000000;font-style:normal;font-variant:normal;font-weight:normal;font-stretch:normal;fill:#000000;fill-opacity:1.0000000;stroke:none;stroke-width:1.0000000pt;stroke-linecap:butt;stroke-linejoin:miter;stroke-opacity:1.0000000;font-family:Courier;text-anchor:middle;writing-mode:lr"
     x="96.423653"
     y="28.633018"
     id="text1292"><tspan
       sodipodi:role="line"
       id="tspan1293"
       x="96.423653"
       y="28.633018">OYE, HAS ESCUCHAO</tspan><tspan
       sodipodi:role="line"
       id="tspan1295"
       x="96.423653"
       y="46.633018">ESO DE QUE USAR EL</tspan><tspan
       sodipodi:role="line"
       id="tspan1297"
       x="96.423653"
       y="64.633018">PORTATIL PUEDE</tspan><tspan
       sodipodi:role="line"
       id="tspan1299"
       x="96.423653"
       y="82.633018">PROVOCAR JOROBA?</tspan></text>
  <path
     sodipodi:type="arc"
     style="fill:#ffffff;fill-opacity:0.83435583;stroke:#000000;stroke-width:3.3510077;stroke-miterlimit:4.0000000;stroke-opacity:1.0000000"
     id="path2094"
     sodipodi:cx="221.77440"
     sodipodi:cy="122.91393"
     sodipodi:rx="77.138924"
     sodipodi:ry="25.712975"
     d="M 298.91332 122.91393 A 77.138924 25.712975 0 1 1  144.63548,122.91393 A 77.138924 25.712975 0 1 1  298.91332 122.91393 z" />
  <text
     xml:space="preserve"
     style="font-size:18.000000;font-style:normal;font-variant:normal;font-weight:normal;font-stretch:normal;fill:#000000;fill-opacity:1.0000000;stroke:none;stroke-width:1.0000000pt;stroke-linecap:butt;stroke-linejoin:miter;stroke-opacity:1.0000000;font-family:Courier;text-anchor:middle;writing-mode:lr"
     x="222.84576"
     y="127.19942"
     id="text1301"><tspan
       sodipodi:role="line"
       id="tspan1302"
       x="222.84576"
       y="127.19942">NO ME DIGAS!</tspan></text>
  <path
     sodipodi:type="arc"
     style="fill:#ffffff;fill-opacity:0.83435583;stroke:#000000;stroke-width:3.3510077;stroke-miterlimit:4.0000000;stroke-opacity:1.0000000"
     id="path2095"
     sodipodi:cx="468.19040"
     sodipodi:cy="53.274620"
     sodipodi:rx="114.63701"
     sodipodi:ry="57.854191"
     d="M 582.82741 53.274620 A 114.63701 57.854191 0 1 1  353.55339,53.274620 A 114.63701 57.854191 0 1 1  582.82741 53.274620 z" />
  <text
     xml:space="preserve"
     style="font-size:18.000000;font-style:normal;font-variant:normal;font-weight:normal;font-stretch:normal;fill:#000000;fill-opacity:1.0000000;stroke:none;stroke-width:1.0000000pt;stroke-linecap:butt;stroke-linejoin:miter;stroke-opacity:1.0000000;font-family:Courier;text-anchor:middle;writing-mode:lr"
     x="467.11902"
     y="26.490273"
     id="text1304"><tspan
       sodipodi:role="line"
       id="tspan1305"
       x="467.11902"
       y="26.490273">ADEMS EL USARLO</tspan><tspan
       sodipodi:role="line"
       id="tspan1307"
       x="467.11902"
       y="44.490273">SOBRE LAS PIERNAS</tspan><tspan
       sodipodi:role="line"
       id="tspan1309"
       x="467.11902"
       y="62.490273">PUEDE DEJARTE</tspan><tspan
       sodipodi:role="line"
       id="tspan1311"
       x="467.11902"
       y="80.490273">ESTERIL O ALGO</tspan><tspan
       sodipodi:role="line"
       id="tspan1313"
       x="467.11902"
       y="98.490273">AS</tspan></text>
  <path
     sodipodi:type="arc"
     style="fill:#ffffff;fill-opacity:0.83435583;stroke:#000000;stroke-width:3.3510077;stroke-miterlimit:4.0000000;stroke-opacity:1.0000000"
     id="path2096"
     sodipodi:cx="592.46979"
     sodipodi:cy="132.55629"
     sodipodi:rx="79.281670"
     sodipodi:ry="22.498852"
     d="M 671.75146 132.55629 A 79.281670 22.498852 0 1 1  513.18812,132.55629 A 79.281670 22.498852 0 1 1  671.75146 132.55629 z" />
  <text
     xml:space="preserve"
     style="font-size:18.000000;font-style:normal;font-variant:normal;font-weight:normal;font-stretch:normal;fill:#000000;fill-opacity:1.0000000;stroke:none;stroke-width:1.0000000pt;stroke-linecap:butt;stroke-linejoin:miter;stroke-opacity:1.0000000;font-family:Courier;text-anchor:middle;writing-mode:lr"
     x="591.39838"
     y="137.91316"
     id="text1315"><tspan
       sodipodi:role="line"
       id="tspan1316"
       x="591.39838"
       y="137.91316">JODER TIIIO!</tspan></text>
  <path
     style="fill:#ffffff;fill-opacity:1.0000000;fill-rule:evenodd;stroke:#000000;stroke-width:1.2500000;stroke-linecap:butt;stroke-linejoin:miter;stroke-miterlimit:4.0000000;stroke-opacity:1.0000000"
     d="M 625.87910,322.64485 C 615.27304,322.26606 595.19729,312.41759 591.03062,319.23577 C 586.86395,324.53879 585.72759,330.59940 592.92456,335.14486 C 614.89425,342.72061 628.53061,340.44788 628.53061,340.44788 C 654.28819,340.06909 656.18213,340.82667 671.71244,337.03879 C 677.39425,335.14486 683.45486,322.87790 675.12153,317.72061 C 663.49331,312.48257 661.86395,323.02364 625.87910,322.64485 z "
     id="path2016"
     sodipodi:nodetypes="ccccccc" />
  <path
     style="fill:#ffffff;fill-opacity:1.0000000;fill-rule:evenodd;stroke:#000000;stroke-width:1.2500000;stroke-linecap:butt;stroke-linejoin:miter;stroke-miterlimit:4.0000000;stroke-opacity:1.0000000"
     d="M 250.89823,323.71622 C 240.29217,323.33743 220.21642,313.48896 216.04975,320.30714 C 211.88308,325.61016 210.74672,331.67077 217.94369,336.21623 C 239.91338,343.79198 253.54974,341.51925 253.54974,341.51925 C 279.30732,341.14046 281.20126,341.89804 296.73157,338.11016 C 302.41338,336.21623 308.47399,323.94927 300.14066,318.79198 C 288.51244,313.55394 286.88308,324.09501 250.89823,323.71622 z "
     id="path1999"
     sodipodi:nodetypes="ccccccc" />
  <path
     style="fill:#ffe5b9;fill-opacity:1.0000000;fill-rule:evenodd;stroke:#000000;stroke-width:1.2500000;stroke-linecap:butt;stroke-linejoin:miter;stroke-miterlimit:4.0000000;stroke-opacity:1.0000000"
     d="M 615.23647,273.70980 C 619.52197,268.88862 622.20040,272.63843 622.20040,272.63843 C 624.87884,275.85255 621.12903,277.45961 621.12903,277.45961 C 618.98628,279.06667 615.77216,276.92392 615.77216,276.92392 L 615.23647,273.70980 z "
     id="path2023" />
  <g
     id="g2017"
     transform="matrix(0.861991,0.000000,0.000000,0.861991,480.8466,82.58904)">
    <path
       style="fill:#0000ff;fill-opacity:1.0000000;fill-rule:evenodd;stroke:#000000;stroke-width:1.2500000;stroke-linecap:butt;stroke-linejoin:miter;stroke-miterlimit:4.0000000;stroke-opacity:1.0000000"
       d="M 128.17480,227.15773 L 136.50814,274.12742 L 216.43238,274.88500 L 229.68996,220.71833 L 128.17480,227.15773 z "
       id="path2018" />
    <path
       style="fill:#0000ff;fill-opacity:1.0000000;fill-rule:evenodd;stroke:#000000;stroke-width:1.2500000;stroke-linecap:butt;stroke-linejoin:miter;stroke-miterlimit:4.0000000;stroke-opacity:1.0000000"
       d="M 136.50814,274.12742 L 135.75056,282.08197 L 216.05359,282.83955 L 216.43238,274.50621 L 136.50814,274.12742 z "
       id="path2019" />
  </g>
  <g
     id="g1992"
     transform="matrix(0.861991,0.000000,0.000000,0.861991,105.8657,83.66041)">
    <path
       style="fill:#0000ff;fill-opacity:1.0000000;fill-rule:evenodd;stroke:#000000;stroke-width:1.2500000;stroke-linecap:butt;stroke-linejoin:miter;stroke-miterlimit:4.0000000;stroke-opacity:1.0000000"
       d="M 128.17480,227.15773 L 136.50814,274.12742 L 216.43238,274.88500 L 229.68996,220.71833 L 128.17480,227.15773 z "
       id="path1357" />
    <path
       style="fill:#0000ff;fill-opacity:1.0000000;fill-rule:evenodd;stroke:#000000;stroke-width:1.2500000;stroke-linecap:butt;stroke-linejoin:miter;stroke-miterlimit:4.0000000;stroke-opacity:1.0000000"
       d="M 136.50814,274.12742 L 135.75056,282.08197 L 216.05359,282.83955 L 216.43238,274.50621 L 136.50814,274.12742 z "
       id="path1358" />
  </g>
  <path
     style="fill:#ffffff;fill-opacity:1.0000000;fill-rule:evenodd;stroke:#000000;stroke-width:1.2500000;stroke-linecap:butt;stroke-linejoin:miter;stroke-miterlimit:4.0000000;stroke-opacity:1.0000000"
     d="M 632.46386,326.38115 L 633.22143,343.04782 C 656.32750,347.97206 653.29719,331.68418 653.29719,331.68418 C 650.64568,322.21448 641.55477,322.97206 641.55477,322.97206 C 635.11537,324.10842 632.46386,326.38115 632.46386,326.38115 z "
     id="path2020" />
  <path
     style="fill:#ffffff;fill-opacity:1.0000000;fill-rule:evenodd;stroke:#000000;stroke-width:1.2500000;stroke-linecap:butt;stroke-linejoin:miter;stroke-miterlimit:4.0000000;stroke-opacity:1.0000000"
     d="M 257.48299,327.45252 L 258.24056,344.11919 C 281.34663,349.04343 278.31632,332.75555 278.31632,332.75555 C 275.66481,323.28585 266.57390,324.04343 266.57390,324.04343 C 260.13450,325.17979 257.48299,327.45252 257.48299,327.45252 z "
     id="path1997" />
  <path
     style="fill:#ffffff;fill-opacity:1.0000000;fill-rule:evenodd;stroke:#000000;stroke-width:1.2500000;stroke-linecap:butt;stroke-linejoin:miter;stroke-miterlimit:4.0000000;stroke-opacity:1.0000000"
     d="M 632.51742,326.37016 L 632.64604,343.05355 C 609.83408,349.19794 611.99512,332.77211 611.99512,332.77211 C 614.13997,323.17496 623.25829,323.44868 623.25829,323.44868 C 629.74895,324.24146 632.51742,326.37016 632.51742,326.37016 z "
     id="path2021" />
  <path
     style="fill:#ffffff;fill-opacity:1.0000000;fill-rule:evenodd;stroke:#000000;stroke-width:1.2500000;stroke-linecap:butt;stroke-linejoin:miter;stroke-miterlimit:4.0000000;stroke-opacity:1.0000000"
     d="M 257.53655,327.44153 L 257.66517,344.12492 C 234.85321,350.26931 237.01425,333.84348 237.01425,333.84348 C 239.15910,324.24633 248.27742,324.52005 248.27742,324.52005 C 254.76808,325.31283 257.53655,327.44153 257.53655,327.44153 z "
     id="path1996" />
  <path
     style="fill:#ffe5b9;fill-opacity:1.0000000;fill-rule:evenodd;stroke:#000000;stroke-width:1.2500000;stroke-linecap:butt;stroke-linejoin:miter;stroke-miterlimit:4.0000000;stroke-opacity:1.0000000"
     d="M 676.21290,300.66729 C 686.57836,299.80617 685.31885,288.31106 685.31885,288.31106 C 684.32348,283.32753 679.20787,281.06714 679.20787,281.06714 C 669.90660,277.74257 669.23860,291.69559 669.23860,291.69559 C 668.57280,297.01092 676.21290,300.66729 676.21290,300.66729 z "
     id="path2024" />
  <path
     style="fill:#ffe5b9;fill-opacity:1.0000000;fill-rule:evenodd;stroke:#000000;stroke-width:1.2500000;stroke-linecap:butt;stroke-linejoin:miter;stroke-opacity:1.0000000;stroke-miterlimit:4.0000000;stroke-dasharray:none;"
     d="M 596.21958,277.19177 C 598.36233,267.01371 609.61176,269.69215 609.61176,269.69215 C 614.43294,271.29921 616.04000,276.65608 616.04000,276.65608 C 618.18275,286.29845 604.25489,285.22707 604.25489,285.22707 C 598.89802,285.22707 596.21958,277.19177 596.21958,277.19177 z "
     id="path2022" />
  <path
     style="fill:#ffe5b9;fill-opacity:1.0000000;fill-rule:evenodd;stroke:#000000;stroke-width:1.2500000;stroke-linecap:butt;stroke-linejoin:miter;stroke-miterlimit:4.0000000;stroke-opacity:1.0000000;stroke-dasharray:none;"
     d="M 761.74060,132.59315 C 745.47286,120.46965 756.49794,111.06134 756.49794,111.06134 C 765.84436,101.79811 771.89542,113.11323 771.89542,113.11323 C 777.51145,119.39254 771.66716,130.04431 771.66716,130.04431 L 761.74060,132.59315 z "
     id="path2100" />
  <path
     style="fill:#ffe5b9;fill-opacity:1.0000000;fill-rule:evenodd;stroke:#000000;stroke-width:1.2500000;stroke-linecap:butt;stroke-linejoin:miter;stroke-miterlimit:4.0000000;stroke-opacity:1.0000000;stroke-dasharray:none;"
     d="M 1044.2767,75.392854 C 1055.5886,58.550648 1042.0628,53.342840 1042.0628,53.342840 C 1030.1684,47.713782 1028.2233,60.396987 1028.2233,60.396987 C 1025.0143,68.186201 1034.0674,76.289120 1034.0674,76.289120 L 1044.2767,75.392854 z "
     id="path2098" />
  <g
     id="g2042"
     transform="matrix(1.191312,0.000000,0.000000,1.191312,-215.2076,-54.82712)">
    <g
       id="g2037"
       transform="translate(-27.85572,185.3477)">
      <path
         style="fill:#0000ff;fill-opacity:1.0000000;fill-rule:evenodd;stroke:#000000;stroke-width:3.0182693;stroke-linecap:butt;stroke-linejoin:miter;stroke-miterlimit:4.0000000;stroke-opacity:1.0000000"
         d="M 864.28134,-79.319648 L 898.76664,89.347082 L 1100.8500,41.420315 L 1073.8426,-98.858676 L 864.28134,-79.319648 z "
         id="path2030"
         sodipodi:nodetypes="ccccc" />
      <path
         style="fill:#0000ff;fill-opacity:1.0000000;fill-rule:evenodd;stroke:#000000;stroke-width:2.5000000;stroke-linecap:butt;stroke-linejoin:miter;stroke-miterlimit:4.0000000;stroke-opacity:1.0000000"
         d="M 848.83250,-67.146948 L 863.83173,-81.074808 L 897.04432,89.273642 L 883.11646,99.987382 L 848.83250,-67.146948 z "
         id="path2035" />
      <path
         style="fill:#0000ff;fill-opacity:1.0000000;fill-rule:evenodd;stroke:#000000;stroke-width:2.5000000;stroke-linecap:butt;stroke-linejoin:miter;stroke-miterlimit:4.0000000;stroke-opacity:1.0000000"
         d="M 900.25845,89.273642 L 1100.6053,41.061821 L 1082.3920,51.775561 L 885.25921,98.916012 L 900.25845,89.273642 z "
         id="path2036"
         sodipodi:nodetypes="ccccc" />
    </g>
    <path
       style="fill:none;fill-opacity:0.75000000;fill-rule:evenodd;stroke:#000000;stroke-width:1.2500000;stroke-linecap:butt;stroke-linejoin:miter;stroke-miterlimit:4.0000000;stroke-opacity:1.0000000"
       d="M 827.10066,114.34293 L 863.52737,280.40589"
       id="path2041" />
  </g>
  <rect
     style="fill:#ffffff;fill-opacity:1.0000000;stroke:#000000;stroke-width:12.500000;stroke-miterlimit:4.0000000;stroke-opacity:1.0000000;"
     id="rect2059"
     width="311.70566"
     height="119.21655"
     x="937.90503"
     y="265.09146"
     rx="0.0000000"
     ry="0.0000000"
     transform="matrix(0.669303,-0.158125,0.165779,0.670311,145.6613,136.2643)" />
  <text
     xml:space="preserve"
     style="font-size:18.000000;font-style:normal;font-variant:normal;font-weight:normal;font-stretch:normal;fill:#000000;fill-opacity:1.0000000;stroke:#000000;stroke-width:1.0000000pt;stroke-linecap:butt;stroke-linejoin:miter;stroke-opacity:1.0000000;font-family:Apple Symbols;text-anchor:middle;writing-mode:lr;"
     x="799.24493"
     y="-107.43147"
     id="text2048"
     transform="matrix(0.694793,-0.164147,0.172093,0.695839,387.8780,365.9778)"
     sodipodi:linespacing="100%"><tspan
       sodipodi:role="line"
       id="tspan2049"
       x="799.24493"
       y="-107.43147">LAS AUTORIDADES SANITARIAS</tspan><tspan
       sodipodi:role="line"
       id="tspan2051"
       x="799.24493"
       y="-89.431473">ADVIERTEN QUE EL USO DEL</tspan><tspan
       sodipodi:role="line"
       id="tspan2053"
       x="799.24493"
       y="-71.431473">PORTATIL PUEDE PROVOCAR</tspan><tspan
       sodipodi:role="line"
       id="tspan2055"
       x="799.24493"
       y="-53.431473">CHEPA, IMPOTENCIA, Y</tspan><tspan
       sodipodi:role="line"
       id="tspan2057"
       x="799.24493"
       y="-35.431473">OTROS MALES</tspan></text>
  <path
     sodipodi:type="arc"
     style="fill:#ffffff;fill-opacity:0.83435583;stroke:#000000;stroke-width:3.3510077;stroke-miterlimit:4.0000000;stroke-opacity:1.0000000"
     id="path2097"
     sodipodi:cx="838.35010"
     sodipodi:cy="43.632256"
     sodipodi:rx="120.52956"
     sodipodi:ry="51.425949"
     d="M 958.87965 43.632256 A 120.52956 51.425949 0 1 1  717.82054,43.632256 A 120.52956 51.425949 0 1 1  958.87965 43.632256 z"
     transform="translate(-4.285496,3.214122)" />
  <text
     xml:space="preserve"
     style="font-size:18.000000;font-style:normal;font-variant:normal;font-weight:normal;font-stretch:normal;fill:#000000;fill-opacity:1.0000000;stroke:none;stroke-width:1.0000000pt;stroke-linecap:butt;stroke-linejoin:miter;stroke-opacity:1.0000000;font-family:Courier;text-anchor:middle;writing-mode:lr"
     x="835.67163"
     y="29.704393"
     id="text1318"><tspan
       sodipodi:role="line"
       id="tspan1319"
       x="835.67163"
       y="29.704393">ESTO ES PEOR QUE EL</tspan><tspan
       sodipodi:role="line"
       id="tspan1321"
       x="835.67163"
       y="47.704393">TABACO, DEBERAN</tspan><tspan
       sodipodi:role="line"
       id="tspan1323"
       x="835.67163"
       y="65.704393">INDICARLO EN LA</tspan><tspan
       sodipodi:role="line"
       id="tspan1325"
       x="835.67163"
       y="83.704393">CAJA...</tspan></text>
  <path
     style="fill:#ffe5b9;fill-opacity:1.0000000;fill-rule:evenodd;stroke:#000000;stroke-width:1.2500000;stroke-linecap:butt;stroke-linejoin:miter;stroke-miterlimit:4.0000000;stroke-opacity:1.0000000;stroke-dasharray:none;"
     d="M 773.67644,192.44278 C 741.20272,188.48410 746.55000,152.50818 746.55000,152.50818 C 750.28039,136.96564 766.63138,130.47945 766.63138,130.47945 C 796.26605,121.15435 796.67991,165.08815 796.67991,165.08815 C 798.13031,181.87419 773.67644,192.44278 773.67644,192.44278 z "
     id="path2101" />
  <path
     style="fill:#ffe5b9;fill-opacity:1.0000000;fill-rule:evenodd;stroke:#000000;stroke-width:1.2500000;stroke-linecap:butt;stroke-linejoin:miter;stroke-miterlimit:4.0000000;stroke-opacity:1.0000000;stroke-dasharray:none;"
     d="M 1052.9171,135.80631 C 1082.2276,121.27675 1065.2241,89.124896 1065.2241,89.124896 C 1056.5387,75.706615 1038.9614,75.025344 1038.9614,75.025344 C 1007.9122,76.082858 1022.1279,117.65525 1022.1279,117.65525 C 1026.3406,133.96868 1052.9171,135.80631 1052.9171,135.80631 z "
     id="path2099" />
  <path
     sodipodi:type="arc"
     style="fill:#ff0000;fill-opacity:1.0000000;stroke:#000000;stroke-width:1.2500000;stroke-miterlimit:4.0000000;stroke-opacity:1.0000000"
     id="path2160"
     sodipodi:cx="285.93631"
     sodipodi:cy="261.96487"
     sodipodi:rx="6.6291261"
     sodipodi:ry="6.6291261"
     d="M 292.56544 261.96487 A 6.6291261 6.6291261 0 1 1  279.30718,261.96487 A 6.6291261 6.6291261 0 1 1  292.56544 261.96487 z" />
  <path
     sodipodi:type="arc"
     style="fill:#ff0000;fill-opacity:1.0000000;stroke:#000000;stroke-width:1.2500000;stroke-miterlimit:4.0000000;stroke-opacity:1.0000000"
     id="path2162"
     sodipodi:cx="433.54483"
     sodipodi:cy="232.79671"
     sodipodi:rx="6.6291261"
     sodipodi:ry="7.5130095"
     d="M 440.17396 232.79671 A 6.6291261 7.5130095 0 1 1  426.91570,232.79671 A 6.6291261 7.5130095 0 1 1  440.17396 232.79671 z" />
  <path
     sodipodi:type="arc"
     style="fill:#ff0000;fill-opacity:1.0000000;stroke:#000000;stroke-width:1.2500000;stroke-miterlimit:4.0000000;stroke-opacity:1.0000000"
     id="path2164"
     sodipodi:cx="612.97321"
     sodipodi:cy="266.38428"
     sodipodi:rx="7.5130095"
     sodipodi:ry="7.5130095"
     d="M 620.48622 266.38428 A 7.5130095 7.5130095 0 1 1  605.46020,266.38428 A 7.5130095 7.5130095 0 1 1  620.48622 266.38428 z" />
  <path
     style="fill:none;fill-opacity:0.75000000;fill-rule:evenodd;stroke:#000000;stroke-width:1.2500000;stroke-linecap:butt;stroke-linejoin:miter;stroke-opacity:1.0000000;stroke-miterlimit:4.0000000;stroke-dasharray:none;"
     d="M 67.175144,220.86428 C 67.617086,229.70312 93.249707,228.37729 93.249707,228.37729"
     id="path2166"
     sodipodi:nodetypes="cc" />
  <path
     style="fill:#000000;fill-opacity:1.0000000;fill-rule:nonzero;stroke:none;stroke-width:1.0000000pt;stroke-linecap:butt;stroke-linejoin:miter;stroke-opacity:1.0000000"
     id="path2169"
     d="M 202.07867,166.22465 C 195.95692,184.78904 202.74614,206.48195 219.66728,216.56289 L 218.75068,218.09458 C 201.12475,207.50225 193.96563,184.96828 200.42133,165.56172 L 202.07867,166.22465 z " />
  <path
     style="fill:#000000;fill-opacity:1.0000000;fill-rule:nonzero;stroke:none;stroke-width:1.0000000pt;stroke-linecap:butt;stroke-linejoin:miter;stroke-opacity:1.0000000"
     id="path2173"
     d="M 39.732500,110.89319 C 33.428530,118.65737 30.378214,134.38245 30.643257,146.13948 C 31.384144,155.62655 32.107886,176.39731 45.306902,176.82920 L 45.211744,178.61166 C 30.767004,177.60329 29.589033,157.14115 28.858697,146.17912 C 28.697977,138.83499 31.792833,106.72606 41.517500,110.89319 L 39.732500,110.89319 z " />
  <path
     style="fill:#000000;fill-opacity:1.0000000;fill-rule:nonzero;stroke:none;stroke-width:1.0000000pt;stroke-linecap:butt;stroke-linejoin:miter;stroke-opacity:1.0000000"
     id="path2174"
     d="M 104.82781,267.30900 C 106.80553,269.71740 107.93783,272.17833 108.50706,275.16067 L 106.72732,275.29758 C 106.31110,272.57143 104.98351,270.44968 103.29719,268.22738 L 104.82781,267.30900 z " />
  <path
     style="fill:#000000;fill-opacity:1.0000000;fill-rule:nonzero;stroke:none;stroke-width:1.0000000pt;stroke-linecap:butt;stroke-linejoin:miter;stroke-opacity:1.0000000"
     id="path2175"
     d="M 108.52650,266.29519 C 109.74301,267.82331 110.30530,269.26011 110.64598,271.03991 L 108.88527,270.74646 C 108.57696,270.09803 107.82932,268.17151 107.09850,267.36619 L 108.52650,266.29519 z " />
  <path
     style="fill:#000000;fill-opacity:1.0000000;fill-rule:nonzero;stroke:none;stroke-width:1.0000000pt;stroke-linecap:butt;stroke-linejoin:miter;stroke-opacity:1.0000000"
     id="path2178"
     d="M 304.55757,269.83808 C 305.48506,270.66336 306.58194,271.22954 307.64669,271.84663 L 306.72831,273.37725 C 305.64342,272.74062 304.51735,272.16299 303.56743,271.32329 L 304.55757,269.83808 z " />
  <path
     style="fill:#000000;fill-opacity:1.0000000;fill-rule:nonzero;stroke:none;stroke-width:1.0000000pt;stroke-linecap:butt;stroke-linejoin:miter;stroke-opacity:1.0000000"
     id="path2179"
     d="M 308.03550,267.67919 C 309.10796,268.41950 310.29521,268.98409 311.42522,269.59577 L 310.76228,271.25310 C 309.48549,270.56881 308.15356,269.96892 306.96450,269.10719 L 308.03550,267.67919 z " />
  <path
     style="fill:#000000;fill-opacity:1.0000000;fill-rule:nonzero;stroke:none;stroke-width:1.0000000pt;stroke-linecap:butt;stroke-linejoin:miter;stroke-opacity:1.0000000"
     id="path2180"
     d="M 213.44359,276.52428 C 212.42928,277.44791 212.14402,278.71416 211.63941,279.88838 L 209.92309,279.39800 C 210.56688,277.94686 210.92368,276.39643 212.18141,275.26210 L 213.44359,276.52428 z " />
  <path
     style="fill:#000000;fill-opacity:1.0000000;fill-rule:nonzero;stroke:none;stroke-width:1.0000000pt;stroke-linecap:butt;stroke-linejoin:miter;stroke-opacity:1.0000000"
     id="path2183"
     d="M 210.94359,274.64928 C 209.02759,276.00893 208.57568,277.10807 208.15813,279.09631 L 206.37313,279.09631 C 206.75834,276.52620 207.48125,275.08031 209.68141,273.38710 L 210.94359,274.64928 z " />
  <path
     style="fill:#000000;fill-opacity:1.0000000;fill-rule:nonzero;stroke:none;stroke-width:1.0000000pt;stroke-linecap:butt;stroke-linejoin:miter;stroke-opacity:1.0000000"
     id="path2184"
     d="M 287.67328,204.55655 C 287.97479,205.05737 288.27630,205.55818 288.57781,206.05900 L 287.04719,206.97738 C 286.72370,206.43653 286.40021,205.89568 286.07672,205.35483 L 287.67328,204.55655 z " />
  <path
     style="fill:#000000;fill-opacity:1.0000000;fill-rule:nonzero;stroke:none;stroke-width:1.0000000pt;stroke-linecap:butt;stroke-linejoin:miter;stroke-opacity:1.0000000"
     id="path2185"
     d="M 288.09473,202.54649 C 290.44413,202.60272 290.73627,203.53297 291.98745,205.06196 L 290.35630,205.78692 C 289.44987,205.05747 289.72625,203.98450 287.53027,204.23989 L 288.09473,202.54649 z " />
  <path
     style="fill:#000000;fill-opacity:1.0000000;fill-rule:nonzero;stroke:none;stroke-width:1.0000000pt;stroke-linecap:butt;stroke-linejoin:miter;stroke-opacity:1.0000000"
     id="path2186"
     d="M 290.74261,231.64812 C 291.64809,232.76219 291.59996,233.98196 291.83000,235.26819 L 290.04500,235.26819 C 289.79454,234.43188 290.07606,233.34812 289.25740,232.63826 L 290.74261,231.64812 z " />
  <path
     style="fill:#000000;fill-opacity:1.0000000;fill-rule:nonzero;stroke:none;stroke-width:1.0000000pt;stroke-linecap:butt;stroke-linejoin:miter;stroke-opacity:1.0000000"
     id="path2188"
     d="M 614.54828,225.80655 C 615.57756,227.57191 615.53016,229.15951 615.40642,231.06822 L 613.65608,230.71815 C 613.59500,229.26074 613.96064,227.98096 612.95172,226.60483 L 614.54828,225.80655 z " />
  <path
     style="fill:#000000;fill-opacity:1.0000000;fill-rule:nonzero;stroke:none;stroke-width:1.0000000pt;stroke-linecap:butt;stroke-linejoin:miter;stroke-opacity:1.0000000"
     id="path2189"
     d="M 647.84277,160.98399 C 673.08724,161.32258 664.51656,186.66220 655.14093,199.82905 L 653.68719,198.79326 C 662.03464,187.08487 671.58975,163.70933 648.40723,162.67739 L 647.84277,160.98399 z " />
  <path
     style="fill:#000000;fill-opacity:1.0000000;fill-rule:nonzero;stroke:none;stroke-width:1.0000000pt;stroke-linecap:butt;stroke-linejoin:miter;stroke-opacity:1.0000000"
     id="path2190"
     d="M 413.14397,115.15935 C 399.22160,125.59600 396.29072,146.02882 404.18748,160.76906 L 402.60940,161.60326 C 394.41844,145.91373 397.39718,124.29045 412.48103,113.50202 L 413.14397,115.15935 z " />
  <path
     style="fill:#000000;fill-opacity:1.0000000;fill-rule:nonzero;stroke:none;stroke-width:1.0000000pt;stroke-linecap:butt;stroke-linejoin:miter;stroke-opacity:1.0000000"
     id="path2191"
     d="M 477.70367,296.81172 C 480.13076,303.86740 477.66139,309.54841 472.30395,314.22331 L 471.13355,312.87557 C 475.69875,308.45140 478.36537,304.05120 476.04633,297.47465 L 477.70367,296.81172 z " />
  <path
     style="fill:#000000;fill-opacity:1.0000000;fill-rule:nonzero;stroke:none;stroke-width:1.0000000pt;stroke-linecap:butt;stroke-linejoin:miter;stroke-opacity:1.0000000"
     id="path2192"
     d="M 481.42328,298.93155 C 482.90017,303.48067 483.07382,308.45762 480.69025,312.67535 L 479.15350,311.76727 C 480.70599,307.84580 481.38331,303.94998 479.82672,299.72983 L 481.42328,298.93155 z " />
  <path
     style="fill:#000000;fill-opacity:1.0000000;fill-rule:nonzero;stroke:none;stroke-width:1.0000000pt;stroke-linecap:butt;stroke-linejoin:miter;stroke-opacity:1.0000000"
     id="path2193"
     d="M 690.53420,289.98596 C 691.58451,293.44128 690.89518,295.54598 688.90129,298.33091 L 687.58309,297.12734 C 689.26458,294.92356 689.66011,293.36097 688.84080,290.55042 L 690.53420,289.98596 z " />
  <path
     style="fill:#000000;fill-opacity:1.0000000;fill-rule:nonzero;stroke:none;stroke-width:1.0000000pt;stroke-linecap:butt;stroke-linejoin:miter;stroke-opacity:1.0000000"
     id="path2194"
     d="M 694.30335,291.61423 C 695.08481,294.45097 694.41425,296.27681 692.40584,298.26441 L 691.18791,296.95947 C 692.66588,295.22607 693.21415,294.54662 692.57165,292.04715 L 694.30335,291.61423 z " />
  <path
     style="fill:#000000;fill-opacity:1.0000000;fill-rule:nonzero;stroke:none;stroke-width:1.0000000pt;stroke-linecap:butt;stroke-linejoin:miter;stroke-opacity:1.0000000"
     id="path2195"
     d="M 593.52650,270.49119 C 592.59663,271.84307 591.42314,272.98267 590.31859,274.18053 L 589.05641,272.91835 C 590.10495,271.78372 591.21793,270.70325 592.09850,269.42019 L 593.52650,270.49119 z " />
  <path
     style="fill:#000000;fill-opacity:1.0000000;fill-rule:nonzero;stroke:none;stroke-width:1.0000000pt;stroke-linecap:butt;stroke-linejoin:miter;stroke-opacity:1.0000000"
     id="path2196"
     d="M 588.44359,269.64928 C 587.66234,270.43053 586.88109,271.21178 586.09984,271.99303 L 584.83766,270.73085 C 585.61891,269.94960 586.40016,269.16835 587.18141,268.38710 L 588.44359,269.64928 z " />
  <path
     style="fill:#000000;fill-opacity:1.0000000;fill-rule:nonzero;stroke:none;stroke-width:1.0000000pt;stroke-linecap:butt;stroke-linejoin:miter;stroke-opacity:1.0000000"
     id="path2203"
     d="M 625.13375,212.45569 C 625.09627,216.05716 625.94373,219.56942 625.83667,223.17233 L 624.94458,223.14530 C 625.05565,219.55258 624.18611,216.04863 624.24125,212.45569 L 625.13375,212.45569 z " />
  <path
     style="fill:#000000;fill-opacity:1.0000000;fill-rule:nonzero;stroke:none;stroke-width:1.0000000pt;stroke-linecap:butt;stroke-linejoin:miter;stroke-opacity:1.0000000"
     id="path2204"
     d="M 627.15168,213.28496 C 627.55700,215.20244 627.78692,217.06597 627.65174,219.01618 L 626.76232,218.94207 C 626.89890,217.08967 626.66266,215.32449 626.28582,213.50142 L 627.15168,213.28496 z " />
  <path
     style="fill:#000000;fill-opacity:1.0000000;fill-rule:nonzero;stroke:none;stroke-width:1.0000000pt;stroke-linecap:butt;stroke-linejoin:miter;stroke-opacity:1.0000000"
     id="path2205"
     d="M 629.28891,214.56984 C 629.93354,216.06049 629.68890,215.31192 630.04420,216.80847 L 629.17455,217.00916 C 628.88285,215.70145 629.09025,216.36457 628.52359,215.02903 L 629.28891,214.56984 z " />
  <path
     style="fill:#000000;fill-opacity:1.0000000;fill-rule:nonzero;stroke:none;stroke-width:1.0000000pt;stroke-linecap:butt;stroke-linejoin:miter;stroke-opacity:1.0000000"
     id="path2206"
     d="M 916.70281,274.18400 C 922.95094,293.65308 906.91776,312.19993 895.82335,326.55617 L 894.41102,325.46459 C 905.06034,311.68789 920.71227,293.85584 915.17219,275.10238 L 916.70281,274.18400 z " />
  <path
     style="fill:#000000;fill-opacity:1.0000000;fill-rule:nonzero;stroke:none;stroke-width:1.0000000pt;stroke-linecap:butt;stroke-linejoin:miter;stroke-opacity:1.0000000"
     id="path2207"
     d="M 930.11761,274.14812 C 933.58090,288.05785 924.34968,303.21169 917.48558,314.74828 L 915.95192,313.83498 C 922.53917,302.78321 931.23698,288.50542 928.63240,275.13826 L 930.11761,274.14812 z " />
  <path
     style="fill:#000000;fill-opacity:1.0000000;fill-rule:nonzero;stroke:none;stroke-width:1.0000000pt;stroke-linecap:butt;stroke-linejoin:miter;stroke-opacity:1.0000000"
     id="path2215"
     d="M 649.65866,242.51512 C 656.93445,246.60539 665.83028,243.60170 672.63807,239.89319 L 673.24025,241.00246 C 665.93154,244.95690 656.45415,248.03028 648.76616,243.40762 L 649.65866,242.51512 z " />
  <path
     style="fill:#000000;fill-opacity:1.0000000;fill-rule:nonzero;stroke:none;stroke-width:1.0000000pt;stroke-linecap:butt;stroke-linejoin:miter;stroke-opacity:1.0000000"
     id="path2216"
     d="M 648.45763,247.29763 C 654.66025,251.40965 662.93743,250.07164 669.56183,247.83213 L 669.96358,249.02867 C 662.95503,251.36657 654.29765,252.70608 647.75749,248.34783 L 648.45763,247.29763 z " />
</svg>
