<?xml version="1.0" encoding="UTF-8" standalone="no"?>
<!-- Created with Inkscape (http://www.inkscape.org/) -->

<svg
   xmlns:dc="http://purl.org/dc/elements/1.1/"
   xmlns:cc="http://creativecommons.org/ns#"
   xmlns:rdf="http://www.w3.org/1999/02/22-rdf-syntax-ns#"
   xmlns:svg="http://www.w3.org/2000/svg"
   xmlns="http://www.w3.org/2000/svg"
   xmlns:sodipodi="http://sodipodi.sourceforge.net/DTD/sodipodi-0.dtd"
   xmlns:inkscape="http://www.inkscape.org/namespaces/inkscape"
   width="304"
   height="195"
   id="svg2"
   sodipodi:version="0.32"
   inkscape:version="0.47 r22583"
   version="1.0"
   sodipodi:docname="Wi-Fi_Logo.svg"
   inkscape:output_extension="org.inkscape.output.svg.inkscape">
  <defs
     id="defs4">
    <inkscape:perspective
       sodipodi:type="inkscape:persp3d"
       inkscape:vp_x="1693.0157 : 423.14553 : 1"
       inkscape:vp_y="6.1230318e-14 : 1000 : 0"
       inkscape:vp_z="2437.1101 : 423.14553 : 1"
       inkscape:persp3d-origin="2065.0629 : 247.75183 : 1"
       id="perspective10" />
    <inkscape:perspective
       id="perspective2447"
       inkscape:persp3d-origin="372.04724 : 350.78739 : 1"
       inkscape:vp_z="744.09448 : 526.18109 : 1"
       inkscape:vp_y="0 : 1000 : 0"
       inkscape:vp_x="0 : 526.18109 : 1"
       sodipodi:type="inkscape:persp3d" />
  </defs>
  <sodipodi:namedview
     id="base"
     pagecolor="#ffffff"
     bordercolor="#666666"
     borderopacity="1.0"
     gridtolerance="10000"
     guidetolerance="10"
     objecttolerance="10"
     inkscape:pageopacity="0.0"
     inkscape:pageshadow="2"
     inkscape:zoom="1.9542857"
     inkscape:cx="93.448753"
     inkscape:cy="208.87932"
     inkscape:document-units="px"
     inkscape:current-layer="layer1"
     showgrid="false"
     inkscape:window-width="1024"
     inkscape:window-height="514"
     inkscape:window-x="-8"
     inkscape:window-y="-8"
     inkscape:window-maximized="1" />
  <metadata
     id="metadata7">
    <rdf:RDF>
      <cc:Work
         rdf:about="">
        <dc:format>image/svg+xml</dc:format>
        <dc:type
           rdf:resource="http://purl.org/dc/dcmitype/StillImage" />
      </cc:Work>
    </rdf:RDF>
  </metadata>
  <g
     inkscape:label="Layer 1"
     inkscape:groupmode="layer"
     id="layer1"
     transform="translate(-145.14287,-334.86218)">
    <path
       id="path3281"
       style="opacity:1;fill:#000000;fill-opacity:1;fill-rule:evenodd;stroke:none;stroke-width:1px;stroke-linecap:butt;stroke-linejoin:miter;stroke-opacity:1"
       d="M 425.2708,376.22429 L 425.2708,378.40243 L 428.99574,378.40243 L 428.99574,388.66179 L 431.36328,388.66179 L 431.36328,378.434 L 435.02508,378.434 L 435.02508,376.19272 L 425.2708,376.22429 z M 437.23479,376.31899 L 437.23479,388.63023 L 439.12883,388.63023 L 439.12883,379.12848 L 442.08498,387.38462 L 444.07869,387.37074 L 447.14691,379.25475 L 447.14691,388.78806 L 449.07252,388.78806 L 449.07252,376.28743 L 445.53698,376.28743 L 443.04399,385.07388 L 440.48622,376.31899 L 437.23479,376.31899 z M 145.14287,450.31267 L 145.14287,415.4624 C 145.14287,415.4624 144.76406,400.43639 159.79008,385.41037 C 174.8161,370.38435 189.08451,372.02585 189.08451,372.02585 L 208.78248,372.02585 C 208.78248,372.02585 233.53122,334.90274 282.52362,334.90274 C 331.51601,334.90274 359.54775,371.52077 359.54775,371.52077 L 381.7711,371.52077 C 381.7711,371.52077 387.38135,371.26674 394.43261,374.80786 C 401.55964,378.38704 407.9711,382.51124 414.49924,392.643 C 421.04596,402.80361 421.92467,410.12317 421.92467,415.4624 C 421.92467,415.4624 421.92467,453.59566 421.92467,453.59566 C 421.92467,461.54586 421.16705,467.7378 407.78253,481.12232 C 394.39801,494.50684 377.22542,492.99161 377.22542,492.99161 L 356.76983,492.99161 C 356.76983,492.99161 331.22048,529.81677 283.28123,529.81677 C 235.33419,529.81677 210.80279,493.24415 210.80279,493.24415 L 188.07435,493.24415 C 188.07435,493.24415 173.04833,494.12803 158.52739,479.60709 C 144.00645,465.08615 145.39541,450.31267 145.14287,450.31267 z M 169.26026,400.18385 L 183.4024,461.17181 L 198.93349,461.17181 L 205.87829,426.06901 L 212.57055,461.17181 L 228.48046,461.17181 L 242.62259,400.56265 L 225.70254,400.56265 L 220.77804,433.77142 L 213.83324,400.43639 L 198.55469,400.43639 L 191.60989,434.15023 L 186.43285,400.31012 L 169.26026,400.18385 z M 250.61446,417.24457 L 250.61446,461.11569 L 265.53969,461.11569 L 265.53969,417.24457 L 250.61446,417.24457 z M 267.80109,404.85211 C 267.80109,409.0963 263.58656,412.54086 258.39367,412.54086 C 253.20078,412.54086 248.98626,409.0963 248.98626,404.85211 C 248.98626,400.60792 253.20078,397.16336 258.39367,397.16336 C 263.58656,397.16336 267.80109,400.60792 267.80109,404.85211 z M 271.41932,484.36286 C 271.41932,484.36286 290.05324,470.22217 290.05324,449.17551 C 290.05324,449.17551 290.05324,413.71679 290.05324,413.71679 C 290.05324,408.01557 292.97649,399.93883 301.72205,391.19327 C 310.46761,382.44771 318.17443,381.06221 323.52193,381.06221 C 323.52193,381.06221 379.06186,381.06221 379.06186,381.06221 C 388.5022,381.19378 395.83767,385.15083 402.58039,391.46464 C 408.82815,398.02914 412.89237,406.25544 412.89237,415.25454 L 412.89237,449.17551 C 412.89237,455.85294 411.10183,465.52946 402.21857,473.68906 C 393.33531,481.84866 386.48964,484.36286 379.42368,484.36286 C 379.42368,484.36286 271.41932,484.36286 271.41932,484.36286 z M 373.99627,417.28979 L 373.99627,461.16091 L 388.9215,461.16091 L 388.9215,417.28979 L 373.99627,417.28979 z M 391.1829,404.89733 C 391.1829,409.14152 386.96837,412.58608 381.77548,412.58608 C 376.58259,412.58608 372.36807,409.14152 372.36807,404.89733 C 372.36807,400.65314 376.58259,397.20858 381.77548,397.20858 C 386.96837,397.20858 391.1829,400.65314 391.1829,404.89733 z M 311.21993,460.84432 L 327.95427,460.84432 L 327.95427,442.57223 L 359.79475,442.57223 L 359.79475,428.91338 L 327.86381,428.91338 L 327.86381,414.62135 L 363.95572,414.62135 L 363.95572,400.41977 L 311.12947,400.41977 L 311.21993,460.84432 z"
       sodipodi:nodetypes="cccccccccccccccccccccccccsccsccssccsccsccscccccccccccccccccccccsssccccscccccsccccccccssscccccccccccc" />
    <path
       style="fill:#ffffff;fill-opacity:1"
       d="m 38.354192,125.39247 c -0.447841,-1.33494 -13.57503,-58.49942 -13.57503,-59.114671 0,-0.48498 1.9789,-0.63957 8.187134,-0.63957 4.502924,0 8.186134,0.172698 8.18491,0.383772 -0.0037,0.647807 4.627377,31.001373 4.937987,32.364766 0.270505,1.187355 0.318138,1.205732 0.663146,0.255848 0.204438,-0.562865 1.849042,-8.224778 3.654674,-17.026473 l 3.282968,-16.003081 7.397918,0.140508 7.397918,0.140508 3.351251,16.207259 c 1.843189,8.913993 3.491965,16.347975 3.663951,16.519961 0.410989,0.410989 0.489125,-0.03701 3.052972,-17.504267 l 2.196869,-14.967105 8.08871,0 c 4.448792,0 8.088715,0.146356 8.088715,0.325235 0,0.369669 -13.215396,57.27129 -13.620925,58.64772 -0.235948,0.80083 -1.067679,0.89547 -7.870303,0.89547 -6.80128,0 -7.634776,-0.0948 -7.873834,-0.89547 -0.147049,-0.49251 -1.662973,-8.2484 -3.368722,-17.23531 -1.70575,-8.986918 -3.207377,-16.445862 -3.336949,-16.575435 -0.399998,-0.399997 -0.6438,0.693065 -3.974724,17.820245 l -3.234254,16.63012 -7.537598,0.14166 c -5.760068,0.10826 -7.589287,-0.0124 -7.756784,-0.51169 l 0,0 z"
       id="path2814"
       transform="translate(145.14287,334.86218)" />
    <path
       style="fill:#ffffff;fill-opacity:1"
       d="m 105.62712,104.27127 0,-21.747076 7.16374,0 7.16374,0 0,21.747076 0,21.74708 -7.16374,0 -7.16374,0 0,-21.74708 z"
       id="path2816"
       transform="translate(145.14287,334.86218)" />
    <path
       style="fill:#ffffff;fill-opacity:1"
       d="m 109.87745,76.869158 c -0.89879,-0.274794 -2.43346,-1.253464 -3.41039,-2.174822 -3.38782,-3.195125 -2.84853,-7.712365 1.24406,-10.420717 1.77034,-1.171553 2.73293,-1.434018 5.28517,-1.441081 11.80196,-0.03266 12.57809,13.617509 0.81796,14.385811 -1.26645,0.08274 -3.03801,-0.0744 -3.9368,-0.349191 z"
       id="path2818"
       transform="translate(145.14287,334.86218)" />
    <path
       style="fill:#ffffff;fill-opacity:1"
       d="m 131.32077,145.03949 c 5.99946,-6.27956 9.7733,-12.3945 12.21262,-19.78869 1.14295,-3.46456 1.19165,-4.34438 1.4868,-26.864033 0.32797,-25.023316 0.28749,-24.638195 3.19979,-30.445906 1.70145,-3.393049 5.82578,-8.649151 9.52503,-12.138837 4.09514,-3.863152 8.24462,-6.493302 12.86749,-8.156074 l 3.32602,-1.196317 31.72515,0 c 34.90986,0 34.3956,-0.0405 41.44736,3.264291 8.94786,4.193392 17.21604,14.283171 19.4424,23.725842 1.12494,4.77119 1.11347,44.373344 -0.0141,48.761274 -2.33503,9.08667 -8.82127,17.19952 -18.26049,22.83986 -7.16609,4.28206 -2.63115,4.00376 -65.24325,4.00376 l -55.54131,0 3.82652,-4.00517 z m 112.46424,-40.76822 0,-22.258772 -7.67544,0 -7.67544,0 0,22.258772 0,22.25877 7.67544,0 7.67544,0 0,-22.25877 z m -60.89181,12.7924 0,-8.95468 16.11842,0 16.11842,0 0,-7.16374 0,-7.163746 -16.11842,0 -16.11842,0 0,-6.907895 0,-6.907894 18.1652,0 18.16521,0 0,-7.419591 0,-7.419591 -26.94439,0 -26.9444,0 0.33621,8.524707 c 0.18491,4.688588 0.3362,18.389246 0.3362,30.44591 l 0,21.9212 8.44299,0 8.44298,0 0,-8.95468 z m 57.44753,-39.686008 c 5.50647,-1.529182 7.77524,-8.26653 4.05144,-12.0312 -4.33496,-4.382541 -11.79449,-4.258949 -15.59558,0.258391 -2.58713,3.074625 -2.45591,6.604646 0.34982,9.410366 2.64079,2.640792 6.9314,3.54628 11.19432,2.362443 l 0,0 z"
       id="path2820"
       transform="translate(145.14287,334.86218)" />
  </g>
</svg>
