<?xml version="1.0" encoding="UTF-8" standalone="no"?>
<!DOCTYPE svg PUBLIC "-//W3C//DTD SVG 20010904//EN"
"http://www.w3.org/TR/2001/REC-SVG-20010904/DTD/svg10.dtd">
<!-- Created with Inkscape (http://www.inkscape.org/) -->
<svg
   id="svg1"
   sodipodi:version="0.32"
   inkscape:version="0.40"
   width="30.000000cm"
   height="10.000000cm"
   sodipodi:docbase="/Users/danigm/Documents/linuxHispano/tira"
   sodipodi:docname="wireless.svg"
   xmlns="http://www.w3.org/2000/svg"
   xmlns:cc="http://web.resource.org/cc/"
   xmlns:inkscape="http://www.inkscape.org/namespaces/inkscape"
   xmlns:sodipodi="http://sodipodi.sourceforge.net/DTD/sodipodi-0.dtd"
   xmlns:rdf="http://www.w3.org/1999/02/22-rdf-syntax-ns#"
   xmlns:dc="http://purl.org/dc/elements/1.1/"
   xmlns:xlink="http://www.w3.org/1999/xlink"
   inkscape:export-filename="/Users/danigm/Documents/linuxHispano/tira/wireless.png"
   inkscape:export-xdpi="59.270000"
   inkscape:export-ydpi="59.270000">
  <defs
     id="defs3">
    <marker
       style="overflow:visible;"
       id="Arrow1L"
       refX="0.0"
       refY="0.0"
       orient="auto"
       inkscape:stockid="Arrow1L">
      <path
         transform="scale(0.8)"
         style="fill-rule:evenodd;stroke:#000000;stroke-width:1.0pt;marker-start:none;"
         d="M 0.0,0.0 L 5.0,-5.0 L -12.5,0.0 L 5.0,5.0 L 0.0,0.0 z "
         id="path2423"
         sodipodi:nodetypes="ccccc" />
    </marker>
    <linearGradient
       id="linearGradient1594">
      <stop
         style="stop-color:#000;stop-opacity:1;"
         offset="0"
         id="stop1595" />
      <stop
         style="stop-color:#fff;stop-opacity:1;"
         offset="1"
         id="stop1596" />
    </linearGradient>
    <linearGradient
       id="linearGradient1939">
      <stop
         style="stop-color:#000;stop-opacity:1;"
         offset="0"
         id="stop1940" />
      <stop
         style="stop-color:#fff;stop-opacity:1;"
         offset="1"
         id="stop1941" />
    </linearGradient>
  </defs>
  <sodipodi:namedview
     id="base"
     pagecolor="#ffffff"
     bordercolor="#666666"
     borderopacity="1.0"
     inkscape:pageopacity="0.0"
     inkscape:pageshadow="2"
     inkscape:zoom="0.66028245"
     inkscape:cx="873.62776"
     inkscape:cy="238.46366"
     inkscape:window-width="1024"
     inkscape:window-height="681"
     showgrid="true"
     inkscape:grid-bbox="true"
     inkscape:window-x="0"
     inkscape:window-y="22"
     showguides="true"
     inkscape:guide-bbox="true"
     inkscape:current-layer="svg1" />
  <metadata
     id="metadata4">
    <rdf:RDF
       id="RDF5">
      <cc:Work
         rdf:about=""
         id="Work6">
        <dc:format
           id="format7">image/svg+xml</dc:format>
        <dc:type
           id="type9"
           rdf:resource="http://purl.org/dc/dcmitype/StillImage" />
      </cc:Work>
    </rdf:RDF>
  </metadata>
  <path
     style="fill:#ffffff;fill-opacity:0.76219511;fill-rule:evenodd;stroke:#000000;stroke-width:3.7500000;stroke-linecap:butt;stroke-linejoin:miter;stroke-miterlimit:4.0000000;stroke-opacity:1.0000000"
     d="M 829.19059,35.338416 L 798.90052,27.765899 L 804.57991,40.071239 L 748.73260,55.216272 L 777.12954,80.773517 L 734.53413,134.72770 L 790.38144,130.94145 L 776.18297,183.00250 L 871.78600,141.35366 L 915.32797,164.07121 L 915.32797,155.55213 L 948.45773,165.01777 L 943.72491,145.13992 L 1013.7707,157.44525 L 999.57226,130.94145 L 1036.4883,112.01015 L 1000.5188,75.094129 L 1028.9158,30.605593 L 983.48066,41.964368 L 955.08368,7.8880426 L 919.11423,37.231545 L 873.67913,10.727736 L 854.74784,37.231545 L 822.56464,8.8346072 L 829.19059,35.338416 z "
     id="path2750" />
  <path
     style="fill:#12ff00;fill-opacity:1.0000000;fill-rule:evenodd;stroke:#000000;stroke-width:1.2500000;stroke-linecap:butt;stroke-linejoin:miter;stroke-opacity:1.0000000;stroke-miterlimit:4.0000000;stroke-dasharray:none;"
     d="M 958.13480,313.16737 L 939.72844,323.54187 C 936.04717,324.54585 944.74836,294.76101 944.74836,294.76101 L 932.70056,290.74507 L 930.69259,325.88449 C 932.70056,334.25102 938.38980,332.57771 942.07107,331.23907 L 956.46150,319.52593 L 958.13480,313.16737 z "
     id="path2742"
     sodipodi:nodetypes="cccccccc" />
  <path
     style="fill:#ffd8a5;fill-opacity:1.0000000;fill-rule:evenodd;stroke:#000000;stroke-width:1.2500000;stroke-linecap:butt;stroke-linejoin:miter;stroke-opacity:1.0000000;stroke-miterlimit:4.0000000;stroke-dasharray:none;"
     d="M 932.70056,290.74507 C 932.03124,276.68931 941.40175,277.35863 941.40175,277.35863 C 950.43760,283.04787 947.09099,287.39846 947.09099,287.39846 C 945.75234,292.75304 944.41370,294.42635 944.41370,294.42635 L 932.70056,290.74507 z "
     id="path2743" />
  <path
     style="fill:#ffac00;fill-opacity:1.0000000;fill-rule:evenodd;stroke:#000000;stroke-width:1.2500000;stroke-linecap:butt;stroke-linejoin:miter;stroke-miterlimit:4.0000000;stroke-opacity:1.0000000;stroke-dasharray:none;"
     d="M 648.87534,311.15940 L 675.26757,294.76101 L 646.82262,285.39050 L 651.22131,260.96023 L 689.05017,288.73711 C 691.68940,293.08770 689.63667,297.43830 689.63667,297.43830 C 687.29069,299.78092 651.22131,318.52195 651.22131,318.52195 L 648.87534,311.15940 z "
     id="path2737" />
  <path
     style="fill:#ffffff;fill-opacity:0.75609756;stroke-width:3.7500000;stroke-miterlimit:4.0000000;stroke:#000000;stroke-opacity:1.0000000;stroke-dasharray:none;"
     d="M 204.93750 5.0625000 C 152.42588 5.0625000 109.81250 31.116025 109.81250 63.250000 C 109.81250 75.476564 115.99414 86.848205 126.53125 96.218750 C 122.65961 96.045979 118.77213 95.906250 114.81250 95.906250 C 41.661988 95.906250 -17.718750 125.99599 -17.718750 163.09375 C -17.718750 200.19151 41.661991 230.31250 114.81250 230.31250 C 187.96301 230.31250 247.31250 200.19151 247.31250 163.09375 C 247.31250 147.09053 236.24865 132.42105 217.81250 120.87500 C 264.22280 117.01503 300.06251 92.703736 300.06250 63.250000 C 300.06250 31.116025 257.44912 5.0625000 204.93750 5.0625000 z "
     id="path2104" />
  <path
     style="fill:#ffac00;fill-opacity:1.0000000;fill-rule:evenodd;stroke:#000000;stroke-width:1.2500000;stroke-linecap:butt;stroke-linejoin:miter;stroke-miterlimit:4.0000000;stroke-opacity:1.0000000"
     d="M 584.79739,321.43757 L 608.46151,313.62841 L 606.09510,320.49100 L 590.95006,330.66657 L 584.79739,321.43757 z "
     id="path2076" />
  <path
     style="fill:#ffac00;fill-opacity:1.0000000;fill-rule:evenodd;stroke:#000000;stroke-width:1.2500000;stroke-linecap:butt;stroke-linejoin:miter;stroke-opacity:1.0000000;stroke-miterlimit:4.0000000;stroke-dasharray:none;"
     d="M 193.57246,321.43757 L 217.23658,313.62841 L 214.87017,320.49100 L 199.72513,330.66657 L 193.57246,321.43757 z "
     id="path2072" />
  <path
     style="fill:#ffd4a5;fill-opacity:1.0000000;fill-rule:evenodd;stroke:#000000;stroke-width:1.2500000;stroke-linecap:butt;stroke-linejoin:miter;stroke-opacity:1.0000000;stroke-miterlimit:4.0000000;stroke-dasharray:none;"
     d="M 277.18916,343.96391 C 286.43519,351.56408 276.87433,363.40108 266.23859,364.06337 C 259.06559,364.51004 262.13233,344.01118 255.64009,344.93865"
     id="path1414"
     sodipodi:nodetypes="csc" />
  <g
     id="g2078"
     transform="matrix(0.812948,0.000000,0.000000,0.783260,541.4378,187.4150)"
     style="fill:#ffffff;fill-opacity:1.0000000">
    <path
       style="fill-rule:evenodd;stroke:#000000;stroke-width:1.0000000pt;stroke-linecap:butt;stroke-linejoin:miter;stroke-opacity:1.0000000"
       d="M 71.952143,213.60568 L 63.250954,252.59370 C 82.159308,253.59769 105.25093,253.09570 105.25093,253.09570 C 130.18318,252.25904 149.92819,253.59769 149.92819,253.59769 C 145.74492,235.19132 142.06365,212.26704 142.06365,212.26704"
       id="path2079"
       sodipodi:nodetypes="ccccc" />
    <g
       id="g2080">
      <path
         style="fill-rule:evenodd;stroke:#000000;stroke-width:1.0000000pt;stroke-linecap:butt;stroke-linejoin:miter;stroke-opacity:1.0000000"
         d="M 99.729017,219.62958 C 96.884397,230.33874 97.219058,230.50607 97.219058,230.50607 L 112.61347,229.50209"
         id="path2081" />
      <path
         style="fill-rule:evenodd;stroke:#000000;stroke-width:1.0000000pt;stroke-linecap:butt;stroke-linejoin:miter;stroke-opacity:1.0000000"
         d="M 107.28564,223.27837 L 106.39550,253.63017"
         id="path2082" />
    </g>
  </g>
  <g
     id="g1415"
     transform="matrix(0.812948,0.000000,0.000000,0.783260,150.2129,187.4150)"
     style="fill:#ffffff;fill-opacity:1.0000000">
    <path
       style="fill-rule:evenodd;stroke:#000000;stroke-width:1.0000000pt;stroke-linecap:butt;stroke-linejoin:miter;stroke-opacity:1.0000000"
       d="M 71.952143,213.60568 L 63.250954,252.59370 C 82.159308,253.59769 105.25093,253.09570 105.25093,253.09570 C 130.18318,252.25904 149.92819,253.59769 149.92819,253.59769 C 145.74492,235.19132 142.06365,212.26704 142.06365,212.26704"
       id="path1416"
       sodipodi:nodetypes="ccccc" />
    <g
       id="g1417">
      <path
         style="fill-rule:evenodd;stroke:#000000;stroke-width:1.0000000pt;stroke-linecap:butt;stroke-linejoin:miter;stroke-opacity:1.0000000"
         d="M 99.729017,219.62958 C 96.884397,230.33874 97.219058,230.50607 97.219058,230.50607 L 112.61347,229.50209"
         id="path1418" />
      <path
         style="fill-rule:evenodd;stroke:#000000;stroke-width:1.0000000pt;stroke-linecap:butt;stroke-linejoin:miter;stroke-opacity:1.0000000"
         d="M 107.28564,223.27837 L 106.39550,253.63017"
         id="path1419" />
    </g>
  </g>
  <path
     style="fill:#ffac00;fill-opacity:1.0000000;fill-rule:evenodd;stroke:#000000;stroke-width:1.0000000pt;stroke-linecap:butt;stroke-linejoin:miter;stroke-opacity:1.0000000"
     d="M 255.41085,308.24299 C 274.98852,327.65334 276.99649,344.21906 276.99649,344.21906 L 266.62200,345.39038"
     id="path1421" />
  <path
     style="fill:#ffac00;fill-opacity:1.0000000;fill-rule:evenodd;stroke:#000000;stroke-width:0.76124701pt;stroke-linecap:butt;stroke-linejoin:miter;stroke-opacity:1.0000000"
     d="M 609.04708,313.10768 C 598.16475,338.28228 598.12298,354.45282 598.12298,354.45282 C 634.84431,357.13083 627.59286,356.72004 658.05340,353.75623 C 657.98092,334.48282 650.49870,313.74185 650.49870,313.74185 L 648.81744,309.99261"
     id="path2084"
     sodipodi:nodetypes="ccccc" />
  <path
     style="fill:#ffac00;fill-opacity:1.0000000;fill-rule:evenodd;stroke:#000000;stroke-width:0.76124701pt;stroke-linecap:butt;stroke-linejoin:miter;stroke-opacity:1.0000000"
     d="M 217.82215,313.10768 C 206.93982,338.28228 206.89805,354.45282 206.89805,354.45282 C 243.61938,357.13083 236.36793,356.72004 266.82847,353.75623 C 266.75599,334.48282 259.27377,313.74185 259.27377,313.74185 L 257.59251,309.99261"
     id="path1422"
     sodipodi:nodetypes="ccccc" />
  <path
     id="path2085"
     style="fill:#ffd4a5;fill-opacity:1.0000000;fill-rule:evenodd;stroke:#000000;stroke-width:1.0000000pt;stroke-linecap:butt;stroke-linejoin:miter;stroke-opacity:1.0000000"
     d="M 584.91359,274.45607 C 582.28307,274.99219 580.29851,276.68382 580.07635,278.85595 C 579.78015,281.75211 582.73179,284.42367 586.65254,284.82468 C 589.18853,285.08406 588.59215,285.23470 590.59166,285.06809 C 589.80610,280.33321 589.95921,277.30993 590.25337,274.91255 C 589.06314,273.80510 589.71947,274.52146 587.72894,274.31787 C 586.74875,274.21762 585.79043,274.27735 584.91359,274.45607 z M 668.92822,272.75797 C 671.60303,272.98707 673.76948,274.43847 674.24072,276.57047 C 674.86905,279.41313 672.24530,282.40735 668.39697,283.25797 C 665.90783,283.80816 664.02332,283.52009 662.70573,282.57834 C 663.09228,282.17403 663.21538,276.33524 662.61651,274.92050 C 663.67104,273.68314 664.16196,273.37732 666.11572,272.94547 C 667.07780,272.73282 668.03662,272.68160 668.92822,272.75797 z M 590.02752,278.86218 C 590.02752,300.61674 606.33660,318.27262 626.43173,318.27262 C 646.52685,318.27262 662.83594,300.61674 662.83594,278.86218 C 662.83594,257.10762 646.52685,239.45175 626.43173,239.45175 C 606.33660,239.45175 590.02752,257.10762 590.02752,278.86218 z " />
  <path
     id="path1423"
     style="fill:#ffd4a5;fill-opacity:1.0000000;fill-rule:evenodd;stroke:#000000;stroke-width:1.0000000pt;stroke-linecap:butt;stroke-linejoin:miter;stroke-opacity:1.0000000"
     d="M 193.68866,274.45607 C 191.05814,274.99219 189.07358,276.68382 188.85142,278.85595 C 188.55522,281.75211 191.50686,284.42367 195.42761,284.82468 C 197.96360,285.08406 197.36722,285.23470 199.36673,285.06809 C 198.58117,280.33321 198.73428,277.30993 199.02844,274.91255 C 197.83821,273.80510 198.49454,274.52146 196.50401,274.31787 C 195.52382,274.21762 194.56550,274.27735 193.68866,274.45607 z M 277.70329,272.75797 C 280.37810,272.98707 282.54455,274.43847 283.01579,276.57047 C 283.64412,279.41313 281.02037,282.40735 277.17204,283.25797 C 274.68290,283.80816 272.79839,283.52009 271.48080,282.57834 C 271.86735,282.17403 271.99045,276.33524 271.39158,274.92050 C 272.44611,273.68314 272.93703,273.37732 274.89079,272.94547 C 275.85287,272.73282 276.81169,272.68160 277.70329,272.75797 z M 198.80259,278.86218 C 198.80259,300.61674 215.11167,318.27262 235.20680,318.27262 C 255.30192,318.27262 271.61101,300.61674 271.61101,278.86218 C 271.61101,257.10762 255.30192,239.45175 235.20680,239.45175 C 215.11167,239.45175 198.80259,257.10762 198.80259,278.86218 z " />
  <path
     style="fill:none;fill-opacity:0.75000000;fill-rule:evenodd;stroke:#000000;stroke-width:5.0000000;stroke-linecap:butt;stroke-linejoin:miter;stroke-opacity:1.0000000;stroke-miterlimit:4.0000000;stroke-dasharray:none;"
     d="M 347.58644,-193.22543 L 347.58644,444.56985"
     id="path908" />
  <path
     style="fill:none;fill-opacity:0.75000000;fill-rule:evenodd;stroke:#000000;stroke-width:5.0000000;stroke-linecap:butt;stroke-linejoin:miter;stroke-miterlimit:4.0000000;stroke-opacity:1.0000000;"
     d="M 361.42995,-192.27887 L 361.42995,445.51641"
     id="path1746" />
  <path
     style="fill:#000000;fill-opacity:0.0000000;fill-rule:evenodd;stroke:#000000;stroke-width:5.0000000;stroke-linecap:butt;stroke-linejoin:miter;stroke-miterlimit:4.0000000;stroke-opacity:1.0000000;"
     d="M 702.54817,-195.11856 L 702.54817,442.67672"
     id="path1747" />
  <path
     style="fill:#000000;fill-opacity:0.0000000;fill-rule:evenodd;stroke:#000000;stroke-width:5.0000000;stroke-linecap:butt;stroke-linejoin:miter;stroke-miterlimit:4.0000000;stroke-opacity:1.0000000;"
     d="M 716.39168,-194.17200 L 716.39168,443.62328"
     id="path1748" />
  <path
     style="fill:#ffd8a5;fill-opacity:1.0000000;fill-rule:evenodd;stroke:#000000;stroke-width:1.0000000pt;stroke-linecap:butt;stroke-linejoin:miter;stroke-opacity:1.0000000"
     d="M 999.23349,367.96496 C 993.48829,386.52652 981.11389,371.05856 981.11389,371.05856 C 975.81059,348.96147 990.83659,356.03254 990.83659,356.03254 L 999.23349,367.96496 z "
     id="path1796" />
  <path
     sodipodi:type="arc"
     style="fill:#ffffff;fill-opacity:1.0000000;fill-rule:evenodd;stroke:#000000;stroke-width:1.0000000pt;stroke-linecap:butt;stroke-linejoin:miter;stroke-opacity:1.0000000"
     id="path2086"
     sodipodi:cx="97.496155"
     sodipodi:cy="109.40710"
     sodipodi:rx="14.671752"
     sodipodi:ry="16.328239"
     d="M 112.16791 109.40710 A 14.671752 16.328239 0 1 1  82.824403,109.40710 A 14.671752 16.328239 0 1 1  112.16791 109.40710 z"
     transform="translate(517.6309,163.8580)" />
  <path
     sodipodi:type="arc"
     style="fill:#ffffff;fill-opacity:1.0000000;fill-rule:evenodd;stroke:#000000;stroke-width:1.0000000pt;stroke-linecap:butt;stroke-linejoin:miter;stroke-opacity:1.0000000"
     id="path1424"
     sodipodi:cx="97.496155"
     sodipodi:cy="109.40710"
     sodipodi:rx="14.671752"
     sodipodi:ry="16.328239"
     d="M 112.16791 109.40710 A 14.671752 16.328239 0 1 1  82.824403,109.40710 A 14.671752 16.328239 0 1 1  112.16791 109.40710 z"
     transform="translate(126.4060,163.8580)" />
  <path
     sodipodi:type="arc"
     style="fill:#ffffff;fill-opacity:1.0000000;fill-rule:evenodd;stroke:#000000;stroke-width:1.0000000pt;stroke-linecap:butt;stroke-linejoin:miter;stroke-opacity:1.0000000"
     id="path2087"
     sodipodi:cx="131.33585"
     sodipodi:cy="116.97961"
     sodipodi:rx="9.7022877"
     sodipodi:ry="8.7557230"
     d="M 141.03813 116.97961 A 9.7022877 8.7557230 0 1 1  121.63356,116.97961 A 9.7022877 8.7557230 0 1 1  141.03813 116.97961 z"
     transform="matrix(1.000000,0.000000,0.000000,1.277490,511.5550,127.3558)" />
  <path
     sodipodi:type="arc"
     style="fill:#ffffff;fill-opacity:1.0000000;fill-rule:evenodd;stroke:#000000;stroke-width:1.0000000pt;stroke-linecap:butt;stroke-linejoin:miter;stroke-opacity:1.0000000"
     id="path1425"
     sodipodi:cx="131.33585"
     sodipodi:cy="116.97961"
     sodipodi:rx="9.7022877"
     sodipodi:ry="8.7557230"
     d="M 141.03813 116.97961 A 9.7022877 8.7557230 0 1 1  121.63356,116.97961 A 9.7022877 8.7557230 0 1 1  141.03813 116.97961 z"
     transform="matrix(1.000000,0.000000,0.000000,1.277490,120.3301,127.3558)" />
  <g
     id="g2088"
     transform="translate(520.1409,158.6051)">
    <path
       style="fill:none;fill-opacity:0.75000000;fill-rule:evenodd;stroke:#000000;stroke-width:0.40240240pt;stroke-linecap:butt;stroke-linejoin:miter;stroke-opacity:1.0000000"
       d="M 104.07005,135.68203 C 113.58954,130.06747 119.46842,134.61965 119.46842,134.61965"
       id="path2089"
       sodipodi:nodetypes="cc" />
    <path
       style="fill:none;fill-opacity:0.75000000;fill-rule:evenodd;stroke:#000000;stroke-width:0.42686400pt;stroke-linecap:butt;stroke-linejoin:miter;stroke-opacity:1.0000000"
       d="M 103.70595,132.44485 C 112.22737,125.38695 117.48989,131.10936 117.48989,131.10936"
       id="path2090"
       sodipodi:nodetypes="cc" />
  </g>
  <g
     id="g1426"
     transform="translate(128.9160,158.6051)">
    <path
       style="fill:none;fill-opacity:0.75000000;fill-rule:evenodd;stroke:#000000;stroke-width:0.40240240pt;stroke-linecap:butt;stroke-linejoin:miter;stroke-opacity:1.0000000"
       d="M 104.07005,135.68203 C 113.58954,130.06747 119.46842,134.61965 119.46842,134.61965"
       id="path1427"
       sodipodi:nodetypes="cc" />
    <path
       style="fill:none;fill-opacity:0.75000000;fill-rule:evenodd;stroke:#000000;stroke-width:0.42686400pt;stroke-linecap:butt;stroke-linejoin:miter;stroke-opacity:1.0000000"
       d="M 103.70595,132.44485 C 112.22737,125.38695 117.48989,131.10936 117.48989,131.10936"
       id="path1428"
       sodipodi:nodetypes="cc" />
  </g>
  <path
     style="fill:none;fill-opacity:0.75000000;fill-rule:evenodd;stroke:#000000;stroke-width:0.82342596pt;stroke-linecap:butt;stroke-linejoin:miter;stroke-opacity:1.0000000"
     d="M 661.64996,386.27007 C 693.12303,391.71575 677.25750,409.52459 677.25750,409.52459 C 669.26025,416.29490 627.85511,407.75843 627.85511,407.75843 L 628.24207,386.27007"
     id="path2091"
     sodipodi:nodetypes="cccc" />
  <path
     style="fill:none;fill-opacity:0.75000000;fill-rule:evenodd;stroke:#000000;stroke-width:0.82342596pt;stroke-linecap:butt;stroke-linejoin:miter;stroke-opacity:1.0000000"
     d="M 270.42503,386.27007 C 301.89810,391.71575 286.03257,409.52459 286.03257,409.52459 C 278.03532,416.29490 236.63018,407.75843 236.63018,407.75843 L 237.01714,386.27007"
     id="path1429"
     sodipodi:nodetypes="cccc" />
  <g
     id="g2092"
     transform="translate(520.1409,158.6051)">
    <path
       style="fill:none;fill-opacity:0.75000000;fill-rule:evenodd;stroke:#000000;stroke-width:1.0000000pt;stroke-linecap:butt;stroke-linejoin:miter;stroke-opacity:1.0000000"
       d="M 98.725033,84.259156 L 110.10351,73.884661"
       id="path2093" />
    <path
       style="fill:none;fill-opacity:0.75000000;fill-rule:evenodd;stroke:#000000;stroke-width:1.0000000pt;stroke-linecap:butt;stroke-linejoin:miter;stroke-opacity:1.0000000"
       d="M 107.09156,83.589834 L 122.82063,77.231273"
       id="path2094" />
    <path
       style="fill:none;fill-opacity:0.75000000;fill-rule:evenodd;stroke:#000000;stroke-width:1.0000000pt;stroke-linecap:butt;stroke-linejoin:miter;stroke-opacity:1.0000000"
       d="M 120.14335,86.936445 L 136.20708,84.593818"
       id="path2095" />
  </g>
  <g
     id="g1431"
     transform="translate(128.9160,158.6051)">
    <path
       style="fill:none;fill-opacity:0.75000000;fill-rule:evenodd;stroke:#000000;stroke-width:1.0000000pt;stroke-linecap:butt;stroke-linejoin:miter;stroke-opacity:1.0000000"
       d="M 98.725033,84.259156 L 110.10351,73.884661"
       id="path1432" />
    <path
       style="fill:none;fill-opacity:0.75000000;fill-rule:evenodd;stroke:#000000;stroke-width:1.0000000pt;stroke-linecap:butt;stroke-linejoin:miter;stroke-opacity:1.0000000"
       d="M 107.09156,83.589834 L 122.82063,77.231273"
       id="path1433" />
    <path
       style="fill:none;fill-opacity:0.75000000;fill-rule:evenodd;stroke:#000000;stroke-width:1.0000000pt;stroke-linecap:butt;stroke-linejoin:miter;stroke-opacity:1.0000000"
       d="M 120.14335,86.936445 L 136.20708,84.593818"
       id="path1434" />
  </g>
  <path
     style="fill:none;fill-opacity:0.75000000;fill-rule:evenodd;stroke:#000000;stroke-width:0.82342596pt;stroke-linecap:butt;stroke-linejoin:miter;stroke-opacity:1.0000000"
     d="M 594.70522,385.62123 C 563.23215,391.06691 579.09767,408.87575 579.09767,408.87575 C 587.09493,415.64606 627.72614,408.13985 627.72614,408.13985 L 628.11310,385.62123"
     id="path2096"
     sodipodi:nodetypes="cccc" />
  <path
     style="fill:none;fill-opacity:0.75000000;fill-rule:evenodd;stroke:#000000;stroke-width:0.82342596pt;stroke-linecap:butt;stroke-linejoin:miter;stroke-opacity:1.0000000"
     d="M 203.48029,385.62123 C 172.00722,391.06691 187.87274,408.87575 187.87274,408.87575 C 195.87000,415.64606 236.50121,408.13985 236.50121,408.13985 L 236.88817,385.62123"
     id="path1435"
     sodipodi:nodetypes="cccc" />
  <path
     style="fill:#12ff00;fill-opacity:1.0000000;fill-rule:evenodd;stroke:#000000;stroke-width:1.0000000pt;stroke-linecap:butt;stroke-linejoin:miter;stroke-opacity:1.0000000"
     d="M 979.75399,311.59234 C 989.12899,351.27984 989.44149,372.21734 989.44149,372.21734 C 967.56649,373.46734 949.44145,371.27984 949.44145,371.27984 C 954.12895,316.90484 958.50395,311.90484 958.50395,311.90484 L 979.75399,311.59234 z "
     id="path1759" />
  <path
     sodipodi:type="arc"
     style="fill:#ffd8a5;fill-opacity:1.0000000;fill-rule:evenodd;stroke:#000000;stroke-width:1.0000000pt;stroke-linecap:butt;stroke-linejoin:miter;stroke-opacity:1.0000000"
     id="path1762"
     sodipodi:cx="783.12500"
     sodipodi:cy="98.705688"
     sodipodi:rx="27.500000"
     sodipodi:ry="45.000000"
     d="M 810.62500 98.705688 A 27.500000 45.000000 0 1 1  755.62500,98.705688 A 27.500000 45.000000 0 1 1  810.62500 98.705688 z"
     transform="matrix(-1.000000,0.000000,0.000000,1.000000,1751.629,171.6366)" />
  <path
     sodipodi:type="arc"
     style="fill:#ff0000;fill-opacity:1.0000000;fill-rule:evenodd;stroke:#000000;stroke-width:1.0000000pt;stroke-linecap:butt;stroke-linejoin:miter;stroke-opacity:1.0000000"
     id="path1812"
     sodipodi:cx="783.12500"
     sodipodi:cy="98.705688"
     sodipodi:rx="27.500000"
     sodipodi:ry="45.000000"
     d="M 810.25625,106.05026 A 27.500000,45.000000 0 0 1 756.15352,107.48573"
     transform="matrix(1.000000,0.000000,0.000000,-1.000000,185.9144,368.9259)"
     sodipodi:start="0.16394621"
     sodipodi:end="2.9452210"
     sodipodi:open="true" />
  <rect
     style="fill:#b40000;fill-opacity:1.0000000;fill-rule:evenodd;stroke:#000000;stroke-width:1.0000000pt;stroke-linecap:butt;stroke-linejoin:miter;stroke-opacity:1.0000000"
     id="rect1763"
     width="62.780510"
     height="9.9729338"
     x="-999.72241"
     y="256.59235"
     rx="3.4491327"
     ry="4.0741329"
     transform="scale(-1.000000,1.000000)" />
  <g
     id="g1780"
     transform="matrix(-1.000000,0.000000,0.000000,1.000000,1748.504,197.8866)"
     style="fill:#0c00ff;fill-opacity:1.0000000">
    <path
       style="fill-rule:evenodd;stroke:#000000;stroke-width:1.0000000pt;stroke-linecap:butt;stroke-linejoin:miter;stroke-opacity:1.0000000"
       d="M 759.68750,174.95569 L 753.12500,227.76819 L 779.68750,228.39319 L 800.93750,228.08069 L 797.18750,173.70569 L 759.68750,174.95569 z "
       id="path1781" />
    <g
       id="g1782" />
  </g>
  <path
     style="fill:none;fill-opacity:0.75000000;fill-rule:evenodd;stroke:#000000;stroke-width:1.0000000pt;stroke-linecap:butt;stroke-linejoin:miter;stroke-opacity:1.0000000"
     d="M 995.37899,426.27984 C 1021.0040,426.27984 1020.0665,430.34234 1020.6915,435.02984 C 1015.6915,440.65484 1007.5665,439.71734 1004.1290,440.34234 L 971.62899,440.34234 L 971.00399,425.96734 L 995.37899,426.27984 z "
     id="path1789"
     sodipodi:nodetypes="cccccc" />
  <path
     style="fill:none;fill-opacity:0.75000000;fill-rule:evenodd;stroke:#000000;stroke-width:1.0000000pt;stroke-linecap:butt;stroke-linejoin:miter;stroke-opacity:1.0000000"
     d="M 947.19735,426.95159 C 921.57234,426.95159 922.50984,431.01409 921.88484,435.70159 C 926.88484,441.32659 935.00984,440.38909 938.44734,441.01409 L 971.57239,440.70159 L 970.63489,426.95159 L 947.19735,426.95159 z "
     id="path1790"
     sodipodi:nodetypes="cccccc" />
  <path
     style="fill:none;fill-opacity:0.75000000;fill-rule:evenodd;stroke:#000000;stroke-width:1.0000000pt;stroke-linecap:butt;stroke-linejoin:miter;stroke-opacity:1.0000000"
     d="M 960.44226,390.55549 C 969.28109,387.46190 979.88769,391.43938 979.88769,391.43938"
     id="path1791" />
  <path
     style="fill:none;fill-opacity:0.75000000;fill-rule:evenodd;stroke:#000000;stroke-width:1.0000000pt;stroke-linecap:butt;stroke-linejoin:miter;stroke-opacity:1.0000000"
     d="M 969.72299,390.11355 L 971.04889,425.02695"
     id="path1792" />
  <path
     style="fill:#12ff00;fill-opacity:1.0000000;fill-rule:evenodd;stroke:#000000;stroke-width:1.0000000pt;stroke-linecap:butt;stroke-linejoin:miter;stroke-opacity:1.0000000"
     d="M 982.83489,320.60594 L 997.81199,335.42525 C 998.47829,339.48119 990.11009,355.74756 990.11009,355.74756 L 999.43279,366.67413 L 1006.9718,340.32519 C 1009.0824,334.70554 1005.4454,331.61916 1005.4454,331.61916 L 980.67889,313.77737 L 982.83489,320.60594 z "
     id="path1794"
     sodipodi:nodetypes="cccccccc" />
  <path
     style="fill:#ffff00;fill-opacity:1.0000000;fill-rule:evenodd;stroke:#000000;stroke-width:1.0000000pt;stroke-linecap:butt;stroke-linejoin:miter;stroke-opacity:1.0000000"
     d="M 941.43876,267.25376 L 937.46129,289.35084 L 946.74206,276.53453 L 941.43876,301.28327 L 952.92924,285.81531 L 945.41624,312.33181 L 961.32609,297.30579 L 964.41969,319.84482 L 973.25859,300.84132 L 986.07489,316.30928 L 982.53929,288.46696 L 993.58789,299.95744 L 989.61039,279.18618 L 1000.2170,288.46696 L 995.35569,267.69570 L 941.43876,267.25376 z "
     id="path1797"
     sodipodi:nodetypes="cccccccccccccccc" />
  <path
     sodipodi:type="arc"
     style="fill:#000000;fill-opacity:1.0000000;fill-rule:evenodd;stroke:#000000;stroke-width:1.0000000pt;stroke-linecap:butt;stroke-linejoin:miter;stroke-opacity:1.0000000"
     id="path2097"
     sodipodi:cx="33.466114"
     sodipodi:cy="558.13934"
     sodipodi:rx="2.0079668"
     sodipodi:ry="2.3426280"
     d="M 35.474081 558.13934 A 2.0079668 2.3426280 0 1 1  31.458147,558.13934 A 2.0079668 2.3426280 0 1 1  35.474081 558.13934 z"
     transform="translate(581.9056,-282.9277)" />
  <path
     sodipodi:type="arc"
     style="fill:#000000;fill-opacity:1.0000000;fill-rule:evenodd;stroke:#000000;stroke-width:1.0000000pt;stroke-linecap:butt;stroke-linejoin:miter;stroke-opacity:1.0000000"
     id="path1441"
     sodipodi:cx="33.466114"
     sodipodi:cy="558.13934"
     sodipodi:rx="2.0079668"
     sodipodi:ry="2.3426280"
     d="M 35.474081 558.13934 A 2.0079668 2.3426280 0 1 1  31.458147,558.13934 A 2.0079668 2.3426280 0 1 1  35.474081 558.13934 z"
     transform="translate(197.7086,-285.6050)" />
  <path
     sodipodi:type="arc"
     style="fill:#000000;fill-opacity:1.0000000;fill-rule:evenodd;stroke:#000000;stroke-width:1.0000000pt;stroke-linecap:butt;stroke-linejoin:miter;stroke-opacity:1.0000000"
     id="path2098"
     sodipodi:cx="33.466114"
     sodipodi:cy="558.13934"
     sodipodi:rx="2.0079668"
     sodipodi:ry="2.3426280"
     d="M 35.474081 558.13934 A 2.0079668 2.3426280 0 1 1  31.458147,558.13934 A 2.0079668 2.3426280 0 1 1  35.474081 558.13934 z"
     transform="translate(609.0132,-281.5890)" />
  <path
     sodipodi:type="arc"
     style="fill:#000000;fill-opacity:1.0000000;fill-rule:evenodd;stroke:#000000;stroke-width:1.0000000pt;stroke-linecap:butt;stroke-linejoin:miter;stroke-opacity:1.0000000"
     id="path1440"
     sodipodi:cx="33.466114"
     sodipodi:cy="558.13934"
     sodipodi:rx="2.0079668"
     sodipodi:ry="2.3426280"
     d="M 35.474081 558.13934 A 2.0079668 2.3426280 0 1 1  31.458147,558.13934 A 2.0079668 2.3426280 0 1 1  35.474081 558.13934 z"
     transform="translate(222.1389,-283.9316)" />
  <text
     xml:space="preserve"
     style="font-size:18.000000;font-style:normal;font-variant:normal;font-weight:normal;font-stretch:normal;fill:#000000;fill-opacity:1.0000000;stroke:none;stroke-width:1.0000000pt;stroke-linecap:butt;stroke-linejoin:miter;stroke-opacity:1.0000000;font-family:Adventure;text-anchor:middle;writing-mode:lr"
     x="87.011894"
     y="33.056007"
     id="text1335"
     transform="translate(117.9740,2.995689)"><tspan
       sodipodi:role="line"
       id="tspan1336"
       x="87.011894"
       y="33.056007">PUES NADA, ESTE</tspan><tspan
       sodipodi:role="line"
       id="tspan1338"
       x="87.011894"
       y="51.056007">FIN DE SEMANA</tspan><tspan
       sodipodi:role="line"
       id="tspan1340"
       x="87.011894"
       y="69.056007">HE ESTADO EN MI </tspan><tspan
       sodipodi:role="line"
       id="tspan1342"
       x="87.011894"
       y="87.056007">PUEBLO, CONECTADO</tspan><tspan
       sodipodi:role="line"
       id="tspan1344"
       x="87.011894"
       y="105.05601">A INTERNET</tspan></text>
  <text
     xml:space="preserve"
     style="font-size:18.000000;font-style:normal;font-variant:normal;font-weight:normal;font-stretch:normal;fill:#000000;fill-opacity:1.0000000;stroke:none;stroke-width:1.0000000pt;stroke-linecap:butt;stroke-linejoin:miter;stroke-opacity:1.0000000;font-family:Adventure;text-anchor:middle;writing-mode:lr"
     x="104.41427"
     y="137.47028"
     id="text1346"
     transform="translate(7.477383,-3.159919)"><tspan
       sodipodi:role="line"
       id="tspan1347"
       x="104.41427"
       y="137.47028">POR LO VISTO UN VECINO</tspan><tspan
       sodipodi:role="line"
       id="tspan1349"
       x="104.41427"
       y="155.47028">SE HA PUESTO ADSL POR</tspan><tspan
       sodipodi:role="line"
       id="tspan1351"
       x="104.41427"
       y="173.47028">WIRELESS, Y DESDE MI </tspan><tspan
       sodipodi:role="line"
       id="tspan1353"
       x="104.41427"
       y="191.47028">CASA TENGO SEÑAL, ASI</tspan><tspan
       sodipodi:role="line"
       id="tspan1358"
       x="104.41427"
       y="209.47028">QUE ME CONECTO DE</tspan><tspan
       sodipodi:role="line"
       id="tspan1360"
       x="104.41427"
       y="227.47028">GRATIS</tspan></text>
  <text
     xml:space="preserve"
     style="font-size:18.000000;font-style:normal;font-variant:normal;font-weight:normal;font-stretch:normal;fill:#000000;fill-opacity:1.0000000;stroke:none;stroke-width:1.0000000pt;stroke-linecap:butt;stroke-linejoin:miter;stroke-opacity:1.0000000;font-family:Adventure;text-anchor:middle;writing-mode:lr"
     x="477.89609"
     y="62.506187"
     id="text1362"
     transform="translate(-58.44728,-9.215976)"><tspan
       sodipodi:role="line"
       id="tspan1363"
       x="477.89609"
       y="62.506187">...</tspan></text>
  <path
     sodipodi:type="arc"
     style="fill:#ffffff;fill-opacity:0.78048778;stroke:#000000;stroke-width:3.7500000;stroke-miterlimit:4.0000000;stroke-opacity:1.0000000"
     id="path2741"
     sodipodi:cx="572.67157"
     sodipodi:cy="127.15518"
     sodipodi:rx="135.35873"
     sodipodi:ry="77.618301"
     d="M 708.03030 127.15518 A 135.35873 77.618301 0 1 1  437.31284,127.15518 A 135.35873 77.618301 0 1 1  708.03030 127.15518 z"
     transform="translate(0.000000,-1.893129)" />
  <text
     xml:space="preserve"
     style="font-size:18.000000;font-style:normal;font-variant:normal;font-weight:normal;font-stretch:normal;fill:#000000;fill-opacity:1.0000000;stroke:none;stroke-width:1.0000000pt;stroke-linecap:butt;stroke-linejoin:miter;stroke-opacity:1.0000000;font-family:Adventure;text-anchor:middle;writing-mode:lr"
     x="499.31439"
     y="85.263145"
     id="text1365"
     transform="translate(69.47373,-1.978079)"><tspan
       sodipodi:role="line"
       id="tspan1366"
       x="499.31439"
       y="85.263145">PUES YO NO SE SI SERA</tspan><tspan
       sodipodi:role="line"
       id="tspan1368"
       x="499.31439"
       y="103.26315">ILEGAL O NO, PERO</tspan><tspan
       sodipodi:role="line"
       id="tspan1370"
       x="499.31439"
       y="121.26315">ME ESTOY BAJANDO TODAS</tspan><tspan
       sodipodi:role="line"
       id="tspan1375"
       x="499.31439"
       y="139.26315">LAS DISTRIBUCIONES LINUX</tspan><tspan
       sodipodi:role="line"
       id="tspan1377"
       x="499.31439"
       y="157.26315">EN DVD, CON TODOS LOS</tspan><tspan
       sodipodi:role="line"
       id="tspan1379"
       x="499.31439"
       y="175.26315">PAQUETES, Y VA BASTANTE</tspan><tspan
       sodipodi:role="line"
       id="tspan1381"
       x="499.31439"
       y="193.26315">RAPIDO....</tspan></text>
  <text
     xml:space="preserve"
     style="font-size:18.000000;font-style:normal;font-variant:normal;font-weight:normal;font-stretch:normal;fill:#000000;fill-opacity:1.0000000;stroke:none;stroke-width:1.0000000pt;stroke-linecap:butt;stroke-linejoin:miter;stroke-opacity:1.0000000;font-family:Adventure;text-anchor:middle;writing-mode:lr"
     x="829.95959"
     y="65.183479"
     id="text1383"
     transform="translate(57.76132,0.385052)"><tspan
       sodipodi:role="line"
       id="tspan1384"
       x="829.95959"
       y="65.183479">...QUE NO!, QUE LE DIGO</tspan><tspan
       sodipodi:role="line"
       id="tspan1386"
       x="829.95959"
       y="83.183479">QUE VA MUY LENTO.</tspan><tspan
       sodipodi:role="line"
       id="tspan1388"
       x="829.95959"
       y="101.18348">YO HE COMPRADO UN </tspan><tspan
       sodipodi:role="line"
       id="tspan1393"
       x="829.95959"
       y="119.18348">SERVICIO DE 1 MB, Y ESTO</tspan><tspan
       sodipodi:role="line"
       id="tspan1395"
       x="829.95959"
       y="137.18348">NO VA NI A 128KB1...</tspan></text>
  <path
     style="fill:none;fill-opacity:0.75000000;fill-rule:evenodd;stroke:#000000;stroke-width:1.2500000;stroke-linecap:butt;stroke-linejoin:miter;stroke-opacity:1.0000000;stroke-miterlimit:4.0000000;stroke-dasharray:none;"
     d="M 203.47396,292.08372 C 230.31496,312.16339 248.03150,311.15940 248.03150,311.15940"
     id="path1442"
     sodipodi:nodetypes="cc" />
  <path
     style="fill:#ffffff;fill-opacity:1.0000000;fill-rule:evenodd;stroke:#000000;stroke-width:1.2500000;stroke-linecap:butt;stroke-linejoin:miter;stroke-opacity:1.0000000;stroke-miterlimit:4.0000000;stroke-dasharray:none;"
     d="M 590.34223,284.38651 C 621.80037,304.80084 659.95174,293.42236 659.95174,293.42236 C 641.21072,337.59763 594.02350,316.84864 590.34223,284.38651 z "
     id="path2735"
     sodipodi:nodetypes="ccc" />
  <path
     style="fill:none;fill-opacity:0.75000000;fill-rule:evenodd;stroke:#000000;stroke-width:1.2500000;stroke-linecap:butt;stroke-linejoin:miter;stroke-opacity:1.0000000;stroke-miterlimit:4.0000000;stroke-dasharray:none;"
     d="M 593.35418,293.75702 C 630.16690,312.16339 651.25055,307.81279 651.25055,307.81279"
     id="path2736" />
  <path
     style="fill:#ffac00;fill-opacity:1.0000000;fill-rule:evenodd;stroke:#000000;stroke-width:1.2500000;stroke-linecap:butt;stroke-linejoin:miter;stroke-miterlimit:4.0000000;stroke-opacity:1.0000000"
     d="M 591.18670,290.43758 C 583.14090,315.28490 584.56075,326.64367 584.56075,326.64367 C 588.82029,336.34596 595.91953,325.93375 595.91953,325.93375 C 601.12563,308.89559 603.01876,294.46048 603.01876,294.46048 L 591.18670,290.43758 z "
     id="path2100" />
  <path
     style="fill:#ffac00;fill-opacity:1.0000000;fill-rule:evenodd;stroke:#000000;stroke-width:1.2500000;stroke-linecap:butt;stroke-linejoin:miter;stroke-opacity:1.0000000;stroke-miterlimit:4.0000000;stroke-dasharray:none;"
     d="M 199.96177,290.43758 C 191.91597,315.28490 193.33582,326.64367 193.33582,326.64367 C 197.59536,336.34596 204.69460,325.93375 204.69460,325.93375 C 209.90070,308.89559 211.79383,294.46048 211.79383,294.46048 L 199.96177,290.43758 z "
     id="path2071" />
  <path
     style="fill:#ffd4a5;fill-opacity:1.0000000;fill-rule:evenodd;stroke:#000000;stroke-width:1.2500000;stroke-linecap:butt;stroke-linejoin:miter;stroke-miterlimit:4.0000000;stroke-opacity:1.0000000"
     d="M 591.89663,290.91086 C 589.05693,277.18567 592.36991,274.58262 592.36991,274.58262 C 604.43861,271.26964 609.40807,283.10170 609.40807,283.10170 C 609.40807,293.04063 602.30884,294.93376 602.30884,294.93376 L 591.89663,290.91086 z "
     id="path2101" />
  <path
     style="fill:#ffd4a5;fill-opacity:1.0000000;fill-rule:evenodd;stroke:#000000;stroke-width:1.2500000;stroke-linecap:butt;stroke-linejoin:miter;stroke-opacity:1.0000000;stroke-miterlimit:4.0000000;stroke-dasharray:none;"
     d="M 200.67170,290.91086 C 197.83200,277.18567 201.14498,274.58262 201.14498,274.58262 C 213.21368,271.26964 218.18314,283.10170 218.18314,283.10170 C 218.18314,293.04063 211.08391,294.93376 211.08391,294.93376 L 200.67170,290.91086 z "
     id="path2073" />
  <path
     style="fill:#142032;fill-opacity:1.0000000;fill-rule:evenodd;stroke:#000000;stroke-width:1.2500000;stroke-linecap:butt;stroke-linejoin:miter;stroke-miterlimit:4.0000000;stroke-opacity:1.0000000"
     d="M 588.34701,276.94903 L 581.95770,274.10934 C 580.53785,273.63606 581.72106,271.97957 581.72106,271.97957 C 587.40045,274.10934 588.34701,276.94903 588.34701,276.94903 z "
     id="path2102" />
  <path
     style="fill:#142032;fill-opacity:1.0000000;fill-rule:evenodd;stroke:#000000;stroke-width:1.2500000;stroke-linecap:butt;stroke-linejoin:miter;stroke-opacity:1.0000000;stroke-miterlimit:4.0000000;stroke-dasharray:none;"
     d="M 197.12208,276.94903 L 190.73277,274.10934 C 189.31292,273.63606 190.49613,271.97957 190.49613,271.97957 C 196.17552,274.10934 197.12208,276.94903 197.12208,276.94903 z "
     id="path2075" />
  <path
     style="fill:#1420a5;fill-opacity:1.0000000;fill-rule:evenodd;stroke:#000000;stroke-width:1.2500000;stroke-linecap:butt;stroke-linejoin:miter;stroke-miterlimit:4.0000000;stroke-opacity:1.0000000"
     d="M 591.42334,276.00247 L 586.92716,272.21621 L 585.27067,283.33834 L 590.95006,286.65132 L 591.42334,276.00247 z "
     id="path2103" />
  <path
     style="fill:#1420a5;fill-opacity:1.0000000;fill-rule:evenodd;stroke:#000000;stroke-width:1.2500000;stroke-linecap:butt;stroke-linejoin:miter;stroke-opacity:1.0000000;stroke-miterlimit:4.0000000;stroke-dasharray:none;"
     d="M 200.19841,276.00247 L 195.70223,272.21621 L 194.04574,283.33834 L 199.72513,286.65132 L 200.19841,276.00247 z "
     id="path2074" />
  <path
     style="fill:none;fill-opacity:0.75000000;fill-rule:evenodd;stroke:#000000;stroke-width:1.2500000;stroke-linecap:butt;stroke-linejoin:miter;stroke-opacity:1.0000000;stroke-miterlimit:4.0000000;stroke-dasharray:none;"
     d="M 110.74806,237.90324 C 70.866142,301.18108 159.44882,308.89559 159.44882,308.89559"
     id="path2734" />
  <path
     style="fill:none;fill-opacity:0.75000000;fill-rule:evenodd;stroke:#000000;stroke-width:1.2500000;stroke-linecap:butt;stroke-linejoin:miter;stroke-opacity:1.0000000;stroke-miterlimit:4.0000000;stroke-dasharray:none;"
     d="M 408.91591,81.720082 L 378.62584,124.01573 L 407.48031,124.01573 L 389.76378,265.74801 L 566.92913,283.46455"
     id="path2738" />
  <path
     style="fill:none;fill-opacity:0.75000000;fill-rule:evenodd;stroke:#000000;stroke-width:1.2500000;stroke-linecap:butt;stroke-linejoin:miter;stroke-miterlimit:4.0000000;stroke-opacity:1.0000000"
     d="M 668.27461,191.52158 C 698.51740,218.27780 673.95400,253.71087 673.95400,253.71087"
     id="path2739" />
  <path
     style="fill:none;fill-opacity:0.75000000;fill-rule:evenodd;stroke:#000000;stroke-width:1.2500000;stroke-linecap:butt;stroke-linejoin:miter;stroke-miterlimit:4.0000000;stroke-opacity:1.0000000"
     d="M 893.09442,167.92960 L 864.83596,219.96942 L 963.10602,175.73828 L 930.57001,220.96041 L 1023.5328,196.45051 L 1005.2351,229.40211"
     id="path2746" />
</svg>
